**ABCDEFGHIJKLMNOPQRSTUVWXYZabcdefghijklmnopqrstuvwxyz**************************
**PARASOLID !"#$%&'()*+,-./:;<=>?@[\]^_`{|}~0123456789**************************
**PART1;
MC=AMD64;
MC_MODEL=Intel64 Family 6 Model 62 Stepping 4, GenuineIntel;
MC_ID=unknown;
OS=Windows_NT;
OS_RELEASE=unknown;
FRU=Parasolid Version 29.0, build 195, 12- 2-2016;
APPL=SOLIDWORKS 2017-2017109;
SITE=;
USER=unknown;
FORMAT=text;
GUISE=transmit;
KEY=3STRAWSP - Straw Sip & Puff Body - Rev 0;
FILE=3STRAWSP - Straw Sip & Puff Body - Rev 0.x_t;
DATE=Fri Dec 22 08:18:29 2017;
**PART2;
SCH=SCH_2900195_28101;
USFLD_SIZE=0;
**PART3;
**END_OF_HEADER*****************************************************************
T51 : TRANSMIT FILE created by modeller version 290019523 SCH_2900195_28101_1300
6203 0 12 33 CCCCCCI4 mesh1006 0 I8 polyline1008 0 CCCCCCCDI5 owner1040 0 CCCCCC
I13 boundary_mesh1006 0 I17 boundary_polyline1008 0 CCCA16 index_map_offset0 0 1
 dA9 index_map82 0 A17 node_id_index_map82 0 A20 schema_embedding_map82 0 A5 chi
ld12 0 A14 lowest_node_id0 0 1 dZ1 1712 2 3 0 0 0 0 0 0 1e3 1e-8 0 4 0 1 0 1 1 5
 6 7 8 0 0 9 10 11 0 0 0 0 0 0 81 255 2 2 1521 12 1 0 0 0 0 13 0 70 11 CI9 list_
type0 0 1 uI10 notransmit0 0 1 lCCCDCCDI12 finger_index0 0 1 dI12 finger_block10
12 0 CZ3 0 4 T1 0 0 3 20 1 14 14 13 255 5 41 0 1 0 15 0 0 16 0 50 255 6 82 0 15
 17 0 0 +0 0 0 0 1 0 0 0 1 38 255 7 1075 0 10 18 0 0 +19 20 21 22 23 29 255 8 10
69 0 11 24 0 -.002555052432392655 .03100148212399795 .003354062615355355 19 8 CC
CCCCCA5 owner12 0 Z9 45 0 1 16 0 25 V0 16 255 10 1073 0 ?26 0 27 7 0 0 1 18 255
 11 1067 0 28 0 29 8 ?1 17 255 28 0 30 31 31 11 32 33 0 26 -18 29 999 0 34 11 35
 24 ?1 17 34 0 36 37 37 29 38 39 0 40 -18 35 847 0 41 29 42 43 ?1 29 24 1001 0 2
9 43 8 -.001627177214585075 .03100148212399795 -.00388977162213094 29 43 848 0 3
5 44 24 -.00174485003561744 .013619641979375 .00666495205380319 29 44 701 0 42 4
5 43 -.00489959277579009 .01361964197937498 -.00484356048354051 18 42 699 0 46 3
5 47 44 ?1 29 45 440 0 47 48 44 .00418222964697773 .03100148212399795 .000535709
006775622 18 47 439 0 49 42 50 45 ?1 29 48 297 0 50 51 45 .00381 .01385050077173
364 .00191486693951549 18 50 295 0 52 47 53 48 ?1 29 51 187 0 53 54 48 0 .028468
01340993015 0 18 53 144 0 55 50 56 51 ?1 29 54 417 0 56 57 51 .00664444281140757
 .013619641979375 -.001821391570262645 18 56 349 0 58 53 59 54 ?1 29 57 418 0 59
 60 54 .00664444281140757 .013619641979375 .001821391570262645 18 59 350 0 61 56
 62 57 ?1 29 60 419 0 62 63 57 .00381 .01385050077173364 -.00191486693951549 18
 62 346 0 64 59 65 60 ?1 29 63 421 0 65 66 60 .00259668215199765 .01449148212399
792 -61864979316622e-32 18 65 347 0 67 62 68 63 ?1 29 66 499 0 68 69 63 .0041822
2964697773 .03100148212399795 -.000535709006775622 18 68 467 0 70 65 71 66 ?1 29
 69 828 0 71 72 66 -.001744850035617535 .013619641979375 -.00666495205380317 18
 71 757 0 73 68 74 69 ?1 29 72 829 0 74 75 69 -.003563323414487385 .013850500771
73364 -.00234212331866095 18 74 759 0 76 71 77 72 ?1 29 75 830 0 77 78 72 -.0002
466765855126435 .01385050077173364 -.00425699025817646 18 77 756 0 79 74 80 75 ?
1 29 78 831 0 80 81 75 -.001298341075998834 .01449148212399792 -.002248792709183
605 18 80 755 0 82 77 83 78 ?1 29 81 977 0 83 84 78 -.00489959277579002 .0136196
41979375 .00484356048354057 18 83 906 0 85 80 86 81 ?1 29 84 978 0 86 87 81 -.00
0246676585511856 .01385050077173616 .00425699025817688 18 86 908 0 88 83 89 84 ?
1 29 87 979 0 89 90 84 -.003563323414487355 .01385050077173364 .002342123318661
 18 89 905 0 91 86 92 87 ?1 29 90 980 0 92 93 87 -.001298341075998802 .014491482
12399792 .00224879270918362 18 92 904 0 94 89 95 90 ?1 29 93 1060 0 95 96 90 -.0
0255505243239269 .03100148212399795 -.003354062615355325 18 95 1028 0 37 92 97 9
3 ?1 29 96 1128 0 97 0 93 -.001627177214585015 .03100148212399795 .0038897716221
30965 18 97 1096 0 31 95 0 96 ?1 17 31 0 30 28 28 97 26 10 0 32 -15 255 30 1102
 0 31 98 99 17 26 0 100 101 102 11 31 10 0 103 +17 32 0 104 49 103 97 28 33 0 10
2 +15 104 153 0 103 105 0 17 49 0 104 106 32 47 102 107 0 108 +17 103 0 104 32 3
8 11 101 109 0 0 +16 33 1092 0 ?32 110 0 111 0 0 1 17 102 0 100 26 112 97 49 107
 0 0 -15 100 157 0 102 113 114 17 112 0 100 102 115 47 70 116 0 0 +16 107 1071 0
 ?49 109 117 118 109 119 1 16 109 1003 0 ?103 119 107 118 119 107 1 16 117 141 0
 ?120 107 121 122 0 0 1 31 255 118 182 0 119 122 123 0 +0 .03100148212399795 0 0
 1 0 0 0 1 .0042164 16 119 442 0 ?124 125 109 118 107 109 1 17 124 0 104 38 106
 29 115 119 0 0 +16 125 49 0 ?126 127 119 123 0 0 1 17 126 0 128 126 126 0 129 1
25 0 0 +16 127 54 0 ?130 131 125 132 0 0 1 31 123 83 0 125 118 132 0 +0 .0462414
821239979 0 0 1 0 0 0 1 .012192 31 132 84 0 127 123 133 0 +0 .0457334821239979 0
 0 1 0 0 0 1 .0127 31 133 85 0 131 132 134 0 +0 .001791482123997935 0 0 1 0 0 0
 1 .0127 16 131 59 0 ?135 136 127 133 0 0 1 31 134 86 0 136 133 137 0 +0 0 0 0 1
 0 0 0 1 .00254 16 136 64 0 ?138 139 131 134 0 0 1 38 137 209 0 139 134 140 0 +1
7 141 142 143 143 16 139 207 0 ?144 145 136 137 0 0 1 38 140 298 0 145 137 146 0
 +147 148 149 150 151 52 255 17 81 0 152 153 6 154 -0 0 0 0 1 0 .00254 .98480775
3012209 .173648177666924 0 0 1 52 141 268 0 155 148 156 157 +.00635 .00067180579
6499229 0 .173648177666924 -.984807753012209 0 .003429 .707106781186551 .7071067
81186545 .984807753012209 .173648177666924 0 40 255 20 142 0 1 20 .0002213981137
072135 .388323271845807 ??.0044913786402902 .000477956368188303 -.00271966607251
785 .003630697546862635 .0002756912263538745 -.00191231100476835 .00309645001941
837 .000118504943495941 -.000854062435276472 .002983829731028925 801502388617311
e-19 .00025321402737245 .00321578817439072 .000156789857373244 .0011908465082383
46 .003733683497453635 .0003025380202203025 .002042365566666385 .004580623511534
58 .000496610051749451 .00277652226261023 .0056751973088131 .000702233124085903
 .003214957215037565 .00685598024070455 .000890547694351798 .0032575969542207 .0
0796503223801704 .00104682788628938 .00290092199313272 .00887017394227715 .00116
3651919295792 .002201955850093275 .00947386076163085 .001237277504956682 .001257
475438969598 .00972161350975953 .001266623724570104 .000185341210090478 .0096013
6747987931 .001252440616669288 -.00089448628129107 .00913503338417986 .001196339
88706925 -.00187154996479894 .00837111358806733 .001100278876897382 -.0026481521
1699017 .00738284163922173 .000966846199885937 -.003141067755322595 .00626832567
313631 .000800218261261629 -.003287841886628615 .00514611192710349 .000607584684
691484 -.003057309575932085 .0044913786402902 .000477956368188303 -.002719666072
51785 41 3 CI8 term_use0 0 1 cCZ1 143 H?.0044913786402902 .000477956368188303 -.
00271966607251785 14 255 155 236 158 ?159 160 161 5 141 -0 0 159 160 25 52 148 4
04 0 162 163 141 164 +.00381 .01449148212399794 -544355502220998e-33 1 0 6123233
99573677e-31 .0020193 .857167300702112 .515038074910055 612323399573677e-31 0 -1
 51 255 156 267 0 165 141 147 166 +.00635 .000671805796499229 0 .173648177666924
 -.984807753012209 0 .0031242 .984807753012209 .173648177666924 0 141 255 157 13
7 157 157 141 14 165 254 167 ?168 159 169 5 156 -0 0 168 159 25 52 147 266 0 159
 156 170 171 +.004144668143630065 .0131788642597543 0 .173648177666924 -.9848077
53012209 0 .0031242 .857167300702112 .515038074910054 .984807753012209 .17364817
7666924 0 141 166 172 166 166 156 38 172 409 0 173 174 175 0 +156 163 176 177 17
8 16 173 336 0 ?179 180 181 172 0 0 1 31 174 410 0 181 182 172 0 +.00381 .014491
48212399794 -544355502220998e-33 1 0 612323399573677e-31 612323399573677e-31 0 -
1 .0020193 31 175 270 0 180 172 183 0 +.00629707203544712 .000971975199617349 0
 .173648177666924 -.984807753012209 0 .984807753012209 .173648177666924 0 .00312
42 51 163 405 0 184 185 148 186 +.0127 .01449148212399794 0 1 0 612323399573677e
-31 .0020193 612323399573677e-31 0 -1 40 9 176 0 1 9 .000173158921865567 .397747
993087477 ??.00664444281140757 .013619641979375 .001821391570262645 .00701781295
838584 .0130193923036487 .00138221707803953 .00733088606192979 .0126073709794431
6 .000726428031510735 .00743350440546118 .0124820012951313 .0001988951694169385
 .00741575354609208 .0125034207166698 -.0003538139775256385 .00729222528700873 .
012655640029084 -.000840985310538786 .00701551088320588 .01302263734011534 -.001
38566499950779 .0066893989889938 .01353633193858172 -.00177911793125115 .0066444
4281140757 .01361964197937498 -.00182139157026266 41 1 177 L?.00664444281140757
 .013619641979375 .001821391570262645 41 1 178 L?.00664444281140757 .01361964197
937498 -.00182139157026266 14 184 365 187 ?162 168 188 5 163 -0 0 162 168 25 50
 185 406 0 189 190 163 0 +.00762 .01651078212399795 -3110602869834275e-34 -1 0 -
612323399573677e-31 -612323399573677e-31 0 1 141 186 146 191 192 163 38 146 300
 0 193 140 194 0 +147 163 195 196 197 141 191 172 192 186 163 141 192 194 186 19
1 163 38 194 303 0 198 146 199 0 +147 163 200 201 202 16 198 301 0 ?203 204 193
 194 0 0 1 38 199 313 0 204 194 205 0 +153 206 207 208 208 40 3 200 0 1 3 .00030
5285216273513 .2937433511499245 ??.00722160452559081 .0134686406464886 -.0017410
82365049545 .0050110022600383 .01391416574705576 -.00193501377021352 .0038098 .0
1385046001334552 -.00191485329559597 41 1 201 L?.00722160452559081 .013468640646
4886 -.001741082365049545 41 1 202 L?.0038098 .01385046001334552 -.0019148532955
9597 16 204 311 0 ?209 116 198 199 0 0 1 38 205 446 0 116 199 210 0 +19 211 212
 213 214 51 153 80 0 215 216 17 217 -0 .0462414821239979 0 0 1 0 .0127 0 0 1 52
 206 408 0 168 211 190 218 +.0127 .01449148212399794 0 1 0 612323399573677e-31 .
002794 .707106781186546 .707106781186549 612323399573677e-31 0 -1 40 20 207 0 1
 20 .0001804044027692445 .3781651410017185 ??.01256308510945742 .012593797031030
16 -.00185980981796445 .01263613239634024 .01207581144292694 -.00127206841882053
2 .0126919171346204 .01174264694650136 -.000453033605739119 .01269520697136542 .
01172418098842936 .000348883869209333 .01265485959356346 .01195934855762918 .001
06982646592547 .01258558019124156 .01242098007100064 .001700932464805165 .012507
29206889138 .01310978920434094 .00220400660240547 .01245197588423636 .0139978257
4075442 .002497658218891465 .01245203515484126 .01498693596351282 .0024973627094
5922 .0125130645277103 .0159349395450144 .00217099427114811 .01260499919908288 .
01670069046309365 .001550482244696765 .01267804738817222 .0171611510733272 .0007
46400980210815 .0126997668926506 .01728418915806625 -769472048602202e-19 .012673
01115643266 .017131853785505 -.000827519322392724 .0126120588546769 .01674908773
14523 -.00149196898297716 .01253391799329592 .01613922398550295 -.00204716871247
402 .01246636492850994 .0153135059058476 -.00242481864666562 .01244456842467374
 .01434446878059828 -.002534307937803345 .01248602808371304 .01336567476036126 -
.00232144409640409 .01256308510835686 .0125937970308199 -.00185980981828298 41 1
 208 H?.01256308510835686 .0125937970308199 -.00185980981828298 14 168 356 219 ?
184 165 220 5 206 -0 0 184 165 25 51 211 492 0 221 222 206 223 +0 .0386214821239
9805 0 -.707106781186546 .70710678118655 0 .002489200000000055 -.70710678118655
 -.707106781186546 0 51 190 407 0 224 206 185 0 +.0127 .01449148212399794 0 1 0
 612323399573677e-31 .002413 612323399573677e-31 0 -1 141 218 199 218 218 206 14
 224 392 225 ?221 189 226 5 190 -0 0 221 189 25 81 1 225 1680 227 224 228 0 219
 229 230 14 221 471 229 ?231 224 232 5 211 -0 0 231 224 25 14 189 387 233 ?224 1
62 234 5 185 -0 0 224 162 25 15 226 395 0 235 224 236 13 25 44 0 0 0 0 0 0 9 15
 14 15 72 237 ?152 0 238 5 6 -0 0 152 0 25 81 1 237 1683 227 15 239 0 233 240 24
1 14 152 67 240 ?215 15 242 5 17 -0 0 215 15 25 15 238 111 0 243 15 0 17 243 0 2
38 243 243 0 138 136 0 0 -17 138 0 244 138 138 0 243 136 0 0 +15 244 66 0 138 15
2 0 81 1 240 1684 227 152 245 0 237 246 247 14 215 62 246 ?248 152 249 5 153 -0
 0 248 152 25 15 242 609 0 250 152 251 17 250 0 242 250 250 0 252 253 0 0 +15 25
1 522 0 254 152 255 17 254 0 251 254 254 0 256 257 0 0 +15 255 204 0 144 152 258
 17 144 0 255 144 144 0 259 139 0 0 +15 258 110 0 260 152 244 17 260 0 258 260 2
60 0 135 131 0 0 -17 135 0 261 135 135 0 260 131 0 0 +15 261 61 0 135 215 0 17 2
59 0 262 259 259 0 144 139 0 0 -15 262 240 0 259 155 0 17 256 0 263 256 256 0 25
4 257 0 0 -16 257 525 0 ?254 253 116 210 0 0 1 16 253 612 0 ?250 264 257 265 0 0
 1 16 116 444 0 ?112 257 204 205 0 0 1 38 210 527 0 257 205 265 0 +17 266 267 26
8 268 38 265 614 0 253 210 269 0 +17 270 271 272 272 52 266 586 0 231 273 274 27
5 +-.003175 .000671805796499229 -.00549926131403117 -.0868240888334626 -.9848077
53012209 -.1503837331804295 .003429 .707106781186551 .707106781186544 0 .1509537
86239875 -.988540820816139 40 20 267 0 1 20 .0002293046377661545 .38523818026361
15 ??-.00574499760279216 .001242994010840456 -.00767795589971372 -.0062607429540
1935 .001182982531200984 -.00680790746625756 -.00649318792679551 .00108039538448
5162 -.00574102162090474 -.00636440175442631 .000941035681087074 -.0046410781070
7153 -.00587539835433636 .000769430013200663 -.003624932948129095 -.005065114899
14114 .000573466530973636 -.00280984663434367 -.004011540552802225 .000367384423
441635 -.00229884103119688 -.002831405742152245 .000181213735516859 -.0021706510
2611771 -.001705215888771025 799560723020256e-19 -.002460284972455435 -.00086543
1676590534 .0001112737738852176 -.00305068530149023 -.0002952859901742125 .00022
72154150800315 -.003817198508869775 58079277928949e-18 .000402823738240156 -.004
82417734158479 745903596869599e-19 .000607654314226892 -.00598571413288891 -.000
3057155038023715 .000806535430475842 -.00710751789502439 -.001037950209259312 .0
0097890197692679 -.00802478155421727 -.002021551702820645 .001114679110092886 -.
00862799719136707 -.00312937890158099 .001208621853265216 -.008857900391765 -.00
422812659478872 .001258500774128642 -.00870478741199367 -.00519749508461359 .001
264339598149034 -.0082023424325378 -.00574499760279216 .001242994010840456 -.007
67795589971372 41 1 268 H?-.00574499760279216 .001242994010840456 -.007677955899
71372 14 231 554 276 ?277 221 278 5 266 -0 0 277 221 25 52 273 671 0 279 280 266
 281 +-.002072334071815 .0131788642597543 .003589387902639745 -.0868240888334605
 -.984807753012209 .1503837331804305 .0031242 .857167300702112 .515038074910055
 0 -.1509537862398765 -.988540820816139 51 274 585 0 282 266 222 283 +-.003175 .
000671805796499229 -.00549926131403117 -.0868240888334626 -.984807753012209 -.15
03837331804295 .0031242 0 .150953786239875 -.988540820816139 141 275 210 275 275
 266 14 282 572 284 ?285 277 286 5 274 -0 0 285 277 25 52 222 584 0 277 274 211
 287 +-.00207233407181505 .0131788642597543 -.00358938790263972 -.08682408883346
26 -.984807753012209 -.1503837331804295 .0031242 .857167300702112 .5150380749100
55 0 .150953786239875 -.988540820816139 141 283 269 283 283 274 38 269 704 0 264
 265 288 0 +274 289 290 291 292 16 264 702 0 ?293 294 253 269 0 0 1 38 288 715 0
 294 269 295 0 +222 296 297 298 299 51 289 814 0 300 301 296 302 +-.00635 .01449
148212399794 -.01099852262806234 -.5 0 -.866025403784436 .0020193 -.866025403784
436 0 .5 40 9 290 0 1 9 .0001731589218655665 .397747993087478 ??-.00174485003561
7535 .013619641979375 -.00666495205380317 -.00231187137606602 .0130193923036487
 -.00676871283998951 -.00303633790165551 .01260737097944316 -.00671194757763581
 -.003544503933325545 .0124820012951313 -.00653705123898137 -.004014288665797295
 .0125034207166698 -.00624532397035744 -.004374427286640525 .012655640029084 -.0
0589475969339941 -.00470777653231166 .01302263734011536 -.00538277814562858 -.00
488546081928884 .01353633193858172 -.00490363049489297 -.0048995927757901 .01361
964197937498 -.0048435604835405 41 1 291 L?-.001744850035617535 .013619641979375
 -.00666495205380317 41 1 292 L?-.0048995927757901 .01361964197937498 -.00484356
04835405 14 300 779 303 ?304 305 306 5 289 -0 0 304 305 25 50 301 815 0 304 307
 289 0 +-.00381 .01651078212399795 -.00659911357683741 .5 0 .866025403784436 .86
6025403784436 0 -.5 52 296 813 0 305 289 270 308 +-.001905 .01449148212399794 -.
003299556788418705 -.5 0 -.866025403784436 .0020193 .857167300702111 .5150380749
10056 -.866025403784436 0 .5 141 302 269 309 310 289 141 309 311 310 302 289 141
 310 312 302 309 289 38 312 819 0 313 314 311 0 +222 289 315 316 317 16 313 749
 0 ?318 319 320 312 0 0 1 31 314 820 0 320 321 312 0 +-.001905 .0144914821239979
4 -.003299556788418705 -.5 0 -.866025403784436 -.866025403784436 0 .5 .0020193 3
8 311 818 0 319 312 322 0 +222 289 323 324 325 40 3 315 0 1 3 .00028907064982472
95 .3375028446811045 ??-.00518493602545475 .01341690532467522 -.0055612994954186
1 -.00425312177407785 .01390032284323362 -.003504963673727105 -.0035278233013942
55 .01383710671359858 -.00228970678841869 41 1 316 L?-.00518493602545475 .013416
90532467522 -.00556129949541861 41 1 317 L?-.003527823301394255 .013837106713598
58 -.00228970678841869 16 319 747 0 ?326 327 313 311 0 0 1 31 322 675 0 327 311
 328 0 +-.00314853601772351 .000971975199617349 .00545342435215782 -.08682408883
34605 -.984807753012209 .1503837331804305 0 -.1509537862398765 -.988540820816139
 .0031242 40 3 323 0 1 3 .0003221494503998505 .2762213595449795 ??-.000156034902
138106 .0138017120881254 -.004065936754141945 -.000644520094302166 .013930165691
04082 -.00499577261744449 -.00175480720681793 .0136155384632318 -.00667825856864
806 41 1 324 L?-.000156034902138106 .0138017120881254 -.004065936754141945 41 1
 325 L?-.00175480720681793 .0136155384632318 -.00667825856864806 16 327 629 0 ?3
29 330 319 322 0 0 1 31 328 674 0 330 322 331 0 +-.002072334071815 .013178864259
7543 .003589387902639745 -.0868240888334605 -.984807753012209 .1503837331804305
 0 -.1509537862398765 -.988540820816139 .0031242 16 330 850 0 ?332 333 327 328 0
 0 1 31 331 588 0 333 328 334 0 +-.003148536017723585 .000971975199617349 -.0054
5342435215778 -.0868240888334626 -.984807753012209 -.1503837331804295 0 .1509537
86239875 -.988540820816139 .0031242 16 333 542 0 ?335 336 330 331 0 0 1 31 334 5
87 0 336 331 337 0 +-.00207233407181505 .0131788642597543 -.00358938790263972 -.
0868240888334626 -.984807753012209 -.1503837331804295 0 .150953786239875 -.98854
0820816139 .0031242 16 336 546 0 ?338 339 333 334 0 0 1 38 337 495 0 339 334 340
 0 +341 211 342 343 344 16 339 463 0 ?106 345 336 337 0 0 1 38 340 494 0 345 337
 346 0 +153 211 347 348 348 52 341 177 0 105 19 349 350 +0 .03100148212399795 0
 0 1 0 .0042164 .857167300702112 .515038074910055 0 0 1 40 3 342 0 1 3 .00014020
60155627904 .3374504338750035 ??.00418240923200378 .031001682123998 .00053692550
1394158 .00415523421625191 .03097108764674955 -.0002967221174357435 .00418240923
2003715 .03100168212399795 -.000536925501393719 41 1 343 L?.00418240923200378 .0
31001682123998 .000536925501394158 41 1 344 L?.004182409232003715 .0310016821239
9795 -.000536925501393719 14 105 149 351 ?113 352 353 5 341 -0 0 113 352 25 51 1
9 178 0 113 354 341 355 +0 .0462414821239979 0 0 1 0 .0042164 0 0 1 50 349 78 0
 352 341 216 0 +.012192 .0462414821239979 0 0 -1 0 0 0 -1 141 350 337 356 357 34
1 141 356 111 357 350 341 141 357 358 350 356 341 38 358 1056 0 39 359 360 0 +34
1 361 362 363 364 16 39 1024 0 ?38 365 110 358 0 0 1 38 359 1123 0 110 111 358 0
 +153 20 366 367 367 38 360 1055 0 365 358 368 0 +153 361 369 370 370 51 361 105
3 0 371 20 372 373 +0 .03862148212399805 0 .3535533905932755 .70710678118655 .61
2372435695791 .002489200000000055 .3535533905932775 -.707106781186546 .612372435
695795 40 6 362 -.000813001239481706 .999256903659085 6 .000140206015562792 .337
450433875004 ??-.001077643708827774 .0312194447611658 -.00445053992026458 -.0016
26213491853585 .0310016821239983 -.003890535394635925 -.002334585999688545 .0309
7108764674945 -.0034501773312313 -.00255619574015005 .0310016821239982 -.0033536
0989324031 -.00333152470236873 .03122572086228565 -.00315679172102512 -.00387859
746581814 .03147584137553295 -.003164676888462675 41 1 363 L?-.00107764370882777
4 .0312194447611658 -.00445053992026458 41 1 364 L?-.00387859746581814 .03147584
137553295 -.003164676888462675 14 371 1032 374 ?98 375 36 5 361 -0 0 98 375 25 5
1 20 1121 0 98 0 361 376 +0 .03862148212399805 0 .353553390593267 .7071067811865
5 -.612372435695796 .002489200000000055 .353553390593269 -.707106781186546 -.612
3724356958 52 372 966 0 377 361 378 379 +-.0063499999999999 .01449148212399794 .
01099852262806242 -.499999999999992 0 .866025403784443 .002794 .707106781186547
 .707106781186548 .866025403784443 0 .499999999999992 141 373 18 380 381 361 38
 18 1007 0 27 382 7 0 +19 361 383 384 385 141 380 360 381 373 361 141 381 358 37
3 380 361 16 27 1005 0 ?40 10 386 18 0 0 1 38 382 876 0 386 387 18 0 +153 372 38
8 389 389 40 19 383 0 1 19 .0003688255182200875 .399080990719771 ??-.00255505243
239269 .03100148212399795 -.003354062615355325 -.00304437448512981 .031471798651
00345 -.00291715836976511 -.003496048665890915 .03247559305233805 -.002357047450
884775 -.00383306921500421 .0344959995578736 -.00175659026326204 -.0038481493398
6006 .0356305555800186 -.001723303692949895 -.00374489528669621 .036501549711921
25 -.0019374695485815 -.00346803231384869 .0372356986167989 -.00239807857046039
 -.00306242863883939 .03766217382677925 -.002898199405150775 -.00250337637087778
5 .03788804567152585 -.0033928064645262 -.00180588609551303 .03790595411259715 -
.003810092435890855 -.001056365382224696 .03769766221072535 -.004081926155534575
 -.0003740992123858005 .0372640114648808 -.00419977127225904 .000117657516251828
2 .03665209107547695 -.004214758079518855 .0003821358037437685 .0359362859050133
 -.004199047652444195 .0004295142841345105 .03475841303041955 -.0041944661686238
35 -988575567187884e-19 .0328684508932557 -.004215240935400915 -.000759688400827
613 .03175449107271205 -.0041473970745095 -.00129700525578623 .03120705192741535
 -.004011957916835995 -.001627177214585075 .03100148212399795 -.0038897716221309
4 41 1 384 L?-.00255505243239269 .03100148212399795 -.003354062615355325 41 1 38
5 L?-.001627177214585075 .03100148212399795 -.00388977162213094 16 386 874 0 ?39
0 27 391 382 0 0 1 38 387 864 0 391 392 382 0 +273 393 394 395 396 40 20 388 0 1
 20 .000181844430555209 .3769489435028425 ??-.007722828254327 .01236886997170856
 .01008205951145596 -.00811113049489758 .01299011946505882 .00977238773763825 -.
00836829589572742 .01385462820751262 .0095530949854773 -.008404754522697 .014837
20793386322 .00952103468186122 -.008190651238764 .015800584992551 .0097058349607
3026 -.00773259006631236 .0166025370727486 .0100745744756971 -.00709051376010413
 .0171141976106897 .01053634730909028 -.00638735484090833 .0172850751003492 .010
97687105400828 -.00571621844482771 .01716996190191975 .01134084858778264 -.00510
075804885768 .0168210526111714 .01163066065737512 -.00456439072994895 .016245516
6711527 .0118514276466743 -.004173435241198645 .01544954750886375 .0119946837510
4242 -.00402408488849641 .01449447164612578 .01204561085251282 -.004181772982092
69 .01350779164153418 .0119917794645432 -.00463993337373837 .01263364062592286 .
01182205643224852 -.00531805790582798 .01200864158199914 .0115329207103084 -.006
06342081212551 .01172113398037392 .01115907379915928 -.00674670246884139 .011744
66164926942 .0107597400431855 -.00733712297635126 .01201446695715278 .0103661288
0635284 -.00772282825057147 .0123688699680381 .01008205950251114 41 1 389 H?-.00
772282825057147 .0123688699680381 .01008205950251114 16 391 862 0 ?397 386 398 3
87 0 0 1 38 392 854 0 398 295 387 0 +280 399 400 401 402 52 393 962 0 403 399 40
4 405 +-.00190499999999997 .01449148212399794 .00329955678841873 -.4999999999999
92 0 .866025403784443 .0020193 .857167300702112 .515038074910055 .86602540378444
3 0 .499999999999992 40 8 394 0 1 8 .000153246968159849 .374601191701714 ??-.000
220310461145827 .01382814993425872 .00430940678841871 -.000739016296551437 .0141
647432615788 .003312276012381 -.001012049636120596 .0141934492998641 .0028459927
63347425 -.00127513173812364 .01415278550561076 .00252096747638411 -.00149914470
8621992 .01414921238178198 .00238175136600948 -.00185003949168164 .0141851387715
4404 .00230716311344755 -.00259093522307473 .014148249095951 .00229842543785464
 -.00365396509786189 .01381578812884916 .00234736962692952 41 1 395 L?-.00022031
0461145827 .01382814993425872 .00430940678841871 41 1 396 L?-.00365396509786189
 .01381578812884916 .00234736962692952 14 403 923 406 ?407 377 408 5 393 -0 0 40
7 377 25 51 399 963 0 407 409 393 410 +-.0063499999999999 .01449148212399794 .01
099852262806242 -.499999999999992 0 .866025403784443 .0020193 .866025403784443 0
 .499999999999992 52 404 817 0 411 393 307 412 +-.00635 .01449148212399794 -.010
99852262806234 -.5 0 -.866025403784436 .002794 .707106781186546 .707106781186549
 -.866025403784436 0 .5 141 405 387 405 405 393 14 411 765 413 ?305 414 415 5 40
4 -0 0 305 414 25 51 307 816 0 416 404 301 0 +-.00635 .01449148212399794 -.01099
852262806234 -.5 0 -.866025403784436 .002413 -.866025403784436 0 .5 141 412 295
 412 412 404 38 295 727 0 417 288 392 0 +153 404 418 419 419 16 417 725 0 ?420 3
98 294 295 0 0 1 40 20 418 0 1 20 .000181098502015881 .3787070059887985 ??-.0066
8386682301986 .0117307043325633 -.0107988853263721 -.00596362867995103 .01174039
982231742 -.01121272192501292 -.00532576849176224 .01200385255469952 -.011529362
0800178 -.00475436802862174 .01249332186370908 -.01177650137555374 -.00429788906
2220025 .0132092902250283 -.0119506547774107 -.004046449726124315 .0141164618886
2848 -.01203811632332684 -.004085023465161905 .01510838966923995 -.0120250814254
6554 -.00443506428108019 .0160415019278912 -.01190042876633808 -.005044912510311
53 .0167755189282548 -.0116549928255363 -.00578462648786417 .01719362481040095 -
.0113061088087768 -.00649974423794455 .0172788953018261 -.01091069772477024 -.00
712490251219512 .0170969720506934 -.01051312342701804 -.00765847129608599 .01668
656989623785 -.01013103239591242 -.00808506053002598 .01604880178536265 -.009793
96733840868 -.00835582833600337 .01520001363460915 -.00956400192488705 -.0084106
547954738 .0142219229288126 -.00951582292349819 -.00821589875665557 .01325196812
320694 -.00968447250088437 -.00777526327218049 .01243281634001356 -.010041677202
95176 -.00714336066985342 .01189563045533502 -.0105005903805639 -.00668386682301
986 .0117307043325633 -.0107988853263721 41 1 419 H?-.00668386682301986 .0117307
043325633 -.0107988853263721 17 420 0 421 420 420 0 422 417 0 0 +16 398 852 0 ?4
23 391 417 392 0 0 1 16 294 713 0 ?424 417 264 288 0 0 1 17 424 0 425 326 318 77
 76 294 0 0 +15 425 571 0 424 277 0 17 326 0 425 338 424 71 79 319 0 426 +17 318
 0 425 424 338 74 46 313 0 0 +17 76 0 427 428 428 74 424 294 0 429 -15 427 778 0
 428 305 0 17 428 0 427 76 76 77 429 320 0 424 +17 429 0 430 46 79 74 428 320 0
 318 -15 430 783 0 429 300 0 17 46 0 430 73 429 42 318 313 0 293 -17 79 0 430 42
9 73 77 326 319 0 428 -16 320 746 0 ?428 313 431 314 0 0 1 16 431 752 0 ?432 320
 433 321 0 0 1 17 432 0 306 432 432 0 434 431 0 0 +16 433 753 0 ?435 431 436 437
 0 0 1 31 321 821 0 431 437 314 0 +-.00381 .01449148212399794 -.0065991135768374
1 -.5 0 -.866025403784436 -.866025403784436 0 .5 .0020193 31 437 822 0 433 438 3
21 0 +-.00381 .01449148212399794 -.00659911357683741 -.5 0 -.866025403784436 -.8
66025403784436 0 .5 .002413 31 438 823 0 436 439 437 0 +-.0061595 .0144914821239
9794 -.01066856694922046 -.5 0 -.866025403784436 -.866025403784436 0 .5 .002413
 16 436 742 0 ?440 433 441 438 0 0 1 38 439 967 0 441 442 438 0 +273 399 443 444
 445 16 441 896 0 ?446 436 447 439 0 0 1 38 442 968 0 447 448 439 0 +273 399 449
 450 451 40 3 443 0 1 3 .000281751712372182 .2967630105785505 ??-.00175480720681
7835 .0136155384632318 .00667825856864808 -.000691199585324472 .0139285923597081
8 .00507571190046443 -.000156034902138046 .0138017120881254 .004065936754141945
 41 1 444 L?-.001754807206817835 .0136155384632318 .00667825856864808 41 1 445 L
?-.000156034902138046 .0138017120881254 .004065936754141945 16 447 898 0 ?452 44
1 453 442 0 0 1 31 448 969 0 453 454 442 0 +-.00190499999999997 .014491482123997
94 .00329955678841873 -.499999999999992 0 .866025403784443 .866025403784443 0 .4
99999999999992 .0020193 40 3 449 0 1 3 .0003276470822648065 .3206597029480955 ??
-.003527823301394215 .0138371067135986 .00228970678841875 -.004206811765727405 .
01390971031684446 .00341905393364504 -.00518493602545438 .01341690532467546 .005
56129949541788 41 1 450 L?-.003527823301394215 .0138371067135986 .00228970678841
875 41 1 451 L?-.00518493602545438 .01341690532467546 .00556129949541788 16 453
 897 0 ?455 447 456 448 0 0 1 31 454 970 0 456 457 448 0 +-.00380999999999994 .0
1449148212399794 .00659911357683746 -.499999999999992 0 .866025403784443 .866025
403784443 0 .499999999999992 .0020193 16 456 901 0 ?458 453 459 454 0 0 1 31 457
 971 0 459 368 454 0 +-.00380999999999994 .01449148212399794 .00659911357683746
 -.499999999999992 0 .866025403784443 .866025403784443 0 .499999999999992 .00241
3 16 459 902 0 ?460 456 461 457 0 0 1 31 368 972 0 461 360 457 0 +-.006159499999
9999 .01449148212399794 .01066856694922056 -.499999999999992 0 .866025403784443
 .866025403784443 0 .499999999999992 .002413 16 461 891 0 ?462 459 365 368 0 0 1
 17 462 0 463 462 462 0 464 461 0 0 +16 365 1025 0 ?465 461 39 360 0 0 1 17 465
 0 466 465 465 0 467 365 0 0 +15 466 1015 0 465 215 468 17 467 0 469 467 467 0 4
65 365 0 0 -15 469 1035 0 467 371 0 15 468 871 0 390 215 421 17 390 0 468 390 39
0 0 470 386 0 0 +15 421 722 0 420 215 471 15 471 454 0 472 215 473 17 472 0 471
 472 472 0 474 345 0 0 +15 473 308 0 209 215 475 17 209 0 473 209 209 0 476 204
 0 0 +15 475 109 0 477 215 261 17 477 0 475 477 477 0 130 127 0 0 -17 130 0 478
 130 130 0 477 127 0 0 +15 478 56 0 130 248 0 14 248 57 479 ?352 215 480 5 216 -
0 0 352 215 25 81 1 479 1693 227 248 481 0 413 482 483 14 352 52 482 ?105 248 48
4 5 349 -0 0 105 248 25 15 480 108 0 129 248 478 52 216 79 0 248 349 153 0 -0 .0
457334821239979 0 0 -1 0 .0127 .707106781186546 .707106781186549 0 0 -1 17 129 0
 480 129 129 0 126 125 0 0 -81 1 482 1694 227 352 485 0 479 486 487 15 484 132 0
 488 352 128 17 488 0 484 488 488 0 489 490 0 0 -15 128 51 0 126 352 0 17 489 0
 491 489 489 0 488 490 0 0 +16 490 139 0 ?489 492 493 494 0 0 1 16 492 143 0 ?49
5 121 490 496 0 0 1 16 493 228 0 ?497 490 180 183 0 0 1 31 494 186 0 490 183 496
 0 +0 .0462414821239979 0 0 1 0 0 0 1 .005842 31 183 269 0 493 175 494 0 +.00414
4668143630065 .0131788642597543 0 .173648177666924 -.984807753012209 0 .98480775
3012209 .173648177666924 0 .0031242 31 496 185 0 492 494 498 0 +0 .0455432869239
979 0 0 1 0 0 0 1 .0051438048 31 498 184 0 121 496 122 0 +0 .03930728212399795 0
 0 1 0 0 0 1 .00495709046521414 16 121 142 0 ?499 117 492 498 0 0 1 31 122 183 0
 117 498 118 0 +0 .03930728212399795 0 0 1 0 0 0 1 .0042164 17 499 0 500 499 499
 0 501 121 0 0 +15 500 163 0 499 502 0 17 501 0 503 501 501 0 499 121 0 0 -15 50
3 167 0 501 504 505 14 504 164 486 ?160 502 503 5 506 -0 0 160 502 25 15 505 168
 0 495 504 0 17 495 0 505 495 495 0 507 492 0 0 +17 507 0 508 507 507 0 495 492
 0 0 -15 508 172 0 507 160 491 14 160 169 509 ?155 504 508 5 170 -0 0 155 504 25
 15 491 173 0 489 160 0 81 1 509 1696 227 160 510 0 486 511 512 52 170 181 0 160
 147 506 0 +0 .0462414821239979 0 0 1 0 .005842 .707106781186547 .70710678118654
8 0 0 1 52 506 180 0 504 170 354 0 +0 .0455432869239979 0 0 1 0 .0051438048 .029
92792722492325 .999552059260557 0 0 1 50 354 179 0 502 506 19 0 +.0042164 .03930
728212399795 0 0 -1 0 0 0 -1 14 502 159 511 ?504 113 513 5 354 -0 0 504 113 25 8
1 1 511 1697 227 502 514 0 509 515 516 14 113 154 515 ?502 105 100 5 19 -0 0 502
 105 25 15 513 162 0 517 502 500 17 517 0 513 517 517 0 120 117 0 0 -17 120 0 11
4 120 120 0 517 117 0 0 +15 114 158 0 120 113 0 81 1 515 1698 227 113 518 0 511
 519 520 80 255 1 227 521 522 9000 1 1 1 1 1 1 1 1 0 FFFFTFTFFFFFFF1 81 1 518 15
69 523 113 0 515 524 514 525 81 1 519 1699 227 162 526 0 515 527 528 82 255 1 52
0 811532495 14 162 370 519 ?189 184 529 5 148 -0 0 189 184 25 81 1 526 1578 523
 162 0 519 530 531 532 81 1 527 1700 227 159 533 0 519 534 535 82 1 528 89148641
2 14 159 249 527 ?165 155 536 5 147 -0 0 165 155 25 81 1 533 1574 523 159 0 527
 537 538 539 81 1 534 1701 227 277 540 0 527 541 542 82 1 535 835322060 14 277 5
67 534 ?282 231 425 5 222 -0 0 282 231 25 81 1 540 1583 523 277 0 534 543 544 54
5 81 1 541 1702 227 285 546 0 534 547 548 82 1 542 943849679 14 285 641 541 ?279
 282 549 5 270 -0 0 279 282 25 81 1 546 1585 523 285 0 541 544 550 551 81 1 547
 1703 227 279 550 0 541 552 553 82 1 548 994967759 14 279 654 547 ?414 285 554 5
 273 -0 0 414 285 25 81 1 550 1586 523 279 0 547 546 555 556 81 1 552 1704 227 4
14 555 0 547 557 558 82 1 553 977928399 14 414 659 552 ?411 279 559 5 280 -0 0 4
11 279 25 81 1 555 1587 523 414 0 552 550 560 561 81 1 557 1705 227 305 562 0 55
2 563 564 82 1 558 977338575 14 305 774 557 ?300 411 565 5 296 -0 0 300 411 25 8
1 1 562 1589 523 305 0 557 560 566 567 81 1 563 1706 227 304 568 0 557 569 570 8
2 1 564 1037238479 14 304 796 563 ?416 300 571 5 301 -0 0 416 300 25 81 1 568 15
91 523 304 0 563 566 572 573 81 1 569 1707 227 416 572 0 563 574 575 82 1 570 10
16660175 14 416 801 569 ?377 304 576 5 307 -0 0 377 304 25 81 1 572 1592 523 416
 0 569 568 577 578 81 1 574 1708 227 377 577 0 569 579 580 82 1 575 1016070351 1
4 377 914 574 ?403 416 581 5 372 -0 0 403 416 25 81 1 577 1593 523 377 0 574 572
 582 583 81 1 579 1709 227 407 584 0 574 585 586 82 1 580 1085866191 14 407 928
 579 ?587 403 588 5 399 -0 0 587 403 25 81 1 584 1595 523 407 0 579 582 589 590
 81 1 585 1710 227 587 589 0 579 591 592 82 1 586 1081278671 14 587 945 585 ?375
 407 593 5 409 -0 0 375 407 25 81 1 589 1596 523 587 0 585 584 594 595 81 1 591
 1711 227 375 594 0 585 596 597 82 1 592 1061945551 14 375 950 591 ?371 587 598
 5 378 -0 0 371 587 25 81 1 594 1597 523 375 0 591 589 599 600 81 1 596 1712 227
 98 601 0 591 0 602 82 1 597 1061355727 14 98 1100 596 ?0 371 30 5 20 -0 0 0 371
 25 81 1 601 1599 523 98 0 596 599 0 603 82 1 602 1134297295 80 1 523 0 604 8001
 0 0 0 0 3 5 0 0 0 FFFFTFTFFFFFFF2 81 1 599 1598 523 371 0 374 594 601 605 83 25
5 3 603 .792156862745098 .819607843137255 .933333333333333 81 1 374 1690 227 371
 599 0 351 406 606 83 3 605 .792156862745098 .819607843137255 .933333333333333 8
1 1 351 1689 227 105 524 0 303 374 607 81 1 406 1691 227 403 582 0 374 413 608 8
2 1 606 1110245583 81 1 582 1594 523 403 0 406 577 584 609 81 1 413 1692 227 411
 560 0 406 479 610 82 1 608 1082917071 81 1 560 1588 523 411 0 413 555 562 611 8
2 1 610 1040187599 83 3 611 .792156862745098 .819607843137255 .933333333333333 8
3 3 609 .792156862745098 .819607843137255 .933333333333333 81 1 524 1568 523 105
 0 351 485 518 612 81 1 303 1688 227 300 566 0 284 351 613 82 1 607 812122319 81
 1 566 1590 523 300 0 303 562 568 614 81 1 284 1687 227 282 544 0 276 303 615 82
 1 613 1035534543 81 1 544 1584 523 282 0 284 540 546 616 81 1 276 1686 227 231
 543 0 246 284 617 82 1 615 943259855 81 1 543 1582 523 231 0 276 618 540 619 81
 1 246 1685 227 215 620 0 240 276 621 82 1 617 960495823 81 1 620 1565 523 215 0
 246 245 481 622 82 1 621 784269519 81 1 245 1564 523 152 0 240 239 620 623 81 1
 481 1566 523 248 0 479 620 485 624 83 3 622 .792156862745098 .819607843137255 .
933333333333333 81 1 485 1567 523 352 0 482 481 524 625 83 3 624 .79215686274509
8 .819607843137255 .933333333333333 83 3 625 .792156862745098 .819607843137255 .
933333333333333 81 1 239 1563 523 15 0 237 0 245 626 83 3 623 .792156862745098 .
819607843137255 .933333333333333 83 3 626 .792156862745098 .819607843137255 .933
333333333333 81 1 618 1581 523 221 0 229 228 543 627 83 3 619 .792156862745098 .
819607843137255 .933333333333333 81 1 229 1681 227 221 618 0 225 233 628 81 1 22
8 1580 523 224 0 225 531 618 629 83 3 627 .792156862745098 .819607843137255 .933
333333333333 81 1 531 1579 523 189 0 233 526 228 630 83 3 629 .792156862745098 .
819607843137255 .933333333333333 81 1 233 1682 227 189 531 0 229 237 631 83 3 63
0 .792156862745098 .819607843137255 .933333333333333 82 1 631 873529548 82 1 628
 925106382 83 3 616 .792156862745098 .819607843137255 .933333333333333 83 3 614
 .792156862745098 .819607843137255 .933333333333333 83 3 612 .792156862745098 .8
19607843137255 .933333333333333 79 255 15 604 SDL/TYSA_COLOUR83 3 600 .792156862
745098 .819607843137255 .933333333333333 15 598 953 0 632 375 463 51 378 965 0 3
75 372 409 0 +-.0063499999999999 .01449148212399794 .01099852262806242 -.4999999
99999992 0 .866025403784443 .002413 .866025403784443 0 .499999999999992 50 409 9
64 0 587 378 399 0 +-.00380999999999994 .01651078212399795 .00659911357683746 .4
99999999999992 0 -.866025403784443 -.866025403784443 0 -.499999999999992 17 632
 0 598 632 632 0 460 459 0 0 -15 463 954 0 462 375 0 17 460 0 633 460 460 0 632
 459 0 0 +15 633 949 0 460 587 0 83 3 595 .792156862745098 .819607843137255 .933
333333333333 15 593 948 0 634 587 633 17 634 0 593 634 634 0 458 456 0 0 -17 458
 0 588 458 458 0 634 456 0 0 +15 588 931 0 458 407 635 15 635 932 0 85 407 0 17
 85 0 635 91 41 83 423 398 0 452 -17 91 0 635 636 85 89 452 447 0 455 -17 41 0 6
35 85 636 35 446 441 0 423 -17 423 0 559 637 637 35 85 398 0 332 +17 452 0 554 3
32 397 83 91 447 0 637 +15 554 658 0 332 279 0 17 332 0 554 446 452 35 637 330 0
 0 +17 397 0 554 452 446 89 88 391 0 0 +17 637 0 559 423 423 83 332 330 0 0 -15
 559 662 0 637 414 638 15 638 663 0 329 414 0 17 329 0 638 329 329 0 639 327 0 0
 +17 639 0 549 639 639 0 329 327 0 0 -15 549 644 0 639 285 640 15 640 645 0 252
 285 0 17 252 0 640 252 252 0 250 253 0 0 -17 446 0 554 397 332 86 41 441 0 0 +1
7 88 0 641 455 455 86 397 391 0 636 -15 641 927 0 455 403 0 17 455 0 641 88 88 8
9 636 453 0 397 +17 636 0 635 41 91 86 455 453 0 446 -83 3 590 .792156862745098
 .819607843137255 .933333333333333 83 3 583 .792156862745098 .819607843137255 .9
33333333333333 15 581 917 0 464 377 642 17 464 0 581 464 464 0 462 461 0 0 -15 6
42 918 0 470 377 0 17 470 0 642 470 470 0 390 386 0 0 -83 3 578 .792156862745098
 .819607843137255 .933333333333333 15 576 804 0 643 416 644 17 643 0 576 643 643
 0 435 433 0 0 -15 644 805 0 440 416 0 17 440 0 644 440 440 0 645 436 0 0 +17 64
5 0 415 645 645 0 440 436 0 0 -15 415 768 0 645 411 646 15 646 769 0 422 411 0 1
7 422 0 646 422 422 0 420 417 0 0 -17 435 0 647 435 435 0 643 433 0 0 +15 647 80
0 0 435 304 0 83 3 573 .792156862745098 .819607843137255 .933333333333333 15 571
 799 0 434 304 647 17 434 0 571 434 434 0 432 431 0 0 -83 3 567 .792156862745098
 .819607843137255 .933333333333333 15 565 777 0 82 305 427 17 82 0 565 82 82 80
 0 0 0 0 ?83 3 561 .792156862745098 .819607843137255 .933333333333333 51 280 672
 0 414 270 273 648 +-.00317499999999995 .000671805796499229 .00549926131403121 -
.0868240888334605 -.984807753012209 .1503837331804305 .0031242 0 -.1509537862398
765 -.988540820816139 52 270 673 0 285 296 280 649 +-.00317499999999995 .0006718
05796499229 .00549926131403121 -.0868240888334605 -.984807753012209 .15038373318
04305 .003429 .707106781186551 .707106781186544 0 -.1509537862398765 -.988540820
816139 141 648 392 648 648 280 141 649 265 649 649 270 83 3 556 .792156862745098
 .819607843137255 .933333333333333 83 3 551 .792156862745098 .819607843137255 .9
33333333333333 83 3 545 .792156862745098 .819607843137255 .933333333333333 81 1
 537 1573 523 155 0 158 510 533 650 81 1 538 1575 523 165 0 167 533 651 652 83 3
 539 .792156862745098 .819607843137255 .933333333333333 81 1 167 1677 227 165 53
8 0 158 187 653 81 1 651 1576 523 168 0 219 538 530 654 83 3 652 .79215686274509
8 .819607843137255 .933333333333333 81 1 219 1679 227 168 651 0 187 225 655 81 1
 530 1577 523 184 0 187 651 526 656 83 3 654 .792156862745098 .819607843137255 .
933333333333333 81 1 187 1678 227 184 530 0 167 219 657 83 3 656 .79215686274509
8 .819607843137255 .933333333333333 82 1 657 892731596 82 1 655 895680716 81 1 1
58 1676 227 155 537 0 0 167 658 82 1 653 834732236 82 1 658 851509451 81 1 510 1
572 523 160 0 509 659 537 660 83 3 650 .792156862745098 .819607843137255 .933333
333333333 81 1 659 1571 523 504 0 486 514 510 661 83 3 660 .792156862745098 .819
607843137255 .933333333333333 81 1 486 1695 227 504 659 0 482 509 662 81 1 514 1
570 523 502 0 511 518 659 663 83 3 661 .792156862745098 .819607843137255 .933333
333333333 83 3 663 .792156862745098 .819607843137255 .933333333333333 82 1 662 8
10352842 15 536 293 0 497 159 0 17 497 0 536 203 664 56 665 493 0 0 +17 203 0 53
6 666 497 62 58 198 0 0 +17 664 0 536 497 666 59 667 193 0 665 +17 665 0 169 179
 179 59 497 493 0 0 -15 169 257 0 665 165 668 17 179 0 169 665 665 56 61 173 0 4
97 +17 61 0 669 667 58 59 179 173 0 664 -15 669 369 0 61 184 0 17 667 0 669 670
 61 50 664 193 0 666 -17 58 0 669 61 670 56 203 198 0 179 -17 670 0 669 58 667 6
2 52 181 0 203 -17 52 0 671 64 64 50 670 181 0 667 +16 181 338 0 ?52 173 672 174
 0 0 1 16 672 343 0 ?673 181 674 182 0 0 1 17 673 0 188 673 673 0 675 672 0 0 +1
6 674 344 0 ?676 672 677 678 0 0 1 31 182 411 0 672 678 174 0 +.00762 .014491482
12399794 -3110602869834275e-34 1 0 612323399573677e-31 612323399573677e-31 0 -1
 .0020193 31 678 412 0 674 346 182 0 +.00762 .01449148212399794 -311060286983427
5e-34 1 0 612323399573677e-31 612323399573677e-31 0 -1 .002413 31 346 413 0 677
 340 678 0 +.012319 .01449148212399794 -2332952152375715e-35 1 0 612323399573677
e-31 612323399573677e-31 0 -1 .002413 16 677 333 0 ?679 674 345 346 0 0 1 17 679
 0 236 679 679 0 680 677 0 0 +16 345 464 0 ?472 677 339 340 0 0 1 15 236 396 0 6
79 224 0 17 680 0 220 680 680 0 679 677 0 0 -15 220 359 0 680 168 681 15 681 360
 0 476 168 0 17 476 0 681 476 476 0 209 204 0 0 -17 676 0 682 676 676 0 235 674
 0 0 +15 682 391 0 676 189 0 17 235 0 226 235 235 0 676 674 0 0 -15 188 368 0 67
3 184 669 17 675 0 234 675 675 0 673 672 0 0 -15 234 390 0 675 189 682 15 671 37
4 0 52 162 0 17 64 0 671 52 52 62 666 145 0 670 -17 666 0 536 664 203 50 64 145
 0 0 +16 145 296 0 ?666 193 139 140 0 0 1 16 193 299 0 ?664 198 145 146 0 0 1 15
 668 258 0 683 165 0 17 683 0 668 683 683 0 684 180 0 0 +17 684 0 161 684 684 0
 683 180 0 0 -16 180 224 0 ?683 493 173 175 0 0 1 15 161 239 0 684 155 262 83 3
 532 .792156862745098 .819607843137255 .933333333333333 15 529 373 0 67 162 671
 17 67 0 529 67 67 65 0 0 0 0 ?83 3 525 .792156862745098 .819607843137255 .93333
3333333333 79 14 522 SWEntUnchanged82 1 516 810942666 82 1 512 809763018 82 1 48
7 783089866 82 1 483 783679689 17 474 0 685 474 474 0 472 345 0 0 -15 685 474 0
 474 221 0 15 306 782 0 432 300 430 17 73 0 430 79 46 71 293 264 0 326 -17 293 0
 286 426 426 42 73 264 0 338 +15 286 575 0 426 282 686 17 426 0 286 293 293 71 3
38 336 0 0 -17 338 0 425 318 326 42 426 336 0 0 +15 686 576 0 335 282 0 17 335 0
 686 335 335 0 687 333 0 0 +17 687 0 278 687 687 0 335 333 0 0 -15 278 557 0 687
 231 263 15 263 558 0 256 231 0 141 410 392 688 689 399 141 688 439 689 410 399
 141 689 442 410 688 399 15 408 926 0 94 403 641 17 94 0 408 94 94 92 0 0 0 0 ?4
0 9 400 0 1 9 .0001731589218655655 .397747993087476 ??-.00489959277579002 .01361
9641979375 .00484356048354057 -.0047059415823198 .0130193923036487 .005386495761
95003 -.004294548160274265 .01260737097944316 .00598551954612513 -.0038890004721
35615 .0124820012951313 .00633815606956448 -.003401464880294765 .012503420716669
8 .00659913794788313 -.00291779800036817 .012655640029084 .00673574500393824 -.0
02307734350894185 .01302263734011534 .00676844314513641 -.00180393816970493 .013
53633193858172 .00668274842614417 -.001744850035617425 .01361964197937498 .00666
49520538032 41 1 401 L?-.00489959277579002 .013619641979375 .00484356048354057 4
1 1 402 L?-.001744850035617425 .01361964197937498 .0066649520538032 17 40 0 100
 115 101 29 37 27 0 124 +17 115 0 100 112 40 68 124 119 0 0 -17 101 0 100 40 26
 95 103 109 0 0 -17 37 0 36 34 34 95 40 27 0 38 -15 36 1034 0 37 371 469 17 38 0
 104 103 124 95 34 39 0 101 +141 379 382 379 379 372 141 376 7 690 691 20 141 69
0 359 691 376 20 141 691 111 376 690 20 38 111 1124 0 33 0 359 0 +341 20 692 693
 694 40 6 692 -.001428047835173372 .99971164673043 6 .0001404687265708102 .33778
538856078 ??-.003878597465818135 .03147584137553295 .003164676888462735 -.003129
659994606725 .031151563805172 .00318621609735197 -.002556195740150005 .031001682
1239982 .00335360989324034 -.00182064821656284 .03097108764674945 .0037468994486
65685 -.00162621349185353 .0310016821239983 .00389053539463595 -.001077643708827
74 .0312194447611658 .004450539920264555 41 1 693 L?-.003878597465818135 .031475
84137553295 .003164676888462735 41 1 694 L?-.00107764370882774 .0312194447611658
 .004450539920264555 40 21 369 0 1 21 .0002836999564263805 .3877918797622545 ??-
.00635 .0224012217245388 -.01099852262806234 -.00581584885195849 .02252255736477
78 -.01129007981066444 -.00534136338433565 .02283954393288245 -.0115221455118601
2 -.00475852396607599 .0235646354991572 -.01177482270203168 -.004221725251966425
 .02490929365499885 -.0119777725766066 -.00407727197000288 .02641812824532965 -.
01202771188891008 -.00433353623775512 .0277198872091644 -.01193777465342946 -.00
480567978426564 .0285880456985729 -.01175565573718032 -.00537085802148291 .02912
531424902955 -.01150842665671866 -.00605846253799592 .02941428496374855 -.011161
7665123268 -.00667981149954945 .0294053730874132 -.01080139427715176 -.007214229
89257204 .0291727113145169 -.01045202789209444 -.00767066933986308 .028738165639
7291 -.01012179983394674 -.00804147023400869 .0280863002723248 -.009829789238613
01 -.00833628309366831 .02692598643712795 -.00958104295900086 -.0083292608391832
7 .0253285536593008 -.00958714837023236 -.00792593790540198 .02379467165606605 -
.00992318035307828 -.00747098709986569 .0230207142047525 -.01027007067909664 -.0
0699459189390614 .0225907215633005 -.01060026812102894 -.00654661752942232 .0224
180990350763 -.0108826374984863 -.00635 .02240122172453875 -.01099852262806234 4
1 1 370 H?-.00635 .02240122172453875 -.01099852262806234 16 110 1093 0 ?695 39 3
3 359 0 0 1 40 21 366 0 1 21 .0002836999564263835 .3877918797622555 ??-.00634999
99999999 .0224012217245388 .01099852262806242 -.00686957150080993 .0225225573647
778 .01068171275569886 -.00730778902720385 .0228395439328824 .0103868291376088 -
.00781803360197911 .0235646354991572 .01000841399015476 -.00826219270611065 .024
90929365499885 .00964500760430453 -.00837766806019476 .02641812824532965 .009544
8770486158 -.00817164799564629 .0277198872091644 .00972183979683115 -.0077778566
1440957 .0285880456985729 .01003966864421756 -.00728116083156687 .02912531424902
955 .010405512815083 -.00663714208178743 .0294142849637485 .01082766572194424 -.
0060143760905305 .0294053730874132 .01118558358967716 -.00544460672933122 .02917
27113145169 .0114737203017557 -.0049304011182874 .0287381656397291 .011703894429
32524 -.00449211207748136 .0280863002723248 .01187901212573444 -.004129285050410
565 .02692598643712795 .01200995441175594 -.004138083618880105 .0253285536593008
 .0120069256665958 -.00463075731939938 .02379467165606605 .0118256537514353 -.00
51586485568265 .0230207142047525 .01160509995937786 -.00568280553278428 .0225907
215633005 .01135762832974192 -.00615133176915507 .0224180990350763 .011110855838
58342 -.0063499999999999 .02240122172453875 .01099852262806242 41 1 367 H?-.0063
499999999999 .02240122172453875 .01099852262806242 17 695 0 249 695 695 0 696 11
0 0 0 +15 249 1083 0 695 215 466 17 696 0 99 696 696 0 695 110 0 0 -15 99 1103 0
 696 98 0 141 355 205 697 698 19 141 697 7 698 355 19 141 698 18 355 697 19 15 3
53 152 0 55 105 104 17 55 0 353 55 55 53 0 0 0 0 ?40 21 347 0 1 21 .000283699956
42638 .3877918797622575 ??.0127 .0224012217245388 0 .01268542035276846 .02252255
73647778 .000608367054965672 .01264915241153954 .0228395439328824 .0011353163742
5143 .01257655756805514 .0235646354991572 .001766408711877015 .0124839179580771
 .02490929365499885 .00233276497230217 .01245494003019766 .02641812824532965 .00
248283484029438 .01250518423340144 .0277198872091644 .002215934856598415 .012583
53639867524 .0285880456985729 .00171598709296285 .01265201885304982 .02912531424
902955 .001102913841635756 .0126956046197834 .0294142849637485 .0003341007903826
42 .01269418759008 .0294053730874132 -.0003841893125253185 .01265883662190332 .0
291727113145169 -.001021692409661196 .01260107045815054 .0287381656397291 -.0015
8209459537841 .01253358231149012 .0280863002723248 -.00204922288712136 .01246556
814407894 .02692598643712795 -.002428911452755 .01246734445806344 .0253285536593
008 -.00241977729636337 .01255669522480142 .02379467165606605 -.0019024733983569
45 .01262963565669224 .0230207142047525 -.00133502928028114 .01267739742669048 .
0225907215633005 -.0007573602087129 .01269794929857744 .0224180990350763 -.00022
82183400970415 .0127 .02240122172453875 -485183605133833e-32 41 1 348 H?.0127 .0
2240122172453875 -485183605133833e-32 17 106 0 104 124 49 68 108 339 0 115 +17 1
08 0 232 70 70 47 106 339 0 112 -15 232 473 0 70 221 685 17 70 0 232 108 108 68
 112 116 0 106 -141 308 288 308 308 296 40 8 297 0 1 8 .0001896866367971105 .346
204059774926 ??-.003653965097861925 .01381578812884916 -.00234736962692949 -.002
554987564479915 .0141550475472068 -.002297475251927035 -.00194219706954645 .0141
924371792449 -.002300371697416575 -.001577458427100775 .0141557342505173 -.00235
4857800658475 -.001351117078746992 .01414691313511168 -.00246103638543393 -.0011
3190264565808 .0141750110847812 -.002676371918105905 -.000777975084846465 .01417
668493533234 -.003241680596768345 -.000220310461145497 .0138281499342585 -.00430
940678841846 41 1 298 L?-.003653965097861925 .01381578812884916 -.00234736962692
949 41 1 299 L?-.000220310461145497 .0138281499342585 -.00430940678841846 141 28
7 312 699 700 222 141 699 288 700 287 222 141 700 311 287 699 222 141 281 442 70
1 702 273 141 701 387 702 281 273 141 702 439 281 701 273 40 20 271 0 1 20 .0002
225702223145115 .3870200631239395 ??-.0055214979831343 .00067746075109135 .00320
0607480455 -.00609007178669261 .000834104459305954 .003971189317325765 -.0064602
9545571211 .001001226170034608 .00507976199104604 -.00643249977101928 .001131123
712435844 .00623005321086802 -.0060252348878512 .00121869432446972 .007282067799
37463 -.00530236118504073 .001262084217176482 .00811967338036874 -.0043562749513
64045 .001261570285243796 .0086608588779453 -.00329188660692686 .001218580192134
154 .00885907525241295 -.00221765354164231 .001134969678273074 .0086984910396470
2 -.001242641024242086 .001013049314343546 .00819157147069088 -.0004727152717658
24 .000856358913756995 .00738153181989574 -983974397118367e-21 .0006709408585190
84 .00634509461666252 .000105549096977345 .000467356053628927 .00518943460761477
 -.000183597700082742 .0002660138979322015 .00404447474684834 -.0008505383631907
55 .0001130929491179216 .003065579200613955 -.0017590612904898 81873668876267e-1
8 .00243550693128347 -.00268731064139661 .0001626973198721615 .00218372825626312
5 -.003689537789491935 .000311564622270457 .00222200544143246 -.0047472352262645
2 .000507157355317395 .00260755247575274 -.0055214979831343 .00067746075109135 .
003200607480455 41 1 272 H?-.0055214979831343 .00067746075109135 .00320060748045
5 82 1 247 784859343 82 1 241 785449161 82 1 230 872939724 141 223 205 703 704 2
11 141 703 340 704 223 211 141 704 337 223 703 211 141 217 199 705 706 153 141 7
05 359 707 217 153 141 706 340 217 708 153 141 708 295 706 709 153 141 709 382 7
08 707 153 141 707 360 709 705 153 40 19 212 0 1 19 .000368825518220096 .3990809
90719771 ??.00418222964697773 .03100148212399795 -.000535709006775622 .004048520
49764389 .03147179865100345 -.001177926457873024 .003789287303337025 .0324755930
5233805 -.00184914323208584 .00343778639952743 .03449599955787365 -.002441240183
026695 .00341649944646019 .03563055558001865 -.002470943239400165 .0035503454914
7847 .03650154971192125 -.00227443967850075 .00381081311921413 .0372356986167989
 -.001804364799708065 .004041128629513225 .03766217382677925 -.00120304129593649
 .004189944773842655 .03788804567152585 -.000471584300150716 .004202579888004925
 .03790595411259715 .000341102982890093 .00406323443817743 .03769766221072535 .0
01126123821082276 .00382415821805331 .0372640114648808 .0017759062146677 .003591
258809543115 .03665209107547695 .002209273437779715 .003445414036846185 .0359362
859050133 .002430463139959805 .00341775711527536 .0347584130304195 .002469203365
660705 .003699934511488665 .03286845089325565 .00202200731222593 .00397159542652
029 .03175449107271205 .001415789083177674 .00412296010278718 .03120705192741535
 .000882739458065205 .00418222964697773 .03100148212399795 .000535709006775623 4
1 1 213 L?.00418222964697773 .03100148212399795 -.000535709006775622 41 1 214 L?
.00418222964697773 .03100148212399795 .000535709006775623 40 3 195 0 1 3 .000253
648133014943 .317826768616232 ??.0038098 .01385046001334552 .001914853295595965
 .00514738849634106 .0139018231118431 .001931288362571425 .00722160452559081 .01
34686406464886 .001741082365049545 41 1 196 L?.0038098 .01385046001334552 .00191
4853295595965 41 1 197 L?.00722160452559081 .0134686406464886 .00174108236504954
5 141 171 140 710 711 147 141 710 194 711 171 147 141 711 146 171 710 147 141 16
4 140 164 164 148 141 154 137 712 713 17 141 712 265 713 154 17 141 713 210 154
 712 17 40 8 149 0 1 8 .00017270622302893 .36505928207894 ??.0038102 .0138503628
4574796 -.001915171779155265 .003199079857487075 .0141759792444358 -.00095162007
1245875 .002946778711102455 .014189816314023 -.000498486399219486 .0028184701840
06095 .01415183063231032 -.000144514442256065 .0028127567246494 .014149436201609
5 .000111008307665663 .00292443630497773 .01418543517319144 .000451528190935023
 .003287940379189355 .0141475098902753 .001097821085847936 .0038102 .01385036284
574796 .00191517177915527 41 1 150 L?.0038102 .01385036284574796 -.0019151717791
55265 41 1 151 L?.0038102 .01385036284574796 .00191517177915527 19 16 40 0 1 0 9
 5 S0 40 19 21 0 1 19 .000368825518220088 .3990809907197705 ??-.0016271772145850
15 .03100148212399795 .003889771622130965 -.001004146012514052 .0314717986510034
5 .004095084827638145 -.0002932386374460825 .03247559305233805 .0042061906829706
15 .000395282815476808 .03449599955787365 .00419783044628874 .000431649893399902
5 .0356305555800186 .004194246932350075 .0001945497952177755 .03650154971192125
 .004211909227082275 -.000342780805365414 .0372356986167989 .004202443370168485
 -.000978699990673816 .03766217382677925 .004101240701087305 -.00168656840296485
5 .03788804567152585 .00386439076467696 -.00239669379249189 .03790595411259715 .
00346898945300081 -.003006869055952735 .03769766221072535 .002955802334452345 -.
003450059005667515 .0372640114648808 .002423865057591385 -.003708916325794945 .0
3665209107547695 .00200548464173918 -.00382754984058996 .0359362859050133 .00176
8584512484425 -.00384727139940987 .0347584130304195 .001725262802963165 -.003601
076954769865 .0328684508932557 .00219323362317502 -.00321190702569267 .031754491
07271205 .00273160799133185 -.00282595484700094 .03120705192741535 .003129218458
770815 -.00255505243239265 .03100148212399795 .003354062615355355 41 1 22 L?-.00
1627177214585015 .03100148212399795 .003889771622130965 41 1 23 L?-.002555052432
39265 .03100148212399795 .003354062615355355 74 4 CI16 index_map_offset0 0 1 dCC
Z20 14 3 0 0 596 2 601 0 0 0 0 0 0 0 0 0 0 0 0 0 0 0 0 0 80 2 12 714 715 8004 0
 0 0 0 3 5 0 0 0 FFTFFFFFFFFFFT2 3 83 1 13 1e3 79 16 715 SDL/TYSA_DENSITY1 0 
