G04 #@! TF.GenerationSoftware,KiCad,Pcbnew,(5.1.9)-1*
G04 #@! TF.CreationDate,2023-11-08T13:31:57-08:00*
G04 #@! TF.ProjectId,DSAMKVIE,4453414d-4b56-4494-952e-6b696361645f,rev?*
G04 #@! TF.SameCoordinates,Original*
G04 #@! TF.FileFunction,Legend,Top*
G04 #@! TF.FilePolarity,Positive*
%FSLAX46Y46*%
G04 Gerber Fmt 4.6, Leading zero omitted, Abs format (unit mm)*
G04 Created by KiCad (PCBNEW (5.1.9)-1) date 2023-11-08 13:31:57*
%MOMM*%
%LPD*%
G01*
G04 APERTURE LIST*
%ADD10C,0.152400*%
%ADD11C,0.150000*%
%ADD12C,0.203200*%
%ADD13C,0.300000*%
%ADD14C,0.100000*%
%ADD15C,0.120000*%
%ADD16C,0.254000*%
G04 APERTURE END LIST*
D10*
X112649000Y-93925571D02*
X112612714Y-93998142D01*
X112612714Y-94107000D01*
X112649000Y-94215857D01*
X112721571Y-94288428D01*
X112794142Y-94324714D01*
X112939285Y-94361000D01*
X113048142Y-94361000D01*
X113193285Y-94324714D01*
X113265857Y-94288428D01*
X113338428Y-94215857D01*
X113374714Y-94107000D01*
X113374714Y-94034428D01*
X113338428Y-93925571D01*
X113302142Y-93889285D01*
X113048142Y-93889285D01*
X113048142Y-94034428D01*
X113374714Y-93562714D02*
X112612714Y-93562714D01*
X113374714Y-93127285D01*
X112612714Y-93127285D01*
X113374714Y-92764428D02*
X112612714Y-92764428D01*
X112612714Y-92583000D01*
X112649000Y-92474142D01*
X112721571Y-92401571D01*
X112794142Y-92365285D01*
X112939285Y-92329000D01*
X113048142Y-92329000D01*
X113193285Y-92365285D01*
X113265857Y-92401571D01*
X113338428Y-92474142D01*
X113374714Y-92583000D01*
X113374714Y-92764428D01*
X112649000Y-105355571D02*
X112612714Y-105428142D01*
X112612714Y-105537000D01*
X112649000Y-105645857D01*
X112721571Y-105718428D01*
X112794142Y-105754714D01*
X112939285Y-105791000D01*
X113048142Y-105791000D01*
X113193285Y-105754714D01*
X113265857Y-105718428D01*
X113338428Y-105645857D01*
X113374714Y-105537000D01*
X113374714Y-105464428D01*
X113338428Y-105355571D01*
X113302142Y-105319285D01*
X113048142Y-105319285D01*
X113048142Y-105464428D01*
X113374714Y-104992714D02*
X112612714Y-104992714D01*
X113374714Y-104557285D01*
X112612714Y-104557285D01*
X113374714Y-104194428D02*
X112612714Y-104194428D01*
X112612714Y-104013000D01*
X112649000Y-103904142D01*
X112721571Y-103831571D01*
X112794142Y-103795285D01*
X112939285Y-103759000D01*
X113048142Y-103759000D01*
X113193285Y-103795285D01*
X113265857Y-103831571D01*
X113338428Y-103904142D01*
X113374714Y-104013000D01*
X113374714Y-104194428D01*
D11*
X111109285Y-77541428D02*
X111871190Y-77541428D01*
X111490238Y-77922380D02*
X111490238Y-77160476D01*
X112823571Y-76922380D02*
X112347380Y-76922380D01*
X112299761Y-77398571D01*
X112347380Y-77350952D01*
X112442619Y-77303333D01*
X112680714Y-77303333D01*
X112775952Y-77350952D01*
X112823571Y-77398571D01*
X112871190Y-77493809D01*
X112871190Y-77731904D01*
X112823571Y-77827142D01*
X112775952Y-77874761D01*
X112680714Y-77922380D01*
X112442619Y-77922380D01*
X112347380Y-77874761D01*
X112299761Y-77827142D01*
X113156904Y-76922380D02*
X113490238Y-77922380D01*
X113823571Y-76922380D01*
D10*
X136144000Y-86940571D02*
X136107714Y-87013142D01*
X136107714Y-87122000D01*
X136144000Y-87230857D01*
X136216571Y-87303428D01*
X136289142Y-87339714D01*
X136434285Y-87376000D01*
X136543142Y-87376000D01*
X136688285Y-87339714D01*
X136760857Y-87303428D01*
X136833428Y-87230857D01*
X136869714Y-87122000D01*
X136869714Y-87049428D01*
X136833428Y-86940571D01*
X136797142Y-86904285D01*
X136543142Y-86904285D01*
X136543142Y-87049428D01*
X136869714Y-86577714D02*
X136107714Y-86577714D01*
X136869714Y-86142285D01*
X136107714Y-86142285D01*
X136869714Y-85779428D02*
X136107714Y-85779428D01*
X136107714Y-85598000D01*
X136144000Y-85489142D01*
X136216571Y-85416571D01*
X136289142Y-85380285D01*
X136434285Y-85344000D01*
X136543142Y-85344000D01*
X136688285Y-85380285D01*
X136760857Y-85416571D01*
X136833428Y-85489142D01*
X136869714Y-85598000D01*
X136869714Y-85779428D01*
X99749428Y-52959000D02*
X99676857Y-52922714D01*
X99568000Y-52922714D01*
X99459142Y-52959000D01*
X99386571Y-53031571D01*
X99350285Y-53104142D01*
X99314000Y-53249285D01*
X99314000Y-53358142D01*
X99350285Y-53503285D01*
X99386571Y-53575857D01*
X99459142Y-53648428D01*
X99568000Y-53684714D01*
X99640571Y-53684714D01*
X99749428Y-53648428D01*
X99785714Y-53612142D01*
X99785714Y-53358142D01*
X99640571Y-53358142D01*
X100112285Y-53684714D02*
X100112285Y-52922714D01*
X100547714Y-53684714D01*
X100547714Y-52922714D01*
X100910571Y-53684714D02*
X100910571Y-52922714D01*
X101092000Y-52922714D01*
X101200857Y-52959000D01*
X101273428Y-53031571D01*
X101309714Y-53104142D01*
X101346000Y-53249285D01*
X101346000Y-53358142D01*
X101309714Y-53503285D01*
X101273428Y-53575857D01*
X101200857Y-53648428D01*
X101092000Y-53684714D01*
X100910571Y-53684714D01*
D11*
X119570714Y-63317380D02*
X119570714Y-62317380D01*
X119570714Y-62793571D02*
X120142142Y-62793571D01*
X120142142Y-63317380D02*
X120142142Y-62317380D01*
X120618333Y-62793571D02*
X120951666Y-62793571D01*
X121094523Y-63317380D02*
X120618333Y-63317380D01*
X120618333Y-62317380D01*
X121094523Y-62317380D01*
X121999285Y-63317380D02*
X121523095Y-63317380D01*
X121523095Y-62317380D01*
X122332619Y-63317380D02*
X122332619Y-62317380D01*
X122665952Y-63031666D01*
X122999285Y-62317380D01*
X122999285Y-63317380D01*
X122484047Y-121102380D02*
X122484047Y-120102380D01*
X122484047Y-120578571D02*
X123055476Y-120578571D01*
X123055476Y-121102380D02*
X123055476Y-120102380D01*
X123531666Y-120578571D02*
X123865000Y-120578571D01*
X124007857Y-121102380D02*
X123531666Y-121102380D01*
X123531666Y-120102380D01*
X124007857Y-120102380D01*
X124912619Y-121102380D02*
X124436428Y-121102380D01*
X124436428Y-120102380D01*
X125245952Y-121102380D02*
X125245952Y-120102380D01*
X125579285Y-120816666D01*
X125912619Y-120102380D01*
X125912619Y-121102380D01*
X127103095Y-121054761D02*
X127245952Y-121102380D01*
X127484047Y-121102380D01*
X127579285Y-121054761D01*
X127626904Y-121007142D01*
X127674523Y-120911904D01*
X127674523Y-120816666D01*
X127626904Y-120721428D01*
X127579285Y-120673809D01*
X127484047Y-120626190D01*
X127293571Y-120578571D01*
X127198333Y-120530952D01*
X127150714Y-120483333D01*
X127103095Y-120388095D01*
X127103095Y-120292857D01*
X127150714Y-120197619D01*
X127198333Y-120150000D01*
X127293571Y-120102380D01*
X127531666Y-120102380D01*
X127674523Y-120150000D01*
X127960238Y-120102380D02*
X128531666Y-120102380D01*
X128245952Y-121102380D02*
X128245952Y-120102380D01*
X128817380Y-120816666D02*
X129293571Y-120816666D01*
X128722142Y-121102380D02*
X129055476Y-120102380D01*
X129388809Y-121102380D01*
X130293571Y-121102380D02*
X129960238Y-120626190D01*
X129722142Y-121102380D02*
X129722142Y-120102380D01*
X130103095Y-120102380D01*
X130198333Y-120150000D01*
X130245952Y-120197619D01*
X130293571Y-120292857D01*
X130293571Y-120435714D01*
X130245952Y-120530952D01*
X130198333Y-120578571D01*
X130103095Y-120626190D01*
X129722142Y-120626190D01*
X128976428Y-130190714D02*
X128976428Y-129428809D01*
X129357380Y-129809761D02*
X128595476Y-129809761D01*
X128357380Y-128476428D02*
X128357380Y-128952619D01*
X128833571Y-129000238D01*
X128785952Y-128952619D01*
X128738333Y-128857380D01*
X128738333Y-128619285D01*
X128785952Y-128524047D01*
X128833571Y-128476428D01*
X128928809Y-128428809D01*
X129166904Y-128428809D01*
X129262142Y-128476428D01*
X129309761Y-128524047D01*
X129357380Y-128619285D01*
X129357380Y-128857380D01*
X129309761Y-128952619D01*
X129262142Y-129000238D01*
X128357380Y-128143095D02*
X129357380Y-127809761D01*
X128357380Y-127476428D01*
X154289285Y-81351428D02*
X155051190Y-81351428D01*
X154670238Y-81732380D02*
X154670238Y-80970476D01*
X156003571Y-80732380D02*
X155527380Y-80732380D01*
X155479761Y-81208571D01*
X155527380Y-81160952D01*
X155622619Y-81113333D01*
X155860714Y-81113333D01*
X155955952Y-81160952D01*
X156003571Y-81208571D01*
X156051190Y-81303809D01*
X156051190Y-81541904D01*
X156003571Y-81637142D01*
X155955952Y-81684761D01*
X155860714Y-81732380D01*
X155622619Y-81732380D01*
X155527380Y-81684761D01*
X155479761Y-81637142D01*
X156336904Y-80732380D02*
X156670238Y-81732380D01*
X157003571Y-80732380D01*
X127508095Y-117610000D02*
X127412857Y-117562380D01*
X127270000Y-117562380D01*
X127127142Y-117610000D01*
X127031904Y-117705238D01*
X126984285Y-117800476D01*
X126936666Y-117990952D01*
X126936666Y-118133809D01*
X126984285Y-118324285D01*
X127031904Y-118419523D01*
X127127142Y-118514761D01*
X127270000Y-118562380D01*
X127365238Y-118562380D01*
X127508095Y-118514761D01*
X127555714Y-118467142D01*
X127555714Y-118133809D01*
X127365238Y-118133809D01*
X127984285Y-118562380D02*
X127984285Y-117562380D01*
X128555714Y-118562380D01*
X128555714Y-117562380D01*
X129031904Y-118562380D02*
X129031904Y-117562380D01*
X129270000Y-117562380D01*
X129412857Y-117610000D01*
X129508095Y-117705238D01*
X129555714Y-117800476D01*
X129603333Y-117990952D01*
X129603333Y-118133809D01*
X129555714Y-118324285D01*
X129508095Y-118419523D01*
X129412857Y-118514761D01*
X129270000Y-118562380D01*
X129031904Y-118562380D01*
X120523095Y-67445000D02*
X120427857Y-67397380D01*
X120285000Y-67397380D01*
X120142142Y-67445000D01*
X120046904Y-67540238D01*
X119999285Y-67635476D01*
X119951666Y-67825952D01*
X119951666Y-67968809D01*
X119999285Y-68159285D01*
X120046904Y-68254523D01*
X120142142Y-68349761D01*
X120285000Y-68397380D01*
X120380238Y-68397380D01*
X120523095Y-68349761D01*
X120570714Y-68302142D01*
X120570714Y-67968809D01*
X120380238Y-67968809D01*
X120999285Y-68397380D02*
X120999285Y-67397380D01*
X121570714Y-68397380D01*
X121570714Y-67397380D01*
X122046904Y-68397380D02*
X122046904Y-67397380D01*
X122285000Y-67397380D01*
X122427857Y-67445000D01*
X122523095Y-67540238D01*
X122570714Y-67635476D01*
X122618333Y-67825952D01*
X122618333Y-67968809D01*
X122570714Y-68159285D01*
X122523095Y-68254523D01*
X122427857Y-68349761D01*
X122285000Y-68397380D01*
X122046904Y-68397380D01*
X119999285Y-65476428D02*
X120761190Y-65476428D01*
X120380238Y-65857380D02*
X120380238Y-65095476D01*
X121713571Y-64857380D02*
X121237380Y-64857380D01*
X121189761Y-65333571D01*
X121237380Y-65285952D01*
X121332619Y-65238333D01*
X121570714Y-65238333D01*
X121665952Y-65285952D01*
X121713571Y-65333571D01*
X121761190Y-65428809D01*
X121761190Y-65666904D01*
X121713571Y-65762142D01*
X121665952Y-65809761D01*
X121570714Y-65857380D01*
X121332619Y-65857380D01*
X121237380Y-65809761D01*
X121189761Y-65762142D01*
X122046904Y-64857380D02*
X122380238Y-65857380D01*
X122713571Y-64857380D01*
X118435714Y-69937380D02*
X118673809Y-70937380D01*
X118864285Y-70223095D01*
X119054761Y-70937380D01*
X119292857Y-69937380D01*
X119673809Y-70937380D02*
X119673809Y-69937380D01*
X120150000Y-70937380D02*
X120150000Y-69937380D01*
X120721428Y-70937380D01*
X120721428Y-69937380D01*
X121769047Y-70842142D02*
X121721428Y-70889761D01*
X121578571Y-70937380D01*
X121483333Y-70937380D01*
X121340476Y-70889761D01*
X121245238Y-70794523D01*
X121197619Y-70699285D01*
X121150000Y-70508809D01*
X121150000Y-70365952D01*
X121197619Y-70175476D01*
X121245238Y-70080238D01*
X121340476Y-69985000D01*
X121483333Y-69937380D01*
X121578571Y-69937380D01*
X121721428Y-69985000D01*
X121769047Y-70032619D01*
X122197619Y-70937380D02*
X122197619Y-69937380D01*
X122197619Y-70413571D02*
X122769047Y-70413571D01*
X122769047Y-70937380D02*
X122769047Y-69937380D01*
X158734285Y-68016428D02*
X159496190Y-68016428D01*
X159115238Y-68397380D02*
X159115238Y-67635476D01*
X160448571Y-67397380D02*
X159972380Y-67397380D01*
X159924761Y-67873571D01*
X159972380Y-67825952D01*
X160067619Y-67778333D01*
X160305714Y-67778333D01*
X160400952Y-67825952D01*
X160448571Y-67873571D01*
X160496190Y-67968809D01*
X160496190Y-68206904D01*
X160448571Y-68302142D01*
X160400952Y-68349761D01*
X160305714Y-68397380D01*
X160067619Y-68397380D01*
X159972380Y-68349761D01*
X159924761Y-68302142D01*
X160781904Y-67397380D02*
X161115238Y-68397380D01*
X161448571Y-67397380D01*
X178474666Y-127063238D02*
X178474666Y-126587047D01*
X178760380Y-127158476D02*
X177760380Y-126825142D01*
X178760380Y-126491809D01*
X177760380Y-126158476D02*
X178569904Y-126158476D01*
X178665142Y-126110857D01*
X178712761Y-126063238D01*
X178760380Y-125968000D01*
X178760380Y-125777523D01*
X178712761Y-125682285D01*
X178665142Y-125634666D01*
X178569904Y-125587047D01*
X177760380Y-125587047D01*
X177760380Y-125206095D02*
X178760380Y-124539428D01*
X177760380Y-124539428D02*
X178760380Y-125206095D01*
X177855619Y-123444190D02*
X177808000Y-123396571D01*
X177760380Y-123301333D01*
X177760380Y-123063238D01*
X177808000Y-122968000D01*
X177855619Y-122920380D01*
X177950857Y-122872761D01*
X178046095Y-122872761D01*
X178188952Y-122920380D01*
X178760380Y-123491809D01*
X178760380Y-122872761D01*
X173394666Y-127063238D02*
X173394666Y-126587047D01*
X173680380Y-127158476D02*
X172680380Y-126825142D01*
X173680380Y-126491809D01*
X172680380Y-126158476D02*
X173489904Y-126158476D01*
X173585142Y-126110857D01*
X173632761Y-126063238D01*
X173680380Y-125968000D01*
X173680380Y-125777523D01*
X173632761Y-125682285D01*
X173585142Y-125634666D01*
X173489904Y-125587047D01*
X172680380Y-125587047D01*
X172680380Y-125206095D02*
X173680380Y-124539428D01*
X172680380Y-124539428D02*
X173680380Y-125206095D01*
X173680380Y-122872761D02*
X173680380Y-123444190D01*
X173680380Y-123158476D02*
X172680380Y-123158476D01*
X172823238Y-123253714D01*
X172918476Y-123348952D01*
X172966095Y-123444190D01*
X98242380Y-64325476D02*
X97766190Y-64658809D01*
X98242380Y-64896904D02*
X97242380Y-64896904D01*
X97242380Y-64515952D01*
X97290000Y-64420714D01*
X97337619Y-64373095D01*
X97432857Y-64325476D01*
X97575714Y-64325476D01*
X97670952Y-64373095D01*
X97718571Y-64420714D01*
X97766190Y-64515952D01*
X97766190Y-64896904D01*
X98147142Y-63325476D02*
X98194761Y-63373095D01*
X98242380Y-63515952D01*
X98242380Y-63611190D01*
X98194761Y-63754047D01*
X98099523Y-63849285D01*
X98004285Y-63896904D01*
X97813809Y-63944523D01*
X97670952Y-63944523D01*
X97480476Y-63896904D01*
X97385238Y-63849285D01*
X97290000Y-63754047D01*
X97242380Y-63611190D01*
X97242380Y-63515952D01*
X97290000Y-63373095D01*
X97337619Y-63325476D01*
X105862380Y-111885714D02*
X104862380Y-111885714D01*
X105576666Y-111552380D01*
X104862380Y-111219047D01*
X105862380Y-111219047D01*
X104862380Y-110552380D02*
X104862380Y-110361904D01*
X104910000Y-110266666D01*
X105005238Y-110171428D01*
X105195714Y-110123809D01*
X105529047Y-110123809D01*
X105719523Y-110171428D01*
X105814761Y-110266666D01*
X105862380Y-110361904D01*
X105862380Y-110552380D01*
X105814761Y-110647619D01*
X105719523Y-110742857D01*
X105529047Y-110790476D01*
X105195714Y-110790476D01*
X105005238Y-110742857D01*
X104910000Y-110647619D01*
X104862380Y-110552380D01*
X104862380Y-109695238D02*
X105671904Y-109695238D01*
X105767142Y-109647619D01*
X105814761Y-109600000D01*
X105862380Y-109504761D01*
X105862380Y-109314285D01*
X105814761Y-109219047D01*
X105767142Y-109171428D01*
X105671904Y-109123809D01*
X104862380Y-109123809D01*
X105862380Y-108647619D02*
X104862380Y-108647619D01*
X105862380Y-108076190D01*
X104862380Y-108076190D01*
X104862380Y-107742857D02*
X104862380Y-107171428D01*
X105862380Y-107457142D02*
X104862380Y-107457142D01*
X105862380Y-105600000D02*
X105862380Y-106076190D01*
X104862380Y-106076190D01*
X105338571Y-105266666D02*
X105338571Y-104933333D01*
X105862380Y-104790476D02*
X105862380Y-105266666D01*
X104862380Y-105266666D01*
X104862380Y-104790476D01*
X105862380Y-104361904D02*
X104862380Y-104361904D01*
X104862380Y-104123809D01*
X104910000Y-103980952D01*
X105005238Y-103885714D01*
X105100476Y-103838095D01*
X105290952Y-103790476D01*
X105433809Y-103790476D01*
X105624285Y-103838095D01*
X105719523Y-103885714D01*
X105814761Y-103980952D01*
X105862380Y-104123809D01*
X105862380Y-104361904D01*
X105814761Y-103409523D02*
X105862380Y-103266666D01*
X105862380Y-103028571D01*
X105814761Y-102933333D01*
X105767142Y-102885714D01*
X105671904Y-102838095D01*
X105576666Y-102838095D01*
X105481428Y-102885714D01*
X105433809Y-102933333D01*
X105386190Y-103028571D01*
X105338571Y-103219047D01*
X105290952Y-103314285D01*
X105243333Y-103361904D01*
X105148095Y-103409523D01*
X105052857Y-103409523D01*
X104957619Y-103361904D01*
X104910000Y-103314285D01*
X104862380Y-103219047D01*
X104862380Y-102980952D01*
X104910000Y-102838095D01*
X104862380Y-101457142D02*
X104862380Y-101266666D01*
X104910000Y-101171428D01*
X105005238Y-101076190D01*
X105195714Y-101028571D01*
X105529047Y-101028571D01*
X105719523Y-101076190D01*
X105814761Y-101171428D01*
X105862380Y-101266666D01*
X105862380Y-101457142D01*
X105814761Y-101552380D01*
X105719523Y-101647619D01*
X105529047Y-101695238D01*
X105195714Y-101695238D01*
X105005238Y-101647619D01*
X104910000Y-101552380D01*
X104862380Y-101457142D01*
X105862380Y-100600000D02*
X104862380Y-100600000D01*
X105862380Y-100028571D01*
X104862380Y-100028571D01*
X105338571Y-98457142D02*
X105386190Y-98314285D01*
X105433809Y-98266666D01*
X105529047Y-98219047D01*
X105671904Y-98219047D01*
X105767142Y-98266666D01*
X105814761Y-98314285D01*
X105862380Y-98409523D01*
X105862380Y-98790476D01*
X104862380Y-98790476D01*
X104862380Y-98457142D01*
X104910000Y-98361904D01*
X104957619Y-98314285D01*
X105052857Y-98266666D01*
X105148095Y-98266666D01*
X105243333Y-98314285D01*
X105290952Y-98361904D01*
X105338571Y-98457142D01*
X105338571Y-98790476D01*
X105576666Y-97838095D02*
X105576666Y-97361904D01*
X105862380Y-97933333D02*
X104862380Y-97600000D01*
X105862380Y-97266666D01*
X105767142Y-96361904D02*
X105814761Y-96409523D01*
X105862380Y-96552380D01*
X105862380Y-96647619D01*
X105814761Y-96790476D01*
X105719523Y-96885714D01*
X105624285Y-96933333D01*
X105433809Y-96980952D01*
X105290952Y-96980952D01*
X105100476Y-96933333D01*
X105005238Y-96885714D01*
X104910000Y-96790476D01*
X104862380Y-96647619D01*
X104862380Y-96552380D01*
X104910000Y-96409523D01*
X104957619Y-96361904D01*
X105862380Y-95933333D02*
X104862380Y-95933333D01*
X105862380Y-95361904D02*
X105290952Y-95790476D01*
X104862380Y-95361904D02*
X105433809Y-95933333D01*
X105814761Y-94219047D02*
X105862380Y-94076190D01*
X105862380Y-93838095D01*
X105814761Y-93742857D01*
X105767142Y-93695238D01*
X105671904Y-93647619D01*
X105576666Y-93647619D01*
X105481428Y-93695238D01*
X105433809Y-93742857D01*
X105386190Y-93838095D01*
X105338571Y-94028571D01*
X105290952Y-94123809D01*
X105243333Y-94171428D01*
X105148095Y-94219047D01*
X105052857Y-94219047D01*
X104957619Y-94171428D01*
X104910000Y-94123809D01*
X104862380Y-94028571D01*
X104862380Y-93790476D01*
X104910000Y-93647619D01*
X105862380Y-93219047D02*
X104862380Y-93219047D01*
X105862380Y-92742857D02*
X104862380Y-92742857D01*
X104862380Y-92504761D01*
X104910000Y-92361904D01*
X105005238Y-92266666D01*
X105100476Y-92219047D01*
X105290952Y-92171428D01*
X105433809Y-92171428D01*
X105624285Y-92219047D01*
X105719523Y-92266666D01*
X105814761Y-92361904D01*
X105862380Y-92504761D01*
X105862380Y-92742857D01*
X105338571Y-91742857D02*
X105338571Y-91409523D01*
X105862380Y-91266666D02*
X105862380Y-91742857D01*
X104862380Y-91742857D01*
X104862380Y-91266666D01*
D10*
X126020285Y-56569428D02*
X126600857Y-56569428D01*
X126310571Y-56859714D02*
X126310571Y-56279142D01*
X127326571Y-56097714D02*
X126963714Y-56097714D01*
X126927428Y-56460571D01*
X126963714Y-56424285D01*
X127036285Y-56388000D01*
X127217714Y-56388000D01*
X127290285Y-56424285D01*
X127326571Y-56460571D01*
X127362857Y-56533142D01*
X127362857Y-56714571D01*
X127326571Y-56787142D01*
X127290285Y-56823428D01*
X127217714Y-56859714D01*
X127036285Y-56859714D01*
X126963714Y-56823428D01*
X126927428Y-56787142D01*
X127580571Y-56097714D02*
X127834571Y-56859714D01*
X128088571Y-56097714D01*
X116876285Y-132424714D02*
X116876285Y-131662714D01*
X117311714Y-132424714D01*
X117311714Y-131662714D01*
X118110000Y-132352142D02*
X118073714Y-132388428D01*
X117964857Y-132424714D01*
X117892285Y-132424714D01*
X117783428Y-132388428D01*
X117710857Y-132315857D01*
X117674571Y-132243285D01*
X117638285Y-132098142D01*
X117638285Y-131989285D01*
X117674571Y-131844142D01*
X117710857Y-131771571D01*
X117783428Y-131699000D01*
X117892285Y-131662714D01*
X117964857Y-131662714D01*
X118073714Y-131699000D01*
X118110000Y-131735285D01*
X114318142Y-132424714D02*
X114318142Y-131662714D01*
X114753571Y-132424714D01*
X114753571Y-131662714D01*
X115261571Y-131662714D02*
X115406714Y-131662714D01*
X115479285Y-131699000D01*
X115551857Y-131771571D01*
X115588142Y-131916714D01*
X115588142Y-132170714D01*
X115551857Y-132315857D01*
X115479285Y-132388428D01*
X115406714Y-132424714D01*
X115261571Y-132424714D01*
X115189000Y-132388428D01*
X115116428Y-132315857D01*
X115080142Y-132170714D01*
X115080142Y-131916714D01*
X115116428Y-131771571D01*
X115189000Y-131699000D01*
X115261571Y-131662714D01*
X111796285Y-132352142D02*
X111760000Y-132388428D01*
X111651142Y-132424714D01*
X111578571Y-132424714D01*
X111469714Y-132388428D01*
X111397142Y-132315857D01*
X111360857Y-132243285D01*
X111324571Y-132098142D01*
X111324571Y-131989285D01*
X111360857Y-131844142D01*
X111397142Y-131771571D01*
X111469714Y-131699000D01*
X111578571Y-131662714D01*
X111651142Y-131662714D01*
X111760000Y-131699000D01*
X111796285Y-131735285D01*
X112268000Y-131662714D02*
X112413142Y-131662714D01*
X112485714Y-131699000D01*
X112558285Y-131771571D01*
X112594571Y-131916714D01*
X112594571Y-132170714D01*
X112558285Y-132315857D01*
X112485714Y-132388428D01*
X112413142Y-132424714D01*
X112268000Y-132424714D01*
X112195428Y-132388428D01*
X112122857Y-132315857D01*
X112086571Y-132170714D01*
X112086571Y-131916714D01*
X112122857Y-131771571D01*
X112195428Y-131699000D01*
X112268000Y-131662714D01*
X112921142Y-132424714D02*
X112921142Y-131662714D01*
X113175142Y-132207000D01*
X113429142Y-131662714D01*
X113429142Y-132424714D01*
D12*
X183877857Y-99785714D02*
X184845476Y-99785714D01*
X184361666Y-100269523D02*
X184361666Y-99301904D01*
X186115476Y-100269523D02*
X185389761Y-100269523D01*
X185752619Y-100269523D02*
X185752619Y-98999523D01*
X185631666Y-99180952D01*
X185510714Y-99301904D01*
X185389761Y-99362380D01*
X186599285Y-99120476D02*
X186659761Y-99060000D01*
X186780714Y-98999523D01*
X187083095Y-98999523D01*
X187204047Y-99060000D01*
X187264523Y-99120476D01*
X187325000Y-99241428D01*
X187325000Y-99362380D01*
X187264523Y-99543809D01*
X186538809Y-100269523D01*
X187325000Y-100269523D01*
X187748333Y-99422857D02*
X188050714Y-100269523D01*
X188353095Y-99422857D01*
X185722380Y-93980000D02*
X185601428Y-93919523D01*
X185420000Y-93919523D01*
X185238571Y-93980000D01*
X185117619Y-94100952D01*
X185057142Y-94221904D01*
X184996666Y-94463809D01*
X184996666Y-94645238D01*
X185057142Y-94887142D01*
X185117619Y-95008095D01*
X185238571Y-95129047D01*
X185420000Y-95189523D01*
X185540952Y-95189523D01*
X185722380Y-95129047D01*
X185782857Y-95068571D01*
X185782857Y-94645238D01*
X185540952Y-94645238D01*
X186327142Y-95189523D02*
X186327142Y-93919523D01*
X187052857Y-95189523D01*
X187052857Y-93919523D01*
X187657619Y-95189523D02*
X187657619Y-93919523D01*
X187960000Y-93919523D01*
X188141428Y-93980000D01*
X188262380Y-94100952D01*
X188322857Y-94221904D01*
X188383333Y-94463809D01*
X188383333Y-94645238D01*
X188322857Y-94887142D01*
X188262380Y-95008095D01*
X188141428Y-95129047D01*
X187960000Y-95189523D01*
X187657619Y-95189523D01*
D13*
X114590714Y-113280000D02*
X115305000Y-113280000D01*
X114447857Y-113708571D02*
X114947857Y-112208571D01*
X115447857Y-113708571D01*
X116805000Y-113708571D02*
X116305000Y-112994285D01*
X115947857Y-113708571D02*
X115947857Y-112208571D01*
X116519285Y-112208571D01*
X116662142Y-112280000D01*
X116733571Y-112351428D01*
X116805000Y-112494285D01*
X116805000Y-112708571D01*
X116733571Y-112851428D01*
X116662142Y-112922857D01*
X116519285Y-112994285D01*
X115947857Y-112994285D01*
X117447857Y-113708571D02*
X117447857Y-112208571D01*
X117805000Y-112208571D01*
X118019285Y-112280000D01*
X118162142Y-112422857D01*
X118233571Y-112565714D01*
X118305000Y-112851428D01*
X118305000Y-113065714D01*
X118233571Y-113351428D01*
X118162142Y-113494285D01*
X118019285Y-113637142D01*
X117805000Y-113708571D01*
X117447857Y-113708571D01*
X118947857Y-112208571D02*
X118947857Y-113422857D01*
X119019285Y-113565714D01*
X119090714Y-113637142D01*
X119233571Y-113708571D01*
X119519285Y-113708571D01*
X119662142Y-113637142D01*
X119733571Y-113565714D01*
X119805000Y-113422857D01*
X119805000Y-112208571D01*
X120519285Y-113708571D02*
X120519285Y-112208571D01*
X121233571Y-113708571D02*
X121233571Y-112208571D01*
X122090714Y-113708571D01*
X122090714Y-112208571D01*
X123090714Y-112208571D02*
X123376428Y-112208571D01*
X123519285Y-112280000D01*
X123662142Y-112422857D01*
X123733571Y-112708571D01*
X123733571Y-113208571D01*
X123662142Y-113494285D01*
X123519285Y-113637142D01*
X123376428Y-113708571D01*
X123090714Y-113708571D01*
X122947857Y-113637142D01*
X122805000Y-113494285D01*
X122733571Y-113208571D01*
X122733571Y-112708571D01*
X122805000Y-112422857D01*
X122947857Y-112280000D01*
X123090714Y-112208571D01*
X125519285Y-112208571D02*
X125519285Y-113422857D01*
X125590714Y-113565714D01*
X125662142Y-113637142D01*
X125805000Y-113708571D01*
X126090714Y-113708571D01*
X126233571Y-113637142D01*
X126305000Y-113565714D01*
X126376428Y-113422857D01*
X126376428Y-112208571D01*
X127019285Y-113637142D02*
X127233571Y-113708571D01*
X127590714Y-113708571D01*
X127733571Y-113637142D01*
X127805000Y-113565714D01*
X127876428Y-113422857D01*
X127876428Y-113280000D01*
X127805000Y-113137142D01*
X127733571Y-113065714D01*
X127590714Y-112994285D01*
X127305000Y-112922857D01*
X127162142Y-112851428D01*
X127090714Y-112780000D01*
X127019285Y-112637142D01*
X127019285Y-112494285D01*
X127090714Y-112351428D01*
X127162142Y-112280000D01*
X127305000Y-112208571D01*
X127662142Y-112208571D01*
X127876428Y-112280000D01*
X129019285Y-112922857D02*
X129233571Y-112994285D01*
X129305000Y-113065714D01*
X129376428Y-113208571D01*
X129376428Y-113422857D01*
X129305000Y-113565714D01*
X129233571Y-113637142D01*
X129090714Y-113708571D01*
X128519285Y-113708571D01*
X128519285Y-112208571D01*
X129019285Y-112208571D01*
X129162142Y-112280000D01*
X129233571Y-112351428D01*
X129305000Y-112494285D01*
X129305000Y-112637142D01*
X129233571Y-112780000D01*
X129162142Y-112851428D01*
X129019285Y-112922857D01*
X128519285Y-112922857D01*
D10*
X109909428Y-56134000D02*
X109836857Y-56097714D01*
X109728000Y-56097714D01*
X109619142Y-56134000D01*
X109546571Y-56206571D01*
X109510285Y-56279142D01*
X109474000Y-56424285D01*
X109474000Y-56533142D01*
X109510285Y-56678285D01*
X109546571Y-56750857D01*
X109619142Y-56823428D01*
X109728000Y-56859714D01*
X109800571Y-56859714D01*
X109909428Y-56823428D01*
X109945714Y-56787142D01*
X109945714Y-56533142D01*
X109800571Y-56533142D01*
X110272285Y-56859714D02*
X110272285Y-56097714D01*
X110707714Y-56859714D01*
X110707714Y-56097714D01*
X111070571Y-56859714D02*
X111070571Y-56097714D01*
X111252000Y-56097714D01*
X111360857Y-56134000D01*
X111433428Y-56206571D01*
X111469714Y-56279142D01*
X111506000Y-56424285D01*
X111506000Y-56533142D01*
X111469714Y-56678285D01*
X111433428Y-56750857D01*
X111360857Y-56823428D01*
X111252000Y-56859714D01*
X111070571Y-56859714D01*
X128524000Y-133930571D02*
X128487714Y-134003142D01*
X128487714Y-134112000D01*
X128524000Y-134220857D01*
X128596571Y-134293428D01*
X128669142Y-134329714D01*
X128814285Y-134366000D01*
X128923142Y-134366000D01*
X129068285Y-134329714D01*
X129140857Y-134293428D01*
X129213428Y-134220857D01*
X129249714Y-134112000D01*
X129249714Y-134039428D01*
X129213428Y-133930571D01*
X129177142Y-133894285D01*
X128923142Y-133894285D01*
X128923142Y-134039428D01*
X129249714Y-133567714D02*
X128487714Y-133567714D01*
X129249714Y-133132285D01*
X128487714Y-133132285D01*
X129249714Y-132769428D02*
X128487714Y-132769428D01*
X128487714Y-132588000D01*
X128524000Y-132479142D01*
X128596571Y-132406571D01*
X128669142Y-132370285D01*
X128814285Y-132334000D01*
X128923142Y-132334000D01*
X129068285Y-132370285D01*
X129140857Y-132406571D01*
X129213428Y-132479142D01*
X129249714Y-132588000D01*
X129249714Y-132769428D01*
X99749428Y-67564000D02*
X99676857Y-67527714D01*
X99568000Y-67527714D01*
X99459142Y-67564000D01*
X99386571Y-67636571D01*
X99350285Y-67709142D01*
X99314000Y-67854285D01*
X99314000Y-67963142D01*
X99350285Y-68108285D01*
X99386571Y-68180857D01*
X99459142Y-68253428D01*
X99568000Y-68289714D01*
X99640571Y-68289714D01*
X99749428Y-68253428D01*
X99785714Y-68217142D01*
X99785714Y-67963142D01*
X99640571Y-67963142D01*
X100112285Y-68289714D02*
X100112285Y-67527714D01*
X100547714Y-68289714D01*
X100547714Y-67527714D01*
X100910571Y-68289714D02*
X100910571Y-67527714D01*
X101092000Y-67527714D01*
X101200857Y-67564000D01*
X101273428Y-67636571D01*
X101309714Y-67709142D01*
X101346000Y-67854285D01*
X101346000Y-67963142D01*
X101309714Y-68108285D01*
X101273428Y-68180857D01*
X101200857Y-68253428D01*
X101092000Y-68289714D01*
X100910571Y-68289714D01*
D11*
X167346380Y-126809333D02*
X168346380Y-126571238D01*
X167632095Y-126380761D01*
X168346380Y-126190285D01*
X167346380Y-125952190D01*
X168346380Y-125571238D02*
X167346380Y-125571238D01*
X167822571Y-125571238D02*
X167822571Y-124999809D01*
X168346380Y-124999809D02*
X167346380Y-124999809D01*
X167346380Y-124666476D02*
X167346380Y-124095047D01*
X168346380Y-124380761D02*
X167346380Y-124380761D01*
X162568000Y-126491904D02*
X162520380Y-126587142D01*
X162520380Y-126730000D01*
X162568000Y-126872857D01*
X162663238Y-126968095D01*
X162758476Y-127015714D01*
X162948952Y-127063333D01*
X163091809Y-127063333D01*
X163282285Y-127015714D01*
X163377523Y-126968095D01*
X163472761Y-126872857D01*
X163520380Y-126730000D01*
X163520380Y-126634761D01*
X163472761Y-126491904D01*
X163425142Y-126444285D01*
X163091809Y-126444285D01*
X163091809Y-126634761D01*
X163520380Y-125444285D02*
X163044190Y-125777619D01*
X163520380Y-126015714D02*
X162520380Y-126015714D01*
X162520380Y-125634761D01*
X162568000Y-125539523D01*
X162615619Y-125491904D01*
X162710857Y-125444285D01*
X162853714Y-125444285D01*
X162948952Y-125491904D01*
X162996571Y-125539523D01*
X163044190Y-125634761D01*
X163044190Y-126015714D01*
X163520380Y-125015714D02*
X162520380Y-125015714D01*
X163520380Y-124444285D01*
X162520380Y-124444285D01*
X157964190Y-126587142D02*
X158440380Y-126587142D01*
X157440380Y-126920476D02*
X157964190Y-126587142D01*
X157440380Y-126253809D01*
X157916571Y-125920476D02*
X157916571Y-125587142D01*
X158440380Y-125444285D02*
X158440380Y-125920476D01*
X157440380Y-125920476D01*
X157440380Y-125444285D01*
X158440380Y-124539523D02*
X158440380Y-125015714D01*
X157440380Y-125015714D01*
X153360380Y-126118857D02*
X152884190Y-126452190D01*
X153360380Y-126690285D02*
X152360380Y-126690285D01*
X152360380Y-126309333D01*
X152408000Y-126214095D01*
X152455619Y-126166476D01*
X152550857Y-126118857D01*
X152693714Y-126118857D01*
X152788952Y-126166476D01*
X152836571Y-126214095D01*
X152884190Y-126309333D01*
X152884190Y-126690285D01*
X152836571Y-125690285D02*
X152836571Y-125356952D01*
X153360380Y-125214095D02*
X153360380Y-125690285D01*
X152360380Y-125690285D01*
X152360380Y-125214095D01*
X153360380Y-124785523D02*
X152360380Y-124785523D01*
X152360380Y-124547428D01*
X152408000Y-124404571D01*
X152503238Y-124309333D01*
X152598476Y-124261714D01*
X152788952Y-124214095D01*
X152931809Y-124214095D01*
X153122285Y-124261714D01*
X153217523Y-124309333D01*
X153312761Y-124404571D01*
X153360380Y-124547428D01*
X153360380Y-124785523D01*
X147756571Y-126563333D02*
X147804190Y-126420476D01*
X147851809Y-126372857D01*
X147947047Y-126325238D01*
X148089904Y-126325238D01*
X148185142Y-126372857D01*
X148232761Y-126420476D01*
X148280380Y-126515714D01*
X148280380Y-126896666D01*
X147280380Y-126896666D01*
X147280380Y-126563333D01*
X147328000Y-126468095D01*
X147375619Y-126420476D01*
X147470857Y-126372857D01*
X147566095Y-126372857D01*
X147661333Y-126420476D01*
X147708952Y-126468095D01*
X147756571Y-126563333D01*
X147756571Y-126896666D01*
X148280380Y-125420476D02*
X148280380Y-125896666D01*
X147280380Y-125896666D01*
X148280380Y-125087142D02*
X147280380Y-125087142D01*
X148280380Y-124515714D02*
X147708952Y-124944285D01*
X147280380Y-124515714D02*
X147851809Y-125087142D01*
D14*
G36*
X206375000Y-122555000D02*
G01*
X198120000Y-122555000D01*
X198120000Y-93980000D01*
X206375000Y-93980000D01*
X206375000Y-122555000D01*
G37*
X206375000Y-122555000D02*
X198120000Y-122555000D01*
X198120000Y-93980000D01*
X206375000Y-93980000D01*
X206375000Y-122555000D01*
D13*
X201333571Y-90736428D02*
X199833571Y-90736428D01*
X199833571Y-90379285D01*
X199905000Y-90165000D01*
X200047857Y-90022142D01*
X200190714Y-89950714D01*
X200476428Y-89879285D01*
X200690714Y-89879285D01*
X200976428Y-89950714D01*
X201119285Y-90022142D01*
X201262142Y-90165000D01*
X201333571Y-90379285D01*
X201333571Y-90736428D01*
X201262142Y-89307857D02*
X201333571Y-89093571D01*
X201333571Y-88736428D01*
X201262142Y-88593571D01*
X201190714Y-88522142D01*
X201047857Y-88450714D01*
X200905000Y-88450714D01*
X200762142Y-88522142D01*
X200690714Y-88593571D01*
X200619285Y-88736428D01*
X200547857Y-89022142D01*
X200476428Y-89165000D01*
X200405000Y-89236428D01*
X200262142Y-89307857D01*
X200119285Y-89307857D01*
X199976428Y-89236428D01*
X199905000Y-89165000D01*
X199833571Y-89022142D01*
X199833571Y-88665000D01*
X199905000Y-88450714D01*
X200905000Y-87879285D02*
X200905000Y-87165000D01*
X201333571Y-88022142D02*
X199833571Y-87522142D01*
X201333571Y-87022142D01*
X201333571Y-85379285D02*
X199833571Y-85379285D01*
X200905000Y-84879285D01*
X199833571Y-84379285D01*
X201333571Y-84379285D01*
X201333571Y-83665000D02*
X199833571Y-83665000D01*
X201333571Y-82807857D02*
X200476428Y-83450714D01*
X199833571Y-82807857D02*
X200690714Y-83665000D01*
X199833571Y-82379285D02*
X201333571Y-81879285D01*
X199833571Y-81379285D01*
X201333571Y-80879285D02*
X199833571Y-80879285D01*
X201333571Y-78165000D02*
X200619285Y-78665000D01*
X201333571Y-79022142D02*
X199833571Y-79022142D01*
X199833571Y-78450714D01*
X199905000Y-78307857D01*
X199976428Y-78236428D01*
X200119285Y-78165000D01*
X200333571Y-78165000D01*
X200476428Y-78236428D01*
X200547857Y-78307857D01*
X200619285Y-78450714D01*
X200619285Y-79022142D01*
X200547857Y-77522142D02*
X200547857Y-77022142D01*
X201333571Y-76807857D02*
X201333571Y-77522142D01*
X199833571Y-77522142D01*
X199833571Y-76807857D01*
X199833571Y-76379285D02*
X201333571Y-75879285D01*
X199833571Y-75379285D01*
X200547857Y-73736428D02*
X200547857Y-73236428D01*
X201333571Y-73022142D02*
X201333571Y-73736428D01*
X199833571Y-73736428D01*
X199833571Y-73022142D01*
X203883571Y-87200714D02*
X202383571Y-87200714D01*
X203883571Y-86343571D01*
X202383571Y-86343571D01*
X202383571Y-85343571D02*
X202383571Y-85057857D01*
X202455000Y-84915000D01*
X202597857Y-84772142D01*
X202883571Y-84700714D01*
X203383571Y-84700714D01*
X203669285Y-84772142D01*
X203812142Y-84915000D01*
X203883571Y-85057857D01*
X203883571Y-85343571D01*
X203812142Y-85486428D01*
X203669285Y-85629285D01*
X203383571Y-85700714D01*
X202883571Y-85700714D01*
X202597857Y-85629285D01*
X202455000Y-85486428D01*
X202383571Y-85343571D01*
X202383571Y-84272142D02*
X203883571Y-83772142D01*
X202383571Y-83272142D01*
X202526428Y-81700714D02*
X202455000Y-81629285D01*
X202383571Y-81486428D01*
X202383571Y-81129285D01*
X202455000Y-80986428D01*
X202526428Y-80915000D01*
X202669285Y-80843571D01*
X202812142Y-80843571D01*
X203026428Y-80915000D01*
X203883571Y-81772142D01*
X203883571Y-80843571D01*
X202383571Y-79915000D02*
X202383571Y-79772142D01*
X202455000Y-79629285D01*
X202526428Y-79557857D01*
X202669285Y-79486428D01*
X202955000Y-79415000D01*
X203312142Y-79415000D01*
X203597857Y-79486428D01*
X203740714Y-79557857D01*
X203812142Y-79629285D01*
X203883571Y-79772142D01*
X203883571Y-79915000D01*
X203812142Y-80057857D01*
X203740714Y-80129285D01*
X203597857Y-80200714D01*
X203312142Y-80272142D01*
X202955000Y-80272142D01*
X202669285Y-80200714D01*
X202526428Y-80129285D01*
X202455000Y-80057857D01*
X202383571Y-79915000D01*
X202526428Y-78843571D02*
X202455000Y-78772142D01*
X202383571Y-78629285D01*
X202383571Y-78272142D01*
X202455000Y-78129285D01*
X202526428Y-78057857D01*
X202669285Y-77986428D01*
X202812142Y-77986428D01*
X203026428Y-78057857D01*
X203883571Y-78915000D01*
X203883571Y-77986428D01*
X202383571Y-77486428D02*
X202383571Y-76557857D01*
X202955000Y-77057857D01*
X202955000Y-76843571D01*
X203026428Y-76700714D01*
X203097857Y-76629285D01*
X203240714Y-76557857D01*
X203597857Y-76557857D01*
X203740714Y-76629285D01*
X203812142Y-76700714D01*
X203883571Y-76843571D01*
X203883571Y-77272142D01*
X203812142Y-77415000D01*
X203740714Y-77486428D01*
D15*
X154588000Y-134112000D02*
G75*
G03*
X154588000Y-134112000I-1680000J0D01*
G01*
X159668000Y-134112000D02*
G75*
G03*
X159668000Y-134112000I-1680000J0D01*
G01*
X164748000Y-134112000D02*
G75*
G03*
X164748000Y-134112000I-1680000J0D01*
G01*
X169828000Y-134112000D02*
G75*
G03*
X169828000Y-134112000I-1680000J0D01*
G01*
X174908000Y-134112000D02*
G75*
G03*
X174908000Y-134112000I-1680000J0D01*
G01*
X179988000Y-134112000D02*
G75*
G03*
X179988000Y-134112000I-1680000J0D01*
G01*
X145228000Y-138212000D02*
X180908000Y-138212000D01*
X145228000Y-136712000D02*
X180908000Y-136712000D01*
X145228000Y-131811000D02*
X180908000Y-131811000D01*
X145228000Y-128851000D02*
X180908000Y-128851000D01*
X145228000Y-138772000D02*
X180908000Y-138772000D01*
X145228000Y-128851000D02*
X145228000Y-138772000D01*
X180908000Y-128851000D02*
X180908000Y-138772000D01*
X154183000Y-133043000D02*
X154136000Y-133089000D01*
X151874000Y-135351000D02*
X151839000Y-135386000D01*
X153978000Y-132837000D02*
X153943000Y-132873000D01*
X151681000Y-135135000D02*
X151634000Y-135181000D01*
X159263000Y-133043000D02*
X159216000Y-133089000D01*
X156954000Y-135351000D02*
X156919000Y-135386000D01*
X159058000Y-132837000D02*
X159023000Y-132873000D01*
X156761000Y-135135000D02*
X156714000Y-135181000D01*
X164343000Y-133043000D02*
X164296000Y-133089000D01*
X162034000Y-135351000D02*
X161999000Y-135386000D01*
X164138000Y-132837000D02*
X164103000Y-132873000D01*
X161841000Y-135135000D02*
X161794000Y-135181000D01*
X169423000Y-133043000D02*
X169376000Y-133089000D01*
X167114000Y-135351000D02*
X167079000Y-135386000D01*
X169218000Y-132837000D02*
X169183000Y-132873000D01*
X166921000Y-135135000D02*
X166874000Y-135181000D01*
X174503000Y-133043000D02*
X174456000Y-133089000D01*
X172194000Y-135351000D02*
X172159000Y-135386000D01*
X174298000Y-132837000D02*
X174263000Y-132873000D01*
X172001000Y-135135000D02*
X171954000Y-135181000D01*
X179583000Y-133043000D02*
X179536000Y-133089000D01*
X177274000Y-135351000D02*
X177239000Y-135386000D01*
X179378000Y-132837000D02*
X179343000Y-132873000D01*
X177081000Y-135135000D02*
X177034000Y-135181000D01*
X144988000Y-138272000D02*
X144988000Y-139012000D01*
X144988000Y-139012000D02*
X145488000Y-139012000D01*
X147856805Y-135792253D02*
G75*
G02*
X147144000Y-135647000I-28805J1680253D01*
G01*
X146292574Y-134795042D02*
G75*
G02*
X146293000Y-133428000I1535426J683042D01*
G01*
X147144958Y-132576574D02*
G75*
G02*
X148512000Y-132577000I683042J-1535426D01*
G01*
X149363426Y-133428958D02*
G75*
G02*
X149363000Y-134796000I-1535426J-683042D01*
G01*
X148511318Y-135646756D02*
G75*
G02*
X147828000Y-135792000I-683318J1534756D01*
G01*
X118685000Y-103395000D02*
X118685000Y-105045000D01*
X154365000Y-103395000D02*
X118685000Y-103395000D01*
X154365000Y-108695000D02*
X154365000Y-103395000D01*
X118685000Y-108695000D02*
X154365000Y-108695000D01*
X118685000Y-107045000D02*
X118685000Y-108695000D01*
X118685000Y-105045000D02*
G75*
G02*
X118685000Y-107045000I0J-1000000D01*
G01*
X150495000Y-82680000D02*
X150495000Y-79880000D01*
X137625000Y-82680000D02*
X153205000Y-82680000D01*
X137625000Y-79880000D02*
X137625000Y-82680000D01*
X153205000Y-79880000D02*
X137625000Y-79880000D01*
X153205000Y-82680000D02*
X153205000Y-79880000D01*
X140335000Y-84960000D02*
X140335000Y-87760000D01*
X153205000Y-84960000D02*
X137625000Y-84960000D01*
X153205000Y-87760000D02*
X153205000Y-84960000D01*
X137625000Y-87760000D02*
X153205000Y-87760000D01*
X137625000Y-84960000D02*
X137625000Y-87760000D01*
X114030000Y-120750000D02*
X114030000Y-118010000D01*
X122270000Y-120750000D02*
X122270000Y-118010000D01*
X122270000Y-118010000D02*
X114030000Y-118010000D01*
X122270000Y-120750000D02*
X114030000Y-120750000D01*
X111225000Y-85150000D02*
X108485000Y-85150000D01*
X111225000Y-79910000D02*
X108485000Y-79910000D01*
X108485000Y-79910000D02*
X108485000Y-85150000D01*
X111225000Y-79910000D02*
X111225000Y-85150000D01*
X136585000Y-92610000D02*
X136585000Y-95350000D01*
X131345000Y-92610000D02*
X131345000Y-95350000D01*
X131345000Y-95350000D02*
X136585000Y-95350000D01*
X131345000Y-92610000D02*
X136585000Y-92610000D01*
X99000000Y-66775000D02*
X99000000Y-64035000D01*
X104240000Y-66775000D02*
X104240000Y-64035000D01*
X104240000Y-64035000D02*
X99000000Y-64035000D01*
X104240000Y-66775000D02*
X99000000Y-66775000D01*
X134680000Y-55780000D02*
X134680000Y-58520000D01*
X129440000Y-55780000D02*
X129440000Y-58520000D01*
X129440000Y-58520000D02*
X134680000Y-58520000D01*
X129440000Y-55780000D02*
X134680000Y-55780000D01*
X144205000Y-117375000D02*
X144205000Y-120115000D01*
X138965000Y-117375000D02*
X138965000Y-120115000D01*
X138965000Y-120115000D02*
X144205000Y-120115000D01*
X138965000Y-117375000D02*
X144205000Y-117375000D01*
X142340000Y-132140000D02*
X139600000Y-132140000D01*
X142340000Y-126900000D02*
X139600000Y-126900000D01*
X139600000Y-126900000D02*
X139600000Y-132140000D01*
X142340000Y-126900000D02*
X142340000Y-132140000D01*
X137100000Y-99795000D02*
X137100000Y-97055000D01*
X142340000Y-99795000D02*
X142340000Y-97055000D01*
X142340000Y-97055000D02*
X137100000Y-97055000D01*
X142340000Y-99795000D02*
X137100000Y-99795000D01*
X185420000Y-102235000D02*
X185420000Y-92075000D01*
X177800000Y-102235000D02*
X185420000Y-102235000D01*
X177800000Y-92075000D02*
X177800000Y-102235000D01*
X185420000Y-92075000D02*
X177800000Y-92075000D01*
X184150000Y-92075000D02*
X184150000Y-102235000D01*
X110490000Y-92015000D02*
X111820000Y-92015000D01*
X111820000Y-92015000D02*
X111820000Y-93345000D01*
X111820000Y-94615000D02*
X111820000Y-99755000D01*
X109160000Y-99755000D02*
X111820000Y-99755000D01*
X109160000Y-94615000D02*
X109160000Y-99755000D01*
X109160000Y-94615000D02*
X111820000Y-94615000D01*
X137700000Y-121515000D02*
X137700000Y-121185000D01*
X137700000Y-121185000D02*
X144240000Y-121185000D01*
X144240000Y-121185000D02*
X144240000Y-121515000D01*
X137700000Y-123595000D02*
X137700000Y-123925000D01*
X137700000Y-123925000D02*
X144240000Y-123925000D01*
X144240000Y-123925000D02*
X144240000Y-123595000D01*
X146625000Y-71815000D02*
X149285000Y-71815000D01*
X146625000Y-64135000D02*
X146625000Y-71815000D01*
X149285000Y-64135000D02*
X149285000Y-71815000D01*
X146625000Y-64135000D02*
X149285000Y-64135000D01*
X146625000Y-62865000D02*
X146625000Y-61535000D01*
X146625000Y-61535000D02*
X147955000Y-61535000D01*
X123130000Y-71815000D02*
X125790000Y-71815000D01*
X123130000Y-64135000D02*
X123130000Y-71815000D01*
X125790000Y-64135000D02*
X125790000Y-71815000D01*
X123130000Y-64135000D02*
X125790000Y-64135000D01*
X123130000Y-62865000D02*
X123130000Y-61535000D01*
X123130000Y-61535000D02*
X124460000Y-61535000D01*
X111890000Y-106045000D02*
X109090000Y-106045000D01*
X111890000Y-118915000D02*
X111890000Y-103335000D01*
X109090000Y-118915000D02*
X111890000Y-118915000D01*
X109090000Y-103335000D02*
X109090000Y-118915000D01*
X111890000Y-103335000D02*
X109090000Y-103335000D01*
X114310000Y-62405000D02*
X115110000Y-61605000D01*
X115110000Y-61605000D02*
X134610000Y-61605000D01*
X134610000Y-61605000D02*
X134610000Y-71745000D01*
X134610000Y-71745000D02*
X114310000Y-71745000D01*
X114310000Y-71745000D02*
X114310000Y-62405000D01*
X182348000Y-121888000D02*
X182018000Y-121888000D01*
X182018000Y-121888000D02*
X182018000Y-115348000D01*
X182018000Y-115348000D02*
X182348000Y-115348000D01*
X184428000Y-121888000D02*
X184758000Y-121888000D01*
X184758000Y-121888000D02*
X184758000Y-115348000D01*
X184758000Y-115348000D02*
X184428000Y-115348000D01*
X135425000Y-87760000D02*
X135425000Y-84960000D01*
X135425000Y-84960000D02*
X112225000Y-84960000D01*
X112225000Y-84960000D02*
X112225000Y-87760000D01*
X112225000Y-87760000D02*
X135425000Y-87760000D01*
X132715000Y-87760000D02*
X132715000Y-84960000D01*
X170668000Y-90688000D02*
G75*
G03*
X170668000Y-90688000I-7600000J0D01*
G01*
X133445000Y-99465000D02*
X133445000Y-99795000D01*
X133445000Y-99795000D02*
X126905000Y-99795000D01*
X126905000Y-99795000D02*
X126905000Y-99465000D01*
X133445000Y-97385000D02*
X133445000Y-97055000D01*
X133445000Y-97055000D02*
X126905000Y-97055000D01*
X126905000Y-97055000D02*
X126905000Y-97385000D01*
X112225000Y-79880000D02*
X112225000Y-82680000D01*
X112225000Y-82680000D02*
X135425000Y-82680000D01*
X135425000Y-82680000D02*
X135425000Y-79880000D01*
X135425000Y-79880000D02*
X112225000Y-79880000D01*
X114935000Y-79880000D02*
X114935000Y-82680000D01*
X162156000Y-102274000D02*
X159916000Y-102274000D01*
X159916000Y-102274000D02*
X159916000Y-106514000D01*
X159916000Y-106514000D02*
X162156000Y-106514000D01*
X162156000Y-106514000D02*
X162156000Y-102274000D01*
X161036000Y-101624000D02*
X161036000Y-102274000D01*
X161036000Y-107164000D02*
X161036000Y-106514000D01*
X162156000Y-102994000D02*
X159916000Y-102994000D01*
X162156000Y-103114000D02*
X159916000Y-103114000D01*
X162156000Y-102874000D02*
X159916000Y-102874000D01*
X158854000Y-102274000D02*
X156614000Y-102274000D01*
X156614000Y-102274000D02*
X156614000Y-106514000D01*
X156614000Y-106514000D02*
X158854000Y-106514000D01*
X158854000Y-106514000D02*
X158854000Y-102274000D01*
X157734000Y-101624000D02*
X157734000Y-102274000D01*
X157734000Y-107164000D02*
X157734000Y-106514000D01*
X158854000Y-102994000D02*
X156614000Y-102994000D01*
X158854000Y-103114000D02*
X156614000Y-103114000D01*
X158854000Y-102874000D02*
X156614000Y-102874000D01*
X125155000Y-128845000D02*
X122495000Y-128845000D01*
X125155000Y-133985000D02*
X125155000Y-128845000D01*
X122495000Y-133985000D02*
X122495000Y-128845000D01*
X125155000Y-133985000D02*
X122495000Y-133985000D01*
X125155000Y-135255000D02*
X125155000Y-136585000D01*
X125155000Y-136585000D02*
X123825000Y-136585000D01*
X118805000Y-136585000D02*
X118805000Y-133925000D01*
X113665000Y-136585000D02*
X118805000Y-136585000D01*
X113665000Y-133925000D02*
X118805000Y-133925000D01*
X113665000Y-136585000D02*
X113665000Y-133925000D01*
X112395000Y-136585000D02*
X111065000Y-136585000D01*
X111065000Y-136585000D02*
X111065000Y-135255000D01*
X111065000Y-130235000D02*
X113725000Y-130235000D01*
X111065000Y-125095000D02*
X111065000Y-130235000D01*
X113725000Y-125095000D02*
X113725000Y-130235000D01*
X111065000Y-125095000D02*
X113725000Y-125095000D01*
X111065000Y-123825000D02*
X111065000Y-122495000D01*
X111065000Y-122495000D02*
X112395000Y-122495000D01*
X117415000Y-122495000D02*
X117415000Y-125155000D01*
X122555000Y-122495000D02*
X117415000Y-122495000D01*
X122555000Y-125155000D02*
X117415000Y-125155000D01*
X122555000Y-122495000D02*
X122555000Y-125155000D01*
X123825000Y-122495000D02*
X125155000Y-122495000D01*
X125155000Y-122495000D02*
X125155000Y-123825000D01*
X137220000Y-126940000D02*
X134560000Y-126940000D01*
X137220000Y-132080000D02*
X137220000Y-126940000D01*
X134560000Y-132080000D02*
X134560000Y-126940000D01*
X137220000Y-132080000D02*
X134560000Y-132080000D01*
X137220000Y-133350000D02*
X137220000Y-134680000D01*
X137220000Y-134680000D02*
X135890000Y-134680000D01*
X132775000Y-126940000D02*
X130115000Y-126940000D01*
X132775000Y-132080000D02*
X132775000Y-126940000D01*
X130115000Y-132080000D02*
X130115000Y-126940000D01*
X132775000Y-132080000D02*
X130115000Y-132080000D01*
X132775000Y-133350000D02*
X132775000Y-134680000D01*
X132775000Y-134680000D02*
X131445000Y-134680000D01*
X106740000Y-62290000D02*
X106740000Y-59630000D01*
X101600000Y-62290000D02*
X106740000Y-62290000D01*
X101600000Y-59630000D02*
X106740000Y-59630000D01*
X101600000Y-62290000D02*
X101600000Y-59630000D01*
X100330000Y-62290000D02*
X99000000Y-62290000D01*
X99000000Y-62290000D02*
X99000000Y-60960000D01*
X106740000Y-57845000D02*
X106740000Y-55185000D01*
X101600000Y-57845000D02*
X106740000Y-57845000D01*
X101600000Y-55185000D02*
X106740000Y-55185000D01*
X101600000Y-57845000D02*
X101600000Y-55185000D01*
X100330000Y-57845000D02*
X99000000Y-57845000D01*
X99000000Y-57845000D02*
X99000000Y-56515000D01*
X143260000Y-112850000D02*
X138760000Y-112850000D01*
X143260000Y-115750000D02*
X138760000Y-115750000D01*
X143260000Y-112850000D02*
G75*
G02*
X143260000Y-115750000I0J-1450000D01*
G01*
X138760000Y-112850000D02*
G75*
G03*
X138760000Y-115750000I0J-1450000D01*
G01*
X156912000Y-112920000D02*
X156912000Y-114570000D01*
X177352000Y-112920000D02*
X156912000Y-112920000D01*
X177352000Y-118220000D02*
X177352000Y-112920000D01*
X156912000Y-118220000D02*
X177352000Y-118220000D01*
X156912000Y-116570000D02*
X156912000Y-118220000D01*
X156912000Y-114570000D02*
G75*
G02*
X156912000Y-116570000I0J-1000000D01*
G01*
X137805000Y-62405000D02*
X138605000Y-61605000D01*
X138605000Y-61605000D02*
X158105000Y-61605000D01*
X158105000Y-61605000D02*
X158105000Y-71745000D01*
X158105000Y-71745000D02*
X137805000Y-71745000D01*
X137805000Y-71745000D02*
X137805000Y-62405000D01*
X147685000Y-59475000D02*
X152185000Y-59475000D01*
X146435000Y-55475000D02*
X146435000Y-56975000D01*
X152185000Y-52975000D02*
X147685000Y-52975000D01*
X153435000Y-56975000D02*
X153435000Y-55475000D01*
X149025000Y-114530000D02*
X149025000Y-119070000D01*
X146885000Y-114530000D02*
X146885000Y-119070000D01*
X149025000Y-114530000D02*
X149010000Y-114530000D01*
X146900000Y-114530000D02*
X146885000Y-114530000D01*
X149025000Y-119070000D02*
X149010000Y-119070000D01*
X146900000Y-119070000D02*
X146885000Y-119070000D01*
X132930000Y-119070000D02*
X132915000Y-119070000D01*
X135055000Y-119070000D02*
X135040000Y-119070000D01*
X132930000Y-114530000D02*
X132915000Y-114530000D01*
X135055000Y-114530000D02*
X135040000Y-114530000D01*
X132915000Y-114530000D02*
X132915000Y-119070000D01*
X135055000Y-114530000D02*
X135055000Y-119070000D01*
X188534646Y-79575000D02*
X188534646Y-78575000D01*
X189034646Y-79075000D02*
X188034646Y-79075000D01*
X178474000Y-76799000D02*
X178474000Y-75601000D01*
X178514000Y-77062000D02*
X178514000Y-75338000D01*
X178554000Y-77262000D02*
X178554000Y-75138000D01*
X178594000Y-77430000D02*
X178594000Y-74970000D01*
X178634000Y-77578000D02*
X178634000Y-74822000D01*
X178674000Y-77710000D02*
X178674000Y-74690000D01*
X178714000Y-77830000D02*
X178714000Y-74570000D01*
X178754000Y-77942000D02*
X178754000Y-74458000D01*
X178794000Y-78046000D02*
X178794000Y-74354000D01*
X178834000Y-78144000D02*
X178834000Y-74256000D01*
X178874000Y-78237000D02*
X178874000Y-74163000D01*
X178914000Y-78325000D02*
X178914000Y-74075000D01*
X178954000Y-78409000D02*
X178954000Y-73991000D01*
X178994000Y-78489000D02*
X178994000Y-73911000D01*
X179034000Y-78565000D02*
X179034000Y-73835000D01*
X179074000Y-78639000D02*
X179074000Y-73761000D01*
X179114000Y-78710000D02*
X179114000Y-73690000D01*
X179154000Y-78779000D02*
X179154000Y-73621000D01*
X179194000Y-78845000D02*
X179194000Y-73555000D01*
X179234000Y-78909000D02*
X179234000Y-73491000D01*
X179274000Y-78970000D02*
X179274000Y-73430000D01*
X179314000Y-79030000D02*
X179314000Y-73370000D01*
X179354000Y-79089000D02*
X179354000Y-73311000D01*
X179394000Y-79145000D02*
X179394000Y-73255000D01*
X179434000Y-79200000D02*
X179434000Y-73200000D01*
X179474000Y-79254000D02*
X179474000Y-73146000D01*
X179514000Y-79306000D02*
X179514000Y-73094000D01*
X179554000Y-79356000D02*
X179554000Y-73044000D01*
X179594000Y-79406000D02*
X179594000Y-72994000D01*
X179634000Y-79454000D02*
X179634000Y-72946000D01*
X179674000Y-79501000D02*
X179674000Y-72899000D01*
X179714000Y-79547000D02*
X179714000Y-72853000D01*
X179754000Y-79592000D02*
X179754000Y-72808000D01*
X179794000Y-79636000D02*
X179794000Y-72764000D01*
X179834000Y-74959000D02*
X179834000Y-72722000D01*
X179834000Y-79678000D02*
X179834000Y-77441000D01*
X179874000Y-74959000D02*
X179874000Y-72680000D01*
X179874000Y-79720000D02*
X179874000Y-77441000D01*
X179914000Y-74959000D02*
X179914000Y-72639000D01*
X179914000Y-79761000D02*
X179914000Y-77441000D01*
X179954000Y-74959000D02*
X179954000Y-72599000D01*
X179954000Y-79801000D02*
X179954000Y-77441000D01*
X179994000Y-74959000D02*
X179994000Y-72560000D01*
X179994000Y-79840000D02*
X179994000Y-77441000D01*
X180034000Y-74959000D02*
X180034000Y-72521000D01*
X180034000Y-79879000D02*
X180034000Y-77441000D01*
X180074000Y-74959000D02*
X180074000Y-72484000D01*
X180074000Y-79916000D02*
X180074000Y-77441000D01*
X180114000Y-74959000D02*
X180114000Y-72447000D01*
X180114000Y-79953000D02*
X180114000Y-77441000D01*
X180154000Y-74959000D02*
X180154000Y-72411000D01*
X180154000Y-79989000D02*
X180154000Y-77441000D01*
X180194000Y-74959000D02*
X180194000Y-72376000D01*
X180194000Y-80024000D02*
X180194000Y-77441000D01*
X180234000Y-74959000D02*
X180234000Y-72342000D01*
X180234000Y-80058000D02*
X180234000Y-77441000D01*
X180274000Y-74959000D02*
X180274000Y-72308000D01*
X180274000Y-80092000D02*
X180274000Y-77441000D01*
X180314000Y-74959000D02*
X180314000Y-72275000D01*
X180314000Y-80125000D02*
X180314000Y-77441000D01*
X180354000Y-74959000D02*
X180354000Y-72243000D01*
X180354000Y-80157000D02*
X180354000Y-77441000D01*
X180394000Y-74959000D02*
X180394000Y-72211000D01*
X180394000Y-80189000D02*
X180394000Y-77441000D01*
X180434000Y-74959000D02*
X180434000Y-72180000D01*
X180434000Y-80220000D02*
X180434000Y-77441000D01*
X180474000Y-74959000D02*
X180474000Y-72150000D01*
X180474000Y-80250000D02*
X180474000Y-77441000D01*
X180514000Y-74959000D02*
X180514000Y-72120000D01*
X180514000Y-80280000D02*
X180514000Y-77441000D01*
X180554000Y-74959000D02*
X180554000Y-72090000D01*
X180554000Y-80310000D02*
X180554000Y-77441000D01*
X180594000Y-74959000D02*
X180594000Y-72062000D01*
X180594000Y-80338000D02*
X180594000Y-77441000D01*
X180634000Y-74959000D02*
X180634000Y-72034000D01*
X180634000Y-80366000D02*
X180634000Y-77441000D01*
X180674000Y-74959000D02*
X180674000Y-72006000D01*
X180674000Y-80394000D02*
X180674000Y-77441000D01*
X180714000Y-74959000D02*
X180714000Y-71979000D01*
X180714000Y-80421000D02*
X180714000Y-77441000D01*
X180754000Y-74959000D02*
X180754000Y-71953000D01*
X180754000Y-80447000D02*
X180754000Y-77441000D01*
X180794000Y-74959000D02*
X180794000Y-71927000D01*
X180794000Y-80473000D02*
X180794000Y-77441000D01*
X180834000Y-74959000D02*
X180834000Y-71902000D01*
X180834000Y-80498000D02*
X180834000Y-77441000D01*
X180874000Y-74959000D02*
X180874000Y-71877000D01*
X180874000Y-80523000D02*
X180874000Y-77441000D01*
X180914000Y-74959000D02*
X180914000Y-71853000D01*
X180914000Y-80547000D02*
X180914000Y-77441000D01*
X180954000Y-74959000D02*
X180954000Y-71829000D01*
X180954000Y-80571000D02*
X180954000Y-77441000D01*
X180994000Y-74959000D02*
X180994000Y-71805000D01*
X180994000Y-80595000D02*
X180994000Y-77441000D01*
X181034000Y-74959000D02*
X181034000Y-71783000D01*
X181034000Y-80617000D02*
X181034000Y-77441000D01*
X181074000Y-74959000D02*
X181074000Y-71760000D01*
X181074000Y-80640000D02*
X181074000Y-77441000D01*
X181114000Y-74959000D02*
X181114000Y-71738000D01*
X181114000Y-80662000D02*
X181114000Y-77441000D01*
X181154000Y-74959000D02*
X181154000Y-71717000D01*
X181154000Y-80683000D02*
X181154000Y-77441000D01*
X181194000Y-74959000D02*
X181194000Y-71696000D01*
X181194000Y-80704000D02*
X181194000Y-77441000D01*
X181234000Y-74959000D02*
X181234000Y-71675000D01*
X181234000Y-80725000D02*
X181234000Y-77441000D01*
X181274000Y-74959000D02*
X181274000Y-71655000D01*
X181274000Y-80745000D02*
X181274000Y-77441000D01*
X181314000Y-74959000D02*
X181314000Y-71636000D01*
X181314000Y-80764000D02*
X181314000Y-77441000D01*
X181354000Y-74959000D02*
X181354000Y-71616000D01*
X181354000Y-80784000D02*
X181354000Y-77441000D01*
X181394000Y-74959000D02*
X181394000Y-71597000D01*
X181394000Y-80803000D02*
X181394000Y-77441000D01*
X181434000Y-74959000D02*
X181434000Y-71579000D01*
X181434000Y-80821000D02*
X181434000Y-77441000D01*
X181474000Y-74959000D02*
X181474000Y-71561000D01*
X181474000Y-80839000D02*
X181474000Y-77441000D01*
X181514000Y-74959000D02*
X181514000Y-71543000D01*
X181514000Y-80857000D02*
X181514000Y-77441000D01*
X181554000Y-74959000D02*
X181554000Y-71526000D01*
X181554000Y-80874000D02*
X181554000Y-77441000D01*
X181594000Y-74959000D02*
X181594000Y-71510000D01*
X181594000Y-80890000D02*
X181594000Y-77441000D01*
X181634000Y-74959000D02*
X181634000Y-71493000D01*
X181634000Y-80907000D02*
X181634000Y-77441000D01*
X181674000Y-74959000D02*
X181674000Y-71477000D01*
X181674000Y-80923000D02*
X181674000Y-77441000D01*
X181714000Y-74959000D02*
X181714000Y-71462000D01*
X181714000Y-80938000D02*
X181714000Y-77441000D01*
X181754000Y-74959000D02*
X181754000Y-71446000D01*
X181754000Y-80954000D02*
X181754000Y-77441000D01*
X181794000Y-74959000D02*
X181794000Y-71432000D01*
X181794000Y-80968000D02*
X181794000Y-77441000D01*
X181834000Y-74959000D02*
X181834000Y-71417000D01*
X181834000Y-80983000D02*
X181834000Y-77441000D01*
X181874000Y-74959000D02*
X181874000Y-71403000D01*
X181874000Y-80997000D02*
X181874000Y-77441000D01*
X181914000Y-74959000D02*
X181914000Y-71389000D01*
X181914000Y-81011000D02*
X181914000Y-77441000D01*
X181954000Y-74959000D02*
X181954000Y-71376000D01*
X181954000Y-81024000D02*
X181954000Y-77441000D01*
X181994000Y-74959000D02*
X181994000Y-71363000D01*
X181994000Y-81037000D02*
X181994000Y-77441000D01*
X182034000Y-74959000D02*
X182034000Y-71350000D01*
X182034000Y-81050000D02*
X182034000Y-77441000D01*
X182074000Y-74959000D02*
X182074000Y-71338000D01*
X182074000Y-81062000D02*
X182074000Y-77441000D01*
X182114000Y-74959000D02*
X182114000Y-71326000D01*
X182114000Y-81074000D02*
X182114000Y-77441000D01*
X182154000Y-74959000D02*
X182154000Y-71315000D01*
X182154000Y-81085000D02*
X182154000Y-77441000D01*
X182194000Y-74959000D02*
X182194000Y-71303000D01*
X182194000Y-81097000D02*
X182194000Y-77441000D01*
X182234000Y-74959000D02*
X182234000Y-71293000D01*
X182234000Y-81107000D02*
X182234000Y-77441000D01*
X182274000Y-74959000D02*
X182274000Y-71282000D01*
X182274000Y-81118000D02*
X182274000Y-77441000D01*
X182314000Y-81128000D02*
X182314000Y-71272000D01*
X182354000Y-81138000D02*
X182354000Y-71262000D01*
X182394000Y-81147000D02*
X182394000Y-71253000D01*
X182434000Y-81156000D02*
X182434000Y-71244000D01*
X182474000Y-81165000D02*
X182474000Y-71235000D01*
X182514000Y-81174000D02*
X182514000Y-71226000D01*
X182554000Y-81182000D02*
X182554000Y-71218000D01*
X182594000Y-81190000D02*
X182594000Y-71210000D01*
X182634000Y-81197000D02*
X182634000Y-71203000D01*
X182674000Y-81204000D02*
X182674000Y-71196000D01*
X182714000Y-81211000D02*
X182714000Y-71189000D01*
X182754000Y-81218000D02*
X182754000Y-71182000D01*
X182794000Y-81224000D02*
X182794000Y-71176000D01*
X182834000Y-81230000D02*
X182834000Y-71170000D01*
X182875000Y-81235000D02*
X182875000Y-71165000D01*
X182915000Y-81240000D02*
X182915000Y-71160000D01*
X182955000Y-81245000D02*
X182955000Y-71155000D01*
X182995000Y-81250000D02*
X182995000Y-71150000D01*
X183035000Y-81254000D02*
X183035000Y-71146000D01*
X183075000Y-81258000D02*
X183075000Y-71142000D01*
X183115000Y-81262000D02*
X183115000Y-71138000D01*
X183155000Y-81265000D02*
X183155000Y-71135000D01*
X183195000Y-81268000D02*
X183195000Y-71132000D01*
X183235000Y-81270000D02*
X183235000Y-71130000D01*
X183275000Y-81273000D02*
X183275000Y-71127000D01*
X183315000Y-81275000D02*
X183315000Y-71125000D01*
X183355000Y-81277000D02*
X183355000Y-71123000D01*
X183395000Y-81278000D02*
X183395000Y-71122000D01*
X183435000Y-81279000D02*
X183435000Y-71121000D01*
X183475000Y-81280000D02*
X183475000Y-71120000D01*
X183515000Y-81280000D02*
X183515000Y-71120000D01*
X183555000Y-81280000D02*
X183555000Y-71120000D01*
X188675000Y-76200000D02*
G75*
G03*
X188675000Y-76200000I-5120000J0D01*
G01*
X165175000Y-62230000D02*
G75*
G03*
X165175000Y-62230000I-3270000J0D01*
G01*
X161905000Y-59000000D02*
X161905000Y-65460000D01*
X161945000Y-59000000D02*
X161945000Y-65460000D01*
X161985000Y-59000000D02*
X161985000Y-65460000D01*
X162025000Y-59002000D02*
X162025000Y-65458000D01*
X162065000Y-59003000D02*
X162065000Y-65457000D01*
X162105000Y-59006000D02*
X162105000Y-65454000D01*
X162145000Y-59008000D02*
X162145000Y-61190000D01*
X162145000Y-63270000D02*
X162145000Y-65452000D01*
X162185000Y-59012000D02*
X162185000Y-61190000D01*
X162185000Y-63270000D02*
X162185000Y-65448000D01*
X162225000Y-59015000D02*
X162225000Y-61190000D01*
X162225000Y-63270000D02*
X162225000Y-65445000D01*
X162265000Y-59019000D02*
X162265000Y-61190000D01*
X162265000Y-63270000D02*
X162265000Y-65441000D01*
X162305000Y-59024000D02*
X162305000Y-61190000D01*
X162305000Y-63270000D02*
X162305000Y-65436000D01*
X162345000Y-59029000D02*
X162345000Y-61190000D01*
X162345000Y-63270000D02*
X162345000Y-65431000D01*
X162385000Y-59035000D02*
X162385000Y-61190000D01*
X162385000Y-63270000D02*
X162385000Y-65425000D01*
X162425000Y-59041000D02*
X162425000Y-61190000D01*
X162425000Y-63270000D02*
X162425000Y-65419000D01*
X162465000Y-59048000D02*
X162465000Y-61190000D01*
X162465000Y-63270000D02*
X162465000Y-65412000D01*
X162505000Y-59055000D02*
X162505000Y-61190000D01*
X162505000Y-63270000D02*
X162505000Y-65405000D01*
X162545000Y-59063000D02*
X162545000Y-61190000D01*
X162545000Y-63270000D02*
X162545000Y-65397000D01*
X162585000Y-59071000D02*
X162585000Y-61190000D01*
X162585000Y-63270000D02*
X162585000Y-65389000D01*
X162626000Y-59080000D02*
X162626000Y-61190000D01*
X162626000Y-63270000D02*
X162626000Y-65380000D01*
X162666000Y-59089000D02*
X162666000Y-61190000D01*
X162666000Y-63270000D02*
X162666000Y-65371000D01*
X162706000Y-59099000D02*
X162706000Y-61190000D01*
X162706000Y-63270000D02*
X162706000Y-65361000D01*
X162746000Y-59109000D02*
X162746000Y-61190000D01*
X162746000Y-63270000D02*
X162746000Y-65351000D01*
X162786000Y-59120000D02*
X162786000Y-61190000D01*
X162786000Y-63270000D02*
X162786000Y-65340000D01*
X162826000Y-59132000D02*
X162826000Y-61190000D01*
X162826000Y-63270000D02*
X162826000Y-65328000D01*
X162866000Y-59144000D02*
X162866000Y-61190000D01*
X162866000Y-63270000D02*
X162866000Y-65316000D01*
X162906000Y-59156000D02*
X162906000Y-61190000D01*
X162906000Y-63270000D02*
X162906000Y-65304000D01*
X162946000Y-59169000D02*
X162946000Y-61190000D01*
X162946000Y-63270000D02*
X162946000Y-65291000D01*
X162986000Y-59183000D02*
X162986000Y-61190000D01*
X162986000Y-63270000D02*
X162986000Y-65277000D01*
X163026000Y-59197000D02*
X163026000Y-61190000D01*
X163026000Y-63270000D02*
X163026000Y-65263000D01*
X163066000Y-59212000D02*
X163066000Y-61190000D01*
X163066000Y-63270000D02*
X163066000Y-65248000D01*
X163106000Y-59228000D02*
X163106000Y-61190000D01*
X163106000Y-63270000D02*
X163106000Y-65232000D01*
X163146000Y-59244000D02*
X163146000Y-61190000D01*
X163146000Y-63270000D02*
X163146000Y-65216000D01*
X163186000Y-59260000D02*
X163186000Y-61190000D01*
X163186000Y-63270000D02*
X163186000Y-65200000D01*
X163226000Y-59278000D02*
X163226000Y-61190000D01*
X163226000Y-63270000D02*
X163226000Y-65182000D01*
X163266000Y-59296000D02*
X163266000Y-61190000D01*
X163266000Y-63270000D02*
X163266000Y-65164000D01*
X163306000Y-59314000D02*
X163306000Y-61190000D01*
X163306000Y-63270000D02*
X163306000Y-65146000D01*
X163346000Y-59334000D02*
X163346000Y-61190000D01*
X163346000Y-63270000D02*
X163346000Y-65126000D01*
X163386000Y-59354000D02*
X163386000Y-61190000D01*
X163386000Y-63270000D02*
X163386000Y-65106000D01*
X163426000Y-59374000D02*
X163426000Y-61190000D01*
X163426000Y-63270000D02*
X163426000Y-65086000D01*
X163466000Y-59396000D02*
X163466000Y-61190000D01*
X163466000Y-63270000D02*
X163466000Y-65064000D01*
X163506000Y-59418000D02*
X163506000Y-61190000D01*
X163506000Y-63270000D02*
X163506000Y-65042000D01*
X163546000Y-59440000D02*
X163546000Y-61190000D01*
X163546000Y-63270000D02*
X163546000Y-65020000D01*
X163586000Y-59464000D02*
X163586000Y-61190000D01*
X163586000Y-63270000D02*
X163586000Y-64996000D01*
X163626000Y-59488000D02*
X163626000Y-61190000D01*
X163626000Y-63270000D02*
X163626000Y-64972000D01*
X163666000Y-59514000D02*
X163666000Y-61190000D01*
X163666000Y-63270000D02*
X163666000Y-64946000D01*
X163706000Y-59540000D02*
X163706000Y-61190000D01*
X163706000Y-63270000D02*
X163706000Y-64920000D01*
X163746000Y-59566000D02*
X163746000Y-61190000D01*
X163746000Y-63270000D02*
X163746000Y-64894000D01*
X163786000Y-59594000D02*
X163786000Y-61190000D01*
X163786000Y-63270000D02*
X163786000Y-64866000D01*
X163826000Y-59623000D02*
X163826000Y-61190000D01*
X163826000Y-63270000D02*
X163826000Y-64837000D01*
X163866000Y-59652000D02*
X163866000Y-61190000D01*
X163866000Y-63270000D02*
X163866000Y-64808000D01*
X163906000Y-59682000D02*
X163906000Y-61190000D01*
X163906000Y-63270000D02*
X163906000Y-64778000D01*
X163946000Y-59714000D02*
X163946000Y-61190000D01*
X163946000Y-63270000D02*
X163946000Y-64746000D01*
X163986000Y-59746000D02*
X163986000Y-61190000D01*
X163986000Y-63270000D02*
X163986000Y-64714000D01*
X164026000Y-59780000D02*
X164026000Y-61190000D01*
X164026000Y-63270000D02*
X164026000Y-64680000D01*
X164066000Y-59814000D02*
X164066000Y-61190000D01*
X164066000Y-63270000D02*
X164066000Y-64646000D01*
X164106000Y-59850000D02*
X164106000Y-61190000D01*
X164106000Y-63270000D02*
X164106000Y-64610000D01*
X164146000Y-59887000D02*
X164146000Y-61190000D01*
X164146000Y-63270000D02*
X164146000Y-64573000D01*
X164186000Y-59925000D02*
X164186000Y-61190000D01*
X164186000Y-63270000D02*
X164186000Y-64535000D01*
X164226000Y-59965000D02*
X164226000Y-64495000D01*
X164266000Y-60006000D02*
X164266000Y-64454000D01*
X164306000Y-60048000D02*
X164306000Y-64412000D01*
X164346000Y-60093000D02*
X164346000Y-64367000D01*
X164386000Y-60138000D02*
X164386000Y-64322000D01*
X164426000Y-60186000D02*
X164426000Y-64274000D01*
X164466000Y-60235000D02*
X164466000Y-64225000D01*
X164506000Y-60286000D02*
X164506000Y-64174000D01*
X164546000Y-60340000D02*
X164546000Y-64120000D01*
X164586000Y-60396000D02*
X164586000Y-64064000D01*
X164626000Y-60454000D02*
X164626000Y-64006000D01*
X164666000Y-60516000D02*
X164666000Y-63944000D01*
X164706000Y-60580000D02*
X164706000Y-63880000D01*
X164746000Y-60649000D02*
X164746000Y-63811000D01*
X164786000Y-60721000D02*
X164786000Y-63739000D01*
X164826000Y-60798000D02*
X164826000Y-63662000D01*
X164866000Y-60880000D02*
X164866000Y-63580000D01*
X164906000Y-60968000D02*
X164906000Y-63492000D01*
X164946000Y-61065000D02*
X164946000Y-63395000D01*
X164986000Y-61171000D02*
X164986000Y-63289000D01*
X165026000Y-61290000D02*
X165026000Y-63170000D01*
X165066000Y-61428000D02*
X165066000Y-63032000D01*
X165106000Y-61597000D02*
X165106000Y-62863000D01*
X165146000Y-61828000D02*
X165146000Y-62632000D01*
X158404759Y-60391000D02*
X159034759Y-60391000D01*
X158719759Y-60076000D02*
X158719759Y-60706000D01*
X189068000Y-83366000D02*
X189068000Y-86306000D01*
X189308000Y-83366000D02*
X189308000Y-86306000D01*
X189188000Y-83366000D02*
X189188000Y-86306000D01*
X194748000Y-84836000D02*
X193728000Y-84836000D01*
X187268000Y-84836000D02*
X188288000Y-84836000D01*
X193728000Y-83366000D02*
X188288000Y-83366000D01*
X193728000Y-86306000D02*
X193728000Y-83366000D01*
X188288000Y-86306000D02*
X193728000Y-86306000D01*
X188288000Y-83366000D02*
X188288000Y-86306000D01*
X179504000Y-86306000D02*
X179504000Y-83366000D01*
X179504000Y-83366000D02*
X174064000Y-83366000D01*
X174064000Y-83366000D02*
X174064000Y-86306000D01*
X174064000Y-86306000D02*
X179504000Y-86306000D01*
X180524000Y-84836000D02*
X179504000Y-84836000D01*
X173044000Y-84836000D02*
X174064000Y-84836000D01*
X178604000Y-86306000D02*
X178604000Y-83366000D01*
X178484000Y-86306000D02*
X178484000Y-83366000D01*
X178724000Y-86306000D02*
X178724000Y-83366000D01*
X168760000Y-102274000D02*
X166520000Y-102274000D01*
X166520000Y-102274000D02*
X166520000Y-106514000D01*
X166520000Y-106514000D02*
X168760000Y-106514000D01*
X168760000Y-106514000D02*
X168760000Y-102274000D01*
X167640000Y-101624000D02*
X167640000Y-102274000D01*
X167640000Y-107164000D02*
X167640000Y-106514000D01*
X168760000Y-102994000D02*
X166520000Y-102994000D01*
X168760000Y-103114000D02*
X166520000Y-103114000D01*
X168760000Y-102874000D02*
X166520000Y-102874000D01*
X165458000Y-102874000D02*
X163218000Y-102874000D01*
X165458000Y-103114000D02*
X163218000Y-103114000D01*
X165458000Y-102994000D02*
X163218000Y-102994000D01*
X164338000Y-107164000D02*
X164338000Y-106514000D01*
X164338000Y-101624000D02*
X164338000Y-102274000D01*
X165458000Y-106514000D02*
X165458000Y-102274000D01*
X163218000Y-106514000D02*
X165458000Y-106514000D01*
X163218000Y-102274000D02*
X163218000Y-106514000D01*
X165458000Y-102274000D02*
X163218000Y-102274000D01*
X125155000Y-55185000D02*
X125155000Y-56515000D01*
X123825000Y-55185000D02*
X125155000Y-55185000D01*
X122555000Y-55185000D02*
X122555000Y-57845000D01*
X122555000Y-57845000D02*
X112335000Y-57845000D01*
X122555000Y-55185000D02*
X112335000Y-55185000D01*
X112335000Y-55185000D02*
X112335000Y-57845000D01*
X165705000Y-61523333D02*
X165705000Y-65189999D01*
X166065000Y-61523333D02*
X165705000Y-61523333D01*
X166065000Y-57856667D02*
X166065000Y-61523333D01*
X165705000Y-57856667D02*
X166065000Y-57856667D01*
X165705000Y-54190000D02*
X165705000Y-57856667D01*
X193705000Y-54190001D02*
X165705000Y-54190000D01*
X193705000Y-65190000D02*
X193705000Y-54190001D01*
X165705000Y-65189999D02*
X193705000Y-65190000D01*
X115475000Y-97055000D02*
X115475000Y-97385000D01*
X122015000Y-97055000D02*
X115475000Y-97055000D01*
X122015000Y-97385000D02*
X122015000Y-97055000D01*
X115475000Y-99795000D02*
X115475000Y-99465000D01*
X122015000Y-99795000D02*
X115475000Y-99795000D01*
X122015000Y-99465000D02*
X122015000Y-99795000D01*
X105640000Y-129635000D02*
X105310000Y-129635000D01*
X105310000Y-129635000D02*
X105310000Y-123095000D01*
X105310000Y-123095000D02*
X105640000Y-123095000D01*
X107720000Y-129635000D02*
X108050000Y-129635000D01*
X108050000Y-129635000D02*
X108050000Y-123095000D01*
X108050000Y-123095000D02*
X107720000Y-123095000D01*
X165154000Y-71850000D02*
X165154000Y-70340000D01*
X168855000Y-71850000D02*
X168855000Y-70340000D01*
X172125000Y-70340000D02*
X161885000Y-70340000D01*
X161885000Y-71850000D02*
X161885000Y-67209000D01*
X172125000Y-71850000D02*
X172125000Y-67209000D01*
X172125000Y-67209000D02*
X161885000Y-67209000D01*
X172125000Y-71850000D02*
X161885000Y-71850000D01*
X129600000Y-115570000D02*
X129600000Y-116900000D01*
X129600000Y-116900000D02*
X128270000Y-116900000D01*
X127000000Y-116900000D02*
X114240000Y-116900000D01*
X114240000Y-114240000D02*
X114240000Y-116900000D01*
X127000000Y-114240000D02*
X114240000Y-114240000D01*
X127000000Y-114240000D02*
X127000000Y-116900000D01*
X143530000Y-58060000D02*
X143530000Y-54970000D01*
X143470000Y-56515000D02*
G75*
G03*
X143470000Y-56515000I-2500000J0D01*
G01*
X137980000Y-56514538D02*
G75*
G03*
X143530000Y-58059830I2990000J-462D01*
G01*
X137980000Y-56515462D02*
G75*
G02*
X143530000Y-54970170I2990000J462D01*
G01*
X181816667Y-67080000D02*
X177150000Y-67080000D01*
X181816667Y-67440000D02*
X181816667Y-67080000D01*
X186483333Y-67440001D02*
X181816667Y-67440000D01*
X186483333Y-67080001D02*
X186483333Y-67440001D01*
X191150000Y-67080001D02*
X186483333Y-67080001D01*
X191150000Y-70080000D02*
X191150000Y-67080001D01*
X177150000Y-70079999D02*
X191150000Y-70080000D01*
X177150000Y-67080000D02*
X177150000Y-70079999D01*
D16*
X133773333Y-135769047D02*
X133773333Y-137583333D01*
X133652380Y-137946190D01*
X133410476Y-138188095D01*
X133047619Y-138309047D01*
X132805714Y-138309047D01*
X134861904Y-136010952D02*
X134982857Y-135890000D01*
X135224761Y-135769047D01*
X135829523Y-135769047D01*
X136071428Y-135890000D01*
X136192380Y-136010952D01*
X136313333Y-136252857D01*
X136313333Y-136494761D01*
X136192380Y-136857619D01*
X134740952Y-138309047D01*
X136313333Y-138309047D01*
D11*
X117137380Y-106806904D02*
X117946904Y-106806904D01*
X118042142Y-106759285D01*
X118089761Y-106711666D01*
X118137380Y-106616428D01*
X118137380Y-106425952D01*
X118089761Y-106330714D01*
X118042142Y-106283095D01*
X117946904Y-106235476D01*
X117137380Y-106235476D01*
X117232619Y-105806904D02*
X117185000Y-105759285D01*
X117137380Y-105664047D01*
X117137380Y-105425952D01*
X117185000Y-105330714D01*
X117232619Y-105283095D01*
X117327857Y-105235476D01*
X117423095Y-105235476D01*
X117565952Y-105283095D01*
X118137380Y-105854523D01*
X118137380Y-105235476D01*
D12*
X154698095Y-106256666D02*
X155302857Y-106256666D01*
X154577142Y-106619523D02*
X155000476Y-105349523D01*
X155423809Y-106619523D01*
X155665714Y-105349523D02*
X156391428Y-105349523D01*
X156028571Y-106619523D02*
X156028571Y-105349523D01*
X156814761Y-106619523D02*
X156814761Y-105772857D01*
X156814761Y-105893809D02*
X156875238Y-105833333D01*
X156996190Y-105772857D01*
X157177619Y-105772857D01*
X157298571Y-105833333D01*
X157359047Y-105954285D01*
X157359047Y-106619523D01*
X157359047Y-105954285D02*
X157419523Y-105833333D01*
X157540476Y-105772857D01*
X157721904Y-105772857D01*
X157842857Y-105833333D01*
X157903333Y-105954285D01*
X157903333Y-106619523D01*
X158991904Y-106559047D02*
X158870952Y-106619523D01*
X158629047Y-106619523D01*
X158508095Y-106559047D01*
X158447619Y-106438095D01*
X158447619Y-105954285D01*
X158508095Y-105833333D01*
X158629047Y-105772857D01*
X158870952Y-105772857D01*
X158991904Y-105833333D01*
X159052380Y-105954285D01*
X159052380Y-106075238D01*
X158447619Y-106196190D01*
X160140952Y-105772857D02*
X160140952Y-106800952D01*
X160080476Y-106921904D01*
X160020000Y-106982380D01*
X159899047Y-107042857D01*
X159717619Y-107042857D01*
X159596666Y-106982380D01*
X160140952Y-106559047D02*
X160020000Y-106619523D01*
X159778095Y-106619523D01*
X159657142Y-106559047D01*
X159596666Y-106498571D01*
X159536190Y-106377619D01*
X159536190Y-106014761D01*
X159596666Y-105893809D01*
X159657142Y-105833333D01*
X159778095Y-105772857D01*
X160020000Y-105772857D01*
X160140952Y-105833333D01*
X161290000Y-106619523D02*
X161290000Y-105954285D01*
X161229523Y-105833333D01*
X161108571Y-105772857D01*
X160866666Y-105772857D01*
X160745714Y-105833333D01*
X161290000Y-106559047D02*
X161169047Y-106619523D01*
X160866666Y-106619523D01*
X160745714Y-106559047D01*
X160685238Y-106438095D01*
X160685238Y-106317142D01*
X160745714Y-106196190D01*
X160866666Y-106135714D01*
X161169047Y-106135714D01*
X161290000Y-106075238D01*
X161773809Y-105349523D02*
X162560000Y-105349523D01*
X162136666Y-105833333D01*
X162318095Y-105833333D01*
X162439047Y-105893809D01*
X162499523Y-105954285D01*
X162560000Y-106075238D01*
X162560000Y-106377619D01*
X162499523Y-106498571D01*
X162439047Y-106559047D01*
X162318095Y-106619523D01*
X161955238Y-106619523D01*
X161834285Y-106559047D01*
X161773809Y-106498571D01*
X163043809Y-105470476D02*
X163104285Y-105410000D01*
X163225238Y-105349523D01*
X163527619Y-105349523D01*
X163648571Y-105410000D01*
X163709047Y-105470476D01*
X163769523Y-105591428D01*
X163769523Y-105712380D01*
X163709047Y-105893809D01*
X162983333Y-106619523D01*
X163769523Y-106619523D01*
X164495238Y-105893809D02*
X164374285Y-105833333D01*
X164313809Y-105772857D01*
X164253333Y-105651904D01*
X164253333Y-105591428D01*
X164313809Y-105470476D01*
X164374285Y-105410000D01*
X164495238Y-105349523D01*
X164737142Y-105349523D01*
X164858095Y-105410000D01*
X164918571Y-105470476D01*
X164979047Y-105591428D01*
X164979047Y-105651904D01*
X164918571Y-105772857D01*
X164858095Y-105833333D01*
X164737142Y-105893809D01*
X164495238Y-105893809D01*
X164374285Y-105954285D01*
X164313809Y-106014761D01*
X164253333Y-106135714D01*
X164253333Y-106377619D01*
X164313809Y-106498571D01*
X164374285Y-106559047D01*
X164495238Y-106619523D01*
X164737142Y-106619523D01*
X164858095Y-106559047D01*
X164918571Y-106498571D01*
X164979047Y-106377619D01*
X164979047Y-106135714D01*
X164918571Y-106014761D01*
X164858095Y-105954285D01*
X164737142Y-105893809D01*
X165523333Y-106135714D02*
X166490952Y-106135714D01*
X167095714Y-106619523D02*
X167095714Y-105349523D01*
X167579523Y-105349523D01*
X167700476Y-105410000D01*
X167760952Y-105470476D01*
X167821428Y-105591428D01*
X167821428Y-105772857D01*
X167760952Y-105893809D01*
X167700476Y-105954285D01*
X167579523Y-106014761D01*
X167095714Y-106014761D01*
X168365714Y-105349523D02*
X168365714Y-106377619D01*
X168426190Y-106498571D01*
X168486666Y-106559047D01*
X168607619Y-106619523D01*
X168849523Y-106619523D01*
X168970476Y-106559047D01*
X169030952Y-106498571D01*
X169091428Y-106377619D01*
X169091428Y-105349523D01*
D11*
X151074523Y-84272380D02*
X150741190Y-83796190D01*
X150503095Y-84272380D02*
X150503095Y-83272380D01*
X150884047Y-83272380D01*
X150979285Y-83320000D01*
X151026904Y-83367619D01*
X151074523Y-83462857D01*
X151074523Y-83605714D01*
X151026904Y-83700952D01*
X150979285Y-83748571D01*
X150884047Y-83796190D01*
X150503095Y-83796190D01*
X151503095Y-84272380D02*
X151503095Y-83272380D01*
X152074523Y-84272380D01*
X152074523Y-83272380D01*
X153026904Y-83272380D02*
X152550714Y-83272380D01*
X152503095Y-83748571D01*
X152550714Y-83700952D01*
X152645952Y-83653333D01*
X152884047Y-83653333D01*
X152979285Y-83700952D01*
X153026904Y-83748571D01*
X153074523Y-83843809D01*
X153074523Y-84081904D01*
X153026904Y-84177142D01*
X152979285Y-84224761D01*
X152884047Y-84272380D01*
X152645952Y-84272380D01*
X152550714Y-84224761D01*
X152503095Y-84177142D01*
X138374523Y-89352380D02*
X138041190Y-88876190D01*
X137803095Y-89352380D02*
X137803095Y-88352380D01*
X138184047Y-88352380D01*
X138279285Y-88400000D01*
X138326904Y-88447619D01*
X138374523Y-88542857D01*
X138374523Y-88685714D01*
X138326904Y-88780952D01*
X138279285Y-88828571D01*
X138184047Y-88876190D01*
X137803095Y-88876190D01*
X138803095Y-89352380D02*
X138803095Y-88352380D01*
X139374523Y-89352380D01*
X139374523Y-88352380D01*
X140279285Y-88685714D02*
X140279285Y-89352380D01*
X140041190Y-88304761D02*
X139803095Y-89019047D01*
X140422142Y-89019047D01*
X117507142Y-122237142D02*
X117459523Y-122284761D01*
X117316666Y-122332380D01*
X117221428Y-122332380D01*
X117078571Y-122284761D01*
X116983333Y-122189523D01*
X116935714Y-122094285D01*
X116888095Y-121903809D01*
X116888095Y-121760952D01*
X116935714Y-121570476D01*
X116983333Y-121475238D01*
X117078571Y-121380000D01*
X117221428Y-121332380D01*
X117316666Y-121332380D01*
X117459523Y-121380000D01*
X117507142Y-121427619D01*
X118459523Y-122332380D02*
X117888095Y-122332380D01*
X118173809Y-122332380D02*
X118173809Y-121332380D01*
X118078571Y-121475238D01*
X117983333Y-121570476D01*
X117888095Y-121618095D01*
X118935714Y-122332380D02*
X119126190Y-122332380D01*
X119221428Y-122284761D01*
X119269047Y-122237142D01*
X119364285Y-122094285D01*
X119411904Y-121903809D01*
X119411904Y-121522857D01*
X119364285Y-121427619D01*
X119316666Y-121380000D01*
X119221428Y-121332380D01*
X119030952Y-121332380D01*
X118935714Y-121380000D01*
X118888095Y-121427619D01*
X118840476Y-121522857D01*
X118840476Y-121760952D01*
X118888095Y-121856190D01*
X118935714Y-121903809D01*
X119030952Y-121951428D01*
X119221428Y-121951428D01*
X119316666Y-121903809D01*
X119364285Y-121856190D01*
X119411904Y-121760952D01*
X108307142Y-83172857D02*
X108354761Y-83220476D01*
X108402380Y-83363333D01*
X108402380Y-83458571D01*
X108354761Y-83601428D01*
X108259523Y-83696666D01*
X108164285Y-83744285D01*
X107973809Y-83791904D01*
X107830952Y-83791904D01*
X107640476Y-83744285D01*
X107545238Y-83696666D01*
X107450000Y-83601428D01*
X107402380Y-83458571D01*
X107402380Y-83363333D01*
X107450000Y-83220476D01*
X107497619Y-83172857D01*
X108402380Y-82220476D02*
X108402380Y-82791904D01*
X108402380Y-82506190D02*
X107402380Y-82506190D01*
X107545238Y-82601428D01*
X107640476Y-82696666D01*
X107688095Y-82791904D01*
X107402380Y-81315714D02*
X107402380Y-81791904D01*
X107878571Y-81839523D01*
X107830952Y-81791904D01*
X107783333Y-81696666D01*
X107783333Y-81458571D01*
X107830952Y-81363333D01*
X107878571Y-81315714D01*
X107973809Y-81268095D01*
X108211904Y-81268095D01*
X108307142Y-81315714D01*
X108354761Y-81363333D01*
X108402380Y-81458571D01*
X108402380Y-81696666D01*
X108354761Y-81791904D01*
X108307142Y-81839523D01*
X133322142Y-91837142D02*
X133274523Y-91884761D01*
X133131666Y-91932380D01*
X133036428Y-91932380D01*
X132893571Y-91884761D01*
X132798333Y-91789523D01*
X132750714Y-91694285D01*
X132703095Y-91503809D01*
X132703095Y-91360952D01*
X132750714Y-91170476D01*
X132798333Y-91075238D01*
X132893571Y-90980000D01*
X133036428Y-90932380D01*
X133131666Y-90932380D01*
X133274523Y-90980000D01*
X133322142Y-91027619D01*
X134274523Y-91932380D02*
X133703095Y-91932380D01*
X133988809Y-91932380D02*
X133988809Y-90932380D01*
X133893571Y-91075238D01*
X133798333Y-91170476D01*
X133703095Y-91218095D01*
X135131666Y-91265714D02*
X135131666Y-91932380D01*
X134893571Y-90884761D02*
X134655476Y-91599047D01*
X135274523Y-91599047D01*
X100977142Y-64492142D02*
X100929523Y-64539761D01*
X100786666Y-64587380D01*
X100691428Y-64587380D01*
X100548571Y-64539761D01*
X100453333Y-64444523D01*
X100405714Y-64349285D01*
X100358095Y-64158809D01*
X100358095Y-64015952D01*
X100405714Y-63825476D01*
X100453333Y-63730238D01*
X100548571Y-63635000D01*
X100691428Y-63587380D01*
X100786666Y-63587380D01*
X100929523Y-63635000D01*
X100977142Y-63682619D01*
X101929523Y-64587380D02*
X101358095Y-64587380D01*
X101643809Y-64587380D02*
X101643809Y-63587380D01*
X101548571Y-63730238D01*
X101453333Y-63825476D01*
X101358095Y-63873095D01*
X102786666Y-63587380D02*
X102596190Y-63587380D01*
X102500952Y-63635000D01*
X102453333Y-63682619D01*
X102358095Y-63825476D01*
X102310476Y-64015952D01*
X102310476Y-64396904D01*
X102358095Y-64492142D01*
X102405714Y-64539761D01*
X102500952Y-64587380D01*
X102691428Y-64587380D01*
X102786666Y-64539761D01*
X102834285Y-64492142D01*
X102881904Y-64396904D01*
X102881904Y-64158809D01*
X102834285Y-64063571D01*
X102786666Y-64015952D01*
X102691428Y-63968333D01*
X102500952Y-63968333D01*
X102405714Y-64015952D01*
X102358095Y-64063571D01*
X102310476Y-64158809D01*
X131417142Y-55007142D02*
X131369523Y-55054761D01*
X131226666Y-55102380D01*
X131131428Y-55102380D01*
X130988571Y-55054761D01*
X130893333Y-54959523D01*
X130845714Y-54864285D01*
X130798095Y-54673809D01*
X130798095Y-54530952D01*
X130845714Y-54340476D01*
X130893333Y-54245238D01*
X130988571Y-54150000D01*
X131131428Y-54102380D01*
X131226666Y-54102380D01*
X131369523Y-54150000D01*
X131417142Y-54197619D01*
X132369523Y-55102380D02*
X131798095Y-55102380D01*
X132083809Y-55102380D02*
X132083809Y-54102380D01*
X131988571Y-54245238D01*
X131893333Y-54340476D01*
X131798095Y-54388095D01*
X132940952Y-54530952D02*
X132845714Y-54483333D01*
X132798095Y-54435714D01*
X132750476Y-54340476D01*
X132750476Y-54292857D01*
X132798095Y-54197619D01*
X132845714Y-54150000D01*
X132940952Y-54102380D01*
X133131428Y-54102380D01*
X133226666Y-54150000D01*
X133274285Y-54197619D01*
X133321904Y-54292857D01*
X133321904Y-54340476D01*
X133274285Y-54435714D01*
X133226666Y-54483333D01*
X133131428Y-54530952D01*
X132940952Y-54530952D01*
X132845714Y-54578571D01*
X132798095Y-54626190D01*
X132750476Y-54721428D01*
X132750476Y-54911904D01*
X132798095Y-55007142D01*
X132845714Y-55054761D01*
X132940952Y-55102380D01*
X133131428Y-55102380D01*
X133226666Y-55054761D01*
X133274285Y-55007142D01*
X133321904Y-54911904D01*
X133321904Y-54721428D01*
X133274285Y-54626190D01*
X133226666Y-54578571D01*
X133131428Y-54530952D01*
X140962142Y-117832142D02*
X140914523Y-117879761D01*
X140771666Y-117927380D01*
X140676428Y-117927380D01*
X140533571Y-117879761D01*
X140438333Y-117784523D01*
X140390714Y-117689285D01*
X140343095Y-117498809D01*
X140343095Y-117355952D01*
X140390714Y-117165476D01*
X140438333Y-117070238D01*
X140533571Y-116975000D01*
X140676428Y-116927380D01*
X140771666Y-116927380D01*
X140914523Y-116975000D01*
X140962142Y-117022619D01*
X141914523Y-117927380D02*
X141343095Y-117927380D01*
X141628809Y-117927380D02*
X141628809Y-116927380D01*
X141533571Y-117070238D01*
X141438333Y-117165476D01*
X141343095Y-117213095D01*
X142247857Y-116927380D02*
X142866904Y-116927380D01*
X142533571Y-117308333D01*
X142676428Y-117308333D01*
X142771666Y-117355952D01*
X142819285Y-117403571D01*
X142866904Y-117498809D01*
X142866904Y-117736904D01*
X142819285Y-117832142D01*
X142771666Y-117879761D01*
X142676428Y-117927380D01*
X142390714Y-117927380D01*
X142295476Y-117879761D01*
X142247857Y-117832142D01*
X140057142Y-130182857D02*
X140104761Y-130230476D01*
X140152380Y-130373333D01*
X140152380Y-130468571D01*
X140104761Y-130611428D01*
X140009523Y-130706666D01*
X139914285Y-130754285D01*
X139723809Y-130801904D01*
X139580952Y-130801904D01*
X139390476Y-130754285D01*
X139295238Y-130706666D01*
X139200000Y-130611428D01*
X139152380Y-130468571D01*
X139152380Y-130373333D01*
X139200000Y-130230476D01*
X139247619Y-130182857D01*
X140152380Y-129230476D02*
X140152380Y-129801904D01*
X140152380Y-129516190D02*
X139152380Y-129516190D01*
X139295238Y-129611428D01*
X139390476Y-129706666D01*
X139438095Y-129801904D01*
X139152380Y-128897142D02*
X139152380Y-128230476D01*
X140152380Y-128659047D01*
X139077142Y-97512142D02*
X139029523Y-97559761D01*
X138886666Y-97607380D01*
X138791428Y-97607380D01*
X138648571Y-97559761D01*
X138553333Y-97464523D01*
X138505714Y-97369285D01*
X138458095Y-97178809D01*
X138458095Y-97035952D01*
X138505714Y-96845476D01*
X138553333Y-96750238D01*
X138648571Y-96655000D01*
X138791428Y-96607380D01*
X138886666Y-96607380D01*
X139029523Y-96655000D01*
X139077142Y-96702619D01*
X140029523Y-97607380D02*
X139458095Y-97607380D01*
X139743809Y-97607380D02*
X139743809Y-96607380D01*
X139648571Y-96750238D01*
X139553333Y-96845476D01*
X139458095Y-96893095D01*
X140410476Y-96702619D02*
X140458095Y-96655000D01*
X140553333Y-96607380D01*
X140791428Y-96607380D01*
X140886666Y-96655000D01*
X140934285Y-96702619D01*
X140981904Y-96797857D01*
X140981904Y-96893095D01*
X140934285Y-97035952D01*
X140362857Y-97607380D01*
X140981904Y-97607380D01*
X175982380Y-97488333D02*
X176696666Y-97488333D01*
X176839523Y-97535952D01*
X176934761Y-97631190D01*
X176982380Y-97774047D01*
X176982380Y-97869285D01*
X176982380Y-96964523D02*
X176982380Y-96774047D01*
X176934761Y-96678809D01*
X176887142Y-96631190D01*
X176744285Y-96535952D01*
X176553809Y-96488333D01*
X176172857Y-96488333D01*
X176077619Y-96535952D01*
X176030000Y-96583571D01*
X175982380Y-96678809D01*
X175982380Y-96869285D01*
X176030000Y-96964523D01*
X176077619Y-97012142D01*
X176172857Y-97059761D01*
X176410952Y-97059761D01*
X176506190Y-97012142D01*
X176553809Y-96964523D01*
X176601428Y-96869285D01*
X176601428Y-96678809D01*
X176553809Y-96583571D01*
X176506190Y-96535952D01*
X176410952Y-96488333D01*
X98242380Y-86097857D02*
X97242380Y-86097857D01*
X97718571Y-86097857D02*
X97718571Y-85526428D01*
X98242380Y-85526428D02*
X97242380Y-85526428D01*
X98194761Y-84669285D02*
X98242380Y-84764523D01*
X98242380Y-84955000D01*
X98194761Y-85050238D01*
X98099523Y-85097857D01*
X97718571Y-85097857D01*
X97623333Y-85050238D01*
X97575714Y-84955000D01*
X97575714Y-84764523D01*
X97623333Y-84669285D01*
X97718571Y-84621666D01*
X97813809Y-84621666D01*
X97909047Y-85097857D01*
X98242380Y-84050238D02*
X98194761Y-84145476D01*
X98099523Y-84193095D01*
X97242380Y-84193095D01*
X98242380Y-83669285D02*
X97575714Y-83669285D01*
X97670952Y-83669285D02*
X97623333Y-83621666D01*
X97575714Y-83526428D01*
X97575714Y-83383571D01*
X97623333Y-83288333D01*
X97718571Y-83240714D01*
X98242380Y-83240714D01*
X97718571Y-83240714D02*
X97623333Y-83193095D01*
X97575714Y-83097857D01*
X97575714Y-82955000D01*
X97623333Y-82859761D01*
X97718571Y-82812142D01*
X98242380Y-82812142D01*
X110156666Y-90027380D02*
X110156666Y-90741666D01*
X110109047Y-90884523D01*
X110013809Y-90979761D01*
X109870952Y-91027380D01*
X109775714Y-91027380D01*
X110537619Y-90027380D02*
X111204285Y-90027380D01*
X110775714Y-91027380D01*
X140803333Y-123007380D02*
X140470000Y-122531190D01*
X140231904Y-123007380D02*
X140231904Y-122007380D01*
X140612857Y-122007380D01*
X140708095Y-122055000D01*
X140755714Y-122102619D01*
X140803333Y-122197857D01*
X140803333Y-122340714D01*
X140755714Y-122435952D01*
X140708095Y-122483571D01*
X140612857Y-122531190D01*
X140231904Y-122531190D01*
X141660476Y-122007380D02*
X141470000Y-122007380D01*
X141374761Y-122055000D01*
X141327142Y-122102619D01*
X141231904Y-122245476D01*
X141184285Y-122435952D01*
X141184285Y-122816904D01*
X141231904Y-122912142D01*
X141279523Y-122959761D01*
X141374761Y-123007380D01*
X141565238Y-123007380D01*
X141660476Y-122959761D01*
X141708095Y-122912142D01*
X141755714Y-122816904D01*
X141755714Y-122578809D01*
X141708095Y-122483571D01*
X141660476Y-122435952D01*
X141565238Y-122388333D01*
X141374761Y-122388333D01*
X141279523Y-122435952D01*
X141231904Y-122483571D01*
X141184285Y-122578809D01*
X147145476Y-59987380D02*
X147145476Y-60701666D01*
X147097857Y-60844523D01*
X147002619Y-60939761D01*
X146859761Y-60987380D01*
X146764523Y-60987380D01*
X148145476Y-60987380D02*
X147574047Y-60987380D01*
X147859761Y-60987380D02*
X147859761Y-59987380D01*
X147764523Y-60130238D01*
X147669285Y-60225476D01*
X147574047Y-60273095D01*
X149097857Y-60987380D02*
X148526428Y-60987380D01*
X148812142Y-60987380D02*
X148812142Y-59987380D01*
X148716904Y-60130238D01*
X148621666Y-60225476D01*
X148526428Y-60273095D01*
X126825476Y-62317380D02*
X126825476Y-63031666D01*
X126777857Y-63174523D01*
X126682619Y-63269761D01*
X126539761Y-63317380D01*
X126444523Y-63317380D01*
X127825476Y-63317380D02*
X127254047Y-63317380D01*
X127539761Y-63317380D02*
X127539761Y-62317380D01*
X127444523Y-62460238D01*
X127349285Y-62555476D01*
X127254047Y-62603095D01*
X128444523Y-62317380D02*
X128539761Y-62317380D01*
X128635000Y-62365000D01*
X128682619Y-62412619D01*
X128730238Y-62507857D01*
X128777857Y-62698333D01*
X128777857Y-62936428D01*
X128730238Y-63126904D01*
X128682619Y-63222142D01*
X128635000Y-63269761D01*
X128539761Y-63317380D01*
X128444523Y-63317380D01*
X128349285Y-63269761D01*
X128301666Y-63222142D01*
X128254047Y-63126904D01*
X128206428Y-62936428D01*
X128206428Y-62698333D01*
X128254047Y-62507857D01*
X128301666Y-62412619D01*
X128349285Y-62365000D01*
X128444523Y-62317380D01*
X123698095Y-64857380D02*
X123698095Y-65666904D01*
X123745714Y-65762142D01*
X123793333Y-65809761D01*
X123888571Y-65857380D01*
X124079047Y-65857380D01*
X124174285Y-65809761D01*
X124221904Y-65762142D01*
X124269523Y-65666904D01*
X124269523Y-64857380D01*
X125221904Y-64857380D02*
X124745714Y-64857380D01*
X124698095Y-65333571D01*
X124745714Y-65285952D01*
X124840952Y-65238333D01*
X125079047Y-65238333D01*
X125174285Y-65285952D01*
X125221904Y-65333571D01*
X125269523Y-65428809D01*
X125269523Y-65666904D01*
X125221904Y-65762142D01*
X125174285Y-65809761D01*
X125079047Y-65857380D01*
X124840952Y-65857380D01*
X124745714Y-65809761D01*
X124698095Y-65762142D01*
X117325238Y-74382380D02*
X117563333Y-75382380D01*
X117753809Y-74668095D01*
X117944285Y-75382380D01*
X118182380Y-74382380D01*
X118563333Y-75382380D02*
X118563333Y-74715714D01*
X118563333Y-74382380D02*
X118515714Y-74430000D01*
X118563333Y-74477619D01*
X118610952Y-74430000D01*
X118563333Y-74382380D01*
X118563333Y-74477619D01*
X119039523Y-74715714D02*
X119039523Y-75382380D01*
X119039523Y-74810952D02*
X119087142Y-74763333D01*
X119182380Y-74715714D01*
X119325238Y-74715714D01*
X119420476Y-74763333D01*
X119468095Y-74858571D01*
X119468095Y-75382380D01*
X120372857Y-75334761D02*
X120277619Y-75382380D01*
X120087142Y-75382380D01*
X119991904Y-75334761D01*
X119944285Y-75287142D01*
X119896666Y-75191904D01*
X119896666Y-74906190D01*
X119944285Y-74810952D01*
X119991904Y-74763333D01*
X120087142Y-74715714D01*
X120277619Y-74715714D01*
X120372857Y-74763333D01*
X120801428Y-75382380D02*
X120801428Y-74382380D01*
X121230000Y-75382380D02*
X121230000Y-74858571D01*
X121182380Y-74763333D01*
X121087142Y-74715714D01*
X120944285Y-74715714D01*
X120849047Y-74763333D01*
X120801428Y-74810952D01*
X122468095Y-74715714D02*
X122468095Y-75715714D01*
X122468095Y-74763333D02*
X122563333Y-74715714D01*
X122753809Y-74715714D01*
X122849047Y-74763333D01*
X122896666Y-74810952D01*
X122944285Y-74906190D01*
X122944285Y-75191904D01*
X122896666Y-75287142D01*
X122849047Y-75334761D01*
X122753809Y-75382380D01*
X122563333Y-75382380D01*
X122468095Y-75334761D01*
X123372857Y-75382380D02*
X123372857Y-74715714D01*
X123372857Y-74906190D02*
X123420476Y-74810952D01*
X123468095Y-74763333D01*
X123563333Y-74715714D01*
X123658571Y-74715714D01*
X124372857Y-75334761D02*
X124277619Y-75382380D01*
X124087142Y-75382380D01*
X123991904Y-75334761D01*
X123944285Y-75239523D01*
X123944285Y-74858571D01*
X123991904Y-74763333D01*
X124087142Y-74715714D01*
X124277619Y-74715714D01*
X124372857Y-74763333D01*
X124420476Y-74858571D01*
X124420476Y-74953809D01*
X123944285Y-75049047D01*
X124801428Y-75334761D02*
X124896666Y-75382380D01*
X125087142Y-75382380D01*
X125182380Y-75334761D01*
X125230000Y-75239523D01*
X125230000Y-75191904D01*
X125182380Y-75096666D01*
X125087142Y-75049047D01*
X124944285Y-75049047D01*
X124849047Y-75001428D01*
X124801428Y-74906190D01*
X124801428Y-74858571D01*
X124849047Y-74763333D01*
X124944285Y-74715714D01*
X125087142Y-74715714D01*
X125182380Y-74763333D01*
X125610952Y-75334761D02*
X125706190Y-75382380D01*
X125896666Y-75382380D01*
X125991904Y-75334761D01*
X126039523Y-75239523D01*
X126039523Y-75191904D01*
X125991904Y-75096666D01*
X125896666Y-75049047D01*
X125753809Y-75049047D01*
X125658571Y-75001428D01*
X125610952Y-74906190D01*
X125610952Y-74858571D01*
X125658571Y-74763333D01*
X125753809Y-74715714D01*
X125896666Y-74715714D01*
X125991904Y-74763333D01*
X126896666Y-74715714D02*
X126896666Y-75382380D01*
X126468095Y-74715714D02*
X126468095Y-75239523D01*
X126515714Y-75334761D01*
X126610952Y-75382380D01*
X126753809Y-75382380D01*
X126849047Y-75334761D01*
X126896666Y-75287142D01*
X127372857Y-75382380D02*
X127372857Y-74715714D01*
X127372857Y-74906190D02*
X127420476Y-74810952D01*
X127468095Y-74763333D01*
X127563333Y-74715714D01*
X127658571Y-74715714D01*
X128372857Y-75334761D02*
X128277619Y-75382380D01*
X128087142Y-75382380D01*
X127991904Y-75334761D01*
X127944285Y-75239523D01*
X127944285Y-74858571D01*
X127991904Y-74763333D01*
X128087142Y-74715714D01*
X128277619Y-74715714D01*
X128372857Y-74763333D01*
X128420476Y-74858571D01*
X128420476Y-74953809D01*
X127944285Y-75049047D01*
X129563333Y-75334761D02*
X129658571Y-75382380D01*
X129849047Y-75382380D01*
X129944285Y-75334761D01*
X129991904Y-75239523D01*
X129991904Y-75191904D01*
X129944285Y-75096666D01*
X129849047Y-75049047D01*
X129706190Y-75049047D01*
X129610952Y-75001428D01*
X129563333Y-74906190D01*
X129563333Y-74858571D01*
X129610952Y-74763333D01*
X129706190Y-74715714D01*
X129849047Y-74715714D01*
X129944285Y-74763333D01*
X130801428Y-75334761D02*
X130706190Y-75382380D01*
X130515714Y-75382380D01*
X130420476Y-75334761D01*
X130372857Y-75239523D01*
X130372857Y-74858571D01*
X130420476Y-74763333D01*
X130515714Y-74715714D01*
X130706190Y-74715714D01*
X130801428Y-74763333D01*
X130849047Y-74858571D01*
X130849047Y-74953809D01*
X130372857Y-75049047D01*
X131277619Y-74715714D02*
X131277619Y-75382380D01*
X131277619Y-74810952D02*
X131325238Y-74763333D01*
X131420476Y-74715714D01*
X131563333Y-74715714D01*
X131658571Y-74763333D01*
X131706190Y-74858571D01*
X131706190Y-75382380D01*
X132134761Y-75334761D02*
X132230000Y-75382380D01*
X132420476Y-75382380D01*
X132515714Y-75334761D01*
X132563333Y-75239523D01*
X132563333Y-75191904D01*
X132515714Y-75096666D01*
X132420476Y-75049047D01*
X132277619Y-75049047D01*
X132182380Y-75001428D01*
X132134761Y-74906190D01*
X132134761Y-74858571D01*
X132182380Y-74763333D01*
X132277619Y-74715714D01*
X132420476Y-74715714D01*
X132515714Y-74763333D01*
X133134761Y-75382380D02*
X133039523Y-75334761D01*
X132991904Y-75287142D01*
X132944285Y-75191904D01*
X132944285Y-74906190D01*
X132991904Y-74810952D01*
X133039523Y-74763333D01*
X133134761Y-74715714D01*
X133277619Y-74715714D01*
X133372857Y-74763333D01*
X133420476Y-74810952D01*
X133468095Y-74906190D01*
X133468095Y-75191904D01*
X133420476Y-75287142D01*
X133372857Y-75334761D01*
X133277619Y-75382380D01*
X133134761Y-75382380D01*
X133896666Y-75382380D02*
X133896666Y-74715714D01*
X133896666Y-74906190D02*
X133944285Y-74810952D01*
X133991904Y-74763333D01*
X134087142Y-74715714D01*
X134182380Y-74715714D01*
X181470380Y-118784666D02*
X180994190Y-119118000D01*
X181470380Y-119356095D02*
X180470380Y-119356095D01*
X180470380Y-118975142D01*
X180518000Y-118879904D01*
X180565619Y-118832285D01*
X180660857Y-118784666D01*
X180803714Y-118784666D01*
X180898952Y-118832285D01*
X180946571Y-118879904D01*
X180994190Y-118975142D01*
X180994190Y-119356095D01*
X181470380Y-117832285D02*
X181470380Y-118403714D01*
X181470380Y-118118000D02*
X180470380Y-118118000D01*
X180613238Y-118213238D01*
X180708476Y-118308476D01*
X180756095Y-118403714D01*
X133294523Y-89352380D02*
X132961190Y-88876190D01*
X132723095Y-89352380D02*
X132723095Y-88352380D01*
X133104047Y-88352380D01*
X133199285Y-88400000D01*
X133246904Y-88447619D01*
X133294523Y-88542857D01*
X133294523Y-88685714D01*
X133246904Y-88780952D01*
X133199285Y-88828571D01*
X133104047Y-88876190D01*
X132723095Y-88876190D01*
X133723095Y-89352380D02*
X133723095Y-88352380D01*
X134294523Y-89352380D01*
X134294523Y-88352380D01*
X134675476Y-88352380D02*
X135294523Y-88352380D01*
X134961190Y-88733333D01*
X135104047Y-88733333D01*
X135199285Y-88780952D01*
X135246904Y-88828571D01*
X135294523Y-88923809D01*
X135294523Y-89161904D01*
X135246904Y-89257142D01*
X135199285Y-89304761D01*
X135104047Y-89352380D01*
X134818333Y-89352380D01*
X134723095Y-89304761D01*
X134675476Y-89257142D01*
X161885380Y-91487523D02*
X162885380Y-90820857D01*
X161885380Y-90820857D02*
X162885380Y-91487523D01*
X161980619Y-90487523D02*
X161933000Y-90439904D01*
X161885380Y-90344666D01*
X161885380Y-90106571D01*
X161933000Y-90011333D01*
X161980619Y-89963714D01*
X162075857Y-89916095D01*
X162171095Y-89916095D01*
X162313952Y-89963714D01*
X162885380Y-90535142D01*
X162885380Y-89916095D01*
X160599428Y-94878952D02*
X160599428Y-94117047D01*
X160980380Y-94498000D02*
X160218476Y-94498000D01*
X129373333Y-98877380D02*
X129040000Y-98401190D01*
X128801904Y-98877380D02*
X128801904Y-97877380D01*
X129182857Y-97877380D01*
X129278095Y-97925000D01*
X129325714Y-97972619D01*
X129373333Y-98067857D01*
X129373333Y-98210714D01*
X129325714Y-98305952D01*
X129278095Y-98353571D01*
X129182857Y-98401190D01*
X128801904Y-98401190D01*
X130278095Y-97877380D02*
X129801904Y-97877380D01*
X129754285Y-98353571D01*
X129801904Y-98305952D01*
X129897142Y-98258333D01*
X130135238Y-98258333D01*
X130230476Y-98305952D01*
X130278095Y-98353571D01*
X130325714Y-98448809D01*
X130325714Y-98686904D01*
X130278095Y-98782142D01*
X130230476Y-98829761D01*
X130135238Y-98877380D01*
X129897142Y-98877380D01*
X129801904Y-98829761D01*
X129754285Y-98782142D01*
X113609523Y-84272380D02*
X113276190Y-83796190D01*
X113038095Y-84272380D02*
X113038095Y-83272380D01*
X113419047Y-83272380D01*
X113514285Y-83320000D01*
X113561904Y-83367619D01*
X113609523Y-83462857D01*
X113609523Y-83605714D01*
X113561904Y-83700952D01*
X113514285Y-83748571D01*
X113419047Y-83796190D01*
X113038095Y-83796190D01*
X114038095Y-84272380D02*
X114038095Y-83272380D01*
X114609523Y-84272380D01*
X114609523Y-83272380D01*
X115038095Y-83367619D02*
X115085714Y-83320000D01*
X115180952Y-83272380D01*
X115419047Y-83272380D01*
X115514285Y-83320000D01*
X115561904Y-83367619D01*
X115609523Y-83462857D01*
X115609523Y-83558095D01*
X115561904Y-83700952D01*
X114990476Y-84272380D01*
X115609523Y-84272380D01*
X161488380Y-105132095D02*
X160488380Y-105132095D01*
X160488380Y-104894000D01*
X160536000Y-104751142D01*
X160631238Y-104655904D01*
X160726476Y-104608285D01*
X160916952Y-104560666D01*
X161059809Y-104560666D01*
X161250285Y-104608285D01*
X161345523Y-104655904D01*
X161440761Y-104751142D01*
X161488380Y-104894000D01*
X161488380Y-105132095D01*
X161488380Y-104084476D02*
X161488380Y-103894000D01*
X161440761Y-103798761D01*
X161393142Y-103751142D01*
X161250285Y-103655904D01*
X161059809Y-103608285D01*
X160678857Y-103608285D01*
X160583619Y-103655904D01*
X160536000Y-103703523D01*
X160488380Y-103798761D01*
X160488380Y-103989238D01*
X160536000Y-104084476D01*
X160583619Y-104132095D01*
X160678857Y-104179714D01*
X160916952Y-104179714D01*
X161012190Y-104132095D01*
X161059809Y-104084476D01*
X161107428Y-103989238D01*
X161107428Y-103798761D01*
X161059809Y-103703523D01*
X161012190Y-103655904D01*
X160916952Y-103608285D01*
X158186380Y-105132095D02*
X157186380Y-105132095D01*
X157186380Y-104894000D01*
X157234000Y-104751142D01*
X157329238Y-104655904D01*
X157424476Y-104608285D01*
X157614952Y-104560666D01*
X157757809Y-104560666D01*
X157948285Y-104608285D01*
X158043523Y-104655904D01*
X158138761Y-104751142D01*
X158186380Y-104894000D01*
X158186380Y-105132095D01*
X158186380Y-103608285D02*
X158186380Y-104179714D01*
X158186380Y-103894000D02*
X157186380Y-103894000D01*
X157329238Y-103989238D01*
X157424476Y-104084476D01*
X157472095Y-104179714D01*
X126452380Y-136199047D02*
X127452380Y-135960952D01*
X126738095Y-135770476D01*
X127452380Y-135580000D01*
X126452380Y-135341904D01*
X127452380Y-134960952D02*
X126452380Y-134960952D01*
X127452380Y-134484761D02*
X126452380Y-134484761D01*
X127452380Y-133913333D01*
X126452380Y-133913333D01*
X127357142Y-132865714D02*
X127404761Y-132913333D01*
X127452380Y-133056190D01*
X127452380Y-133151428D01*
X127404761Y-133294285D01*
X127309523Y-133389523D01*
X127214285Y-133437142D01*
X127023809Y-133484761D01*
X126880952Y-133484761D01*
X126690476Y-133437142D01*
X126595238Y-133389523D01*
X126500000Y-133294285D01*
X126452380Y-133151428D01*
X126452380Y-133056190D01*
X126500000Y-132913333D01*
X126547619Y-132865714D01*
X127452380Y-132437142D02*
X126452380Y-132437142D01*
X126928571Y-132437142D02*
X126928571Y-131865714D01*
X127452380Y-131865714D02*
X126452380Y-131865714D01*
X126452380Y-131199047D02*
X126452380Y-131008571D01*
X126500000Y-130913333D01*
X126595238Y-130818095D01*
X126785714Y-130770476D01*
X127119047Y-130770476D01*
X127309523Y-130818095D01*
X127404761Y-130913333D01*
X127452380Y-131008571D01*
X127452380Y-131199047D01*
X127404761Y-131294285D01*
X127309523Y-131389523D01*
X127119047Y-131437142D01*
X126785714Y-131437142D01*
X126595238Y-131389523D01*
X126500000Y-131294285D01*
X126452380Y-131199047D01*
X126452380Y-130341904D02*
X127261904Y-130341904D01*
X127357142Y-130294285D01*
X127404761Y-130246666D01*
X127452380Y-130151428D01*
X127452380Y-129960952D01*
X127404761Y-129865714D01*
X127357142Y-129818095D01*
X127261904Y-129770476D01*
X126452380Y-129770476D01*
X126452380Y-129437142D02*
X126452380Y-128865714D01*
X127452380Y-129151428D02*
X126452380Y-129151428D01*
X127452380Y-128008571D02*
X127452380Y-128580000D01*
X127452380Y-128294285D02*
X126452380Y-128294285D01*
X126595238Y-128389523D01*
X126690476Y-128484761D01*
X126738095Y-128580000D01*
X110839761Y-138882380D02*
X110839761Y-137882380D01*
X110839761Y-138358571D02*
X111411190Y-138358571D01*
X111411190Y-138882380D02*
X111411190Y-137882380D01*
X111887380Y-138358571D02*
X112220714Y-138358571D01*
X112363571Y-138882380D02*
X111887380Y-138882380D01*
X111887380Y-137882380D01*
X112363571Y-137882380D01*
X113268333Y-138882380D02*
X112792142Y-138882380D01*
X112792142Y-137882380D01*
X113601666Y-138882380D02*
X113601666Y-137882380D01*
X113935000Y-138596666D01*
X114268333Y-137882380D01*
X114268333Y-138882380D01*
X114744523Y-138882380D02*
X114744523Y-137882380D01*
X115125476Y-137882380D01*
X115220714Y-137930000D01*
X115268333Y-137977619D01*
X115315952Y-138072857D01*
X115315952Y-138215714D01*
X115268333Y-138310952D01*
X115220714Y-138358571D01*
X115125476Y-138406190D01*
X114744523Y-138406190D01*
X115935000Y-137882380D02*
X116125476Y-137882380D01*
X116220714Y-137930000D01*
X116315952Y-138025238D01*
X116363571Y-138215714D01*
X116363571Y-138549047D01*
X116315952Y-138739523D01*
X116220714Y-138834761D01*
X116125476Y-138882380D01*
X115935000Y-138882380D01*
X115839761Y-138834761D01*
X115744523Y-138739523D01*
X115696904Y-138549047D01*
X115696904Y-138215714D01*
X115744523Y-138025238D01*
X115839761Y-137930000D01*
X115935000Y-137882380D01*
X117363571Y-138882380D02*
X117030238Y-138406190D01*
X116792142Y-138882380D02*
X116792142Y-137882380D01*
X117173095Y-137882380D01*
X117268333Y-137930000D01*
X117315952Y-137977619D01*
X117363571Y-138072857D01*
X117363571Y-138215714D01*
X117315952Y-138310952D01*
X117268333Y-138358571D01*
X117173095Y-138406190D01*
X116792142Y-138406190D01*
X117649285Y-137882380D02*
X118220714Y-137882380D01*
X117935000Y-138882380D02*
X117935000Y-137882380D01*
X119077857Y-138882380D02*
X118506428Y-138882380D01*
X118792142Y-138882380D02*
X118792142Y-137882380D01*
X118696904Y-138025238D01*
X118601666Y-138120476D01*
X118506428Y-138168095D01*
X109767619Y-123547619D02*
X108767619Y-123785714D01*
X109481904Y-123976190D01*
X108767619Y-124166666D01*
X109767619Y-124404761D01*
X108767619Y-124785714D02*
X109767619Y-124785714D01*
X108767619Y-125261904D02*
X109767619Y-125261904D01*
X108767619Y-125833333D01*
X109767619Y-125833333D01*
X108862857Y-126880952D02*
X108815238Y-126833333D01*
X108767619Y-126690476D01*
X108767619Y-126595238D01*
X108815238Y-126452380D01*
X108910476Y-126357142D01*
X109005714Y-126309523D01*
X109196190Y-126261904D01*
X109339047Y-126261904D01*
X109529523Y-126309523D01*
X109624761Y-126357142D01*
X109720000Y-126452380D01*
X109767619Y-126595238D01*
X109767619Y-126690476D01*
X109720000Y-126833333D01*
X109672380Y-126880952D01*
X108767619Y-127309523D02*
X109767619Y-127309523D01*
X109291428Y-127309523D02*
X109291428Y-127880952D01*
X108767619Y-127880952D02*
X109767619Y-127880952D01*
X108767619Y-128357142D02*
X109767619Y-128357142D01*
X108767619Y-128833333D02*
X109767619Y-128833333D01*
X108767619Y-129404761D01*
X109767619Y-129404761D01*
X108767619Y-130404761D02*
X108767619Y-129833333D01*
X108767619Y-130119047D02*
X109767619Y-130119047D01*
X109624761Y-130023809D01*
X109529523Y-129928571D01*
X109481904Y-129833333D01*
X117308809Y-126817380D02*
X117308809Y-125817380D01*
X117308809Y-126293571D02*
X117880238Y-126293571D01*
X117880238Y-126817380D02*
X117880238Y-125817380D01*
X118356428Y-126293571D02*
X118689761Y-126293571D01*
X118832619Y-126817380D02*
X118356428Y-126817380D01*
X118356428Y-125817380D01*
X118832619Y-125817380D01*
X119737380Y-126817380D02*
X119261190Y-126817380D01*
X119261190Y-125817380D01*
X120070714Y-126817380D02*
X120070714Y-125817380D01*
X120404047Y-126531666D01*
X120737380Y-125817380D01*
X120737380Y-126817380D01*
X121165952Y-126769761D02*
X121308809Y-126817380D01*
X121546904Y-126817380D01*
X121642142Y-126769761D01*
X121689761Y-126722142D01*
X121737380Y-126626904D01*
X121737380Y-126531666D01*
X121689761Y-126436428D01*
X121642142Y-126388809D01*
X121546904Y-126341190D01*
X121356428Y-126293571D01*
X121261190Y-126245952D01*
X121213571Y-126198333D01*
X121165952Y-126103095D01*
X121165952Y-126007857D01*
X121213571Y-125912619D01*
X121261190Y-125865000D01*
X121356428Y-125817380D01*
X121594523Y-125817380D01*
X121737380Y-125865000D01*
X122023095Y-125817380D02*
X122594523Y-125817380D01*
X122308809Y-126817380D02*
X122308809Y-125817380D01*
X122880238Y-126531666D02*
X123356428Y-126531666D01*
X122785000Y-126817380D02*
X123118333Y-125817380D01*
X123451666Y-126817380D01*
X124356428Y-126817380D02*
X124023095Y-126341190D01*
X123785000Y-126817380D02*
X123785000Y-125817380D01*
X124165952Y-125817380D01*
X124261190Y-125865000D01*
X124308809Y-125912619D01*
X124356428Y-126007857D01*
X124356428Y-126150714D01*
X124308809Y-126245952D01*
X124261190Y-126293571D01*
X124165952Y-126341190D01*
X123785000Y-126341190D01*
X125308809Y-126817380D02*
X124737380Y-126817380D01*
X125023095Y-126817380D02*
X125023095Y-125817380D01*
X124927857Y-125960238D01*
X124832619Y-126055476D01*
X124737380Y-126103095D01*
X133604285Y-136977380D02*
X133604285Y-135977380D01*
X133937619Y-136691666D01*
X134270952Y-135977380D01*
X134270952Y-136977380D01*
X134937619Y-135977380D02*
X135128095Y-135977380D01*
X135223333Y-136025000D01*
X135318571Y-136120238D01*
X135366190Y-136310714D01*
X135366190Y-136644047D01*
X135318571Y-136834523D01*
X135223333Y-136929761D01*
X135128095Y-136977380D01*
X134937619Y-136977380D01*
X134842380Y-136929761D01*
X134747142Y-136834523D01*
X134699523Y-136644047D01*
X134699523Y-136310714D01*
X134747142Y-136120238D01*
X134842380Y-136025000D01*
X134937619Y-135977380D01*
X135794761Y-136977380D02*
X135794761Y-135977380D01*
X136032857Y-135977380D01*
X136175714Y-136025000D01*
X136270952Y-136120238D01*
X136318571Y-136215476D01*
X136366190Y-136405952D01*
X136366190Y-136548809D01*
X136318571Y-136739285D01*
X136270952Y-136834523D01*
X136175714Y-136929761D01*
X136032857Y-136977380D01*
X135794761Y-136977380D01*
X136794761Y-136453571D02*
X137128095Y-136453571D01*
X137270952Y-136977380D02*
X136794761Y-136977380D01*
X136794761Y-135977380D01*
X137270952Y-135977380D01*
X138223333Y-136977380D02*
X137651904Y-136977380D01*
X137937619Y-136977380D02*
X137937619Y-135977380D01*
X137842380Y-136120238D01*
X137747142Y-136215476D01*
X137651904Y-136263095D01*
X130421190Y-136882142D02*
X130373571Y-136929761D01*
X130230714Y-136977380D01*
X130135476Y-136977380D01*
X129992619Y-136929761D01*
X129897380Y-136834523D01*
X129849761Y-136739285D01*
X129802142Y-136548809D01*
X129802142Y-136405952D01*
X129849761Y-136215476D01*
X129897380Y-136120238D01*
X129992619Y-136025000D01*
X130135476Y-135977380D01*
X130230714Y-135977380D01*
X130373571Y-136025000D01*
X130421190Y-136072619D01*
X130706904Y-135977380D02*
X131278333Y-135977380D01*
X130992619Y-136977380D02*
X130992619Y-135977380D01*
X131564047Y-136929761D02*
X131706904Y-136977380D01*
X131945000Y-136977380D01*
X132040238Y-136929761D01*
X132087857Y-136882142D01*
X132135476Y-136786904D01*
X132135476Y-136691666D01*
X132087857Y-136596428D01*
X132040238Y-136548809D01*
X131945000Y-136501190D01*
X131754523Y-136453571D01*
X131659285Y-136405952D01*
X131611666Y-136358333D01*
X131564047Y-136263095D01*
X131564047Y-136167857D01*
X131611666Y-136072619D01*
X131659285Y-136025000D01*
X131754523Y-135977380D01*
X131992619Y-135977380D01*
X132135476Y-136025000D01*
X133087857Y-136977380D02*
X132516428Y-136977380D01*
X132802142Y-136977380D02*
X132802142Y-135977380D01*
X132706904Y-136120238D01*
X132611666Y-136215476D01*
X132516428Y-136263095D01*
X107402380Y-61293333D02*
X108116666Y-61293333D01*
X108259523Y-61340952D01*
X108354761Y-61436190D01*
X108402380Y-61579047D01*
X108402380Y-61674285D01*
X107402380Y-60388571D02*
X107402380Y-60579047D01*
X107450000Y-60674285D01*
X107497619Y-60721904D01*
X107640476Y-60817142D01*
X107830952Y-60864761D01*
X108211904Y-60864761D01*
X108307142Y-60817142D01*
X108354761Y-60769523D01*
X108402380Y-60674285D01*
X108402380Y-60483809D01*
X108354761Y-60388571D01*
X108307142Y-60340952D01*
X108211904Y-60293333D01*
X107973809Y-60293333D01*
X107878571Y-60340952D01*
X107830952Y-60388571D01*
X107783333Y-60483809D01*
X107783333Y-60674285D01*
X107830952Y-60769523D01*
X107878571Y-60817142D01*
X107973809Y-60864761D01*
X98147142Y-61650476D02*
X98194761Y-61698095D01*
X98242380Y-61840952D01*
X98242380Y-61936190D01*
X98194761Y-62079047D01*
X98099523Y-62174285D01*
X98004285Y-62221904D01*
X97813809Y-62269523D01*
X97670952Y-62269523D01*
X97480476Y-62221904D01*
X97385238Y-62174285D01*
X97290000Y-62079047D01*
X97242380Y-61936190D01*
X97242380Y-61840952D01*
X97290000Y-61698095D01*
X97337619Y-61650476D01*
X98242380Y-61221904D02*
X97242380Y-61221904D01*
X97718571Y-61221904D02*
X97718571Y-60650476D01*
X98242380Y-60650476D02*
X97242380Y-60650476D01*
X97337619Y-60221904D02*
X97290000Y-60174285D01*
X97242380Y-60079047D01*
X97242380Y-59840952D01*
X97290000Y-59745714D01*
X97337619Y-59698095D01*
X97432857Y-59650476D01*
X97528095Y-59650476D01*
X97670952Y-59698095D01*
X98242380Y-60269523D01*
X98242380Y-59650476D01*
X107402380Y-56848333D02*
X108116666Y-56848333D01*
X108259523Y-56895952D01*
X108354761Y-56991190D01*
X108402380Y-57134047D01*
X108402380Y-57229285D01*
X107402380Y-55895952D02*
X107402380Y-56372142D01*
X107878571Y-56419761D01*
X107830952Y-56372142D01*
X107783333Y-56276904D01*
X107783333Y-56038809D01*
X107830952Y-55943571D01*
X107878571Y-55895952D01*
X107973809Y-55848333D01*
X108211904Y-55848333D01*
X108307142Y-55895952D01*
X108354761Y-55943571D01*
X108402380Y-56038809D01*
X108402380Y-56276904D01*
X108354761Y-56372142D01*
X108307142Y-56419761D01*
X98147142Y-57205476D02*
X98194761Y-57253095D01*
X98242380Y-57395952D01*
X98242380Y-57491190D01*
X98194761Y-57634047D01*
X98099523Y-57729285D01*
X98004285Y-57776904D01*
X97813809Y-57824523D01*
X97670952Y-57824523D01*
X97480476Y-57776904D01*
X97385238Y-57729285D01*
X97290000Y-57634047D01*
X97242380Y-57491190D01*
X97242380Y-57395952D01*
X97290000Y-57253095D01*
X97337619Y-57205476D01*
X98242380Y-56776904D02*
X97242380Y-56776904D01*
X97718571Y-56776904D02*
X97718571Y-56205476D01*
X98242380Y-56205476D02*
X97242380Y-56205476D01*
X98242380Y-55205476D02*
X98242380Y-55776904D01*
X98242380Y-55491190D02*
X97242380Y-55491190D01*
X97385238Y-55586428D01*
X97480476Y-55681666D01*
X97528095Y-55776904D01*
X140160476Y-113752380D02*
X140827142Y-114752380D01*
X140827142Y-113752380D02*
X140160476Y-114752380D01*
X141731904Y-114752380D02*
X141160476Y-114752380D01*
X141446190Y-114752380D02*
X141446190Y-113752380D01*
X141350952Y-113895238D01*
X141255714Y-113990476D01*
X141160476Y-114038095D01*
X159599380Y-116331904D02*
X160408904Y-116331904D01*
X160504142Y-116284285D01*
X160551761Y-116236666D01*
X160599380Y-116141428D01*
X160599380Y-115950952D01*
X160551761Y-115855714D01*
X160504142Y-115808095D01*
X160408904Y-115760476D01*
X159599380Y-115760476D01*
X159599380Y-115379523D02*
X159599380Y-114760476D01*
X159980333Y-115093809D01*
X159980333Y-114950952D01*
X160027952Y-114855714D01*
X160075571Y-114808095D01*
X160170809Y-114760476D01*
X160408904Y-114760476D01*
X160504142Y-114808095D01*
X160551761Y-114855714D01*
X160599380Y-114950952D01*
X160599380Y-115236666D01*
X160551761Y-115331904D01*
X160504142Y-115379523D01*
X147193095Y-64857380D02*
X147193095Y-65666904D01*
X147240714Y-65762142D01*
X147288333Y-65809761D01*
X147383571Y-65857380D01*
X147574047Y-65857380D01*
X147669285Y-65809761D01*
X147716904Y-65762142D01*
X147764523Y-65666904D01*
X147764523Y-64857380D01*
X148764523Y-65857380D02*
X148193095Y-65857380D01*
X148478809Y-65857380D02*
X148478809Y-64857380D01*
X148383571Y-65000238D01*
X148288333Y-65095476D01*
X148193095Y-65143095D01*
X140542380Y-75382380D02*
X140542380Y-74382380D01*
X140542380Y-74858571D02*
X141113809Y-74858571D01*
X141113809Y-75382380D02*
X141113809Y-74382380D01*
X141970952Y-75334761D02*
X141875714Y-75382380D01*
X141685238Y-75382380D01*
X141590000Y-75334761D01*
X141542380Y-75239523D01*
X141542380Y-74858571D01*
X141590000Y-74763333D01*
X141685238Y-74715714D01*
X141875714Y-74715714D01*
X141970952Y-74763333D01*
X142018571Y-74858571D01*
X142018571Y-74953809D01*
X141542380Y-75049047D01*
X142590000Y-75382380D02*
X142494761Y-75334761D01*
X142447142Y-75239523D01*
X142447142Y-74382380D01*
X142970952Y-75382380D02*
X142970952Y-74715714D01*
X142970952Y-74810952D02*
X143018571Y-74763333D01*
X143113809Y-74715714D01*
X143256666Y-74715714D01*
X143351904Y-74763333D01*
X143399523Y-74858571D01*
X143399523Y-75382380D01*
X143399523Y-74858571D02*
X143447142Y-74763333D01*
X143542380Y-74715714D01*
X143685238Y-74715714D01*
X143780476Y-74763333D01*
X143828095Y-74858571D01*
X143828095Y-75382380D01*
X145066190Y-74715714D02*
X145066190Y-75715714D01*
X145066190Y-74763333D02*
X145161428Y-74715714D01*
X145351904Y-74715714D01*
X145447142Y-74763333D01*
X145494761Y-74810952D01*
X145542380Y-74906190D01*
X145542380Y-75191904D01*
X145494761Y-75287142D01*
X145447142Y-75334761D01*
X145351904Y-75382380D01*
X145161428Y-75382380D01*
X145066190Y-75334761D01*
X145970952Y-75382380D02*
X145970952Y-74715714D01*
X145970952Y-74906190D02*
X146018571Y-74810952D01*
X146066190Y-74763333D01*
X146161428Y-74715714D01*
X146256666Y-74715714D01*
X146970952Y-75334761D02*
X146875714Y-75382380D01*
X146685238Y-75382380D01*
X146590000Y-75334761D01*
X146542380Y-75239523D01*
X146542380Y-74858571D01*
X146590000Y-74763333D01*
X146685238Y-74715714D01*
X146875714Y-74715714D01*
X146970952Y-74763333D01*
X147018571Y-74858571D01*
X147018571Y-74953809D01*
X146542380Y-75049047D01*
X147399523Y-75334761D02*
X147494761Y-75382380D01*
X147685238Y-75382380D01*
X147780476Y-75334761D01*
X147828095Y-75239523D01*
X147828095Y-75191904D01*
X147780476Y-75096666D01*
X147685238Y-75049047D01*
X147542380Y-75049047D01*
X147447142Y-75001428D01*
X147399523Y-74906190D01*
X147399523Y-74858571D01*
X147447142Y-74763333D01*
X147542380Y-74715714D01*
X147685238Y-74715714D01*
X147780476Y-74763333D01*
X148209047Y-75334761D02*
X148304285Y-75382380D01*
X148494761Y-75382380D01*
X148590000Y-75334761D01*
X148637619Y-75239523D01*
X148637619Y-75191904D01*
X148590000Y-75096666D01*
X148494761Y-75049047D01*
X148351904Y-75049047D01*
X148256666Y-75001428D01*
X148209047Y-74906190D01*
X148209047Y-74858571D01*
X148256666Y-74763333D01*
X148351904Y-74715714D01*
X148494761Y-74715714D01*
X148590000Y-74763333D01*
X149494761Y-74715714D02*
X149494761Y-75382380D01*
X149066190Y-74715714D02*
X149066190Y-75239523D01*
X149113809Y-75334761D01*
X149209047Y-75382380D01*
X149351904Y-75382380D01*
X149447142Y-75334761D01*
X149494761Y-75287142D01*
X149970952Y-75382380D02*
X149970952Y-74715714D01*
X149970952Y-74906190D02*
X150018571Y-74810952D01*
X150066190Y-74763333D01*
X150161428Y-74715714D01*
X150256666Y-74715714D01*
X150970952Y-75334761D02*
X150875714Y-75382380D01*
X150685238Y-75382380D01*
X150590000Y-75334761D01*
X150542380Y-75239523D01*
X150542380Y-74858571D01*
X150590000Y-74763333D01*
X150685238Y-74715714D01*
X150875714Y-74715714D01*
X150970952Y-74763333D01*
X151018571Y-74858571D01*
X151018571Y-74953809D01*
X150542380Y-75049047D01*
X152161428Y-75334761D02*
X152256666Y-75382380D01*
X152447142Y-75382380D01*
X152542380Y-75334761D01*
X152590000Y-75239523D01*
X152590000Y-75191904D01*
X152542380Y-75096666D01*
X152447142Y-75049047D01*
X152304285Y-75049047D01*
X152209047Y-75001428D01*
X152161428Y-74906190D01*
X152161428Y-74858571D01*
X152209047Y-74763333D01*
X152304285Y-74715714D01*
X152447142Y-74715714D01*
X152542380Y-74763333D01*
X153399523Y-75334761D02*
X153304285Y-75382380D01*
X153113809Y-75382380D01*
X153018571Y-75334761D01*
X152970952Y-75239523D01*
X152970952Y-74858571D01*
X153018571Y-74763333D01*
X153113809Y-74715714D01*
X153304285Y-74715714D01*
X153399523Y-74763333D01*
X153447142Y-74858571D01*
X153447142Y-74953809D01*
X152970952Y-75049047D01*
X153875714Y-74715714D02*
X153875714Y-75382380D01*
X153875714Y-74810952D02*
X153923333Y-74763333D01*
X154018571Y-74715714D01*
X154161428Y-74715714D01*
X154256666Y-74763333D01*
X154304285Y-74858571D01*
X154304285Y-75382380D01*
X154732857Y-75334761D02*
X154828095Y-75382380D01*
X155018571Y-75382380D01*
X155113809Y-75334761D01*
X155161428Y-75239523D01*
X155161428Y-75191904D01*
X155113809Y-75096666D01*
X155018571Y-75049047D01*
X154875714Y-75049047D01*
X154780476Y-75001428D01*
X154732857Y-74906190D01*
X154732857Y-74858571D01*
X154780476Y-74763333D01*
X154875714Y-74715714D01*
X155018571Y-74715714D01*
X155113809Y-74763333D01*
X155732857Y-75382380D02*
X155637619Y-75334761D01*
X155590000Y-75287142D01*
X155542380Y-75191904D01*
X155542380Y-74906190D01*
X155590000Y-74810952D01*
X155637619Y-74763333D01*
X155732857Y-74715714D01*
X155875714Y-74715714D01*
X155970952Y-74763333D01*
X156018571Y-74810952D01*
X156066190Y-74906190D01*
X156066190Y-75191904D01*
X156018571Y-75287142D01*
X155970952Y-75334761D01*
X155875714Y-75382380D01*
X155732857Y-75382380D01*
X156494761Y-75382380D02*
X156494761Y-74715714D01*
X156494761Y-74906190D02*
X156542380Y-74810952D01*
X156590000Y-74763333D01*
X156685238Y-74715714D01*
X156780476Y-74715714D01*
X148526666Y-56284761D02*
X148669523Y-56332380D01*
X148907619Y-56332380D01*
X149002857Y-56284761D01*
X149050476Y-56237142D01*
X149098095Y-56141904D01*
X149098095Y-56046666D01*
X149050476Y-55951428D01*
X149002857Y-55903809D01*
X148907619Y-55856190D01*
X148717142Y-55808571D01*
X148621904Y-55760952D01*
X148574285Y-55713333D01*
X148526666Y-55618095D01*
X148526666Y-55522857D01*
X148574285Y-55427619D01*
X148621904Y-55380000D01*
X148717142Y-55332380D01*
X148955238Y-55332380D01*
X149098095Y-55380000D01*
X149431428Y-55332380D02*
X149669523Y-56332380D01*
X149860000Y-55618095D01*
X150050476Y-56332380D01*
X150288571Y-55332380D01*
X150621904Y-55427619D02*
X150669523Y-55380000D01*
X150764761Y-55332380D01*
X151002857Y-55332380D01*
X151098095Y-55380000D01*
X151145714Y-55427619D01*
X151193333Y-55522857D01*
X151193333Y-55618095D01*
X151145714Y-55760952D01*
X150574285Y-56332380D01*
X151193333Y-56332380D01*
X136160238Y-59507380D02*
X136160238Y-58507380D01*
X136541190Y-58507380D01*
X136636428Y-58555000D01*
X136684047Y-58602619D01*
X136731666Y-58697857D01*
X136731666Y-58840714D01*
X136684047Y-58935952D01*
X136636428Y-58983571D01*
X136541190Y-59031190D01*
X136160238Y-59031190D01*
X137160238Y-59507380D02*
X137160238Y-58840714D01*
X137160238Y-59031190D02*
X137207857Y-58935952D01*
X137255476Y-58888333D01*
X137350714Y-58840714D01*
X137445952Y-58840714D01*
X137922142Y-59507380D02*
X137826904Y-59459761D01*
X137779285Y-59412142D01*
X137731666Y-59316904D01*
X137731666Y-59031190D01*
X137779285Y-58935952D01*
X137826904Y-58888333D01*
X137922142Y-58840714D01*
X138065000Y-58840714D01*
X138160238Y-58888333D01*
X138207857Y-58935952D01*
X138255476Y-59031190D01*
X138255476Y-59316904D01*
X138207857Y-59412142D01*
X138160238Y-59459761D01*
X138065000Y-59507380D01*
X137922142Y-59507380D01*
X139112619Y-58840714D02*
X139112619Y-59650238D01*
X139065000Y-59745476D01*
X139017380Y-59793095D01*
X138922142Y-59840714D01*
X138779285Y-59840714D01*
X138684047Y-59793095D01*
X139112619Y-59459761D02*
X139017380Y-59507380D01*
X138826904Y-59507380D01*
X138731666Y-59459761D01*
X138684047Y-59412142D01*
X138636428Y-59316904D01*
X138636428Y-59031190D01*
X138684047Y-58935952D01*
X138731666Y-58888333D01*
X138826904Y-58840714D01*
X139017380Y-58840714D01*
X139112619Y-58888333D01*
X139588809Y-59507380D02*
X139588809Y-58840714D01*
X139588809Y-59031190D02*
X139636428Y-58935952D01*
X139684047Y-58888333D01*
X139779285Y-58840714D01*
X139874523Y-58840714D01*
X140636428Y-59507380D02*
X140636428Y-58983571D01*
X140588809Y-58888333D01*
X140493571Y-58840714D01*
X140303095Y-58840714D01*
X140207857Y-58888333D01*
X140636428Y-59459761D02*
X140541190Y-59507380D01*
X140303095Y-59507380D01*
X140207857Y-59459761D01*
X140160238Y-59364523D01*
X140160238Y-59269285D01*
X140207857Y-59174047D01*
X140303095Y-59126428D01*
X140541190Y-59126428D01*
X140636428Y-59078809D01*
X141112619Y-59507380D02*
X141112619Y-58840714D01*
X141112619Y-58935952D02*
X141160238Y-58888333D01*
X141255476Y-58840714D01*
X141398333Y-58840714D01*
X141493571Y-58888333D01*
X141541190Y-58983571D01*
X141541190Y-59507380D01*
X141541190Y-58983571D02*
X141588809Y-58888333D01*
X141684047Y-58840714D01*
X141826904Y-58840714D01*
X141922142Y-58888333D01*
X141969761Y-58983571D01*
X141969761Y-59507380D01*
X148312142Y-117006666D02*
X148359761Y-117054285D01*
X148407380Y-117197142D01*
X148407380Y-117292380D01*
X148359761Y-117435238D01*
X148264523Y-117530476D01*
X148169285Y-117578095D01*
X147978809Y-117625714D01*
X147835952Y-117625714D01*
X147645476Y-117578095D01*
X147550238Y-117530476D01*
X147455000Y-117435238D01*
X147407380Y-117292380D01*
X147407380Y-117197142D01*
X147455000Y-117054285D01*
X147502619Y-117006666D01*
X147407380Y-116673333D02*
X147407380Y-116006666D01*
X148407380Y-116435238D01*
X134342142Y-117006666D02*
X134389761Y-117054285D01*
X134437380Y-117197142D01*
X134437380Y-117292380D01*
X134389761Y-117435238D01*
X134294523Y-117530476D01*
X134199285Y-117578095D01*
X134008809Y-117625714D01*
X133865952Y-117625714D01*
X133675476Y-117578095D01*
X133580238Y-117530476D01*
X133485000Y-117435238D01*
X133437380Y-117292380D01*
X133437380Y-117197142D01*
X133485000Y-117054285D01*
X133532619Y-117006666D01*
X133865952Y-116435238D02*
X133818333Y-116530476D01*
X133770714Y-116578095D01*
X133675476Y-116625714D01*
X133627857Y-116625714D01*
X133532619Y-116578095D01*
X133485000Y-116530476D01*
X133437380Y-116435238D01*
X133437380Y-116244761D01*
X133485000Y-116149523D01*
X133532619Y-116101904D01*
X133627857Y-116054285D01*
X133675476Y-116054285D01*
X133770714Y-116101904D01*
X133818333Y-116149523D01*
X133865952Y-116244761D01*
X133865952Y-116435238D01*
X133913571Y-116530476D01*
X133961190Y-116578095D01*
X134056428Y-116625714D01*
X134246904Y-116625714D01*
X134342142Y-116578095D01*
X134389761Y-116530476D01*
X134437380Y-116435238D01*
X134437380Y-116244761D01*
X134389761Y-116149523D01*
X134342142Y-116101904D01*
X134246904Y-116054285D01*
X134056428Y-116054285D01*
X133961190Y-116101904D01*
X133913571Y-116149523D01*
X133865952Y-116244761D01*
X190222142Y-75731666D02*
X190269761Y-75779285D01*
X190317380Y-75922142D01*
X190317380Y-76017380D01*
X190269761Y-76160238D01*
X190174523Y-76255476D01*
X190079285Y-76303095D01*
X189888809Y-76350714D01*
X189745952Y-76350714D01*
X189555476Y-76303095D01*
X189460238Y-76255476D01*
X189365000Y-76160238D01*
X189317380Y-76017380D01*
X189317380Y-75922142D01*
X189365000Y-75779285D01*
X189412619Y-75731666D01*
X190317380Y-75255476D02*
X190317380Y-75065000D01*
X190269761Y-74969761D01*
X190222142Y-74922142D01*
X190079285Y-74826904D01*
X189888809Y-74779285D01*
X189507857Y-74779285D01*
X189412619Y-74826904D01*
X189365000Y-74874523D01*
X189317380Y-74969761D01*
X189317380Y-75160238D01*
X189365000Y-75255476D01*
X189412619Y-75303095D01*
X189507857Y-75350714D01*
X189745952Y-75350714D01*
X189841190Y-75303095D01*
X189888809Y-75255476D01*
X189936428Y-75160238D01*
X189936428Y-74969761D01*
X189888809Y-74874523D01*
X189841190Y-74826904D01*
X189745952Y-74779285D01*
X163187142Y-58777142D02*
X163139523Y-58824761D01*
X162996666Y-58872380D01*
X162901428Y-58872380D01*
X162758571Y-58824761D01*
X162663333Y-58729523D01*
X162615714Y-58634285D01*
X162568095Y-58443809D01*
X162568095Y-58300952D01*
X162615714Y-58110476D01*
X162663333Y-58015238D01*
X162758571Y-57920000D01*
X162901428Y-57872380D01*
X162996666Y-57872380D01*
X163139523Y-57920000D01*
X163187142Y-57967619D01*
X164139523Y-58872380D02*
X163568095Y-58872380D01*
X163853809Y-58872380D02*
X163853809Y-57872380D01*
X163758571Y-58015238D01*
X163663333Y-58110476D01*
X163568095Y-58158095D01*
X164758571Y-57872380D02*
X164853809Y-57872380D01*
X164949047Y-57920000D01*
X164996666Y-57967619D01*
X165044285Y-58062857D01*
X165091904Y-58253333D01*
X165091904Y-58491428D01*
X165044285Y-58681904D01*
X164996666Y-58777142D01*
X164949047Y-58824761D01*
X164853809Y-58872380D01*
X164758571Y-58872380D01*
X164663333Y-58824761D01*
X164615714Y-58777142D01*
X164568095Y-58681904D01*
X164520476Y-58491428D01*
X164520476Y-58253333D01*
X164568095Y-58062857D01*
X164615714Y-57967619D01*
X164663333Y-57920000D01*
X164758571Y-57872380D01*
X98242380Y-75135952D02*
X97242380Y-75135952D01*
X97718571Y-75135952D02*
X97718571Y-74564523D01*
X98242380Y-74564523D02*
X97242380Y-74564523D01*
X98194761Y-73707380D02*
X98242380Y-73802619D01*
X98242380Y-73993095D01*
X98194761Y-74088333D01*
X98099523Y-74135952D01*
X97718571Y-74135952D01*
X97623333Y-74088333D01*
X97575714Y-73993095D01*
X97575714Y-73802619D01*
X97623333Y-73707380D01*
X97718571Y-73659761D01*
X97813809Y-73659761D01*
X97909047Y-74135952D01*
X98242380Y-72802619D02*
X97718571Y-72802619D01*
X97623333Y-72850238D01*
X97575714Y-72945476D01*
X97575714Y-73135952D01*
X97623333Y-73231190D01*
X98194761Y-72802619D02*
X98242380Y-72897857D01*
X98242380Y-73135952D01*
X98194761Y-73231190D01*
X98099523Y-73278809D01*
X98004285Y-73278809D01*
X97909047Y-73231190D01*
X97861428Y-73135952D01*
X97861428Y-72897857D01*
X97813809Y-72802619D01*
X98242380Y-72326428D02*
X97575714Y-72326428D01*
X97766190Y-72326428D02*
X97670952Y-72278809D01*
X97623333Y-72231190D01*
X97575714Y-72135952D01*
X97575714Y-72040714D01*
X97575714Y-71850238D02*
X97575714Y-71469285D01*
X97242380Y-71707380D02*
X98099523Y-71707380D01*
X98194761Y-71659761D01*
X98242380Y-71564523D01*
X98242380Y-71469285D01*
X98242380Y-71135952D02*
X97242380Y-71135952D01*
X97623333Y-71135952D02*
X97575714Y-71040714D01*
X97575714Y-70850238D01*
X97623333Y-70755000D01*
X97670952Y-70707380D01*
X97766190Y-70659761D01*
X98051904Y-70659761D01*
X98147142Y-70707380D01*
X98194761Y-70755000D01*
X98242380Y-70850238D01*
X98242380Y-71040714D01*
X98194761Y-71135952D01*
X98194761Y-69850238D02*
X98242380Y-69945476D01*
X98242380Y-70135952D01*
X98194761Y-70231190D01*
X98099523Y-70278809D01*
X97718571Y-70278809D01*
X97623333Y-70231190D01*
X97575714Y-70135952D01*
X97575714Y-69945476D01*
X97623333Y-69850238D01*
X97718571Y-69802619D01*
X97813809Y-69802619D01*
X97909047Y-70278809D01*
X98242380Y-68945476D02*
X97718571Y-68945476D01*
X97623333Y-68993095D01*
X97575714Y-69088333D01*
X97575714Y-69278809D01*
X97623333Y-69374047D01*
X98194761Y-68945476D02*
X98242380Y-69040714D01*
X98242380Y-69278809D01*
X98194761Y-69374047D01*
X98099523Y-69421666D01*
X98004285Y-69421666D01*
X97909047Y-69374047D01*
X97861428Y-69278809D01*
X97861428Y-69040714D01*
X97813809Y-68945476D01*
X97575714Y-68612142D02*
X97575714Y-68231190D01*
X97242380Y-68469285D02*
X98099523Y-68469285D01*
X98194761Y-68421666D01*
X98242380Y-68326428D01*
X98242380Y-68231190D01*
X97242380Y-100250238D02*
X98242380Y-100012142D01*
X97528095Y-99821666D01*
X98242380Y-99631190D01*
X97242380Y-99393095D01*
X98242380Y-99012142D02*
X97575714Y-99012142D01*
X97242380Y-99012142D02*
X97290000Y-99059761D01*
X97337619Y-99012142D01*
X97290000Y-98964523D01*
X97242380Y-99012142D01*
X97337619Y-99012142D01*
X97575714Y-98535952D02*
X98242380Y-98535952D01*
X97670952Y-98535952D02*
X97623333Y-98488333D01*
X97575714Y-98393095D01*
X97575714Y-98250238D01*
X97623333Y-98155000D01*
X97718571Y-98107380D01*
X98242380Y-98107380D01*
X98242380Y-97202619D02*
X97242380Y-97202619D01*
X98194761Y-97202619D02*
X98242380Y-97297857D01*
X98242380Y-97488333D01*
X98194761Y-97583571D01*
X98147142Y-97631190D01*
X98051904Y-97678809D01*
X97766190Y-97678809D01*
X97670952Y-97631190D01*
X97623333Y-97583571D01*
X97575714Y-97488333D01*
X97575714Y-97297857D01*
X97623333Y-97202619D01*
X98242380Y-96583571D02*
X98194761Y-96678809D01*
X98099523Y-96726428D01*
X97242380Y-96726428D01*
X98242380Y-95774047D02*
X97718571Y-95774047D01*
X97623333Y-95821666D01*
X97575714Y-95916904D01*
X97575714Y-96107380D01*
X97623333Y-96202619D01*
X98194761Y-95774047D02*
X98242380Y-95869285D01*
X98242380Y-96107380D01*
X98194761Y-96202619D01*
X98099523Y-96250238D01*
X98004285Y-96250238D01*
X97909047Y-96202619D01*
X97861428Y-96107380D01*
X97861428Y-95869285D01*
X97813809Y-95774047D01*
X98194761Y-95345476D02*
X98242380Y-95250238D01*
X98242380Y-95059761D01*
X98194761Y-94964523D01*
X98099523Y-94916904D01*
X98051904Y-94916904D01*
X97956666Y-94964523D01*
X97909047Y-95059761D01*
X97909047Y-95202619D01*
X97861428Y-95297857D01*
X97766190Y-95345476D01*
X97718571Y-95345476D01*
X97623333Y-95297857D01*
X97575714Y-95202619D01*
X97575714Y-95059761D01*
X97623333Y-94964523D01*
X98194761Y-94535952D02*
X98242380Y-94440714D01*
X98242380Y-94250238D01*
X98194761Y-94155000D01*
X98099523Y-94107380D01*
X98051904Y-94107380D01*
X97956666Y-94155000D01*
X97909047Y-94250238D01*
X97909047Y-94393095D01*
X97861428Y-94488333D01*
X97766190Y-94535952D01*
X97718571Y-94535952D01*
X97623333Y-94488333D01*
X97575714Y-94393095D01*
X97575714Y-94250238D01*
X97623333Y-94155000D01*
X97718571Y-112402619D02*
X97766190Y-112259761D01*
X97813809Y-112212142D01*
X97909047Y-112164523D01*
X98051904Y-112164523D01*
X98147142Y-112212142D01*
X98194761Y-112259761D01*
X98242380Y-112355000D01*
X98242380Y-112735952D01*
X97242380Y-112735952D01*
X97242380Y-112402619D01*
X97290000Y-112307380D01*
X97337619Y-112259761D01*
X97432857Y-112212142D01*
X97528095Y-112212142D01*
X97623333Y-112259761D01*
X97670952Y-112307380D01*
X97718571Y-112402619D01*
X97718571Y-112735952D01*
X98242380Y-111307380D02*
X97718571Y-111307380D01*
X97623333Y-111355000D01*
X97575714Y-111450238D01*
X97575714Y-111640714D01*
X97623333Y-111735952D01*
X98194761Y-111307380D02*
X98242380Y-111402619D01*
X98242380Y-111640714D01*
X98194761Y-111735952D01*
X98099523Y-111783571D01*
X98004285Y-111783571D01*
X97909047Y-111735952D01*
X97861428Y-111640714D01*
X97861428Y-111402619D01*
X97813809Y-111307380D01*
X97575714Y-110974047D02*
X97575714Y-110593095D01*
X97242380Y-110831190D02*
X98099523Y-110831190D01*
X98194761Y-110783571D01*
X98242380Y-110688333D01*
X98242380Y-110593095D01*
X98242380Y-109021666D02*
X98242380Y-109497857D01*
X97242380Y-109497857D01*
X97242380Y-108497857D02*
X97242380Y-108307380D01*
X97290000Y-108212142D01*
X97385238Y-108116904D01*
X97575714Y-108069285D01*
X97909047Y-108069285D01*
X98099523Y-108116904D01*
X98194761Y-108212142D01*
X98242380Y-108307380D01*
X98242380Y-108497857D01*
X98194761Y-108593095D01*
X98099523Y-108688333D01*
X97909047Y-108735952D01*
X97575714Y-108735952D01*
X97385238Y-108688333D01*
X97290000Y-108593095D01*
X97242380Y-108497857D01*
X97242380Y-107735952D02*
X98242380Y-107497857D01*
X97528095Y-107307380D01*
X98242380Y-107116904D01*
X97242380Y-106878809D01*
X98242380Y-126951904D02*
X97766190Y-127285238D01*
X98242380Y-127523333D02*
X97242380Y-127523333D01*
X97242380Y-127142380D01*
X97290000Y-127047142D01*
X97337619Y-126999523D01*
X97432857Y-126951904D01*
X97575714Y-126951904D01*
X97670952Y-126999523D01*
X97718571Y-127047142D01*
X97766190Y-127142380D01*
X97766190Y-127523333D01*
X98194761Y-126142380D02*
X98242380Y-126237619D01*
X98242380Y-126428095D01*
X98194761Y-126523333D01*
X98099523Y-126570952D01*
X97718571Y-126570952D01*
X97623333Y-126523333D01*
X97575714Y-126428095D01*
X97575714Y-126237619D01*
X97623333Y-126142380D01*
X97718571Y-126094761D01*
X97813809Y-126094761D01*
X97909047Y-126570952D01*
X97575714Y-125761428D02*
X98242380Y-125523333D01*
X97575714Y-125285238D01*
X98242380Y-124142380D02*
X97242380Y-124142380D01*
X97242380Y-123761428D01*
X97290000Y-123666190D01*
X97337619Y-123618571D01*
X97432857Y-123570952D01*
X97575714Y-123570952D01*
X97670952Y-123618571D01*
X97718571Y-123666190D01*
X97766190Y-123761428D01*
X97766190Y-124142380D01*
X98242380Y-122999523D02*
X98194761Y-123094761D01*
X98147142Y-123142380D01*
X98051904Y-123190000D01*
X97766190Y-123190000D01*
X97670952Y-123142380D01*
X97623333Y-123094761D01*
X97575714Y-122999523D01*
X97575714Y-122856666D01*
X97623333Y-122761428D01*
X97670952Y-122713809D01*
X97766190Y-122666190D01*
X98051904Y-122666190D01*
X98147142Y-122713809D01*
X98194761Y-122761428D01*
X98242380Y-122856666D01*
X98242380Y-122999523D01*
X98242380Y-122094761D02*
X98194761Y-122190000D01*
X98099523Y-122237619D01*
X97242380Y-122237619D01*
X98242380Y-121285238D02*
X97718571Y-121285238D01*
X97623333Y-121332857D01*
X97575714Y-121428095D01*
X97575714Y-121618571D01*
X97623333Y-121713809D01*
X98194761Y-121285238D02*
X98242380Y-121380476D01*
X98242380Y-121618571D01*
X98194761Y-121713809D01*
X98099523Y-121761428D01*
X98004285Y-121761428D01*
X97909047Y-121713809D01*
X97861428Y-121618571D01*
X97861428Y-121380476D01*
X97813809Y-121285238D01*
X98242380Y-120809047D02*
X97575714Y-120809047D01*
X97766190Y-120809047D02*
X97670952Y-120761428D01*
X97623333Y-120713809D01*
X97575714Y-120618571D01*
X97575714Y-120523333D01*
X98242380Y-120190000D02*
X97575714Y-120190000D01*
X97242380Y-120190000D02*
X97290000Y-120237619D01*
X97337619Y-120190000D01*
X97290000Y-120142380D01*
X97242380Y-120190000D01*
X97337619Y-120190000D01*
X97575714Y-119856666D02*
X97575714Y-119475714D01*
X97242380Y-119713809D02*
X98099523Y-119713809D01*
X98194761Y-119666190D01*
X98242380Y-119570952D01*
X98242380Y-119475714D01*
X97575714Y-119237619D02*
X98242380Y-118999523D01*
X97575714Y-118761428D02*
X98242380Y-118999523D01*
X98480476Y-119094761D01*
X98528095Y-119142380D01*
X98575714Y-119237619D01*
X181379904Y-85288380D02*
X181379904Y-84288380D01*
X181618000Y-84288380D01*
X181760857Y-84336000D01*
X181856095Y-84431238D01*
X181903714Y-84526476D01*
X181951333Y-84716952D01*
X181951333Y-84859809D01*
X181903714Y-85050285D01*
X181856095Y-85145523D01*
X181760857Y-85240761D01*
X181618000Y-85288380D01*
X181379904Y-85288380D01*
X182284666Y-84288380D02*
X182951333Y-84288380D01*
X182522761Y-85288380D01*
X185666095Y-83188380D02*
X185666095Y-82188380D01*
X186237523Y-83188380D02*
X185808952Y-82616952D01*
X186237523Y-82188380D02*
X185666095Y-82759809D01*
X184935904Y-85288380D02*
X184935904Y-84288380D01*
X185174000Y-84288380D01*
X185316857Y-84336000D01*
X185412095Y-84431238D01*
X185459714Y-84526476D01*
X185507333Y-84716952D01*
X185507333Y-84859809D01*
X185459714Y-85050285D01*
X185412095Y-85145523D01*
X185316857Y-85240761D01*
X185174000Y-85288380D01*
X184935904Y-85288380D01*
X186078761Y-84716952D02*
X185983523Y-84669333D01*
X185935904Y-84621714D01*
X185888285Y-84526476D01*
X185888285Y-84478857D01*
X185935904Y-84383619D01*
X185983523Y-84336000D01*
X186078761Y-84288380D01*
X186269238Y-84288380D01*
X186364476Y-84336000D01*
X186412095Y-84383619D01*
X186459714Y-84478857D01*
X186459714Y-84526476D01*
X186412095Y-84621714D01*
X186364476Y-84669333D01*
X186269238Y-84716952D01*
X186078761Y-84716952D01*
X185983523Y-84764571D01*
X185935904Y-84812190D01*
X185888285Y-84907428D01*
X185888285Y-85097904D01*
X185935904Y-85193142D01*
X185983523Y-85240761D01*
X186078761Y-85288380D01*
X186269238Y-85288380D01*
X186364476Y-85240761D01*
X186412095Y-85193142D01*
X186459714Y-85097904D01*
X186459714Y-84907428D01*
X186412095Y-84812190D01*
X186364476Y-84764571D01*
X186269238Y-84716952D01*
X181602095Y-87388380D02*
X181602095Y-86388380D01*
X182173523Y-87388380D02*
X181744952Y-86816952D01*
X182173523Y-86388380D02*
X181602095Y-86959809D01*
X168092380Y-106243285D02*
X167092380Y-106243285D01*
X167092380Y-106005190D01*
X167140000Y-105862333D01*
X167235238Y-105767095D01*
X167330476Y-105719476D01*
X167520952Y-105671857D01*
X167663809Y-105671857D01*
X167854285Y-105719476D01*
X167949523Y-105767095D01*
X168044761Y-105862333D01*
X168092380Y-106005190D01*
X168092380Y-106243285D01*
X168092380Y-104719476D02*
X168092380Y-105290904D01*
X168092380Y-105005190D02*
X167092380Y-105005190D01*
X167235238Y-105100428D01*
X167330476Y-105195666D01*
X167378095Y-105290904D01*
X167092380Y-104100428D02*
X167092380Y-104005190D01*
X167140000Y-103909952D01*
X167187619Y-103862333D01*
X167282857Y-103814714D01*
X167473333Y-103767095D01*
X167711428Y-103767095D01*
X167901904Y-103814714D01*
X167997142Y-103862333D01*
X168044761Y-103909952D01*
X168092380Y-104005190D01*
X168092380Y-104100428D01*
X168044761Y-104195666D01*
X167997142Y-104243285D01*
X167901904Y-104290904D01*
X167711428Y-104338523D01*
X167473333Y-104338523D01*
X167282857Y-104290904D01*
X167187619Y-104243285D01*
X167140000Y-104195666D01*
X167092380Y-104100428D01*
X164790380Y-105608285D02*
X163790380Y-105608285D01*
X163790380Y-105370190D01*
X163838000Y-105227333D01*
X163933238Y-105132095D01*
X164028476Y-105084476D01*
X164218952Y-105036857D01*
X164361809Y-105036857D01*
X164552285Y-105084476D01*
X164647523Y-105132095D01*
X164742761Y-105227333D01*
X164790380Y-105370190D01*
X164790380Y-105608285D01*
X164790380Y-104084476D02*
X164790380Y-104655904D01*
X164790380Y-104370190D02*
X163790380Y-104370190D01*
X163933238Y-104465428D01*
X164028476Y-104560666D01*
X164076095Y-104655904D01*
X164790380Y-103132095D02*
X164790380Y-103703523D01*
X164790380Y-103417809D02*
X163790380Y-103417809D01*
X163933238Y-103513047D01*
X164028476Y-103608285D01*
X164076095Y-103703523D01*
X117141666Y-54062380D02*
X117141666Y-54776666D01*
X117094047Y-54919523D01*
X116998809Y-55014761D01*
X116855952Y-55062380D01*
X116760714Y-55062380D01*
X118141666Y-55062380D02*
X117570238Y-55062380D01*
X117855952Y-55062380D02*
X117855952Y-54062380D01*
X117760714Y-54205238D01*
X117665476Y-54300476D01*
X117570238Y-54348095D01*
X113078333Y-59856666D02*
X113554523Y-59856666D01*
X112983095Y-60142380D02*
X113316428Y-59142380D01*
X113649761Y-60142380D01*
X113983095Y-59475714D02*
X113983095Y-60142380D01*
X113983095Y-59570952D02*
X114030714Y-59523333D01*
X114125952Y-59475714D01*
X114268809Y-59475714D01*
X114364047Y-59523333D01*
X114411666Y-59618571D01*
X114411666Y-60142380D01*
X115316428Y-60142380D02*
X115316428Y-59618571D01*
X115268809Y-59523333D01*
X115173571Y-59475714D01*
X114983095Y-59475714D01*
X114887857Y-59523333D01*
X115316428Y-60094761D02*
X115221190Y-60142380D01*
X114983095Y-60142380D01*
X114887857Y-60094761D01*
X114840238Y-59999523D01*
X114840238Y-59904285D01*
X114887857Y-59809047D01*
X114983095Y-59761428D01*
X115221190Y-59761428D01*
X115316428Y-59713809D01*
X115935476Y-60142380D02*
X115840238Y-60094761D01*
X115792619Y-59999523D01*
X115792619Y-59142380D01*
X116459285Y-60142380D02*
X116364047Y-60094761D01*
X116316428Y-60047142D01*
X116268809Y-59951904D01*
X116268809Y-59666190D01*
X116316428Y-59570952D01*
X116364047Y-59523333D01*
X116459285Y-59475714D01*
X116602142Y-59475714D01*
X116697380Y-59523333D01*
X116745000Y-59570952D01*
X116792619Y-59666190D01*
X116792619Y-59951904D01*
X116745000Y-60047142D01*
X116697380Y-60094761D01*
X116602142Y-60142380D01*
X116459285Y-60142380D01*
X117649761Y-59475714D02*
X117649761Y-60285238D01*
X117602142Y-60380476D01*
X117554523Y-60428095D01*
X117459285Y-60475714D01*
X117316428Y-60475714D01*
X117221190Y-60428095D01*
X117649761Y-60094761D02*
X117554523Y-60142380D01*
X117364047Y-60142380D01*
X117268809Y-60094761D01*
X117221190Y-60047142D01*
X117173571Y-59951904D01*
X117173571Y-59666190D01*
X117221190Y-59570952D01*
X117268809Y-59523333D01*
X117364047Y-59475714D01*
X117554523Y-59475714D01*
X117649761Y-59523333D01*
X119173571Y-59142380D02*
X119173571Y-59856666D01*
X119125952Y-59999523D01*
X119030714Y-60094761D01*
X118887857Y-60142380D01*
X118792619Y-60142380D01*
X119792619Y-60142380D02*
X119697380Y-60094761D01*
X119649761Y-60047142D01*
X119602142Y-59951904D01*
X119602142Y-59666190D01*
X119649761Y-59570952D01*
X119697380Y-59523333D01*
X119792619Y-59475714D01*
X119935476Y-59475714D01*
X120030714Y-59523333D01*
X120078333Y-59570952D01*
X120125952Y-59666190D01*
X120125952Y-59951904D01*
X120078333Y-60047142D01*
X120030714Y-60094761D01*
X119935476Y-60142380D01*
X119792619Y-60142380D01*
X120459285Y-59475714D02*
X120697380Y-60142380D01*
X120935476Y-59475714D02*
X120697380Y-60142380D01*
X120602142Y-60380476D01*
X120554523Y-60428095D01*
X120459285Y-60475714D01*
X121268809Y-60094761D02*
X121364047Y-60142380D01*
X121554523Y-60142380D01*
X121649761Y-60094761D01*
X121697380Y-59999523D01*
X121697380Y-59951904D01*
X121649761Y-59856666D01*
X121554523Y-59809047D01*
X121411666Y-59809047D01*
X121316428Y-59761428D01*
X121268809Y-59666190D01*
X121268809Y-59618571D01*
X121316428Y-59523333D01*
X121411666Y-59475714D01*
X121554523Y-59475714D01*
X121649761Y-59523333D01*
X121983095Y-59475714D02*
X122364047Y-59475714D01*
X122125952Y-59142380D02*
X122125952Y-59999523D01*
X122173571Y-60094761D01*
X122268809Y-60142380D01*
X122364047Y-60142380D01*
X122697380Y-60142380D02*
X122697380Y-59475714D01*
X122697380Y-59142380D02*
X122649761Y-59190000D01*
X122697380Y-59237619D01*
X122745000Y-59190000D01*
X122697380Y-59142380D01*
X122697380Y-59237619D01*
X123602142Y-60094761D02*
X123506904Y-60142380D01*
X123316428Y-60142380D01*
X123221190Y-60094761D01*
X123173571Y-60047142D01*
X123125952Y-59951904D01*
X123125952Y-59666190D01*
X123173571Y-59570952D01*
X123221190Y-59523333D01*
X123316428Y-59475714D01*
X123506904Y-59475714D01*
X123602142Y-59523333D01*
X124030714Y-60142380D02*
X124030714Y-59142380D01*
X124125952Y-59761428D02*
X124411666Y-60142380D01*
X124411666Y-59475714D02*
X124030714Y-59856666D01*
X176426904Y-53792380D02*
X176426904Y-52792380D01*
X176998333Y-53792380D02*
X176569761Y-53220952D01*
X176998333Y-52792380D02*
X176426904Y-53363809D01*
X177379285Y-52887619D02*
X177426904Y-52840000D01*
X177522142Y-52792380D01*
X177760238Y-52792380D01*
X177855476Y-52840000D01*
X177903095Y-52887619D01*
X177950714Y-52982857D01*
X177950714Y-53078095D01*
X177903095Y-53220952D01*
X177331666Y-53792380D01*
X177950714Y-53792380D01*
X172466904Y-59190000D02*
X172371666Y-59142380D01*
X172228809Y-59142380D01*
X172085952Y-59190000D01*
X171990714Y-59285238D01*
X171943095Y-59380476D01*
X171895476Y-59570952D01*
X171895476Y-59713809D01*
X171943095Y-59904285D01*
X171990714Y-59999523D01*
X172085952Y-60094761D01*
X172228809Y-60142380D01*
X172324047Y-60142380D01*
X172466904Y-60094761D01*
X172514523Y-60047142D01*
X172514523Y-59713809D01*
X172324047Y-59713809D01*
X172895476Y-59237619D02*
X172943095Y-59190000D01*
X173038333Y-59142380D01*
X173276428Y-59142380D01*
X173371666Y-59190000D01*
X173419285Y-59237619D01*
X173466904Y-59332857D01*
X173466904Y-59428095D01*
X173419285Y-59570952D01*
X172847857Y-60142380D01*
X173466904Y-60142380D01*
X174466904Y-60142380D02*
X174133571Y-59666190D01*
X173895476Y-60142380D02*
X173895476Y-59142380D01*
X174276428Y-59142380D01*
X174371666Y-59190000D01*
X174419285Y-59237619D01*
X174466904Y-59332857D01*
X174466904Y-59475714D01*
X174419285Y-59570952D01*
X174371666Y-59618571D01*
X174276428Y-59666190D01*
X173895476Y-59666190D01*
X174895476Y-59761428D02*
X175657380Y-59761428D01*
X176657380Y-60142380D02*
X176085952Y-60142380D01*
X176371666Y-60142380D02*
X176371666Y-59142380D01*
X176276428Y-59285238D01*
X176181190Y-59380476D01*
X176085952Y-59428095D01*
X177038333Y-59856666D02*
X177514523Y-59856666D01*
X176943095Y-60142380D02*
X177276428Y-59142380D01*
X177609761Y-60142380D01*
X178705000Y-60142380D02*
X178705000Y-59142380D01*
X179085952Y-59142380D01*
X179181190Y-59190000D01*
X179228809Y-59237619D01*
X179276428Y-59332857D01*
X179276428Y-59475714D01*
X179228809Y-59570952D01*
X179181190Y-59618571D01*
X179085952Y-59666190D01*
X178705000Y-59666190D01*
X179847857Y-60142380D02*
X179752619Y-60094761D01*
X179705000Y-60047142D01*
X179657380Y-59951904D01*
X179657380Y-59666190D01*
X179705000Y-59570952D01*
X179752619Y-59523333D01*
X179847857Y-59475714D01*
X179990714Y-59475714D01*
X180085952Y-59523333D01*
X180133571Y-59570952D01*
X180181190Y-59666190D01*
X180181190Y-59951904D01*
X180133571Y-60047142D01*
X180085952Y-60094761D01*
X179990714Y-60142380D01*
X179847857Y-60142380D01*
X180514523Y-59475714D02*
X180705000Y-60142380D01*
X180895476Y-59666190D01*
X181085952Y-60142380D01*
X181276428Y-59475714D01*
X182038333Y-60094761D02*
X181943095Y-60142380D01*
X181752619Y-60142380D01*
X181657380Y-60094761D01*
X181609761Y-59999523D01*
X181609761Y-59618571D01*
X181657380Y-59523333D01*
X181752619Y-59475714D01*
X181943095Y-59475714D01*
X182038333Y-59523333D01*
X182085952Y-59618571D01*
X182085952Y-59713809D01*
X181609761Y-59809047D01*
X182514523Y-60142380D02*
X182514523Y-59475714D01*
X182514523Y-59666190D02*
X182562142Y-59570952D01*
X182609761Y-59523333D01*
X182705000Y-59475714D01*
X182800238Y-59475714D01*
X184466904Y-60142380D02*
X184133571Y-59666190D01*
X183895476Y-60142380D02*
X183895476Y-59142380D01*
X184276428Y-59142380D01*
X184371666Y-59190000D01*
X184419285Y-59237619D01*
X184466904Y-59332857D01*
X184466904Y-59475714D01*
X184419285Y-59570952D01*
X184371666Y-59618571D01*
X184276428Y-59666190D01*
X183895476Y-59666190D01*
X185276428Y-60094761D02*
X185181190Y-60142380D01*
X184990714Y-60142380D01*
X184895476Y-60094761D01*
X184847857Y-59999523D01*
X184847857Y-59618571D01*
X184895476Y-59523333D01*
X184990714Y-59475714D01*
X185181190Y-59475714D01*
X185276428Y-59523333D01*
X185324047Y-59618571D01*
X185324047Y-59713809D01*
X184847857Y-59809047D01*
X185895476Y-60142380D02*
X185800238Y-60094761D01*
X185752619Y-59999523D01*
X185752619Y-59142380D01*
X186705000Y-60142380D02*
X186705000Y-59618571D01*
X186657380Y-59523333D01*
X186562142Y-59475714D01*
X186371666Y-59475714D01*
X186276428Y-59523333D01*
X186705000Y-60094761D02*
X186609761Y-60142380D01*
X186371666Y-60142380D01*
X186276428Y-60094761D01*
X186228809Y-59999523D01*
X186228809Y-59904285D01*
X186276428Y-59809047D01*
X186371666Y-59761428D01*
X186609761Y-59761428D01*
X186705000Y-59713809D01*
X187085952Y-59475714D02*
X187324047Y-60142380D01*
X187562142Y-59475714D02*
X187324047Y-60142380D01*
X187228809Y-60380476D01*
X187181190Y-60428095D01*
X187085952Y-60475714D01*
X118578333Y-98877380D02*
X118245000Y-98401190D01*
X118006904Y-98877380D02*
X118006904Y-97877380D01*
X118387857Y-97877380D01*
X118483095Y-97925000D01*
X118530714Y-97972619D01*
X118578333Y-98067857D01*
X118578333Y-98210714D01*
X118530714Y-98305952D01*
X118483095Y-98353571D01*
X118387857Y-98401190D01*
X118006904Y-98401190D01*
X118911666Y-97877380D02*
X119530714Y-97877380D01*
X119197380Y-98258333D01*
X119340238Y-98258333D01*
X119435476Y-98305952D01*
X119483095Y-98353571D01*
X119530714Y-98448809D01*
X119530714Y-98686904D01*
X119483095Y-98782142D01*
X119435476Y-98829761D01*
X119340238Y-98877380D01*
X119054523Y-98877380D01*
X118959285Y-98829761D01*
X118911666Y-98782142D01*
X107132380Y-126531666D02*
X106656190Y-126865000D01*
X107132380Y-127103095D02*
X106132380Y-127103095D01*
X106132380Y-126722142D01*
X106180000Y-126626904D01*
X106227619Y-126579285D01*
X106322857Y-126531666D01*
X106465714Y-126531666D01*
X106560952Y-126579285D01*
X106608571Y-126626904D01*
X106656190Y-126722142D01*
X106656190Y-127103095D01*
X106465714Y-125674523D02*
X107132380Y-125674523D01*
X106084761Y-125912619D02*
X106799047Y-126150714D01*
X106799047Y-125531666D01*
X166243095Y-70572380D02*
X166243095Y-71381904D01*
X166290714Y-71477142D01*
X166338333Y-71524761D01*
X166433571Y-71572380D01*
X166624047Y-71572380D01*
X166719285Y-71524761D01*
X166766904Y-71477142D01*
X166814523Y-71381904D01*
X166814523Y-70572380D01*
X167719285Y-70905714D02*
X167719285Y-71572380D01*
X167481190Y-70524761D02*
X167243095Y-71239047D01*
X167862142Y-71239047D01*
X130492380Y-115903333D02*
X131206666Y-115903333D01*
X131349523Y-115950952D01*
X131444761Y-116046190D01*
X131492380Y-116189047D01*
X131492380Y-116284285D01*
X130825714Y-114998571D02*
X131492380Y-114998571D01*
X130444761Y-115236666D02*
X131159047Y-115474761D01*
X131159047Y-114855714D01*
X136977380Y-57729285D02*
X135977380Y-57729285D01*
X135977380Y-57491190D01*
X136025000Y-57348333D01*
X136120238Y-57253095D01*
X136215476Y-57205476D01*
X136405952Y-57157857D01*
X136548809Y-57157857D01*
X136739285Y-57205476D01*
X136834523Y-57253095D01*
X136929761Y-57348333D01*
X136977380Y-57491190D01*
X136977380Y-57729285D01*
X136977380Y-56205476D02*
X136977380Y-56776904D01*
X136977380Y-56491190D02*
X135977380Y-56491190D01*
X136120238Y-56586428D01*
X136215476Y-56681666D01*
X136263095Y-56776904D01*
X136072619Y-55824523D02*
X136025000Y-55776904D01*
X135977380Y-55681666D01*
X135977380Y-55443571D01*
X136025000Y-55348333D01*
X136072619Y-55300714D01*
X136167857Y-55253095D01*
X136263095Y-55253095D01*
X136405952Y-55300714D01*
X136977380Y-55872142D01*
X136977380Y-55253095D01*
X180864285Y-72207380D02*
X180864285Y-71207380D01*
X181245238Y-71207380D01*
X181340476Y-71255000D01*
X181388095Y-71302619D01*
X181435714Y-71397857D01*
X181435714Y-71540714D01*
X181388095Y-71635952D01*
X181340476Y-71683571D01*
X181245238Y-71731190D01*
X180864285Y-71731190D01*
X181721428Y-71207380D02*
X182292857Y-71207380D01*
X182007142Y-72207380D02*
X182007142Y-71207380D01*
X183197619Y-72112142D02*
X183150000Y-72159761D01*
X183007142Y-72207380D01*
X182911904Y-72207380D01*
X182769047Y-72159761D01*
X182673809Y-72064523D01*
X182626190Y-71969285D01*
X182578571Y-71778809D01*
X182578571Y-71635952D01*
X182626190Y-71445476D01*
X182673809Y-71350238D01*
X182769047Y-71255000D01*
X182911904Y-71207380D01*
X183007142Y-71207380D01*
X183150000Y-71255000D01*
X183197619Y-71302619D01*
X185673809Y-72207380D02*
X185102380Y-72207380D01*
X185388095Y-72207380D02*
X185388095Y-71207380D01*
X185292857Y-71350238D01*
X185197619Y-71445476D01*
X185102380Y-71493095D01*
X186530952Y-71540714D02*
X186530952Y-72207380D01*
X186292857Y-71159761D02*
X186054761Y-71874047D01*
X186673809Y-71874047D01*
X187007142Y-71921666D02*
X187483333Y-71921666D01*
X186911904Y-72207380D02*
X187245238Y-71207380D01*
X187578571Y-72207380D01*
M02*
