G04 #@! TF.GenerationSoftware,KiCad,Pcbnew,(5.1.9)-1*
G04 #@! TF.CreationDate,2023-11-08T13:31:57-08:00*
G04 #@! TF.ProjectId,DSAMKVIE,4453414d-4b56-4494-952e-6b696361645f,rev?*
G04 #@! TF.SameCoordinates,Original*
G04 #@! TF.FileFunction,Copper,L1,Top*
G04 #@! TF.FilePolarity,Positive*
%FSLAX46Y46*%
G04 Gerber Fmt 4.6, Leading zero omitted, Abs format (unit mm)*
G04 Created by KiCad (PCBNEW (5.1.9)-1) date 2023-11-08 13:31:57*
%MOMM*%
%LPD*%
G01*
G04 APERTURE LIST*
G04 #@! TA.AperFunction,ComponentPad*
%ADD10C,2.600000*%
G04 #@! TD*
G04 #@! TA.AperFunction,ComponentPad*
%ADD11R,2.600000X2.600000*%
G04 #@! TD*
G04 #@! TA.AperFunction,ComponentPad*
%ADD12R,1.600000X1.600000*%
G04 #@! TD*
G04 #@! TA.AperFunction,ComponentPad*
%ADD13O,1.600000X1.600000*%
G04 #@! TD*
G04 #@! TA.AperFunction,ComponentPad*
%ADD14C,1.600000*%
G04 #@! TD*
G04 #@! TA.AperFunction,ComponentPad*
%ADD15C,3.000000*%
G04 #@! TD*
G04 #@! TA.AperFunction,ComponentPad*
%ADD16R,3.000000X3.000000*%
G04 #@! TD*
G04 #@! TA.AperFunction,ComponentPad*
%ADD17C,1.800000*%
G04 #@! TD*
G04 #@! TA.AperFunction,ComponentPad*
%ADD18R,1.800000X1.800000*%
G04 #@! TD*
G04 #@! TA.AperFunction,ComponentPad*
%ADD19R,1.700000X1.700000*%
G04 #@! TD*
G04 #@! TA.AperFunction,ComponentPad*
%ADD20O,1.700000X1.700000*%
G04 #@! TD*
G04 #@! TA.AperFunction,SMDPad,CuDef*
%ADD21R,2.540000X1.520000*%
G04 #@! TD*
G04 #@! TA.AperFunction,ComponentPad*
%ADD22C,2.000000*%
G04 #@! TD*
G04 #@! TA.AperFunction,ComponentPad*
%ADD23R,2.000000X2.000000*%
G04 #@! TD*
G04 #@! TA.AperFunction,ComponentPad*
%ADD24C,1.700000*%
G04 #@! TD*
G04 #@! TA.AperFunction,ComponentPad*
%ADD25R,2.200000X2.200000*%
G04 #@! TD*
G04 #@! TA.AperFunction,ComponentPad*
%ADD26O,2.200000X2.200000*%
G04 #@! TD*
G04 #@! TA.AperFunction,ComponentPad*
%ADD27R,1.905000X2.000000*%
G04 #@! TD*
G04 #@! TA.AperFunction,ComponentPad*
%ADD28O,1.905000X2.000000*%
G04 #@! TD*
G04 #@! TA.AperFunction,ViaPad*
%ADD29C,0.800000*%
G04 #@! TD*
G04 #@! TA.AperFunction,Conductor*
%ADD30C,0.508000*%
G04 #@! TD*
G04 #@! TA.AperFunction,Conductor*
%ADD31C,0.762000*%
G04 #@! TD*
G04 #@! TA.AperFunction,Conductor*
%ADD32C,0.254000*%
G04 #@! TD*
G04 #@! TA.AperFunction,Conductor*
%ADD33C,0.250000*%
G04 #@! TD*
G04 APERTURE END LIST*
D10*
X178308000Y-134112000D03*
X173228000Y-134112000D03*
X168148000Y-134112000D03*
X163068000Y-134112000D03*
X157988000Y-134112000D03*
X152908000Y-134112000D03*
D11*
X147828000Y-134112000D03*
D12*
X120015000Y-109855000D03*
D13*
X153035000Y-102235000D03*
X122555000Y-109855000D03*
X150495000Y-102235000D03*
X125095000Y-109855000D03*
X147955000Y-102235000D03*
X127635000Y-109855000D03*
X145415000Y-102235000D03*
X130175000Y-109855000D03*
X142875000Y-102235000D03*
X132715000Y-109855000D03*
X140335000Y-102235000D03*
X135255000Y-109855000D03*
X137795000Y-102235000D03*
X137795000Y-109855000D03*
X135255000Y-102235000D03*
X140335000Y-109855000D03*
X132715000Y-102235000D03*
X142875000Y-109855000D03*
X130175000Y-102235000D03*
X145415000Y-109855000D03*
X127635000Y-102235000D03*
X147955000Y-109855000D03*
X125095000Y-102235000D03*
X150495000Y-109855000D03*
X122555000Y-102235000D03*
X153035000Y-109855000D03*
X120015000Y-102235000D03*
X139065000Y-81280000D03*
X141605000Y-81280000D03*
X144145000Y-81280000D03*
X146685000Y-81280000D03*
X149225000Y-81280000D03*
D12*
X151765000Y-81280000D03*
D13*
X151765000Y-86360000D03*
X149225000Y-86360000D03*
X146685000Y-86360000D03*
X144145000Y-86360000D03*
X141605000Y-86360000D03*
D12*
X139065000Y-86360000D03*
D14*
X115650000Y-119380000D03*
X120650000Y-119380000D03*
X109855000Y-83780000D03*
X109855000Y-81280000D03*
X135215000Y-93980000D03*
X132715000Y-93980000D03*
X100370000Y-65405000D03*
X102870000Y-65405000D03*
X133310000Y-57150000D03*
X130810000Y-57150000D03*
X142835000Y-118745000D03*
X140335000Y-118745000D03*
X140970000Y-130770000D03*
X140970000Y-128270000D03*
X138470000Y-98425000D03*
X140970000Y-98425000D03*
D15*
X181610000Y-94615000D03*
D16*
X181610000Y-99695000D03*
D17*
X102870000Y-84455000D03*
D18*
X100330000Y-84455000D03*
D19*
X110490000Y-93345000D03*
D20*
X110490000Y-95885000D03*
X110490000Y-98425000D03*
D13*
X144780000Y-122555000D03*
D14*
X137160000Y-122555000D03*
D20*
X147955000Y-70485000D03*
X147955000Y-67945000D03*
X147955000Y-65405000D03*
D19*
X147955000Y-62865000D03*
D20*
X124460000Y-70485000D03*
X124460000Y-67945000D03*
X124460000Y-65405000D03*
D19*
X124460000Y-62865000D03*
D12*
X110490000Y-104775000D03*
D13*
X110490000Y-107315000D03*
X110490000Y-109855000D03*
X110490000Y-112395000D03*
X110490000Y-114935000D03*
X110490000Y-117475000D03*
D21*
X116080000Y-70485000D03*
X132840000Y-70485000D03*
X116080000Y-67945000D03*
X132840000Y-67945000D03*
X116080000Y-65405000D03*
X132840000Y-65405000D03*
X116080000Y-62865000D03*
X132840000Y-62865000D03*
D13*
X183388000Y-114808000D03*
D14*
X183388000Y-122428000D03*
D13*
X113665000Y-86360000D03*
X116205000Y-86360000D03*
X118745000Y-86360000D03*
X121285000Y-86360000D03*
X123825000Y-86360000D03*
X126365000Y-86360000D03*
X128905000Y-86360000D03*
X131445000Y-86360000D03*
D12*
X133985000Y-86360000D03*
D22*
X163068000Y-86888000D03*
D23*
X163068000Y-94488000D03*
D13*
X126365000Y-98425000D03*
D14*
X133985000Y-98425000D03*
D13*
X133985000Y-81280000D03*
X131445000Y-81280000D03*
X128905000Y-81280000D03*
X126365000Y-81280000D03*
X123825000Y-81280000D03*
X121285000Y-81280000D03*
X118745000Y-81280000D03*
X116205000Y-81280000D03*
D12*
X113665000Y-81280000D03*
D13*
X161036000Y-108204000D03*
D12*
X161036000Y-100584000D03*
D13*
X157734000Y-108204000D03*
D12*
X157734000Y-100584000D03*
D20*
X123825000Y-130175000D03*
X123825000Y-132715000D03*
D19*
X123825000Y-135255000D03*
D20*
X117475000Y-135255000D03*
X114935000Y-135255000D03*
D19*
X112395000Y-135255000D03*
D20*
X112395000Y-128905000D03*
X112395000Y-126365000D03*
D19*
X112395000Y-123825000D03*
D20*
X118745000Y-123825000D03*
X121285000Y-123825000D03*
D19*
X123825000Y-123825000D03*
D20*
X135890000Y-128270000D03*
X135890000Y-130810000D03*
D19*
X135890000Y-133350000D03*
D20*
X131445000Y-128270000D03*
X131445000Y-130810000D03*
D19*
X131445000Y-133350000D03*
D20*
X105410000Y-60960000D03*
X102870000Y-60960000D03*
D19*
X100330000Y-60960000D03*
D20*
X105410000Y-56515000D03*
X102870000Y-56515000D03*
D19*
X100330000Y-56515000D03*
D24*
X143510000Y-114300000D03*
X138510000Y-114300000D03*
D12*
X158242000Y-119380000D03*
D13*
X176022000Y-111760000D03*
X160782000Y-119380000D03*
X173482000Y-111760000D03*
X163322000Y-119380000D03*
X170942000Y-111760000D03*
X165862000Y-119380000D03*
X168402000Y-111760000D03*
X168402000Y-119380000D03*
X165862000Y-111760000D03*
X170942000Y-119380000D03*
X163322000Y-111760000D03*
X173482000Y-119380000D03*
X160782000Y-111760000D03*
X176022000Y-119380000D03*
X158242000Y-111760000D03*
D21*
X139575000Y-70485000D03*
X156335000Y-70485000D03*
X139575000Y-67945000D03*
X156335000Y-67945000D03*
X139575000Y-65405000D03*
X156335000Y-65405000D03*
X139575000Y-62865000D03*
X156335000Y-62865000D03*
D22*
X153185000Y-53975000D03*
X153185000Y-58475000D03*
X146685000Y-53975000D03*
X146685000Y-58475000D03*
D14*
X147955000Y-119300000D03*
X147955000Y-114300000D03*
X133985000Y-114300000D03*
X133985000Y-119300000D03*
D23*
X186055000Y-76200000D03*
D22*
X181055000Y-76200000D03*
D14*
X163155000Y-62230000D03*
D12*
X160655000Y-62230000D03*
D18*
X100330000Y-71755000D03*
D17*
X102870000Y-71755000D03*
X102870000Y-97155000D03*
D18*
X100330000Y-97155000D03*
X100330000Y-109855000D03*
D17*
X102870000Y-109855000D03*
D18*
X100330000Y-122555000D03*
D17*
X102870000Y-122555000D03*
D25*
X185928000Y-84836000D03*
D26*
X196088000Y-84836000D03*
X171704000Y-84836000D03*
D25*
X181864000Y-84836000D03*
D13*
X167640000Y-108204000D03*
D12*
X167640000Y-100584000D03*
X164338000Y-100584000D03*
D13*
X164338000Y-108204000D03*
D19*
X123825000Y-56515000D03*
D20*
X121285000Y-56515000D03*
X118745000Y-56515000D03*
X116205000Y-56515000D03*
X113665000Y-56515000D03*
D22*
X167205000Y-55690000D03*
X167205000Y-63690000D03*
X182205000Y-55690000D03*
X182205000Y-63690000D03*
X187205000Y-55690000D03*
X187205000Y-63690000D03*
X192205000Y-55690000D03*
X192205000Y-63690000D03*
D14*
X122555000Y-98425000D03*
D13*
X114935000Y-98425000D03*
X106680000Y-122555000D03*
D14*
X106680000Y-130175000D03*
D27*
X169545000Y-68580000D03*
D28*
X167005000Y-68580000D03*
X164465000Y-68580000D03*
D19*
X128270000Y-115570000D03*
D20*
X125730000Y-115570000D03*
X123190000Y-115570000D03*
X120650000Y-115570000D03*
X118110000Y-115570000D03*
X115570000Y-115570000D03*
D18*
X142240000Y-56515000D03*
D17*
X139700000Y-56515000D03*
D22*
X189650000Y-68580000D03*
X178650000Y-68580000D03*
D29*
X128270000Y-93980000D03*
X101600000Y-91440000D03*
X148590000Y-96520000D03*
X151130000Y-95250000D03*
X102870000Y-88900000D03*
X102870000Y-88900000D03*
X152400000Y-95250000D03*
X127000000Y-65405000D03*
X126365000Y-106680000D03*
X109220000Y-74930000D03*
X110490000Y-76200000D03*
X139065000Y-104140000D03*
X139065000Y-105410000D03*
X107315000Y-92075000D03*
X146685000Y-95885000D03*
X107315000Y-70485000D03*
X113030000Y-70485000D03*
X130175000Y-66675000D03*
X139065000Y-93980000D03*
X128905000Y-70485000D03*
X150495000Y-73660000D03*
X140335000Y-93980000D03*
X103505000Y-86995000D03*
X128270000Y-69215000D03*
X113665000Y-78105000D03*
X110490000Y-78105000D03*
X137795000Y-93980000D03*
X112395000Y-126365000D03*
X106997500Y-77787500D03*
X113665000Y-79375000D03*
X106045000Y-86360000D03*
D30*
X167005000Y-70088000D02*
X165393999Y-71699001D01*
X167005000Y-68580000D02*
X167005000Y-70088000D01*
D31*
X139575000Y-67945000D02*
X140110802Y-67945000D01*
D30*
X113563080Y-55210999D02*
X101634001Y-55210999D01*
X101634001Y-55210999D02*
X100330000Y-56515000D01*
X113665000Y-55312919D02*
X113563080Y-55210999D01*
X113665000Y-56515000D02*
X113665000Y-55312919D01*
D31*
X137723999Y-66629801D02*
X139039198Y-67945000D01*
X137723999Y-61603999D02*
X137723999Y-66629801D01*
X133270000Y-57150000D02*
X137723999Y-61603999D01*
X133270000Y-58500000D02*
X133270000Y-57150000D01*
X128270000Y-59690000D02*
X132080000Y-59690000D01*
X100330000Y-56515000D02*
X100330000Y-54903000D01*
X101893000Y-53340000D02*
X125730000Y-53340000D01*
X132080000Y-59690000D02*
X133270000Y-58500000D01*
X100330000Y-54903000D02*
X101893000Y-53340000D01*
X125730000Y-53340000D02*
X125730000Y-57150000D01*
X125730000Y-57150000D02*
X128270000Y-59690000D01*
X139039198Y-67945000D02*
X139575000Y-67945000D01*
X139575000Y-67945000D02*
X147955000Y-67945000D01*
X116080000Y-67945000D02*
X124460000Y-67945000D01*
X143430000Y-119300000D02*
X142875000Y-118745000D01*
X147955000Y-119300000D02*
X143430000Y-119300000D01*
X134811001Y-120126001D02*
X133985000Y-119300000D01*
X141493999Y-120126001D02*
X134811001Y-120126001D01*
X142875000Y-118745000D02*
X141493999Y-120126001D01*
X130255000Y-115570000D02*
X133985000Y-119300000D01*
X128270000Y-115570000D02*
X130255000Y-115570000D01*
X131525000Y-133270000D02*
X131445000Y-133350000D01*
X140970000Y-133270000D02*
X131525000Y-133270000D01*
X144780000Y-72390000D02*
X164957000Y-72390000D01*
X144216001Y-71826001D02*
X144780000Y-72390000D01*
X137840199Y-71826001D02*
X144216001Y-71826001D01*
X164957000Y-72390000D02*
X167005000Y-70342000D01*
X137723999Y-71709801D02*
X137840199Y-71826001D01*
X137723999Y-69260199D02*
X137723999Y-71709801D01*
X167005000Y-70342000D02*
X167005000Y-68580000D01*
X139039198Y-67945000D02*
X137723999Y-69260199D01*
X133985000Y-86360000D02*
X139065000Y-86360000D01*
X110490000Y-93345000D02*
X114935000Y-93345000D01*
X114935000Y-95250000D02*
X114935000Y-98425000D01*
X114935000Y-93345000D02*
X114935000Y-95250000D01*
X140970000Y-133270000D02*
X140970000Y-130770000D01*
X142875000Y-128865000D02*
X140970000Y-130770000D01*
X142875000Y-118745000D02*
X142875000Y-128865000D01*
X100330000Y-65325000D02*
X100330000Y-56515000D01*
X102315000Y-67310000D02*
X100330000Y-65325000D01*
X105410000Y-67310000D02*
X102315000Y-67310000D01*
X113413000Y-66675000D02*
X106045000Y-66675000D01*
X114683000Y-67945000D02*
X113413000Y-66675000D01*
X106045000Y-66675000D02*
X105410000Y-67310000D01*
X116715000Y-67945000D02*
X114683000Y-67945000D01*
X133833999Y-95361001D02*
X135215000Y-93980000D01*
X115046001Y-95361001D02*
X133833999Y-95361001D01*
X114935000Y-95250000D02*
X115046001Y-95361001D01*
X103505000Y-140335000D02*
X141605000Y-140335000D01*
X141605000Y-140335000D02*
X147828000Y-134112000D01*
X100330000Y-137160000D02*
X103505000Y-140335000D01*
X100330000Y-122555000D02*
X100330000Y-137160000D01*
X152349882Y-130770000D02*
X140970000Y-130770000D01*
X154789001Y-133209119D02*
X152349882Y-130770000D01*
X153810881Y-135993001D02*
X154789001Y-135014881D01*
X154789001Y-135014881D02*
X154789001Y-133209119D01*
X149709001Y-135993001D02*
X153810881Y-135993001D01*
X147828000Y-134112000D02*
X149709001Y-135993001D01*
X109058999Y-103343999D02*
X110490000Y-104775000D01*
X109058999Y-94776001D02*
X109058999Y-103343999D01*
X110490000Y-93345000D02*
X109058999Y-94776001D01*
X142875000Y-113665000D02*
X143510000Y-114300000D01*
X142875000Y-109855000D02*
X142875000Y-113665000D01*
X147955000Y-114300000D02*
X143510000Y-114300000D01*
X133985000Y-114300000D02*
X138510000Y-114300000D01*
X138510000Y-114300000D02*
X138510000Y-112950000D01*
X138510000Y-112950000D02*
X140335000Y-111125000D01*
X140335000Y-111125000D02*
X140335000Y-109855000D01*
D32*
X135255000Y-99695000D02*
X133985000Y-98425000D01*
X135255000Y-99695000D02*
X156337000Y-99695000D01*
X156337000Y-99695000D02*
X160020000Y-96012000D01*
X177927000Y-96012000D02*
X181610000Y-99695000D01*
X160020000Y-96012000D02*
X177927000Y-96012000D01*
D30*
X181610000Y-106172000D02*
X176022000Y-111760000D01*
X181610000Y-99695000D02*
X181610000Y-106172000D01*
X102870000Y-62865000D02*
X102870000Y-56515000D01*
D31*
X164465000Y-68580000D02*
X164465000Y-68532500D01*
X160655000Y-63792000D02*
X160655000Y-62230000D01*
X160655000Y-66484500D02*
X160655000Y-63792000D01*
X162750500Y-68580000D02*
X160655000Y-66484500D01*
X164465000Y-68580000D02*
X162750500Y-68580000D01*
D33*
X160655000Y-61180000D02*
X160655000Y-62230000D01*
X160655000Y-58659998D02*
X160655000Y-61180000D01*
D30*
X124460000Y-57150000D02*
X123825000Y-56515000D01*
X123825000Y-57873000D02*
X118745000Y-62953000D01*
X123825000Y-56515000D02*
X123825000Y-57873000D01*
X118745000Y-62953000D02*
X118745000Y-65405000D01*
X118745000Y-65405000D02*
X118110000Y-65405000D01*
X116715000Y-65405000D02*
X118110000Y-65405000D01*
X118110000Y-65405000D02*
X118493000Y-65405000D01*
D31*
X141426001Y-64063999D02*
X141426001Y-61640199D01*
X140085000Y-65405000D02*
X141426001Y-64063999D01*
X141426001Y-61640199D02*
X135554801Y-55768999D01*
X139575000Y-65405000D02*
X140085000Y-65405000D01*
D32*
X146685000Y-53975000D02*
X153185000Y-53975000D01*
X155970002Y-53975000D02*
X160655000Y-58659998D01*
X153185000Y-53975000D02*
X155970002Y-53975000D01*
D31*
X139575000Y-65405000D02*
X147955000Y-65405000D01*
X116080000Y-65405000D02*
X124460000Y-65405000D01*
X140335000Y-102235000D02*
X140335000Y-104775000D01*
X131445000Y-128270000D02*
X140970000Y-128270000D01*
X115046001Y-79898999D02*
X113665000Y-81280000D01*
X117163883Y-79898999D02*
X115046001Y-79898999D01*
X125891001Y-71171881D02*
X117163883Y-79898999D01*
X125891001Y-66836001D02*
X125891001Y-71171881D01*
X124460000Y-65405000D02*
X125891001Y-66836001D01*
X171450000Y-73660000D02*
X169545000Y-73660000D01*
X171450000Y-66040000D02*
X171450000Y-73660000D01*
X164465000Y-66818000D02*
X165243000Y-66040000D01*
X165243000Y-66040000D02*
X171450000Y-66040000D01*
X164465000Y-68580000D02*
X164465000Y-66818000D01*
X143966001Y-61523999D02*
X140085000Y-65405000D01*
X144530000Y-60960000D02*
X143966001Y-61523999D01*
X157823000Y-60960000D02*
X144530000Y-60960000D01*
X159093000Y-62230000D02*
X157823000Y-60960000D01*
X160655000Y-62230000D02*
X159093000Y-62230000D01*
X110490000Y-81280000D02*
X113665000Y-81280000D01*
X135255000Y-109855000D02*
X137160000Y-107950000D01*
X137160000Y-107950000D02*
X140335000Y-107950000D01*
X140335000Y-107950000D02*
X140335000Y-104775000D01*
D30*
X123190000Y-115570000D02*
X135890000Y-128270000D01*
D31*
X132191001Y-55768999D02*
X130810000Y-57150000D01*
X135554801Y-55768999D02*
X132191001Y-55768999D01*
D30*
X103505000Y-64770000D02*
X102870000Y-65405000D01*
X109855000Y-64770000D02*
X103505000Y-64770000D01*
X110490000Y-65405000D02*
X109855000Y-64770000D01*
X116080000Y-65405000D02*
X110490000Y-65405000D01*
X102870000Y-62865000D02*
X102870000Y-65405000D01*
D31*
X161925000Y-81280000D02*
X169545000Y-73660000D01*
X151765000Y-81280000D02*
X161925000Y-81280000D01*
D32*
X128270000Y-93980000D02*
X132715000Y-93980000D01*
X122555000Y-98425000D02*
X126365000Y-98425000D01*
X122555000Y-98425000D02*
X122555000Y-102235000D01*
D33*
X101970001Y-72654999D02*
X102870000Y-71755000D01*
X98654989Y-111201401D02*
X98654989Y-75970011D01*
X98654989Y-75970011D02*
X101970001Y-72654999D01*
D32*
X109527011Y-116512011D02*
X110490000Y-117475000D01*
X103962771Y-116512011D02*
X109527011Y-116512011D01*
X103655760Y-116205000D02*
X103962771Y-116512011D01*
X103505000Y-116205000D02*
X103655760Y-116205000D01*
X98654989Y-111354989D02*
X103505000Y-116205000D01*
X98654989Y-111201401D02*
X98654989Y-111354989D01*
D33*
X101970001Y-85354999D02*
X102870000Y-84455000D01*
X99104999Y-88220001D02*
X101970001Y-85354999D01*
X99104999Y-111015001D02*
X99104999Y-88220001D01*
D32*
X103021398Y-114935000D02*
X99106999Y-111020601D01*
X110490000Y-114935000D02*
X103021398Y-114935000D01*
D33*
X102235000Y-90805000D02*
X107950000Y-90805000D01*
X107950000Y-90805000D02*
X108585000Y-91440000D01*
X108585000Y-91440000D02*
X146685000Y-91440000D01*
X101600000Y-91440000D02*
X102235000Y-90805000D01*
X146685000Y-91440000D02*
X148590000Y-93345000D01*
D32*
X148590000Y-93345000D02*
X148590000Y-96520000D01*
X148590000Y-96520000D02*
X148590000Y-96520000D01*
D33*
X102870000Y-98427792D02*
X102870000Y-97155000D01*
X102870000Y-105906370D02*
X102870000Y-98427792D01*
D32*
X106818630Y-109855000D02*
X102870000Y-105906370D01*
X110490000Y-109855000D02*
X106818630Y-109855000D01*
D33*
X100330000Y-90170000D02*
X108585000Y-90170000D01*
X100330000Y-97155000D02*
X100330000Y-90170000D01*
X108585000Y-90170000D02*
X109220000Y-90805000D01*
X109220000Y-90805000D02*
X147955000Y-90805000D01*
X151130000Y-95250000D02*
X151130000Y-95250000D01*
D32*
X151130000Y-95250000D02*
X151130000Y-93980000D01*
X151130000Y-93980000D02*
X147955000Y-90805000D01*
X105410000Y-112395000D02*
X102870000Y-109855000D01*
X110490000Y-112395000D02*
X105410000Y-112395000D01*
X102870000Y-88900000D02*
X108585000Y-88900000D01*
X108585000Y-88900000D02*
X109220000Y-89535000D01*
X109220000Y-89535000D02*
X148590000Y-89535000D01*
X152400000Y-93345000D02*
X152400000Y-95250000D01*
X148590000Y-89535000D02*
X152400000Y-93345000D01*
X106680000Y-135523724D02*
X106680000Y-130175000D01*
X107588277Y-136432001D02*
X106680000Y-135523724D01*
X141443999Y-136432001D02*
X107588277Y-136432001D01*
X145391001Y-132484999D02*
X141443999Y-136432001D01*
X151280999Y-132484999D02*
X145391001Y-132484999D01*
X152908000Y-134112000D02*
X151280999Y-132484999D01*
D30*
X169300000Y-61595000D02*
X167205000Y-63690000D01*
X175260000Y-61595000D02*
X169300000Y-61595000D01*
X183642000Y-69977000D02*
X175260000Y-61595000D01*
X183642000Y-84836000D02*
X183642000Y-69977000D01*
X181864000Y-84836000D02*
X183642000Y-84836000D01*
X183642000Y-84836000D02*
X185928000Y-84836000D01*
X167147999Y-111158079D02*
X167147999Y-124475999D01*
X167640000Y-110666078D02*
X167147999Y-111158079D01*
X167640000Y-108204000D02*
X167640000Y-110666078D01*
X176784000Y-134112000D02*
X178308000Y-134112000D01*
X167147999Y-124475999D02*
X176784000Y-134112000D01*
X164576001Y-111158079D02*
X164576001Y-125999999D01*
X164338000Y-110920078D02*
X164576001Y-111158079D01*
X164338000Y-108204000D02*
X164338000Y-110920078D01*
X172688002Y-134112000D02*
X173228000Y-134112000D01*
X164576001Y-125999999D02*
X172688002Y-134112000D01*
D32*
X112395000Y-123825000D02*
X116205000Y-123825000D01*
X122721000Y-135255000D02*
X123825000Y-135255000D01*
X116205000Y-128739000D02*
X122721000Y-135255000D01*
X116205000Y-123825000D02*
X116205000Y-128739000D01*
X127000000Y-80645000D02*
X126365000Y-81280000D01*
X127000000Y-65405000D02*
X127000000Y-80645000D01*
X126365000Y-83820000D02*
X123825000Y-86360000D01*
X126365000Y-81280000D02*
X126365000Y-83820000D01*
X112395000Y-115286398D02*
X113030000Y-114651398D01*
X112395000Y-123825000D02*
X112395000Y-115286398D01*
X113030000Y-114651398D02*
X113030000Y-106680000D01*
X113030000Y-106680000D02*
X126365000Y-106680000D01*
D30*
X183388000Y-122428000D02*
X183388000Y-136398000D01*
X160274000Y-136398000D02*
X157988000Y-134112000D01*
X183388000Y-136398000D02*
X160274000Y-136398000D01*
X177214078Y-114808000D02*
X183388000Y-114808000D01*
X174767999Y-112361921D02*
X177214078Y-114808000D01*
X174767999Y-111158079D02*
X174767999Y-112361921D01*
X170559919Y-106949999D02*
X174767999Y-111158079D01*
X163736079Y-106949999D02*
X170559919Y-106949999D01*
X162522001Y-110960001D02*
X162522001Y-108164077D01*
X162522001Y-108164077D02*
X163736079Y-106949999D01*
X163322000Y-111760000D02*
X162522001Y-110960001D01*
D32*
X106680000Y-122555000D02*
X102870000Y-122555000D01*
X125095000Y-109855000D02*
X123967999Y-108727999D01*
X118745000Y-86360000D02*
X118745000Y-85090000D01*
X118745000Y-85090000D02*
X118110000Y-84455000D01*
X105410000Y-84455000D02*
X105410000Y-74930000D01*
X105410000Y-74930000D02*
X109220000Y-74930000D01*
X118110000Y-84455000D02*
X113665000Y-84455000D01*
X113665000Y-84455000D02*
X111760000Y-86360000D01*
X111760000Y-86360000D02*
X107315000Y-86360000D01*
X107315000Y-86360000D02*
X105410000Y-84455000D01*
X121285000Y-86360000D02*
X118745000Y-83820000D01*
X106045000Y-83820000D02*
X106045000Y-76200000D01*
X106045000Y-76200000D02*
X110490000Y-76200000D01*
X110212962Y-85090000D02*
X107315000Y-85090000D01*
X111482962Y-83820000D02*
X110212962Y-85090000D01*
X118745000Y-83820000D02*
X111482962Y-83820000D01*
X107315000Y-85090000D02*
X106045000Y-83820000D01*
X128905000Y-104140000D02*
X120015000Y-104140000D01*
X120015000Y-104140000D02*
X120015000Y-104140000D01*
X110490000Y-95885000D02*
X113030000Y-95885000D01*
X113030000Y-95885000D02*
X113030000Y-99695000D01*
X113030000Y-99695000D02*
X113665000Y-99695000D01*
X120015000Y-104140000D02*
X118745000Y-102870000D01*
X118745000Y-102870000D02*
X118745000Y-99695000D01*
X118745000Y-99695000D02*
X113665000Y-99695000D01*
X128905000Y-104140000D02*
X138430000Y-104140000D01*
X138430000Y-104140000D02*
X138430000Y-104140000D01*
X138430000Y-104140000D02*
X139065000Y-104140000D01*
X139065000Y-104140000D02*
X139065000Y-104140000D01*
X110490000Y-98425000D02*
X112395000Y-98425000D01*
X112395000Y-98425000D02*
X112395000Y-100330000D01*
X112395000Y-100330000D02*
X118110000Y-100330000D01*
X118110000Y-102877066D02*
X120007934Y-104775000D01*
X118110000Y-100330000D02*
X118110000Y-102877066D01*
X120007934Y-104775000D02*
X128270000Y-104775000D01*
X128270000Y-104775000D02*
X137160000Y-104775000D01*
X137160000Y-104775000D02*
X138430000Y-104775000D01*
X138430000Y-104775000D02*
X139065000Y-105410000D01*
X139065000Y-105410000D02*
X139065000Y-105410000D01*
D33*
X107315000Y-92075000D02*
X140196370Y-92075000D01*
D32*
X140196370Y-92075000D02*
X146050000Y-92075000D01*
X146050000Y-92075000D02*
X146685000Y-92710000D01*
X146685000Y-92710000D02*
X146685000Y-95885000D01*
X146685000Y-95885000D02*
X146685000Y-95885000D01*
X107315000Y-70485000D02*
X113030000Y-70485000D01*
X120650000Y-119380000D02*
X123825000Y-119380000D01*
X130267999Y-129632999D02*
X131445000Y-130810000D01*
X130267999Y-125822999D02*
X130267999Y-129632999D01*
X123825000Y-119380000D02*
X130267999Y-125822999D01*
X116932999Y-112937001D02*
X120015000Y-109855000D01*
X116932999Y-116794369D02*
X116932999Y-112937001D01*
X119518630Y-119380000D02*
X116932999Y-116794369D01*
X120650000Y-119380000D02*
X119518630Y-119380000D01*
D30*
X157734000Y-108204000D02*
X156210000Y-109728000D01*
X156210000Y-127254000D02*
X163068000Y-134112000D01*
X156210000Y-109728000D02*
X156210000Y-127254000D01*
X165862000Y-112268000D02*
X165862000Y-111760000D01*
X159496001Y-109743999D02*
X159496001Y-126984001D01*
X161036000Y-108204000D02*
X159496001Y-109743999D01*
X166624000Y-134112000D02*
X168148000Y-134112000D01*
X159496001Y-126984001D02*
X166624000Y-134112000D01*
D32*
X130175000Y-70438602D02*
X133396398Y-73660000D01*
X130175000Y-66675000D02*
X130175000Y-70438602D01*
X133396398Y-73660000D02*
X133985000Y-73660000D01*
X146685000Y-81280000D02*
X142875000Y-77470000D01*
X142875000Y-77470000D02*
X137795000Y-77470000D01*
X137795000Y-77470000D02*
X133985000Y-73660000D01*
D31*
X116080000Y-70485000D02*
X124460000Y-70485000D01*
D32*
X125095000Y-102235000D02*
X130806979Y-96523021D01*
X130806979Y-96523021D02*
X136521979Y-96523021D01*
X136521979Y-96523021D02*
X139065000Y-93980000D01*
X139065000Y-93980000D02*
X139065000Y-93980000D01*
X128905000Y-70485000D02*
X128905000Y-70485000D01*
X144145000Y-81280000D02*
X141605000Y-78740000D01*
X141605000Y-78740000D02*
X136525000Y-78740000D01*
X136525000Y-78740000D02*
X128905000Y-71120000D01*
X128905000Y-71120000D02*
X128905000Y-70485000D01*
D33*
X137017989Y-72002239D02*
X138675750Y-73660000D01*
X137017989Y-69507987D02*
X137017989Y-72002239D01*
X134370001Y-66859999D02*
X137017989Y-69507987D01*
X131433001Y-66859999D02*
X134370001Y-66859999D01*
X127438002Y-62865000D02*
X131433001Y-66859999D01*
X124460000Y-62865000D02*
X127438002Y-62865000D01*
X138675750Y-73660000D02*
X150495000Y-73660000D01*
X150495000Y-73660000D02*
X150495000Y-73660000D01*
D32*
X139700000Y-70610000D02*
X139575000Y-70485000D01*
D31*
X139575000Y-70485000D02*
X147955000Y-70485000D01*
D32*
X127635000Y-102235000D02*
X132715000Y-97155000D01*
X132715000Y-97155000D02*
X137160000Y-97155000D01*
X137160000Y-97155000D02*
X140335000Y-93980000D01*
X140335000Y-93980000D02*
X140335000Y-93980000D01*
X150495000Y-80010000D02*
X149225000Y-81280000D01*
X150495000Y-73660000D02*
X150495000Y-80010000D01*
X129720990Y-88084010D02*
X104594010Y-88084010D01*
X131445000Y-86360000D02*
X129720990Y-88084010D01*
X104594010Y-88084010D02*
X103505000Y-86995000D01*
X103505000Y-86995000D02*
X103505000Y-86995000D01*
X131445000Y-83820000D02*
X128905000Y-86360000D01*
X131445000Y-81280000D02*
X131445000Y-83820000D01*
X127870001Y-77705001D02*
X131445000Y-81280000D01*
X127870001Y-69614999D02*
X127870001Y-77705001D01*
X128270000Y-69215000D02*
X127870001Y-69614999D01*
X110490000Y-78105000D02*
X113665000Y-78105000D01*
X123243027Y-96069011D02*
X135705989Y-96069011D01*
X120015000Y-99297038D02*
X123243027Y-96069011D01*
X120015000Y-102235000D02*
X120015000Y-99297038D01*
X135705989Y-96069011D02*
X137795000Y-93980000D01*
X137795000Y-93980000D02*
X137795000Y-93980000D01*
X106997500Y-77787500D02*
X107950000Y-78740000D01*
X107950000Y-78740000D02*
X108585000Y-79375000D01*
X108585000Y-79375000D02*
X113665000Y-79375000D01*
X113665000Y-79375000D02*
X113665000Y-79375000D01*
X126365000Y-86360000D02*
X125095000Y-87630000D01*
X125095000Y-87630000D02*
X107315000Y-87630000D01*
X107315000Y-87630000D02*
X106045000Y-86360000D01*
M02*
