G04 #@! TF.GenerationSoftware,KiCad,Pcbnew,(5.1.9)-1*
G04 #@! TF.CreationDate,2023-11-08T13:31:57-08:00*
G04 #@! TF.ProjectId,DSAMKVIE,4453414d-4b56-4494-952e-6b696361645f,rev?*
G04 #@! TF.SameCoordinates,Original*
G04 #@! TF.FileFunction,Copper,L2,Bot*
G04 #@! TF.FilePolarity,Positive*
%FSLAX46Y46*%
G04 Gerber Fmt 4.6, Leading zero omitted, Abs format (unit mm)*
G04 Created by KiCad (PCBNEW (5.1.9)-1) date 2023-11-08 13:31:57*
%MOMM*%
%LPD*%
G01*
G04 APERTURE LIST*
G04 #@! TA.AperFunction,ComponentPad*
%ADD10C,2.600000*%
G04 #@! TD*
G04 #@! TA.AperFunction,ComponentPad*
%ADD11R,2.600000X2.600000*%
G04 #@! TD*
G04 #@! TA.AperFunction,ComponentPad*
%ADD12R,1.600000X1.600000*%
G04 #@! TD*
G04 #@! TA.AperFunction,ComponentPad*
%ADD13O,1.600000X1.600000*%
G04 #@! TD*
G04 #@! TA.AperFunction,ComponentPad*
%ADD14C,1.600000*%
G04 #@! TD*
G04 #@! TA.AperFunction,ComponentPad*
%ADD15C,3.000000*%
G04 #@! TD*
G04 #@! TA.AperFunction,ComponentPad*
%ADD16R,3.000000X3.000000*%
G04 #@! TD*
G04 #@! TA.AperFunction,ComponentPad*
%ADD17C,1.800000*%
G04 #@! TD*
G04 #@! TA.AperFunction,ComponentPad*
%ADD18R,1.800000X1.800000*%
G04 #@! TD*
G04 #@! TA.AperFunction,ComponentPad*
%ADD19R,1.700000X1.700000*%
G04 #@! TD*
G04 #@! TA.AperFunction,ComponentPad*
%ADD20O,1.700000X1.700000*%
G04 #@! TD*
G04 #@! TA.AperFunction,ComponentPad*
%ADD21C,2.000000*%
G04 #@! TD*
G04 #@! TA.AperFunction,ComponentPad*
%ADD22R,2.000000X2.000000*%
G04 #@! TD*
G04 #@! TA.AperFunction,ComponentPad*
%ADD23C,1.700000*%
G04 #@! TD*
G04 #@! TA.AperFunction,ComponentPad*
%ADD24R,2.200000X2.200000*%
G04 #@! TD*
G04 #@! TA.AperFunction,ComponentPad*
%ADD25O,2.200000X2.200000*%
G04 #@! TD*
G04 #@! TA.AperFunction,ComponentPad*
%ADD26R,1.905000X2.000000*%
G04 #@! TD*
G04 #@! TA.AperFunction,ComponentPad*
%ADD27O,1.905000X2.000000*%
G04 #@! TD*
G04 #@! TA.AperFunction,ViaPad*
%ADD28C,0.800000*%
G04 #@! TD*
G04 #@! TA.AperFunction,Conductor*
%ADD29C,0.762000*%
G04 #@! TD*
G04 #@! TA.AperFunction,Conductor*
%ADD30C,3.810000*%
G04 #@! TD*
G04 #@! TA.AperFunction,Conductor*
%ADD31C,0.508000*%
G04 #@! TD*
G04 #@! TA.AperFunction,Conductor*
%ADD32C,0.254000*%
G04 #@! TD*
G04 #@! TA.AperFunction,Conductor*
%ADD33C,0.250000*%
G04 #@! TD*
G04 APERTURE END LIST*
D10*
X178308000Y-134112000D03*
X173228000Y-134112000D03*
X168148000Y-134112000D03*
X163068000Y-134112000D03*
X157988000Y-134112000D03*
X152908000Y-134112000D03*
D11*
X147828000Y-134112000D03*
D12*
X120015000Y-109855000D03*
D13*
X153035000Y-102235000D03*
X122555000Y-109855000D03*
X150495000Y-102235000D03*
X125095000Y-109855000D03*
X147955000Y-102235000D03*
X127635000Y-109855000D03*
X145415000Y-102235000D03*
X130175000Y-109855000D03*
X142875000Y-102235000D03*
X132715000Y-109855000D03*
X140335000Y-102235000D03*
X135255000Y-109855000D03*
X137795000Y-102235000D03*
X137795000Y-109855000D03*
X135255000Y-102235000D03*
X140335000Y-109855000D03*
X132715000Y-102235000D03*
X142875000Y-109855000D03*
X130175000Y-102235000D03*
X145415000Y-109855000D03*
X127635000Y-102235000D03*
X147955000Y-109855000D03*
X125095000Y-102235000D03*
X150495000Y-109855000D03*
X122555000Y-102235000D03*
X153035000Y-109855000D03*
X120015000Y-102235000D03*
X139065000Y-81280000D03*
X141605000Y-81280000D03*
X144145000Y-81280000D03*
X146685000Y-81280000D03*
X149225000Y-81280000D03*
D12*
X151765000Y-81280000D03*
D13*
X151765000Y-86360000D03*
X149225000Y-86360000D03*
X146685000Y-86360000D03*
X144145000Y-86360000D03*
X141605000Y-86360000D03*
D12*
X139065000Y-86360000D03*
D14*
X115650000Y-119380000D03*
X120650000Y-119380000D03*
X109855000Y-83780000D03*
X109855000Y-81280000D03*
X135215000Y-93980000D03*
X132715000Y-93980000D03*
X100370000Y-65405000D03*
X102870000Y-65405000D03*
X133310000Y-57150000D03*
X130810000Y-57150000D03*
X142835000Y-118745000D03*
X140335000Y-118745000D03*
X140970000Y-130770000D03*
X140970000Y-128270000D03*
X138470000Y-98425000D03*
X140970000Y-98425000D03*
D15*
X181610000Y-94615000D03*
D16*
X181610000Y-99695000D03*
D17*
X102870000Y-84455000D03*
D18*
X100330000Y-84455000D03*
D19*
X110490000Y-93345000D03*
D20*
X110490000Y-95885000D03*
X110490000Y-98425000D03*
D13*
X144780000Y-122555000D03*
D14*
X137160000Y-122555000D03*
D20*
X147955000Y-70485000D03*
X147955000Y-67945000D03*
X147955000Y-65405000D03*
D19*
X147955000Y-62865000D03*
D20*
X124460000Y-70485000D03*
X124460000Y-67945000D03*
X124460000Y-65405000D03*
D19*
X124460000Y-62865000D03*
D12*
X110490000Y-104775000D03*
D13*
X110490000Y-107315000D03*
X110490000Y-109855000D03*
X110490000Y-112395000D03*
X110490000Y-114935000D03*
X110490000Y-117475000D03*
X183388000Y-114808000D03*
D14*
X183388000Y-122428000D03*
D13*
X113665000Y-86360000D03*
X116205000Y-86360000D03*
X118745000Y-86360000D03*
X121285000Y-86360000D03*
X123825000Y-86360000D03*
X126365000Y-86360000D03*
X128905000Y-86360000D03*
X131445000Y-86360000D03*
D12*
X133985000Y-86360000D03*
D21*
X163068000Y-86888000D03*
D22*
X163068000Y-94488000D03*
D13*
X126365000Y-98425000D03*
D14*
X133985000Y-98425000D03*
D13*
X133985000Y-81280000D03*
X131445000Y-81280000D03*
X128905000Y-81280000D03*
X126365000Y-81280000D03*
X123825000Y-81280000D03*
X121285000Y-81280000D03*
X118745000Y-81280000D03*
X116205000Y-81280000D03*
D12*
X113665000Y-81280000D03*
D13*
X161036000Y-108204000D03*
D12*
X161036000Y-100584000D03*
D13*
X157734000Y-108204000D03*
D12*
X157734000Y-100584000D03*
D20*
X123825000Y-130175000D03*
X123825000Y-132715000D03*
D19*
X123825000Y-135255000D03*
D20*
X117475000Y-135255000D03*
X114935000Y-135255000D03*
D19*
X112395000Y-135255000D03*
D20*
X112395000Y-128905000D03*
X112395000Y-126365000D03*
D19*
X112395000Y-123825000D03*
D20*
X118745000Y-123825000D03*
X121285000Y-123825000D03*
D19*
X123825000Y-123825000D03*
D20*
X135890000Y-128270000D03*
X135890000Y-130810000D03*
D19*
X135890000Y-133350000D03*
D20*
X131445000Y-128270000D03*
X131445000Y-130810000D03*
D19*
X131445000Y-133350000D03*
D20*
X105410000Y-60960000D03*
X102870000Y-60960000D03*
D19*
X100330000Y-60960000D03*
D20*
X105410000Y-56515000D03*
X102870000Y-56515000D03*
D19*
X100330000Y-56515000D03*
D23*
X143510000Y-114300000D03*
X138510000Y-114300000D03*
D12*
X158242000Y-119380000D03*
D13*
X176022000Y-111760000D03*
X160782000Y-119380000D03*
X173482000Y-111760000D03*
X163322000Y-119380000D03*
X170942000Y-111760000D03*
X165862000Y-119380000D03*
X168402000Y-111760000D03*
X168402000Y-119380000D03*
X165862000Y-111760000D03*
X170942000Y-119380000D03*
X163322000Y-111760000D03*
X173482000Y-119380000D03*
X160782000Y-111760000D03*
X176022000Y-119380000D03*
X158242000Y-111760000D03*
D21*
X153185000Y-53975000D03*
X153185000Y-58475000D03*
X146685000Y-53975000D03*
X146685000Y-58475000D03*
D14*
X147955000Y-119300000D03*
X147955000Y-114300000D03*
X133985000Y-114300000D03*
X133985000Y-119300000D03*
D22*
X186055000Y-76200000D03*
D21*
X181055000Y-76200000D03*
D14*
X163155000Y-62230000D03*
D12*
X160655000Y-62230000D03*
D18*
X100330000Y-71755000D03*
D17*
X102870000Y-71755000D03*
X102870000Y-97155000D03*
D18*
X100330000Y-97155000D03*
X100330000Y-109855000D03*
D17*
X102870000Y-109855000D03*
D18*
X100330000Y-122555000D03*
D17*
X102870000Y-122555000D03*
D24*
X185928000Y-84836000D03*
D25*
X196088000Y-84836000D03*
X171704000Y-84836000D03*
D24*
X181864000Y-84836000D03*
D13*
X167640000Y-108204000D03*
D12*
X167640000Y-100584000D03*
X164338000Y-100584000D03*
D13*
X164338000Y-108204000D03*
D19*
X123825000Y-56515000D03*
D20*
X121285000Y-56515000D03*
X118745000Y-56515000D03*
X116205000Y-56515000D03*
X113665000Y-56515000D03*
D21*
X167205000Y-55690000D03*
X167205000Y-63690000D03*
X182205000Y-55690000D03*
X182205000Y-63690000D03*
X187205000Y-55690000D03*
X187205000Y-63690000D03*
X192205000Y-55690000D03*
X192205000Y-63690000D03*
D14*
X122555000Y-98425000D03*
D13*
X114935000Y-98425000D03*
X106680000Y-122555000D03*
D14*
X106680000Y-130175000D03*
D26*
X169545000Y-68580000D03*
D27*
X167005000Y-68580000D03*
X164465000Y-68580000D03*
D19*
X128270000Y-115570000D03*
D20*
X125730000Y-115570000D03*
X123190000Y-115570000D03*
X120650000Y-115570000D03*
X118110000Y-115570000D03*
X115570000Y-115570000D03*
D18*
X142240000Y-56515000D03*
D17*
X139700000Y-56515000D03*
D21*
X189650000Y-68580000D03*
X178650000Y-68580000D03*
D28*
X128270000Y-93980000D03*
X101600000Y-91440000D03*
X148590000Y-96520000D03*
X151130000Y-95250000D03*
X102870000Y-88900000D03*
X102870000Y-88900000D03*
X152400000Y-95250000D03*
X127000000Y-65405000D03*
X126365000Y-106680000D03*
X109220000Y-74930000D03*
X110490000Y-76200000D03*
X139065000Y-104140000D03*
X139065000Y-105410000D03*
X107315000Y-92075000D03*
X146685000Y-95885000D03*
X107315000Y-70485000D03*
X113030000Y-70485000D03*
X130175000Y-66675000D03*
X139065000Y-93980000D03*
X128905000Y-70485000D03*
X150495000Y-73660000D03*
X140335000Y-93980000D03*
X103505000Y-86995000D03*
X128270000Y-69215000D03*
X113665000Y-78105000D03*
X110490000Y-78105000D03*
X137795000Y-93980000D03*
X112395000Y-126365000D03*
X106997500Y-77787500D03*
X113665000Y-79375000D03*
X106045000Y-86360000D03*
D29*
X167005000Y-68121698D02*
X167005000Y-68580000D01*
X168204999Y-56689999D02*
X167205000Y-55690000D01*
X168786001Y-65036999D02*
X168786001Y-57271001D01*
X167005000Y-66818000D02*
X168786001Y-65036999D01*
X168786001Y-57271001D02*
X168204999Y-56689999D01*
X167005000Y-68580000D02*
X167005000Y-66818000D01*
X167205000Y-58180000D02*
X163155000Y-62230000D01*
X167205000Y-55690000D02*
X167205000Y-58180000D01*
X135255000Y-107315000D02*
X137795000Y-109855000D01*
X135255000Y-102235000D02*
X135255000Y-107315000D01*
X139941001Y-115811001D02*
X142875000Y-118745000D01*
X139941001Y-112001001D02*
X139941001Y-115811001D01*
X137795000Y-109855000D02*
X139941001Y-112001001D01*
X138510000Y-98980000D02*
X135255000Y-102235000D01*
X138510000Y-98425000D02*
X138510000Y-98980000D01*
X133985000Y-86360000D02*
X133985000Y-91995000D01*
X139065000Y-76835000D02*
X147955000Y-67945000D01*
X110490000Y-86280000D02*
X110490000Y-93345000D01*
X181055000Y-76200000D02*
X175975000Y-71120000D01*
X175975000Y-71120000D02*
X167640000Y-71120000D01*
X167640000Y-71120000D02*
X167005000Y-70485000D01*
X167005000Y-70485000D02*
X167005000Y-68580000D01*
X133985000Y-92750000D02*
X133985000Y-91995000D01*
X135215000Y-93980000D02*
X133985000Y-92750000D01*
X109855000Y-85645000D02*
X110490000Y-86280000D01*
X109855000Y-83780000D02*
X109855000Y-85645000D01*
X137683999Y-78216001D02*
X139065000Y-76835000D01*
X137683999Y-83342722D02*
X137683999Y-78216001D01*
X139065000Y-84723723D02*
X137683999Y-83342722D01*
X139065000Y-86360000D02*
X139065000Y-84723723D01*
D30*
X147828000Y-129540000D02*
X147828000Y-134112000D01*
X187960000Y-129540000D02*
X147828000Y-129540000D01*
X181864000Y-110490000D02*
X187960000Y-110490000D01*
X176276000Y-104902000D02*
X181864000Y-110490000D01*
X181055000Y-76200000D02*
X176276000Y-80979000D01*
X177165000Y-94615000D02*
X176276000Y-95504000D01*
X181610000Y-94615000D02*
X177165000Y-94615000D01*
X176276000Y-95504000D02*
X176276000Y-104902000D01*
D31*
X175768000Y-84836000D02*
X176276000Y-85344000D01*
X171704000Y-84836000D02*
X175768000Y-84836000D01*
D30*
X176276000Y-85344000D02*
X176276000Y-95504000D01*
X176276000Y-80979000D02*
X176276000Y-85344000D01*
D31*
X179578000Y-119380000D02*
X187960000Y-119380000D01*
D30*
X187960000Y-119380000D02*
X187960000Y-129540000D01*
X187960000Y-110490000D02*
X187960000Y-119380000D01*
D31*
X179578000Y-119380000D02*
X176022000Y-119380000D01*
X165120000Y-84836000D02*
X163068000Y-86888000D01*
X171704000Y-84836000D02*
X165120000Y-84836000D01*
D30*
X178650000Y-68580000D02*
X181610000Y-68580000D01*
X186055000Y-73025000D02*
X186055000Y-76200000D01*
X181610000Y-68580000D02*
X186055000Y-73025000D01*
D29*
X178650000Y-68580000D02*
X169545000Y-68580000D01*
D30*
X181610000Y-99695000D02*
X189865000Y-99695000D01*
X189865000Y-99695000D02*
X190500000Y-99060000D01*
X190500000Y-80645000D02*
X186055000Y-76200000D01*
X190500000Y-99060000D02*
X190500000Y-80645000D01*
D29*
X139096001Y-125063999D02*
X135890000Y-128270000D01*
D32*
X137160000Y-127000000D02*
X135890000Y-128270000D01*
X137160000Y-122555000D02*
X137160000Y-127000000D01*
D29*
X140970000Y-98425000D02*
X140970000Y-101600000D01*
X140970000Y-101600000D02*
X140335000Y-102235000D01*
X140335000Y-123825000D02*
X139096001Y-125063999D01*
X140335000Y-118745000D02*
X140335000Y-123825000D01*
D31*
X130175000Y-56515000D02*
X130810000Y-57150000D01*
X123825000Y-56515000D02*
X130175000Y-56515000D01*
D29*
X154305000Y-83820000D02*
X151765000Y-81280000D01*
X154305000Y-89535000D02*
X154305000Y-83820000D01*
X149860000Y-89535000D02*
X154305000Y-89535000D01*
X140970000Y-98425000D02*
X149860000Y-89535000D01*
X137078999Y-115488999D02*
X140335000Y-118745000D01*
X137078999Y-111678999D02*
X137078999Y-115488999D01*
X135255000Y-109855000D02*
X137078999Y-111678999D01*
D32*
X126365000Y-98425000D02*
X126365000Y-95885000D01*
X126365000Y-95885000D02*
X128270000Y-93980000D01*
X128270000Y-93980000D02*
X128270000Y-93980000D01*
D33*
X101600000Y-91440000D02*
X101600000Y-86995000D01*
X101600000Y-86995000D02*
X100330000Y-85725000D01*
X100330000Y-85725000D02*
X100330000Y-84455000D01*
D32*
X148590000Y-99060000D02*
X145415000Y-102235000D01*
X148590000Y-96520000D02*
X148590000Y-99060000D01*
X151130000Y-99060000D02*
X147955000Y-102235000D01*
X151130000Y-95250000D02*
X151130000Y-99060000D01*
X101557001Y-96652037D02*
X101557001Y-107357999D01*
X102870000Y-95339038D02*
X101557001Y-96652037D01*
X101557001Y-107357999D02*
X100330000Y-108585000D01*
X100330000Y-108585000D02*
X100330000Y-109855000D01*
X102870000Y-95339038D02*
X102870000Y-92075000D01*
X102870000Y-92075000D02*
X102870000Y-88900000D01*
X102870000Y-88900000D02*
X102870000Y-88900000D01*
X102870000Y-88900000D02*
X102870000Y-88900000D01*
X150495000Y-102235000D02*
X152400000Y-100330000D01*
X152400000Y-100330000D02*
X152400000Y-95250000D01*
X152400000Y-95250000D02*
X152400000Y-95250000D01*
D30*
X192205000Y-55690000D02*
X192205000Y-63690000D01*
X152908000Y-138430000D02*
X152908000Y-134112000D01*
X186690000Y-138430000D02*
X152908000Y-138430000D01*
X196215000Y-128905000D02*
X186690000Y-138430000D01*
X196215000Y-67700000D02*
X196215000Y-128905000D01*
X192205000Y-63690000D02*
X196215000Y-67700000D01*
D32*
X172682001Y-110960001D02*
X173482000Y-111760000D01*
X170434000Y-100584000D02*
X172682001Y-102832001D01*
X172682001Y-102832001D02*
X172682001Y-110960001D01*
X167640000Y-100584000D02*
X170434000Y-100584000D01*
X170942000Y-107188000D02*
X170942000Y-111760000D01*
X164338000Y-100584000D02*
X170942000Y-107188000D01*
D30*
X187205000Y-55690000D02*
X187205000Y-63690000D01*
X187205000Y-66135000D02*
X189650000Y-68580000D01*
X187205000Y-63690000D02*
X187205000Y-66135000D01*
D32*
X123534397Y-64227999D02*
X125822999Y-64227999D01*
X121285000Y-61978602D02*
X123534397Y-64227999D01*
X121285000Y-56515000D02*
X121285000Y-61978602D01*
X125822999Y-64227999D02*
X127000000Y-65405000D01*
X127000000Y-65405000D02*
X127000000Y-65405000D01*
X129047999Y-101107999D02*
X130175000Y-102235000D01*
X127380037Y-101107999D02*
X129047999Y-101107999D01*
X123825000Y-97552962D02*
X127380037Y-101107999D01*
X123825000Y-86360000D02*
X123825000Y-97552962D01*
X130175000Y-102235000D02*
X126365000Y-106045000D01*
X126365000Y-106045000D02*
X126365000Y-106680000D01*
X126365000Y-106680000D02*
X126365000Y-106680000D01*
D33*
X153035000Y-58420000D02*
X146535000Y-58420000D01*
D32*
X146685000Y-58475000D02*
X146630000Y-58475000D01*
X145470000Y-59690000D02*
X146685000Y-58475000D01*
X139700000Y-73660000D02*
X145470000Y-67890000D01*
X145470000Y-67890000D02*
X145470000Y-59690000D01*
X113665000Y-73660000D02*
X139700000Y-73660000D01*
X112537999Y-74787001D02*
X113665000Y-73660000D01*
X112537999Y-85232999D02*
X112537999Y-74787001D01*
X113665000Y-86360000D02*
X112537999Y-85232999D01*
X118110000Y-113030000D02*
X120650000Y-115570000D01*
X113665000Y-113030000D02*
X118110000Y-113030000D01*
X112776000Y-112141000D02*
X113665000Y-113030000D01*
X112776000Y-101600000D02*
X112776000Y-112141000D01*
X113665000Y-100711000D02*
X112776000Y-101600000D01*
X113665000Y-86360000D02*
X113665000Y-100711000D01*
X120650000Y-111760000D02*
X120650000Y-115570000D01*
X122555000Y-109855000D02*
X120650000Y-111760000D01*
X150495000Y-109855000D02*
X155194000Y-114554000D01*
X163576000Y-114554000D02*
X168402000Y-119380000D01*
X155194000Y-114554000D02*
X163576000Y-114554000D01*
X147955000Y-109855000D02*
X153670000Y-115570000D01*
X153670000Y-115570000D02*
X162814000Y-115570000D01*
X162814000Y-116332000D02*
X165862000Y-119380000D01*
X162814000Y-115570000D02*
X162814000Y-116332000D01*
X145415000Y-109855000D02*
X152400000Y-116840000D01*
X160782000Y-116840000D02*
X163322000Y-119380000D01*
X152400000Y-116840000D02*
X160782000Y-116840000D01*
X116205000Y-100965000D02*
X116205000Y-86360000D01*
X123190000Y-107950000D02*
X120396000Y-107950000D01*
X125095000Y-109855000D02*
X123190000Y-107950000D01*
X115218650Y-105664000D02*
X118110000Y-105664000D01*
X113793158Y-104238508D02*
X115218650Y-105664000D01*
X116205000Y-100965000D02*
X114427000Y-100965000D01*
X113793158Y-101598842D02*
X113793158Y-104238508D01*
X114427000Y-100965000D02*
X113793158Y-101598842D01*
X120396000Y-107950000D02*
X118110000Y-105664000D01*
X122012999Y-116134961D02*
X122012999Y-112937001D01*
X121400959Y-116747001D02*
X122012999Y-116134961D01*
X119287001Y-116747001D02*
X121400959Y-116747001D01*
X122012999Y-112937001D02*
X125095000Y-109855000D01*
X118110000Y-115570000D02*
X119287001Y-116747001D01*
X104232999Y-61524961D02*
X105573038Y-62865000D01*
X105573038Y-62865000D02*
X109220000Y-62865000D01*
X109220000Y-62865000D02*
X109220000Y-74930000D01*
X109220000Y-74930000D02*
X109220000Y-74930000D01*
X122592028Y-106479990D02*
X118618000Y-102505962D01*
X124259990Y-106479990D02*
X122592028Y-106479990D01*
X127635000Y-109855000D02*
X124259990Y-106479990D01*
X118745000Y-92837000D02*
X118745000Y-86360000D01*
X118618000Y-92964000D02*
X118745000Y-92837000D01*
X118618000Y-102505962D02*
X118618000Y-92964000D01*
X104232999Y-57692001D02*
X105410000Y-56515000D01*
X104232999Y-61524961D02*
X104232999Y-57692001D01*
X105410000Y-60960000D02*
X110490000Y-60960000D01*
X110490000Y-60960000D02*
X110490000Y-76200000D01*
X110490000Y-76200000D02*
X110490000Y-76200000D01*
X129047999Y-108727999D02*
X130175000Y-109855000D01*
X127380037Y-108727999D02*
X129047999Y-108727999D01*
X121285000Y-102632962D02*
X127380037Y-108727999D01*
X121285000Y-86360000D02*
X121285000Y-102632962D01*
X153053007Y-102253007D02*
X153035000Y-102235000D01*
X151130000Y-104140000D02*
X153035000Y-102235000D01*
X139065000Y-104140000D02*
X151130000Y-104140000D01*
X162163001Y-100597603D02*
X162163001Y-99522399D01*
X169529001Y-112125001D02*
X169529001Y-107963603D01*
X169529001Y-107963603D02*
X162163001Y-100597603D01*
X170942000Y-113538000D02*
X169529001Y-112125001D01*
X170942000Y-119380000D02*
X170942000Y-113538000D01*
X162052000Y-99411398D02*
X162163001Y-99522399D01*
X162052000Y-99060000D02*
X162052000Y-99411398D01*
X156210000Y-99060000D02*
X162052000Y-99060000D01*
X153035000Y-102235000D02*
X156210000Y-99060000D01*
X148590000Y-105410000D02*
X153035000Y-109855000D01*
X139065000Y-105410000D02*
X148590000Y-105410000D01*
X153035000Y-109855000D02*
X156718000Y-113538000D01*
X156718000Y-113538000D02*
X164592000Y-113538000D01*
X164592000Y-113538000D02*
X169672000Y-118618000D01*
X172354999Y-120507001D02*
X173482000Y-119380000D01*
X170401039Y-120507001D02*
X172354999Y-120507001D01*
X169672000Y-119777962D02*
X170401039Y-120507001D01*
X169672000Y-118618000D02*
X169672000Y-119777962D01*
X135255000Y-60960000D02*
X139700000Y-56515000D01*
X113665000Y-72390000D02*
X135255000Y-72390000D01*
X111852001Y-69757999D02*
X113572999Y-69757999D01*
X111667001Y-69942999D02*
X111852001Y-69757999D01*
X113572999Y-69757999D02*
X113757001Y-69942001D01*
X111667001Y-106137999D02*
X111667001Y-69942999D01*
X135255000Y-72390000D02*
X135255000Y-60960000D01*
X110490000Y-107315000D02*
X111667001Y-106137999D01*
X113757001Y-72297999D02*
X113665000Y-72390000D01*
X113757001Y-69942001D02*
X113757001Y-72297999D01*
D33*
X100330000Y-72905000D02*
X107315000Y-79890000D01*
X100330000Y-71755000D02*
X100330000Y-72905000D01*
X107315000Y-79890000D02*
X107315000Y-91984999D01*
D32*
X101557001Y-72982001D02*
X104817999Y-72982001D01*
X100330000Y-71755000D02*
X101557001Y-72982001D01*
X104817999Y-72982001D02*
X107315000Y-70485000D01*
X107315000Y-70485000D02*
X107315000Y-70485000D01*
X113030000Y-70485000D02*
X113030000Y-70485000D01*
X142240000Y-56515000D02*
X136525000Y-62230000D01*
X136525000Y-62230000D02*
X136525000Y-73025000D01*
X136525000Y-73025000D02*
X113030000Y-73025000D01*
X113030000Y-73025000D02*
X113030000Y-70485000D01*
X146685000Y-98425000D02*
X142875000Y-102235000D01*
X146685000Y-95885000D02*
X146685000Y-98425000D01*
X115570000Y-119300000D02*
X115650000Y-119380000D01*
X115570000Y-115570000D02*
X115570000Y-119300000D01*
X121920000Y-119380000D02*
X120650000Y-119380000D01*
X125730000Y-115570000D02*
X121920000Y-119380000D01*
X126222001Y-109314039D02*
X126222001Y-110395961D01*
X117617999Y-82407001D02*
X117617999Y-98170037D01*
X118745000Y-81280000D02*
X117617999Y-82407001D01*
X117617999Y-98170037D02*
X117929009Y-98481047D01*
X125730000Y-110887962D02*
X126222001Y-110395961D01*
X125730000Y-115570000D02*
X125730000Y-110887962D01*
X117617999Y-98170037D02*
X117617999Y-101584001D01*
X125635961Y-108727999D02*
X124983999Y-108727999D01*
X126222001Y-109314039D02*
X125635961Y-108727999D01*
X124983999Y-108727999D02*
X123190000Y-106934000D01*
X123190000Y-106934000D02*
X120142000Y-106934000D01*
X117617999Y-104409999D02*
X117617999Y-101584001D01*
X120142000Y-106934000D02*
X117617999Y-104409999D01*
X162163001Y-108061001D02*
X165862000Y-111760000D01*
X162163001Y-105013001D02*
X162163001Y-108061001D01*
X157734000Y-100584000D02*
X162163001Y-105013001D01*
X165465001Y-108823001D02*
X168402000Y-111760000D01*
X165465001Y-105013001D02*
X165465001Y-108823001D01*
X161036000Y-100584000D02*
X165465001Y-105013001D01*
X122647999Y-56136037D02*
X122647999Y-58764397D01*
X121849961Y-55337999D02*
X122647999Y-56136037D01*
X119922001Y-55337999D02*
X121849961Y-55337999D01*
X122647999Y-58764397D02*
X130175000Y-66291398D01*
X118745000Y-56515000D02*
X119922001Y-55337999D01*
X130175000Y-66291398D02*
X130175000Y-66675000D01*
X130175000Y-66675000D02*
X130175000Y-66675000D01*
X146685000Y-81280000D02*
X146685000Y-86360000D01*
X136525000Y-88265000D02*
X136525000Y-88265000D01*
X121825961Y-80152999D02*
X117332001Y-80152999D01*
X122412001Y-80739039D02*
X121825961Y-80152999D01*
X123825000Y-83185000D02*
X122412001Y-81772001D01*
X136525000Y-83185000D02*
X123825000Y-83185000D01*
X136525000Y-93785962D02*
X136525000Y-83185000D01*
X122412001Y-81772001D02*
X122412001Y-80739039D01*
X139637001Y-96897963D02*
X136525000Y-93785962D01*
X139637001Y-100392999D02*
X139637001Y-96897963D01*
X117332001Y-80152999D02*
X116205000Y-81280000D01*
X137795000Y-102235000D02*
X139637001Y-100392999D01*
X139065000Y-93980000D02*
X144145000Y-88900000D01*
X144145000Y-88900000D02*
X144145000Y-86360000D01*
X124460000Y-70485000D02*
X128905000Y-70485000D01*
X144145000Y-81280000D02*
X144145000Y-86360000D01*
X140335000Y-93980000D02*
X146685000Y-87630000D01*
X147955000Y-87630000D02*
X146685000Y-87630000D01*
X149225000Y-86360000D02*
X147955000Y-87630000D01*
D33*
X147955000Y-70485000D02*
X150495000Y-70485000D01*
X150495000Y-70485000D02*
X150495000Y-72934999D01*
X150495000Y-72934999D02*
X150495000Y-73660000D01*
D32*
X149225000Y-81280000D02*
X149225000Y-86360000D01*
D31*
X144780000Y-122555000D02*
X144780000Y-122174000D01*
X160782000Y-119380000D02*
X158242000Y-119380000D01*
X155067000Y-122555000D02*
X144780000Y-122555000D01*
X158242000Y-119380000D02*
X155067000Y-122555000D01*
D32*
X171556858Y-124963015D02*
X174609001Y-121910872D01*
X169173171Y-124963015D02*
X171556858Y-124963015D01*
X169067155Y-124856999D02*
X169173171Y-124963015D01*
X143764000Y-125476000D02*
X144383001Y-124856999D01*
X174609001Y-121910872D02*
X174609001Y-109839001D01*
X144383001Y-124856999D02*
X169067155Y-124856999D01*
X143764000Y-130556000D02*
X143764000Y-125476000D01*
X138684000Y-135636000D02*
X143764000Y-130556000D01*
X129286000Y-135636000D02*
X138684000Y-135636000D01*
X129286000Y-127254000D02*
X129286000Y-135636000D01*
X132715000Y-123825000D02*
X129286000Y-127254000D01*
X132715000Y-109855000D02*
X132715000Y-123825000D01*
X174609001Y-109839001D02*
X173482000Y-108712000D01*
X173482000Y-108712000D02*
X173482000Y-94742000D01*
X173228000Y-94488000D02*
X163068000Y-94488000D01*
X173482000Y-94742000D02*
X173228000Y-94488000D01*
X113757999Y-134077999D02*
X114935000Y-135255000D01*
X104867999Y-134077999D02*
X113757999Y-134077999D01*
X104775000Y-133985000D02*
X104867999Y-134077999D01*
X104867999Y-88357999D02*
X103505000Y-86995000D01*
X104867999Y-134077999D02*
X104867999Y-88357999D01*
X124929000Y-123825000D02*
X123825000Y-123825000D01*
X112395000Y-135255000D02*
X112395000Y-136359000D01*
X125730000Y-124626000D02*
X124929000Y-123825000D01*
X112395000Y-136359000D02*
X113196000Y-137160000D01*
X113196000Y-137160000D02*
X125730000Y-137160000D01*
X125730000Y-137160000D02*
X125730000Y-124626000D01*
X116205000Y-61431962D02*
X123988038Y-69215000D01*
X116205000Y-56515000D02*
X116205000Y-61431962D01*
X123988038Y-69215000D02*
X128270000Y-69215000D01*
X128270000Y-69215000D02*
X128270000Y-69215000D01*
X128905000Y-86360000D02*
X128905000Y-91440000D01*
X128905000Y-91440000D02*
X130175000Y-92710000D01*
X130175000Y-99695000D02*
X132715000Y-102235000D01*
X130175000Y-92710000D02*
X130175000Y-99695000D01*
X126907001Y-120742999D02*
X123825000Y-123825000D01*
X131318000Y-116332000D02*
X126907001Y-120742999D01*
X131318000Y-103632000D02*
X131318000Y-116332000D01*
X132715000Y-102235000D02*
X131318000Y-103632000D01*
X121285000Y-125027081D02*
X120582081Y-125730000D01*
X121285000Y-123825000D02*
X121285000Y-125027081D01*
X120582081Y-125730000D02*
X116205000Y-125730000D01*
X115662999Y-125187999D02*
X109947999Y-125187999D01*
X116205000Y-125730000D02*
X115662999Y-125187999D01*
X109947999Y-125187999D02*
X108585000Y-123825000D01*
X133985000Y-81280000D02*
X130810000Y-78105000D01*
X130810000Y-78105000D02*
X113665000Y-78105000D01*
X113665000Y-78105000D02*
X113665000Y-78105000D01*
X108585000Y-123825000D02*
X108585000Y-80010000D01*
X108585000Y-80010000D02*
X110490000Y-78105000D01*
X110490000Y-78105000D02*
X110490000Y-78105000D01*
X137795000Y-93980000D02*
X141605000Y-90170000D01*
X141605000Y-90170000D02*
X141605000Y-86360000D01*
X132792599Y-85232999D02*
X120458041Y-85232999D01*
X134127999Y-110395961D02*
X134127999Y-101554275D01*
X134127999Y-101554275D02*
X130872999Y-98299275D01*
X130872999Y-98299275D02*
X130872999Y-93439039D01*
X132792599Y-91519439D02*
X132792599Y-85232999D01*
X130872999Y-93439039D02*
X132792599Y-91519439D01*
X120458041Y-85232999D02*
X119872001Y-85819039D01*
X119872001Y-85819039D02*
X119872001Y-97884039D01*
X120015000Y-98027038D02*
X119872001Y-97884039D01*
X120015000Y-102235000D02*
X120015000Y-98027038D01*
X141605000Y-81280000D02*
X141605000Y-86360000D01*
X134712999Y-129632999D02*
X135890000Y-130810000D01*
X134712999Y-120239963D02*
X134712999Y-129632999D01*
X135112001Y-119840961D02*
X134712999Y-120239963D01*
X135112001Y-111379963D02*
X135112001Y-119840961D01*
X134127999Y-110395961D02*
X135112001Y-111379963D01*
X111192919Y-126365000D02*
X112395000Y-126365000D01*
X110482933Y-126365000D02*
X111192919Y-126365000D01*
X108042001Y-123924068D02*
X110482933Y-126365000D01*
X128905000Y-81280000D02*
X126365000Y-78740000D01*
X108042001Y-123924068D02*
X108042001Y-78832001D01*
X108042001Y-78832001D02*
X106997500Y-77787500D01*
X114300000Y-78740000D02*
X113665000Y-79375000D01*
X126365000Y-78740000D02*
X114300000Y-78740000D01*
X123825000Y-132715000D02*
X107466398Y-132715000D01*
X107466398Y-132715000D02*
X105452999Y-130701601D01*
X105452999Y-130701601D02*
X105452999Y-86952001D01*
X105452999Y-86952001D02*
X106045000Y-86360000D01*
X106045000Y-86360000D02*
X106045000Y-86360000D01*
M02*
