G04 #@! TF.GenerationSoftware,KiCad,Pcbnew,(5.1.5)-3*
G04 #@! TF.CreationDate,2020-07-24T15:51:42-07:00*
G04 #@! TF.ProjectId,DSABATLI1,44534142-4154-44c4-9931-2e6b69636164,rev?*
G04 #@! TF.SameCoordinates,Original*
G04 #@! TF.FileFunction,Legend,Top*
G04 #@! TF.FilePolarity,Positive*
%FSLAX46Y46*%
G04 Gerber Fmt 4.6, Leading zero omitted, Abs format (unit mm)*
G04 Created by KiCad (PCBNEW (5.1.5)-3) date 2020-07-24 15:51:42*
%MOMM*%
%LPD*%
G04 APERTURE LIST*
%ADD10C,0.150000*%
%ADD11C,0.304800*%
%ADD12C,0.762000*%
%ADD13C,0.120000*%
G04 APERTURE END LIST*
D10*
X148725238Y-97877380D02*
X148725238Y-98591666D01*
X148677619Y-98734523D01*
X148582380Y-98829761D01*
X148439523Y-98877380D01*
X148344285Y-98877380D01*
X149201428Y-97877380D02*
X149201428Y-98686904D01*
X149249047Y-98782142D01*
X149296666Y-98829761D01*
X149391904Y-98877380D01*
X149582380Y-98877380D01*
X149677619Y-98829761D01*
X149725238Y-98782142D01*
X149772857Y-98686904D01*
X149772857Y-97877380D01*
X150249047Y-98877380D02*
X150249047Y-97877380D01*
X150582380Y-98591666D01*
X150915714Y-97877380D01*
X150915714Y-98877380D01*
X151391904Y-98877380D02*
X151391904Y-97877380D01*
X151772857Y-97877380D01*
X151868095Y-97925000D01*
X151915714Y-97972619D01*
X151963333Y-98067857D01*
X151963333Y-98210714D01*
X151915714Y-98305952D01*
X151868095Y-98353571D01*
X151772857Y-98401190D01*
X151391904Y-98401190D01*
X152391904Y-98353571D02*
X152725238Y-98353571D01*
X152868095Y-98877380D02*
X152391904Y-98877380D01*
X152391904Y-97877380D01*
X152868095Y-97877380D01*
X153868095Y-98877380D02*
X153534761Y-98401190D01*
X153296666Y-98877380D02*
X153296666Y-97877380D01*
X153677619Y-97877380D01*
X153772857Y-97925000D01*
X153820476Y-97972619D01*
X153868095Y-98067857D01*
X153868095Y-98210714D01*
X153820476Y-98305952D01*
X153772857Y-98353571D01*
X153677619Y-98401190D01*
X153296666Y-98401190D01*
D11*
X132140476Y-127514047D02*
X132140476Y-124974047D01*
X132745238Y-124974047D01*
X133108095Y-125095000D01*
X133350000Y-125336904D01*
X133470952Y-125578809D01*
X133591904Y-126062619D01*
X133591904Y-126425476D01*
X133470952Y-126909285D01*
X133350000Y-127151190D01*
X133108095Y-127393095D01*
X132745238Y-127514047D01*
X132140476Y-127514047D01*
X134559523Y-127393095D02*
X134922380Y-127514047D01*
X135527142Y-127514047D01*
X135769047Y-127393095D01*
X135890000Y-127272142D01*
X136010952Y-127030238D01*
X136010952Y-126788333D01*
X135890000Y-126546428D01*
X135769047Y-126425476D01*
X135527142Y-126304523D01*
X135043333Y-126183571D01*
X134801428Y-126062619D01*
X134680476Y-125941666D01*
X134559523Y-125699761D01*
X134559523Y-125457857D01*
X134680476Y-125215952D01*
X134801428Y-125095000D01*
X135043333Y-124974047D01*
X135648095Y-124974047D01*
X136010952Y-125095000D01*
X136978571Y-126788333D02*
X138188095Y-126788333D01*
X136736666Y-127514047D02*
X137583333Y-124974047D01*
X138430000Y-127514047D01*
X140123333Y-126183571D02*
X140486190Y-126304523D01*
X140607142Y-126425476D01*
X140728095Y-126667380D01*
X140728095Y-127030238D01*
X140607142Y-127272142D01*
X140486190Y-127393095D01*
X140244285Y-127514047D01*
X139276666Y-127514047D01*
X139276666Y-124974047D01*
X140123333Y-124974047D01*
X140365238Y-125095000D01*
X140486190Y-125215952D01*
X140607142Y-125457857D01*
X140607142Y-125699761D01*
X140486190Y-125941666D01*
X140365238Y-126062619D01*
X140123333Y-126183571D01*
X139276666Y-126183571D01*
X141695714Y-126788333D02*
X142905238Y-126788333D01*
X141453809Y-127514047D02*
X142300476Y-124974047D01*
X143147142Y-127514047D01*
X143630952Y-124974047D02*
X145082380Y-124974047D01*
X144356666Y-127514047D02*
X144356666Y-124974047D01*
X149073809Y-127514047D02*
X147864285Y-127514047D01*
X147864285Y-124974047D01*
X149920476Y-127514047D02*
X149920476Y-125820714D01*
X149920476Y-124974047D02*
X149799523Y-125095000D01*
X149920476Y-125215952D01*
X150041428Y-125095000D01*
X149920476Y-124974047D01*
X149920476Y-125215952D01*
X151492857Y-127514047D02*
X151250952Y-127393095D01*
X151130000Y-127272142D01*
X151009047Y-127030238D01*
X151009047Y-126304523D01*
X151130000Y-126062619D01*
X151250952Y-125941666D01*
X151492857Y-125820714D01*
X151855714Y-125820714D01*
X152097619Y-125941666D01*
X152218571Y-126062619D01*
X152339523Y-126304523D01*
X152339523Y-127030238D01*
X152218571Y-127272142D01*
X152097619Y-127393095D01*
X151855714Y-127514047D01*
X151492857Y-127514047D01*
X153428095Y-125820714D02*
X153428095Y-127514047D01*
X153428095Y-126062619D02*
X153549047Y-125941666D01*
X153790952Y-125820714D01*
X154153809Y-125820714D01*
X154395714Y-125941666D01*
X154516666Y-126183571D01*
X154516666Y-127514047D01*
X159112857Y-127514047D02*
X158266190Y-126304523D01*
X157661428Y-127514047D02*
X157661428Y-124974047D01*
X158629047Y-124974047D01*
X158870952Y-125095000D01*
X158991904Y-125215952D01*
X159112857Y-125457857D01*
X159112857Y-125820714D01*
X158991904Y-126062619D01*
X158870952Y-126183571D01*
X158629047Y-126304523D01*
X157661428Y-126304523D01*
X160201428Y-126183571D02*
X161048095Y-126183571D01*
X161410952Y-127514047D02*
X160201428Y-127514047D01*
X160201428Y-124974047D01*
X161410952Y-124974047D01*
X162136666Y-124974047D02*
X162983333Y-127514047D01*
X163830000Y-124974047D01*
X166490952Y-126788333D02*
X167700476Y-126788333D01*
X166249047Y-127514047D02*
X167095714Y-124974047D01*
X167942380Y-127514047D01*
D12*
X151250952Y-104865714D02*
X151553333Y-104260952D01*
X151855714Y-103958571D01*
X152460476Y-103656190D01*
X152762857Y-103656190D01*
X153367619Y-103958571D01*
X153670000Y-104260952D01*
X153972380Y-104865714D01*
X153972380Y-106075238D01*
X153670000Y-106680000D01*
X153367619Y-106982380D01*
X152762857Y-107284761D01*
X152460476Y-107284761D01*
X151855714Y-106982380D01*
X151553333Y-106680000D01*
X151250952Y-106075238D01*
X151250952Y-104865714D01*
X150948571Y-104260952D01*
X150646190Y-103958571D01*
X150041428Y-103656190D01*
X148831904Y-103656190D01*
X148227142Y-103958571D01*
X147924761Y-104260952D01*
X147622380Y-104865714D01*
X147622380Y-106075238D01*
X147924761Y-106680000D01*
X148227142Y-106982380D01*
X148831904Y-107284761D01*
X150041428Y-107284761D01*
X150646190Y-106982380D01*
X150948571Y-106680000D01*
X151250952Y-106075238D01*
X151250952Y-110913333D02*
X151553333Y-110308571D01*
X151855714Y-110006190D01*
X152460476Y-109703809D01*
X152762857Y-109703809D01*
X153367619Y-110006190D01*
X153670000Y-110308571D01*
X153972380Y-110913333D01*
X153972380Y-112122857D01*
X153670000Y-112727619D01*
X153367619Y-113030000D01*
X152762857Y-113332380D01*
X152460476Y-113332380D01*
X151855714Y-113030000D01*
X151553333Y-112727619D01*
X151250952Y-112122857D01*
X151250952Y-110913333D01*
X150948571Y-110308571D01*
X150646190Y-110006190D01*
X150041428Y-109703809D01*
X148831904Y-109703809D01*
X148227142Y-110006190D01*
X147924761Y-110308571D01*
X147622380Y-110913333D01*
X147622380Y-112122857D01*
X147924761Y-112727619D01*
X148227142Y-113030000D01*
X148831904Y-113332380D01*
X150041428Y-113332380D01*
X150646190Y-113030000D01*
X150948571Y-112727619D01*
X151250952Y-112122857D01*
X148227142Y-116053809D02*
X147924761Y-116356190D01*
X147622380Y-116053809D01*
X147924761Y-115751428D01*
X148227142Y-116053809D01*
X147622380Y-116053809D01*
X151250952Y-119984761D02*
X151553333Y-119380000D01*
X151855714Y-119077619D01*
X152460476Y-118775238D01*
X152762857Y-118775238D01*
X153367619Y-119077619D01*
X153670000Y-119380000D01*
X153972380Y-119984761D01*
X153972380Y-121194285D01*
X153670000Y-121799047D01*
X153367619Y-122101428D01*
X152762857Y-122403809D01*
X152460476Y-122403809D01*
X151855714Y-122101428D01*
X151553333Y-121799047D01*
X151250952Y-121194285D01*
X151250952Y-119984761D01*
X150948571Y-119380000D01*
X150646190Y-119077619D01*
X150041428Y-118775238D01*
X148831904Y-118775238D01*
X148227142Y-119077619D01*
X147924761Y-119380000D01*
X147622380Y-119984761D01*
X147622380Y-121194285D01*
X147924761Y-121799047D01*
X148227142Y-122101428D01*
X148831904Y-122403809D01*
X150041428Y-122403809D01*
X150646190Y-122101428D01*
X150948571Y-121799047D01*
X151250952Y-121194285D01*
D10*
X160456666Y-82478571D02*
X160599523Y-82526190D01*
X160647142Y-82573809D01*
X160694761Y-82669047D01*
X160694761Y-82811904D01*
X160647142Y-82907142D01*
X160599523Y-82954761D01*
X160504285Y-83002380D01*
X160123333Y-83002380D01*
X160123333Y-82002380D01*
X160456666Y-82002380D01*
X160551904Y-82050000D01*
X160599523Y-82097619D01*
X160647142Y-82192857D01*
X160647142Y-82288095D01*
X160599523Y-82383333D01*
X160551904Y-82430952D01*
X160456666Y-82478571D01*
X160123333Y-82478571D01*
X161599523Y-83002380D02*
X161123333Y-83002380D01*
X161123333Y-82002380D01*
X161932857Y-83002380D02*
X161932857Y-82002380D01*
X162504285Y-83002380D02*
X162075714Y-82430952D01*
X162504285Y-82002380D02*
X161932857Y-82573809D01*
X131881666Y-82478571D02*
X132024523Y-82526190D01*
X132072142Y-82573809D01*
X132119761Y-82669047D01*
X132119761Y-82811904D01*
X132072142Y-82907142D01*
X132024523Y-82954761D01*
X131929285Y-83002380D01*
X131548333Y-83002380D01*
X131548333Y-82002380D01*
X131881666Y-82002380D01*
X131976904Y-82050000D01*
X132024523Y-82097619D01*
X132072142Y-82192857D01*
X132072142Y-82288095D01*
X132024523Y-82383333D01*
X131976904Y-82430952D01*
X131881666Y-82478571D01*
X131548333Y-82478571D01*
X133024523Y-83002380D02*
X132548333Y-83002380D01*
X132548333Y-82002380D01*
X133357857Y-83002380D02*
X133357857Y-82002380D01*
X133929285Y-83002380D02*
X133500714Y-82430952D01*
X133929285Y-82002380D02*
X133357857Y-82573809D01*
X138422142Y-83002380D02*
X138088809Y-82526190D01*
X137850714Y-83002380D02*
X137850714Y-82002380D01*
X138231666Y-82002380D01*
X138326904Y-82050000D01*
X138374523Y-82097619D01*
X138422142Y-82192857D01*
X138422142Y-82335714D01*
X138374523Y-82430952D01*
X138326904Y-82478571D01*
X138231666Y-82526190D01*
X137850714Y-82526190D01*
X138850714Y-82478571D02*
X139184047Y-82478571D01*
X139326904Y-83002380D02*
X138850714Y-83002380D01*
X138850714Y-82002380D01*
X139326904Y-82002380D01*
X139755476Y-83002380D02*
X139755476Y-82002380D01*
X139993571Y-82002380D01*
X140136428Y-82050000D01*
X140231666Y-82145238D01*
X140279285Y-82240476D01*
X140326904Y-82430952D01*
X140326904Y-82573809D01*
X140279285Y-82764285D01*
X140231666Y-82859523D01*
X140136428Y-82954761D01*
X139993571Y-83002380D01*
X139755476Y-83002380D01*
X191762142Y-83002380D02*
X191428809Y-82526190D01*
X191190714Y-83002380D02*
X191190714Y-82002380D01*
X191571666Y-82002380D01*
X191666904Y-82050000D01*
X191714523Y-82097619D01*
X191762142Y-82192857D01*
X191762142Y-82335714D01*
X191714523Y-82430952D01*
X191666904Y-82478571D01*
X191571666Y-82526190D01*
X191190714Y-82526190D01*
X192190714Y-82478571D02*
X192524047Y-82478571D01*
X192666904Y-83002380D02*
X192190714Y-83002380D01*
X192190714Y-82002380D01*
X192666904Y-82002380D01*
X193095476Y-83002380D02*
X193095476Y-82002380D01*
X193333571Y-82002380D01*
X193476428Y-82050000D01*
X193571666Y-82145238D01*
X193619285Y-82240476D01*
X193666904Y-82430952D01*
X193666904Y-82573809D01*
X193619285Y-82764285D01*
X193571666Y-82859523D01*
X193476428Y-82954761D01*
X193333571Y-83002380D01*
X193095476Y-83002380D01*
X166997142Y-83002380D02*
X166663809Y-82526190D01*
X166425714Y-83002380D02*
X166425714Y-82002380D01*
X166806666Y-82002380D01*
X166901904Y-82050000D01*
X166949523Y-82097619D01*
X166997142Y-82192857D01*
X166997142Y-82335714D01*
X166949523Y-82430952D01*
X166901904Y-82478571D01*
X166806666Y-82526190D01*
X166425714Y-82526190D01*
X167425714Y-82478571D02*
X167759047Y-82478571D01*
X167901904Y-83002380D02*
X167425714Y-83002380D01*
X167425714Y-82002380D01*
X167901904Y-82002380D01*
X168330476Y-83002380D02*
X168330476Y-82002380D01*
X168568571Y-82002380D01*
X168711428Y-82050000D01*
X168806666Y-82145238D01*
X168854285Y-82240476D01*
X168901904Y-82430952D01*
X168901904Y-82573809D01*
X168854285Y-82764285D01*
X168806666Y-82859523D01*
X168711428Y-82954761D01*
X168568571Y-83002380D01*
X168330476Y-83002380D01*
X185221666Y-82478571D02*
X185364523Y-82526190D01*
X185412142Y-82573809D01*
X185459761Y-82669047D01*
X185459761Y-82811904D01*
X185412142Y-82907142D01*
X185364523Y-82954761D01*
X185269285Y-83002380D01*
X184888333Y-83002380D01*
X184888333Y-82002380D01*
X185221666Y-82002380D01*
X185316904Y-82050000D01*
X185364523Y-82097619D01*
X185412142Y-82192857D01*
X185412142Y-82288095D01*
X185364523Y-82383333D01*
X185316904Y-82430952D01*
X185221666Y-82478571D01*
X184888333Y-82478571D01*
X186364523Y-83002380D02*
X185888333Y-83002380D01*
X185888333Y-82002380D01*
X186697857Y-83002380D02*
X186697857Y-82002380D01*
X187269285Y-83002380D02*
X186840714Y-82430952D01*
X187269285Y-82002380D02*
X186697857Y-82573809D01*
X119372142Y-83002380D02*
X119038809Y-82526190D01*
X118800714Y-83002380D02*
X118800714Y-82002380D01*
X119181666Y-82002380D01*
X119276904Y-82050000D01*
X119324523Y-82097619D01*
X119372142Y-82192857D01*
X119372142Y-82335714D01*
X119324523Y-82430952D01*
X119276904Y-82478571D01*
X119181666Y-82526190D01*
X118800714Y-82526190D01*
X119800714Y-82478571D02*
X120134047Y-82478571D01*
X120276904Y-83002380D02*
X119800714Y-83002380D01*
X119800714Y-82002380D01*
X120276904Y-82002380D01*
X120705476Y-83002380D02*
X120705476Y-82002380D01*
X120943571Y-82002380D01*
X121086428Y-82050000D01*
X121181666Y-82145238D01*
X121229285Y-82240476D01*
X121276904Y-82430952D01*
X121276904Y-82573809D01*
X121229285Y-82764285D01*
X121181666Y-82859523D01*
X121086428Y-82954761D01*
X120943571Y-83002380D01*
X120705476Y-83002380D01*
X112196666Y-82478571D02*
X112339523Y-82526190D01*
X112387142Y-82573809D01*
X112434761Y-82669047D01*
X112434761Y-82811904D01*
X112387142Y-82907142D01*
X112339523Y-82954761D01*
X112244285Y-83002380D01*
X111863333Y-83002380D01*
X111863333Y-82002380D01*
X112196666Y-82002380D01*
X112291904Y-82050000D01*
X112339523Y-82097619D01*
X112387142Y-82192857D01*
X112387142Y-82288095D01*
X112339523Y-82383333D01*
X112291904Y-82430952D01*
X112196666Y-82478571D01*
X111863333Y-82478571D01*
X113339523Y-83002380D02*
X112863333Y-83002380D01*
X112863333Y-82002380D01*
X113672857Y-83002380D02*
X113672857Y-82002380D01*
X114244285Y-83002380D02*
X113815714Y-82430952D01*
X114244285Y-82002380D02*
X113672857Y-82573809D01*
X114919285Y-123261428D02*
X115681190Y-123261428D01*
X115300238Y-123642380D02*
X115300238Y-122880476D01*
X116585952Y-122975714D02*
X116585952Y-123642380D01*
X116347857Y-122594761D02*
X116109761Y-123309047D01*
X116728809Y-123309047D01*
X116966904Y-122642380D02*
X117300238Y-123642380D01*
X117633571Y-122642380D01*
X134604285Y-123261428D02*
X135366190Y-123261428D01*
X134985238Y-123642380D02*
X134985238Y-122880476D01*
X135985238Y-123070952D02*
X135890000Y-123023333D01*
X135842380Y-122975714D01*
X135794761Y-122880476D01*
X135794761Y-122832857D01*
X135842380Y-122737619D01*
X135890000Y-122690000D01*
X135985238Y-122642380D01*
X136175714Y-122642380D01*
X136270952Y-122690000D01*
X136318571Y-122737619D01*
X136366190Y-122832857D01*
X136366190Y-122880476D01*
X136318571Y-122975714D01*
X136270952Y-123023333D01*
X136175714Y-123070952D01*
X135985238Y-123070952D01*
X135890000Y-123118571D01*
X135842380Y-123166190D01*
X135794761Y-123261428D01*
X135794761Y-123451904D01*
X135842380Y-123547142D01*
X135890000Y-123594761D01*
X135985238Y-123642380D01*
X136175714Y-123642380D01*
X136270952Y-123594761D01*
X136318571Y-123547142D01*
X136366190Y-123451904D01*
X136366190Y-123261428D01*
X136318571Y-123166190D01*
X136270952Y-123118571D01*
X136175714Y-123070952D01*
X136651904Y-122642380D02*
X136985238Y-123642380D01*
X137318571Y-122642380D01*
X162703095Y-123261428D02*
X163465000Y-123261428D01*
X163084047Y-123642380D02*
X163084047Y-122880476D01*
X164465000Y-123642380D02*
X163893571Y-123642380D01*
X164179285Y-123642380D02*
X164179285Y-122642380D01*
X164084047Y-122785238D01*
X163988809Y-122880476D01*
X163893571Y-122928095D01*
X164845952Y-122737619D02*
X164893571Y-122690000D01*
X164988809Y-122642380D01*
X165226904Y-122642380D01*
X165322142Y-122690000D01*
X165369761Y-122737619D01*
X165417380Y-122832857D01*
X165417380Y-122928095D01*
X165369761Y-123070952D01*
X164798333Y-123642380D01*
X165417380Y-123642380D01*
X165703095Y-122642380D02*
X166036428Y-123642380D01*
X166369761Y-122642380D01*
X187468095Y-123261428D02*
X188230000Y-123261428D01*
X187849047Y-123642380D02*
X187849047Y-122880476D01*
X189230000Y-123642380D02*
X188658571Y-123642380D01*
X188944285Y-123642380D02*
X188944285Y-122642380D01*
X188849047Y-122785238D01*
X188753809Y-122880476D01*
X188658571Y-122928095D01*
X190087142Y-122642380D02*
X189896666Y-122642380D01*
X189801428Y-122690000D01*
X189753809Y-122737619D01*
X189658571Y-122880476D01*
X189610952Y-123070952D01*
X189610952Y-123451904D01*
X189658571Y-123547142D01*
X189706190Y-123594761D01*
X189801428Y-123642380D01*
X189991904Y-123642380D01*
X190087142Y-123594761D01*
X190134761Y-123547142D01*
X190182380Y-123451904D01*
X190182380Y-123213809D01*
X190134761Y-123118571D01*
X190087142Y-123070952D01*
X189991904Y-123023333D01*
X189801428Y-123023333D01*
X189706190Y-123070952D01*
X189658571Y-123118571D01*
X189610952Y-123213809D01*
X190468095Y-122642380D02*
X190801428Y-123642380D01*
X191134761Y-122642380D01*
X155503571Y-89678095D02*
X155503571Y-90440000D01*
X155122619Y-90059047D02*
X155884523Y-90059047D01*
X155122619Y-91440000D02*
X155122619Y-90868571D01*
X155122619Y-91154285D02*
X156122619Y-91154285D01*
X155979761Y-91059047D01*
X155884523Y-90963809D01*
X155836904Y-90868571D01*
X156122619Y-92297142D02*
X156122619Y-92106666D01*
X156075000Y-92011428D01*
X156027380Y-91963809D01*
X155884523Y-91868571D01*
X155694047Y-91820952D01*
X155313095Y-91820952D01*
X155217857Y-91868571D01*
X155170238Y-91916190D01*
X155122619Y-92011428D01*
X155122619Y-92201904D01*
X155170238Y-92297142D01*
X155217857Y-92344761D01*
X155313095Y-92392380D01*
X155551190Y-92392380D01*
X155646428Y-92344761D01*
X155694047Y-92297142D01*
X155741666Y-92201904D01*
X155741666Y-92011428D01*
X155694047Y-91916190D01*
X155646428Y-91868571D01*
X155551190Y-91820952D01*
X156122619Y-92678095D02*
X155122619Y-93011428D01*
X156122619Y-93344761D01*
X152328571Y-89678095D02*
X152328571Y-90440000D01*
X151947619Y-90059047D02*
X152709523Y-90059047D01*
X151947619Y-91440000D02*
X151947619Y-90868571D01*
X151947619Y-91154285D02*
X152947619Y-91154285D01*
X152804761Y-91059047D01*
X152709523Y-90963809D01*
X152661904Y-90868571D01*
X152852380Y-91820952D02*
X152900000Y-91868571D01*
X152947619Y-91963809D01*
X152947619Y-92201904D01*
X152900000Y-92297142D01*
X152852380Y-92344761D01*
X152757142Y-92392380D01*
X152661904Y-92392380D01*
X152519047Y-92344761D01*
X151947619Y-91773333D01*
X151947619Y-92392380D01*
X152947619Y-92678095D02*
X151947619Y-93011428D01*
X152947619Y-93344761D01*
X149153571Y-90154285D02*
X149153571Y-90916190D01*
X148772619Y-90535238D02*
X149534523Y-90535238D01*
X149344047Y-91535238D02*
X149391666Y-91440000D01*
X149439285Y-91392380D01*
X149534523Y-91344761D01*
X149582142Y-91344761D01*
X149677380Y-91392380D01*
X149725000Y-91440000D01*
X149772619Y-91535238D01*
X149772619Y-91725714D01*
X149725000Y-91820952D01*
X149677380Y-91868571D01*
X149582142Y-91916190D01*
X149534523Y-91916190D01*
X149439285Y-91868571D01*
X149391666Y-91820952D01*
X149344047Y-91725714D01*
X149344047Y-91535238D01*
X149296428Y-91440000D01*
X149248809Y-91392380D01*
X149153571Y-91344761D01*
X148963095Y-91344761D01*
X148867857Y-91392380D01*
X148820238Y-91440000D01*
X148772619Y-91535238D01*
X148772619Y-91725714D01*
X148820238Y-91820952D01*
X148867857Y-91868571D01*
X148963095Y-91916190D01*
X149153571Y-91916190D01*
X149248809Y-91868571D01*
X149296428Y-91820952D01*
X149344047Y-91725714D01*
X149772619Y-92201904D02*
X148772619Y-92535238D01*
X149772619Y-92868571D01*
X145978571Y-90154285D02*
X145978571Y-90916190D01*
X145597619Y-90535238D02*
X146359523Y-90535238D01*
X146264285Y-91820952D02*
X145597619Y-91820952D01*
X146645238Y-91582857D02*
X145930952Y-91344761D01*
X145930952Y-91963809D01*
X146597619Y-92201904D02*
X145597619Y-92535238D01*
X146597619Y-92868571D01*
D13*
X156210000Y-114300000D02*
X144145000Y-114300000D01*
X153730000Y-102175000D02*
X151495000Y-102175000D01*
X153730000Y-122615000D02*
X153730000Y-102175000D01*
X147260000Y-122615000D02*
X153730000Y-122615000D01*
X147260000Y-102175000D02*
X147260000Y-122615000D01*
X149495000Y-102175000D02*
X147260000Y-102175000D01*
X151495000Y-102175000D02*
G75*
G02X149495000Y-102175000I-1000000J0D01*
G01*
X110510000Y-128635000D02*
X110510000Y-125435000D01*
X128211000Y-128635000D02*
X128211000Y-125435000D01*
X113381000Y-125435000D02*
X110510000Y-125435000D01*
X128211000Y-125435000D02*
X115138000Y-125435000D01*
X123581000Y-128635000D02*
X110510000Y-128635000D01*
X128211000Y-128635000D02*
X125339000Y-128635000D01*
D10*
X116999047Y-127452380D02*
X116427619Y-127452380D01*
X116713333Y-127452380D02*
X116713333Y-126452380D01*
X116618095Y-126595238D01*
X116522857Y-126690476D01*
X116427619Y-126738095D01*
X117856190Y-126785714D02*
X117856190Y-127452380D01*
X117618095Y-126404761D02*
X117380000Y-127119047D01*
X117999047Y-127119047D01*
X118332380Y-127166666D02*
X118808571Y-127166666D01*
X118237142Y-127452380D02*
X118570476Y-126452380D01*
X118903809Y-127452380D01*
X119999047Y-127452380D02*
X119999047Y-126452380D01*
X120380000Y-126452380D01*
X120475238Y-126500000D01*
X120522857Y-126547619D01*
X120570476Y-126642857D01*
X120570476Y-126785714D01*
X120522857Y-126880952D01*
X120475238Y-126928571D01*
X120380000Y-126976190D01*
X119999047Y-126976190D01*
X120856190Y-126452380D02*
X121427619Y-126452380D01*
X121141904Y-127452380D02*
X121141904Y-126452380D01*
X122332380Y-127357142D02*
X122284761Y-127404761D01*
X122141904Y-127452380D01*
X122046666Y-127452380D01*
X121903809Y-127404761D01*
X121808571Y-127309523D01*
X121760952Y-127214285D01*
X121713333Y-127023809D01*
X121713333Y-126880952D01*
X121760952Y-126690476D01*
X121808571Y-126595238D01*
X121903809Y-126500000D01*
X122046666Y-126452380D01*
X122141904Y-126452380D01*
X122284761Y-126500000D01*
X122332380Y-126547619D01*
X171537380Y-91614523D02*
X172251666Y-91614523D01*
X172394523Y-91662142D01*
X172489761Y-91757380D01*
X172537380Y-91900238D01*
X172537380Y-91995476D01*
X171537380Y-91233571D02*
X171537380Y-90614523D01*
X171918333Y-90947857D01*
X171918333Y-90805000D01*
X171965952Y-90709761D01*
X172013571Y-90662142D01*
X172108809Y-90614523D01*
X172346904Y-90614523D01*
X172442142Y-90662142D01*
X172489761Y-90709761D01*
X172537380Y-90805000D01*
X172537380Y-91090714D01*
X172489761Y-91185952D01*
X172442142Y-91233571D01*
X171870714Y-89757380D02*
X172537380Y-89757380D01*
X171489761Y-89995476D02*
X172204047Y-90233571D01*
X172204047Y-89614523D01*
X175474523Y-99766428D02*
X176236428Y-99766428D01*
X175855476Y-100147380D02*
X175855476Y-99385476D01*
X177045952Y-99623571D02*
X177188809Y-99671190D01*
X177236428Y-99718809D01*
X177284047Y-99814047D01*
X177284047Y-99956904D01*
X177236428Y-100052142D01*
X177188809Y-100099761D01*
X177093571Y-100147380D01*
X176712619Y-100147380D01*
X176712619Y-99147380D01*
X177045952Y-99147380D01*
X177141190Y-99195000D01*
X177188809Y-99242619D01*
X177236428Y-99337857D01*
X177236428Y-99433095D01*
X177188809Y-99528333D01*
X177141190Y-99575952D01*
X177045952Y-99623571D01*
X176712619Y-99623571D01*
X177665000Y-99861666D02*
X178141190Y-99861666D01*
X177569761Y-100147380D02*
X177903095Y-99147380D01*
X178236428Y-100147380D01*
X178426904Y-99147380D02*
X178998333Y-99147380D01*
X178712619Y-100147380D02*
X178712619Y-99147380D01*
X171537380Y-120189523D02*
X172251666Y-120189523D01*
X172394523Y-120237142D01*
X172489761Y-120332380D01*
X172537380Y-120475238D01*
X172537380Y-120570476D01*
X171537380Y-119808571D02*
X171537380Y-119189523D01*
X171918333Y-119522857D01*
X171918333Y-119380000D01*
X171965952Y-119284761D01*
X172013571Y-119237142D01*
X172108809Y-119189523D01*
X172346904Y-119189523D01*
X172442142Y-119237142D01*
X172489761Y-119284761D01*
X172537380Y-119380000D01*
X172537380Y-119665714D01*
X172489761Y-119760952D01*
X172442142Y-119808571D01*
X171537380Y-118856190D02*
X171537380Y-118237142D01*
X171918333Y-118570476D01*
X171918333Y-118427619D01*
X171965952Y-118332380D01*
X172013571Y-118284761D01*
X172108809Y-118237142D01*
X172346904Y-118237142D01*
X172442142Y-118284761D01*
X172489761Y-118332380D01*
X172537380Y-118427619D01*
X172537380Y-118713333D01*
X172489761Y-118808571D01*
X172442142Y-118856190D01*
X176403095Y-110625000D02*
X176307857Y-110577380D01*
X176165000Y-110577380D01*
X176022142Y-110625000D01*
X175926904Y-110720238D01*
X175879285Y-110815476D01*
X175831666Y-111005952D01*
X175831666Y-111148809D01*
X175879285Y-111339285D01*
X175926904Y-111434523D01*
X176022142Y-111529761D01*
X176165000Y-111577380D01*
X176260238Y-111577380D01*
X176403095Y-111529761D01*
X176450714Y-111482142D01*
X176450714Y-111148809D01*
X176260238Y-111148809D01*
X176879285Y-111577380D02*
X176879285Y-110577380D01*
X177450714Y-111577380D01*
X177450714Y-110577380D01*
X177926904Y-111577380D02*
X177926904Y-110577380D01*
X178165000Y-110577380D01*
X178307857Y-110625000D01*
X178403095Y-110720238D01*
X178450714Y-110815476D01*
X178498333Y-111005952D01*
X178498333Y-111148809D01*
X178450714Y-111339285D01*
X178403095Y-111434523D01*
X178307857Y-111529761D01*
X178165000Y-111577380D01*
X177926904Y-111577380D01*
M02*
