M48
; DRILL file {KiCad (5.1.9)-1} date 04/15/23 15:35:25
; FORMAT={-:-/ absolute / inch / decimal}
; #@! TF.CreationDate,2023-04-15T15:35:25-07:00
; #@! TF.GenerationSoftware,Kicad,Pcbnew,(5.1.9)-1
; #@! TF.FileFunction,Plated,1,2,PTH
FMAT,2
INCH
T1C0.0315
T2C0.0354
T3C0.0366
T4C0.0394
T5C0.0571
T6C0.0724
T7C0.1000
%
G90
G05
T1
X2.95Y-2.825
X3.275Y-3.0
X3.35Y-2.825
X3.4719Y-3.0
X3.85Y-4.775
X4.25Y-4.775
X4.7281Y-2.9
X4.925Y-2.9
T2
X3.975Y-2.575
X4.075Y-2.575
T3
X3.0234Y-4.3219
X3.1628Y-3.823
X3.2833Y-4.0266
X3.4226Y-3.5278
X4.6774Y-4.3222
X4.8167Y-3.8234
X4.9372Y-4.027
X5.0766Y-3.5281
T4
X3.15Y-3.225
X3.65Y-3.225
X4.625Y-3.2
X5.125Y-3.2
T5
X3.0211Y-3.5474
X3.0211Y-3.8624
X3.1392Y-3.5474
X3.3069Y-4.3022
X3.425Y-3.9872
X3.425Y-4.3022
X4.675Y-3.5478
X4.675Y-3.8628
X4.7931Y-3.5478
X4.9608Y-4.3026
X5.0789Y-3.9876
X5.0789Y-4.3026
T6
X2.725Y-2.525
X2.725Y-2.725
X2.725Y-2.95
X2.725Y-3.15
X2.725Y-3.375
X2.725Y-3.575
X2.725Y-3.8
X2.725Y-4.0
X2.725Y-4.225
X2.725Y-4.425
X2.725Y-4.65
X2.725Y-4.85
X3.025Y-2.575
X3.225Y-2.575
X3.475Y-2.575
X3.675Y-2.575
X4.45Y-2.575
X4.65Y-2.575
X4.9Y-2.575
X5.1Y-2.575
T7
X3.725Y-3.7
X3.725Y-4.0
X3.725Y-4.3
X3.925Y-3.7
X3.925Y-4.0
X3.925Y-4.3
X4.125Y-3.7
X4.125Y-4.0
X4.125Y-4.3
X4.325Y-3.7
X4.325Y-4.0
X4.325Y-4.3
T0
M30
