M48
; DRILL file {KiCad (5.1.9)-1} date 03/25/21 16:00:51
; FORMAT={-:-/ absolute / inch / decimal}
; #@! TF.CreationDate,2021-03-25T16:00:51-07:00
; #@! TF.GenerationSoftware,Kicad,Pcbnew,(5.1.9)-1
; #@! TF.FileFunction,Plated,1,2,PTH
FMAT,2
INCH
T1C0.0157
T2C0.0315
T3C0.0394
%
G90
G05
T1
X3.975Y-2.6
X4.1Y-2.325
T2
X4.25Y-2.4
X4.25Y-2.5969
X4.525Y-2.325
X4.525Y-2.425
X4.525Y-2.525
X4.525Y-2.625
T3
X3.825Y-2.75
X3.925Y-2.75
X4.025Y-2.75
X4.1Y-2.325
X4.1Y-2.425
X4.1Y-2.525
X4.1Y-2.625
X4.125Y-2.75
X4.225Y-2.75
X4.325Y-2.75
X4.425Y-2.75
X4.525Y-2.75
X4.725Y-2.75
X4.825Y-2.75
X4.925Y-2.75
X5.025Y-2.325
X5.025Y-2.425
X5.025Y-2.525
X5.025Y-2.625
X5.025Y-2.75
X5.125Y-2.75
X5.225Y-2.75
T0
M30
