G04 #@! TF.GenerationSoftware,KiCad,Pcbnew,(5.1.9)-1*
G04 #@! TF.CreationDate,2023-04-15T15:35:37-07:00*
G04 #@! TF.ProjectId,RELAYC,52454c41-5943-42e6-9b69-6361645f7063,rev?*
G04 #@! TF.SameCoordinates,Original*
G04 #@! TF.FileFunction,Soldermask,Bot*
G04 #@! TF.FilePolarity,Negative*
%FSLAX46Y46*%
G04 Gerber Fmt 4.6, Leading zero omitted, Abs format (unit mm)*
G04 Created by KiCad (PCBNEW (5.1.9)-1) date 2023-04-15 15:35:37*
%MOMM*%
%LPD*%
G01*
G04 APERTURE LIST*
%ADD10C,3.602120*%
%ADD11C,1.540000*%
%ADD12C,2.277000*%
%ADD13O,2.102000X2.102000*%
%ADD14C,1.702000*%
%ADD15O,1.702000X1.702000*%
%ADD16C,1.902000*%
%ADD17C,4.102000*%
G04 APERTURE END LIST*
D10*
X129540000Y-65405000D03*
G36*
G01*
X122658940Y-67155060D02*
X122658940Y-63654940D01*
G75*
G02*
X122709940Y-63603940I51000J0D01*
G01*
X126210060Y-63603940D01*
G75*
G02*
X126261060Y-63654940I0J-51000D01*
G01*
X126261060Y-67155060D01*
G75*
G02*
X126210060Y-67206060I-51000J0D01*
G01*
X122709940Y-67206060D01*
G75*
G02*
X122658940Y-67155060I0J51000D01*
G01*
G37*
X118110000Y-65405000D03*
G36*
G01*
X111228940Y-67155060D02*
X111228940Y-63654940D01*
G75*
G02*
X111279940Y-63603940I51000J0D01*
G01*
X114780060Y-63603940D01*
G75*
G02*
X114831060Y-63654940I0J-51000D01*
G01*
X114831060Y-67155060D01*
G75*
G02*
X114780060Y-67206060I-51000J0D01*
G01*
X111279940Y-67206060D01*
G75*
G02*
X111228940Y-67155060I0J51000D01*
G01*
G37*
X93345000Y-65405000D03*
G36*
G01*
X86463940Y-67155060D02*
X86463940Y-63654940D01*
G75*
G02*
X86514940Y-63603940I51000J0D01*
G01*
X90015060Y-63603940D01*
G75*
G02*
X90066060Y-63654940I0J-51000D01*
G01*
X90066060Y-67155060D01*
G75*
G02*
X90015060Y-67206060I-51000J0D01*
G01*
X86514940Y-67206060D01*
G75*
G02*
X86463940Y-67155060I0J51000D01*
G01*
G37*
X81915000Y-65405000D03*
G36*
G01*
X75033940Y-67155060D02*
X75033940Y-63654940D01*
G75*
G02*
X75084940Y-63603940I51000J0D01*
G01*
X78585060Y-63603940D01*
G75*
G02*
X78636060Y-63654940I0J-51000D01*
G01*
X78636060Y-67155060D01*
G75*
G02*
X78585060Y-67206060I-51000J0D01*
G01*
X75084940Y-67206060D01*
G75*
G02*
X75033940Y-67155060I0J51000D01*
G01*
G37*
X69215000Y-118110000D03*
G36*
G01*
X70965060Y-124991060D02*
X67464940Y-124991060D01*
G75*
G02*
X67413940Y-124940060I0J51000D01*
G01*
X67413940Y-121439940D01*
G75*
G02*
X67464940Y-121388940I51000J0D01*
G01*
X70965060Y-121388940D01*
G75*
G02*
X71016060Y-121439940I0J-51000D01*
G01*
X71016060Y-124940060D01*
G75*
G02*
X70965060Y-124991060I-51000J0D01*
G01*
G37*
X69215000Y-107315000D03*
G36*
G01*
X70965060Y-114196060D02*
X67464940Y-114196060D01*
G75*
G02*
X67413940Y-114145060I0J51000D01*
G01*
X67413940Y-110644940D01*
G75*
G02*
X67464940Y-110593940I51000J0D01*
G01*
X70965060Y-110593940D01*
G75*
G02*
X71016060Y-110644940I0J-51000D01*
G01*
X71016060Y-114145060D01*
G75*
G02*
X70965060Y-114196060I-51000J0D01*
G01*
G37*
X69215000Y-96520000D03*
G36*
G01*
X70965060Y-103401060D02*
X67464940Y-103401060D01*
G75*
G02*
X67413940Y-103350060I0J51000D01*
G01*
X67413940Y-99849940D01*
G75*
G02*
X67464940Y-99798940I51000J0D01*
G01*
X70965060Y-99798940D01*
G75*
G02*
X71016060Y-99849940I0J-51000D01*
G01*
X71016060Y-103350060D01*
G75*
G02*
X70965060Y-103401060I-51000J0D01*
G01*
G37*
X69215000Y-85725000D03*
G36*
G01*
X70965060Y-92606060D02*
X67464940Y-92606060D01*
G75*
G02*
X67413940Y-92555060I0J51000D01*
G01*
X67413940Y-89054940D01*
G75*
G02*
X67464940Y-89003940I51000J0D01*
G01*
X70965060Y-89003940D01*
G75*
G02*
X71016060Y-89054940I0J-51000D01*
G01*
X71016060Y-92555060D01*
G75*
G02*
X70965060Y-92606060I-51000J0D01*
G01*
G37*
X69215000Y-74930000D03*
G36*
G01*
X70965060Y-81811060D02*
X67464940Y-81811060D01*
G75*
G02*
X67413940Y-81760060I0J51000D01*
G01*
X67413940Y-78259940D01*
G75*
G02*
X67464940Y-78208940I51000J0D01*
G01*
X70965060Y-78208940D01*
G75*
G02*
X71016060Y-78259940I0J-51000D01*
G01*
X71016060Y-81760060D01*
G75*
G02*
X70965060Y-81811060I-51000J0D01*
G01*
G37*
X69215000Y-64135000D03*
G36*
G01*
X70965060Y-71016060D02*
X67464940Y-71016060D01*
G75*
G02*
X67413940Y-70965060I0J51000D01*
G01*
X67413940Y-67464940D01*
G75*
G02*
X67464940Y-67413940I51000J0D01*
G01*
X70965060Y-67413940D01*
G75*
G02*
X71016060Y-67464940I0J-51000D01*
G01*
X71016060Y-70965060D01*
G75*
G02*
X70965060Y-71016060I-51000J0D01*
G01*
G37*
D11*
X86935000Y-89605000D03*
X80335000Y-97105000D03*
X83395000Y-102275000D03*
X76795000Y-109775000D03*
D12*
X86995000Y-109275000D03*
X86995000Y-101275000D03*
X83995000Y-109275000D03*
X76735000Y-90105000D03*
X76735000Y-98105000D03*
X79735000Y-90105000D03*
D13*
X92710000Y-81915000D03*
G36*
G01*
X78959000Y-82915000D02*
X78959000Y-80915000D01*
G75*
G02*
X79010000Y-80864000I51000J0D01*
G01*
X81010000Y-80864000D01*
G75*
G02*
X81061000Y-80915000I0J-51000D01*
G01*
X81061000Y-82915000D01*
G75*
G02*
X81010000Y-82966000I-51000J0D01*
G01*
X79010000Y-82966000D01*
G75*
G02*
X78959000Y-82915000I0J51000D01*
G01*
G37*
D14*
X88185000Y-76200000D03*
X83185000Y-76200000D03*
D11*
X118805000Y-109785000D03*
X125405000Y-102285000D03*
X122345000Y-97115000D03*
X128945000Y-89615000D03*
D12*
X118745000Y-90115000D03*
X118745000Y-98115000D03*
X121745000Y-90115000D03*
X129005000Y-109285000D03*
X129005000Y-101285000D03*
X126005000Y-109285000D03*
D14*
X85090000Y-71755000D03*
D15*
X74930000Y-71755000D03*
D14*
X97790000Y-121285000D03*
D15*
X107950000Y-121285000D03*
G36*
G01*
X131226000Y-80280000D02*
X131226000Y-82280000D01*
G75*
G02*
X131175000Y-82331000I-51000J0D01*
G01*
X129175000Y-82331000D01*
G75*
G02*
X129124000Y-82280000I0J51000D01*
G01*
X129124000Y-80280000D01*
G75*
G02*
X129175000Y-80229000I51000J0D01*
G01*
X131175000Y-80229000D01*
G75*
G02*
X131226000Y-80280000I0J-51000D01*
G01*
G37*
D13*
X117475000Y-81280000D03*
G36*
G01*
X104456000Y-64505000D02*
X104456000Y-66305000D01*
G75*
G02*
X104405000Y-66356000I-51000J0D01*
G01*
X102605000Y-66356000D01*
G75*
G02*
X102554000Y-66305000I0J51000D01*
G01*
X102554000Y-64505000D01*
G75*
G02*
X102605000Y-64454000I51000J0D01*
G01*
X104405000Y-64454000D01*
G75*
G02*
X104456000Y-64505000I0J-51000D01*
G01*
G37*
D16*
X100965000Y-65405000D03*
D14*
X125095000Y-73660000D03*
X120095000Y-73660000D03*
D17*
X109855000Y-93980000D03*
X104775000Y-93980000D03*
X109855000Y-101600000D03*
X104775000Y-101600000D03*
X109855000Y-109220000D03*
X104775000Y-109220000D03*
X94615000Y-109220000D03*
X99695000Y-109220000D03*
X94615000Y-101600000D03*
X99695000Y-101600000D03*
X94615000Y-93980000D03*
X99695000Y-93980000D03*
M02*
