G04 #@! TF.GenerationSoftware,KiCad,Pcbnew,(5.1.9)-1*
G04 #@! TF.CreationDate,2021-04-09T18:55:09-07:00*
G04 #@! TF.ProjectId,DSAMKVID,4453414d-4b56-4494-942e-6b696361645f,rev?*
G04 #@! TF.SameCoordinates,Original*
G04 #@! TF.FileFunction,Soldermask,Top*
G04 #@! TF.FilePolarity,Negative*
%FSLAX46Y46*%
G04 Gerber Fmt 4.6, Leading zero omitted, Abs format (unit mm)*
G04 Created by KiCad (PCBNEW (5.1.9)-1) date 2021-04-09 18:55:09*
%MOMM*%
%LPD*%
G01*
G04 APERTURE LIST*
%ADD10C,2.702000*%
%ADD11O,1.702000X1.702000*%
%ADD12C,1.702000*%
%ADD13C,3.102000*%
%ADD14C,1.902000*%
%ADD15O,1.802000X1.802000*%
%ADD16C,2.102000*%
%ADD17C,1.802000*%
%ADD18O,2.302000X2.302000*%
%ADD19O,2.007000X2.102000*%
G04 APERTURE END LIST*
D10*
X181610000Y-137795000D03*
X181610000Y-132715000D03*
X181610000Y-127635000D03*
X181610000Y-122555000D03*
X181610000Y-117475000D03*
X181610000Y-112395000D03*
G36*
G01*
X180310000Y-105964000D02*
X182910000Y-105964000D01*
G75*
G02*
X182961000Y-106015000I0J-51000D01*
G01*
X182961000Y-108615000D01*
G75*
G02*
X182910000Y-108666000I-51000J0D01*
G01*
X180310000Y-108666000D01*
G75*
G02*
X180259000Y-108615000I0J51000D01*
G01*
X180259000Y-106015000D01*
G75*
G02*
X180310000Y-105964000I51000J0D01*
G01*
G37*
D11*
X139065000Y-81280000D03*
X141605000Y-81280000D03*
X144145000Y-81280000D03*
X146685000Y-81280000D03*
X149225000Y-81280000D03*
G36*
G01*
X152616000Y-80480000D02*
X152616000Y-82080000D01*
G75*
G02*
X152565000Y-82131000I-51000J0D01*
G01*
X150965000Y-82131000D01*
G75*
G02*
X150914000Y-82080000I0J51000D01*
G01*
X150914000Y-80480000D01*
G75*
G02*
X150965000Y-80429000I51000J0D01*
G01*
X152565000Y-80429000D01*
G75*
G02*
X152616000Y-80480000I0J-51000D01*
G01*
G37*
X151765000Y-86360000D03*
X149225000Y-86360000D03*
X146685000Y-86360000D03*
X144145000Y-86360000D03*
X141605000Y-86360000D03*
G36*
G01*
X138214000Y-87160000D02*
X138214000Y-85560000D01*
G75*
G02*
X138265000Y-85509000I51000J0D01*
G01*
X139865000Y-85509000D01*
G75*
G02*
X139916000Y-85560000I0J-51000D01*
G01*
X139916000Y-87160000D01*
G75*
G02*
X139865000Y-87211000I-51000J0D01*
G01*
X138265000Y-87211000D01*
G75*
G02*
X138214000Y-87160000I0J51000D01*
G01*
G37*
D12*
X115650000Y-119380000D03*
X120650000Y-119380000D03*
X109855000Y-83780000D03*
X109855000Y-81280000D03*
X135215000Y-93980000D03*
X132715000Y-93980000D03*
X100370000Y-65405000D03*
X102870000Y-65405000D03*
X133310000Y-57150000D03*
X130810000Y-57150000D03*
X142835000Y-118745000D03*
X140335000Y-118745000D03*
X140970000Y-130770000D03*
X140970000Y-128270000D03*
X138470000Y-98425000D03*
X140970000Y-98425000D03*
D13*
X181610000Y-94615000D03*
G36*
G01*
X183110000Y-101246000D02*
X180110000Y-101246000D01*
G75*
G02*
X180059000Y-101195000I0J51000D01*
G01*
X180059000Y-98195000D01*
G75*
G02*
X180110000Y-98144000I51000J0D01*
G01*
X183110000Y-98144000D01*
G75*
G02*
X183161000Y-98195000I0J-51000D01*
G01*
X183161000Y-101195000D01*
G75*
G02*
X183110000Y-101246000I-51000J0D01*
G01*
G37*
G36*
G01*
X120815000Y-110706000D02*
X119215000Y-110706000D01*
G75*
G02*
X119164000Y-110655000I0J51000D01*
G01*
X119164000Y-109055000D01*
G75*
G02*
X119215000Y-109004000I51000J0D01*
G01*
X120815000Y-109004000D01*
G75*
G02*
X120866000Y-109055000I0J-51000D01*
G01*
X120866000Y-110655000D01*
G75*
G02*
X120815000Y-110706000I-51000J0D01*
G01*
G37*
D11*
X153035000Y-102235000D03*
X122555000Y-109855000D03*
X150495000Y-102235000D03*
X125095000Y-109855000D03*
X147955000Y-102235000D03*
X127635000Y-109855000D03*
X145415000Y-102235000D03*
X130175000Y-109855000D03*
X142875000Y-102235000D03*
X132715000Y-109855000D03*
X140335000Y-102235000D03*
X135255000Y-109855000D03*
X137795000Y-102235000D03*
X137795000Y-109855000D03*
X135255000Y-102235000D03*
X140335000Y-109855000D03*
X132715000Y-102235000D03*
X142875000Y-109855000D03*
X130175000Y-102235000D03*
X145415000Y-109855000D03*
X127635000Y-102235000D03*
X147955000Y-109855000D03*
X125095000Y-102235000D03*
X150495000Y-109855000D03*
X122555000Y-102235000D03*
X153035000Y-109855000D03*
X120015000Y-102235000D03*
D14*
X102870000Y-84455000D03*
G36*
G01*
X99379000Y-85355000D02*
X99379000Y-83555000D01*
G75*
G02*
X99430000Y-83504000I51000J0D01*
G01*
X101230000Y-83504000D01*
G75*
G02*
X101281000Y-83555000I0J-51000D01*
G01*
X101281000Y-85355000D01*
G75*
G02*
X101230000Y-85406000I-51000J0D01*
G01*
X99430000Y-85406000D01*
G75*
G02*
X99379000Y-85355000I0J51000D01*
G01*
G37*
G36*
G01*
X109589000Y-94195000D02*
X109589000Y-92495000D01*
G75*
G02*
X109640000Y-92444000I51000J0D01*
G01*
X111340000Y-92444000D01*
G75*
G02*
X111391000Y-92495000I0J-51000D01*
G01*
X111391000Y-94195000D01*
G75*
G02*
X111340000Y-94246000I-51000J0D01*
G01*
X109640000Y-94246000D01*
G75*
G02*
X109589000Y-94195000I0J51000D01*
G01*
G37*
D15*
X110490000Y-95885000D03*
X110490000Y-98425000D03*
D11*
X144780000Y-122555000D03*
D12*
X137160000Y-122555000D03*
D15*
X147955000Y-70485000D03*
X147955000Y-67945000D03*
X147955000Y-65405000D03*
G36*
G01*
X147054000Y-63715000D02*
X147054000Y-62015000D01*
G75*
G02*
X147105000Y-61964000I51000J0D01*
G01*
X148805000Y-61964000D01*
G75*
G02*
X148856000Y-62015000I0J-51000D01*
G01*
X148856000Y-63715000D01*
G75*
G02*
X148805000Y-63766000I-51000J0D01*
G01*
X147105000Y-63766000D01*
G75*
G02*
X147054000Y-63715000I0J51000D01*
G01*
G37*
X124460000Y-70485000D03*
X124460000Y-67945000D03*
X124460000Y-65405000D03*
G36*
G01*
X123559000Y-63715000D02*
X123559000Y-62015000D01*
G75*
G02*
X123610000Y-61964000I51000J0D01*
G01*
X125310000Y-61964000D01*
G75*
G02*
X125361000Y-62015000I0J-51000D01*
G01*
X125361000Y-63715000D01*
G75*
G02*
X125310000Y-63766000I-51000J0D01*
G01*
X123610000Y-63766000D01*
G75*
G02*
X123559000Y-63715000I0J51000D01*
G01*
G37*
G36*
G01*
X109690000Y-103924000D02*
X111290000Y-103924000D01*
G75*
G02*
X111341000Y-103975000I0J-51000D01*
G01*
X111341000Y-105575000D01*
G75*
G02*
X111290000Y-105626000I-51000J0D01*
G01*
X109690000Y-105626000D01*
G75*
G02*
X109639000Y-105575000I0J51000D01*
G01*
X109639000Y-103975000D01*
G75*
G02*
X109690000Y-103924000I51000J0D01*
G01*
G37*
D11*
X110490000Y-107315000D03*
X110490000Y-109855000D03*
X110490000Y-112395000D03*
X110490000Y-114935000D03*
X110490000Y-117475000D03*
G36*
G01*
X114809999Y-69674000D02*
X117350001Y-69674000D01*
G75*
G02*
X117401000Y-69724999I0J-50999D01*
G01*
X117401000Y-71245001D01*
G75*
G02*
X117350001Y-71296000I-50999J0D01*
G01*
X114809999Y-71296000D01*
G75*
G02*
X114759000Y-71245001I0J50999D01*
G01*
X114759000Y-69724999D01*
G75*
G02*
X114809999Y-69674000I50999J0D01*
G01*
G37*
G36*
G01*
X131569999Y-69674000D02*
X134110001Y-69674000D01*
G75*
G02*
X134161000Y-69724999I0J-50999D01*
G01*
X134161000Y-71245001D01*
G75*
G02*
X134110001Y-71296000I-50999J0D01*
G01*
X131569999Y-71296000D01*
G75*
G02*
X131519000Y-71245001I0J50999D01*
G01*
X131519000Y-69724999D01*
G75*
G02*
X131569999Y-69674000I50999J0D01*
G01*
G37*
G36*
G01*
X114809999Y-67134000D02*
X117350001Y-67134000D01*
G75*
G02*
X117401000Y-67184999I0J-50999D01*
G01*
X117401000Y-68705001D01*
G75*
G02*
X117350001Y-68756000I-50999J0D01*
G01*
X114809999Y-68756000D01*
G75*
G02*
X114759000Y-68705001I0J50999D01*
G01*
X114759000Y-67184999D01*
G75*
G02*
X114809999Y-67134000I50999J0D01*
G01*
G37*
G36*
G01*
X131569999Y-67134000D02*
X134110001Y-67134000D01*
G75*
G02*
X134161000Y-67184999I0J-50999D01*
G01*
X134161000Y-68705001D01*
G75*
G02*
X134110001Y-68756000I-50999J0D01*
G01*
X131569999Y-68756000D01*
G75*
G02*
X131519000Y-68705001I0J50999D01*
G01*
X131519000Y-67184999D01*
G75*
G02*
X131569999Y-67134000I50999J0D01*
G01*
G37*
G36*
G01*
X114809999Y-64594000D02*
X117350001Y-64594000D01*
G75*
G02*
X117401000Y-64644999I0J-50999D01*
G01*
X117401000Y-66165001D01*
G75*
G02*
X117350001Y-66216000I-50999J0D01*
G01*
X114809999Y-66216000D01*
G75*
G02*
X114759000Y-66165001I0J50999D01*
G01*
X114759000Y-64644999D01*
G75*
G02*
X114809999Y-64594000I50999J0D01*
G01*
G37*
G36*
G01*
X131569999Y-64594000D02*
X134110001Y-64594000D01*
G75*
G02*
X134161000Y-64644999I0J-50999D01*
G01*
X134161000Y-66165001D01*
G75*
G02*
X134110001Y-66216000I-50999J0D01*
G01*
X131569999Y-66216000D01*
G75*
G02*
X131519000Y-66165001I0J50999D01*
G01*
X131519000Y-64644999D01*
G75*
G02*
X131569999Y-64594000I50999J0D01*
G01*
G37*
G36*
G01*
X114809999Y-62054000D02*
X117350001Y-62054000D01*
G75*
G02*
X117401000Y-62104999I0J-50999D01*
G01*
X117401000Y-63625001D01*
G75*
G02*
X117350001Y-63676000I-50999J0D01*
G01*
X114809999Y-63676000D01*
G75*
G02*
X114759000Y-63625001I0J50999D01*
G01*
X114759000Y-62104999D01*
G75*
G02*
X114809999Y-62054000I50999J0D01*
G01*
G37*
G36*
G01*
X131569999Y-62054000D02*
X134110001Y-62054000D01*
G75*
G02*
X134161000Y-62104999I0J-50999D01*
G01*
X134161000Y-63625001D01*
G75*
G02*
X134110001Y-63676000I-50999J0D01*
G01*
X131569999Y-63676000D01*
G75*
G02*
X131519000Y-63625001I0J50999D01*
G01*
X131519000Y-62104999D01*
G75*
G02*
X131569999Y-62054000I50999J0D01*
G01*
G37*
X193675000Y-125095000D03*
D12*
X193675000Y-117475000D03*
D11*
X113665000Y-86360000D03*
X116205000Y-86360000D03*
X118745000Y-86360000D03*
X121285000Y-86360000D03*
X123825000Y-86360000D03*
X126365000Y-86360000D03*
X128905000Y-86360000D03*
X131445000Y-86360000D03*
G36*
G01*
X134836000Y-85560000D02*
X134836000Y-87160000D01*
G75*
G02*
X134785000Y-87211000I-51000J0D01*
G01*
X133185000Y-87211000D01*
G75*
G02*
X133134000Y-87160000I0J51000D01*
G01*
X133134000Y-85560000D01*
G75*
G02*
X133185000Y-85509000I51000J0D01*
G01*
X134785000Y-85509000D01*
G75*
G02*
X134836000Y-85560000I0J-51000D01*
G01*
G37*
D16*
X160655000Y-120630000D03*
G36*
G01*
X159655000Y-111979000D02*
X161655000Y-111979000D01*
G75*
G02*
X161706000Y-112030000I0J-51000D01*
G01*
X161706000Y-114030000D01*
G75*
G02*
X161655000Y-114081000I-51000J0D01*
G01*
X159655000Y-114081000D01*
G75*
G02*
X159604000Y-114030000I0J51000D01*
G01*
X159604000Y-112030000D01*
G75*
G02*
X159655000Y-111979000I51000J0D01*
G01*
G37*
D11*
X126365000Y-98425000D03*
D12*
X133985000Y-98425000D03*
D11*
X133985000Y-81280000D03*
X131445000Y-81280000D03*
X128905000Y-81280000D03*
X126365000Y-81280000D03*
X123825000Y-81280000D03*
X121285000Y-81280000D03*
X118745000Y-81280000D03*
X116205000Y-81280000D03*
G36*
G01*
X112814000Y-82080000D02*
X112814000Y-80480000D01*
G75*
G02*
X112865000Y-80429000I51000J0D01*
G01*
X114465000Y-80429000D01*
G75*
G02*
X114516000Y-80480000I0J-51000D01*
G01*
X114516000Y-82080000D01*
G75*
G02*
X114465000Y-82131000I-51000J0D01*
G01*
X112865000Y-82131000D01*
G75*
G02*
X112814000Y-82080000I0J51000D01*
G01*
G37*
X170180000Y-114935000D03*
G36*
G01*
X169380000Y-106464000D02*
X170980000Y-106464000D01*
G75*
G02*
X171031000Y-106515000I0J-51000D01*
G01*
X171031000Y-108115000D01*
G75*
G02*
X170980000Y-108166000I-51000J0D01*
G01*
X169380000Y-108166000D01*
G75*
G02*
X169329000Y-108115000I0J51000D01*
G01*
X169329000Y-106515000D01*
G75*
G02*
X169380000Y-106464000I51000J0D01*
G01*
G37*
X173990000Y-114935000D03*
G36*
G01*
X173190000Y-106464000D02*
X174790000Y-106464000D01*
G75*
G02*
X174841000Y-106515000I0J-51000D01*
G01*
X174841000Y-108115000D01*
G75*
G02*
X174790000Y-108166000I-51000J0D01*
G01*
X173190000Y-108166000D01*
G75*
G02*
X173139000Y-108115000I0J51000D01*
G01*
X173139000Y-106515000D01*
G75*
G02*
X173190000Y-106464000I51000J0D01*
G01*
G37*
D15*
X123825000Y-130175000D03*
X123825000Y-132715000D03*
G36*
G01*
X124726000Y-134405000D02*
X124726000Y-136105000D01*
G75*
G02*
X124675000Y-136156000I-51000J0D01*
G01*
X122975000Y-136156000D01*
G75*
G02*
X122924000Y-136105000I0J51000D01*
G01*
X122924000Y-134405000D01*
G75*
G02*
X122975000Y-134354000I51000J0D01*
G01*
X124675000Y-134354000D01*
G75*
G02*
X124726000Y-134405000I0J-51000D01*
G01*
G37*
X117475000Y-135255000D03*
X114935000Y-135255000D03*
G36*
G01*
X113245000Y-136156000D02*
X111545000Y-136156000D01*
G75*
G02*
X111494000Y-136105000I0J51000D01*
G01*
X111494000Y-134405000D01*
G75*
G02*
X111545000Y-134354000I51000J0D01*
G01*
X113245000Y-134354000D01*
G75*
G02*
X113296000Y-134405000I0J-51000D01*
G01*
X113296000Y-136105000D01*
G75*
G02*
X113245000Y-136156000I-51000J0D01*
G01*
G37*
X112395000Y-128905000D03*
X112395000Y-126365000D03*
G36*
G01*
X111494000Y-124675000D02*
X111494000Y-122975000D01*
G75*
G02*
X111545000Y-122924000I51000J0D01*
G01*
X113245000Y-122924000D01*
G75*
G02*
X113296000Y-122975000I0J-51000D01*
G01*
X113296000Y-124675000D01*
G75*
G02*
X113245000Y-124726000I-51000J0D01*
G01*
X111545000Y-124726000D01*
G75*
G02*
X111494000Y-124675000I0J51000D01*
G01*
G37*
X118745000Y-123825000D03*
X121285000Y-123825000D03*
G36*
G01*
X122975000Y-122924000D02*
X124675000Y-122924000D01*
G75*
G02*
X124726000Y-122975000I0J-51000D01*
G01*
X124726000Y-124675000D01*
G75*
G02*
X124675000Y-124726000I-51000J0D01*
G01*
X122975000Y-124726000D01*
G75*
G02*
X122924000Y-124675000I0J51000D01*
G01*
X122924000Y-122975000D01*
G75*
G02*
X122975000Y-122924000I51000J0D01*
G01*
G37*
X135890000Y-128270000D03*
X135890000Y-130810000D03*
G36*
G01*
X136791000Y-132500000D02*
X136791000Y-134200000D01*
G75*
G02*
X136740000Y-134251000I-51000J0D01*
G01*
X135040000Y-134251000D01*
G75*
G02*
X134989000Y-134200000I0J51000D01*
G01*
X134989000Y-132500000D01*
G75*
G02*
X135040000Y-132449000I51000J0D01*
G01*
X136740000Y-132449000D01*
G75*
G02*
X136791000Y-132500000I0J-51000D01*
G01*
G37*
X131445000Y-128270000D03*
X131445000Y-130810000D03*
G36*
G01*
X132346000Y-132500000D02*
X132346000Y-134200000D01*
G75*
G02*
X132295000Y-134251000I-51000J0D01*
G01*
X130595000Y-134251000D01*
G75*
G02*
X130544000Y-134200000I0J51000D01*
G01*
X130544000Y-132500000D01*
G75*
G02*
X130595000Y-132449000I51000J0D01*
G01*
X132295000Y-132449000D01*
G75*
G02*
X132346000Y-132500000I0J-51000D01*
G01*
G37*
X105410000Y-60960000D03*
X102870000Y-60960000D03*
G36*
G01*
X101180000Y-61861000D02*
X99480000Y-61861000D01*
G75*
G02*
X99429000Y-61810000I0J51000D01*
G01*
X99429000Y-60110000D01*
G75*
G02*
X99480000Y-60059000I51000J0D01*
G01*
X101180000Y-60059000D01*
G75*
G02*
X101231000Y-60110000I0J-51000D01*
G01*
X101231000Y-61810000D01*
G75*
G02*
X101180000Y-61861000I-51000J0D01*
G01*
G37*
X105410000Y-56515000D03*
X102870000Y-56515000D03*
G36*
G01*
X101180000Y-57416000D02*
X99480000Y-57416000D01*
G75*
G02*
X99429000Y-57365000I0J51000D01*
G01*
X99429000Y-55665000D01*
G75*
G02*
X99480000Y-55614000I51000J0D01*
G01*
X101180000Y-55614000D01*
G75*
G02*
X101231000Y-55665000I0J-51000D01*
G01*
X101231000Y-57365000D01*
G75*
G02*
X101180000Y-57416000I-51000J0D01*
G01*
G37*
D17*
X143510000Y-114300000D03*
X138510000Y-114300000D03*
G36*
G01*
X146850000Y-136106000D02*
X145250000Y-136106000D01*
G75*
G02*
X145199000Y-136055000I0J51000D01*
G01*
X145199000Y-134455000D01*
G75*
G02*
X145250000Y-134404000I51000J0D01*
G01*
X146850000Y-134404000D01*
G75*
G02*
X146901000Y-134455000I0J-51000D01*
G01*
X146901000Y-136055000D01*
G75*
G02*
X146850000Y-136106000I-51000J0D01*
G01*
G37*
D11*
X163830000Y-127635000D03*
X148590000Y-135255000D03*
X161290000Y-127635000D03*
X151130000Y-135255000D03*
X158750000Y-127635000D03*
X153670000Y-135255000D03*
X156210000Y-127635000D03*
X156210000Y-135255000D03*
X153670000Y-127635000D03*
X158750000Y-135255000D03*
X151130000Y-127635000D03*
X161290000Y-135255000D03*
X148590000Y-127635000D03*
X163830000Y-135255000D03*
X146050000Y-127635000D03*
G36*
G01*
X138304999Y-69674000D02*
X140845001Y-69674000D01*
G75*
G02*
X140896000Y-69724999I0J-50999D01*
G01*
X140896000Y-71245001D01*
G75*
G02*
X140845001Y-71296000I-50999J0D01*
G01*
X138304999Y-71296000D01*
G75*
G02*
X138254000Y-71245001I0J50999D01*
G01*
X138254000Y-69724999D01*
G75*
G02*
X138304999Y-69674000I50999J0D01*
G01*
G37*
G36*
G01*
X155064999Y-69674000D02*
X157605001Y-69674000D01*
G75*
G02*
X157656000Y-69724999I0J-50999D01*
G01*
X157656000Y-71245001D01*
G75*
G02*
X157605001Y-71296000I-50999J0D01*
G01*
X155064999Y-71296000D01*
G75*
G02*
X155014000Y-71245001I0J50999D01*
G01*
X155014000Y-69724999D01*
G75*
G02*
X155064999Y-69674000I50999J0D01*
G01*
G37*
G36*
G01*
X138304999Y-67134000D02*
X140845001Y-67134000D01*
G75*
G02*
X140896000Y-67184999I0J-50999D01*
G01*
X140896000Y-68705001D01*
G75*
G02*
X140845001Y-68756000I-50999J0D01*
G01*
X138304999Y-68756000D01*
G75*
G02*
X138254000Y-68705001I0J50999D01*
G01*
X138254000Y-67184999D01*
G75*
G02*
X138304999Y-67134000I50999J0D01*
G01*
G37*
G36*
G01*
X155064999Y-67134000D02*
X157605001Y-67134000D01*
G75*
G02*
X157656000Y-67184999I0J-50999D01*
G01*
X157656000Y-68705001D01*
G75*
G02*
X157605001Y-68756000I-50999J0D01*
G01*
X155064999Y-68756000D01*
G75*
G02*
X155014000Y-68705001I0J50999D01*
G01*
X155014000Y-67184999D01*
G75*
G02*
X155064999Y-67134000I50999J0D01*
G01*
G37*
G36*
G01*
X138304999Y-64594000D02*
X140845001Y-64594000D01*
G75*
G02*
X140896000Y-64644999I0J-50999D01*
G01*
X140896000Y-66165001D01*
G75*
G02*
X140845001Y-66216000I-50999J0D01*
G01*
X138304999Y-66216000D01*
G75*
G02*
X138254000Y-66165001I0J50999D01*
G01*
X138254000Y-64644999D01*
G75*
G02*
X138304999Y-64594000I50999J0D01*
G01*
G37*
G36*
G01*
X155064999Y-64594000D02*
X157605001Y-64594000D01*
G75*
G02*
X157656000Y-64644999I0J-50999D01*
G01*
X157656000Y-66165001D01*
G75*
G02*
X157605001Y-66216000I-50999J0D01*
G01*
X155064999Y-66216000D01*
G75*
G02*
X155014000Y-66165001I0J50999D01*
G01*
X155014000Y-64644999D01*
G75*
G02*
X155064999Y-64594000I50999J0D01*
G01*
G37*
G36*
G01*
X138304999Y-62054000D02*
X140845001Y-62054000D01*
G75*
G02*
X140896000Y-62104999I0J-50999D01*
G01*
X140896000Y-63625001D01*
G75*
G02*
X140845001Y-63676000I-50999J0D01*
G01*
X138304999Y-63676000D01*
G75*
G02*
X138254000Y-63625001I0J50999D01*
G01*
X138254000Y-62104999D01*
G75*
G02*
X138304999Y-62054000I50999J0D01*
G01*
G37*
G36*
G01*
X155064999Y-62054000D02*
X157605001Y-62054000D01*
G75*
G02*
X157656000Y-62104999I0J-50999D01*
G01*
X157656000Y-63625001D01*
G75*
G02*
X157605001Y-63676000I-50999J0D01*
G01*
X155064999Y-63676000D01*
G75*
G02*
X155014000Y-63625001I0J50999D01*
G01*
X155014000Y-62104999D01*
G75*
G02*
X155064999Y-62054000I50999J0D01*
G01*
G37*
G36*
G01*
X171285000Y-128689000D02*
X172885000Y-128689000D01*
G75*
G02*
X172936000Y-128740000I0J-51000D01*
G01*
X172936000Y-130340000D01*
G75*
G02*
X172885000Y-130391000I-51000J0D01*
G01*
X171285000Y-130391000D01*
G75*
G02*
X171234000Y-130340000I0J51000D01*
G01*
X171234000Y-128740000D01*
G75*
G02*
X171285000Y-128689000I51000J0D01*
G01*
G37*
D12*
X172085000Y-132040000D03*
D16*
X153185000Y-53975000D03*
X153185000Y-58475000D03*
X146685000Y-53975000D03*
X146685000Y-58475000D03*
D12*
X147955000Y-119300000D03*
X147955000Y-114300000D03*
X133985000Y-114300000D03*
X133985000Y-119300000D03*
G36*
G01*
X187106000Y-75200000D02*
X187106000Y-77200000D01*
G75*
G02*
X187055000Y-77251000I-51000J0D01*
G01*
X185055000Y-77251000D01*
G75*
G02*
X185004000Y-77200000I0J51000D01*
G01*
X185004000Y-75200000D01*
G75*
G02*
X185055000Y-75149000I51000J0D01*
G01*
X187055000Y-75149000D01*
G75*
G02*
X187106000Y-75200000I0J-51000D01*
G01*
G37*
D16*
X181055000Y-76200000D03*
D12*
X163155000Y-62230000D03*
G36*
G01*
X159804000Y-63030000D02*
X159804000Y-61430000D01*
G75*
G02*
X159855000Y-61379000I51000J0D01*
G01*
X161455000Y-61379000D01*
G75*
G02*
X161506000Y-61430000I0J-51000D01*
G01*
X161506000Y-63030000D01*
G75*
G02*
X161455000Y-63081000I-51000J0D01*
G01*
X159855000Y-63081000D01*
G75*
G02*
X159804000Y-63030000I0J51000D01*
G01*
G37*
G36*
G01*
X99379000Y-72655000D02*
X99379000Y-70855000D01*
G75*
G02*
X99430000Y-70804000I51000J0D01*
G01*
X101230000Y-70804000D01*
G75*
G02*
X101281000Y-70855000I0J-51000D01*
G01*
X101281000Y-72655000D01*
G75*
G02*
X101230000Y-72706000I-51000J0D01*
G01*
X99430000Y-72706000D01*
G75*
G02*
X99379000Y-72655000I0J51000D01*
G01*
G37*
D14*
X102870000Y-71755000D03*
X102870000Y-97155000D03*
G36*
G01*
X99379000Y-98055000D02*
X99379000Y-96255000D01*
G75*
G02*
X99430000Y-96204000I51000J0D01*
G01*
X101230000Y-96204000D01*
G75*
G02*
X101281000Y-96255000I0J-51000D01*
G01*
X101281000Y-98055000D01*
G75*
G02*
X101230000Y-98106000I-51000J0D01*
G01*
X99430000Y-98106000D01*
G75*
G02*
X99379000Y-98055000I0J51000D01*
G01*
G37*
G36*
G01*
X99379000Y-110755000D02*
X99379000Y-108955000D01*
G75*
G02*
X99430000Y-108904000I51000J0D01*
G01*
X101230000Y-108904000D01*
G75*
G02*
X101281000Y-108955000I0J-51000D01*
G01*
X101281000Y-110755000D01*
G75*
G02*
X101230000Y-110806000I-51000J0D01*
G01*
X99430000Y-110806000D01*
G75*
G02*
X99379000Y-110755000I0J51000D01*
G01*
G37*
X102870000Y-109855000D03*
G36*
G01*
X99379000Y-123455000D02*
X99379000Y-121655000D01*
G75*
G02*
X99430000Y-121604000I51000J0D01*
G01*
X101230000Y-121604000D01*
G75*
G02*
X101281000Y-121655000I0J-51000D01*
G01*
X101281000Y-123455000D01*
G75*
G02*
X101230000Y-123506000I-51000J0D01*
G01*
X99430000Y-123506000D01*
G75*
G02*
X99379000Y-123455000I0J51000D01*
G01*
G37*
X102870000Y-122555000D03*
G36*
G01*
X168445000Y-83304000D02*
X170645000Y-83304000D01*
G75*
G02*
X170696000Y-83355000I0J-51000D01*
G01*
X170696000Y-85555000D01*
G75*
G02*
X170645000Y-85606000I-51000J0D01*
G01*
X168445000Y-85606000D01*
G75*
G02*
X168394000Y-85555000I0J51000D01*
G01*
X168394000Y-83355000D01*
G75*
G02*
X168445000Y-83304000I51000J0D01*
G01*
G37*
D18*
X169545000Y-94615000D03*
X173355000Y-94615000D03*
G36*
G01*
X172255000Y-83304000D02*
X174455000Y-83304000D01*
G75*
G02*
X174506000Y-83355000I0J-51000D01*
G01*
X174506000Y-85555000D01*
G75*
G02*
X174455000Y-85606000I-51000J0D01*
G01*
X172255000Y-85606000D01*
G75*
G02*
X172204000Y-85555000I0J51000D01*
G01*
X172204000Y-83355000D01*
G75*
G02*
X172255000Y-83304000I51000J0D01*
G01*
G37*
D11*
X174625000Y-135890000D03*
G36*
G01*
X166154000Y-136690000D02*
X166154000Y-135090000D01*
G75*
G02*
X166205000Y-135039000I51000J0D01*
G01*
X167805000Y-135039000D01*
G75*
G02*
X167856000Y-135090000I0J-51000D01*
G01*
X167856000Y-136690000D01*
G75*
G02*
X167805000Y-136741000I-51000J0D01*
G01*
X166205000Y-136741000D01*
G75*
G02*
X166154000Y-136690000I0J51000D01*
G01*
G37*
G36*
G01*
X173190000Y-117259000D02*
X174790000Y-117259000D01*
G75*
G02*
X174841000Y-117310000I0J-51000D01*
G01*
X174841000Y-118910000D01*
G75*
G02*
X174790000Y-118961000I-51000J0D01*
G01*
X173190000Y-118961000D01*
G75*
G02*
X173139000Y-118910000I0J51000D01*
G01*
X173139000Y-117310000D01*
G75*
G02*
X173190000Y-117259000I51000J0D01*
G01*
G37*
X173990000Y-125730000D03*
G36*
G01*
X122975000Y-55614000D02*
X124675000Y-55614000D01*
G75*
G02*
X124726000Y-55665000I0J-51000D01*
G01*
X124726000Y-57365000D01*
G75*
G02*
X124675000Y-57416000I-51000J0D01*
G01*
X122975000Y-57416000D01*
G75*
G02*
X122924000Y-57365000I0J51000D01*
G01*
X122924000Y-55665000D01*
G75*
G02*
X122975000Y-55614000I51000J0D01*
G01*
G37*
D15*
X121285000Y-56515000D03*
X118745000Y-56515000D03*
X116205000Y-56515000D03*
X113665000Y-56515000D03*
D16*
X167205000Y-55690000D03*
X167205000Y-63690000D03*
X182205000Y-55690000D03*
X182205000Y-63690000D03*
X187205000Y-55690000D03*
X187205000Y-63690000D03*
X192205000Y-55690000D03*
X192205000Y-63690000D03*
D12*
X122555000Y-98425000D03*
D11*
X114935000Y-98425000D03*
X106680000Y-122555000D03*
D12*
X106680000Y-130175000D03*
G36*
G01*
X170548500Y-67580000D02*
X170548500Y-69580000D01*
G75*
G02*
X170497500Y-69631000I-51000J0D01*
G01*
X168592500Y-69631000D01*
G75*
G02*
X168541500Y-69580000I0J51000D01*
G01*
X168541500Y-67580000D01*
G75*
G02*
X168592500Y-67529000I51000J0D01*
G01*
X170497500Y-67529000D01*
G75*
G02*
X170548500Y-67580000I0J-51000D01*
G01*
G37*
D19*
X167005000Y-68580000D03*
X164465000Y-68580000D03*
G36*
G01*
X127420000Y-114669000D02*
X129120000Y-114669000D01*
G75*
G02*
X129171000Y-114720000I0J-51000D01*
G01*
X129171000Y-116420000D01*
G75*
G02*
X129120000Y-116471000I-51000J0D01*
G01*
X127420000Y-116471000D01*
G75*
G02*
X127369000Y-116420000I0J51000D01*
G01*
X127369000Y-114720000D01*
G75*
G02*
X127420000Y-114669000I51000J0D01*
G01*
G37*
D15*
X125730000Y-115570000D03*
X123190000Y-115570000D03*
X120650000Y-115570000D03*
X118110000Y-115570000D03*
X115570000Y-115570000D03*
G36*
G01*
X143191000Y-55615000D02*
X143191000Y-57415000D01*
G75*
G02*
X143140000Y-57466000I-51000J0D01*
G01*
X141340000Y-57466000D01*
G75*
G02*
X141289000Y-57415000I0J51000D01*
G01*
X141289000Y-55615000D01*
G75*
G02*
X141340000Y-55564000I51000J0D01*
G01*
X143140000Y-55564000D01*
G75*
G02*
X143191000Y-55615000I0J-51000D01*
G01*
G37*
D14*
X139700000Y-56515000D03*
D16*
X189650000Y-68580000D03*
X178650000Y-68580000D03*
M02*
