G04 #@! TF.GenerationSoftware,KiCad,Pcbnew,(5.1.9)-1*
G04 #@! TF.CreationDate,2021-04-09T18:55:09-07:00*
G04 #@! TF.ProjectId,DSAMKVID,4453414d-4b56-4494-942e-6b696361645f,rev?*
G04 #@! TF.SameCoordinates,Original*
G04 #@! TF.FileFunction,Copper,L2,Bot*
G04 #@! TF.FilePolarity,Positive*
%FSLAX46Y46*%
G04 Gerber Fmt 4.6, Leading zero omitted, Abs format (unit mm)*
G04 Created by KiCad (PCBNEW (5.1.9)-1) date 2021-04-09 18:55:09*
%MOMM*%
%LPD*%
G01*
G04 APERTURE LIST*
G04 #@! TA.AperFunction,ComponentPad*
%ADD10C,2.600000*%
G04 #@! TD*
G04 #@! TA.AperFunction,ComponentPad*
%ADD11R,2.600000X2.600000*%
G04 #@! TD*
G04 #@! TA.AperFunction,ComponentPad*
%ADD12O,1.600000X1.600000*%
G04 #@! TD*
G04 #@! TA.AperFunction,ComponentPad*
%ADD13R,1.600000X1.600000*%
G04 #@! TD*
G04 #@! TA.AperFunction,ComponentPad*
%ADD14C,1.600000*%
G04 #@! TD*
G04 #@! TA.AperFunction,ComponentPad*
%ADD15C,3.000000*%
G04 #@! TD*
G04 #@! TA.AperFunction,ComponentPad*
%ADD16R,3.000000X3.000000*%
G04 #@! TD*
G04 #@! TA.AperFunction,ComponentPad*
%ADD17C,1.800000*%
G04 #@! TD*
G04 #@! TA.AperFunction,ComponentPad*
%ADD18R,1.800000X1.800000*%
G04 #@! TD*
G04 #@! TA.AperFunction,ComponentPad*
%ADD19R,1.700000X1.700000*%
G04 #@! TD*
G04 #@! TA.AperFunction,ComponentPad*
%ADD20O,1.700000X1.700000*%
G04 #@! TD*
G04 #@! TA.AperFunction,ComponentPad*
%ADD21C,2.000000*%
G04 #@! TD*
G04 #@! TA.AperFunction,ComponentPad*
%ADD22R,2.000000X2.000000*%
G04 #@! TD*
G04 #@! TA.AperFunction,ComponentPad*
%ADD23C,1.700000*%
G04 #@! TD*
G04 #@! TA.AperFunction,ComponentPad*
%ADD24R,2.200000X2.200000*%
G04 #@! TD*
G04 #@! TA.AperFunction,ComponentPad*
%ADD25O,2.200000X2.200000*%
G04 #@! TD*
G04 #@! TA.AperFunction,ComponentPad*
%ADD26R,1.905000X2.000000*%
G04 #@! TD*
G04 #@! TA.AperFunction,ComponentPad*
%ADD27O,1.905000X2.000000*%
G04 #@! TD*
G04 #@! TA.AperFunction,ViaPad*
%ADD28C,0.800000*%
G04 #@! TD*
G04 #@! TA.AperFunction,Conductor*
%ADD29C,0.762000*%
G04 #@! TD*
G04 #@! TA.AperFunction,Conductor*
%ADD30C,3.810000*%
G04 #@! TD*
G04 #@! TA.AperFunction,Conductor*
%ADD31C,0.508000*%
G04 #@! TD*
G04 #@! TA.AperFunction,Conductor*
%ADD32C,0.254000*%
G04 #@! TD*
G04 #@! TA.AperFunction,Conductor*
%ADD33C,0.250000*%
G04 #@! TD*
G04 APERTURE END LIST*
D10*
X181610000Y-137795000D03*
X181610000Y-132715000D03*
X181610000Y-127635000D03*
X181610000Y-122555000D03*
X181610000Y-117475000D03*
X181610000Y-112395000D03*
D11*
X181610000Y-107315000D03*
D12*
X139065000Y-81280000D03*
X141605000Y-81280000D03*
X144145000Y-81280000D03*
X146685000Y-81280000D03*
X149225000Y-81280000D03*
D13*
X151765000Y-81280000D03*
D12*
X151765000Y-86360000D03*
X149225000Y-86360000D03*
X146685000Y-86360000D03*
X144145000Y-86360000D03*
X141605000Y-86360000D03*
D13*
X139065000Y-86360000D03*
D14*
X115650000Y-119380000D03*
X120650000Y-119380000D03*
X109855000Y-83780000D03*
X109855000Y-81280000D03*
X135215000Y-93980000D03*
X132715000Y-93980000D03*
X100370000Y-65405000D03*
X102870000Y-65405000D03*
X133310000Y-57150000D03*
X130810000Y-57150000D03*
X142835000Y-118745000D03*
X140335000Y-118745000D03*
X140970000Y-130770000D03*
X140970000Y-128270000D03*
X138470000Y-98425000D03*
X140970000Y-98425000D03*
D15*
X181610000Y-94615000D03*
D16*
X181610000Y-99695000D03*
D13*
X120015000Y-109855000D03*
D12*
X153035000Y-102235000D03*
X122555000Y-109855000D03*
X150495000Y-102235000D03*
X125095000Y-109855000D03*
X147955000Y-102235000D03*
X127635000Y-109855000D03*
X145415000Y-102235000D03*
X130175000Y-109855000D03*
X142875000Y-102235000D03*
X132715000Y-109855000D03*
X140335000Y-102235000D03*
X135255000Y-109855000D03*
X137795000Y-102235000D03*
X137795000Y-109855000D03*
X135255000Y-102235000D03*
X140335000Y-109855000D03*
X132715000Y-102235000D03*
X142875000Y-109855000D03*
X130175000Y-102235000D03*
X145415000Y-109855000D03*
X127635000Y-102235000D03*
X147955000Y-109855000D03*
X125095000Y-102235000D03*
X150495000Y-109855000D03*
X122555000Y-102235000D03*
X153035000Y-109855000D03*
X120015000Y-102235000D03*
D17*
X102870000Y-84455000D03*
D18*
X100330000Y-84455000D03*
D19*
X110490000Y-93345000D03*
D20*
X110490000Y-95885000D03*
X110490000Y-98425000D03*
D12*
X144780000Y-122555000D03*
D14*
X137160000Y-122555000D03*
D20*
X147955000Y-70485000D03*
X147955000Y-67945000D03*
X147955000Y-65405000D03*
D19*
X147955000Y-62865000D03*
D20*
X124460000Y-70485000D03*
X124460000Y-67945000D03*
X124460000Y-65405000D03*
D19*
X124460000Y-62865000D03*
D13*
X110490000Y-104775000D03*
D12*
X110490000Y-107315000D03*
X110490000Y-109855000D03*
X110490000Y-112395000D03*
X110490000Y-114935000D03*
X110490000Y-117475000D03*
X193675000Y-125095000D03*
D14*
X193675000Y-117475000D03*
D12*
X113665000Y-86360000D03*
X116205000Y-86360000D03*
X118745000Y-86360000D03*
X121285000Y-86360000D03*
X123825000Y-86360000D03*
X126365000Y-86360000D03*
X128905000Y-86360000D03*
X131445000Y-86360000D03*
D13*
X133985000Y-86360000D03*
D21*
X160655000Y-120630000D03*
D22*
X160655000Y-113030000D03*
D12*
X126365000Y-98425000D03*
D14*
X133985000Y-98425000D03*
D12*
X133985000Y-81280000D03*
X131445000Y-81280000D03*
X128905000Y-81280000D03*
X126365000Y-81280000D03*
X123825000Y-81280000D03*
X121285000Y-81280000D03*
X118745000Y-81280000D03*
X116205000Y-81280000D03*
D13*
X113665000Y-81280000D03*
D12*
X170180000Y-114935000D03*
D13*
X170180000Y-107315000D03*
D12*
X173990000Y-114935000D03*
D13*
X173990000Y-107315000D03*
D20*
X123825000Y-130175000D03*
X123825000Y-132715000D03*
D19*
X123825000Y-135255000D03*
D20*
X117475000Y-135255000D03*
X114935000Y-135255000D03*
D19*
X112395000Y-135255000D03*
D20*
X112395000Y-128905000D03*
X112395000Y-126365000D03*
D19*
X112395000Y-123825000D03*
D20*
X118745000Y-123825000D03*
X121285000Y-123825000D03*
D19*
X123825000Y-123825000D03*
D20*
X135890000Y-128270000D03*
X135890000Y-130810000D03*
D19*
X135890000Y-133350000D03*
D20*
X131445000Y-128270000D03*
X131445000Y-130810000D03*
D19*
X131445000Y-133350000D03*
D20*
X105410000Y-60960000D03*
X102870000Y-60960000D03*
D19*
X100330000Y-60960000D03*
D20*
X105410000Y-56515000D03*
X102870000Y-56515000D03*
D19*
X100330000Y-56515000D03*
D23*
X143510000Y-114300000D03*
X138510000Y-114300000D03*
D13*
X146050000Y-135255000D03*
D12*
X163830000Y-127635000D03*
X148590000Y-135255000D03*
X161290000Y-127635000D03*
X151130000Y-135255000D03*
X158750000Y-127635000D03*
X153670000Y-135255000D03*
X156210000Y-127635000D03*
X156210000Y-135255000D03*
X153670000Y-127635000D03*
X158750000Y-135255000D03*
X151130000Y-127635000D03*
X161290000Y-135255000D03*
X148590000Y-127635000D03*
X163830000Y-135255000D03*
X146050000Y-127635000D03*
D13*
X172085000Y-129540000D03*
D14*
X172085000Y-132040000D03*
D21*
X153185000Y-53975000D03*
X153185000Y-58475000D03*
X146685000Y-53975000D03*
X146685000Y-58475000D03*
D14*
X147955000Y-119300000D03*
X147955000Y-114300000D03*
X133985000Y-114300000D03*
X133985000Y-119300000D03*
D22*
X186055000Y-76200000D03*
D21*
X181055000Y-76200000D03*
D14*
X163155000Y-62230000D03*
D13*
X160655000Y-62230000D03*
D18*
X100330000Y-71755000D03*
D17*
X102870000Y-71755000D03*
X102870000Y-97155000D03*
D18*
X100330000Y-97155000D03*
X100330000Y-109855000D03*
D17*
X102870000Y-109855000D03*
D18*
X100330000Y-122555000D03*
D17*
X102870000Y-122555000D03*
D24*
X169545000Y-84455000D03*
D25*
X169545000Y-94615000D03*
X173355000Y-94615000D03*
D24*
X173355000Y-84455000D03*
D12*
X174625000Y-135890000D03*
D13*
X167005000Y-135890000D03*
X173990000Y-118110000D03*
D12*
X173990000Y-125730000D03*
D19*
X123825000Y-56515000D03*
D20*
X121285000Y-56515000D03*
X118745000Y-56515000D03*
X116205000Y-56515000D03*
X113665000Y-56515000D03*
D21*
X167205000Y-55690000D03*
X167205000Y-63690000D03*
X182205000Y-55690000D03*
X182205000Y-63690000D03*
X187205000Y-55690000D03*
X187205000Y-63690000D03*
X192205000Y-55690000D03*
X192205000Y-63690000D03*
D14*
X122555000Y-98425000D03*
D12*
X114935000Y-98425000D03*
X106680000Y-122555000D03*
D14*
X106680000Y-130175000D03*
D26*
X169545000Y-68580000D03*
D27*
X167005000Y-68580000D03*
X164465000Y-68580000D03*
D19*
X128270000Y-115570000D03*
D20*
X125730000Y-115570000D03*
X123190000Y-115570000D03*
X120650000Y-115570000D03*
X118110000Y-115570000D03*
X115570000Y-115570000D03*
D18*
X142240000Y-56515000D03*
D17*
X139700000Y-56515000D03*
D21*
X189650000Y-68580000D03*
X178650000Y-68580000D03*
D28*
X128270000Y-93980000D03*
X101600000Y-91440000D03*
X148590000Y-96520000D03*
X151130000Y-95250000D03*
X102870000Y-88900000D03*
X102870000Y-88900000D03*
X152400000Y-95250000D03*
X161290000Y-139065000D03*
X127000000Y-65405000D03*
X126365000Y-106680000D03*
X174625000Y-62865000D03*
X167640000Y-98425000D03*
X109220000Y-74930000D03*
X137795000Y-106045000D03*
X144145000Y-107950000D03*
X159385000Y-107950000D03*
X172720000Y-62865000D03*
X165735000Y-98425000D03*
X110490000Y-76200000D03*
X138972999Y-106772001D03*
X144687999Y-106772001D03*
X158750000Y-106680000D03*
X139065000Y-104140000D03*
X158750000Y-130175000D03*
X139065000Y-105410000D03*
X156845000Y-131445000D03*
X107315000Y-92075000D03*
X146685000Y-95885000D03*
X107315000Y-70485000D03*
X113030000Y-70485000D03*
X130175000Y-66675000D03*
X139065000Y-93980000D03*
X128905000Y-70485000D03*
X150495000Y-73660000D03*
X140335000Y-93980000D03*
X103505000Y-86995000D03*
X128270000Y-69215000D03*
X113665000Y-78105000D03*
X110490000Y-78105000D03*
X137795000Y-93980000D03*
X112395000Y-126365000D03*
X106997500Y-77787500D03*
X113665000Y-79375000D03*
X106045000Y-86360000D03*
D29*
X167005000Y-68121698D02*
X167005000Y-68580000D01*
X168204999Y-56689999D02*
X167205000Y-55690000D01*
X168786001Y-65036999D02*
X168786001Y-57271001D01*
X167005000Y-66818000D02*
X168786001Y-65036999D01*
X168786001Y-57271001D02*
X168204999Y-56689999D01*
X167005000Y-68580000D02*
X167005000Y-66818000D01*
X167205000Y-58180000D02*
X163155000Y-62230000D01*
X167205000Y-55690000D02*
X167205000Y-58180000D01*
D30*
X177599990Y-103074990D02*
X181610000Y-107085000D01*
X179488680Y-94615000D02*
X177599990Y-96503690D01*
X177599990Y-96503690D02*
X177599990Y-103074990D01*
X181610000Y-94615000D02*
X179488680Y-94615000D01*
D31*
X181610000Y-94615000D02*
X173355000Y-94615000D01*
D29*
X172065000Y-132040000D02*
X172085000Y-132040000D01*
X135255000Y-107315000D02*
X137795000Y-109855000D01*
X135255000Y-102235000D02*
X135255000Y-107315000D01*
X139941001Y-115811001D02*
X142875000Y-118745000D01*
X139941001Y-112001001D02*
X139941001Y-115811001D01*
X137795000Y-109855000D02*
X139941001Y-112001001D01*
X138510000Y-98980000D02*
X135255000Y-102235000D01*
X138510000Y-98425000D02*
X138510000Y-98980000D01*
X133985000Y-86360000D02*
X133985000Y-91995000D01*
X139065000Y-76835000D02*
X147955000Y-67945000D01*
X110490000Y-86280000D02*
X110490000Y-93345000D01*
D30*
X181055000Y-94060000D02*
X181610000Y-94615000D01*
X181055000Y-76200000D02*
X181055000Y-94060000D01*
D29*
X181055000Y-76200000D02*
X175975000Y-71120000D01*
X175975000Y-71120000D02*
X167640000Y-71120000D01*
X167640000Y-71120000D02*
X167005000Y-70485000D01*
X167005000Y-70485000D02*
X167005000Y-68580000D01*
X133985000Y-92750000D02*
X133985000Y-91995000D01*
X135215000Y-93980000D02*
X133985000Y-92750000D01*
X138470000Y-97235000D02*
X135215000Y-93980000D01*
X138470000Y-98425000D02*
X138470000Y-97235000D01*
X109855000Y-85645000D02*
X110490000Y-86280000D01*
X109855000Y-83780000D02*
X109855000Y-85645000D01*
X137683999Y-78216001D02*
X139065000Y-76835000D01*
X137683999Y-83342722D02*
X137683999Y-78216001D01*
X139065000Y-84723723D02*
X137683999Y-83342722D01*
X139065000Y-86360000D02*
X139065000Y-84723723D01*
X160675000Y-120630000D02*
X160655000Y-120630000D01*
X172085000Y-132040000D02*
X160675000Y-120630000D01*
D30*
X178650000Y-68580000D02*
X181610000Y-68580000D01*
X186055000Y-73025000D02*
X186055000Y-76200000D01*
X181610000Y-68580000D02*
X186055000Y-73025000D01*
X186055000Y-76200000D02*
X186055000Y-85725000D01*
X186055000Y-85725000D02*
X189865000Y-89535000D01*
X186920000Y-99695000D02*
X181610000Y-99695000D01*
X189865000Y-96750000D02*
X186920000Y-99695000D01*
X189865000Y-89535000D02*
X189865000Y-96750000D01*
D29*
X178650000Y-68580000D02*
X169545000Y-68580000D01*
X135255000Y-113526118D02*
X137875000Y-116146118D01*
X135255000Y-109855000D02*
X135255000Y-113526118D01*
X139096001Y-125063999D02*
X135890000Y-128270000D01*
D32*
X137160000Y-127000000D02*
X135890000Y-128270000D01*
X137160000Y-122555000D02*
X137160000Y-127000000D01*
D29*
X140970000Y-98425000D02*
X140970000Y-101600000D01*
X140970000Y-101600000D02*
X140335000Y-102235000D01*
X137875000Y-116285000D02*
X140335000Y-118745000D01*
X137875000Y-116146118D02*
X137875000Y-116285000D01*
X140335000Y-123825000D02*
X139096001Y-125063999D01*
X140335000Y-118745000D02*
X140335000Y-123825000D01*
D31*
X130175000Y-56515000D02*
X130810000Y-57150000D01*
X123825000Y-56515000D02*
X130175000Y-56515000D01*
D29*
X154305000Y-83820000D02*
X151765000Y-81280000D01*
X154305000Y-89535000D02*
X154305000Y-83820000D01*
X149860000Y-89535000D02*
X154305000Y-89535000D01*
X140970000Y-98425000D02*
X149860000Y-89535000D01*
D32*
X126365000Y-98425000D02*
X126365000Y-95885000D01*
X126365000Y-95885000D02*
X128270000Y-93980000D01*
X128270000Y-93980000D02*
X128270000Y-93980000D01*
D33*
X101600000Y-91440000D02*
X101600000Y-86995000D01*
X101600000Y-86995000D02*
X100330000Y-85725000D01*
X100330000Y-85725000D02*
X100330000Y-84455000D01*
D32*
X148590000Y-99060000D02*
X145415000Y-102235000D01*
X148590000Y-96520000D02*
X148590000Y-99060000D01*
X151130000Y-99060000D02*
X147955000Y-102235000D01*
X151130000Y-95250000D02*
X151130000Y-99060000D01*
X101557001Y-96652037D02*
X101557001Y-107357999D01*
X102870000Y-95339038D02*
X101557001Y-96652037D01*
X101557001Y-107357999D02*
X100330000Y-108585000D01*
X100330000Y-108585000D02*
X100330000Y-109855000D01*
X102870000Y-95339038D02*
X102870000Y-92075000D01*
X102870000Y-92075000D02*
X102870000Y-88900000D01*
X102870000Y-88900000D02*
X102870000Y-88900000D01*
X102870000Y-88900000D02*
X102870000Y-88900000D01*
X150495000Y-102235000D02*
X152400000Y-100330000D01*
X152400000Y-100330000D02*
X152400000Y-95250000D01*
X152400000Y-95250000D02*
X152400000Y-95250000D01*
D30*
X192205000Y-55690000D02*
X192205000Y-63690000D01*
X185420000Y-112395000D02*
X181610000Y-112395000D01*
X188811320Y-112395000D02*
X185420000Y-112395000D01*
D31*
X181610000Y-112395000D02*
X173990000Y-104775000D01*
X173990000Y-99060000D02*
X169545000Y-94615000D01*
X173990000Y-104775000D02*
X173990000Y-99060000D01*
D32*
X161290000Y-139065000D02*
X161290000Y-139065000D01*
D30*
X192205000Y-63690000D02*
X196215000Y-67700000D01*
X196215000Y-104991320D02*
X188811320Y-112395000D01*
X196215000Y-67700000D02*
X196215000Y-104991320D01*
D32*
X170815000Y-139065000D02*
X161290000Y-139065000D01*
X172085000Y-140335000D02*
X170815000Y-139065000D01*
X196215000Y-128905000D02*
X184785000Y-140335000D01*
X184785000Y-140335000D02*
X172085000Y-140335000D01*
X196215000Y-104991320D02*
X196215000Y-128905000D01*
D31*
X176530000Y-137795000D02*
X174625000Y-135890000D01*
X181610000Y-137795000D02*
X176530000Y-137795000D01*
X180975000Y-132715000D02*
X181610000Y-132715000D01*
X173990000Y-125730000D02*
X180975000Y-132715000D01*
D30*
X187205000Y-55690000D02*
X187205000Y-63690000D01*
X187205000Y-66135000D02*
X189650000Y-68580000D01*
X187205000Y-63690000D02*
X187205000Y-66135000D01*
D32*
X123534397Y-64227999D02*
X125822999Y-64227999D01*
X121285000Y-61978602D02*
X123534397Y-64227999D01*
X121285000Y-56515000D02*
X121285000Y-61978602D01*
X125822999Y-64227999D02*
X127000000Y-65405000D01*
X127000000Y-65405000D02*
X127000000Y-65405000D01*
X129047999Y-101107999D02*
X130175000Y-102235000D01*
X127380037Y-101107999D02*
X129047999Y-101107999D01*
X123825000Y-97552962D02*
X127380037Y-101107999D01*
X123825000Y-86360000D02*
X123825000Y-97552962D01*
X130175000Y-102235000D02*
X126365000Y-106045000D01*
X126365000Y-106045000D02*
X126365000Y-106680000D01*
X126365000Y-106680000D02*
X126365000Y-106680000D01*
D31*
X181610000Y-117475000D02*
X193675000Y-117475000D01*
D33*
X153035000Y-58420000D02*
X146535000Y-58420000D01*
D32*
X146685000Y-58475000D02*
X146630000Y-58475000D01*
X145470000Y-59690000D02*
X146685000Y-58475000D01*
X139700000Y-73660000D02*
X145470000Y-67890000D01*
X145470000Y-67890000D02*
X145470000Y-59690000D01*
X113665000Y-73660000D02*
X139700000Y-73660000D01*
X112537999Y-74787001D02*
X113665000Y-73660000D01*
X112537999Y-85232999D02*
X112537999Y-74787001D01*
X113665000Y-86360000D02*
X112537999Y-85232999D01*
X113665000Y-86360000D02*
X113665000Y-113030000D01*
X118110000Y-113030000D02*
X120650000Y-115570000D01*
X113665000Y-113030000D02*
X118110000Y-113030000D01*
D31*
X156789001Y-133294001D02*
X151130000Y-127635000D01*
X175204001Y-133294001D02*
X156789001Y-133294001D01*
X177165000Y-135255000D02*
X175204001Y-133294001D01*
X183515000Y-135255000D02*
X177165000Y-135255000D01*
X193675000Y-125095000D02*
X183515000Y-135255000D01*
D32*
X149717001Y-128762001D02*
X149717001Y-123332999D01*
X156210000Y-135255000D02*
X149717001Y-128762001D01*
X149717001Y-123332999D02*
X152400000Y-120650000D01*
X152400000Y-111760000D02*
X150495000Y-109855000D01*
X152400000Y-120650000D02*
X152400000Y-111760000D01*
X147177001Y-128762001D02*
X147177001Y-124602999D01*
X153670000Y-135255000D02*
X147177001Y-128762001D01*
X147177001Y-124602999D02*
X151130000Y-120650000D01*
X151130000Y-113030000D02*
X147955000Y-109855000D01*
X151130000Y-120650000D02*
X151130000Y-113030000D01*
X149225000Y-113665000D02*
X145415000Y-109855000D01*
X149860000Y-113665000D02*
X149225000Y-113665000D01*
X144922999Y-124952001D02*
X149860000Y-120015000D01*
X149860000Y-120015000D02*
X149860000Y-113665000D01*
X144922999Y-129047999D02*
X144922999Y-124952001D01*
X151130000Y-135255000D02*
X144922999Y-129047999D01*
X116205000Y-86360000D02*
X116205000Y-100965000D01*
X116205000Y-100965000D02*
X117475000Y-102235000D01*
X123190000Y-107950000D02*
X125095000Y-109855000D01*
X123190000Y-107950000D02*
X120650000Y-105410000D01*
X120650000Y-105410000D02*
X120015000Y-104775000D01*
X120015000Y-104775000D02*
X117475000Y-102235000D01*
D33*
X106259999Y-55665001D02*
X105410000Y-56515000D01*
X107697091Y-54227909D02*
X106259999Y-55665001D01*
X142974321Y-54227909D02*
X107697091Y-54227909D01*
X153437793Y-55848597D02*
X144595009Y-55848597D01*
X144595009Y-55848597D02*
X142974321Y-54227909D01*
X168027401Y-53914989D02*
X155371401Y-53914989D01*
X174625000Y-60512588D02*
X168027401Y-53914989D01*
X174625000Y-62865000D02*
X174625000Y-60512588D01*
X155371401Y-53914989D02*
X153437793Y-55848597D01*
D32*
X104232999Y-61524961D02*
X105573038Y-62865000D01*
X104232999Y-57692001D02*
X104232999Y-61524961D01*
X105410000Y-56515000D02*
X104232999Y-57692001D01*
X105573038Y-62865000D02*
X109220000Y-62865000D01*
X109220000Y-62865000D02*
X109220000Y-74930000D01*
X109220000Y-74930000D02*
X109220000Y-74930000D01*
X137795000Y-106669964D02*
X139075036Y-107950000D01*
X137795000Y-106045000D02*
X137795000Y-106669964D01*
X139075036Y-107950000D02*
X144145000Y-107950000D01*
X167640000Y-98425000D02*
X167640000Y-99695000D01*
X167640000Y-99695000D02*
X159385000Y-107950000D01*
X144145000Y-107950000D02*
X144145000Y-107950000D01*
X159385000Y-107950000D02*
X159385000Y-107950000D01*
D33*
X105410000Y-59757919D02*
X110490000Y-54677919D01*
X105410000Y-60960000D02*
X105410000Y-59757919D01*
X167841001Y-54364999D02*
X162805001Y-54364999D01*
X172720000Y-62865000D02*
X172720000Y-59243998D01*
X172720000Y-59243998D02*
X167841001Y-54364999D01*
X153035000Y-56515000D02*
X144145000Y-56515000D01*
X142787921Y-54677919D02*
X110490000Y-54677919D01*
X144145000Y-56034998D02*
X142787921Y-54677919D01*
X144145000Y-56515000D02*
X144145000Y-56034998D01*
D32*
X153035000Y-56515000D02*
X154305000Y-56515000D01*
X156453001Y-54366999D02*
X162805001Y-54366999D01*
X154305000Y-56515000D02*
X156453001Y-54366999D01*
X105410000Y-60960000D02*
X110490000Y-60960000D01*
X110490000Y-60960000D02*
X110490000Y-76200000D01*
X110490000Y-76200000D02*
X110490000Y-76200000D01*
X138972999Y-106772001D02*
X144687999Y-106772001D01*
X165735000Y-98425000D02*
X165735000Y-99695000D01*
X165735000Y-99695000D02*
X158750000Y-106680000D01*
X144687999Y-106772001D02*
X144687999Y-106772001D01*
X158750000Y-106680000D02*
X158750000Y-106680000D01*
X153053007Y-102253007D02*
X153035000Y-102235000D01*
X151130000Y-104140000D02*
X153035000Y-102235000D01*
X139065000Y-104140000D02*
X151130000Y-104140000D01*
X153035000Y-102235000D02*
X153035000Y-105410000D01*
X153035000Y-105410000D02*
X158115000Y-110490000D01*
X157622999Y-127094039D02*
X157622999Y-129047999D01*
X158115000Y-126602038D02*
X157622999Y-127094039D01*
X158115000Y-110490000D02*
X158115000Y-126602038D01*
X157622999Y-129047999D02*
X158750000Y-130175000D01*
X158750000Y-130175000D02*
X158750000Y-130175000D01*
X148590000Y-105410000D02*
X153035000Y-109855000D01*
X139065000Y-105410000D02*
X148590000Y-105410000D01*
X155082999Y-129682999D02*
X155082999Y-111902999D01*
X155082999Y-111902999D02*
X153035000Y-109855000D01*
X156845000Y-131445000D02*
X156845000Y-131445000D01*
X156845000Y-131445000D02*
X155082999Y-129682999D01*
X135255000Y-60960000D02*
X139700000Y-56515000D01*
X113665000Y-72390000D02*
X135255000Y-72390000D01*
X111852001Y-69757999D02*
X113572999Y-69757999D01*
X111667001Y-69942999D02*
X111852001Y-69757999D01*
X113572999Y-69757999D02*
X113757001Y-69942001D01*
X111667001Y-106137999D02*
X111667001Y-69942999D01*
X135255000Y-72390000D02*
X135255000Y-60960000D01*
X110490000Y-107315000D02*
X111667001Y-106137999D01*
X113757001Y-72297999D02*
X113665000Y-72390000D01*
X113757001Y-69942001D02*
X113757001Y-72297999D01*
D33*
X100330000Y-72905000D02*
X107315000Y-79890000D01*
X100330000Y-71755000D02*
X100330000Y-72905000D01*
X107315000Y-79890000D02*
X107315000Y-91984999D01*
D32*
X101557001Y-72982001D02*
X104817999Y-72982001D01*
X100330000Y-71755000D02*
X101557001Y-72982001D01*
X104817999Y-72982001D02*
X107315000Y-70485000D01*
X107315000Y-70485000D02*
X107315000Y-70485000D01*
X113030000Y-70485000D02*
X113030000Y-70485000D01*
X142240000Y-56515000D02*
X136525000Y-62230000D01*
X136525000Y-62230000D02*
X136525000Y-73025000D01*
X136525000Y-73025000D02*
X113030000Y-73025000D01*
X113030000Y-73025000D02*
X113030000Y-70485000D01*
X146685000Y-98425000D02*
X142875000Y-102235000D01*
X146685000Y-95885000D02*
X146685000Y-98425000D01*
X115570000Y-119300000D02*
X115650000Y-119380000D01*
X115570000Y-115570000D02*
X115570000Y-119300000D01*
X121920000Y-119380000D02*
X120650000Y-119380000D01*
X125730000Y-115570000D02*
X121920000Y-119380000D01*
X126222001Y-109314039D02*
X126222001Y-110395961D01*
X121285000Y-104377038D02*
X126222001Y-109314039D01*
X117617999Y-82407001D02*
X117617999Y-98170037D01*
X118745000Y-81280000D02*
X117617999Y-82407001D01*
X120489076Y-104377038D02*
X121285000Y-104377038D01*
X117929009Y-101816971D02*
X120489076Y-104377038D01*
X117929009Y-98481047D02*
X117929009Y-101816971D01*
X117617999Y-98170037D02*
X117929009Y-98481047D01*
X125730000Y-110887962D02*
X126222001Y-110395961D01*
X125730000Y-115570000D02*
X125730000Y-110887962D01*
D31*
X173990000Y-114935000D02*
X181610000Y-122555000D01*
X170180000Y-116717202D02*
X181097798Y-127635000D01*
X181097798Y-127635000D02*
X181610000Y-127635000D01*
X170180000Y-114935000D02*
X170180000Y-116717202D01*
D32*
X122647999Y-56136037D02*
X122647999Y-58764397D01*
X121849961Y-55337999D02*
X122647999Y-56136037D01*
X119922001Y-55337999D02*
X121849961Y-55337999D01*
X122647999Y-58764397D02*
X130175000Y-66291398D01*
X118745000Y-56515000D02*
X119922001Y-55337999D01*
X130175000Y-66291398D02*
X130175000Y-66675000D01*
X130175000Y-66675000D02*
X130175000Y-66675000D01*
X146685000Y-81280000D02*
X146685000Y-86360000D01*
X136525000Y-88265000D02*
X136525000Y-88265000D01*
X121825961Y-80152999D02*
X117332001Y-80152999D01*
X122412001Y-80739039D02*
X121825961Y-80152999D01*
X123825000Y-83185000D02*
X122412001Y-81772001D01*
X136525000Y-83185000D02*
X123825000Y-83185000D01*
X136525000Y-93785962D02*
X136525000Y-83185000D01*
X122412001Y-81772001D02*
X122412001Y-80739039D01*
X139637001Y-96897963D02*
X136525000Y-93785962D01*
X139637001Y-100392999D02*
X139637001Y-96897963D01*
X117332001Y-80152999D02*
X116205000Y-81280000D01*
X137795000Y-102235000D02*
X139637001Y-100392999D01*
X139065000Y-93980000D02*
X144145000Y-88900000D01*
X144145000Y-88900000D02*
X144145000Y-86360000D01*
X124460000Y-70485000D02*
X128905000Y-70485000D01*
X144145000Y-81280000D02*
X144145000Y-86360000D01*
X140335000Y-93980000D02*
X146685000Y-87630000D01*
X147955000Y-87630000D02*
X146685000Y-87630000D01*
X149225000Y-86360000D02*
X147955000Y-87630000D01*
D33*
X147955000Y-70485000D02*
X150495000Y-70485000D01*
X150495000Y-70485000D02*
X150495000Y-72934999D01*
X150495000Y-72934999D02*
X150495000Y-73660000D01*
D32*
X149225000Y-81280000D02*
X149225000Y-86360000D01*
X143980001Y-133185001D02*
X146050000Y-135255000D01*
X143980001Y-123354999D02*
X143980001Y-133185001D01*
X144780000Y-122555000D02*
X143980001Y-123354999D01*
X148590000Y-135255000D02*
X146050000Y-135255000D01*
X113757999Y-134077999D02*
X114935000Y-135255000D01*
X104867999Y-134077999D02*
X113757999Y-134077999D01*
X104775000Y-133985000D02*
X104867999Y-134077999D01*
X104867999Y-88357999D02*
X103505000Y-86995000D01*
X104867999Y-134077999D02*
X104867999Y-88357999D01*
X124929000Y-123825000D02*
X123825000Y-123825000D01*
X112395000Y-135255000D02*
X112395000Y-136359000D01*
X125730000Y-124626000D02*
X124929000Y-123825000D01*
X112395000Y-136359000D02*
X113196000Y-137160000D01*
X113196000Y-137160000D02*
X125730000Y-137160000D01*
X125730000Y-137160000D02*
X125730000Y-124626000D01*
X126907001Y-120742999D02*
X123825000Y-123825000D01*
X126907001Y-114644397D02*
X126907001Y-120742999D01*
X128762001Y-106187999D02*
X128762001Y-112789397D01*
X128762001Y-112789397D02*
X126907001Y-114644397D01*
X132715000Y-102235000D02*
X128762001Y-106187999D01*
X116205000Y-61431962D02*
X123988038Y-69215000D01*
X116205000Y-56515000D02*
X116205000Y-61431962D01*
X123988038Y-69215000D02*
X128270000Y-69215000D01*
X128270000Y-69215000D02*
X128270000Y-69215000D01*
X128905000Y-86360000D02*
X128905000Y-91440000D01*
X128905000Y-91440000D02*
X130175000Y-92710000D01*
X130175000Y-99695000D02*
X132715000Y-102235000D01*
X130175000Y-92710000D02*
X130175000Y-99695000D01*
X121285000Y-125027081D02*
X120582081Y-125730000D01*
X121285000Y-123825000D02*
X121285000Y-125027081D01*
X120582081Y-125730000D02*
X116205000Y-125730000D01*
X115662999Y-125187999D02*
X109947999Y-125187999D01*
X116205000Y-125730000D02*
X115662999Y-125187999D01*
X109947999Y-125187999D02*
X108585000Y-123825000D01*
X133985000Y-81280000D02*
X130810000Y-78105000D01*
X130810000Y-78105000D02*
X113665000Y-78105000D01*
X113665000Y-78105000D02*
X113665000Y-78105000D01*
X108585000Y-123825000D02*
X108585000Y-80010000D01*
X108585000Y-80010000D02*
X110490000Y-78105000D01*
X110490000Y-78105000D02*
X110490000Y-78105000D01*
X137795000Y-93980000D02*
X141605000Y-90170000D01*
X141605000Y-90170000D02*
X141605000Y-86360000D01*
X135890000Y-130810000D02*
X129901011Y-124821011D01*
X129901011Y-113311055D02*
X132230065Y-110982001D01*
X129901011Y-124821011D02*
X129901011Y-113311055D01*
X132230065Y-110982001D02*
X133541959Y-110982001D01*
X133541959Y-110982001D02*
X134127999Y-110395961D01*
X132792599Y-85232999D02*
X120458041Y-85232999D01*
X134127999Y-110395961D02*
X134127999Y-101554275D01*
X134127999Y-101554275D02*
X130872999Y-98299275D01*
X130872999Y-98299275D02*
X130872999Y-93439039D01*
X132792599Y-91519439D02*
X132792599Y-85232999D01*
X130872999Y-93439039D02*
X132792599Y-91519439D01*
X120458041Y-85232999D02*
X119872001Y-85819039D01*
X119872001Y-85819039D02*
X119872001Y-97884039D01*
X120015000Y-98027038D02*
X119872001Y-97884039D01*
X120015000Y-102235000D02*
X120015000Y-98027038D01*
X141605000Y-81280000D02*
X141605000Y-86360000D01*
X111192919Y-126365000D02*
X112395000Y-126365000D01*
X110482933Y-126365000D02*
X111192919Y-126365000D01*
X108042001Y-123924068D02*
X110482933Y-126365000D01*
X128905000Y-81280000D02*
X126365000Y-78740000D01*
X108042001Y-123924068D02*
X108042001Y-78832001D01*
X108042001Y-78832001D02*
X106997500Y-77787500D01*
X114300000Y-78740000D02*
X113665000Y-79375000D01*
X126365000Y-78740000D02*
X114300000Y-78740000D01*
X123825000Y-132715000D02*
X107466398Y-132715000D01*
X107466398Y-132715000D02*
X105452999Y-130701601D01*
X105452999Y-130701601D02*
X105452999Y-86952001D01*
X105452999Y-86952001D02*
X106045000Y-86360000D01*
X106045000Y-86360000D02*
X106045000Y-86360000D01*
M02*
