G04 #@! TF.GenerationSoftware,KiCad,Pcbnew,(5.1.9)-1*
G04 #@! TF.CreationDate,2021-03-29T17:49:30-07:00*
G04 #@! TF.ProjectId,DSAMKVIC,4453414d-4b56-4494-932e-6b696361645f,rev?*
G04 #@! TF.SameCoordinates,Original*
G04 #@! TF.FileFunction,Legend,Top*
G04 #@! TF.FilePolarity,Positive*
%FSLAX46Y46*%
G04 Gerber Fmt 4.6, Leading zero omitted, Abs format (unit mm)*
G04 Created by KiCad (PCBNEW (5.1.9)-1) date 2021-03-29 17:49:30*
%MOMM*%
%LPD*%
G01*
G04 APERTURE LIST*
%ADD10C,0.150000*%
%ADD11C,0.152400*%
%ADD12C,0.203200*%
%ADD13C,0.300000*%
%ADD14C,0.100000*%
%ADD15C,0.120000*%
%ADD16C,0.254000*%
G04 APERTURE END LIST*
D10*
X119570714Y-63317380D02*
X119570714Y-62317380D01*
X119570714Y-62793571D02*
X120142142Y-62793571D01*
X120142142Y-63317380D02*
X120142142Y-62317380D01*
X120618333Y-62793571D02*
X120951666Y-62793571D01*
X121094523Y-63317380D02*
X120618333Y-63317380D01*
X120618333Y-62317380D01*
X121094523Y-62317380D01*
X121999285Y-63317380D02*
X121523095Y-63317380D01*
X121523095Y-62317380D01*
X122332619Y-63317380D02*
X122332619Y-62317380D01*
X122665952Y-63031666D01*
X122999285Y-62317380D01*
X122999285Y-63317380D01*
X122484047Y-121102380D02*
X122484047Y-120102380D01*
X122484047Y-120578571D02*
X123055476Y-120578571D01*
X123055476Y-121102380D02*
X123055476Y-120102380D01*
X123531666Y-120578571D02*
X123865000Y-120578571D01*
X124007857Y-121102380D02*
X123531666Y-121102380D01*
X123531666Y-120102380D01*
X124007857Y-120102380D01*
X124912619Y-121102380D02*
X124436428Y-121102380D01*
X124436428Y-120102380D01*
X125245952Y-121102380D02*
X125245952Y-120102380D01*
X125579285Y-120816666D01*
X125912619Y-120102380D01*
X125912619Y-121102380D01*
X127103095Y-121054761D02*
X127245952Y-121102380D01*
X127484047Y-121102380D01*
X127579285Y-121054761D01*
X127626904Y-121007142D01*
X127674523Y-120911904D01*
X127674523Y-120816666D01*
X127626904Y-120721428D01*
X127579285Y-120673809D01*
X127484047Y-120626190D01*
X127293571Y-120578571D01*
X127198333Y-120530952D01*
X127150714Y-120483333D01*
X127103095Y-120388095D01*
X127103095Y-120292857D01*
X127150714Y-120197619D01*
X127198333Y-120150000D01*
X127293571Y-120102380D01*
X127531666Y-120102380D01*
X127674523Y-120150000D01*
X127960238Y-120102380D02*
X128531666Y-120102380D01*
X128245952Y-121102380D02*
X128245952Y-120102380D01*
X128817380Y-120816666D02*
X129293571Y-120816666D01*
X128722142Y-121102380D02*
X129055476Y-120102380D01*
X129388809Y-121102380D01*
X130293571Y-121102380D02*
X129960238Y-120626190D01*
X129722142Y-121102380D02*
X129722142Y-120102380D01*
X130103095Y-120102380D01*
X130198333Y-120150000D01*
X130245952Y-120197619D01*
X130293571Y-120292857D01*
X130293571Y-120435714D01*
X130245952Y-120530952D01*
X130198333Y-120578571D01*
X130103095Y-120626190D01*
X129722142Y-120626190D01*
X128976428Y-130190714D02*
X128976428Y-129428809D01*
X129357380Y-129809761D02*
X128595476Y-129809761D01*
X128357380Y-128476428D02*
X128357380Y-128952619D01*
X128833571Y-129000238D01*
X128785952Y-128952619D01*
X128738333Y-128857380D01*
X128738333Y-128619285D01*
X128785952Y-128524047D01*
X128833571Y-128476428D01*
X128928809Y-128428809D01*
X129166904Y-128428809D01*
X129262142Y-128476428D01*
X129309761Y-128524047D01*
X129357380Y-128619285D01*
X129357380Y-128857380D01*
X129309761Y-128952619D01*
X129262142Y-129000238D01*
X128357380Y-128143095D02*
X129357380Y-127809761D01*
X128357380Y-127476428D01*
X150479285Y-83256428D02*
X151241190Y-83256428D01*
X150860238Y-83637380D02*
X150860238Y-82875476D01*
X152193571Y-82637380D02*
X151717380Y-82637380D01*
X151669761Y-83113571D01*
X151717380Y-83065952D01*
X151812619Y-83018333D01*
X152050714Y-83018333D01*
X152145952Y-83065952D01*
X152193571Y-83113571D01*
X152241190Y-83208809D01*
X152241190Y-83446904D01*
X152193571Y-83542142D01*
X152145952Y-83589761D01*
X152050714Y-83637380D01*
X151812619Y-83637380D01*
X151717380Y-83589761D01*
X151669761Y-83542142D01*
X152526904Y-82637380D02*
X152860238Y-83637380D01*
X153193571Y-82637380D01*
X127508095Y-117610000D02*
X127412857Y-117562380D01*
X127270000Y-117562380D01*
X127127142Y-117610000D01*
X127031904Y-117705238D01*
X126984285Y-117800476D01*
X126936666Y-117990952D01*
X126936666Y-118133809D01*
X126984285Y-118324285D01*
X127031904Y-118419523D01*
X127127142Y-118514761D01*
X127270000Y-118562380D01*
X127365238Y-118562380D01*
X127508095Y-118514761D01*
X127555714Y-118467142D01*
X127555714Y-118133809D01*
X127365238Y-118133809D01*
X127984285Y-118562380D02*
X127984285Y-117562380D01*
X128555714Y-118562380D01*
X128555714Y-117562380D01*
X129031904Y-118562380D02*
X129031904Y-117562380D01*
X129270000Y-117562380D01*
X129412857Y-117610000D01*
X129508095Y-117705238D01*
X129555714Y-117800476D01*
X129603333Y-117990952D01*
X129603333Y-118133809D01*
X129555714Y-118324285D01*
X129508095Y-118419523D01*
X129412857Y-118514761D01*
X129270000Y-118562380D01*
X129031904Y-118562380D01*
X120523095Y-67445000D02*
X120427857Y-67397380D01*
X120285000Y-67397380D01*
X120142142Y-67445000D01*
X120046904Y-67540238D01*
X119999285Y-67635476D01*
X119951666Y-67825952D01*
X119951666Y-67968809D01*
X119999285Y-68159285D01*
X120046904Y-68254523D01*
X120142142Y-68349761D01*
X120285000Y-68397380D01*
X120380238Y-68397380D01*
X120523095Y-68349761D01*
X120570714Y-68302142D01*
X120570714Y-67968809D01*
X120380238Y-67968809D01*
X120999285Y-68397380D02*
X120999285Y-67397380D01*
X121570714Y-68397380D01*
X121570714Y-67397380D01*
X122046904Y-68397380D02*
X122046904Y-67397380D01*
X122285000Y-67397380D01*
X122427857Y-67445000D01*
X122523095Y-67540238D01*
X122570714Y-67635476D01*
X122618333Y-67825952D01*
X122618333Y-67968809D01*
X122570714Y-68159285D01*
X122523095Y-68254523D01*
X122427857Y-68349761D01*
X122285000Y-68397380D01*
X122046904Y-68397380D01*
X119999285Y-65476428D02*
X120761190Y-65476428D01*
X120380238Y-65857380D02*
X120380238Y-65095476D01*
X121713571Y-64857380D02*
X121237380Y-64857380D01*
X121189761Y-65333571D01*
X121237380Y-65285952D01*
X121332619Y-65238333D01*
X121570714Y-65238333D01*
X121665952Y-65285952D01*
X121713571Y-65333571D01*
X121761190Y-65428809D01*
X121761190Y-65666904D01*
X121713571Y-65762142D01*
X121665952Y-65809761D01*
X121570714Y-65857380D01*
X121332619Y-65857380D01*
X121237380Y-65809761D01*
X121189761Y-65762142D01*
X122046904Y-64857380D02*
X122380238Y-65857380D01*
X122713571Y-64857380D01*
X118435714Y-69937380D02*
X118673809Y-70937380D01*
X118864285Y-70223095D01*
X119054761Y-70937380D01*
X119292857Y-69937380D01*
X119673809Y-70937380D02*
X119673809Y-69937380D01*
X120150000Y-70937380D02*
X120150000Y-69937380D01*
X120721428Y-70937380D01*
X120721428Y-69937380D01*
X121769047Y-70842142D02*
X121721428Y-70889761D01*
X121578571Y-70937380D01*
X121483333Y-70937380D01*
X121340476Y-70889761D01*
X121245238Y-70794523D01*
X121197619Y-70699285D01*
X121150000Y-70508809D01*
X121150000Y-70365952D01*
X121197619Y-70175476D01*
X121245238Y-70080238D01*
X121340476Y-69985000D01*
X121483333Y-69937380D01*
X121578571Y-69937380D01*
X121721428Y-69985000D01*
X121769047Y-70032619D01*
X122197619Y-70937380D02*
X122197619Y-69937380D01*
X122197619Y-70413571D02*
X122769047Y-70413571D01*
X122769047Y-70937380D02*
X122769047Y-69937380D01*
X158734285Y-68016428D02*
X159496190Y-68016428D01*
X159115238Y-68397380D02*
X159115238Y-67635476D01*
X160448571Y-67397380D02*
X159972380Y-67397380D01*
X159924761Y-67873571D01*
X159972380Y-67825952D01*
X160067619Y-67778333D01*
X160305714Y-67778333D01*
X160400952Y-67825952D01*
X160448571Y-67873571D01*
X160496190Y-67968809D01*
X160496190Y-68206904D01*
X160448571Y-68302142D01*
X160400952Y-68349761D01*
X160305714Y-68397380D01*
X160067619Y-68397380D01*
X159972380Y-68349761D01*
X159924761Y-68302142D01*
X160781904Y-67397380D02*
X161115238Y-68397380D01*
X161448571Y-67397380D01*
X187769761Y-137326666D02*
X188245952Y-137326666D01*
X187674523Y-137612380D02*
X188007857Y-136612380D01*
X188341190Y-137612380D01*
X188674523Y-136612380D02*
X188674523Y-137421904D01*
X188722142Y-137517142D01*
X188769761Y-137564761D01*
X188865000Y-137612380D01*
X189055476Y-137612380D01*
X189150714Y-137564761D01*
X189198333Y-137517142D01*
X189245952Y-137421904D01*
X189245952Y-136612380D01*
X189626904Y-136612380D02*
X190293571Y-137612380D01*
X190293571Y-136612380D02*
X189626904Y-137612380D01*
X191388809Y-136707619D02*
X191436428Y-136660000D01*
X191531666Y-136612380D01*
X191769761Y-136612380D01*
X191865000Y-136660000D01*
X191912619Y-136707619D01*
X191960238Y-136802857D01*
X191960238Y-136898095D01*
X191912619Y-137040952D01*
X191341190Y-137612380D01*
X191960238Y-137612380D01*
X187769761Y-132881666D02*
X188245952Y-132881666D01*
X187674523Y-133167380D02*
X188007857Y-132167380D01*
X188341190Y-133167380D01*
X188674523Y-132167380D02*
X188674523Y-132976904D01*
X188722142Y-133072142D01*
X188769761Y-133119761D01*
X188865000Y-133167380D01*
X189055476Y-133167380D01*
X189150714Y-133119761D01*
X189198333Y-133072142D01*
X189245952Y-132976904D01*
X189245952Y-132167380D01*
X189626904Y-132167380D02*
X190293571Y-133167380D01*
X190293571Y-132167380D02*
X189626904Y-133167380D01*
X191960238Y-133167380D02*
X191388809Y-133167380D01*
X191674523Y-133167380D02*
X191674523Y-132167380D01*
X191579285Y-132310238D01*
X191484047Y-132405476D01*
X191388809Y-132453095D01*
X98242380Y-64325476D02*
X97766190Y-64658809D01*
X98242380Y-64896904D02*
X97242380Y-64896904D01*
X97242380Y-64515952D01*
X97290000Y-64420714D01*
X97337619Y-64373095D01*
X97432857Y-64325476D01*
X97575714Y-64325476D01*
X97670952Y-64373095D01*
X97718571Y-64420714D01*
X97766190Y-64515952D01*
X97766190Y-64896904D01*
X98147142Y-63325476D02*
X98194761Y-63373095D01*
X98242380Y-63515952D01*
X98242380Y-63611190D01*
X98194761Y-63754047D01*
X98099523Y-63849285D01*
X98004285Y-63896904D01*
X97813809Y-63944523D01*
X97670952Y-63944523D01*
X97480476Y-63896904D01*
X97385238Y-63849285D01*
X97290000Y-63754047D01*
X97242380Y-63611190D01*
X97242380Y-63515952D01*
X97290000Y-63373095D01*
X97337619Y-63325476D01*
X105862380Y-111885714D02*
X104862380Y-111885714D01*
X105576666Y-111552380D01*
X104862380Y-111219047D01*
X105862380Y-111219047D01*
X104862380Y-110552380D02*
X104862380Y-110361904D01*
X104910000Y-110266666D01*
X105005238Y-110171428D01*
X105195714Y-110123809D01*
X105529047Y-110123809D01*
X105719523Y-110171428D01*
X105814761Y-110266666D01*
X105862380Y-110361904D01*
X105862380Y-110552380D01*
X105814761Y-110647619D01*
X105719523Y-110742857D01*
X105529047Y-110790476D01*
X105195714Y-110790476D01*
X105005238Y-110742857D01*
X104910000Y-110647619D01*
X104862380Y-110552380D01*
X104862380Y-109695238D02*
X105671904Y-109695238D01*
X105767142Y-109647619D01*
X105814761Y-109600000D01*
X105862380Y-109504761D01*
X105862380Y-109314285D01*
X105814761Y-109219047D01*
X105767142Y-109171428D01*
X105671904Y-109123809D01*
X104862380Y-109123809D01*
X105862380Y-108647619D02*
X104862380Y-108647619D01*
X105862380Y-108076190D01*
X104862380Y-108076190D01*
X104862380Y-107742857D02*
X104862380Y-107171428D01*
X105862380Y-107457142D02*
X104862380Y-107457142D01*
X105862380Y-105600000D02*
X105862380Y-106076190D01*
X104862380Y-106076190D01*
X105338571Y-105266666D02*
X105338571Y-104933333D01*
X105862380Y-104790476D02*
X105862380Y-105266666D01*
X104862380Y-105266666D01*
X104862380Y-104790476D01*
X105862380Y-104361904D02*
X104862380Y-104361904D01*
X104862380Y-104123809D01*
X104910000Y-103980952D01*
X105005238Y-103885714D01*
X105100476Y-103838095D01*
X105290952Y-103790476D01*
X105433809Y-103790476D01*
X105624285Y-103838095D01*
X105719523Y-103885714D01*
X105814761Y-103980952D01*
X105862380Y-104123809D01*
X105862380Y-104361904D01*
X105814761Y-103409523D02*
X105862380Y-103266666D01*
X105862380Y-103028571D01*
X105814761Y-102933333D01*
X105767142Y-102885714D01*
X105671904Y-102838095D01*
X105576666Y-102838095D01*
X105481428Y-102885714D01*
X105433809Y-102933333D01*
X105386190Y-103028571D01*
X105338571Y-103219047D01*
X105290952Y-103314285D01*
X105243333Y-103361904D01*
X105148095Y-103409523D01*
X105052857Y-103409523D01*
X104957619Y-103361904D01*
X104910000Y-103314285D01*
X104862380Y-103219047D01*
X104862380Y-102980952D01*
X104910000Y-102838095D01*
X104862380Y-101457142D02*
X104862380Y-101266666D01*
X104910000Y-101171428D01*
X105005238Y-101076190D01*
X105195714Y-101028571D01*
X105529047Y-101028571D01*
X105719523Y-101076190D01*
X105814761Y-101171428D01*
X105862380Y-101266666D01*
X105862380Y-101457142D01*
X105814761Y-101552380D01*
X105719523Y-101647619D01*
X105529047Y-101695238D01*
X105195714Y-101695238D01*
X105005238Y-101647619D01*
X104910000Y-101552380D01*
X104862380Y-101457142D01*
X105862380Y-100600000D02*
X104862380Y-100600000D01*
X105862380Y-100028571D01*
X104862380Y-100028571D01*
X105338571Y-98457142D02*
X105386190Y-98314285D01*
X105433809Y-98266666D01*
X105529047Y-98219047D01*
X105671904Y-98219047D01*
X105767142Y-98266666D01*
X105814761Y-98314285D01*
X105862380Y-98409523D01*
X105862380Y-98790476D01*
X104862380Y-98790476D01*
X104862380Y-98457142D01*
X104910000Y-98361904D01*
X104957619Y-98314285D01*
X105052857Y-98266666D01*
X105148095Y-98266666D01*
X105243333Y-98314285D01*
X105290952Y-98361904D01*
X105338571Y-98457142D01*
X105338571Y-98790476D01*
X105576666Y-97838095D02*
X105576666Y-97361904D01*
X105862380Y-97933333D02*
X104862380Y-97600000D01*
X105862380Y-97266666D01*
X105767142Y-96361904D02*
X105814761Y-96409523D01*
X105862380Y-96552380D01*
X105862380Y-96647619D01*
X105814761Y-96790476D01*
X105719523Y-96885714D01*
X105624285Y-96933333D01*
X105433809Y-96980952D01*
X105290952Y-96980952D01*
X105100476Y-96933333D01*
X105005238Y-96885714D01*
X104910000Y-96790476D01*
X104862380Y-96647619D01*
X104862380Y-96552380D01*
X104910000Y-96409523D01*
X104957619Y-96361904D01*
X105862380Y-95933333D02*
X104862380Y-95933333D01*
X105862380Y-95361904D02*
X105290952Y-95790476D01*
X104862380Y-95361904D02*
X105433809Y-95933333D01*
X105814761Y-94219047D02*
X105862380Y-94076190D01*
X105862380Y-93838095D01*
X105814761Y-93742857D01*
X105767142Y-93695238D01*
X105671904Y-93647619D01*
X105576666Y-93647619D01*
X105481428Y-93695238D01*
X105433809Y-93742857D01*
X105386190Y-93838095D01*
X105338571Y-94028571D01*
X105290952Y-94123809D01*
X105243333Y-94171428D01*
X105148095Y-94219047D01*
X105052857Y-94219047D01*
X104957619Y-94171428D01*
X104910000Y-94123809D01*
X104862380Y-94028571D01*
X104862380Y-93790476D01*
X104910000Y-93647619D01*
X105862380Y-93219047D02*
X104862380Y-93219047D01*
X105862380Y-92742857D02*
X104862380Y-92742857D01*
X104862380Y-92504761D01*
X104910000Y-92361904D01*
X105005238Y-92266666D01*
X105100476Y-92219047D01*
X105290952Y-92171428D01*
X105433809Y-92171428D01*
X105624285Y-92219047D01*
X105719523Y-92266666D01*
X105814761Y-92361904D01*
X105862380Y-92504761D01*
X105862380Y-92742857D01*
X105338571Y-91742857D02*
X105338571Y-91409523D01*
X105862380Y-91266666D02*
X105862380Y-91742857D01*
X104862380Y-91742857D01*
X104862380Y-91266666D01*
D11*
X122845285Y-59109428D02*
X123425857Y-59109428D01*
X123135571Y-59399714D02*
X123135571Y-58819142D01*
X124151571Y-58637714D02*
X123788714Y-58637714D01*
X123752428Y-59000571D01*
X123788714Y-58964285D01*
X123861285Y-58928000D01*
X124042714Y-58928000D01*
X124115285Y-58964285D01*
X124151571Y-59000571D01*
X124187857Y-59073142D01*
X124187857Y-59254571D01*
X124151571Y-59327142D01*
X124115285Y-59363428D01*
X124042714Y-59399714D01*
X123861285Y-59399714D01*
X123788714Y-59363428D01*
X123752428Y-59327142D01*
X124405571Y-58637714D02*
X124659571Y-59399714D01*
X124913571Y-58637714D01*
X116876285Y-132424714D02*
X116876285Y-131662714D01*
X117311714Y-132424714D01*
X117311714Y-131662714D01*
X118110000Y-132352142D02*
X118073714Y-132388428D01*
X117964857Y-132424714D01*
X117892285Y-132424714D01*
X117783428Y-132388428D01*
X117710857Y-132315857D01*
X117674571Y-132243285D01*
X117638285Y-132098142D01*
X117638285Y-131989285D01*
X117674571Y-131844142D01*
X117710857Y-131771571D01*
X117783428Y-131699000D01*
X117892285Y-131662714D01*
X117964857Y-131662714D01*
X118073714Y-131699000D01*
X118110000Y-131735285D01*
X114318142Y-132424714D02*
X114318142Y-131662714D01*
X114753571Y-132424714D01*
X114753571Y-131662714D01*
X115261571Y-131662714D02*
X115406714Y-131662714D01*
X115479285Y-131699000D01*
X115551857Y-131771571D01*
X115588142Y-131916714D01*
X115588142Y-132170714D01*
X115551857Y-132315857D01*
X115479285Y-132388428D01*
X115406714Y-132424714D01*
X115261571Y-132424714D01*
X115189000Y-132388428D01*
X115116428Y-132315857D01*
X115080142Y-132170714D01*
X115080142Y-131916714D01*
X115116428Y-131771571D01*
X115189000Y-131699000D01*
X115261571Y-131662714D01*
X111796285Y-132352142D02*
X111760000Y-132388428D01*
X111651142Y-132424714D01*
X111578571Y-132424714D01*
X111469714Y-132388428D01*
X111397142Y-132315857D01*
X111360857Y-132243285D01*
X111324571Y-132098142D01*
X111324571Y-131989285D01*
X111360857Y-131844142D01*
X111397142Y-131771571D01*
X111469714Y-131699000D01*
X111578571Y-131662714D01*
X111651142Y-131662714D01*
X111760000Y-131699000D01*
X111796285Y-131735285D01*
X112268000Y-131662714D02*
X112413142Y-131662714D01*
X112485714Y-131699000D01*
X112558285Y-131771571D01*
X112594571Y-131916714D01*
X112594571Y-132170714D01*
X112558285Y-132315857D01*
X112485714Y-132388428D01*
X112413142Y-132424714D01*
X112268000Y-132424714D01*
X112195428Y-132388428D01*
X112122857Y-132315857D01*
X112086571Y-132170714D01*
X112086571Y-131916714D01*
X112122857Y-131771571D01*
X112195428Y-131699000D01*
X112268000Y-131662714D01*
X112921142Y-132424714D02*
X112921142Y-131662714D01*
X113175142Y-132207000D01*
X113429142Y-131662714D01*
X113429142Y-132424714D01*
D12*
X183877857Y-99785714D02*
X184845476Y-99785714D01*
X184361666Y-100269523D02*
X184361666Y-99301904D01*
X186115476Y-100269523D02*
X185389761Y-100269523D01*
X185752619Y-100269523D02*
X185752619Y-98999523D01*
X185631666Y-99180952D01*
X185510714Y-99301904D01*
X185389761Y-99362380D01*
X186599285Y-99120476D02*
X186659761Y-99060000D01*
X186780714Y-98999523D01*
X187083095Y-98999523D01*
X187204047Y-99060000D01*
X187264523Y-99120476D01*
X187325000Y-99241428D01*
X187325000Y-99362380D01*
X187264523Y-99543809D01*
X186538809Y-100269523D01*
X187325000Y-100269523D01*
X187748333Y-99422857D02*
X188050714Y-100269523D01*
X188353095Y-99422857D01*
X185722380Y-93980000D02*
X185601428Y-93919523D01*
X185420000Y-93919523D01*
X185238571Y-93980000D01*
X185117619Y-94100952D01*
X185057142Y-94221904D01*
X184996666Y-94463809D01*
X184996666Y-94645238D01*
X185057142Y-94887142D01*
X185117619Y-95008095D01*
X185238571Y-95129047D01*
X185420000Y-95189523D01*
X185540952Y-95189523D01*
X185722380Y-95129047D01*
X185782857Y-95068571D01*
X185782857Y-94645238D01*
X185540952Y-94645238D01*
X186327142Y-95189523D02*
X186327142Y-93919523D01*
X187052857Y-95189523D01*
X187052857Y-93919523D01*
X187657619Y-95189523D02*
X187657619Y-93919523D01*
X187960000Y-93919523D01*
X188141428Y-93980000D01*
X188262380Y-94100952D01*
X188322857Y-94221904D01*
X188383333Y-94463809D01*
X188383333Y-94645238D01*
X188322857Y-94887142D01*
X188262380Y-95008095D01*
X188141428Y-95129047D01*
X187960000Y-95189523D01*
X187657619Y-95189523D01*
D13*
X114590714Y-113280000D02*
X115305000Y-113280000D01*
X114447857Y-113708571D02*
X114947857Y-112208571D01*
X115447857Y-113708571D01*
X116805000Y-113708571D02*
X116305000Y-112994285D01*
X115947857Y-113708571D02*
X115947857Y-112208571D01*
X116519285Y-112208571D01*
X116662142Y-112280000D01*
X116733571Y-112351428D01*
X116805000Y-112494285D01*
X116805000Y-112708571D01*
X116733571Y-112851428D01*
X116662142Y-112922857D01*
X116519285Y-112994285D01*
X115947857Y-112994285D01*
X117447857Y-113708571D02*
X117447857Y-112208571D01*
X117805000Y-112208571D01*
X118019285Y-112280000D01*
X118162142Y-112422857D01*
X118233571Y-112565714D01*
X118305000Y-112851428D01*
X118305000Y-113065714D01*
X118233571Y-113351428D01*
X118162142Y-113494285D01*
X118019285Y-113637142D01*
X117805000Y-113708571D01*
X117447857Y-113708571D01*
X118947857Y-112208571D02*
X118947857Y-113422857D01*
X119019285Y-113565714D01*
X119090714Y-113637142D01*
X119233571Y-113708571D01*
X119519285Y-113708571D01*
X119662142Y-113637142D01*
X119733571Y-113565714D01*
X119805000Y-113422857D01*
X119805000Y-112208571D01*
X120519285Y-113708571D02*
X120519285Y-112208571D01*
X121233571Y-113708571D02*
X121233571Y-112208571D01*
X122090714Y-113708571D01*
X122090714Y-112208571D01*
X123090714Y-112208571D02*
X123376428Y-112208571D01*
X123519285Y-112280000D01*
X123662142Y-112422857D01*
X123733571Y-112708571D01*
X123733571Y-113208571D01*
X123662142Y-113494285D01*
X123519285Y-113637142D01*
X123376428Y-113708571D01*
X123090714Y-113708571D01*
X122947857Y-113637142D01*
X122805000Y-113494285D01*
X122733571Y-113208571D01*
X122733571Y-112708571D01*
X122805000Y-112422857D01*
X122947857Y-112280000D01*
X123090714Y-112208571D01*
X125519285Y-112208571D02*
X125519285Y-113422857D01*
X125590714Y-113565714D01*
X125662142Y-113637142D01*
X125805000Y-113708571D01*
X126090714Y-113708571D01*
X126233571Y-113637142D01*
X126305000Y-113565714D01*
X126376428Y-113422857D01*
X126376428Y-112208571D01*
X127019285Y-113637142D02*
X127233571Y-113708571D01*
X127590714Y-113708571D01*
X127733571Y-113637142D01*
X127805000Y-113565714D01*
X127876428Y-113422857D01*
X127876428Y-113280000D01*
X127805000Y-113137142D01*
X127733571Y-113065714D01*
X127590714Y-112994285D01*
X127305000Y-112922857D01*
X127162142Y-112851428D01*
X127090714Y-112780000D01*
X127019285Y-112637142D01*
X127019285Y-112494285D01*
X127090714Y-112351428D01*
X127162142Y-112280000D01*
X127305000Y-112208571D01*
X127662142Y-112208571D01*
X127876428Y-112280000D01*
X129019285Y-112922857D02*
X129233571Y-112994285D01*
X129305000Y-113065714D01*
X129376428Y-113208571D01*
X129376428Y-113422857D01*
X129305000Y-113565714D01*
X129233571Y-113637142D01*
X129090714Y-113708571D01*
X128519285Y-113708571D01*
X128519285Y-112208571D01*
X129019285Y-112208571D01*
X129162142Y-112280000D01*
X129233571Y-112351428D01*
X129305000Y-112494285D01*
X129305000Y-112637142D01*
X129233571Y-112780000D01*
X129162142Y-112851428D01*
X129019285Y-112922857D01*
X128519285Y-112922857D01*
D11*
X113084428Y-58674000D02*
X113011857Y-58637714D01*
X112903000Y-58637714D01*
X112794142Y-58674000D01*
X112721571Y-58746571D01*
X112685285Y-58819142D01*
X112649000Y-58964285D01*
X112649000Y-59073142D01*
X112685285Y-59218285D01*
X112721571Y-59290857D01*
X112794142Y-59363428D01*
X112903000Y-59399714D01*
X112975571Y-59399714D01*
X113084428Y-59363428D01*
X113120714Y-59327142D01*
X113120714Y-59073142D01*
X112975571Y-59073142D01*
X113447285Y-59399714D02*
X113447285Y-58637714D01*
X113882714Y-59399714D01*
X113882714Y-58637714D01*
X114245571Y-59399714D02*
X114245571Y-58637714D01*
X114427000Y-58637714D01*
X114535857Y-58674000D01*
X114608428Y-58746571D01*
X114644714Y-58819142D01*
X114681000Y-58964285D01*
X114681000Y-59073142D01*
X114644714Y-59218285D01*
X114608428Y-59290857D01*
X114535857Y-59363428D01*
X114427000Y-59399714D01*
X114245571Y-59399714D01*
X128524000Y-133930571D02*
X128487714Y-134003142D01*
X128487714Y-134112000D01*
X128524000Y-134220857D01*
X128596571Y-134293428D01*
X128669142Y-134329714D01*
X128814285Y-134366000D01*
X128923142Y-134366000D01*
X129068285Y-134329714D01*
X129140857Y-134293428D01*
X129213428Y-134220857D01*
X129249714Y-134112000D01*
X129249714Y-134039428D01*
X129213428Y-133930571D01*
X129177142Y-133894285D01*
X128923142Y-133894285D01*
X128923142Y-134039428D01*
X129249714Y-133567714D02*
X128487714Y-133567714D01*
X129249714Y-133132285D01*
X128487714Y-133132285D01*
X129249714Y-132769428D02*
X128487714Y-132769428D01*
X128487714Y-132588000D01*
X128524000Y-132479142D01*
X128596571Y-132406571D01*
X128669142Y-132370285D01*
X128814285Y-132334000D01*
X128923142Y-132334000D01*
X129068285Y-132370285D01*
X129140857Y-132406571D01*
X129213428Y-132479142D01*
X129249714Y-132588000D01*
X129249714Y-132769428D01*
X99749428Y-67564000D02*
X99676857Y-67527714D01*
X99568000Y-67527714D01*
X99459142Y-67564000D01*
X99386571Y-67636571D01*
X99350285Y-67709142D01*
X99314000Y-67854285D01*
X99314000Y-67963142D01*
X99350285Y-68108285D01*
X99386571Y-68180857D01*
X99459142Y-68253428D01*
X99568000Y-68289714D01*
X99640571Y-68289714D01*
X99749428Y-68253428D01*
X99785714Y-68217142D01*
X99785714Y-67963142D01*
X99640571Y-67963142D01*
X100112285Y-68289714D02*
X100112285Y-67527714D01*
X100547714Y-68289714D01*
X100547714Y-67527714D01*
X100910571Y-68289714D02*
X100910571Y-67527714D01*
X101092000Y-67527714D01*
X101200857Y-67564000D01*
X101273428Y-67636571D01*
X101309714Y-67709142D01*
X101346000Y-67854285D01*
X101346000Y-67963142D01*
X101309714Y-68108285D01*
X101273428Y-68180857D01*
X101200857Y-68253428D01*
X101092000Y-68289714D01*
X100910571Y-68289714D01*
D10*
X187896666Y-127087380D02*
X188134761Y-128087380D01*
X188325238Y-127373095D01*
X188515714Y-128087380D01*
X188753809Y-127087380D01*
X189134761Y-128087380D02*
X189134761Y-127087380D01*
X189134761Y-127563571D02*
X189706190Y-127563571D01*
X189706190Y-128087380D02*
X189706190Y-127087380D01*
X190039523Y-127087380D02*
X190610952Y-127087380D01*
X190325238Y-128087380D02*
X190325238Y-127087380D01*
X188468095Y-122055000D02*
X188372857Y-122007380D01*
X188230000Y-122007380D01*
X188087142Y-122055000D01*
X187991904Y-122150238D01*
X187944285Y-122245476D01*
X187896666Y-122435952D01*
X187896666Y-122578809D01*
X187944285Y-122769285D01*
X187991904Y-122864523D01*
X188087142Y-122959761D01*
X188230000Y-123007380D01*
X188325238Y-123007380D01*
X188468095Y-122959761D01*
X188515714Y-122912142D01*
X188515714Y-122578809D01*
X188325238Y-122578809D01*
X189515714Y-123007380D02*
X189182380Y-122531190D01*
X188944285Y-123007380D02*
X188944285Y-122007380D01*
X189325238Y-122007380D01*
X189420476Y-122055000D01*
X189468095Y-122102619D01*
X189515714Y-122197857D01*
X189515714Y-122340714D01*
X189468095Y-122435952D01*
X189420476Y-122483571D01*
X189325238Y-122531190D01*
X188944285Y-122531190D01*
X189944285Y-123007380D02*
X189944285Y-122007380D01*
X190515714Y-123007380D01*
X190515714Y-122007380D01*
X188372857Y-117451190D02*
X188372857Y-117927380D01*
X188039523Y-116927380D02*
X188372857Y-117451190D01*
X188706190Y-116927380D01*
X189039523Y-117403571D02*
X189372857Y-117403571D01*
X189515714Y-117927380D02*
X189039523Y-117927380D01*
X189039523Y-116927380D01*
X189515714Y-116927380D01*
X190420476Y-117927380D02*
X189944285Y-117927380D01*
X189944285Y-116927380D01*
X188587142Y-112847380D02*
X188253809Y-112371190D01*
X188015714Y-112847380D02*
X188015714Y-111847380D01*
X188396666Y-111847380D01*
X188491904Y-111895000D01*
X188539523Y-111942619D01*
X188587142Y-112037857D01*
X188587142Y-112180714D01*
X188539523Y-112275952D01*
X188491904Y-112323571D01*
X188396666Y-112371190D01*
X188015714Y-112371190D01*
X189015714Y-112323571D02*
X189349047Y-112323571D01*
X189491904Y-112847380D02*
X189015714Y-112847380D01*
X189015714Y-111847380D01*
X189491904Y-111847380D01*
X189920476Y-112847380D02*
X189920476Y-111847380D01*
X190158571Y-111847380D01*
X190301428Y-111895000D01*
X190396666Y-111990238D01*
X190444285Y-112085476D01*
X190491904Y-112275952D01*
X190491904Y-112418809D01*
X190444285Y-112609285D01*
X190396666Y-112704523D01*
X190301428Y-112799761D01*
X190158571Y-112847380D01*
X189920476Y-112847380D01*
X188396666Y-107243571D02*
X188539523Y-107291190D01*
X188587142Y-107338809D01*
X188634761Y-107434047D01*
X188634761Y-107576904D01*
X188587142Y-107672142D01*
X188539523Y-107719761D01*
X188444285Y-107767380D01*
X188063333Y-107767380D01*
X188063333Y-106767380D01*
X188396666Y-106767380D01*
X188491904Y-106815000D01*
X188539523Y-106862619D01*
X188587142Y-106957857D01*
X188587142Y-107053095D01*
X188539523Y-107148333D01*
X188491904Y-107195952D01*
X188396666Y-107243571D01*
X188063333Y-107243571D01*
X189539523Y-107767380D02*
X189063333Y-107767380D01*
X189063333Y-106767380D01*
X189872857Y-107767380D02*
X189872857Y-106767380D01*
X190444285Y-107767380D02*
X190015714Y-107195952D01*
X190444285Y-106767380D02*
X189872857Y-107338809D01*
D14*
G36*
X206375000Y-122555000D02*
G01*
X198120000Y-122555000D01*
X198120000Y-93980000D01*
X206375000Y-93980000D01*
X206375000Y-122555000D01*
G37*
X206375000Y-122555000D02*
X198120000Y-122555000D01*
X198120000Y-93980000D01*
X206375000Y-93980000D01*
X206375000Y-122555000D01*
D13*
X201333571Y-90807857D02*
X199833571Y-90807857D01*
X199833571Y-90450714D01*
X199905000Y-90236428D01*
X200047857Y-90093571D01*
X200190714Y-90022142D01*
X200476428Y-89950714D01*
X200690714Y-89950714D01*
X200976428Y-90022142D01*
X201119285Y-90093571D01*
X201262142Y-90236428D01*
X201333571Y-90450714D01*
X201333571Y-90807857D01*
X201262142Y-89379285D02*
X201333571Y-89165000D01*
X201333571Y-88807857D01*
X201262142Y-88665000D01*
X201190714Y-88593571D01*
X201047857Y-88522142D01*
X200905000Y-88522142D01*
X200762142Y-88593571D01*
X200690714Y-88665000D01*
X200619285Y-88807857D01*
X200547857Y-89093571D01*
X200476428Y-89236428D01*
X200405000Y-89307857D01*
X200262142Y-89379285D01*
X200119285Y-89379285D01*
X199976428Y-89307857D01*
X199905000Y-89236428D01*
X199833571Y-89093571D01*
X199833571Y-88736428D01*
X199905000Y-88522142D01*
X200905000Y-87950714D02*
X200905000Y-87236428D01*
X201333571Y-88093571D02*
X199833571Y-87593571D01*
X201333571Y-87093571D01*
X201333571Y-85450714D02*
X199833571Y-85450714D01*
X200905000Y-84950714D01*
X199833571Y-84450714D01*
X201333571Y-84450714D01*
X201333571Y-83736428D02*
X199833571Y-83736428D01*
X201333571Y-82879285D02*
X200476428Y-83522142D01*
X199833571Y-82879285D02*
X200690714Y-83736428D01*
X199833571Y-82450714D02*
X201333571Y-81950714D01*
X199833571Y-81450714D01*
X201333571Y-80950714D02*
X199833571Y-80950714D01*
X201333571Y-78236428D02*
X200619285Y-78736428D01*
X201333571Y-79093571D02*
X199833571Y-79093571D01*
X199833571Y-78522142D01*
X199905000Y-78379285D01*
X199976428Y-78307857D01*
X200119285Y-78236428D01*
X200333571Y-78236428D01*
X200476428Y-78307857D01*
X200547857Y-78379285D01*
X200619285Y-78522142D01*
X200619285Y-79093571D01*
X200547857Y-77593571D02*
X200547857Y-77093571D01*
X201333571Y-76879285D02*
X201333571Y-77593571D01*
X199833571Y-77593571D01*
X199833571Y-76879285D01*
X199833571Y-76450714D02*
X201333571Y-75950714D01*
X199833571Y-75450714D01*
X201190714Y-72950714D02*
X201262142Y-73022142D01*
X201333571Y-73236428D01*
X201333571Y-73379285D01*
X201262142Y-73593571D01*
X201119285Y-73736428D01*
X200976428Y-73807857D01*
X200690714Y-73879285D01*
X200476428Y-73879285D01*
X200190714Y-73807857D01*
X200047857Y-73736428D01*
X199905000Y-73593571D01*
X199833571Y-73379285D01*
X199833571Y-73236428D01*
X199905000Y-73022142D01*
X199976428Y-72950714D01*
X203883571Y-88772142D02*
X202383571Y-88772142D01*
X203455000Y-88272142D01*
X202383571Y-87772142D01*
X203883571Y-87772142D01*
X203455000Y-87129285D02*
X203455000Y-86415000D01*
X203883571Y-87272142D02*
X202383571Y-86772142D01*
X203883571Y-86272142D01*
X203883571Y-84915000D02*
X203169285Y-85415000D01*
X203883571Y-85772142D02*
X202383571Y-85772142D01*
X202383571Y-85200714D01*
X202455000Y-85057857D01*
X202526428Y-84986428D01*
X202669285Y-84915000D01*
X202883571Y-84915000D01*
X203026428Y-84986428D01*
X203097857Y-85057857D01*
X203169285Y-85200714D01*
X203169285Y-85772142D01*
X203740714Y-83415000D02*
X203812142Y-83486428D01*
X203883571Y-83700714D01*
X203883571Y-83843571D01*
X203812142Y-84057857D01*
X203669285Y-84200714D01*
X203526428Y-84272142D01*
X203240714Y-84343571D01*
X203026428Y-84343571D01*
X202740714Y-84272142D01*
X202597857Y-84200714D01*
X202455000Y-84057857D01*
X202383571Y-83843571D01*
X202383571Y-83700714D01*
X202455000Y-83486428D01*
X202526428Y-83415000D01*
X203883571Y-82772142D02*
X202383571Y-82772142D01*
X203097857Y-82772142D02*
X203097857Y-81915000D01*
X203883571Y-81915000D02*
X202383571Y-81915000D01*
X202526428Y-80129285D02*
X202455000Y-80057857D01*
X202383571Y-79915000D01*
X202383571Y-79557857D01*
X202455000Y-79415000D01*
X202526428Y-79343571D01*
X202669285Y-79272142D01*
X202812142Y-79272142D01*
X203026428Y-79343571D01*
X203883571Y-80200714D01*
X203883571Y-79272142D01*
X202383571Y-78343571D02*
X202383571Y-78200714D01*
X202455000Y-78057857D01*
X202526428Y-77986428D01*
X202669285Y-77915000D01*
X202955000Y-77843571D01*
X203312142Y-77843571D01*
X203597857Y-77915000D01*
X203740714Y-77986428D01*
X203812142Y-78057857D01*
X203883571Y-78200714D01*
X203883571Y-78343571D01*
X203812142Y-78486428D01*
X203740714Y-78557857D01*
X203597857Y-78629285D01*
X203312142Y-78700714D01*
X202955000Y-78700714D01*
X202669285Y-78629285D01*
X202526428Y-78557857D01*
X202455000Y-78486428D01*
X202383571Y-78343571D01*
X202526428Y-77272142D02*
X202455000Y-77200714D01*
X202383571Y-77057857D01*
X202383571Y-76700714D01*
X202455000Y-76557857D01*
X202526428Y-76486428D01*
X202669285Y-76415000D01*
X202812142Y-76415000D01*
X203026428Y-76486428D01*
X203883571Y-77343571D01*
X203883571Y-76415000D01*
X203883571Y-74986428D02*
X203883571Y-75843571D01*
X203883571Y-75415000D02*
X202383571Y-75415000D01*
X202597857Y-75557857D01*
X202740714Y-75700714D01*
X202812142Y-75843571D01*
D15*
X118685000Y-107045000D02*
X118685000Y-108695000D01*
X118685000Y-108695000D02*
X154365000Y-108695000D01*
X154365000Y-108695000D02*
X154365000Y-103395000D01*
X154365000Y-103395000D02*
X118685000Y-103395000D01*
X118685000Y-103395000D02*
X118685000Y-105045000D01*
X118685000Y-105045000D02*
G75*
G02*
X118685000Y-107045000I0J-1000000D01*
G01*
X109160000Y-94615000D02*
X111820000Y-94615000D01*
X109160000Y-94615000D02*
X109160000Y-99755000D01*
X109160000Y-99755000D02*
X111820000Y-99755000D01*
X111820000Y-94615000D02*
X111820000Y-99755000D01*
X111820000Y-92015000D02*
X111820000Y-93345000D01*
X110490000Y-92015000D02*
X111820000Y-92015000D01*
X144240000Y-123925000D02*
X144240000Y-123595000D01*
X137700000Y-123925000D02*
X144240000Y-123925000D01*
X137700000Y-123595000D02*
X137700000Y-123925000D01*
X144240000Y-121185000D02*
X144240000Y-121515000D01*
X137700000Y-121185000D02*
X144240000Y-121185000D01*
X137700000Y-121515000D02*
X137700000Y-121185000D01*
X146625000Y-61535000D02*
X147955000Y-61535000D01*
X146625000Y-62865000D02*
X146625000Y-61535000D01*
X146625000Y-64135000D02*
X149285000Y-64135000D01*
X149285000Y-64135000D02*
X149285000Y-71815000D01*
X146625000Y-64135000D02*
X146625000Y-71815000D01*
X146625000Y-71815000D02*
X149285000Y-71815000D01*
X123130000Y-61535000D02*
X124460000Y-61535000D01*
X123130000Y-62865000D02*
X123130000Y-61535000D01*
X123130000Y-64135000D02*
X125790000Y-64135000D01*
X125790000Y-64135000D02*
X125790000Y-71815000D01*
X123130000Y-64135000D02*
X123130000Y-71815000D01*
X123130000Y-71815000D02*
X125790000Y-71815000D01*
X111890000Y-103335000D02*
X109090000Y-103335000D01*
X109090000Y-103335000D02*
X109090000Y-118915000D01*
X109090000Y-118915000D02*
X111890000Y-118915000D01*
X111890000Y-118915000D02*
X111890000Y-103335000D01*
X111890000Y-106045000D02*
X109090000Y-106045000D01*
X114310000Y-71745000D02*
X114310000Y-62405000D01*
X134610000Y-71745000D02*
X114310000Y-71745000D01*
X134610000Y-61605000D02*
X134610000Y-71745000D01*
X115110000Y-61605000D02*
X134610000Y-61605000D01*
X114310000Y-62405000D02*
X115110000Y-61605000D01*
X192305000Y-124555000D02*
X192635000Y-124555000D01*
X192305000Y-118015000D02*
X192305000Y-124555000D01*
X192635000Y-118015000D02*
X192305000Y-118015000D01*
X195045000Y-124555000D02*
X194715000Y-124555000D01*
X195045000Y-118015000D02*
X195045000Y-124555000D01*
X194715000Y-118015000D02*
X195045000Y-118015000D01*
X132715000Y-87760000D02*
X132715000Y-84960000D01*
X112225000Y-87760000D02*
X135425000Y-87760000D01*
X112225000Y-84960000D02*
X112225000Y-87760000D01*
X135425000Y-84960000D02*
X112225000Y-84960000D01*
X135425000Y-87760000D02*
X135425000Y-84960000D01*
X133620000Y-92610000D02*
X133620000Y-95350000D01*
X125380000Y-92610000D02*
X125380000Y-95350000D01*
X125380000Y-95350000D02*
X133620000Y-95350000D01*
X125380000Y-92610000D02*
X133620000Y-92610000D01*
X168255000Y-116830000D02*
G75*
G03*
X168255000Y-116830000I-7600000J0D01*
G01*
X176710000Y-104475000D02*
X176710000Y-104975000D01*
X177450000Y-104475000D02*
X176710000Y-104475000D01*
X180587000Y-136568000D02*
X180541000Y-136521000D01*
X182885000Y-138865000D02*
X182849000Y-138830000D01*
X180371000Y-136761000D02*
X180336000Y-136726000D01*
X182679000Y-139070000D02*
X182633000Y-139023000D01*
X180587000Y-131488000D02*
X180541000Y-131441000D01*
X182885000Y-133785000D02*
X182849000Y-133750000D01*
X180371000Y-131681000D02*
X180336000Y-131646000D01*
X182679000Y-133990000D02*
X182633000Y-133943000D01*
X180587000Y-126408000D02*
X180541000Y-126361000D01*
X182885000Y-128705000D02*
X182849000Y-128670000D01*
X180371000Y-126601000D02*
X180336000Y-126566000D01*
X182679000Y-128910000D02*
X182633000Y-128863000D01*
X180587000Y-121328000D02*
X180541000Y-121281000D01*
X182885000Y-123625000D02*
X182849000Y-123590000D01*
X180371000Y-121521000D02*
X180336000Y-121486000D01*
X182679000Y-123830000D02*
X182633000Y-123783000D01*
X180587000Y-116248000D02*
X180541000Y-116201000D01*
X182885000Y-118545000D02*
X182849000Y-118510000D01*
X180371000Y-116441000D02*
X180336000Y-116406000D01*
X182679000Y-118750000D02*
X182633000Y-118703000D01*
X180587000Y-111168000D02*
X180541000Y-111121000D01*
X182885000Y-113465000D02*
X182849000Y-113430000D01*
X180371000Y-111361000D02*
X180336000Y-111326000D01*
X182679000Y-113670000D02*
X182633000Y-113623000D01*
X186871000Y-140395000D02*
X176950000Y-140395000D01*
X186871000Y-104715000D02*
X176950000Y-104715000D01*
X176950000Y-104715000D02*
X176950000Y-140395000D01*
X186871000Y-104715000D02*
X186871000Y-140395000D01*
X183911000Y-104715000D02*
X183911000Y-140395000D01*
X179010000Y-104715000D02*
X179010000Y-140395000D01*
X177510000Y-104715000D02*
X177510000Y-140395000D01*
X183290000Y-137795000D02*
G75*
G03*
X183290000Y-137795000I-1680000J0D01*
G01*
X183290000Y-132715000D02*
G75*
G03*
X183290000Y-132715000I-1680000J0D01*
G01*
X183290000Y-127635000D02*
G75*
G03*
X183290000Y-127635000I-1680000J0D01*
G01*
X183290000Y-122555000D02*
G75*
G03*
X183290000Y-122555000I-1680000J0D01*
G01*
X183290000Y-117475000D02*
G75*
G03*
X183290000Y-117475000I-1680000J0D01*
G01*
X183290000Y-112395000D02*
G75*
G03*
X183290000Y-112395000I-1680000J0D01*
G01*
X179929747Y-107343805D02*
G75*
G02*
X180075000Y-106631000I1680253J28805D01*
G01*
X180926958Y-105779574D02*
G75*
G02*
X182294000Y-105780000I683042J-1535426D01*
G01*
X183145426Y-106631958D02*
G75*
G02*
X183145000Y-107999000I-1535426J-683042D01*
G01*
X182293042Y-108850426D02*
G75*
G02*
X180926000Y-108850000I-683042J1535426D01*
G01*
X180075244Y-107998318D02*
G75*
G02*
X179930000Y-107315000I1534756J683318D01*
G01*
X126905000Y-97055000D02*
X126905000Y-97385000D01*
X133445000Y-97055000D02*
X126905000Y-97055000D01*
X133445000Y-97385000D02*
X133445000Y-97055000D01*
X126905000Y-99795000D02*
X126905000Y-99465000D01*
X133445000Y-99795000D02*
X126905000Y-99795000D01*
X133445000Y-99465000D02*
X133445000Y-99795000D01*
X150495000Y-87760000D02*
X150495000Y-84960000D01*
X137625000Y-87760000D02*
X153205000Y-87760000D01*
X137625000Y-84960000D02*
X137625000Y-87760000D01*
X153205000Y-84960000D02*
X137625000Y-84960000D01*
X153205000Y-87760000D02*
X153205000Y-84960000D01*
X114935000Y-79880000D02*
X114935000Y-82680000D01*
X135425000Y-79880000D02*
X112225000Y-79880000D01*
X135425000Y-82680000D02*
X135425000Y-79880000D01*
X112225000Y-82680000D02*
X135425000Y-82680000D01*
X112225000Y-79880000D02*
X112225000Y-82680000D01*
X171300000Y-109605000D02*
X169060000Y-109605000D01*
X171300000Y-109845000D02*
X169060000Y-109845000D01*
X171300000Y-109725000D02*
X169060000Y-109725000D01*
X170180000Y-113895000D02*
X170180000Y-113245000D01*
X170180000Y-108355000D02*
X170180000Y-109005000D01*
X171300000Y-113245000D02*
X171300000Y-109005000D01*
X169060000Y-113245000D02*
X171300000Y-113245000D01*
X169060000Y-109005000D02*
X169060000Y-113245000D01*
X171300000Y-109005000D02*
X169060000Y-109005000D01*
X175110000Y-109605000D02*
X172870000Y-109605000D01*
X175110000Y-109845000D02*
X172870000Y-109845000D01*
X175110000Y-109725000D02*
X172870000Y-109725000D01*
X173990000Y-113895000D02*
X173990000Y-113245000D01*
X173990000Y-108355000D02*
X173990000Y-109005000D01*
X175110000Y-113245000D02*
X175110000Y-109005000D01*
X172870000Y-113245000D02*
X175110000Y-113245000D01*
X172870000Y-109005000D02*
X172870000Y-113245000D01*
X175110000Y-109005000D02*
X172870000Y-109005000D01*
X114030000Y-120750000D02*
X114030000Y-118010000D01*
X122270000Y-120750000D02*
X122270000Y-118010000D01*
X122270000Y-118010000D02*
X114030000Y-118010000D01*
X122270000Y-120750000D02*
X114030000Y-120750000D01*
X134890000Y-55780000D02*
X134890000Y-58520000D01*
X126650000Y-55780000D02*
X126650000Y-58520000D01*
X126650000Y-58520000D02*
X134890000Y-58520000D01*
X126650000Y-55780000D02*
X134890000Y-55780000D01*
X125155000Y-136585000D02*
X123825000Y-136585000D01*
X125155000Y-135255000D02*
X125155000Y-136585000D01*
X125155000Y-133985000D02*
X122495000Y-133985000D01*
X122495000Y-133985000D02*
X122495000Y-128845000D01*
X125155000Y-133985000D02*
X125155000Y-128845000D01*
X125155000Y-128845000D02*
X122495000Y-128845000D01*
X111065000Y-136585000D02*
X111065000Y-135255000D01*
X112395000Y-136585000D02*
X111065000Y-136585000D01*
X113665000Y-136585000D02*
X113665000Y-133925000D01*
X113665000Y-133925000D02*
X118805000Y-133925000D01*
X113665000Y-136585000D02*
X118805000Y-136585000D01*
X118805000Y-136585000D02*
X118805000Y-133925000D01*
X111065000Y-122495000D02*
X112395000Y-122495000D01*
X111065000Y-123825000D02*
X111065000Y-122495000D01*
X111065000Y-125095000D02*
X113725000Y-125095000D01*
X113725000Y-125095000D02*
X113725000Y-130235000D01*
X111065000Y-125095000D02*
X111065000Y-130235000D01*
X111065000Y-130235000D02*
X113725000Y-130235000D01*
X125155000Y-122495000D02*
X125155000Y-123825000D01*
X123825000Y-122495000D02*
X125155000Y-122495000D01*
X122555000Y-122495000D02*
X122555000Y-125155000D01*
X122555000Y-125155000D02*
X117415000Y-125155000D01*
X122555000Y-122495000D02*
X117415000Y-122495000D01*
X117415000Y-122495000D02*
X117415000Y-125155000D01*
X137220000Y-134680000D02*
X135890000Y-134680000D01*
X137220000Y-133350000D02*
X137220000Y-134680000D01*
X137220000Y-132080000D02*
X134560000Y-132080000D01*
X134560000Y-132080000D02*
X134560000Y-126940000D01*
X137220000Y-132080000D02*
X137220000Y-126940000D01*
X137220000Y-126940000D02*
X134560000Y-126940000D01*
X132775000Y-134680000D02*
X131445000Y-134680000D01*
X132775000Y-133350000D02*
X132775000Y-134680000D01*
X132775000Y-132080000D02*
X130115000Y-132080000D01*
X130115000Y-132080000D02*
X130115000Y-126940000D01*
X132775000Y-132080000D02*
X132775000Y-126940000D01*
X132775000Y-126940000D02*
X130115000Y-126940000D01*
X99000000Y-62290000D02*
X99000000Y-60960000D01*
X100330000Y-62290000D02*
X99000000Y-62290000D01*
X101600000Y-62290000D02*
X101600000Y-59630000D01*
X101600000Y-59630000D02*
X106740000Y-59630000D01*
X101600000Y-62290000D02*
X106740000Y-62290000D01*
X106740000Y-62290000D02*
X106740000Y-59630000D01*
X99000000Y-57845000D02*
X99000000Y-56515000D01*
X100330000Y-57845000D02*
X99000000Y-57845000D01*
X101600000Y-57845000D02*
X101600000Y-55185000D01*
X101600000Y-55185000D02*
X106740000Y-55185000D01*
X101600000Y-57845000D02*
X106740000Y-57845000D01*
X106740000Y-57845000D02*
X106740000Y-55185000D01*
X143260000Y-115750000D02*
X138760000Y-115750000D01*
X143260000Y-112850000D02*
X138760000Y-112850000D01*
X143260000Y-112850000D02*
G75*
G02*
X143260000Y-115750000I0J-1450000D01*
G01*
X138760000Y-112850000D02*
G75*
G03*
X138760000Y-115750000I0J-1450000D01*
G01*
X144720000Y-132445000D02*
X144720000Y-134095000D01*
X144720000Y-134095000D02*
X165160000Y-134095000D01*
X165160000Y-134095000D02*
X165160000Y-128795000D01*
X165160000Y-128795000D02*
X144720000Y-128795000D01*
X144720000Y-128795000D02*
X144720000Y-130445000D01*
X144720000Y-130445000D02*
G75*
G02*
X144720000Y-132445000I0J-1000000D01*
G01*
X137805000Y-71745000D02*
X137805000Y-62405000D01*
X158105000Y-71745000D02*
X137805000Y-71745000D01*
X158105000Y-61605000D02*
X158105000Y-71745000D01*
X138605000Y-61605000D02*
X158105000Y-61605000D01*
X137805000Y-62405000D02*
X138605000Y-61605000D01*
X175355000Y-130790000D02*
G75*
G03*
X175355000Y-130790000I-3270000J0D01*
G01*
X175315000Y-130790000D02*
X168855000Y-130790000D01*
X175315000Y-130830000D02*
X168855000Y-130830000D01*
X175315000Y-130870000D02*
X168855000Y-130870000D01*
X175313000Y-130910000D02*
X168857000Y-130910000D01*
X175312000Y-130950000D02*
X168858000Y-130950000D01*
X175309000Y-130990000D02*
X168861000Y-130990000D01*
X175307000Y-131030000D02*
X173125000Y-131030000D01*
X171045000Y-131030000D02*
X168863000Y-131030000D01*
X175303000Y-131070000D02*
X173125000Y-131070000D01*
X171045000Y-131070000D02*
X168867000Y-131070000D01*
X175300000Y-131110000D02*
X173125000Y-131110000D01*
X171045000Y-131110000D02*
X168870000Y-131110000D01*
X175296000Y-131150000D02*
X173125000Y-131150000D01*
X171045000Y-131150000D02*
X168874000Y-131150000D01*
X175291000Y-131190000D02*
X173125000Y-131190000D01*
X171045000Y-131190000D02*
X168879000Y-131190000D01*
X175286000Y-131230000D02*
X173125000Y-131230000D01*
X171045000Y-131230000D02*
X168884000Y-131230000D01*
X175280000Y-131270000D02*
X173125000Y-131270000D01*
X171045000Y-131270000D02*
X168890000Y-131270000D01*
X175274000Y-131310000D02*
X173125000Y-131310000D01*
X171045000Y-131310000D02*
X168896000Y-131310000D01*
X175267000Y-131350000D02*
X173125000Y-131350000D01*
X171045000Y-131350000D02*
X168903000Y-131350000D01*
X175260000Y-131390000D02*
X173125000Y-131390000D01*
X171045000Y-131390000D02*
X168910000Y-131390000D01*
X175252000Y-131430000D02*
X173125000Y-131430000D01*
X171045000Y-131430000D02*
X168918000Y-131430000D01*
X175244000Y-131470000D02*
X173125000Y-131470000D01*
X171045000Y-131470000D02*
X168926000Y-131470000D01*
X175235000Y-131511000D02*
X173125000Y-131511000D01*
X171045000Y-131511000D02*
X168935000Y-131511000D01*
X175226000Y-131551000D02*
X173125000Y-131551000D01*
X171045000Y-131551000D02*
X168944000Y-131551000D01*
X175216000Y-131591000D02*
X173125000Y-131591000D01*
X171045000Y-131591000D02*
X168954000Y-131591000D01*
X175206000Y-131631000D02*
X173125000Y-131631000D01*
X171045000Y-131631000D02*
X168964000Y-131631000D01*
X175195000Y-131671000D02*
X173125000Y-131671000D01*
X171045000Y-131671000D02*
X168975000Y-131671000D01*
X175183000Y-131711000D02*
X173125000Y-131711000D01*
X171045000Y-131711000D02*
X168987000Y-131711000D01*
X175171000Y-131751000D02*
X173125000Y-131751000D01*
X171045000Y-131751000D02*
X168999000Y-131751000D01*
X175159000Y-131791000D02*
X173125000Y-131791000D01*
X171045000Y-131791000D02*
X169011000Y-131791000D01*
X175146000Y-131831000D02*
X173125000Y-131831000D01*
X171045000Y-131831000D02*
X169024000Y-131831000D01*
X175132000Y-131871000D02*
X173125000Y-131871000D01*
X171045000Y-131871000D02*
X169038000Y-131871000D01*
X175118000Y-131911000D02*
X173125000Y-131911000D01*
X171045000Y-131911000D02*
X169052000Y-131911000D01*
X175103000Y-131951000D02*
X173125000Y-131951000D01*
X171045000Y-131951000D02*
X169067000Y-131951000D01*
X175087000Y-131991000D02*
X173125000Y-131991000D01*
X171045000Y-131991000D02*
X169083000Y-131991000D01*
X175071000Y-132031000D02*
X173125000Y-132031000D01*
X171045000Y-132031000D02*
X169099000Y-132031000D01*
X175055000Y-132071000D02*
X173125000Y-132071000D01*
X171045000Y-132071000D02*
X169115000Y-132071000D01*
X175037000Y-132111000D02*
X173125000Y-132111000D01*
X171045000Y-132111000D02*
X169133000Y-132111000D01*
X175019000Y-132151000D02*
X173125000Y-132151000D01*
X171045000Y-132151000D02*
X169151000Y-132151000D01*
X175001000Y-132191000D02*
X173125000Y-132191000D01*
X171045000Y-132191000D02*
X169169000Y-132191000D01*
X174981000Y-132231000D02*
X173125000Y-132231000D01*
X171045000Y-132231000D02*
X169189000Y-132231000D01*
X174961000Y-132271000D02*
X173125000Y-132271000D01*
X171045000Y-132271000D02*
X169209000Y-132271000D01*
X174941000Y-132311000D02*
X173125000Y-132311000D01*
X171045000Y-132311000D02*
X169229000Y-132311000D01*
X174919000Y-132351000D02*
X173125000Y-132351000D01*
X171045000Y-132351000D02*
X169251000Y-132351000D01*
X174897000Y-132391000D02*
X173125000Y-132391000D01*
X171045000Y-132391000D02*
X169273000Y-132391000D01*
X174875000Y-132431000D02*
X173125000Y-132431000D01*
X171045000Y-132431000D02*
X169295000Y-132431000D01*
X174851000Y-132471000D02*
X173125000Y-132471000D01*
X171045000Y-132471000D02*
X169319000Y-132471000D01*
X174827000Y-132511000D02*
X173125000Y-132511000D01*
X171045000Y-132511000D02*
X169343000Y-132511000D01*
X174801000Y-132551000D02*
X173125000Y-132551000D01*
X171045000Y-132551000D02*
X169369000Y-132551000D01*
X174775000Y-132591000D02*
X173125000Y-132591000D01*
X171045000Y-132591000D02*
X169395000Y-132591000D01*
X174749000Y-132631000D02*
X173125000Y-132631000D01*
X171045000Y-132631000D02*
X169421000Y-132631000D01*
X174721000Y-132671000D02*
X173125000Y-132671000D01*
X171045000Y-132671000D02*
X169449000Y-132671000D01*
X174692000Y-132711000D02*
X173125000Y-132711000D01*
X171045000Y-132711000D02*
X169478000Y-132711000D01*
X174663000Y-132751000D02*
X173125000Y-132751000D01*
X171045000Y-132751000D02*
X169507000Y-132751000D01*
X174633000Y-132791000D02*
X173125000Y-132791000D01*
X171045000Y-132791000D02*
X169537000Y-132791000D01*
X174601000Y-132831000D02*
X173125000Y-132831000D01*
X171045000Y-132831000D02*
X169569000Y-132831000D01*
X174569000Y-132871000D02*
X173125000Y-132871000D01*
X171045000Y-132871000D02*
X169601000Y-132871000D01*
X174535000Y-132911000D02*
X173125000Y-132911000D01*
X171045000Y-132911000D02*
X169635000Y-132911000D01*
X174501000Y-132951000D02*
X173125000Y-132951000D01*
X171045000Y-132951000D02*
X169669000Y-132951000D01*
X174465000Y-132991000D02*
X173125000Y-132991000D01*
X171045000Y-132991000D02*
X169705000Y-132991000D01*
X174428000Y-133031000D02*
X173125000Y-133031000D01*
X171045000Y-133031000D02*
X169742000Y-133031000D01*
X174390000Y-133071000D02*
X173125000Y-133071000D01*
X171045000Y-133071000D02*
X169780000Y-133071000D01*
X174350000Y-133111000D02*
X169820000Y-133111000D01*
X174309000Y-133151000D02*
X169861000Y-133151000D01*
X174267000Y-133191000D02*
X169903000Y-133191000D01*
X174222000Y-133231000D02*
X169948000Y-133231000D01*
X174177000Y-133271000D02*
X169993000Y-133271000D01*
X174129000Y-133311000D02*
X170041000Y-133311000D01*
X174080000Y-133351000D02*
X170090000Y-133351000D01*
X174029000Y-133391000D02*
X170141000Y-133391000D01*
X173975000Y-133431000D02*
X170195000Y-133431000D01*
X173919000Y-133471000D02*
X170251000Y-133471000D01*
X173861000Y-133511000D02*
X170309000Y-133511000D01*
X173799000Y-133551000D02*
X170371000Y-133551000D01*
X173735000Y-133591000D02*
X170435000Y-133591000D01*
X173666000Y-133631000D02*
X170504000Y-133631000D01*
X173594000Y-133671000D02*
X170576000Y-133671000D01*
X173517000Y-133711000D02*
X170653000Y-133711000D01*
X173435000Y-133751000D02*
X170735000Y-133751000D01*
X173347000Y-133791000D02*
X170823000Y-133791000D01*
X173250000Y-133831000D02*
X170920000Y-133831000D01*
X173144000Y-133871000D02*
X171026000Y-133871000D01*
X173025000Y-133911000D02*
X171145000Y-133911000D01*
X172887000Y-133951000D02*
X171283000Y-133951000D01*
X172718000Y-133991000D02*
X171452000Y-133991000D01*
X172487000Y-134031000D02*
X171683000Y-134031000D01*
X173924000Y-127289759D02*
X173924000Y-127919759D01*
X174239000Y-127604759D02*
X173609000Y-127604759D01*
X153435000Y-56975000D02*
X153435000Y-55475000D01*
X152185000Y-52975000D02*
X147685000Y-52975000D01*
X146435000Y-55475000D02*
X146435000Y-56975000D01*
X147685000Y-59475000D02*
X152185000Y-59475000D01*
X146900000Y-119070000D02*
X146885000Y-119070000D01*
X149025000Y-119070000D02*
X149010000Y-119070000D01*
X146900000Y-114530000D02*
X146885000Y-114530000D01*
X149025000Y-114530000D02*
X149010000Y-114530000D01*
X146885000Y-114530000D02*
X146885000Y-119070000D01*
X149025000Y-114530000D02*
X149025000Y-119070000D01*
X135055000Y-114530000D02*
X135055000Y-119070000D01*
X132915000Y-114530000D02*
X132915000Y-119070000D01*
X135055000Y-114530000D02*
X135040000Y-114530000D01*
X132930000Y-114530000D02*
X132915000Y-114530000D01*
X135055000Y-119070000D02*
X135040000Y-119070000D01*
X132930000Y-119070000D02*
X132915000Y-119070000D01*
X186095000Y-71795000D02*
G75*
G03*
X186095000Y-71795000I-5120000J0D01*
G01*
X175895000Y-71795000D02*
X186055000Y-71795000D01*
X175895000Y-71755000D02*
X186055000Y-71755000D01*
X175895000Y-71715000D02*
X186055000Y-71715000D01*
X175896000Y-71675000D02*
X186054000Y-71675000D01*
X175897000Y-71635000D02*
X186053000Y-71635000D01*
X175898000Y-71595000D02*
X186052000Y-71595000D01*
X175900000Y-71555000D02*
X186050000Y-71555000D01*
X175902000Y-71515000D02*
X186048000Y-71515000D01*
X175905000Y-71475000D02*
X186045000Y-71475000D01*
X175907000Y-71435000D02*
X186043000Y-71435000D01*
X175910000Y-71395000D02*
X186040000Y-71395000D01*
X175913000Y-71355000D02*
X186037000Y-71355000D01*
X175917000Y-71315000D02*
X186033000Y-71315000D01*
X175921000Y-71275000D02*
X186029000Y-71275000D01*
X175925000Y-71235000D02*
X186025000Y-71235000D01*
X175930000Y-71195000D02*
X186020000Y-71195000D01*
X175935000Y-71155000D02*
X186015000Y-71155000D01*
X175940000Y-71115000D02*
X186010000Y-71115000D01*
X175945000Y-71074000D02*
X186005000Y-71074000D01*
X175951000Y-71034000D02*
X185999000Y-71034000D01*
X175957000Y-70994000D02*
X185993000Y-70994000D01*
X175964000Y-70954000D02*
X185986000Y-70954000D01*
X175971000Y-70914000D02*
X185979000Y-70914000D01*
X175978000Y-70874000D02*
X185972000Y-70874000D01*
X175985000Y-70834000D02*
X185965000Y-70834000D01*
X175993000Y-70794000D02*
X185957000Y-70794000D01*
X176001000Y-70754000D02*
X185949000Y-70754000D01*
X176010000Y-70714000D02*
X185940000Y-70714000D01*
X176019000Y-70674000D02*
X185931000Y-70674000D01*
X176028000Y-70634000D02*
X185922000Y-70634000D01*
X176037000Y-70594000D02*
X185913000Y-70594000D01*
X176047000Y-70554000D02*
X185903000Y-70554000D01*
X176057000Y-70514000D02*
X179734000Y-70514000D01*
X182216000Y-70514000D02*
X185893000Y-70514000D01*
X176068000Y-70474000D02*
X179734000Y-70474000D01*
X182216000Y-70474000D02*
X185882000Y-70474000D01*
X176078000Y-70434000D02*
X179734000Y-70434000D01*
X182216000Y-70434000D02*
X185872000Y-70434000D01*
X176090000Y-70394000D02*
X179734000Y-70394000D01*
X182216000Y-70394000D02*
X185860000Y-70394000D01*
X176101000Y-70354000D02*
X179734000Y-70354000D01*
X182216000Y-70354000D02*
X185849000Y-70354000D01*
X176113000Y-70314000D02*
X179734000Y-70314000D01*
X182216000Y-70314000D02*
X185837000Y-70314000D01*
X176125000Y-70274000D02*
X179734000Y-70274000D01*
X182216000Y-70274000D02*
X185825000Y-70274000D01*
X176138000Y-70234000D02*
X179734000Y-70234000D01*
X182216000Y-70234000D02*
X185812000Y-70234000D01*
X176151000Y-70194000D02*
X179734000Y-70194000D01*
X182216000Y-70194000D02*
X185799000Y-70194000D01*
X176164000Y-70154000D02*
X179734000Y-70154000D01*
X182216000Y-70154000D02*
X185786000Y-70154000D01*
X176178000Y-70114000D02*
X179734000Y-70114000D01*
X182216000Y-70114000D02*
X185772000Y-70114000D01*
X176192000Y-70074000D02*
X179734000Y-70074000D01*
X182216000Y-70074000D02*
X185758000Y-70074000D01*
X176207000Y-70034000D02*
X179734000Y-70034000D01*
X182216000Y-70034000D02*
X185743000Y-70034000D01*
X176221000Y-69994000D02*
X179734000Y-69994000D01*
X182216000Y-69994000D02*
X185729000Y-69994000D01*
X176237000Y-69954000D02*
X179734000Y-69954000D01*
X182216000Y-69954000D02*
X185713000Y-69954000D01*
X176252000Y-69914000D02*
X179734000Y-69914000D01*
X182216000Y-69914000D02*
X185698000Y-69914000D01*
X176268000Y-69874000D02*
X179734000Y-69874000D01*
X182216000Y-69874000D02*
X185682000Y-69874000D01*
X176285000Y-69834000D02*
X179734000Y-69834000D01*
X182216000Y-69834000D02*
X185665000Y-69834000D01*
X176301000Y-69794000D02*
X179734000Y-69794000D01*
X182216000Y-69794000D02*
X185649000Y-69794000D01*
X176318000Y-69754000D02*
X179734000Y-69754000D01*
X182216000Y-69754000D02*
X185632000Y-69754000D01*
X176336000Y-69714000D02*
X179734000Y-69714000D01*
X182216000Y-69714000D02*
X185614000Y-69714000D01*
X176354000Y-69674000D02*
X179734000Y-69674000D01*
X182216000Y-69674000D02*
X185596000Y-69674000D01*
X176372000Y-69634000D02*
X179734000Y-69634000D01*
X182216000Y-69634000D02*
X185578000Y-69634000D01*
X176391000Y-69594000D02*
X179734000Y-69594000D01*
X182216000Y-69594000D02*
X185559000Y-69594000D01*
X176411000Y-69554000D02*
X179734000Y-69554000D01*
X182216000Y-69554000D02*
X185539000Y-69554000D01*
X176430000Y-69514000D02*
X179734000Y-69514000D01*
X182216000Y-69514000D02*
X185520000Y-69514000D01*
X176450000Y-69474000D02*
X179734000Y-69474000D01*
X182216000Y-69474000D02*
X185500000Y-69474000D01*
X176471000Y-69434000D02*
X179734000Y-69434000D01*
X182216000Y-69434000D02*
X185479000Y-69434000D01*
X176492000Y-69394000D02*
X179734000Y-69394000D01*
X182216000Y-69394000D02*
X185458000Y-69394000D01*
X176513000Y-69354000D02*
X179734000Y-69354000D01*
X182216000Y-69354000D02*
X185437000Y-69354000D01*
X176535000Y-69314000D02*
X179734000Y-69314000D01*
X182216000Y-69314000D02*
X185415000Y-69314000D01*
X176558000Y-69274000D02*
X179734000Y-69274000D01*
X182216000Y-69274000D02*
X185392000Y-69274000D01*
X176580000Y-69234000D02*
X179734000Y-69234000D01*
X182216000Y-69234000D02*
X185370000Y-69234000D01*
X176604000Y-69194000D02*
X179734000Y-69194000D01*
X182216000Y-69194000D02*
X185346000Y-69194000D01*
X176628000Y-69154000D02*
X179734000Y-69154000D01*
X182216000Y-69154000D02*
X185322000Y-69154000D01*
X176652000Y-69114000D02*
X179734000Y-69114000D01*
X182216000Y-69114000D02*
X185298000Y-69114000D01*
X176677000Y-69074000D02*
X179734000Y-69074000D01*
X182216000Y-69074000D02*
X185273000Y-69074000D01*
X176702000Y-69034000D02*
X179734000Y-69034000D01*
X182216000Y-69034000D02*
X185248000Y-69034000D01*
X176728000Y-68994000D02*
X179734000Y-68994000D01*
X182216000Y-68994000D02*
X185222000Y-68994000D01*
X176754000Y-68954000D02*
X179734000Y-68954000D01*
X182216000Y-68954000D02*
X185196000Y-68954000D01*
X176781000Y-68914000D02*
X179734000Y-68914000D01*
X182216000Y-68914000D02*
X185169000Y-68914000D01*
X176809000Y-68874000D02*
X179734000Y-68874000D01*
X182216000Y-68874000D02*
X185141000Y-68874000D01*
X176837000Y-68834000D02*
X179734000Y-68834000D01*
X182216000Y-68834000D02*
X185113000Y-68834000D01*
X176865000Y-68794000D02*
X179734000Y-68794000D01*
X182216000Y-68794000D02*
X185085000Y-68794000D01*
X176895000Y-68754000D02*
X179734000Y-68754000D01*
X182216000Y-68754000D02*
X185055000Y-68754000D01*
X176925000Y-68714000D02*
X179734000Y-68714000D01*
X182216000Y-68714000D02*
X185025000Y-68714000D01*
X176955000Y-68674000D02*
X179734000Y-68674000D01*
X182216000Y-68674000D02*
X184995000Y-68674000D01*
X176986000Y-68634000D02*
X179734000Y-68634000D01*
X182216000Y-68634000D02*
X184964000Y-68634000D01*
X177018000Y-68594000D02*
X179734000Y-68594000D01*
X182216000Y-68594000D02*
X184932000Y-68594000D01*
X177050000Y-68554000D02*
X179734000Y-68554000D01*
X182216000Y-68554000D02*
X184900000Y-68554000D01*
X177083000Y-68514000D02*
X179734000Y-68514000D01*
X182216000Y-68514000D02*
X184867000Y-68514000D01*
X177117000Y-68474000D02*
X179734000Y-68474000D01*
X182216000Y-68474000D02*
X184833000Y-68474000D01*
X177151000Y-68434000D02*
X179734000Y-68434000D01*
X182216000Y-68434000D02*
X184799000Y-68434000D01*
X177186000Y-68394000D02*
X179734000Y-68394000D01*
X182216000Y-68394000D02*
X184764000Y-68394000D01*
X177222000Y-68354000D02*
X179734000Y-68354000D01*
X182216000Y-68354000D02*
X184728000Y-68354000D01*
X177259000Y-68314000D02*
X179734000Y-68314000D01*
X182216000Y-68314000D02*
X184691000Y-68314000D01*
X177296000Y-68274000D02*
X179734000Y-68274000D01*
X182216000Y-68274000D02*
X184654000Y-68274000D01*
X177335000Y-68234000D02*
X179734000Y-68234000D01*
X182216000Y-68234000D02*
X184615000Y-68234000D01*
X177374000Y-68194000D02*
X179734000Y-68194000D01*
X182216000Y-68194000D02*
X184576000Y-68194000D01*
X177414000Y-68154000D02*
X179734000Y-68154000D01*
X182216000Y-68154000D02*
X184536000Y-68154000D01*
X177455000Y-68114000D02*
X179734000Y-68114000D01*
X182216000Y-68114000D02*
X184495000Y-68114000D01*
X177497000Y-68074000D02*
X179734000Y-68074000D01*
X182216000Y-68074000D02*
X184453000Y-68074000D01*
X177539000Y-68034000D02*
X184411000Y-68034000D01*
X177583000Y-67994000D02*
X184367000Y-67994000D01*
X177628000Y-67954000D02*
X184322000Y-67954000D01*
X177674000Y-67914000D02*
X184276000Y-67914000D01*
X177721000Y-67874000D02*
X184229000Y-67874000D01*
X177769000Y-67834000D02*
X184181000Y-67834000D01*
X177819000Y-67794000D02*
X184131000Y-67794000D01*
X177869000Y-67754000D02*
X184081000Y-67754000D01*
X177921000Y-67714000D02*
X184029000Y-67714000D01*
X177975000Y-67674000D02*
X183975000Y-67674000D01*
X178030000Y-67634000D02*
X183920000Y-67634000D01*
X178086000Y-67594000D02*
X183864000Y-67594000D01*
X178145000Y-67554000D02*
X183805000Y-67554000D01*
X178205000Y-67514000D02*
X183745000Y-67514000D01*
X178266000Y-67474000D02*
X183684000Y-67474000D01*
X178330000Y-67434000D02*
X183620000Y-67434000D01*
X178396000Y-67394000D02*
X183554000Y-67394000D01*
X178465000Y-67354000D02*
X183485000Y-67354000D01*
X178536000Y-67314000D02*
X183414000Y-67314000D01*
X178610000Y-67274000D02*
X183340000Y-67274000D01*
X178686000Y-67234000D02*
X183264000Y-67234000D01*
X178766000Y-67194000D02*
X183184000Y-67194000D01*
X178850000Y-67154000D02*
X183100000Y-67154000D01*
X178938000Y-67114000D02*
X183012000Y-67114000D01*
X179031000Y-67074000D02*
X182919000Y-67074000D01*
X179129000Y-67034000D02*
X182821000Y-67034000D01*
X179233000Y-66994000D02*
X182717000Y-66994000D01*
X179345000Y-66954000D02*
X182605000Y-66954000D01*
X179465000Y-66914000D02*
X182485000Y-66914000D01*
X179597000Y-66874000D02*
X182353000Y-66874000D01*
X179745000Y-66834000D02*
X182205000Y-66834000D01*
X179913000Y-66794000D02*
X182037000Y-66794000D01*
X180113000Y-66754000D02*
X181837000Y-66754000D01*
X180376000Y-66714000D02*
X181574000Y-66714000D01*
X178100000Y-77274646D02*
X178100000Y-76274646D01*
X177600000Y-76774646D02*
X178600000Y-76774646D01*
X158719759Y-60076000D02*
X158719759Y-60706000D01*
X158404759Y-60391000D02*
X159034759Y-60391000D01*
X165146000Y-61828000D02*
X165146000Y-62632000D01*
X165106000Y-61597000D02*
X165106000Y-62863000D01*
X165066000Y-61428000D02*
X165066000Y-63032000D01*
X165026000Y-61290000D02*
X165026000Y-63170000D01*
X164986000Y-61171000D02*
X164986000Y-63289000D01*
X164946000Y-61065000D02*
X164946000Y-63395000D01*
X164906000Y-60968000D02*
X164906000Y-63492000D01*
X164866000Y-60880000D02*
X164866000Y-63580000D01*
X164826000Y-60798000D02*
X164826000Y-63662000D01*
X164786000Y-60721000D02*
X164786000Y-63739000D01*
X164746000Y-60649000D02*
X164746000Y-63811000D01*
X164706000Y-60580000D02*
X164706000Y-63880000D01*
X164666000Y-60516000D02*
X164666000Y-63944000D01*
X164626000Y-60454000D02*
X164626000Y-64006000D01*
X164586000Y-60396000D02*
X164586000Y-64064000D01*
X164546000Y-60340000D02*
X164546000Y-64120000D01*
X164506000Y-60286000D02*
X164506000Y-64174000D01*
X164466000Y-60235000D02*
X164466000Y-64225000D01*
X164426000Y-60186000D02*
X164426000Y-64274000D01*
X164386000Y-60138000D02*
X164386000Y-64322000D01*
X164346000Y-60093000D02*
X164346000Y-64367000D01*
X164306000Y-60048000D02*
X164306000Y-64412000D01*
X164266000Y-60006000D02*
X164266000Y-64454000D01*
X164226000Y-59965000D02*
X164226000Y-64495000D01*
X164186000Y-63270000D02*
X164186000Y-64535000D01*
X164186000Y-59925000D02*
X164186000Y-61190000D01*
X164146000Y-63270000D02*
X164146000Y-64573000D01*
X164146000Y-59887000D02*
X164146000Y-61190000D01*
X164106000Y-63270000D02*
X164106000Y-64610000D01*
X164106000Y-59850000D02*
X164106000Y-61190000D01*
X164066000Y-63270000D02*
X164066000Y-64646000D01*
X164066000Y-59814000D02*
X164066000Y-61190000D01*
X164026000Y-63270000D02*
X164026000Y-64680000D01*
X164026000Y-59780000D02*
X164026000Y-61190000D01*
X163986000Y-63270000D02*
X163986000Y-64714000D01*
X163986000Y-59746000D02*
X163986000Y-61190000D01*
X163946000Y-63270000D02*
X163946000Y-64746000D01*
X163946000Y-59714000D02*
X163946000Y-61190000D01*
X163906000Y-63270000D02*
X163906000Y-64778000D01*
X163906000Y-59682000D02*
X163906000Y-61190000D01*
X163866000Y-63270000D02*
X163866000Y-64808000D01*
X163866000Y-59652000D02*
X163866000Y-61190000D01*
X163826000Y-63270000D02*
X163826000Y-64837000D01*
X163826000Y-59623000D02*
X163826000Y-61190000D01*
X163786000Y-63270000D02*
X163786000Y-64866000D01*
X163786000Y-59594000D02*
X163786000Y-61190000D01*
X163746000Y-63270000D02*
X163746000Y-64894000D01*
X163746000Y-59566000D02*
X163746000Y-61190000D01*
X163706000Y-63270000D02*
X163706000Y-64920000D01*
X163706000Y-59540000D02*
X163706000Y-61190000D01*
X163666000Y-63270000D02*
X163666000Y-64946000D01*
X163666000Y-59514000D02*
X163666000Y-61190000D01*
X163626000Y-63270000D02*
X163626000Y-64972000D01*
X163626000Y-59488000D02*
X163626000Y-61190000D01*
X163586000Y-63270000D02*
X163586000Y-64996000D01*
X163586000Y-59464000D02*
X163586000Y-61190000D01*
X163546000Y-63270000D02*
X163546000Y-65020000D01*
X163546000Y-59440000D02*
X163546000Y-61190000D01*
X163506000Y-63270000D02*
X163506000Y-65042000D01*
X163506000Y-59418000D02*
X163506000Y-61190000D01*
X163466000Y-63270000D02*
X163466000Y-65064000D01*
X163466000Y-59396000D02*
X163466000Y-61190000D01*
X163426000Y-63270000D02*
X163426000Y-65086000D01*
X163426000Y-59374000D02*
X163426000Y-61190000D01*
X163386000Y-63270000D02*
X163386000Y-65106000D01*
X163386000Y-59354000D02*
X163386000Y-61190000D01*
X163346000Y-63270000D02*
X163346000Y-65126000D01*
X163346000Y-59334000D02*
X163346000Y-61190000D01*
X163306000Y-63270000D02*
X163306000Y-65146000D01*
X163306000Y-59314000D02*
X163306000Y-61190000D01*
X163266000Y-63270000D02*
X163266000Y-65164000D01*
X163266000Y-59296000D02*
X163266000Y-61190000D01*
X163226000Y-63270000D02*
X163226000Y-65182000D01*
X163226000Y-59278000D02*
X163226000Y-61190000D01*
X163186000Y-63270000D02*
X163186000Y-65200000D01*
X163186000Y-59260000D02*
X163186000Y-61190000D01*
X163146000Y-63270000D02*
X163146000Y-65216000D01*
X163146000Y-59244000D02*
X163146000Y-61190000D01*
X163106000Y-63270000D02*
X163106000Y-65232000D01*
X163106000Y-59228000D02*
X163106000Y-61190000D01*
X163066000Y-63270000D02*
X163066000Y-65248000D01*
X163066000Y-59212000D02*
X163066000Y-61190000D01*
X163026000Y-63270000D02*
X163026000Y-65263000D01*
X163026000Y-59197000D02*
X163026000Y-61190000D01*
X162986000Y-63270000D02*
X162986000Y-65277000D01*
X162986000Y-59183000D02*
X162986000Y-61190000D01*
X162946000Y-63270000D02*
X162946000Y-65291000D01*
X162946000Y-59169000D02*
X162946000Y-61190000D01*
X162906000Y-63270000D02*
X162906000Y-65304000D01*
X162906000Y-59156000D02*
X162906000Y-61190000D01*
X162866000Y-63270000D02*
X162866000Y-65316000D01*
X162866000Y-59144000D02*
X162866000Y-61190000D01*
X162826000Y-63270000D02*
X162826000Y-65328000D01*
X162826000Y-59132000D02*
X162826000Y-61190000D01*
X162786000Y-63270000D02*
X162786000Y-65340000D01*
X162786000Y-59120000D02*
X162786000Y-61190000D01*
X162746000Y-63270000D02*
X162746000Y-65351000D01*
X162746000Y-59109000D02*
X162746000Y-61190000D01*
X162706000Y-63270000D02*
X162706000Y-65361000D01*
X162706000Y-59099000D02*
X162706000Y-61190000D01*
X162666000Y-63270000D02*
X162666000Y-65371000D01*
X162666000Y-59089000D02*
X162666000Y-61190000D01*
X162626000Y-63270000D02*
X162626000Y-65380000D01*
X162626000Y-59080000D02*
X162626000Y-61190000D01*
X162585000Y-63270000D02*
X162585000Y-65389000D01*
X162585000Y-59071000D02*
X162585000Y-61190000D01*
X162545000Y-63270000D02*
X162545000Y-65397000D01*
X162545000Y-59063000D02*
X162545000Y-61190000D01*
X162505000Y-63270000D02*
X162505000Y-65405000D01*
X162505000Y-59055000D02*
X162505000Y-61190000D01*
X162465000Y-63270000D02*
X162465000Y-65412000D01*
X162465000Y-59048000D02*
X162465000Y-61190000D01*
X162425000Y-63270000D02*
X162425000Y-65419000D01*
X162425000Y-59041000D02*
X162425000Y-61190000D01*
X162385000Y-63270000D02*
X162385000Y-65425000D01*
X162385000Y-59035000D02*
X162385000Y-61190000D01*
X162345000Y-63270000D02*
X162345000Y-65431000D01*
X162345000Y-59029000D02*
X162345000Y-61190000D01*
X162305000Y-63270000D02*
X162305000Y-65436000D01*
X162305000Y-59024000D02*
X162305000Y-61190000D01*
X162265000Y-63270000D02*
X162265000Y-65441000D01*
X162265000Y-59019000D02*
X162265000Y-61190000D01*
X162225000Y-63270000D02*
X162225000Y-65445000D01*
X162225000Y-59015000D02*
X162225000Y-61190000D01*
X162185000Y-63270000D02*
X162185000Y-65448000D01*
X162185000Y-59012000D02*
X162185000Y-61190000D01*
X162145000Y-63270000D02*
X162145000Y-65452000D01*
X162145000Y-59008000D02*
X162145000Y-61190000D01*
X162105000Y-59006000D02*
X162105000Y-65454000D01*
X162065000Y-59003000D02*
X162065000Y-65457000D01*
X162025000Y-59002000D02*
X162025000Y-65458000D01*
X161985000Y-59000000D02*
X161985000Y-65460000D01*
X161945000Y-59000000D02*
X161945000Y-65460000D01*
X161905000Y-59000000D02*
X161905000Y-65460000D01*
X165175000Y-62230000D02*
G75*
G03*
X165175000Y-62230000I-3270000J0D01*
G01*
X145130000Y-99795000D02*
X136890000Y-99795000D01*
X145130000Y-97055000D02*
X136890000Y-97055000D01*
X145130000Y-99795000D02*
X145130000Y-97055000D01*
X136890000Y-99795000D02*
X136890000Y-97055000D01*
X136255000Y-117375000D02*
X144495000Y-117375000D01*
X136255000Y-120115000D02*
X144495000Y-120115000D01*
X136255000Y-117375000D02*
X136255000Y-120115000D01*
X144495000Y-117375000D02*
X144495000Y-120115000D01*
X171015000Y-86815000D02*
X168075000Y-86815000D01*
X168075000Y-86815000D02*
X168075000Y-92255000D01*
X168075000Y-92255000D02*
X171015000Y-92255000D01*
X171015000Y-92255000D02*
X171015000Y-86815000D01*
X169545000Y-85795000D02*
X169545000Y-86815000D01*
X169545000Y-93275000D02*
X169545000Y-92255000D01*
X171015000Y-87715000D02*
X168075000Y-87715000D01*
X171015000Y-87835000D02*
X168075000Y-87835000D01*
X171015000Y-87595000D02*
X168075000Y-87595000D01*
X174825000Y-87595000D02*
X171885000Y-87595000D01*
X174825000Y-87835000D02*
X171885000Y-87835000D01*
X174825000Y-87715000D02*
X171885000Y-87715000D01*
X173355000Y-93275000D02*
X173355000Y-92255000D01*
X173355000Y-85795000D02*
X173355000Y-86815000D01*
X174825000Y-92255000D02*
X174825000Y-86815000D01*
X171885000Y-92255000D02*
X174825000Y-92255000D01*
X171885000Y-86815000D02*
X171885000Y-92255000D01*
X174825000Y-86815000D02*
X171885000Y-86815000D01*
X169295000Y-134770000D02*
X169295000Y-137010000D01*
X169535000Y-134770000D02*
X169535000Y-137010000D01*
X169415000Y-134770000D02*
X169415000Y-137010000D01*
X173585000Y-135890000D02*
X172935000Y-135890000D01*
X168045000Y-135890000D02*
X168695000Y-135890000D01*
X172935000Y-134770000D02*
X168695000Y-134770000D01*
X172935000Y-137010000D02*
X172935000Y-134770000D01*
X168695000Y-137010000D02*
X172935000Y-137010000D01*
X168695000Y-134770000D02*
X168695000Y-137010000D01*
X175110000Y-119800000D02*
X172870000Y-119800000D01*
X172870000Y-119800000D02*
X172870000Y-124040000D01*
X172870000Y-124040000D02*
X175110000Y-124040000D01*
X175110000Y-124040000D02*
X175110000Y-119800000D01*
X173990000Y-119150000D02*
X173990000Y-119800000D01*
X173990000Y-124690000D02*
X173990000Y-124040000D01*
X175110000Y-120520000D02*
X172870000Y-120520000D01*
X175110000Y-120640000D02*
X172870000Y-120640000D01*
X175110000Y-120400000D02*
X172870000Y-120400000D01*
X112335000Y-55185000D02*
X112335000Y-57845000D01*
X122555000Y-55185000D02*
X112335000Y-55185000D01*
X122555000Y-57845000D02*
X112335000Y-57845000D01*
X122555000Y-55185000D02*
X122555000Y-57845000D01*
X123825000Y-55185000D02*
X125155000Y-55185000D01*
X125155000Y-55185000D02*
X125155000Y-56515000D01*
X165705000Y-65189999D02*
X193705000Y-65190000D01*
X193705000Y-65190000D02*
X193705000Y-54190001D01*
X193705000Y-54190001D02*
X165705000Y-54190000D01*
X165705000Y-54190000D02*
X165705000Y-57856667D01*
X165705000Y-57856667D02*
X166065000Y-57856667D01*
X166065000Y-57856667D02*
X166065000Y-61523333D01*
X166065000Y-61523333D02*
X165705000Y-61523333D01*
X165705000Y-61523333D02*
X165705000Y-65189999D01*
X122015000Y-99465000D02*
X122015000Y-99795000D01*
X122015000Y-99795000D02*
X115475000Y-99795000D01*
X115475000Y-99795000D02*
X115475000Y-99465000D01*
X122015000Y-97385000D02*
X122015000Y-97055000D01*
X122015000Y-97055000D02*
X115475000Y-97055000D01*
X115475000Y-97055000D02*
X115475000Y-97385000D01*
X108050000Y-123095000D02*
X107720000Y-123095000D01*
X108050000Y-129635000D02*
X108050000Y-123095000D01*
X107720000Y-129635000D02*
X108050000Y-129635000D01*
X105310000Y-123095000D02*
X105640000Y-123095000D01*
X105310000Y-129635000D02*
X105310000Y-123095000D01*
X105640000Y-129635000D02*
X105310000Y-129635000D01*
X172125000Y-71850000D02*
X161885000Y-71850000D01*
X172125000Y-67209000D02*
X161885000Y-67209000D01*
X172125000Y-71850000D02*
X172125000Y-67209000D01*
X161885000Y-71850000D02*
X161885000Y-67209000D01*
X172125000Y-70340000D02*
X161885000Y-70340000D01*
X168855000Y-71850000D02*
X168855000Y-70340000D01*
X165154000Y-71850000D02*
X165154000Y-70340000D01*
X111860000Y-79660000D02*
X111860000Y-87900000D01*
X109120000Y-79660000D02*
X109120000Y-87900000D01*
X111860000Y-79660000D02*
X109120000Y-79660000D01*
X111860000Y-87900000D02*
X109120000Y-87900000D01*
X107030000Y-66775000D02*
X98790000Y-66775000D01*
X107030000Y-64035000D02*
X98790000Y-64035000D01*
X107030000Y-66775000D02*
X107030000Y-64035000D01*
X98790000Y-66775000D02*
X98790000Y-64035000D01*
X142340000Y-134890000D02*
X139600000Y-134890000D01*
X142340000Y-126650000D02*
X139600000Y-126650000D01*
X139600000Y-126650000D02*
X139600000Y-134890000D01*
X142340000Y-126650000D02*
X142340000Y-134890000D01*
X127000000Y-114240000D02*
X127000000Y-116900000D01*
X127000000Y-114240000D02*
X114240000Y-114240000D01*
X114240000Y-114240000D02*
X114240000Y-116900000D01*
X127000000Y-116900000D02*
X114240000Y-116900000D01*
X129600000Y-116900000D02*
X128270000Y-116900000D01*
X129600000Y-115570000D02*
X129600000Y-116900000D01*
X177800000Y-102235000D02*
X185420000Y-102235000D01*
X185420000Y-81915000D02*
X177800000Y-81915000D01*
X184150000Y-81915000D02*
X184150000Y-102235000D01*
X177800000Y-102235000D02*
X177800000Y-81915000D01*
X185420000Y-102235000D02*
X185420000Y-81915000D01*
X143470000Y-56515000D02*
G75*
G03*
X143470000Y-56515000I-2500000J0D01*
G01*
X143530000Y-58060000D02*
X143530000Y-54970000D01*
X137980000Y-56514538D02*
G75*
G03*
X143530000Y-58059830I2990000J-462D01*
G01*
X137980000Y-56515462D02*
G75*
G02*
X143530000Y-54970170I2990000J462D01*
G01*
X187095000Y-82565000D02*
X190094999Y-82565000D01*
X190094999Y-82565000D02*
X190095000Y-68565000D01*
X190095000Y-68565000D02*
X187095001Y-68565000D01*
X187095001Y-68565000D02*
X187095001Y-73231667D01*
X187095001Y-73231667D02*
X187455001Y-73231667D01*
X187455001Y-73231667D02*
X187455000Y-77898333D01*
X187455000Y-77898333D02*
X187095000Y-77898333D01*
X187095000Y-77898333D02*
X187095000Y-82565000D01*
D10*
X117137380Y-106806904D02*
X117946904Y-106806904D01*
X118042142Y-106759285D01*
X118089761Y-106711666D01*
X118137380Y-106616428D01*
X118137380Y-106425952D01*
X118089761Y-106330714D01*
X118042142Y-106283095D01*
X117946904Y-106235476D01*
X117137380Y-106235476D01*
X117232619Y-105806904D02*
X117185000Y-105759285D01*
X117137380Y-105664047D01*
X117137380Y-105425952D01*
X117185000Y-105330714D01*
X117232619Y-105283095D01*
X117327857Y-105235476D01*
X117423095Y-105235476D01*
X117565952Y-105283095D01*
X118137380Y-105854523D01*
X118137380Y-105235476D01*
D12*
X154698095Y-106256666D02*
X155302857Y-106256666D01*
X154577142Y-106619523D02*
X155000476Y-105349523D01*
X155423809Y-106619523D01*
X155665714Y-105349523D02*
X156391428Y-105349523D01*
X156028571Y-106619523D02*
X156028571Y-105349523D01*
X156814761Y-106619523D02*
X156814761Y-105772857D01*
X156814761Y-105893809D02*
X156875238Y-105833333D01*
X156996190Y-105772857D01*
X157177619Y-105772857D01*
X157298571Y-105833333D01*
X157359047Y-105954285D01*
X157359047Y-106619523D01*
X157359047Y-105954285D02*
X157419523Y-105833333D01*
X157540476Y-105772857D01*
X157721904Y-105772857D01*
X157842857Y-105833333D01*
X157903333Y-105954285D01*
X157903333Y-106619523D01*
X158991904Y-106559047D02*
X158870952Y-106619523D01*
X158629047Y-106619523D01*
X158508095Y-106559047D01*
X158447619Y-106438095D01*
X158447619Y-105954285D01*
X158508095Y-105833333D01*
X158629047Y-105772857D01*
X158870952Y-105772857D01*
X158991904Y-105833333D01*
X159052380Y-105954285D01*
X159052380Y-106075238D01*
X158447619Y-106196190D01*
X160140952Y-105772857D02*
X160140952Y-106800952D01*
X160080476Y-106921904D01*
X160020000Y-106982380D01*
X159899047Y-107042857D01*
X159717619Y-107042857D01*
X159596666Y-106982380D01*
X160140952Y-106559047D02*
X160020000Y-106619523D01*
X159778095Y-106619523D01*
X159657142Y-106559047D01*
X159596666Y-106498571D01*
X159536190Y-106377619D01*
X159536190Y-106014761D01*
X159596666Y-105893809D01*
X159657142Y-105833333D01*
X159778095Y-105772857D01*
X160020000Y-105772857D01*
X160140952Y-105833333D01*
X161290000Y-106619523D02*
X161290000Y-105954285D01*
X161229523Y-105833333D01*
X161108571Y-105772857D01*
X160866666Y-105772857D01*
X160745714Y-105833333D01*
X161290000Y-106559047D02*
X161169047Y-106619523D01*
X160866666Y-106619523D01*
X160745714Y-106559047D01*
X160685238Y-106438095D01*
X160685238Y-106317142D01*
X160745714Y-106196190D01*
X160866666Y-106135714D01*
X161169047Y-106135714D01*
X161290000Y-106075238D01*
X161773809Y-105349523D02*
X162560000Y-105349523D01*
X162136666Y-105833333D01*
X162318095Y-105833333D01*
X162439047Y-105893809D01*
X162499523Y-105954285D01*
X162560000Y-106075238D01*
X162560000Y-106377619D01*
X162499523Y-106498571D01*
X162439047Y-106559047D01*
X162318095Y-106619523D01*
X161955238Y-106619523D01*
X161834285Y-106559047D01*
X161773809Y-106498571D01*
X163043809Y-105470476D02*
X163104285Y-105410000D01*
X163225238Y-105349523D01*
X163527619Y-105349523D01*
X163648571Y-105410000D01*
X163709047Y-105470476D01*
X163769523Y-105591428D01*
X163769523Y-105712380D01*
X163709047Y-105893809D01*
X162983333Y-106619523D01*
X163769523Y-106619523D01*
X164495238Y-105893809D02*
X164374285Y-105833333D01*
X164313809Y-105772857D01*
X164253333Y-105651904D01*
X164253333Y-105591428D01*
X164313809Y-105470476D01*
X164374285Y-105410000D01*
X164495238Y-105349523D01*
X164737142Y-105349523D01*
X164858095Y-105410000D01*
X164918571Y-105470476D01*
X164979047Y-105591428D01*
X164979047Y-105651904D01*
X164918571Y-105772857D01*
X164858095Y-105833333D01*
X164737142Y-105893809D01*
X164495238Y-105893809D01*
X164374285Y-105954285D01*
X164313809Y-106014761D01*
X164253333Y-106135714D01*
X164253333Y-106377619D01*
X164313809Y-106498571D01*
X164374285Y-106559047D01*
X164495238Y-106619523D01*
X164737142Y-106619523D01*
X164858095Y-106559047D01*
X164918571Y-106498571D01*
X164979047Y-106377619D01*
X164979047Y-106135714D01*
X164918571Y-106014761D01*
X164858095Y-105954285D01*
X164737142Y-105893809D01*
X165523333Y-106135714D02*
X166490952Y-106135714D01*
X167095714Y-106619523D02*
X167095714Y-105349523D01*
X167579523Y-105349523D01*
X167700476Y-105410000D01*
X167760952Y-105470476D01*
X167821428Y-105591428D01*
X167821428Y-105772857D01*
X167760952Y-105893809D01*
X167700476Y-105954285D01*
X167579523Y-106014761D01*
X167095714Y-106014761D01*
X168365714Y-105349523D02*
X168365714Y-106377619D01*
X168426190Y-106498571D01*
X168486666Y-106559047D01*
X168607619Y-106619523D01*
X168849523Y-106619523D01*
X168970476Y-106559047D01*
X169030952Y-106498571D01*
X169091428Y-106377619D01*
X169091428Y-105349523D01*
D10*
X98242380Y-86097857D02*
X97242380Y-86097857D01*
X97718571Y-86097857D02*
X97718571Y-85526428D01*
X98242380Y-85526428D02*
X97242380Y-85526428D01*
X98194761Y-84669285D02*
X98242380Y-84764523D01*
X98242380Y-84955000D01*
X98194761Y-85050238D01*
X98099523Y-85097857D01*
X97718571Y-85097857D01*
X97623333Y-85050238D01*
X97575714Y-84955000D01*
X97575714Y-84764523D01*
X97623333Y-84669285D01*
X97718571Y-84621666D01*
X97813809Y-84621666D01*
X97909047Y-85097857D01*
X98242380Y-84050238D02*
X98194761Y-84145476D01*
X98099523Y-84193095D01*
X97242380Y-84193095D01*
X98242380Y-83669285D02*
X97575714Y-83669285D01*
X97670952Y-83669285D02*
X97623333Y-83621666D01*
X97575714Y-83526428D01*
X97575714Y-83383571D01*
X97623333Y-83288333D01*
X97718571Y-83240714D01*
X98242380Y-83240714D01*
X97718571Y-83240714D02*
X97623333Y-83193095D01*
X97575714Y-83097857D01*
X97575714Y-82955000D01*
X97623333Y-82859761D01*
X97718571Y-82812142D01*
X98242380Y-82812142D01*
X110156666Y-90027380D02*
X110156666Y-90741666D01*
X110109047Y-90884523D01*
X110013809Y-90979761D01*
X109870952Y-91027380D01*
X109775714Y-91027380D01*
X110537619Y-90027380D02*
X111204285Y-90027380D01*
X110775714Y-91027380D01*
X140803333Y-123007380D02*
X140470000Y-122531190D01*
X140231904Y-123007380D02*
X140231904Y-122007380D01*
X140612857Y-122007380D01*
X140708095Y-122055000D01*
X140755714Y-122102619D01*
X140803333Y-122197857D01*
X140803333Y-122340714D01*
X140755714Y-122435952D01*
X140708095Y-122483571D01*
X140612857Y-122531190D01*
X140231904Y-122531190D01*
X141660476Y-122007380D02*
X141470000Y-122007380D01*
X141374761Y-122055000D01*
X141327142Y-122102619D01*
X141231904Y-122245476D01*
X141184285Y-122435952D01*
X141184285Y-122816904D01*
X141231904Y-122912142D01*
X141279523Y-122959761D01*
X141374761Y-123007380D01*
X141565238Y-123007380D01*
X141660476Y-122959761D01*
X141708095Y-122912142D01*
X141755714Y-122816904D01*
X141755714Y-122578809D01*
X141708095Y-122483571D01*
X141660476Y-122435952D01*
X141565238Y-122388333D01*
X141374761Y-122388333D01*
X141279523Y-122435952D01*
X141231904Y-122483571D01*
X141184285Y-122578809D01*
X147145476Y-59987380D02*
X147145476Y-60701666D01*
X147097857Y-60844523D01*
X147002619Y-60939761D01*
X146859761Y-60987380D01*
X146764523Y-60987380D01*
X148145476Y-60987380D02*
X147574047Y-60987380D01*
X147859761Y-60987380D02*
X147859761Y-59987380D01*
X147764523Y-60130238D01*
X147669285Y-60225476D01*
X147574047Y-60273095D01*
X149097857Y-60987380D02*
X148526428Y-60987380D01*
X148812142Y-60987380D02*
X148812142Y-59987380D01*
X148716904Y-60130238D01*
X148621666Y-60225476D01*
X148526428Y-60273095D01*
X123650476Y-59987380D02*
X123650476Y-60701666D01*
X123602857Y-60844523D01*
X123507619Y-60939761D01*
X123364761Y-60987380D01*
X123269523Y-60987380D01*
X124650476Y-60987380D02*
X124079047Y-60987380D01*
X124364761Y-60987380D02*
X124364761Y-59987380D01*
X124269523Y-60130238D01*
X124174285Y-60225476D01*
X124079047Y-60273095D01*
X125269523Y-59987380D02*
X125364761Y-59987380D01*
X125460000Y-60035000D01*
X125507619Y-60082619D01*
X125555238Y-60177857D01*
X125602857Y-60368333D01*
X125602857Y-60606428D01*
X125555238Y-60796904D01*
X125507619Y-60892142D01*
X125460000Y-60939761D01*
X125364761Y-60987380D01*
X125269523Y-60987380D01*
X125174285Y-60939761D01*
X125126666Y-60892142D01*
X125079047Y-60796904D01*
X125031428Y-60606428D01*
X125031428Y-60368333D01*
X125079047Y-60177857D01*
X125126666Y-60082619D01*
X125174285Y-60035000D01*
X125269523Y-59987380D01*
X123698095Y-64857380D02*
X123698095Y-65666904D01*
X123745714Y-65762142D01*
X123793333Y-65809761D01*
X123888571Y-65857380D01*
X124079047Y-65857380D01*
X124174285Y-65809761D01*
X124221904Y-65762142D01*
X124269523Y-65666904D01*
X124269523Y-64857380D01*
X125221904Y-64857380D02*
X124745714Y-64857380D01*
X124698095Y-65333571D01*
X124745714Y-65285952D01*
X124840952Y-65238333D01*
X125079047Y-65238333D01*
X125174285Y-65285952D01*
X125221904Y-65333571D01*
X125269523Y-65428809D01*
X125269523Y-65666904D01*
X125221904Y-65762142D01*
X125174285Y-65809761D01*
X125079047Y-65857380D01*
X124840952Y-65857380D01*
X124745714Y-65809761D01*
X124698095Y-65762142D01*
X117325238Y-73747380D02*
X117563333Y-74747380D01*
X117753809Y-74033095D01*
X117944285Y-74747380D01*
X118182380Y-73747380D01*
X118563333Y-74747380D02*
X118563333Y-74080714D01*
X118563333Y-73747380D02*
X118515714Y-73795000D01*
X118563333Y-73842619D01*
X118610952Y-73795000D01*
X118563333Y-73747380D01*
X118563333Y-73842619D01*
X119039523Y-74080714D02*
X119039523Y-74747380D01*
X119039523Y-74175952D02*
X119087142Y-74128333D01*
X119182380Y-74080714D01*
X119325238Y-74080714D01*
X119420476Y-74128333D01*
X119468095Y-74223571D01*
X119468095Y-74747380D01*
X120372857Y-74699761D02*
X120277619Y-74747380D01*
X120087142Y-74747380D01*
X119991904Y-74699761D01*
X119944285Y-74652142D01*
X119896666Y-74556904D01*
X119896666Y-74271190D01*
X119944285Y-74175952D01*
X119991904Y-74128333D01*
X120087142Y-74080714D01*
X120277619Y-74080714D01*
X120372857Y-74128333D01*
X120801428Y-74747380D02*
X120801428Y-73747380D01*
X121230000Y-74747380D02*
X121230000Y-74223571D01*
X121182380Y-74128333D01*
X121087142Y-74080714D01*
X120944285Y-74080714D01*
X120849047Y-74128333D01*
X120801428Y-74175952D01*
X122468095Y-74080714D02*
X122468095Y-75080714D01*
X122468095Y-74128333D02*
X122563333Y-74080714D01*
X122753809Y-74080714D01*
X122849047Y-74128333D01*
X122896666Y-74175952D01*
X122944285Y-74271190D01*
X122944285Y-74556904D01*
X122896666Y-74652142D01*
X122849047Y-74699761D01*
X122753809Y-74747380D01*
X122563333Y-74747380D01*
X122468095Y-74699761D01*
X123372857Y-74747380D02*
X123372857Y-74080714D01*
X123372857Y-74271190D02*
X123420476Y-74175952D01*
X123468095Y-74128333D01*
X123563333Y-74080714D01*
X123658571Y-74080714D01*
X124372857Y-74699761D02*
X124277619Y-74747380D01*
X124087142Y-74747380D01*
X123991904Y-74699761D01*
X123944285Y-74604523D01*
X123944285Y-74223571D01*
X123991904Y-74128333D01*
X124087142Y-74080714D01*
X124277619Y-74080714D01*
X124372857Y-74128333D01*
X124420476Y-74223571D01*
X124420476Y-74318809D01*
X123944285Y-74414047D01*
X124801428Y-74699761D02*
X124896666Y-74747380D01*
X125087142Y-74747380D01*
X125182380Y-74699761D01*
X125230000Y-74604523D01*
X125230000Y-74556904D01*
X125182380Y-74461666D01*
X125087142Y-74414047D01*
X124944285Y-74414047D01*
X124849047Y-74366428D01*
X124801428Y-74271190D01*
X124801428Y-74223571D01*
X124849047Y-74128333D01*
X124944285Y-74080714D01*
X125087142Y-74080714D01*
X125182380Y-74128333D01*
X125610952Y-74699761D02*
X125706190Y-74747380D01*
X125896666Y-74747380D01*
X125991904Y-74699761D01*
X126039523Y-74604523D01*
X126039523Y-74556904D01*
X125991904Y-74461666D01*
X125896666Y-74414047D01*
X125753809Y-74414047D01*
X125658571Y-74366428D01*
X125610952Y-74271190D01*
X125610952Y-74223571D01*
X125658571Y-74128333D01*
X125753809Y-74080714D01*
X125896666Y-74080714D01*
X125991904Y-74128333D01*
X126896666Y-74080714D02*
X126896666Y-74747380D01*
X126468095Y-74080714D02*
X126468095Y-74604523D01*
X126515714Y-74699761D01*
X126610952Y-74747380D01*
X126753809Y-74747380D01*
X126849047Y-74699761D01*
X126896666Y-74652142D01*
X127372857Y-74747380D02*
X127372857Y-74080714D01*
X127372857Y-74271190D02*
X127420476Y-74175952D01*
X127468095Y-74128333D01*
X127563333Y-74080714D01*
X127658571Y-74080714D01*
X128372857Y-74699761D02*
X128277619Y-74747380D01*
X128087142Y-74747380D01*
X127991904Y-74699761D01*
X127944285Y-74604523D01*
X127944285Y-74223571D01*
X127991904Y-74128333D01*
X128087142Y-74080714D01*
X128277619Y-74080714D01*
X128372857Y-74128333D01*
X128420476Y-74223571D01*
X128420476Y-74318809D01*
X127944285Y-74414047D01*
X129563333Y-74699761D02*
X129658571Y-74747380D01*
X129849047Y-74747380D01*
X129944285Y-74699761D01*
X129991904Y-74604523D01*
X129991904Y-74556904D01*
X129944285Y-74461666D01*
X129849047Y-74414047D01*
X129706190Y-74414047D01*
X129610952Y-74366428D01*
X129563333Y-74271190D01*
X129563333Y-74223571D01*
X129610952Y-74128333D01*
X129706190Y-74080714D01*
X129849047Y-74080714D01*
X129944285Y-74128333D01*
X130801428Y-74699761D02*
X130706190Y-74747380D01*
X130515714Y-74747380D01*
X130420476Y-74699761D01*
X130372857Y-74604523D01*
X130372857Y-74223571D01*
X130420476Y-74128333D01*
X130515714Y-74080714D01*
X130706190Y-74080714D01*
X130801428Y-74128333D01*
X130849047Y-74223571D01*
X130849047Y-74318809D01*
X130372857Y-74414047D01*
X131277619Y-74080714D02*
X131277619Y-74747380D01*
X131277619Y-74175952D02*
X131325238Y-74128333D01*
X131420476Y-74080714D01*
X131563333Y-74080714D01*
X131658571Y-74128333D01*
X131706190Y-74223571D01*
X131706190Y-74747380D01*
X132134761Y-74699761D02*
X132230000Y-74747380D01*
X132420476Y-74747380D01*
X132515714Y-74699761D01*
X132563333Y-74604523D01*
X132563333Y-74556904D01*
X132515714Y-74461666D01*
X132420476Y-74414047D01*
X132277619Y-74414047D01*
X132182380Y-74366428D01*
X132134761Y-74271190D01*
X132134761Y-74223571D01*
X132182380Y-74128333D01*
X132277619Y-74080714D01*
X132420476Y-74080714D01*
X132515714Y-74128333D01*
X133134761Y-74747380D02*
X133039523Y-74699761D01*
X132991904Y-74652142D01*
X132944285Y-74556904D01*
X132944285Y-74271190D01*
X132991904Y-74175952D01*
X133039523Y-74128333D01*
X133134761Y-74080714D01*
X133277619Y-74080714D01*
X133372857Y-74128333D01*
X133420476Y-74175952D01*
X133468095Y-74271190D01*
X133468095Y-74556904D01*
X133420476Y-74652142D01*
X133372857Y-74699761D01*
X133277619Y-74747380D01*
X133134761Y-74747380D01*
X133896666Y-74747380D02*
X133896666Y-74080714D01*
X133896666Y-74271190D02*
X133944285Y-74175952D01*
X133991904Y-74128333D01*
X134087142Y-74080714D01*
X134182380Y-74080714D01*
X196497380Y-121451666D02*
X196021190Y-121785000D01*
X196497380Y-122023095D02*
X195497380Y-122023095D01*
X195497380Y-121642142D01*
X195545000Y-121546904D01*
X195592619Y-121499285D01*
X195687857Y-121451666D01*
X195830714Y-121451666D01*
X195925952Y-121499285D01*
X195973571Y-121546904D01*
X196021190Y-121642142D01*
X196021190Y-122023095D01*
X196497380Y-120499285D02*
X196497380Y-121070714D01*
X196497380Y-120785000D02*
X195497380Y-120785000D01*
X195640238Y-120880238D01*
X195735476Y-120975476D01*
X195783095Y-121070714D01*
X131389523Y-89212380D02*
X130818095Y-89212380D01*
X131103809Y-89212380D02*
X131103809Y-88212380D01*
X131008571Y-88355238D01*
X130913333Y-88450476D01*
X130818095Y-88498095D01*
X132008571Y-88212380D02*
X132103809Y-88212380D01*
X132199047Y-88260000D01*
X132246666Y-88307619D01*
X132294285Y-88402857D01*
X132341904Y-88593333D01*
X132341904Y-88831428D01*
X132294285Y-89021904D01*
X132246666Y-89117142D01*
X132199047Y-89164761D01*
X132103809Y-89212380D01*
X132008571Y-89212380D01*
X131913333Y-89164761D01*
X131865714Y-89117142D01*
X131818095Y-89021904D01*
X131770476Y-88831428D01*
X131770476Y-88593333D01*
X131818095Y-88402857D01*
X131865714Y-88307619D01*
X131913333Y-88260000D01*
X132008571Y-88212380D01*
X132770476Y-89212380D02*
X132770476Y-88212380D01*
X133341904Y-89212380D02*
X132913333Y-88640952D01*
X133341904Y-88212380D02*
X132770476Y-88783809D01*
X128857142Y-94337142D02*
X128809523Y-94384761D01*
X128666666Y-94432380D01*
X128571428Y-94432380D01*
X128428571Y-94384761D01*
X128333333Y-94289523D01*
X128285714Y-94194285D01*
X128238095Y-94003809D01*
X128238095Y-93860952D01*
X128285714Y-93670476D01*
X128333333Y-93575238D01*
X128428571Y-93480000D01*
X128571428Y-93432380D01*
X128666666Y-93432380D01*
X128809523Y-93480000D01*
X128857142Y-93527619D01*
X129809523Y-94432380D02*
X129238095Y-94432380D01*
X129523809Y-94432380D02*
X129523809Y-93432380D01*
X129428571Y-93575238D01*
X129333333Y-93670476D01*
X129238095Y-93718095D01*
X130666666Y-93765714D02*
X130666666Y-94432380D01*
X130428571Y-93384761D02*
X130190476Y-94099047D01*
X130809523Y-94099047D01*
X160742380Y-117649523D02*
X161742380Y-116982857D01*
X160742380Y-116982857D02*
X161742380Y-117649523D01*
X160837619Y-116649523D02*
X160790000Y-116601904D01*
X160742380Y-116506666D01*
X160742380Y-116268571D01*
X160790000Y-116173333D01*
X160837619Y-116125714D01*
X160932857Y-116078095D01*
X161028095Y-116078095D01*
X161170952Y-116125714D01*
X161742380Y-116697142D01*
X161742380Y-116078095D01*
X163266428Y-113400952D02*
X163266428Y-112639047D01*
X163647380Y-113020000D02*
X162885476Y-113020000D01*
D16*
X193554047Y-129751666D02*
X195368333Y-129751666D01*
X195731190Y-129872619D01*
X195973095Y-130114523D01*
X196094047Y-130477380D01*
X196094047Y-130719285D01*
X193795952Y-128663095D02*
X193675000Y-128542142D01*
X193554047Y-128300238D01*
X193554047Y-127695476D01*
X193675000Y-127453571D01*
X193795952Y-127332619D01*
X194037857Y-127211666D01*
X194279761Y-127211666D01*
X194642619Y-127332619D01*
X196094047Y-128784047D01*
X196094047Y-127211666D01*
D10*
X129373333Y-98877380D02*
X129040000Y-98401190D01*
X128801904Y-98877380D02*
X128801904Y-97877380D01*
X129182857Y-97877380D01*
X129278095Y-97925000D01*
X129325714Y-97972619D01*
X129373333Y-98067857D01*
X129373333Y-98210714D01*
X129325714Y-98305952D01*
X129278095Y-98353571D01*
X129182857Y-98401190D01*
X128801904Y-98401190D01*
X130278095Y-97877380D02*
X129801904Y-97877380D01*
X129754285Y-98353571D01*
X129801904Y-98305952D01*
X129897142Y-98258333D01*
X130135238Y-98258333D01*
X130230476Y-98305952D01*
X130278095Y-98353571D01*
X130325714Y-98448809D01*
X130325714Y-98686904D01*
X130278095Y-98782142D01*
X130230476Y-98829761D01*
X130135238Y-98877380D01*
X129897142Y-98877380D01*
X129801904Y-98829761D01*
X129754285Y-98782142D01*
X144248333Y-84272380D02*
X143676904Y-84272380D01*
X143962619Y-84272380D02*
X143962619Y-83272380D01*
X143867380Y-83415238D01*
X143772142Y-83510476D01*
X143676904Y-83558095D01*
X144867380Y-83272380D02*
X144962619Y-83272380D01*
X145057857Y-83320000D01*
X145105476Y-83367619D01*
X145153095Y-83462857D01*
X145200714Y-83653333D01*
X145200714Y-83891428D01*
X145153095Y-84081904D01*
X145105476Y-84177142D01*
X145057857Y-84224761D01*
X144962619Y-84272380D01*
X144867380Y-84272380D01*
X144772142Y-84224761D01*
X144724523Y-84177142D01*
X144676904Y-84081904D01*
X144629285Y-83891428D01*
X144629285Y-83653333D01*
X144676904Y-83462857D01*
X144724523Y-83367619D01*
X144772142Y-83320000D01*
X144867380Y-83272380D01*
X145819761Y-83272380D02*
X145915000Y-83272380D01*
X146010238Y-83320000D01*
X146057857Y-83367619D01*
X146105476Y-83462857D01*
X146153095Y-83653333D01*
X146153095Y-83891428D01*
X146105476Y-84081904D01*
X146057857Y-84177142D01*
X146010238Y-84224761D01*
X145915000Y-84272380D01*
X145819761Y-84272380D01*
X145724523Y-84224761D01*
X145676904Y-84177142D01*
X145629285Y-84081904D01*
X145581666Y-83891428D01*
X145581666Y-83653333D01*
X145629285Y-83462857D01*
X145676904Y-83367619D01*
X145724523Y-83320000D01*
X145819761Y-83272380D01*
X146581666Y-84272380D02*
X146581666Y-83272380D01*
X147153095Y-84272380D02*
X146724523Y-83700952D01*
X147153095Y-83272380D02*
X146581666Y-83843809D01*
X114879523Y-79192380D02*
X114308095Y-79192380D01*
X114593809Y-79192380D02*
X114593809Y-78192380D01*
X114498571Y-78335238D01*
X114403333Y-78430476D01*
X114308095Y-78478095D01*
X115498571Y-78192380D02*
X115593809Y-78192380D01*
X115689047Y-78240000D01*
X115736666Y-78287619D01*
X115784285Y-78382857D01*
X115831904Y-78573333D01*
X115831904Y-78811428D01*
X115784285Y-79001904D01*
X115736666Y-79097142D01*
X115689047Y-79144761D01*
X115593809Y-79192380D01*
X115498571Y-79192380D01*
X115403333Y-79144761D01*
X115355714Y-79097142D01*
X115308095Y-79001904D01*
X115260476Y-78811428D01*
X115260476Y-78573333D01*
X115308095Y-78382857D01*
X115355714Y-78287619D01*
X115403333Y-78240000D01*
X115498571Y-78192380D01*
X116260476Y-79192380D02*
X116260476Y-78192380D01*
X116831904Y-79192380D02*
X116403333Y-78620952D01*
X116831904Y-78192380D02*
X116260476Y-78763809D01*
X170632380Y-111863095D02*
X169632380Y-111863095D01*
X169632380Y-111625000D01*
X169680000Y-111482142D01*
X169775238Y-111386904D01*
X169870476Y-111339285D01*
X170060952Y-111291666D01*
X170203809Y-111291666D01*
X170394285Y-111339285D01*
X170489523Y-111386904D01*
X170584761Y-111482142D01*
X170632380Y-111625000D01*
X170632380Y-111863095D01*
X170632380Y-110815476D02*
X170632380Y-110625000D01*
X170584761Y-110529761D01*
X170537142Y-110482142D01*
X170394285Y-110386904D01*
X170203809Y-110339285D01*
X169822857Y-110339285D01*
X169727619Y-110386904D01*
X169680000Y-110434523D01*
X169632380Y-110529761D01*
X169632380Y-110720238D01*
X169680000Y-110815476D01*
X169727619Y-110863095D01*
X169822857Y-110910714D01*
X170060952Y-110910714D01*
X170156190Y-110863095D01*
X170203809Y-110815476D01*
X170251428Y-110720238D01*
X170251428Y-110529761D01*
X170203809Y-110434523D01*
X170156190Y-110386904D01*
X170060952Y-110339285D01*
X174442380Y-111863095D02*
X173442380Y-111863095D01*
X173442380Y-111625000D01*
X173490000Y-111482142D01*
X173585238Y-111386904D01*
X173680476Y-111339285D01*
X173870952Y-111291666D01*
X174013809Y-111291666D01*
X174204285Y-111339285D01*
X174299523Y-111386904D01*
X174394761Y-111482142D01*
X174442380Y-111625000D01*
X174442380Y-111863095D01*
X174442380Y-110339285D02*
X174442380Y-110910714D01*
X174442380Y-110625000D02*
X173442380Y-110625000D01*
X173585238Y-110720238D01*
X173680476Y-110815476D01*
X173728095Y-110910714D01*
X117507142Y-119737142D02*
X117459523Y-119784761D01*
X117316666Y-119832380D01*
X117221428Y-119832380D01*
X117078571Y-119784761D01*
X116983333Y-119689523D01*
X116935714Y-119594285D01*
X116888095Y-119403809D01*
X116888095Y-119260952D01*
X116935714Y-119070476D01*
X116983333Y-118975238D01*
X117078571Y-118880000D01*
X117221428Y-118832380D01*
X117316666Y-118832380D01*
X117459523Y-118880000D01*
X117507142Y-118927619D01*
X118459523Y-119832380D02*
X117888095Y-119832380D01*
X118173809Y-119832380D02*
X118173809Y-118832380D01*
X118078571Y-118975238D01*
X117983333Y-119070476D01*
X117888095Y-119118095D01*
X118935714Y-119832380D02*
X119126190Y-119832380D01*
X119221428Y-119784761D01*
X119269047Y-119737142D01*
X119364285Y-119594285D01*
X119411904Y-119403809D01*
X119411904Y-119022857D01*
X119364285Y-118927619D01*
X119316666Y-118880000D01*
X119221428Y-118832380D01*
X119030952Y-118832380D01*
X118935714Y-118880000D01*
X118888095Y-118927619D01*
X118840476Y-119022857D01*
X118840476Y-119260952D01*
X118888095Y-119356190D01*
X118935714Y-119403809D01*
X119030952Y-119451428D01*
X119221428Y-119451428D01*
X119316666Y-119403809D01*
X119364285Y-119356190D01*
X119411904Y-119260952D01*
X130127142Y-60047142D02*
X130079523Y-60094761D01*
X129936666Y-60142380D01*
X129841428Y-60142380D01*
X129698571Y-60094761D01*
X129603333Y-59999523D01*
X129555714Y-59904285D01*
X129508095Y-59713809D01*
X129508095Y-59570952D01*
X129555714Y-59380476D01*
X129603333Y-59285238D01*
X129698571Y-59190000D01*
X129841428Y-59142380D01*
X129936666Y-59142380D01*
X130079523Y-59190000D01*
X130127142Y-59237619D01*
X131079523Y-60142380D02*
X130508095Y-60142380D01*
X130793809Y-60142380D02*
X130793809Y-59142380D01*
X130698571Y-59285238D01*
X130603333Y-59380476D01*
X130508095Y-59428095D01*
X131650952Y-59570952D02*
X131555714Y-59523333D01*
X131508095Y-59475714D01*
X131460476Y-59380476D01*
X131460476Y-59332857D01*
X131508095Y-59237619D01*
X131555714Y-59190000D01*
X131650952Y-59142380D01*
X131841428Y-59142380D01*
X131936666Y-59190000D01*
X131984285Y-59237619D01*
X132031904Y-59332857D01*
X132031904Y-59380476D01*
X131984285Y-59475714D01*
X131936666Y-59523333D01*
X131841428Y-59570952D01*
X131650952Y-59570952D01*
X131555714Y-59618571D01*
X131508095Y-59666190D01*
X131460476Y-59761428D01*
X131460476Y-59951904D01*
X131508095Y-60047142D01*
X131555714Y-60094761D01*
X131650952Y-60142380D01*
X131841428Y-60142380D01*
X131936666Y-60094761D01*
X131984285Y-60047142D01*
X132031904Y-59951904D01*
X132031904Y-59761428D01*
X131984285Y-59666190D01*
X131936666Y-59618571D01*
X131841428Y-59570952D01*
X126452380Y-136103809D02*
X127452380Y-135865714D01*
X126738095Y-135675238D01*
X127452380Y-135484761D01*
X126452380Y-135246666D01*
X127452380Y-134865714D02*
X126452380Y-134865714D01*
X127452380Y-134389523D02*
X126452380Y-134389523D01*
X127452380Y-133818095D01*
X126452380Y-133818095D01*
X127357142Y-132770476D02*
X127404761Y-132818095D01*
X127452380Y-132960952D01*
X127452380Y-133056190D01*
X127404761Y-133199047D01*
X127309523Y-133294285D01*
X127214285Y-133341904D01*
X127023809Y-133389523D01*
X126880952Y-133389523D01*
X126690476Y-133341904D01*
X126595238Y-133294285D01*
X126500000Y-133199047D01*
X126452380Y-133056190D01*
X126452380Y-132960952D01*
X126500000Y-132818095D01*
X126547619Y-132770476D01*
X127452380Y-132341904D02*
X126452380Y-132341904D01*
X126928571Y-132341904D02*
X126928571Y-131770476D01*
X127452380Y-131770476D02*
X126452380Y-131770476D01*
X126452380Y-130341904D02*
X126452380Y-130151428D01*
X126500000Y-130056190D01*
X126595238Y-129960952D01*
X126785714Y-129913333D01*
X127119047Y-129913333D01*
X127309523Y-129960952D01*
X127404761Y-130056190D01*
X127452380Y-130151428D01*
X127452380Y-130341904D01*
X127404761Y-130437142D01*
X127309523Y-130532380D01*
X127119047Y-130580000D01*
X126785714Y-130580000D01*
X126595238Y-130532380D01*
X126500000Y-130437142D01*
X126452380Y-130341904D01*
X126452380Y-129484761D02*
X127261904Y-129484761D01*
X127357142Y-129437142D01*
X127404761Y-129389523D01*
X127452380Y-129294285D01*
X127452380Y-129103809D01*
X127404761Y-129008571D01*
X127357142Y-128960952D01*
X127261904Y-128913333D01*
X126452380Y-128913333D01*
X126452380Y-128580000D02*
X126452380Y-128008571D01*
X127452380Y-128294285D02*
X126452380Y-128294285D01*
X110935000Y-138882380D02*
X110935000Y-137882380D01*
X110935000Y-138358571D02*
X111506428Y-138358571D01*
X111506428Y-138882380D02*
X111506428Y-137882380D01*
X111982619Y-138358571D02*
X112315952Y-138358571D01*
X112458809Y-138882380D02*
X111982619Y-138882380D01*
X111982619Y-137882380D01*
X112458809Y-137882380D01*
X113363571Y-138882380D02*
X112887380Y-138882380D01*
X112887380Y-137882380D01*
X113696904Y-138882380D02*
X113696904Y-137882380D01*
X114030238Y-138596666D01*
X114363571Y-137882380D01*
X114363571Y-138882380D01*
X115601666Y-138882380D02*
X115601666Y-137882380D01*
X115982619Y-137882380D01*
X116077857Y-137930000D01*
X116125476Y-137977619D01*
X116173095Y-138072857D01*
X116173095Y-138215714D01*
X116125476Y-138310952D01*
X116077857Y-138358571D01*
X115982619Y-138406190D01*
X115601666Y-138406190D01*
X116792142Y-137882380D02*
X116982619Y-137882380D01*
X117077857Y-137930000D01*
X117173095Y-138025238D01*
X117220714Y-138215714D01*
X117220714Y-138549047D01*
X117173095Y-138739523D01*
X117077857Y-138834761D01*
X116982619Y-138882380D01*
X116792142Y-138882380D01*
X116696904Y-138834761D01*
X116601666Y-138739523D01*
X116554047Y-138549047D01*
X116554047Y-138215714D01*
X116601666Y-138025238D01*
X116696904Y-137930000D01*
X116792142Y-137882380D01*
X118220714Y-138882380D02*
X117887380Y-138406190D01*
X117649285Y-138882380D02*
X117649285Y-137882380D01*
X118030238Y-137882380D01*
X118125476Y-137930000D01*
X118173095Y-137977619D01*
X118220714Y-138072857D01*
X118220714Y-138215714D01*
X118173095Y-138310952D01*
X118125476Y-138358571D01*
X118030238Y-138406190D01*
X117649285Y-138406190D01*
X118506428Y-137882380D02*
X119077857Y-137882380D01*
X118792142Y-138882380D02*
X118792142Y-137882380D01*
X109767619Y-123642857D02*
X108767619Y-123880952D01*
X109481904Y-124071428D01*
X108767619Y-124261904D01*
X109767619Y-124500000D01*
X108767619Y-124880952D02*
X109767619Y-124880952D01*
X108767619Y-125357142D02*
X109767619Y-125357142D01*
X108767619Y-125928571D01*
X109767619Y-125928571D01*
X108862857Y-126976190D02*
X108815238Y-126928571D01*
X108767619Y-126785714D01*
X108767619Y-126690476D01*
X108815238Y-126547619D01*
X108910476Y-126452380D01*
X109005714Y-126404761D01*
X109196190Y-126357142D01*
X109339047Y-126357142D01*
X109529523Y-126404761D01*
X109624761Y-126452380D01*
X109720000Y-126547619D01*
X109767619Y-126690476D01*
X109767619Y-126785714D01*
X109720000Y-126928571D01*
X109672380Y-126976190D01*
X108767619Y-127404761D02*
X109767619Y-127404761D01*
X109291428Y-127404761D02*
X109291428Y-127976190D01*
X108767619Y-127976190D02*
X109767619Y-127976190D01*
X108767619Y-129214285D02*
X109767619Y-129214285D01*
X108767619Y-129690476D02*
X109767619Y-129690476D01*
X108767619Y-130261904D01*
X109767619Y-130261904D01*
X120046904Y-125817380D02*
X120046904Y-126531666D01*
X119999285Y-126674523D01*
X119904047Y-126769761D01*
X119761190Y-126817380D01*
X119665952Y-126817380D01*
X120665952Y-126245952D02*
X120570714Y-126198333D01*
X120523095Y-126150714D01*
X120475476Y-126055476D01*
X120475476Y-126007857D01*
X120523095Y-125912619D01*
X120570714Y-125865000D01*
X120665952Y-125817380D01*
X120856428Y-125817380D01*
X120951666Y-125865000D01*
X120999285Y-125912619D01*
X121046904Y-126007857D01*
X121046904Y-126055476D01*
X120999285Y-126150714D01*
X120951666Y-126198333D01*
X120856428Y-126245952D01*
X120665952Y-126245952D01*
X120570714Y-126293571D01*
X120523095Y-126341190D01*
X120475476Y-126436428D01*
X120475476Y-126626904D01*
X120523095Y-126722142D01*
X120570714Y-126769761D01*
X120665952Y-126817380D01*
X120856428Y-126817380D01*
X120951666Y-126769761D01*
X120999285Y-126722142D01*
X121046904Y-126626904D01*
X121046904Y-126436428D01*
X120999285Y-126341190D01*
X120951666Y-126293571D01*
X120856428Y-126245952D01*
X121427857Y-126531666D02*
X121904047Y-126531666D01*
X121332619Y-126817380D02*
X121665952Y-125817380D01*
X121999285Y-126817380D01*
X122856428Y-126817380D02*
X122285000Y-126817380D01*
X122570714Y-126817380D02*
X122570714Y-125817380D01*
X122475476Y-125960238D01*
X122380238Y-126055476D01*
X122285000Y-126103095D01*
X134080476Y-136977380D02*
X134080476Y-135977380D01*
X134413809Y-136691666D01*
X134747142Y-135977380D01*
X134747142Y-136977380D01*
X135413809Y-135977380D02*
X135604285Y-135977380D01*
X135699523Y-136025000D01*
X135794761Y-136120238D01*
X135842380Y-136310714D01*
X135842380Y-136644047D01*
X135794761Y-136834523D01*
X135699523Y-136929761D01*
X135604285Y-136977380D01*
X135413809Y-136977380D01*
X135318571Y-136929761D01*
X135223333Y-136834523D01*
X135175714Y-136644047D01*
X135175714Y-136310714D01*
X135223333Y-136120238D01*
X135318571Y-136025000D01*
X135413809Y-135977380D01*
X136270952Y-136977380D02*
X136270952Y-135977380D01*
X136509047Y-135977380D01*
X136651904Y-136025000D01*
X136747142Y-136120238D01*
X136794761Y-136215476D01*
X136842380Y-136405952D01*
X136842380Y-136548809D01*
X136794761Y-136739285D01*
X136747142Y-136834523D01*
X136651904Y-136929761D01*
X136509047Y-136977380D01*
X136270952Y-136977380D01*
X137270952Y-136453571D02*
X137604285Y-136453571D01*
X137747142Y-136977380D02*
X137270952Y-136977380D01*
X137270952Y-135977380D01*
X137747142Y-135977380D01*
X130897380Y-136882142D02*
X130849761Y-136929761D01*
X130706904Y-136977380D01*
X130611666Y-136977380D01*
X130468809Y-136929761D01*
X130373571Y-136834523D01*
X130325952Y-136739285D01*
X130278333Y-136548809D01*
X130278333Y-136405952D01*
X130325952Y-136215476D01*
X130373571Y-136120238D01*
X130468809Y-136025000D01*
X130611666Y-135977380D01*
X130706904Y-135977380D01*
X130849761Y-136025000D01*
X130897380Y-136072619D01*
X131183095Y-135977380D02*
X131754523Y-135977380D01*
X131468809Y-136977380D02*
X131468809Y-135977380D01*
X132040238Y-136929761D02*
X132183095Y-136977380D01*
X132421190Y-136977380D01*
X132516428Y-136929761D01*
X132564047Y-136882142D01*
X132611666Y-136786904D01*
X132611666Y-136691666D01*
X132564047Y-136596428D01*
X132516428Y-136548809D01*
X132421190Y-136501190D01*
X132230714Y-136453571D01*
X132135476Y-136405952D01*
X132087857Y-136358333D01*
X132040238Y-136263095D01*
X132040238Y-136167857D01*
X132087857Y-136072619D01*
X132135476Y-136025000D01*
X132230714Y-135977380D01*
X132468809Y-135977380D01*
X132611666Y-136025000D01*
X107402380Y-61293333D02*
X108116666Y-61293333D01*
X108259523Y-61340952D01*
X108354761Y-61436190D01*
X108402380Y-61579047D01*
X108402380Y-61674285D01*
X107402380Y-60388571D02*
X107402380Y-60579047D01*
X107450000Y-60674285D01*
X107497619Y-60721904D01*
X107640476Y-60817142D01*
X107830952Y-60864761D01*
X108211904Y-60864761D01*
X108307142Y-60817142D01*
X108354761Y-60769523D01*
X108402380Y-60674285D01*
X108402380Y-60483809D01*
X108354761Y-60388571D01*
X108307142Y-60340952D01*
X108211904Y-60293333D01*
X107973809Y-60293333D01*
X107878571Y-60340952D01*
X107830952Y-60388571D01*
X107783333Y-60483809D01*
X107783333Y-60674285D01*
X107830952Y-60769523D01*
X107878571Y-60817142D01*
X107973809Y-60864761D01*
X98147142Y-61650476D02*
X98194761Y-61698095D01*
X98242380Y-61840952D01*
X98242380Y-61936190D01*
X98194761Y-62079047D01*
X98099523Y-62174285D01*
X98004285Y-62221904D01*
X97813809Y-62269523D01*
X97670952Y-62269523D01*
X97480476Y-62221904D01*
X97385238Y-62174285D01*
X97290000Y-62079047D01*
X97242380Y-61936190D01*
X97242380Y-61840952D01*
X97290000Y-61698095D01*
X97337619Y-61650476D01*
X98242380Y-61221904D02*
X97242380Y-61221904D01*
X97718571Y-61221904D02*
X97718571Y-60650476D01*
X98242380Y-60650476D02*
X97242380Y-60650476D01*
X97337619Y-60221904D02*
X97290000Y-60174285D01*
X97242380Y-60079047D01*
X97242380Y-59840952D01*
X97290000Y-59745714D01*
X97337619Y-59698095D01*
X97432857Y-59650476D01*
X97528095Y-59650476D01*
X97670952Y-59698095D01*
X98242380Y-60269523D01*
X98242380Y-59650476D01*
X107402380Y-56848333D02*
X108116666Y-56848333D01*
X108259523Y-56895952D01*
X108354761Y-56991190D01*
X108402380Y-57134047D01*
X108402380Y-57229285D01*
X107402380Y-55895952D02*
X107402380Y-56372142D01*
X107878571Y-56419761D01*
X107830952Y-56372142D01*
X107783333Y-56276904D01*
X107783333Y-56038809D01*
X107830952Y-55943571D01*
X107878571Y-55895952D01*
X107973809Y-55848333D01*
X108211904Y-55848333D01*
X108307142Y-55895952D01*
X108354761Y-55943571D01*
X108402380Y-56038809D01*
X108402380Y-56276904D01*
X108354761Y-56372142D01*
X108307142Y-56419761D01*
X98147142Y-57205476D02*
X98194761Y-57253095D01*
X98242380Y-57395952D01*
X98242380Y-57491190D01*
X98194761Y-57634047D01*
X98099523Y-57729285D01*
X98004285Y-57776904D01*
X97813809Y-57824523D01*
X97670952Y-57824523D01*
X97480476Y-57776904D01*
X97385238Y-57729285D01*
X97290000Y-57634047D01*
X97242380Y-57491190D01*
X97242380Y-57395952D01*
X97290000Y-57253095D01*
X97337619Y-57205476D01*
X98242380Y-56776904D02*
X97242380Y-56776904D01*
X97718571Y-56776904D02*
X97718571Y-56205476D01*
X98242380Y-56205476D02*
X97242380Y-56205476D01*
X98242380Y-55205476D02*
X98242380Y-55776904D01*
X98242380Y-55491190D02*
X97242380Y-55491190D01*
X97385238Y-55586428D01*
X97480476Y-55681666D01*
X97528095Y-55776904D01*
X140160476Y-113752380D02*
X140827142Y-114752380D01*
X140827142Y-113752380D02*
X140160476Y-114752380D01*
X141731904Y-114752380D02*
X141160476Y-114752380D01*
X141446190Y-114752380D02*
X141446190Y-113752380D01*
X141350952Y-113895238D01*
X141255714Y-113990476D01*
X141160476Y-114038095D01*
X147407380Y-132206904D02*
X148216904Y-132206904D01*
X148312142Y-132159285D01*
X148359761Y-132111666D01*
X148407380Y-132016428D01*
X148407380Y-131825952D01*
X148359761Y-131730714D01*
X148312142Y-131683095D01*
X148216904Y-131635476D01*
X147407380Y-131635476D01*
X147407380Y-131254523D02*
X147407380Y-130635476D01*
X147788333Y-130968809D01*
X147788333Y-130825952D01*
X147835952Y-130730714D01*
X147883571Y-130683095D01*
X147978809Y-130635476D01*
X148216904Y-130635476D01*
X148312142Y-130683095D01*
X148359761Y-130730714D01*
X148407380Y-130825952D01*
X148407380Y-131111666D01*
X148359761Y-131206904D01*
X148312142Y-131254523D01*
X147193095Y-64857380D02*
X147193095Y-65666904D01*
X147240714Y-65762142D01*
X147288333Y-65809761D01*
X147383571Y-65857380D01*
X147574047Y-65857380D01*
X147669285Y-65809761D01*
X147716904Y-65762142D01*
X147764523Y-65666904D01*
X147764523Y-64857380D01*
X148764523Y-65857380D02*
X148193095Y-65857380D01*
X148478809Y-65857380D02*
X148478809Y-64857380D01*
X148383571Y-65000238D01*
X148288333Y-65095476D01*
X148193095Y-65143095D01*
X140542380Y-74747380D02*
X140542380Y-73747380D01*
X140542380Y-74223571D02*
X141113809Y-74223571D01*
X141113809Y-74747380D02*
X141113809Y-73747380D01*
X141970952Y-74699761D02*
X141875714Y-74747380D01*
X141685238Y-74747380D01*
X141590000Y-74699761D01*
X141542380Y-74604523D01*
X141542380Y-74223571D01*
X141590000Y-74128333D01*
X141685238Y-74080714D01*
X141875714Y-74080714D01*
X141970952Y-74128333D01*
X142018571Y-74223571D01*
X142018571Y-74318809D01*
X141542380Y-74414047D01*
X142590000Y-74747380D02*
X142494761Y-74699761D01*
X142447142Y-74604523D01*
X142447142Y-73747380D01*
X142970952Y-74747380D02*
X142970952Y-74080714D01*
X142970952Y-74175952D02*
X143018571Y-74128333D01*
X143113809Y-74080714D01*
X143256666Y-74080714D01*
X143351904Y-74128333D01*
X143399523Y-74223571D01*
X143399523Y-74747380D01*
X143399523Y-74223571D02*
X143447142Y-74128333D01*
X143542380Y-74080714D01*
X143685238Y-74080714D01*
X143780476Y-74128333D01*
X143828095Y-74223571D01*
X143828095Y-74747380D01*
X145066190Y-74080714D02*
X145066190Y-75080714D01*
X145066190Y-74128333D02*
X145161428Y-74080714D01*
X145351904Y-74080714D01*
X145447142Y-74128333D01*
X145494761Y-74175952D01*
X145542380Y-74271190D01*
X145542380Y-74556904D01*
X145494761Y-74652142D01*
X145447142Y-74699761D01*
X145351904Y-74747380D01*
X145161428Y-74747380D01*
X145066190Y-74699761D01*
X145970952Y-74747380D02*
X145970952Y-74080714D01*
X145970952Y-74271190D02*
X146018571Y-74175952D01*
X146066190Y-74128333D01*
X146161428Y-74080714D01*
X146256666Y-74080714D01*
X146970952Y-74699761D02*
X146875714Y-74747380D01*
X146685238Y-74747380D01*
X146590000Y-74699761D01*
X146542380Y-74604523D01*
X146542380Y-74223571D01*
X146590000Y-74128333D01*
X146685238Y-74080714D01*
X146875714Y-74080714D01*
X146970952Y-74128333D01*
X147018571Y-74223571D01*
X147018571Y-74318809D01*
X146542380Y-74414047D01*
X147399523Y-74699761D02*
X147494761Y-74747380D01*
X147685238Y-74747380D01*
X147780476Y-74699761D01*
X147828095Y-74604523D01*
X147828095Y-74556904D01*
X147780476Y-74461666D01*
X147685238Y-74414047D01*
X147542380Y-74414047D01*
X147447142Y-74366428D01*
X147399523Y-74271190D01*
X147399523Y-74223571D01*
X147447142Y-74128333D01*
X147542380Y-74080714D01*
X147685238Y-74080714D01*
X147780476Y-74128333D01*
X148209047Y-74699761D02*
X148304285Y-74747380D01*
X148494761Y-74747380D01*
X148590000Y-74699761D01*
X148637619Y-74604523D01*
X148637619Y-74556904D01*
X148590000Y-74461666D01*
X148494761Y-74414047D01*
X148351904Y-74414047D01*
X148256666Y-74366428D01*
X148209047Y-74271190D01*
X148209047Y-74223571D01*
X148256666Y-74128333D01*
X148351904Y-74080714D01*
X148494761Y-74080714D01*
X148590000Y-74128333D01*
X149494761Y-74080714D02*
X149494761Y-74747380D01*
X149066190Y-74080714D02*
X149066190Y-74604523D01*
X149113809Y-74699761D01*
X149209047Y-74747380D01*
X149351904Y-74747380D01*
X149447142Y-74699761D01*
X149494761Y-74652142D01*
X149970952Y-74747380D02*
X149970952Y-74080714D01*
X149970952Y-74271190D02*
X150018571Y-74175952D01*
X150066190Y-74128333D01*
X150161428Y-74080714D01*
X150256666Y-74080714D01*
X150970952Y-74699761D02*
X150875714Y-74747380D01*
X150685238Y-74747380D01*
X150590000Y-74699761D01*
X150542380Y-74604523D01*
X150542380Y-74223571D01*
X150590000Y-74128333D01*
X150685238Y-74080714D01*
X150875714Y-74080714D01*
X150970952Y-74128333D01*
X151018571Y-74223571D01*
X151018571Y-74318809D01*
X150542380Y-74414047D01*
X152161428Y-74699761D02*
X152256666Y-74747380D01*
X152447142Y-74747380D01*
X152542380Y-74699761D01*
X152590000Y-74604523D01*
X152590000Y-74556904D01*
X152542380Y-74461666D01*
X152447142Y-74414047D01*
X152304285Y-74414047D01*
X152209047Y-74366428D01*
X152161428Y-74271190D01*
X152161428Y-74223571D01*
X152209047Y-74128333D01*
X152304285Y-74080714D01*
X152447142Y-74080714D01*
X152542380Y-74128333D01*
X153399523Y-74699761D02*
X153304285Y-74747380D01*
X153113809Y-74747380D01*
X153018571Y-74699761D01*
X152970952Y-74604523D01*
X152970952Y-74223571D01*
X153018571Y-74128333D01*
X153113809Y-74080714D01*
X153304285Y-74080714D01*
X153399523Y-74128333D01*
X153447142Y-74223571D01*
X153447142Y-74318809D01*
X152970952Y-74414047D01*
X153875714Y-74080714D02*
X153875714Y-74747380D01*
X153875714Y-74175952D02*
X153923333Y-74128333D01*
X154018571Y-74080714D01*
X154161428Y-74080714D01*
X154256666Y-74128333D01*
X154304285Y-74223571D01*
X154304285Y-74747380D01*
X154732857Y-74699761D02*
X154828095Y-74747380D01*
X155018571Y-74747380D01*
X155113809Y-74699761D01*
X155161428Y-74604523D01*
X155161428Y-74556904D01*
X155113809Y-74461666D01*
X155018571Y-74414047D01*
X154875714Y-74414047D01*
X154780476Y-74366428D01*
X154732857Y-74271190D01*
X154732857Y-74223571D01*
X154780476Y-74128333D01*
X154875714Y-74080714D01*
X155018571Y-74080714D01*
X155113809Y-74128333D01*
X155732857Y-74747380D02*
X155637619Y-74699761D01*
X155590000Y-74652142D01*
X155542380Y-74556904D01*
X155542380Y-74271190D01*
X155590000Y-74175952D01*
X155637619Y-74128333D01*
X155732857Y-74080714D01*
X155875714Y-74080714D01*
X155970952Y-74128333D01*
X156018571Y-74175952D01*
X156066190Y-74271190D01*
X156066190Y-74556904D01*
X156018571Y-74652142D01*
X155970952Y-74699761D01*
X155875714Y-74747380D01*
X155732857Y-74747380D01*
X156494761Y-74747380D02*
X156494761Y-74080714D01*
X156494761Y-74271190D02*
X156542380Y-74175952D01*
X156590000Y-74128333D01*
X156685238Y-74080714D01*
X156780476Y-74080714D01*
X166362142Y-131167142D02*
X166314523Y-131214761D01*
X166171666Y-131262380D01*
X166076428Y-131262380D01*
X165933571Y-131214761D01*
X165838333Y-131119523D01*
X165790714Y-131024285D01*
X165743095Y-130833809D01*
X165743095Y-130690952D01*
X165790714Y-130500476D01*
X165838333Y-130405238D01*
X165933571Y-130310000D01*
X166076428Y-130262380D01*
X166171666Y-130262380D01*
X166314523Y-130310000D01*
X166362142Y-130357619D01*
X167314523Y-131262380D02*
X166743095Y-131262380D01*
X167028809Y-131262380D02*
X167028809Y-130262380D01*
X166933571Y-130405238D01*
X166838333Y-130500476D01*
X166743095Y-130548095D01*
X168266904Y-131262380D02*
X167695476Y-131262380D01*
X167981190Y-131262380D02*
X167981190Y-130262380D01*
X167885952Y-130405238D01*
X167790714Y-130500476D01*
X167695476Y-130548095D01*
X148526666Y-56284761D02*
X148669523Y-56332380D01*
X148907619Y-56332380D01*
X149002857Y-56284761D01*
X149050476Y-56237142D01*
X149098095Y-56141904D01*
X149098095Y-56046666D01*
X149050476Y-55951428D01*
X149002857Y-55903809D01*
X148907619Y-55856190D01*
X148717142Y-55808571D01*
X148621904Y-55760952D01*
X148574285Y-55713333D01*
X148526666Y-55618095D01*
X148526666Y-55522857D01*
X148574285Y-55427619D01*
X148621904Y-55380000D01*
X148717142Y-55332380D01*
X148955238Y-55332380D01*
X149098095Y-55380000D01*
X149431428Y-55332380D02*
X149669523Y-56332380D01*
X149860000Y-55618095D01*
X150050476Y-56332380D01*
X150288571Y-55332380D01*
X150621904Y-55427619D02*
X150669523Y-55380000D01*
X150764761Y-55332380D01*
X151002857Y-55332380D01*
X151098095Y-55380000D01*
X151145714Y-55427619D01*
X151193333Y-55522857D01*
X151193333Y-55618095D01*
X151145714Y-55760952D01*
X150574285Y-56332380D01*
X151193333Y-56332380D01*
X136160238Y-59507380D02*
X136160238Y-58507380D01*
X136541190Y-58507380D01*
X136636428Y-58555000D01*
X136684047Y-58602619D01*
X136731666Y-58697857D01*
X136731666Y-58840714D01*
X136684047Y-58935952D01*
X136636428Y-58983571D01*
X136541190Y-59031190D01*
X136160238Y-59031190D01*
X137160238Y-59507380D02*
X137160238Y-58840714D01*
X137160238Y-59031190D02*
X137207857Y-58935952D01*
X137255476Y-58888333D01*
X137350714Y-58840714D01*
X137445952Y-58840714D01*
X137922142Y-59507380D02*
X137826904Y-59459761D01*
X137779285Y-59412142D01*
X137731666Y-59316904D01*
X137731666Y-59031190D01*
X137779285Y-58935952D01*
X137826904Y-58888333D01*
X137922142Y-58840714D01*
X138065000Y-58840714D01*
X138160238Y-58888333D01*
X138207857Y-58935952D01*
X138255476Y-59031190D01*
X138255476Y-59316904D01*
X138207857Y-59412142D01*
X138160238Y-59459761D01*
X138065000Y-59507380D01*
X137922142Y-59507380D01*
X139112619Y-58840714D02*
X139112619Y-59650238D01*
X139065000Y-59745476D01*
X139017380Y-59793095D01*
X138922142Y-59840714D01*
X138779285Y-59840714D01*
X138684047Y-59793095D01*
X139112619Y-59459761D02*
X139017380Y-59507380D01*
X138826904Y-59507380D01*
X138731666Y-59459761D01*
X138684047Y-59412142D01*
X138636428Y-59316904D01*
X138636428Y-59031190D01*
X138684047Y-58935952D01*
X138731666Y-58888333D01*
X138826904Y-58840714D01*
X139017380Y-58840714D01*
X139112619Y-58888333D01*
X139588809Y-59507380D02*
X139588809Y-58840714D01*
X139588809Y-59031190D02*
X139636428Y-58935952D01*
X139684047Y-58888333D01*
X139779285Y-58840714D01*
X139874523Y-58840714D01*
X140636428Y-59507380D02*
X140636428Y-58983571D01*
X140588809Y-58888333D01*
X140493571Y-58840714D01*
X140303095Y-58840714D01*
X140207857Y-58888333D01*
X140636428Y-59459761D02*
X140541190Y-59507380D01*
X140303095Y-59507380D01*
X140207857Y-59459761D01*
X140160238Y-59364523D01*
X140160238Y-59269285D01*
X140207857Y-59174047D01*
X140303095Y-59126428D01*
X140541190Y-59126428D01*
X140636428Y-59078809D01*
X141112619Y-59507380D02*
X141112619Y-58840714D01*
X141112619Y-58935952D02*
X141160238Y-58888333D01*
X141255476Y-58840714D01*
X141398333Y-58840714D01*
X141493571Y-58888333D01*
X141541190Y-58983571D01*
X141541190Y-59507380D01*
X141541190Y-58983571D02*
X141588809Y-58888333D01*
X141684047Y-58840714D01*
X141826904Y-58840714D01*
X141922142Y-58888333D01*
X141969761Y-58983571D01*
X141969761Y-59507380D01*
X148312142Y-117006666D02*
X148359761Y-117054285D01*
X148407380Y-117197142D01*
X148407380Y-117292380D01*
X148359761Y-117435238D01*
X148264523Y-117530476D01*
X148169285Y-117578095D01*
X147978809Y-117625714D01*
X147835952Y-117625714D01*
X147645476Y-117578095D01*
X147550238Y-117530476D01*
X147455000Y-117435238D01*
X147407380Y-117292380D01*
X147407380Y-117197142D01*
X147455000Y-117054285D01*
X147502619Y-117006666D01*
X147407380Y-116673333D02*
X147407380Y-116006666D01*
X148407380Y-116435238D01*
X134342142Y-117006666D02*
X134389761Y-117054285D01*
X134437380Y-117197142D01*
X134437380Y-117292380D01*
X134389761Y-117435238D01*
X134294523Y-117530476D01*
X134199285Y-117578095D01*
X134008809Y-117625714D01*
X133865952Y-117625714D01*
X133675476Y-117578095D01*
X133580238Y-117530476D01*
X133485000Y-117435238D01*
X133437380Y-117292380D01*
X133437380Y-117197142D01*
X133485000Y-117054285D01*
X133532619Y-117006666D01*
X133865952Y-116435238D02*
X133818333Y-116530476D01*
X133770714Y-116578095D01*
X133675476Y-116625714D01*
X133627857Y-116625714D01*
X133532619Y-116578095D01*
X133485000Y-116530476D01*
X133437380Y-116435238D01*
X133437380Y-116244761D01*
X133485000Y-116149523D01*
X133532619Y-116101904D01*
X133627857Y-116054285D01*
X133675476Y-116054285D01*
X133770714Y-116101904D01*
X133818333Y-116149523D01*
X133865952Y-116244761D01*
X133865952Y-116435238D01*
X133913571Y-116530476D01*
X133961190Y-116578095D01*
X134056428Y-116625714D01*
X134246904Y-116625714D01*
X134342142Y-116578095D01*
X134389761Y-116530476D01*
X134437380Y-116435238D01*
X134437380Y-116244761D01*
X134389761Y-116149523D01*
X134342142Y-116101904D01*
X134246904Y-116054285D01*
X134056428Y-116054285D01*
X133961190Y-116101904D01*
X133913571Y-116149523D01*
X133865952Y-116244761D01*
X181443333Y-78462142D02*
X181395714Y-78509761D01*
X181252857Y-78557380D01*
X181157619Y-78557380D01*
X181014761Y-78509761D01*
X180919523Y-78414523D01*
X180871904Y-78319285D01*
X180824285Y-78128809D01*
X180824285Y-77985952D01*
X180871904Y-77795476D01*
X180919523Y-77700238D01*
X181014761Y-77605000D01*
X181157619Y-77557380D01*
X181252857Y-77557380D01*
X181395714Y-77605000D01*
X181443333Y-77652619D01*
X181919523Y-78557380D02*
X182110000Y-78557380D01*
X182205238Y-78509761D01*
X182252857Y-78462142D01*
X182348095Y-78319285D01*
X182395714Y-78128809D01*
X182395714Y-77747857D01*
X182348095Y-77652619D01*
X182300476Y-77605000D01*
X182205238Y-77557380D01*
X182014761Y-77557380D01*
X181919523Y-77605000D01*
X181871904Y-77652619D01*
X181824285Y-77747857D01*
X181824285Y-77985952D01*
X181871904Y-78081190D01*
X181919523Y-78128809D01*
X182014761Y-78176428D01*
X182205238Y-78176428D01*
X182300476Y-78128809D01*
X182348095Y-78081190D01*
X182395714Y-77985952D01*
X163187142Y-58777142D02*
X163139523Y-58824761D01*
X162996666Y-58872380D01*
X162901428Y-58872380D01*
X162758571Y-58824761D01*
X162663333Y-58729523D01*
X162615714Y-58634285D01*
X162568095Y-58443809D01*
X162568095Y-58300952D01*
X162615714Y-58110476D01*
X162663333Y-58015238D01*
X162758571Y-57920000D01*
X162901428Y-57872380D01*
X162996666Y-57872380D01*
X163139523Y-57920000D01*
X163187142Y-57967619D01*
X164139523Y-58872380D02*
X163568095Y-58872380D01*
X163853809Y-58872380D02*
X163853809Y-57872380D01*
X163758571Y-58015238D01*
X163663333Y-58110476D01*
X163568095Y-58158095D01*
X164758571Y-57872380D02*
X164853809Y-57872380D01*
X164949047Y-57920000D01*
X164996666Y-57967619D01*
X165044285Y-58062857D01*
X165091904Y-58253333D01*
X165091904Y-58491428D01*
X165044285Y-58681904D01*
X164996666Y-58777142D01*
X164949047Y-58824761D01*
X164853809Y-58872380D01*
X164758571Y-58872380D01*
X164663333Y-58824761D01*
X164615714Y-58777142D01*
X164568095Y-58681904D01*
X164520476Y-58491428D01*
X164520476Y-58253333D01*
X164568095Y-58062857D01*
X164615714Y-57967619D01*
X164663333Y-57920000D01*
X164758571Y-57872380D01*
X140327142Y-98782142D02*
X140279523Y-98829761D01*
X140136666Y-98877380D01*
X140041428Y-98877380D01*
X139898571Y-98829761D01*
X139803333Y-98734523D01*
X139755714Y-98639285D01*
X139708095Y-98448809D01*
X139708095Y-98305952D01*
X139755714Y-98115476D01*
X139803333Y-98020238D01*
X139898571Y-97925000D01*
X140041428Y-97877380D01*
X140136666Y-97877380D01*
X140279523Y-97925000D01*
X140327142Y-97972619D01*
X141279523Y-98877380D02*
X140708095Y-98877380D01*
X140993809Y-98877380D02*
X140993809Y-97877380D01*
X140898571Y-98020238D01*
X140803333Y-98115476D01*
X140708095Y-98163095D01*
X141660476Y-97972619D02*
X141708095Y-97925000D01*
X141803333Y-97877380D01*
X142041428Y-97877380D01*
X142136666Y-97925000D01*
X142184285Y-97972619D01*
X142231904Y-98067857D01*
X142231904Y-98163095D01*
X142184285Y-98305952D01*
X141612857Y-98877380D01*
X142231904Y-98877380D01*
X139692142Y-119102142D02*
X139644523Y-119149761D01*
X139501666Y-119197380D01*
X139406428Y-119197380D01*
X139263571Y-119149761D01*
X139168333Y-119054523D01*
X139120714Y-118959285D01*
X139073095Y-118768809D01*
X139073095Y-118625952D01*
X139120714Y-118435476D01*
X139168333Y-118340238D01*
X139263571Y-118245000D01*
X139406428Y-118197380D01*
X139501666Y-118197380D01*
X139644523Y-118245000D01*
X139692142Y-118292619D01*
X140644523Y-119197380D02*
X140073095Y-119197380D01*
X140358809Y-119197380D02*
X140358809Y-118197380D01*
X140263571Y-118340238D01*
X140168333Y-118435476D01*
X140073095Y-118483095D01*
X140977857Y-118197380D02*
X141596904Y-118197380D01*
X141263571Y-118578333D01*
X141406428Y-118578333D01*
X141501666Y-118625952D01*
X141549285Y-118673571D01*
X141596904Y-118768809D01*
X141596904Y-119006904D01*
X141549285Y-119102142D01*
X141501666Y-119149761D01*
X141406428Y-119197380D01*
X141120714Y-119197380D01*
X141025476Y-119149761D01*
X140977857Y-119102142D01*
X98242380Y-75135952D02*
X97242380Y-75135952D01*
X97718571Y-75135952D02*
X97718571Y-74564523D01*
X98242380Y-74564523D02*
X97242380Y-74564523D01*
X98194761Y-73707380D02*
X98242380Y-73802619D01*
X98242380Y-73993095D01*
X98194761Y-74088333D01*
X98099523Y-74135952D01*
X97718571Y-74135952D01*
X97623333Y-74088333D01*
X97575714Y-73993095D01*
X97575714Y-73802619D01*
X97623333Y-73707380D01*
X97718571Y-73659761D01*
X97813809Y-73659761D01*
X97909047Y-74135952D01*
X98242380Y-72802619D02*
X97718571Y-72802619D01*
X97623333Y-72850238D01*
X97575714Y-72945476D01*
X97575714Y-73135952D01*
X97623333Y-73231190D01*
X98194761Y-72802619D02*
X98242380Y-72897857D01*
X98242380Y-73135952D01*
X98194761Y-73231190D01*
X98099523Y-73278809D01*
X98004285Y-73278809D01*
X97909047Y-73231190D01*
X97861428Y-73135952D01*
X97861428Y-72897857D01*
X97813809Y-72802619D01*
X98242380Y-72326428D02*
X97575714Y-72326428D01*
X97766190Y-72326428D02*
X97670952Y-72278809D01*
X97623333Y-72231190D01*
X97575714Y-72135952D01*
X97575714Y-72040714D01*
X97575714Y-71850238D02*
X97575714Y-71469285D01*
X97242380Y-71707380D02*
X98099523Y-71707380D01*
X98194761Y-71659761D01*
X98242380Y-71564523D01*
X98242380Y-71469285D01*
X98242380Y-71135952D02*
X97242380Y-71135952D01*
X97623333Y-71135952D02*
X97575714Y-71040714D01*
X97575714Y-70850238D01*
X97623333Y-70755000D01*
X97670952Y-70707380D01*
X97766190Y-70659761D01*
X98051904Y-70659761D01*
X98147142Y-70707380D01*
X98194761Y-70755000D01*
X98242380Y-70850238D01*
X98242380Y-71040714D01*
X98194761Y-71135952D01*
X98194761Y-69850238D02*
X98242380Y-69945476D01*
X98242380Y-70135952D01*
X98194761Y-70231190D01*
X98099523Y-70278809D01*
X97718571Y-70278809D01*
X97623333Y-70231190D01*
X97575714Y-70135952D01*
X97575714Y-69945476D01*
X97623333Y-69850238D01*
X97718571Y-69802619D01*
X97813809Y-69802619D01*
X97909047Y-70278809D01*
X98242380Y-68945476D02*
X97718571Y-68945476D01*
X97623333Y-68993095D01*
X97575714Y-69088333D01*
X97575714Y-69278809D01*
X97623333Y-69374047D01*
X98194761Y-68945476D02*
X98242380Y-69040714D01*
X98242380Y-69278809D01*
X98194761Y-69374047D01*
X98099523Y-69421666D01*
X98004285Y-69421666D01*
X97909047Y-69374047D01*
X97861428Y-69278809D01*
X97861428Y-69040714D01*
X97813809Y-68945476D01*
X97575714Y-68612142D02*
X97575714Y-68231190D01*
X97242380Y-68469285D02*
X98099523Y-68469285D01*
X98194761Y-68421666D01*
X98242380Y-68326428D01*
X98242380Y-68231190D01*
X97242380Y-100250238D02*
X98242380Y-100012142D01*
X97528095Y-99821666D01*
X98242380Y-99631190D01*
X97242380Y-99393095D01*
X98242380Y-99012142D02*
X97575714Y-99012142D01*
X97242380Y-99012142D02*
X97290000Y-99059761D01*
X97337619Y-99012142D01*
X97290000Y-98964523D01*
X97242380Y-99012142D01*
X97337619Y-99012142D01*
X97575714Y-98535952D02*
X98242380Y-98535952D01*
X97670952Y-98535952D02*
X97623333Y-98488333D01*
X97575714Y-98393095D01*
X97575714Y-98250238D01*
X97623333Y-98155000D01*
X97718571Y-98107380D01*
X98242380Y-98107380D01*
X98242380Y-97202619D02*
X97242380Y-97202619D01*
X98194761Y-97202619D02*
X98242380Y-97297857D01*
X98242380Y-97488333D01*
X98194761Y-97583571D01*
X98147142Y-97631190D01*
X98051904Y-97678809D01*
X97766190Y-97678809D01*
X97670952Y-97631190D01*
X97623333Y-97583571D01*
X97575714Y-97488333D01*
X97575714Y-97297857D01*
X97623333Y-97202619D01*
X98242380Y-96583571D02*
X98194761Y-96678809D01*
X98099523Y-96726428D01*
X97242380Y-96726428D01*
X98242380Y-95774047D02*
X97718571Y-95774047D01*
X97623333Y-95821666D01*
X97575714Y-95916904D01*
X97575714Y-96107380D01*
X97623333Y-96202619D01*
X98194761Y-95774047D02*
X98242380Y-95869285D01*
X98242380Y-96107380D01*
X98194761Y-96202619D01*
X98099523Y-96250238D01*
X98004285Y-96250238D01*
X97909047Y-96202619D01*
X97861428Y-96107380D01*
X97861428Y-95869285D01*
X97813809Y-95774047D01*
X98194761Y-95345476D02*
X98242380Y-95250238D01*
X98242380Y-95059761D01*
X98194761Y-94964523D01*
X98099523Y-94916904D01*
X98051904Y-94916904D01*
X97956666Y-94964523D01*
X97909047Y-95059761D01*
X97909047Y-95202619D01*
X97861428Y-95297857D01*
X97766190Y-95345476D01*
X97718571Y-95345476D01*
X97623333Y-95297857D01*
X97575714Y-95202619D01*
X97575714Y-95059761D01*
X97623333Y-94964523D01*
X98194761Y-94535952D02*
X98242380Y-94440714D01*
X98242380Y-94250238D01*
X98194761Y-94155000D01*
X98099523Y-94107380D01*
X98051904Y-94107380D01*
X97956666Y-94155000D01*
X97909047Y-94250238D01*
X97909047Y-94393095D01*
X97861428Y-94488333D01*
X97766190Y-94535952D01*
X97718571Y-94535952D01*
X97623333Y-94488333D01*
X97575714Y-94393095D01*
X97575714Y-94250238D01*
X97623333Y-94155000D01*
X97718571Y-112402619D02*
X97766190Y-112259761D01*
X97813809Y-112212142D01*
X97909047Y-112164523D01*
X98051904Y-112164523D01*
X98147142Y-112212142D01*
X98194761Y-112259761D01*
X98242380Y-112355000D01*
X98242380Y-112735952D01*
X97242380Y-112735952D01*
X97242380Y-112402619D01*
X97290000Y-112307380D01*
X97337619Y-112259761D01*
X97432857Y-112212142D01*
X97528095Y-112212142D01*
X97623333Y-112259761D01*
X97670952Y-112307380D01*
X97718571Y-112402619D01*
X97718571Y-112735952D01*
X98242380Y-111307380D02*
X97718571Y-111307380D01*
X97623333Y-111355000D01*
X97575714Y-111450238D01*
X97575714Y-111640714D01*
X97623333Y-111735952D01*
X98194761Y-111307380D02*
X98242380Y-111402619D01*
X98242380Y-111640714D01*
X98194761Y-111735952D01*
X98099523Y-111783571D01*
X98004285Y-111783571D01*
X97909047Y-111735952D01*
X97861428Y-111640714D01*
X97861428Y-111402619D01*
X97813809Y-111307380D01*
X97575714Y-110974047D02*
X97575714Y-110593095D01*
X97242380Y-110831190D02*
X98099523Y-110831190D01*
X98194761Y-110783571D01*
X98242380Y-110688333D01*
X98242380Y-110593095D01*
X98242380Y-109021666D02*
X98242380Y-109497857D01*
X97242380Y-109497857D01*
X97242380Y-108497857D02*
X97242380Y-108307380D01*
X97290000Y-108212142D01*
X97385238Y-108116904D01*
X97575714Y-108069285D01*
X97909047Y-108069285D01*
X98099523Y-108116904D01*
X98194761Y-108212142D01*
X98242380Y-108307380D01*
X98242380Y-108497857D01*
X98194761Y-108593095D01*
X98099523Y-108688333D01*
X97909047Y-108735952D01*
X97575714Y-108735952D01*
X97385238Y-108688333D01*
X97290000Y-108593095D01*
X97242380Y-108497857D01*
X97242380Y-107735952D02*
X98242380Y-107497857D01*
X97528095Y-107307380D01*
X98242380Y-107116904D01*
X97242380Y-106878809D01*
X98242380Y-126951904D02*
X97766190Y-127285238D01*
X98242380Y-127523333D02*
X97242380Y-127523333D01*
X97242380Y-127142380D01*
X97290000Y-127047142D01*
X97337619Y-126999523D01*
X97432857Y-126951904D01*
X97575714Y-126951904D01*
X97670952Y-126999523D01*
X97718571Y-127047142D01*
X97766190Y-127142380D01*
X97766190Y-127523333D01*
X98194761Y-126142380D02*
X98242380Y-126237619D01*
X98242380Y-126428095D01*
X98194761Y-126523333D01*
X98099523Y-126570952D01*
X97718571Y-126570952D01*
X97623333Y-126523333D01*
X97575714Y-126428095D01*
X97575714Y-126237619D01*
X97623333Y-126142380D01*
X97718571Y-126094761D01*
X97813809Y-126094761D01*
X97909047Y-126570952D01*
X97575714Y-125761428D02*
X98242380Y-125523333D01*
X97575714Y-125285238D01*
X98242380Y-124142380D02*
X97242380Y-124142380D01*
X97242380Y-123761428D01*
X97290000Y-123666190D01*
X97337619Y-123618571D01*
X97432857Y-123570952D01*
X97575714Y-123570952D01*
X97670952Y-123618571D01*
X97718571Y-123666190D01*
X97766190Y-123761428D01*
X97766190Y-124142380D01*
X98242380Y-122999523D02*
X98194761Y-123094761D01*
X98147142Y-123142380D01*
X98051904Y-123190000D01*
X97766190Y-123190000D01*
X97670952Y-123142380D01*
X97623333Y-123094761D01*
X97575714Y-122999523D01*
X97575714Y-122856666D01*
X97623333Y-122761428D01*
X97670952Y-122713809D01*
X97766190Y-122666190D01*
X98051904Y-122666190D01*
X98147142Y-122713809D01*
X98194761Y-122761428D01*
X98242380Y-122856666D01*
X98242380Y-122999523D01*
X98242380Y-122094761D02*
X98194761Y-122190000D01*
X98099523Y-122237619D01*
X97242380Y-122237619D01*
X98242380Y-121285238D02*
X97718571Y-121285238D01*
X97623333Y-121332857D01*
X97575714Y-121428095D01*
X97575714Y-121618571D01*
X97623333Y-121713809D01*
X98194761Y-121285238D02*
X98242380Y-121380476D01*
X98242380Y-121618571D01*
X98194761Y-121713809D01*
X98099523Y-121761428D01*
X98004285Y-121761428D01*
X97909047Y-121713809D01*
X97861428Y-121618571D01*
X97861428Y-121380476D01*
X97813809Y-121285238D01*
X98242380Y-120809047D02*
X97575714Y-120809047D01*
X97766190Y-120809047D02*
X97670952Y-120761428D01*
X97623333Y-120713809D01*
X97575714Y-120618571D01*
X97575714Y-120523333D01*
X98242380Y-120190000D02*
X97575714Y-120190000D01*
X97242380Y-120190000D02*
X97290000Y-120237619D01*
X97337619Y-120190000D01*
X97290000Y-120142380D01*
X97242380Y-120190000D01*
X97337619Y-120190000D01*
X97575714Y-119856666D02*
X97575714Y-119475714D01*
X97242380Y-119713809D02*
X98099523Y-119713809D01*
X98194761Y-119666190D01*
X98242380Y-119570952D01*
X98242380Y-119475714D01*
X97575714Y-119237619D02*
X98242380Y-118999523D01*
X97575714Y-118761428D02*
X98242380Y-118999523D01*
X98480476Y-119094761D01*
X98528095Y-119142380D01*
X98575714Y-119237619D01*
X169997380Y-81383095D02*
X168997380Y-81383095D01*
X168997380Y-81145000D01*
X169045000Y-81002142D01*
X169140238Y-80906904D01*
X169235476Y-80859285D01*
X169425952Y-80811666D01*
X169568809Y-80811666D01*
X169759285Y-80859285D01*
X169854523Y-80906904D01*
X169949761Y-81002142D01*
X169997380Y-81145000D01*
X169997380Y-81383095D01*
X168997380Y-80478333D02*
X168997380Y-79811666D01*
X169997380Y-80240238D01*
X172097380Y-84716904D02*
X171097380Y-84716904D01*
X172097380Y-84145476D02*
X171525952Y-84574047D01*
X171097380Y-84145476D02*
X171668809Y-84716904D01*
X173807380Y-81383095D02*
X172807380Y-81383095D01*
X172807380Y-81145000D01*
X172855000Y-81002142D01*
X172950238Y-80906904D01*
X173045476Y-80859285D01*
X173235952Y-80811666D01*
X173378809Y-80811666D01*
X173569285Y-80859285D01*
X173664523Y-80906904D01*
X173759761Y-81002142D01*
X173807380Y-81145000D01*
X173807380Y-81383095D01*
X173235952Y-80240238D02*
X173188333Y-80335476D01*
X173140714Y-80383095D01*
X173045476Y-80430714D01*
X172997857Y-80430714D01*
X172902619Y-80383095D01*
X172855000Y-80335476D01*
X172807380Y-80240238D01*
X172807380Y-80049761D01*
X172855000Y-79954523D01*
X172902619Y-79906904D01*
X172997857Y-79859285D01*
X173045476Y-79859285D01*
X173140714Y-79906904D01*
X173188333Y-79954523D01*
X173235952Y-80049761D01*
X173235952Y-80240238D01*
X173283571Y-80335476D01*
X173331190Y-80383095D01*
X173426428Y-80430714D01*
X173616904Y-80430714D01*
X173712142Y-80383095D01*
X173759761Y-80335476D01*
X173807380Y-80240238D01*
X173807380Y-80049761D01*
X173759761Y-79954523D01*
X173712142Y-79906904D01*
X173616904Y-79859285D01*
X173426428Y-79859285D01*
X173331190Y-79906904D01*
X173283571Y-79954523D01*
X173235952Y-80049761D01*
X175907380Y-84716904D02*
X174907380Y-84716904D01*
X175907380Y-84145476D02*
X175335952Y-84574047D01*
X174907380Y-84145476D02*
X175478809Y-84716904D01*
X170235714Y-136342380D02*
X170235714Y-135342380D01*
X170473809Y-135342380D01*
X170616666Y-135390000D01*
X170711904Y-135485238D01*
X170759523Y-135580476D01*
X170807142Y-135770952D01*
X170807142Y-135913809D01*
X170759523Y-136104285D01*
X170711904Y-136199523D01*
X170616666Y-136294761D01*
X170473809Y-136342380D01*
X170235714Y-136342380D01*
X171759523Y-136342380D02*
X171188095Y-136342380D01*
X171473809Y-136342380D02*
X171473809Y-135342380D01*
X171378571Y-135485238D01*
X171283333Y-135580476D01*
X171188095Y-135628095D01*
X172378571Y-135342380D02*
X172473809Y-135342380D01*
X172569047Y-135390000D01*
X172616666Y-135437619D01*
X172664285Y-135532857D01*
X172711904Y-135723333D01*
X172711904Y-135961428D01*
X172664285Y-136151904D01*
X172616666Y-136247142D01*
X172569047Y-136294761D01*
X172473809Y-136342380D01*
X172378571Y-136342380D01*
X172283333Y-136294761D01*
X172235714Y-136247142D01*
X172188095Y-136151904D01*
X172140476Y-135961428D01*
X172140476Y-135723333D01*
X172188095Y-135532857D01*
X172235714Y-135437619D01*
X172283333Y-135390000D01*
X172378571Y-135342380D01*
X174442380Y-123134285D02*
X173442380Y-123134285D01*
X173442380Y-122896190D01*
X173490000Y-122753333D01*
X173585238Y-122658095D01*
X173680476Y-122610476D01*
X173870952Y-122562857D01*
X174013809Y-122562857D01*
X174204285Y-122610476D01*
X174299523Y-122658095D01*
X174394761Y-122753333D01*
X174442380Y-122896190D01*
X174442380Y-123134285D01*
X174442380Y-121610476D02*
X174442380Y-122181904D01*
X174442380Y-121896190D02*
X173442380Y-121896190D01*
X173585238Y-121991428D01*
X173680476Y-122086666D01*
X173728095Y-122181904D01*
X174442380Y-120658095D02*
X174442380Y-121229523D01*
X174442380Y-120943809D02*
X173442380Y-120943809D01*
X173585238Y-121039047D01*
X173680476Y-121134285D01*
X173728095Y-121229523D01*
X118411666Y-58507380D02*
X118411666Y-59221666D01*
X118364047Y-59364523D01*
X118268809Y-59459761D01*
X118125952Y-59507380D01*
X118030714Y-59507380D01*
X119411666Y-59507380D02*
X118840238Y-59507380D01*
X119125952Y-59507380D02*
X119125952Y-58507380D01*
X119030714Y-58650238D01*
X118935476Y-58745476D01*
X118840238Y-58793095D01*
X113078333Y-53506666D02*
X113554523Y-53506666D01*
X112983095Y-53792380D02*
X113316428Y-52792380D01*
X113649761Y-53792380D01*
X113983095Y-53125714D02*
X113983095Y-53792380D01*
X113983095Y-53220952D02*
X114030714Y-53173333D01*
X114125952Y-53125714D01*
X114268809Y-53125714D01*
X114364047Y-53173333D01*
X114411666Y-53268571D01*
X114411666Y-53792380D01*
X115316428Y-53792380D02*
X115316428Y-53268571D01*
X115268809Y-53173333D01*
X115173571Y-53125714D01*
X114983095Y-53125714D01*
X114887857Y-53173333D01*
X115316428Y-53744761D02*
X115221190Y-53792380D01*
X114983095Y-53792380D01*
X114887857Y-53744761D01*
X114840238Y-53649523D01*
X114840238Y-53554285D01*
X114887857Y-53459047D01*
X114983095Y-53411428D01*
X115221190Y-53411428D01*
X115316428Y-53363809D01*
X115935476Y-53792380D02*
X115840238Y-53744761D01*
X115792619Y-53649523D01*
X115792619Y-52792380D01*
X116459285Y-53792380D02*
X116364047Y-53744761D01*
X116316428Y-53697142D01*
X116268809Y-53601904D01*
X116268809Y-53316190D01*
X116316428Y-53220952D01*
X116364047Y-53173333D01*
X116459285Y-53125714D01*
X116602142Y-53125714D01*
X116697380Y-53173333D01*
X116745000Y-53220952D01*
X116792619Y-53316190D01*
X116792619Y-53601904D01*
X116745000Y-53697142D01*
X116697380Y-53744761D01*
X116602142Y-53792380D01*
X116459285Y-53792380D01*
X117649761Y-53125714D02*
X117649761Y-53935238D01*
X117602142Y-54030476D01*
X117554523Y-54078095D01*
X117459285Y-54125714D01*
X117316428Y-54125714D01*
X117221190Y-54078095D01*
X117649761Y-53744761D02*
X117554523Y-53792380D01*
X117364047Y-53792380D01*
X117268809Y-53744761D01*
X117221190Y-53697142D01*
X117173571Y-53601904D01*
X117173571Y-53316190D01*
X117221190Y-53220952D01*
X117268809Y-53173333D01*
X117364047Y-53125714D01*
X117554523Y-53125714D01*
X117649761Y-53173333D01*
X119173571Y-52792380D02*
X119173571Y-53506666D01*
X119125952Y-53649523D01*
X119030714Y-53744761D01*
X118887857Y-53792380D01*
X118792619Y-53792380D01*
X119792619Y-53792380D02*
X119697380Y-53744761D01*
X119649761Y-53697142D01*
X119602142Y-53601904D01*
X119602142Y-53316190D01*
X119649761Y-53220952D01*
X119697380Y-53173333D01*
X119792619Y-53125714D01*
X119935476Y-53125714D01*
X120030714Y-53173333D01*
X120078333Y-53220952D01*
X120125952Y-53316190D01*
X120125952Y-53601904D01*
X120078333Y-53697142D01*
X120030714Y-53744761D01*
X119935476Y-53792380D01*
X119792619Y-53792380D01*
X120459285Y-53125714D02*
X120697380Y-53792380D01*
X120935476Y-53125714D02*
X120697380Y-53792380D01*
X120602142Y-54030476D01*
X120554523Y-54078095D01*
X120459285Y-54125714D01*
X121268809Y-53744761D02*
X121364047Y-53792380D01*
X121554523Y-53792380D01*
X121649761Y-53744761D01*
X121697380Y-53649523D01*
X121697380Y-53601904D01*
X121649761Y-53506666D01*
X121554523Y-53459047D01*
X121411666Y-53459047D01*
X121316428Y-53411428D01*
X121268809Y-53316190D01*
X121268809Y-53268571D01*
X121316428Y-53173333D01*
X121411666Y-53125714D01*
X121554523Y-53125714D01*
X121649761Y-53173333D01*
X121983095Y-53125714D02*
X122364047Y-53125714D01*
X122125952Y-52792380D02*
X122125952Y-53649523D01*
X122173571Y-53744761D01*
X122268809Y-53792380D01*
X122364047Y-53792380D01*
X122697380Y-53792380D02*
X122697380Y-53125714D01*
X122697380Y-52792380D02*
X122649761Y-52840000D01*
X122697380Y-52887619D01*
X122745000Y-52840000D01*
X122697380Y-52792380D01*
X122697380Y-52887619D01*
X123602142Y-53744761D02*
X123506904Y-53792380D01*
X123316428Y-53792380D01*
X123221190Y-53744761D01*
X123173571Y-53697142D01*
X123125952Y-53601904D01*
X123125952Y-53316190D01*
X123173571Y-53220952D01*
X123221190Y-53173333D01*
X123316428Y-53125714D01*
X123506904Y-53125714D01*
X123602142Y-53173333D01*
X124030714Y-53792380D02*
X124030714Y-52792380D01*
X124125952Y-53411428D02*
X124411666Y-53792380D01*
X124411666Y-53125714D02*
X124030714Y-53506666D01*
X176426904Y-53792380D02*
X176426904Y-52792380D01*
X176998333Y-53792380D02*
X176569761Y-53220952D01*
X176998333Y-52792380D02*
X176426904Y-53363809D01*
X177379285Y-52887619D02*
X177426904Y-52840000D01*
X177522142Y-52792380D01*
X177760238Y-52792380D01*
X177855476Y-52840000D01*
X177903095Y-52887619D01*
X177950714Y-52982857D01*
X177950714Y-53078095D01*
X177903095Y-53220952D01*
X177331666Y-53792380D01*
X177950714Y-53792380D01*
X172466904Y-59190000D02*
X172371666Y-59142380D01*
X172228809Y-59142380D01*
X172085952Y-59190000D01*
X171990714Y-59285238D01*
X171943095Y-59380476D01*
X171895476Y-59570952D01*
X171895476Y-59713809D01*
X171943095Y-59904285D01*
X171990714Y-59999523D01*
X172085952Y-60094761D01*
X172228809Y-60142380D01*
X172324047Y-60142380D01*
X172466904Y-60094761D01*
X172514523Y-60047142D01*
X172514523Y-59713809D01*
X172324047Y-59713809D01*
X172895476Y-59237619D02*
X172943095Y-59190000D01*
X173038333Y-59142380D01*
X173276428Y-59142380D01*
X173371666Y-59190000D01*
X173419285Y-59237619D01*
X173466904Y-59332857D01*
X173466904Y-59428095D01*
X173419285Y-59570952D01*
X172847857Y-60142380D01*
X173466904Y-60142380D01*
X174466904Y-60142380D02*
X174133571Y-59666190D01*
X173895476Y-60142380D02*
X173895476Y-59142380D01*
X174276428Y-59142380D01*
X174371666Y-59190000D01*
X174419285Y-59237619D01*
X174466904Y-59332857D01*
X174466904Y-59475714D01*
X174419285Y-59570952D01*
X174371666Y-59618571D01*
X174276428Y-59666190D01*
X173895476Y-59666190D01*
X174895476Y-59761428D02*
X175657380Y-59761428D01*
X176657380Y-60142380D02*
X176085952Y-60142380D01*
X176371666Y-60142380D02*
X176371666Y-59142380D01*
X176276428Y-59285238D01*
X176181190Y-59380476D01*
X176085952Y-59428095D01*
X177038333Y-59856666D02*
X177514523Y-59856666D01*
X176943095Y-60142380D02*
X177276428Y-59142380D01*
X177609761Y-60142380D01*
X178705000Y-60142380D02*
X178705000Y-59142380D01*
X179085952Y-59142380D01*
X179181190Y-59190000D01*
X179228809Y-59237619D01*
X179276428Y-59332857D01*
X179276428Y-59475714D01*
X179228809Y-59570952D01*
X179181190Y-59618571D01*
X179085952Y-59666190D01*
X178705000Y-59666190D01*
X179847857Y-60142380D02*
X179752619Y-60094761D01*
X179705000Y-60047142D01*
X179657380Y-59951904D01*
X179657380Y-59666190D01*
X179705000Y-59570952D01*
X179752619Y-59523333D01*
X179847857Y-59475714D01*
X179990714Y-59475714D01*
X180085952Y-59523333D01*
X180133571Y-59570952D01*
X180181190Y-59666190D01*
X180181190Y-59951904D01*
X180133571Y-60047142D01*
X180085952Y-60094761D01*
X179990714Y-60142380D01*
X179847857Y-60142380D01*
X180514523Y-59475714D02*
X180705000Y-60142380D01*
X180895476Y-59666190D01*
X181085952Y-60142380D01*
X181276428Y-59475714D01*
X182038333Y-60094761D02*
X181943095Y-60142380D01*
X181752619Y-60142380D01*
X181657380Y-60094761D01*
X181609761Y-59999523D01*
X181609761Y-59618571D01*
X181657380Y-59523333D01*
X181752619Y-59475714D01*
X181943095Y-59475714D01*
X182038333Y-59523333D01*
X182085952Y-59618571D01*
X182085952Y-59713809D01*
X181609761Y-59809047D01*
X182514523Y-60142380D02*
X182514523Y-59475714D01*
X182514523Y-59666190D02*
X182562142Y-59570952D01*
X182609761Y-59523333D01*
X182705000Y-59475714D01*
X182800238Y-59475714D01*
X184466904Y-60142380D02*
X184133571Y-59666190D01*
X183895476Y-60142380D02*
X183895476Y-59142380D01*
X184276428Y-59142380D01*
X184371666Y-59190000D01*
X184419285Y-59237619D01*
X184466904Y-59332857D01*
X184466904Y-59475714D01*
X184419285Y-59570952D01*
X184371666Y-59618571D01*
X184276428Y-59666190D01*
X183895476Y-59666190D01*
X185276428Y-60094761D02*
X185181190Y-60142380D01*
X184990714Y-60142380D01*
X184895476Y-60094761D01*
X184847857Y-59999523D01*
X184847857Y-59618571D01*
X184895476Y-59523333D01*
X184990714Y-59475714D01*
X185181190Y-59475714D01*
X185276428Y-59523333D01*
X185324047Y-59618571D01*
X185324047Y-59713809D01*
X184847857Y-59809047D01*
X185895476Y-60142380D02*
X185800238Y-60094761D01*
X185752619Y-59999523D01*
X185752619Y-59142380D01*
X186705000Y-60142380D02*
X186705000Y-59618571D01*
X186657380Y-59523333D01*
X186562142Y-59475714D01*
X186371666Y-59475714D01*
X186276428Y-59523333D01*
X186705000Y-60094761D02*
X186609761Y-60142380D01*
X186371666Y-60142380D01*
X186276428Y-60094761D01*
X186228809Y-59999523D01*
X186228809Y-59904285D01*
X186276428Y-59809047D01*
X186371666Y-59761428D01*
X186609761Y-59761428D01*
X186705000Y-59713809D01*
X187085952Y-59475714D02*
X187324047Y-60142380D01*
X187562142Y-59475714D02*
X187324047Y-60142380D01*
X187228809Y-60380476D01*
X187181190Y-60428095D01*
X187085952Y-60475714D01*
X118578333Y-98877380D02*
X118245000Y-98401190D01*
X118006904Y-98877380D02*
X118006904Y-97877380D01*
X118387857Y-97877380D01*
X118483095Y-97925000D01*
X118530714Y-97972619D01*
X118578333Y-98067857D01*
X118578333Y-98210714D01*
X118530714Y-98305952D01*
X118483095Y-98353571D01*
X118387857Y-98401190D01*
X118006904Y-98401190D01*
X118911666Y-97877380D02*
X119530714Y-97877380D01*
X119197380Y-98258333D01*
X119340238Y-98258333D01*
X119435476Y-98305952D01*
X119483095Y-98353571D01*
X119530714Y-98448809D01*
X119530714Y-98686904D01*
X119483095Y-98782142D01*
X119435476Y-98829761D01*
X119340238Y-98877380D01*
X119054523Y-98877380D01*
X118959285Y-98829761D01*
X118911666Y-98782142D01*
X107132380Y-126531666D02*
X106656190Y-126865000D01*
X107132380Y-127103095D02*
X106132380Y-127103095D01*
X106132380Y-126722142D01*
X106180000Y-126626904D01*
X106227619Y-126579285D01*
X106322857Y-126531666D01*
X106465714Y-126531666D01*
X106560952Y-126579285D01*
X106608571Y-126626904D01*
X106656190Y-126722142D01*
X106656190Y-127103095D01*
X106465714Y-125674523D02*
X107132380Y-125674523D01*
X106084761Y-125912619D02*
X106799047Y-126150714D01*
X106799047Y-125531666D01*
X166243095Y-70572380D02*
X166243095Y-71381904D01*
X166290714Y-71477142D01*
X166338333Y-71524761D01*
X166433571Y-71572380D01*
X166624047Y-71572380D01*
X166719285Y-71524761D01*
X166766904Y-71477142D01*
X166814523Y-71381904D01*
X166814523Y-70572380D01*
X167719285Y-70905714D02*
X167719285Y-71572380D01*
X167481190Y-70524761D02*
X167243095Y-71239047D01*
X167862142Y-71239047D01*
X113347142Y-84422857D02*
X113394761Y-84470476D01*
X113442380Y-84613333D01*
X113442380Y-84708571D01*
X113394761Y-84851428D01*
X113299523Y-84946666D01*
X113204285Y-84994285D01*
X113013809Y-85041904D01*
X112870952Y-85041904D01*
X112680476Y-84994285D01*
X112585238Y-84946666D01*
X112490000Y-84851428D01*
X112442380Y-84708571D01*
X112442380Y-84613333D01*
X112490000Y-84470476D01*
X112537619Y-84422857D01*
X113442380Y-83470476D02*
X113442380Y-84041904D01*
X113442380Y-83756190D02*
X112442380Y-83756190D01*
X112585238Y-83851428D01*
X112680476Y-83946666D01*
X112728095Y-84041904D01*
X112442380Y-82565714D02*
X112442380Y-83041904D01*
X112918571Y-83089523D01*
X112870952Y-83041904D01*
X112823333Y-82946666D01*
X112823333Y-82708571D01*
X112870952Y-82613333D01*
X112918571Y-82565714D01*
X113013809Y-82518095D01*
X113251904Y-82518095D01*
X113347142Y-82565714D01*
X113394761Y-82613333D01*
X113442380Y-82708571D01*
X113442380Y-82946666D01*
X113394761Y-83041904D01*
X113347142Y-83089523D01*
X102227142Y-65762142D02*
X102179523Y-65809761D01*
X102036666Y-65857380D01*
X101941428Y-65857380D01*
X101798571Y-65809761D01*
X101703333Y-65714523D01*
X101655714Y-65619285D01*
X101608095Y-65428809D01*
X101608095Y-65285952D01*
X101655714Y-65095476D01*
X101703333Y-65000238D01*
X101798571Y-64905000D01*
X101941428Y-64857380D01*
X102036666Y-64857380D01*
X102179523Y-64905000D01*
X102227142Y-64952619D01*
X103179523Y-65857380D02*
X102608095Y-65857380D01*
X102893809Y-65857380D02*
X102893809Y-64857380D01*
X102798571Y-65000238D01*
X102703333Y-65095476D01*
X102608095Y-65143095D01*
X104036666Y-64857380D02*
X103846190Y-64857380D01*
X103750952Y-64905000D01*
X103703333Y-64952619D01*
X103608095Y-65095476D01*
X103560476Y-65285952D01*
X103560476Y-65666904D01*
X103608095Y-65762142D01*
X103655714Y-65809761D01*
X103750952Y-65857380D01*
X103941428Y-65857380D01*
X104036666Y-65809761D01*
X104084285Y-65762142D01*
X104131904Y-65666904D01*
X104131904Y-65428809D01*
X104084285Y-65333571D01*
X104036666Y-65285952D01*
X103941428Y-65238333D01*
X103750952Y-65238333D01*
X103655714Y-65285952D01*
X103608095Y-65333571D01*
X103560476Y-65428809D01*
X141327142Y-131452857D02*
X141374761Y-131500476D01*
X141422380Y-131643333D01*
X141422380Y-131738571D01*
X141374761Y-131881428D01*
X141279523Y-131976666D01*
X141184285Y-132024285D01*
X140993809Y-132071904D01*
X140850952Y-132071904D01*
X140660476Y-132024285D01*
X140565238Y-131976666D01*
X140470000Y-131881428D01*
X140422380Y-131738571D01*
X140422380Y-131643333D01*
X140470000Y-131500476D01*
X140517619Y-131452857D01*
X141422380Y-130500476D02*
X141422380Y-131071904D01*
X141422380Y-130786190D02*
X140422380Y-130786190D01*
X140565238Y-130881428D01*
X140660476Y-130976666D01*
X140708095Y-131071904D01*
X140422380Y-130167142D02*
X140422380Y-129500476D01*
X141422380Y-129929047D01*
X130492380Y-115903333D02*
X131206666Y-115903333D01*
X131349523Y-115950952D01*
X131444761Y-116046190D01*
X131492380Y-116189047D01*
X131492380Y-116284285D01*
X130825714Y-114998571D02*
X131492380Y-114998571D01*
X130444761Y-115236666D02*
X131159047Y-115474761D01*
X131159047Y-114855714D01*
X181276666Y-80097380D02*
X181276666Y-80811666D01*
X181229047Y-80954523D01*
X181133809Y-81049761D01*
X180990952Y-81097380D01*
X180895714Y-81097380D01*
X181800476Y-81097380D02*
X181990952Y-81097380D01*
X182086190Y-81049761D01*
X182133809Y-81002142D01*
X182229047Y-80859285D01*
X182276666Y-80668809D01*
X182276666Y-80287857D01*
X182229047Y-80192619D01*
X182181428Y-80145000D01*
X182086190Y-80097380D01*
X181895714Y-80097380D01*
X181800476Y-80145000D01*
X181752857Y-80192619D01*
X181705238Y-80287857D01*
X181705238Y-80525952D01*
X181752857Y-80621190D01*
X181800476Y-80668809D01*
X181895714Y-80716428D01*
X182086190Y-80716428D01*
X182181428Y-80668809D01*
X182229047Y-80621190D01*
X182276666Y-80525952D01*
X136977380Y-57729285D02*
X135977380Y-57729285D01*
X135977380Y-57491190D01*
X136025000Y-57348333D01*
X136120238Y-57253095D01*
X136215476Y-57205476D01*
X136405952Y-57157857D01*
X136548809Y-57157857D01*
X136739285Y-57205476D01*
X136834523Y-57253095D01*
X136929761Y-57348333D01*
X136977380Y-57491190D01*
X136977380Y-57729285D01*
X136977380Y-56205476D02*
X136977380Y-56776904D01*
X136977380Y-56491190D02*
X135977380Y-56491190D01*
X136120238Y-56586428D01*
X136215476Y-56681666D01*
X136263095Y-56776904D01*
X136072619Y-55824523D02*
X136025000Y-55776904D01*
X135977380Y-55681666D01*
X135977380Y-55443571D01*
X136025000Y-55348333D01*
X136072619Y-55300714D01*
X136167857Y-55253095D01*
X136263095Y-55253095D01*
X136405952Y-55300714D01*
X136977380Y-55872142D01*
X136977380Y-55253095D01*
X192222380Y-78850714D02*
X191222380Y-78850714D01*
X191222380Y-78469761D01*
X191270000Y-78374523D01*
X191317619Y-78326904D01*
X191412857Y-78279285D01*
X191555714Y-78279285D01*
X191650952Y-78326904D01*
X191698571Y-78374523D01*
X191746190Y-78469761D01*
X191746190Y-78850714D01*
X191222380Y-77993571D02*
X191222380Y-77422142D01*
X192222380Y-77707857D02*
X191222380Y-77707857D01*
X192127142Y-76517380D02*
X192174761Y-76565000D01*
X192222380Y-76707857D01*
X192222380Y-76803095D01*
X192174761Y-76945952D01*
X192079523Y-77041190D01*
X191984285Y-77088809D01*
X191793809Y-77136428D01*
X191650952Y-77136428D01*
X191460476Y-77088809D01*
X191365238Y-77041190D01*
X191270000Y-76945952D01*
X191222380Y-76803095D01*
X191222380Y-76707857D01*
X191270000Y-76565000D01*
X191317619Y-76517380D01*
X192222380Y-74041190D02*
X192222380Y-74612619D01*
X192222380Y-74326904D02*
X191222380Y-74326904D01*
X191365238Y-74422142D01*
X191460476Y-74517380D01*
X191508095Y-74612619D01*
X191555714Y-73184047D02*
X192222380Y-73184047D01*
X191174761Y-73422142D02*
X191889047Y-73660238D01*
X191889047Y-73041190D01*
X191936666Y-72707857D02*
X191936666Y-72231666D01*
X192222380Y-72803095D02*
X191222380Y-72469761D01*
X192222380Y-72136428D01*
M02*
