M48
; DRILL file {KiCad (5.1.9)-1} date 03/25/21 16:06:17
; FORMAT={-:-/ absolute / inch / decimal}
; #@! TF.CreationDate,2021-03-25T16:06:17-07:00
; #@! TF.GenerationSoftware,Kicad,Pcbnew,(5.1.9)-1
; #@! TF.FileFunction,Plated,1,2,PTH
FMAT,2
INCH
T1C0.0157
T2C0.0315
T3C0.0354
T4C0.0394
T5C0.0433
T6C0.0512
T7C0.0598
%
G90
G05
T1
X4.0Y-3.6
X4.05Y-3.5
X4.05Y-3.5
X4.075Y-3.425
X4.175Y-3.4
X4.2125Y-3.0625
X4.225Y-2.775
X4.225Y-3.625
X4.35Y-3.075
X4.425Y-4.975
X4.45Y-2.775
X4.475Y-3.075
X4.475Y-3.125
X4.975Y-4.2
X5.0Y-2.575
X5.05Y-2.725
X5.075Y-2.775
X5.125Y-2.625
X5.125Y-4.175
X5.2Y-4.45
X5.225Y-4.2
X5.425Y-3.7
X5.475Y-3.7
X5.525Y-3.7
X5.775Y-3.775
X5.85Y-3.8
X5.925Y-2.9
X5.95Y-3.75
X6.0Y-3.75
X6.35Y-5.475
X6.525Y-3.875
X6.6Y-3.875
X6.8Y-2.475
X6.875Y-2.475
X6.975Y-5.325
T2
X3.9531Y-2.575
X4.15Y-2.575
X4.2Y-4.825
X4.2Y-5.125
X4.35Y-3.2
X4.35Y-3.3969
X4.35Y-4.125
X4.35Y-4.225
X4.35Y-4.325
X4.35Y-4.425
X4.35Y-4.525
X4.35Y-4.625
X4.475Y-3.2
X4.475Y-3.4
X4.525Y-3.875
X4.5531Y-4.7
X4.575Y-3.2
X4.575Y-3.4
X4.675Y-3.2
X4.675Y-3.4
X4.725Y-4.025
X4.725Y-4.325
X4.75Y-4.7
X4.775Y-3.2
X4.775Y-3.4
X4.825Y-3.875
X4.825Y-4.025
X4.825Y-4.325
X4.875Y-3.2
X4.875Y-3.4
X4.925Y-4.025
X4.925Y-4.325
X4.975Y-3.2
X4.975Y-3.4
X4.975Y-3.875
X5.0Y-3.7
X5.025Y-4.025
X5.025Y-4.325
X5.05Y-2.25
X5.075Y-3.2
X5.075Y-3.4
X5.125Y-4.025
X5.125Y-4.325
X5.175Y-3.2
X5.175Y-3.4
X5.1969Y-3.7
X5.225Y-4.025
X5.225Y-4.325
X5.2469Y-2.25
X5.275Y-3.2
X5.275Y-3.4
X5.275Y-3.875
X5.275Y-4.5
X5.275Y-4.6969
X5.325Y-4.025
X5.325Y-4.325
X5.4Y-4.825
X5.425Y-4.025
X5.425Y-4.325
X5.4281Y-4.675
X5.4531Y-3.875
X5.475Y-3.4
X5.525Y-4.025
X5.525Y-4.325
X5.55Y-5.05
X5.55Y-5.2469
X5.575Y-3.4
X5.625Y-4.025
X5.625Y-4.325
X5.625Y-4.675
X5.65Y-3.875
X5.675Y-3.4
X5.7Y-4.825
X5.725Y-4.025
X5.725Y-4.325
X5.75Y-5.025
X5.75Y-5.325
X5.775Y-3.4
X5.825Y-4.025
X5.825Y-4.325
X5.825Y-4.5
X5.825Y-4.6969
X5.85Y-5.025
X5.85Y-5.325
X5.875Y-3.4
X5.925Y-4.025
X5.925Y-4.325
X5.95Y-5.025
X5.95Y-5.325
X5.975Y-3.4
X6.025Y-4.025
X6.025Y-4.325
X6.05Y-5.025
X6.05Y-5.325
X6.15Y-5.025
X6.15Y-5.325
X6.25Y-5.025
X6.25Y-5.325
X6.325Y-2.45
X6.35Y-5.025
X6.35Y-5.325
X6.4234Y-2.45
X6.45Y-5.025
X6.45Y-5.325
X6.575Y-5.35
X6.7Y-4.225
X6.7Y-4.525
X6.775Y-5.1
X6.775Y-5.1984
X6.85Y-4.225
X6.85Y-4.525
X6.85Y-4.65
X6.85Y-4.95
X6.875Y-5.35
X7.625Y-4.625
X7.625Y-4.925
T3
X3.95Y-2.825
X3.95Y-3.325
X3.95Y-3.825
X3.95Y-4.325
X3.95Y-4.825
X4.05Y-2.825
X4.05Y-3.325
X4.05Y-3.825
X4.05Y-4.325
X4.05Y-4.825
X5.5Y-2.225
X5.6Y-2.225
T4
X3.95Y-2.225
X3.95Y-2.4
X4.05Y-2.225
X4.05Y-2.4
X4.15Y-2.225
X4.15Y-2.4
X4.35Y-3.675
X4.35Y-3.775
X4.35Y-3.875
X4.425Y-4.875
X4.425Y-4.975
X4.425Y-5.075
X4.425Y-5.325
X4.475Y-2.225
X4.525Y-5.325
X4.55Y-4.55
X4.575Y-2.225
X4.625Y-5.325
X4.65Y-4.55
X4.675Y-2.225
X4.675Y-4.875
X4.75Y-4.55
X4.775Y-2.225
X4.775Y-4.875
X4.85Y-4.55
X4.875Y-2.225
X4.875Y-4.875
X4.875Y-5.125
X4.875Y-5.225
X4.875Y-5.325
X4.9Y-2.475
X4.9Y-2.575
X4.9Y-2.675
X4.9Y-2.775
X4.95Y-4.55
X5.05Y-4.55
X5.175Y-5.05
X5.175Y-5.15
X5.175Y-5.25
X5.35Y-5.05
X5.35Y-5.15
X5.35Y-5.25
X5.4531Y-4.5
X5.65Y-4.5
X5.825Y-2.475
X5.825Y-2.575
X5.825Y-2.675
X5.825Y-2.775
X6.325Y-4.45
X6.325Y-4.7492
X6.5829Y-2.1925
X6.5829Y-2.5075
X7.125Y-2.7281
X7.125Y-2.925
X7.1734Y-2.1925
X7.1734Y-2.5075
X7.3703Y-2.1925
X7.3703Y-2.5075
X7.425Y-2.7585
X7.425Y-3.1915
X7.5671Y-2.1925
X7.5671Y-2.5075
T5
X5.775Y-2.125
X5.775Y-2.3022
X6.0309Y-2.125
X6.0309Y-2.3022
X6.475Y-2.7
X6.575Y-2.7
X6.675Y-2.7
X6.675Y-3.325
X6.675Y-3.725
X6.825Y-3.325
X6.825Y-3.725
T6
X7.15Y-4.225
X7.15Y-4.425
X7.15Y-4.625
X7.15Y-4.825
X7.15Y-5.025
X7.15Y-5.225
X7.15Y-5.425
T7
X7.15Y-3.325
X7.15Y-3.525
X7.15Y-3.725
X7.15Y-3.925
T0
M30
