%TF.GenerationSoftware,KiCad,Pcbnew,(5.1.9)-1*%
%TF.CreationDate,2021-03-25T16:00:54-07:00*%
%TF.ProjectId,SP_CARRIER_A,53505f43-4152-4524-9945-525f412e6b69,rev?*%
%TF.SameCoordinates,Original*%
%TF.FileFunction,Copper,L1,Top*%
%TF.FilePolarity,Positive*%
%FSLAX46Y46*%
G04 Gerber Fmt 4.6, Leading zero omitted, Abs format (unit mm)*
G04 Created by KiCad (PCBNEW (5.1.9)-1) date 2021-03-25 16:00:54*
%MOMM*%
%LPD*%
G01*
G04 APERTURE LIST*
%TA.AperFunction,ComponentPad*%
%ADD10O,1.600000X1.600000*%
%TD*%
%TA.AperFunction,ComponentPad*%
%ADD11R,1.600000X1.600000*%
%TD*%
%TA.AperFunction,SMDPad,CuDef*%
%ADD12R,2.540000X1.520000*%
%TD*%
%TA.AperFunction,ComponentPad*%
%ADD13O,1.700000X1.700000*%
%TD*%
%TA.AperFunction,ComponentPad*%
%ADD14R,1.700000X1.700000*%
%TD*%
%TA.AperFunction,ComponentPad*%
%ADD15C,1.600000*%
%TD*%
%TA.AperFunction,ViaPad*%
%ADD16C,0.800000*%
%TD*%
%TA.AperFunction,Conductor*%
%ADD17C,0.762000*%
%TD*%
%TA.AperFunction,Conductor*%
%ADD18C,0.254000*%
%TD*%
G04 APERTURE END LIST*
D10*
%TO.P,RN4,4*%
%TO.N,Net-(C1-Pad2)*%
X114935000Y-66675000D03*
%TO.P,RN4,3*%
%TO.N,Net-(J1-Pad4)*%
X114935000Y-64135000D03*
%TO.P,RN4,2*%
%TO.N,Net-(J1-Pad1)*%
X114935000Y-61595000D03*
D11*
%TO.P,RN4,1*%
%TO.N,Net-(C1-Pad1)*%
X114935000Y-59055000D03*
%TD*%
D12*
%TO.P,U5,4*%
%TO.N,Net-(J1-Pad4)*%
X118110000Y-66675000D03*
%TO.P,U5,5*%
%TO.N,N/C*%
X134870000Y-66675000D03*
%TO.P,U5,3*%
%TO.N,Net-(C1-Pad2)*%
X118110000Y-64135000D03*
%TO.P,U5,6*%
%TO.N,N/C*%
X134870000Y-64135000D03*
%TO.P,U5,2*%
%TO.N,Net-(C1-Pad1)*%
X118110000Y-61595000D03*
%TO.P,U5,7*%
%TO.N,N/C*%
X134870000Y-61595000D03*
%TO.P,U5,1*%
X118110000Y-59055000D03*
%TO.P,U5,8*%
X134870000Y-59055000D03*
%TD*%
%TO.P,U1,4*%
%TO.N,Net-(J1-Pad1)*%
X94490000Y-66675000D03*
%TO.P,U1,5*%
%TO.N,N/C*%
X111250000Y-66675000D03*
%TO.P,U1,3*%
%TO.N,Net-(C1-Pad2)*%
X94490000Y-64135000D03*
%TO.P,U1,6*%
%TO.N,N/C*%
X111250000Y-64135000D03*
%TO.P,U1,2*%
%TO.N,Net-(C1-Pad1)*%
X94490000Y-61595000D03*
%TO.P,U1,7*%
%TO.N,N/C*%
X111250000Y-61595000D03*
%TO.P,U1,1*%
X94490000Y-59055000D03*
%TO.P,U1,8*%
X111250000Y-59055000D03*
%TD*%
D13*
%TO.P,J4,8*%
%TO.N,N/C*%
X114935000Y-69850000D03*
%TO.P,J4,7*%
%TO.N,Net-(C1-Pad2)*%
X112395000Y-69850000D03*
%TO.P,J4,6*%
X109855000Y-69850000D03*
%TO.P,J4,5*%
%TO.N,Net-(C1-Pad1)*%
X107315000Y-69850000D03*
%TO.P,J4,4*%
%TO.N,N/C*%
X104775000Y-69850000D03*
%TO.P,J4,3*%
X102235000Y-69850000D03*
%TO.P,J4,2*%
X99695000Y-69850000D03*
D14*
%TO.P,J4,1*%
X97155000Y-69850000D03*
%TD*%
D13*
%TO.P,J3,6*%
%TO.N,N/C*%
X132715000Y-69850000D03*
%TO.P,J3,5*%
X130175000Y-69850000D03*
%TO.P,J3,4*%
%TO.N,Net-(J1-Pad4)*%
X127635000Y-69850000D03*
%TO.P,J3,3*%
%TO.N,Net-(J1-Pad1)*%
X125095000Y-69850000D03*
%TO.P,J3,2*%
%TO.N,N/C*%
X122555000Y-69850000D03*
D14*
%TO.P,J3,1*%
X120015000Y-69850000D03*
%TD*%
D13*
%TO.P,J2,4*%
%TO.N,N/C*%
X127635000Y-66675000D03*
%TO.P,J2,3*%
X127635000Y-64135000D03*
%TO.P,J2,2*%
X127635000Y-61595000D03*
D14*
%TO.P,J2,1*%
X127635000Y-59055000D03*
%TD*%
D13*
%TO.P,J1,4*%
%TO.N,Net-(J1-Pad4)*%
X104140000Y-66675000D03*
%TO.P,J1,3*%
%TO.N,Net-(C1-Pad2)*%
X104140000Y-64135000D03*
%TO.P,J1,2*%
%TO.N,Net-(C1-Pad1)*%
X104140000Y-61595000D03*
D14*
%TO.P,J1,1*%
%TO.N,Net-(J1-Pad1)*%
X104140000Y-59055000D03*
%TD*%
D15*
%TO.P,C1,2*%
%TO.N,Net-(C1-Pad2)*%
X107950000Y-65960000D03*
%TO.P,C1,1*%
%TO.N,Net-(C1-Pad1)*%
X107950000Y-60960000D03*
%TD*%
D16*
%TO.N,Net-(J1-Pad1)*%
X100965000Y-66040000D03*
X104140000Y-59055000D03*
%TD*%
D17*
%TO.N,Net-(C1-Pad2)*%
X112395000Y-69850000D02*
X109855000Y-69850000D01*
X107950000Y-67945000D02*
X107950000Y-65960000D01*
X109855000Y-69850000D02*
X107950000Y-67945000D01*
X104140000Y-64135000D02*
X94490000Y-64135000D01*
X112395000Y-69215000D02*
X114935000Y-66675000D01*
X112395000Y-69850000D02*
X112395000Y-69215000D01*
X117475000Y-64135000D02*
X118110000Y-64135000D01*
X114935000Y-66675000D02*
X117475000Y-64135000D01*
%TO.N,Net-(C1-Pad1)*%
X105571001Y-63026001D02*
X104140000Y-61595000D01*
X105571001Y-68106001D02*
X105571001Y-63026001D01*
X107315000Y-69850000D02*
X105571001Y-68106001D01*
X104775000Y-60960000D02*
X104140000Y-61595000D01*
X107950000Y-60960000D02*
X104775000Y-60960000D01*
X117475000Y-61595000D02*
X118110000Y-61595000D01*
X114935000Y-59055000D02*
X117475000Y-61595000D01*
X104140000Y-61595000D02*
X94490000Y-61595000D01*
D18*
%TO.N,Net-(J1-Pad4)*%
X119707001Y-65077999D02*
X118110000Y-66675000D01*
X119707001Y-63113399D02*
X119707001Y-65077999D01*
X119641601Y-63047999D02*
X119707001Y-63113399D01*
X116022001Y-63047999D02*
X119641601Y-63047999D01*
X114935000Y-64135000D02*
X116022001Y-63047999D01*
X124460000Y-66675000D02*
X127635000Y-69850000D01*
X118110000Y-66675000D02*
X124460000Y-66675000D01*
%TO.N,Net-(J1-Pad1)*%
X94490000Y-66675000D02*
X100330000Y-66675000D01*
X100330000Y-66675000D02*
X100965000Y-66040000D01*
X100965000Y-66040000D02*
X100965000Y-66040000D01*
%TD*%
M02*
