M48
; DRILL file {KiCad (5.1.5)-3} date 2020-07-24 3:51:07 PM
; FORMAT={-:-/ absolute / inch / decimal}
; #@! TF.CreationDate,2020-07-24T15:51:07-07:00
; #@! TF.GenerationSoftware,Kicad,Pcbnew,(5.1.5)-3
; #@! TF.FileFunction,Plated,1,2,PTH
FMAT,2
INCH
T1C0.0295
T2C0.0315
T3C0.0315
T4C0.0398
T5C0.0984
%
G90
G05
T1
X5.2Y-3.35
X5.2787Y-3.35
X5.3575Y-3.35
X5.4362Y-3.35
X5.515Y-3.35
X5.2Y-4.175
X5.2787Y-4.175
X5.3575Y-4.175
X5.4362Y-4.175
X5.515Y-4.175
X5.2Y-3.9
X5.2787Y-3.9
X5.3575Y-3.9
X5.4362Y-3.9
X5.515Y-3.9
X4.425Y-4.725
X4.5037Y-4.725
X4.5825Y-4.725
X4.6612Y-4.725
X4.74Y-4.725
X7.3Y-4.175
X7.3787Y-4.175
X7.4575Y-4.175
X7.5362Y-4.175
X7.615Y-4.175
X4.425Y-4.175
X4.5037Y-4.175
X4.5825Y-4.175
X4.6612Y-4.175
X4.74Y-4.175
X4.425Y-3.9
X4.5037Y-3.9
X4.5825Y-3.9
X4.6612Y-3.9
X4.74Y-3.9
X6.325Y-4.45
X6.4037Y-4.45
X6.4825Y-4.45
X6.5612Y-4.45
X6.64Y-4.45
X5.2Y-4.45
X5.2787Y-4.45
X5.3575Y-4.45
X5.4362Y-4.45
X5.515Y-4.45
X5.2Y-3.625
X5.2787Y-3.625
X5.3575Y-3.625
X5.4362Y-3.625
X5.515Y-3.625
X4.425Y-3.625
X4.5037Y-3.625
X4.5825Y-3.625
X4.6612Y-3.625
X4.74Y-3.625
X6.325Y-4.725
X6.4037Y-4.725
X6.4825Y-4.725
X6.5612Y-4.725
X6.64Y-4.725
X6.325Y-4.175
X6.4037Y-4.175
X6.4825Y-4.175
X6.5612Y-4.175
X6.64Y-4.175
X7.3Y-3.9
X7.3787Y-3.9
X7.4575Y-3.9
X7.5362Y-3.9
X7.615Y-3.9
X5.2Y-4.725
X5.2787Y-4.725
X5.3575Y-4.725
X5.4362Y-4.725
X5.515Y-4.725
X7.3Y-3.35
X7.3787Y-3.35
X7.4575Y-3.35
X7.5362Y-3.35
X7.615Y-3.35
X4.425Y-3.35
X4.5037Y-3.35
X4.5825Y-3.35
X4.6612Y-3.35
X4.74Y-3.35
X7.3Y-4.725
X7.3787Y-4.725
X7.4575Y-4.725
X7.5362Y-4.725
X7.615Y-4.725
X6.325Y-3.625
X6.4037Y-3.625
X6.4825Y-3.625
X6.5612Y-3.625
X6.64Y-3.625
X7.3Y-4.45
X7.3787Y-4.45
X7.4575Y-4.45
X7.5362Y-4.45
X7.615Y-4.45
X4.425Y-4.45
X4.5037Y-4.45
X4.5825Y-4.45
X4.6612Y-4.45
X4.74Y-4.45
X6.325Y-3.35
X6.4037Y-3.35
X6.4825Y-3.35
X6.5612Y-3.35
X6.64Y-3.35
X7.3Y-3.625
X7.3787Y-3.625
X7.4575Y-3.625
X7.5362Y-3.625
X7.615Y-3.625
X6.325Y-3.9
X6.4037Y-3.9
X6.4825Y-3.9
X6.5612Y-3.9
X6.64Y-3.9
T2
X5.725Y-4.075
X5.725Y-4.175
X5.725Y-4.275
X5.725Y-4.375
X5.725Y-4.475
X5.725Y-4.575
X5.725Y-4.675
X5.725Y-4.775
X6.125Y-4.075
X6.125Y-4.175
X6.125Y-4.275
X6.125Y-4.375
X6.125Y-4.475
X6.125Y-4.575
X6.125Y-4.675
X6.125Y-4.775
T3
X5.75Y-3.475
X5.875Y-3.475
X6.0Y-3.475
X6.125Y-3.475
X5.75Y-3.75
X5.875Y-3.75
X6.0Y-3.75
X6.125Y-3.75
T4
X4.4984Y-4.9778
X4.9Y-5.025
T5
X6.975Y-4.55
X6.975Y-4.85
X6.975Y-3.425
X6.975Y-3.725
T0
M30
