999
DXF file: c-1413009-9-c-2d.dxf
999
Pro/ENGINEER 2016050 by Parametric Technology Corporation
  0
SECTION
  2
HEADER
  9
$ACADVER
  1
AC1014
  9
$DWGCODEPAGE
  3
ANSI_1252
  9
$EXTMAX
 10
420.0
 20
297.0
 30
0.0
  9
$EXTMIN
 10
0.0
 20
0.0
 30
0.0
  9
$LIMMIN
 10
0.0
 20
0.0
  9
$LIMMAX
 10
420.0
 20
297.0
  9
$VIEWCTR
 10
210.0
 20
148.5
  9
$VIEWSIZE
 40
297.0
  9
$CLAYER
  8
0
  9
$LTSCALE
 40
23.1
  9
$CELTYPE
  6
BYLAYER
  9
$DIMSCALE
 40
1.0
  9
$DIMASZ
 40
4.5
  9
$DIMEXO
 40
1.5
  9
$DIMDLI
 40
15.96
  9
$DIMEXE
 40
3.0
  9
$DIMCEN
 40
3.78
  9
$DIMLFAC
 40
0.5
  9
$DIMBLK
  1
_CLOSED
  9
$DIMALT
 70
0
  9
$DIMALTF
 40
0.0393700787
  9
$DIMTXT
 40
3.0
  9
$DIMTOL
 70
1
  9
$DIMLIM
 70
0
  9
$DIMTFAC
 40
1.0
  9
$DIMTP
 40
0.01
  9
$DIMTM
 40
0.01
  9
$DIMGAP
 40
0.625
  9
$AUNITS
 70
0
  9
$PDMODE
 70
3
  9
$PDSIZE
 40
0.3125
  9
$HANDSEED
  5
3E7
  9
$TILEMODE
 70
1
  9
$MEASUREMENT
 70
1
  0
ENDSEC
  0
SECTION
  2
CLASSES
  0
ENDSEC
  0
SECTION
  2
TABLES
  0
TABLE
  2
VPORT
  5
8
100
AcDbSymbolTable
 70
2
  0
VPORT
  5
1F4
100
AcDbSymbolTableRecord
100
AcDbViewportTableRecord
  2
*ACTIVE
 70
0
 10
0.0
 20
0.0
 11
1.0
 21
1.0
 12
210.0
 22
148.5
 13
0.0
 23
0.0
 14
1.0
 24
1.0
 15
0.0
 25
0.0
 16
0.0
 26
0.0
 36
1.0
 17
0.0
 27
0.0
 37
0.0
 40
297.0
 41
1.4141414141
 42
50.0
 43
0.0
 44
0.0
 50
0.0
 51
0.0
 71
0
 72
100
 73
1
 74
1
 75
0
 76
0
 77
0
 78
0
  0
ENDTAB
  0
TABLE
  2
LTYPE
  5
5
100
AcDbSymbolTable
 70
6
  0
LTYPE
  5
14
100
AcDbSymbolTableRecord
100
AcDbLinetypeTableRecord
  2
BYBLOCK
 70
0
  3

 72
65
 73
0
 40
0.0
  0
LTYPE
  5
15
100
AcDbSymbolTableRecord
100
AcDbLinetypeTableRecord
  2
BYLAYER
 70
0
  3

 72
65
 73
0
 40
0.0
  0
LTYPE
  5
16
100
AcDbSymbolTableRecord
100
AcDbLinetypeTableRecord
  2
CONTINUOUS
 70
64
  3
Solid line
 72
65
 73
0
 40
0.0
  0
LTYPE
  5
1F5
100
AcDbSymbolTableRecord
100
AcDbLinetypeTableRecord
  2
CENTER
 70
64
  3
____ _ ____ _ ____ _ ____ _ ____ _ ____ _ ____
 72
65
 73
4
 40
0.6
 49
0.375
 74
0
 49
-0.075
 74
0
 49
0.075
 74
0
 49
-0.075
 74
0
  0
LTYPE
  5
1F6
100
AcDbSymbolTableRecord
100
AcDbLinetypeTableRecord
  2
HIDDEN
 70
64
  3
- - - - - - - - - - - - - - - - - - - -
 72
65
 73
2
 40
0.2
 49
0.1
 74
0
 49
-0.1
 74
0
  0
LTYPE
  5
1F7
100
AcDbSymbolTableRecord
100
AcDbLinetypeTableRecord
  2
PHANTOM
 70
64
  3
_____ _ _ _____ _ _ _____ _ _ _____
 72
65
 73
6
 40
0.8
 49
0.45
 74
0
 49
-0.05
 74
0
 49
0.1
 74
0
 49
-0.05
 74
0
 49
0.1
 74
0
 49
-0.05
 74
0
  0
LTYPE
  5
1F8
100
AcDbSymbolTableRecord
100
AcDbLinetypeTableRecord
  2
DOT
 70
64
  3
. . . . . . . . . . . . . . . . . . . .
 72
65
 73
2
 40
0.2
 49
0.1
 74
0
 49
-0.1
 74
0
  0
LTYPE
  5
1F9
100
AcDbSymbolTableRecord
100
AcDbLinetypeTableRecord
  2
DASHED
 70
64
  3
- - - - - - - - - - - - - - - - - - - -
 72
65
 73
2
 40
0.2
 49
0.1
 74
0
 49
-0.1
 74
0
  0
ENDTAB
  0
TABLE
  2
LAYER
  5
2
100
AcDbSymbolTable
 70
36
  0
LAYER
  5
10
100
AcDbSymbolTableRecord
100
AcDbLayerTableRecord
  2
0
 70
0
 62
7
  6
CONTINUOUS
  0
LAYER
  5
1FA
100
AcDbSymbolTableRecord
100
AcDbLayerTableRecord
  2
DEFAULT_1
 70
0
 62
7
  6
CENTER
  0
LAYER
  5
1FB
100
AcDbSymbolTableRecord
100
AcDbLayerTableRecord
  2
DEFAULT_2
 70
0
 62
8
  6
HIDDEN
  0
LAYER
  5
1FC
100
AcDbSymbolTableRecord
100
AcDbLayerTableRecord
  2
DEFAULT_3
 70
0
 62
7
  6
PHANTOM
  0
LAYER
  5
1FD
100
AcDbSymbolTableRecord
100
AcDbLayerTableRecord
  2
DRAFT_ENTITY
 70
0
 62
7
  6
CONTINUOUS
  0
LAYER
  5
1FE
100
AcDbSymbolTableRecord
100
AcDbLayerTableRecord
  2
DRAFT_GEOM
 70
0
 62
7
  6
CONTINUOUS
  0
LAYER
  5
1FF
100
AcDbSymbolTableRecord
100
AcDbLayerTableRecord
  2
DRAFT_GRP
 70
0
 62
7
  6
CONTINUOUS
  0
LAYER
  5
200
100
AcDbSymbolTableRecord
100
AcDbLayerTableRecord
  2
DRAFT_OTHER
 70
0
 62
7
  6
CONTINUOUS
  0
LAYER
  5
201
100
AcDbSymbolTableRecord
100
AcDbLayerTableRecord
  2
DTM_ALL
 70
0
 62
7
  6
CONTINUOUS
  0
LAYER
  5
202
100
AcDbSymbolTableRecord
100
AcDbLayerTableRecord
  2
DTM_AXIS
 70
0
 62
7
  6
CONTINUOUS
  0
LAYER
  5
203
100
AcDbSymbolTableRecord
100
AcDbLayerTableRecord
  2
DTM_MAJOR
 70
0
 62
7
  6
CONTINUOUS
  0
LAYER
  5
204
100
AcDbSymbolTableRecord
100
AcDbLayerTableRecord
  2
NOTE
 70
0
 62
7
  6
CONTINUOUS
  0
ENDTAB
  0
TABLE
  2
STYLE
  5
3
100
AcDbSymbolTable
 70
1
  0
STYLE
  5
11
100
AcDbSymbolTableRecord
100
AcDbTextStyleTableRecord
  2
STANDARD
 70
0
 40
0.0
 41
0.95
 50
0.0
 71
0
 42
0.2
  3
txt
  4

  0
STYLE
  5
205
100
AcDbSymbolTableRecord
100
AcDbTextStyleTableRecord
  2
TEXTSTYLE_1
 70
0
 40
0.0
 41
0.8
 50
0.0
 71
0
 42
0.2
  3
gdt
  4

  0
STYLE
  5
206
100
AcDbSymbolTableRecord
100
AcDbTextStyleTableRecord
  2
TEXTSTYLE_2
 70
0
 40
0.0
 41
0.8
 50
0.0
 71
0
 42
0.2
  3
txt
  4

  0
ENDTAB
  0
TABLE
  2
VIEW
  5
6
100
AcDbSymbolTable
 70
0
  0
ENDTAB
  0
TABLE
  2
UCS
  5
7
100
AcDbSymbolTable
 70
0
  0
ENDTAB
  0
TABLE
  2
APPID
  5
9
100
AcDbSymbolTable
 70
1
  0
APPID
  5
207
100
AcDbSymbolTableRecord
100
AcDbRegAppTableRecord
  2
ACAD
 70
0
  0
ENDTAB
  0
TABLE
  2
BLOCK_RECORD
  5
1
100
AcDbSymbolTable
 70
0
  0
BLOCK_RECORD
  5
1F
100
AcDbSymbolTableRecord
100
AcDbBlockTableRecord
  2
*MODEL_SPACE
  0
BLOCK_RECORD
  5
1B
100
AcDbSymbolTableRecord
100
AcDbBlockTableRecord
  2
*PAPER_SPACE
  0
BLOCK_RECORD
  5
208
100
AcDbSymbolTableRecord
100
AcDbBlockTableRecord
  2
TE_CONNECTIVITY_BL0
  0
ENDTAB
  0
TABLE
  2
DIMSTYLE
  5
A
100
AcDbSymbolTable
 70
1
  0
DIMSTYLE
105
209
100
AcDbSymbolTableRecord
100
AcDbDimStyleTableRecord
  2
STANDARD
 70
0
  3

  4

  5
_CLOSED
  6
_CLOSED
  7
_CLOSED
 40
1.0
 41
4.5
 42
1.5
 43
0.38
 44
3.0
 45
0.0
 46
0.0
 47
0.01
 48
0.01
140
3.0
141
0.09
142
0.0
143
25.4
144
1.0
145
0.0
146
1.0
147
0.625
 71
1.0
 72
0.0
 73
1
 74
1
 75
0
 76
0
 77
0
 78
8
170
0
171
2
172
0
173
0
174
0
175
0
176
0
177
0
178
0
270
2
271
2
272
2
273
2
274
2
275
0
280
0
281
0
282
0
283
1
284
8
285
0
286
0
287
3
288
0
340
11
  0
ENDTAB
  0
ENDSEC
  0
SECTION
  2
BLOCKS
  0
BLOCK
  5
20
100
AcDbEntity
  8
0
100
AcDbBlockBegin
  2
*MODEL_SPACE
 70
0
 10
0.0
 20
0.0
 30
0.0
  3
*MODEL_SPACE
  1

  0
ENDBLK
  5
21
100
AcDbEntity
  8
0
100
AcDbBlockEnd
  0
BLOCK
  5
1C
100
AcDbEntity
  8
0
100
AcDbBlockBegin
  2
*PAPER_SPACE
 70
0
 10
0.0
 20
0.0
 30
0.0
  3
*PAPER_SPACE
  1

  0
ENDBLK
  5
1D
100
AcDbEntity
  8
0
100
AcDbBlockEnd
  0
BLOCK
  5
20A
100
AcDbEntity
  8
0
100
AcDbBlockBegin
 62
2
  6
CONTINUOUS
  2
TE_CONNECTIVITY_BL0
 70
64
 10
315.0
 20
36.0
  3
TE_CONNECTIVITY_BL0
  1

  0
LINE
  5
20B
100
AcDbEntity
  8
0
100
AcDbLine
 62
2
  6
CONTINUOUS
 10
303.4442621268
 20
31.975
 11
311.2931594095
 21
31.975
  0
LINE
  5
20C
100
AcDbEntity
  8
0
100
AcDbLine
 62
2
  6
CONTINUOUS
 10
316.3319775183
 20
31.975
 11
318.4139164045
 21
31.975
  0
LINE
  5
20D
100
AcDbEntity
  8
0
100
AcDbLine
 62
2
  6
CONTINUOUS
 10
321.4865647769
 20
31.975
 11
327.8504615515
 21
31.975
  0
LINE
  5
20E
100
AcDbEntity
  8
0
100
AcDbLine
 62
2
  6
CONTINUOUS
 10
328.3338139487
 20
33.7788957044
 11
324.0176749741
 21
33.7788957044
  0
LINE
  5
20F
100
AcDbEntity
  8
0
100
AcDbLine
 62
2
  6
CONTINUOUS
 10
311.2931594095
 20
34.2561326711
 11
303.4442621268
 21
34.2561326711
  0
LINE
  5
210
100
AcDbEntity
  8
0
100
AcDbLine
 62
2
  6
CONTINUOUS
 10
301.1331145522
 20
34.8594322328
 11
308.9820118349
 21
34.8594322328
  0
LINE
  5
211
100
AcDbEntity
  8
0
100
AcDbLine
 62
2
  6
CONTINUOUS
 10
316.0776474878
 20
40.0249971366
 11
315.5942950906
 21
38.2211014322
  0
LINE
  5
212
100
AcDbEntity
  8
0
100
AcDbLine
 62
2
  6
CONTINUOUS
 10
324.4045177413
 20
35.2226125659
 11
328.2576583666
 21
35.2226125659
  0
LINE
  5
213
100
AcDbEntity
  8
0
100
AcDbLine
 62
2
  6
CONTINUOUS
 10
328.6887347141
 20
36.8314113971
 11
324.8355940889
 21
36.8314113971
  0
LINE
  5
214
100
AcDbEntity
  8
0
100
AcDbLine
 62
2
  6
CONTINUOUS
 10
308.9820118349
 20
37.1405649038
 11
301.1331145522
 21
37.1405649038
  0
LINE
  5
215
100
AcDbEntity
  8
0
100
AcDbLine
 62
2
  6
CONTINUOUS
 10
304.9810251894
 20
37.7438644655
 11
312.8299224721
 21
37.7438644655
  0
LINE
  5
216
100
AcDbEntity
  8
0
100
AcDbLine
 62
2
  6
CONTINUOUS
 10
318.0056153529
 20
38.2211014322
 11
316.3319775183
 21
31.975
  0
LINE
  5
217
100
AcDbEntity
  8
0
100
AcDbLine
 62
2
  6
CONTINUOUS
 10
315.5942950906
 20
38.2211014322
 11
318.0056153529
 21
38.2211014322
  0
LINE
  5
218
100
AcDbEntity
  8
0
100
AcDbLine
 62
2
  6
CONTINUOUS
 10
320.0875542391
 20
38.2211014322
 11
322.4988745014
 21
38.2211014322
  0
LINE
  5
219
100
AcDbEntity
  8
0
100
AcDbLine
 62
2
  6
CONTINUOUS
 10
325.2079604115
 20
38.2211014322
 11
329.5240993861
 21
38.2211014322
  0
LINE
  5
21A
100
AcDbEntity
  8
0
100
AcDbLine
 62
2
  6
CONTINUOUS
 10
330.0074517833
 20
40.0249971366
 11
323.6435550087
 21
40.0249971366
  0
LINE
  5
21B
100
AcDbEntity
  8
0
100
AcDbLine
 62
2
  6
CONTINUOUS
 10
322.9822268986
 20
40.0249971366
 11
316.0776474878
 21
40.0249971366
  0
LINE
  5
21C
100
AcDbEntity
  8
0
100
AcDbLine
 62
2
  6
CONTINUOUS
 10
312.8299224721
 20
40.0249971366
 11
304.9810251894
 21
40.0249971366
  0
LINE
  5
21D
100
AcDbEntity
  8
0
100
AcDbLine
 62
2
  6
CONTINUOUS
 10
318.4139164045
 20
31.975
 11
320.0875542391
 21
38.2211014322
  0
LINE
  5
21E
100
AcDbEntity
  8
0
100
AcDbLine
 62
2
  6
CONTINUOUS
 10
322.4988745014
 20
38.2211014322
 11
322.9822268986
 21
40.0249971366
  0
LINE
  5
21F
100
AcDbEntity
  8
0
100
AcDbLine
 62
2
  6
CONTINUOUS
 10
323.6435550087
 20
40.0249971366
 11
321.4865647769
 21
31.975
  0
LINE
  5
220
100
AcDbEntity
  8
0
100
AcDbLine
 62
2
  6
CONTINUOUS
 10
324.0176749741
 20
33.7788957044
 11
324.4045177413
 21
35.2226125659
  0
LINE
  5
221
100
AcDbEntity
  8
0
100
AcDbLine
 62
2
  6
CONTINUOUS
 10
324.8355940889
 20
36.8314113971
 11
325.2079604115
 21
38.2211014322
  0
LINE
  5
222
100
AcDbEntity
  8
0
100
AcDbLine
 62
2
  6
CONTINUOUS
 10
328.2576583666
 20
35.2226125659
 11
328.6887347141
 21
36.8314113971
  0
LINE
  5
223
100
AcDbEntity
  8
0
100
AcDbLine
 62
2
  6
CONTINUOUS
 10
327.8504615515
 20
31.975
 11
328.3338139487
 21
33.7788957044
  0
LINE
  5
224
100
AcDbEntity
  8
0
100
AcDbLine
 62
2
  6
CONTINUOUS
 10
329.5240993861
 20
38.2211014322
 11
330.0074517833
 21
40.0249971366
  0
ARC
  5
225
100
AcDbEntity
  8
0
100
AcDbCircle
 62
2
  6
CONTINUOUS
 10
304.9810251894
 20
38.884430801
 40
1.1405663355
100
AcDbArc
 50
90.0
 51
270.0
  0
ARC
  5
226
100
AcDbEntity
  8
0
100
AcDbCircle
 62
2
  6
CONTINUOUS
 10
312.8299224721
 20
38.884430801
 40
1.1405663355
100
AcDbArc
 50
270.0
 51
90.0
  0
ARC
  5
227
100
AcDbEntity
  8
0
100
AcDbCircle
 62
2
  6
CONTINUOUS
 10
311.2931594095
 20
33.1155663355
 40
1.1405663355
100
AcDbArc
 50
270.0
 51
90.0
  0
ARC
  5
228
100
AcDbEntity
  8
0
100
AcDbCircle
 62
2
  6
CONTINUOUS
 10
303.4442621268
 20
33.1155663355
 40
1.1405663355
100
AcDbArc
 50
90.0
 51
270.0
  0
ARC
  5
229
100
AcDbEntity
  8
0
100
AcDbCircle
 62
2
  6
CONTINUOUS
 10
308.9820118349
 20
35.9999985683
 40
1.1405663355
100
AcDbArc
 50
270.0
 51
90.0
  0
ARC
  5
22A
100
AcDbEntity
  8
0
100
AcDbCircle
 62
2
  6
CONTINUOUS
 10
301.1331145522
 20
35.9999985683
 40
1.1405663355
100
AcDbArc
 50
90.0
 51
270.0
  0
LWPOLYLINE
  5
22B
100
AcDbEntity
  8
0
100
AcDbPolyline
 62
2
  6
CONTINUOUS
 90
50
 70
0
 10
304.8321514087
 20
40.0152434035
 10
304.9810251894
 20
40.025
 10
312.8299224721
 20
40.025
 10
312.9787962529
 20
40.0152434035
 10
313.125122762
 20
39.9861346138
 10
313.2663983123
 20
39.9381727309
 10
313.4002056399
 20
39.8721869044
 10
313.5242552644
 20
39.7893041338
 10
313.6364246624
 20
39.6909331688
 10
313.7347945842
 20
39.5787645087
 10
313.8176818934
 20
39.4547140529
 10
313.883668365
 20
39.3209070004
 10
313.9316249522
 20
39.1796295507
 10
313.9607311046
 20
39.0333047528
 10
313.9704888077
 20
38.8844281057
 10
313.9607311046
 20
38.7355595087
 10
313.9316249522
 20
38.5892266607
 10
313.883668365
 20
38.447957261
 10
313.8176818934
 20
38.3141502086
 10
313.7347945842
 20
38.1900997527
 10
313.6364246624
 20
38.0779310926
 10
313.5242552644
 20
37.9795601276
 10
313.4002056399
 20
37.8966693071
 10
313.2663983123
 20
37.8306834805
 10
313.125122762
 20
37.7827296476
 10
312.9787962529
 20
37.7536208579
 10
304.9810251894
 20
37.7438642614
 10
304.8321514087
 20
37.7536208579
 10
304.6858248996
 20
37.7827296476
 10
304.5445493493
 20
37.8306834805
 10
304.4107420217
 20
37.8966693071
 10
304.2866923972
 20
37.9795601276
 10
304.1745229992
 20
38.0779310926
 10
304.0761530773
 20
38.1900997527
 10
303.9932657682
 20
38.3141502086
 10
303.9272792966
 20
38.447957261
 10
303.8793227094
 20
38.5892266607
 10
303.850216557
 20
38.7355595087
 10
303.8404588539
 20
38.8844281057
 10
303.850216557
 20
39.0333047528
 10
303.8793227094
 20
39.1796295507
 10
303.9272792966
 20
39.3209070004
 10
303.9932657682
 20
39.4547140529
 10
304.0761530773
 20
39.5787645087
 10
304.1745229992
 20
39.6909331688
 10
304.2866923972
 20
39.7893041338
 10
304.4107420217
 20
39.8721869044
 10
304.5445493493
 20
39.9381727309
 10
304.6858248996
 20
39.9861346138
 10
304.8321514087
 20
40.0152434035
  0
HATCH
  5
22C
100
AcDbEntity
  8
0
100
AcDbHatch
 62
2
  6
CONTINUOUS
 10
0.0
 20
0.0
 30
0.0
210
0.0
220
0.0
230
1.0
  2
SOLID
 70
1
 71
1
 91
1
 92
1
 93
49
 72
1
 10
304.8321514087
 20
40.0152434035
 11
304.9810251894
 21
40.025
 72
1
 10
304.9810251894
 20
40.025
 11
312.8299224721
 21
40.025
 72
1
 10
312.8299224721
 20
40.025
 11
312.9787962529
 21
40.0152434035
 72
1
 10
312.9787962529
 20
40.0152434035
 11
313.125122762
 21
39.9861346138
 72
1
 10
313.125122762
 20
39.9861346138
 11
313.2663983123
 21
39.9381727309
 72
1
 10
313.2663983123
 20
39.9381727309
 11
313.4002056399
 21
39.8721869044
 72
1
 10
313.4002056399
 20
39.8721869044
 11
313.5242552644
 21
39.7893041338
 72
1
 10
313.5242552644
 20
39.7893041338
 11
313.6364246624
 21
39.6909331688
 72
1
 10
313.6364246624
 20
39.6909331688
 11
313.7347945842
 21
39.5787645087
 72
1
 10
313.7347945842
 20
39.5787645087
 11
313.8176818934
 21
39.4547140529
 72
1
 10
313.8176818934
 20
39.4547140529
 11
313.883668365
 21
39.3209070004
 72
1
 10
313.883668365
 20
39.3209070004
 11
313.9316249522
 21
39.1796295507
 72
1
 10
313.9316249522
 20
39.1796295507
 11
313.9607311046
 21
39.0333047528
 72
1
 10
313.9607311046
 20
39.0333047528
 11
313.9704888077
 21
38.8844281057
 72
1
 10
313.9704888077
 20
38.8844281057
 11
313.9607311046
 21
38.7355595087
 72
1
 10
313.9607311046
 20
38.7355595087
 11
313.9316249522
 21
38.5892266607
 72
1
 10
313.9316249522
 20
38.5892266607
 11
313.883668365
 21
38.447957261
 72
1
 10
313.883668365
 20
38.447957261
 11
313.8176818934
 21
38.3141502086
 72
1
 10
313.8176818934
 20
38.3141502086
 11
313.7347945842
 21
38.1900997527
 72
1
 10
313.7347945842
 20
38.1900997527
 11
313.6364246624
 21
38.0779310926
 72
1
 10
313.6364246624
 20
38.0779310926
 11
313.5242552644
 21
37.9795601276
 72
1
 10
313.5242552644
 20
37.9795601276
 11
313.4002056399
 21
37.8966693071
 72
1
 10
313.4002056399
 20
37.8966693071
 11
313.2663983123
 21
37.8306834805
 72
1
 10
313.2663983123
 20
37.8306834805
 11
313.125122762
 21
37.7827296476
 72
1
 10
313.125122762
 20
37.7827296476
 11
312.9787962529
 21
37.7536208579
 72
1
 10
312.9787962529
 20
37.7536208579
 11
304.9810251894
 21
37.7438642614
 72
1
 10
304.9810251894
 20
37.7438642614
 11
304.8321514087
 21
37.7536208579
 72
1
 10
304.8321514087
 20
37.7536208579
 11
304.6858248996
 21
37.7827296476
 72
1
 10
304.6858248996
 20
37.7827296476
 11
304.5445493493
 21
37.8306834805
 72
1
 10
304.5445493493
 20
37.8306834805
 11
304.4107420217
 21
37.8966693071
 72
1
 10
304.4107420217
 20
37.8966693071
 11
304.2866923972
 21
37.9795601276
 72
1
 10
304.2866923972
 20
37.9795601276
 11
304.1745229992
 21
38.0779310926
 72
1
 10
304.1745229992
 20
38.0779310926
 11
304.0761530773
 21
38.1900997527
 72
1
 10
304.0761530773
 20
38.1900997527
 11
303.9932657682
 21
38.3141502086
 72
1
 10
303.9932657682
 20
38.3141502086
 11
303.9272792966
 21
38.447957261
 72
1
 10
303.9272792966
 20
38.447957261
 11
303.8793227094
 21
38.5892266607
 72
1
 10
303.8793227094
 20
38.5892266607
 11
303.850216557
 21
38.7355595087
 72
1
 10
303.850216557
 20
38.7355595087
 11
303.8404588539
 21
38.8844281057
 72
1
 10
303.8404588539
 20
38.8844281057
 11
303.850216557
 21
39.0333047528
 72
1
 10
303.850216557
 20
39.0333047528
 11
303.8793227094
 21
39.1796295507
 72
1
 10
303.8793227094
 20
39.1796295507
 11
303.9272792966
 21
39.3209070004
 72
1
 10
303.9272792966
 20
39.3209070004
 11
303.9932657682
 21
39.4547140529
 72
1
 10
303.9932657682
 20
39.4547140529
 11
304.0761530773
 21
39.5787645087
 72
1
 10
304.0761530773
 20
39.5787645087
 11
304.1745229992
 21
39.6909331688
 72
1
 10
304.1745229992
 20
39.6909331688
 11
304.2866923972
 21
39.7893041338
 72
1
 10
304.2866923972
 20
39.7893041338
 11
304.4107420217
 21
39.8721869044
 72
1
 10
304.4107420217
 20
39.8721869044
 11
304.5445493493
 21
39.9381727309
 72
1
 10
304.5445493493
 20
39.9381727309
 11
304.6858248996
 21
39.9861346138
 72
1
 10
304.6858248996
 20
39.9861346138
 11
304.8321514087
 21
40.0152434035
 97
1
330
22B
 75
0
 76
1
 98
1
 10
0.0
 20
0.0
  0
LWPOLYLINE
  5
22D
100
AcDbEntity
  8
0
100
AcDbPolyline
 62
2
  6
CONTINUOUS
 90
9
 70
0
 10
315.5942950906
 20
38.2211002917
 10
316.0776474878
 20
40.025
 10
322.9822268986
 20
40.025
 10
322.4988745014
 20
38.2211002917
 10
320.0875542391
 20
38.2211002917
 10
318.4139164045
 20
31.9750028634
 10
316.3319775183
 20
31.9750028634
 10
318.0056153529
 20
38.2211002917
 10
315.5942950906
 20
38.2211002917
  0
HATCH
  5
22E
100
AcDbEntity
  8
0
100
AcDbHatch
 62
2
  6
CONTINUOUS
 10
0.0
 20
0.0
 30
0.0
210
0.0
220
0.0
230
1.0
  2
SOLID
 70
1
 71
1
 91
1
 92
1
 93
8
 72
1
 10
315.5942950906
 20
38.2211002917
 11
316.0776474878
 21
40.025
 72
1
 10
316.0776474878
 20
40.025
 11
322.9822268986
 21
40.025
 72
1
 10
322.9822268986
 20
40.025
 11
322.4988745014
 21
38.2211002917
 72
1
 10
322.4988745014
 20
38.2211002917
 11
320.0875542391
 21
38.2211002917
 72
1
 10
320.0875542391
 20
38.2211002917
 11
318.4139164045
 21
31.9750028634
 72
1
 10
318.4139164045
 20
31.9750028634
 11
316.3319775183
 21
31.9750028634
 72
1
 10
316.3319775183
 20
31.9750028634
 11
318.0056153529
 21
38.2211002917
 72
1
 10
318.0056153529
 20
38.2211002917
 11
315.5942950906
 21
38.2211002917
 97
1
330
22D
 75
0
 76
1
 98
1
 10
0.0
 20
0.0
  0
LWPOLYLINE
  5
22F
100
AcDbEntity
  8
0
100
AcDbPolyline
 62
2
  6
CONTINUOUS
 90
6
 70
0
 10
330.0074517833
 20
40.025
 10
329.5240993861
 20
38.2211002917
 10
325.2079604115
 20
38.2211002917
 10
321.4865647769
 20
31.9750028634
 10
323.6435550087
 20
40.025
 10
330.0074517833
 20
40.025
  0
HATCH
  5
230
100
AcDbEntity
  8
0
100
AcDbHatch
 62
2
  6
CONTINUOUS
 10
0.0
 20
0.0
 30
0.0
210
0.0
220
0.0
230
1.0
  2
SOLID
 70
1
 71
1
 91
1
 92
1
 93
5
 72
1
 10
330.0074517833
 20
40.025
 11
329.5240993861
 21
38.2211002917
 72
1
 10
329.5240993861
 20
38.2211002917
 11
325.2079604115
 21
38.2211002917
 72
1
 10
325.2079604115
 20
38.2211002917
 11
321.4865647769
 21
31.9750028634
 72
1
 10
321.4865647769
 20
31.9750028634
 11
323.6435550087
 21
40.025
 72
1
 10
323.6435550087
 20
40.025
 11
330.0074517833
 21
40.025
 97
1
330
22F
 75
0
 76
1
 98
1
 10
0.0
 20
0.0
  0
SOLID
  5
231
100
AcDbEntity
  8
0
100
AcDbTrace
 62
2
  6
CONTINUOUS
 10
312.9787962529
 20
37.7536208579
 11
312.8299224721
 21
37.7438642614
 12
304.9810251894
 22
37.7438642614
 13
304.9810251894
 23
37.7438642614
  0
LWPOLYLINE
  5
232
100
AcDbEntity
  8
0
100
AcDbPolyline
 62
2
  6
CONTINUOUS
 90
50
 70
0
 10
300.9842407715
 20
37.1308086795
 10
301.1331145522
 20
37.140565276
 10
308.9820118349
 20
37.140565276
 10
309.1308856156
 20
37.1308086795
 10
309.2772121247
 20
37.1016998898
 10
309.418487675
 20
37.0537460569
 10
309.5522950027
 20
36.9877602304
 10
309.6763446272
 20
36.9048694098
 10
309.7885140251
 20
36.8064984448
 10
309.886883947
 20
36.6943297847
 10
309.9697712562
 20
36.5702793289
 10
310.0357577278
 20
36.4364722765
 10
310.083714315
 20
36.2952028767
 10
310.1128204673
 20
36.1488700288
 10
310.1225781704
 20
36.0000014317
 10
310.1128204673
 20
35.8511247847
 10
310.083714315
 20
35.7047999867
 10
310.0357577278
 20
35.563522537
 10
309.9697712562
 20
35.4297154846
 10
309.886883947
 20
35.3056650287
 10
309.7885140251
 20
35.1934963686
 10
309.6763446272
 20
35.0951254036
 10
309.5522950027
 20
35.0122426331
 10
309.418487675
 20
34.9462487565
 10
309.2772121247
 20
34.8982949236
 10
309.1308856156
 20
34.8691861339
 10
301.1331145522
 20
34.8594295374
 10
300.9842407715
 20
34.8691861339
 10
300.8379142624
 20
34.8982949236
 10
300.6966387121
 20
34.9462487565
 10
300.5628313844
 20
35.0122426331
 10
300.4387817599
 20
35.0951254036
 10
300.326612362
 20
35.1934963686
 10
300.2282424401
 20
35.3056650287
 10
300.1453551309
 20
35.4297154846
 10
300.0793686593
 20
35.563522537
 10
300.0314120721
 20
35.7047999867
 10
300.0023059198
 20
35.8511247847
 10
299.9925482167
 20
36.0000014317
 10
300.0023059198
 20
36.1488700288
 10
300.0314120721
 20
36.2952028767
 10
300.0793686593
 20
36.4364722765
 10
300.1453551309
 20
36.5702793289
 10
300.2282424401
 20
36.6943297847
 10
300.326612362
 20
36.8064984448
 10
300.4387817599
 20
36.9048694098
 10
300.5628313844
 20
36.9877602304
 10
300.6966387121
 20
37.0537460569
 10
300.8379142624
 20
37.1016998898
 10
300.9842407715
 20
37.1308086795
  0
HATCH
  5
233
100
AcDbEntity
  8
0
100
AcDbHatch
 62
2
  6
CONTINUOUS
 10
0.0
 20
0.0
 30
0.0
210
0.0
220
0.0
230
1.0
  2
SOLID
 70
1
 71
1
 91
1
 92
1
 93
49
 72
1
 10
300.9842407715
 20
37.1308086795
 11
301.1331145522
 21
37.140565276
 72
1
 10
301.1331145522
 20
37.140565276
 11
308.9820118349
 21
37.140565276
 72
1
 10
308.9820118349
 20
37.140565276
 11
309.1308856156
 21
37.1308086795
 72
1
 10
309.1308856156
 20
37.1308086795
 11
309.2772121247
 21
37.1016998898
 72
1
 10
309.2772121247
 20
37.1016998898
 11
309.418487675
 21
37.0537460569
 72
1
 10
309.418487675
 20
37.0537460569
 11
309.5522950027
 21
36.9877602304
 72
1
 10
309.5522950027
 20
36.9877602304
 11
309.6763446272
 21
36.9048694098
 72
1
 10
309.6763446272
 20
36.9048694098
 11
309.7885140251
 21
36.8064984448
 72
1
 10
309.7885140251
 20
36.8064984448
 11
309.886883947
 21
36.6943297847
 72
1
 10
309.886883947
 20
36.6943297847
 11
309.9697712562
 21
36.5702793289
 72
1
 10
309.9697712562
 20
36.5702793289
 11
310.0357577278
 21
36.4364722765
 72
1
 10
310.0357577278
 20
36.4364722765
 11
310.083714315
 21
36.2952028767
 72
1
 10
310.083714315
 20
36.2952028767
 11
310.1128204673
 21
36.1488700288
 72
1
 10
310.1128204673
 20
36.1488700288
 11
310.1225781704
 21
36.0000014317
 72
1
 10
310.1225781704
 20
36.0000014317
 11
310.1128204673
 21
35.8511247847
 72
1
 10
310.1128204673
 20
35.8511247847
 11
310.083714315
 21
35.7047999867
 72
1
 10
310.083714315
 20
35.7047999867
 11
310.0357577278
 21
35.563522537
 72
1
 10
310.0357577278
 20
35.563522537
 11
309.9697712562
 21
35.4297154846
 72
1
 10
309.9697712562
 20
35.4297154846
 11
309.886883947
 21
35.3056650287
 72
1
 10
309.886883947
 20
35.3056650287
 11
309.7885140251
 21
35.1934963686
 72
1
 10
309.7885140251
 20
35.1934963686
 11
309.6763446272
 21
35.0951254036
 72
1
 10
309.6763446272
 20
35.0951254036
 11
309.5522950027
 21
35.0122426331
 72
1
 10
309.5522950027
 20
35.0122426331
 11
309.418487675
 21
34.9462487565
 72
1
 10
309.418487675
 20
34.9462487565
 11
309.2772121247
 21
34.8982949236
 72
1
 10
309.2772121247
 20
34.8982949236
 11
309.1308856156
 21
34.8691861339
 72
1
 10
309.1308856156
 20
34.8691861339
 11
301.1331145522
 21
34.8594295374
 72
1
 10
301.1331145522
 20
34.8594295374
 11
300.9842407715
 21
34.8691861339
 72
1
 10
300.9842407715
 20
34.8691861339
 11
300.8379142624
 21
34.8982949236
 72
1
 10
300.8379142624
 20
34.8982949236
 11
300.6966387121
 21
34.9462487565
 72
1
 10
300.6966387121
 20
34.9462487565
 11
300.5628313844
 21
35.0122426331
 72
1
 10
300.5628313844
 20
35.0122426331
 11
300.4387817599
 21
35.0951254036
 72
1
 10
300.4387817599
 20
35.0951254036
 11
300.326612362
 21
35.1934963686
 72
1
 10
300.326612362
 20
35.1934963686
 11
300.2282424401
 21
35.3056650287
 72
1
 10
300.2282424401
 20
35.3056650287
 11
300.1453551309
 21
35.4297154846
 72
1
 10
300.1453551309
 20
35.4297154846
 11
300.0793686593
 21
35.563522537
 72
1
 10
300.0793686593
 20
35.563522537
 11
300.0314120721
 21
35.7047999867
 72
1
 10
300.0314120721
 20
35.7047999867
 11
300.0023059198
 21
35.8511247847
 72
1
 10
300.0023059198
 20
35.8511247847
 11
299.9925482167
 21
36.0000014317
 72
1
 10
299.9925482167
 20
36.0000014317
 11
300.0023059198
 21
36.1488700288
 72
1
 10
300.0023059198
 20
36.1488700288
 11
300.0314120721
 21
36.2952028767
 72
1
 10
300.0314120721
 20
36.2952028767
 11
300.0793686593
 21
36.4364722765
 72
1
 10
300.0793686593
 20
36.4364722765
 11
300.1453551309
 21
36.5702793289
 72
1
 10
300.1453551309
 20
36.5702793289
 11
300.2282424401
 21
36.6943297847
 72
1
 10
300.2282424401
 20
36.6943297847
 11
300.326612362
 21
36.8064984448
 72
1
 10
300.326612362
 20
36.8064984448
 11
300.4387817599
 21
36.9048694098
 72
1
 10
300.4387817599
 20
36.9048694098
 11
300.5628313844
 21
36.9877602304
 72
1
 10
300.5628313844
 20
36.9877602304
 11
300.6966387121
 21
37.0537460569
 72
1
 10
300.6966387121
 20
37.0537460569
 11
300.8379142624
 21
37.1016998898
 72
1
 10
300.8379142624
 20
37.1016998898
 11
300.9842407715
 21
37.1308086795
 97
1
330
232
 75
0
 76
1
 98
1
 10
0.0
 20
0.0
  0
LWPOLYLINE
  5
234
100
AcDbEntity
  8
0
100
AcDbPolyline
 62
2
  6
CONTINUOUS
 90
7
 70
0
 10
328.6887347141
 20
36.831413186
 10
328.2576583666
 20
35.2226132082
 10
324.4045177413
 20
35.2226132082
 10
321.4865647769
 20
31.9750028634
 10
325.2079604115
 20
38.2211002917
 10
324.8355940889
 20
36.831413186
 10
328.6887347141
 20
36.831413186
  0
HATCH
  5
235
100
AcDbEntity
  8
0
100
AcDbHatch
 62
2
  6
CONTINUOUS
 10
0.0
 20
0.0
 30
0.0
210
0.0
220
0.0
230
1.0
  2
SOLID
 70
1
 71
1
 91
1
 92
1
 93
6
 72
1
 10
328.6887347141
 20
36.831413186
 11
328.2576583666
 21
35.2226132082
 72
1
 10
328.2576583666
 20
35.2226132082
 11
324.4045177413
 21
35.2226132082
 72
1
 10
324.4045177413
 20
35.2226132082
 11
321.4865647769
 21
31.9750028634
 72
1
 10
321.4865647769
 20
31.9750028634
 11
325.2079604115
 21
38.2211002917
 72
1
 10
325.2079604115
 20
38.2211002917
 11
324.8355940889
 21
36.831413186
 72
1
 10
324.8355940889
 20
36.831413186
 11
328.6887347141
 21
36.831413186
 97
1
330
234
 75
0
 76
1
 98
1
 10
0.0
 20
0.0
  0
SOLID
  5
236
100
AcDbEntity
  8
0
100
AcDbTrace
 62
2
  6
CONTINUOUS
 10
309.1308856156
 20
34.8691861339
 11
308.9820118349
 21
34.8594295374
 12
301.1331145522
 22
34.8594295374
 13
301.1331145522
 23
34.8594295374
  0
LWPOLYLINE
  5
237
100
AcDbEntity
  8
0
100
AcDbPolyline
 62
2
  6
CONTINUOUS
 90
50
 70
0
 10
303.2953883461
 20
34.2463739555
 10
303.4442621268
 20
34.256130552
 10
311.2931594095
 20
34.256130552
 10
311.4420331903
 20
34.2463739555
 10
311.5883596994
 20
34.2172651658
 10
311.7296352496
 20
34.1693113329
 10
311.8634425773
 20
34.1033255064
 10
311.9874922018
 20
34.0204346859
 10
312.0996615998
 20
33.9220717708
 10
312.1980315216
 20
33.8099031107
 10
312.2809188308
 20
33.6858526549
 10
312.3469053024
 20
33.5520456025
 10
312.3948618896
 20
33.4107681527
 10
312.4239680419
 20
33.2644433548
 10
312.4337257451
 20
33.1155667077
 10
312.4239680419
 20
32.9666900607
 10
312.3948618896
 20
32.8203652627
 10
312.3469053024
 20
32.679087813
 10
312.2809188308
 20
32.5452807606
 10
312.1980315216
 20
32.4212303047
 10
312.0996615998
 20
32.3090616446
 10
311.9874922018
 20
32.2106906796
 10
311.8634425773
 20
32.1278079091
 10
311.7296352496
 20
32.0618220825
 10
311.5883596994
 20
32.0138601996
 10
311.4420331903
 20
31.98475946
 10
303.4442621268
 20
31.9750028634
 10
303.2953883461
 20
31.98475946
 10
303.149061837
 20
32.0138601996
 10
303.0077862867
 20
32.0618220825
 10
302.8739789591
 20
32.1278079091
 10
302.7499293345
 20
32.2106906796
 10
302.6377599366
 20
32.3090616446
 10
302.5393900147
 20
32.4212303047
 10
302.4565027056
 20
32.5452807606
 10
302.390516234
 20
32.679087813
 10
302.3425596467
 20
32.8203652627
 10
302.3134534944
 20
32.9666900607
 10
302.3036957913
 20
33.1155667077
 10
302.3134534944
 20
33.2644433548
 10
302.3425596467
 20
33.4107681527
 10
302.390516234
 20
33.5520456025
 10
302.4565027056
 20
33.6858526549
 10
302.5393900147
 20
33.8099031107
 10
302.6377599366
 20
33.9220717708
 10
302.7499293345
 20
34.0204346859
 10
302.8739789591
 20
34.1033255064
 10
303.0077862867
 20
34.1693113329
 10
303.149061837
 20
34.2172651658
 10
303.2953883461
 20
34.2463739555
  0
HATCH
  5
238
100
AcDbEntity
  8
0
100
AcDbHatch
 62
2
  6
CONTINUOUS
 10
0.0
 20
0.0
 30
0.0
210
0.0
220
0.0
230
1.0
  2
SOLID
 70
1
 71
1
 91
1
 92
1
 93
49
 72
1
 10
303.2953883461
 20
34.2463739555
 11
303.4442621268
 21
34.256130552
 72
1
 10
303.4442621268
 20
34.256130552
 11
311.2931594095
 21
34.256130552
 72
1
 10
311.2931594095
 20
34.256130552
 11
311.4420331903
 21
34.2463739555
 72
1
 10
311.4420331903
 20
34.2463739555
 11
311.5883596994
 21
34.2172651658
 72
1
 10
311.5883596994
 20
34.2172651658
 11
311.7296352496
 21
34.1693113329
 72
1
 10
311.7296352496
 20
34.1693113329
 11
311.8634425773
 21
34.1033255064
 72
1
 10
311.8634425773
 20
34.1033255064
 11
311.9874922018
 21
34.0204346859
 72
1
 10
311.9874922018
 20
34.0204346859
 11
312.0996615998
 21
33.9220717708
 72
1
 10
312.0996615998
 20
33.9220717708
 11
312.1980315216
 21
33.8099031107
 72
1
 10
312.1980315216
 20
33.8099031107
 11
312.2809188308
 21
33.6858526549
 72
1
 10
312.2809188308
 20
33.6858526549
 11
312.3469053024
 21
33.5520456025
 72
1
 10
312.3469053024
 20
33.5520456025
 11
312.3948618896
 21
33.4107681527
 72
1
 10
312.3948618896
 20
33.4107681527
 11
312.4239680419
 21
33.2644433548
 72
1
 10
312.4239680419
 20
33.2644433548
 11
312.4337257451
 21
33.1155667077
 72
1
 10
312.4337257451
 20
33.1155667077
 11
312.4239680419
 21
32.9666900607
 72
1
 10
312.4239680419
 20
32.9666900607
 11
312.3948618896
 21
32.8203652627
 72
1
 10
312.3948618896
 20
32.8203652627
 11
312.3469053024
 21
32.679087813
 72
1
 10
312.3469053024
 20
32.679087813
 11
312.2809188308
 21
32.5452807606
 72
1
 10
312.2809188308
 20
32.5452807606
 11
312.1980315216
 21
32.4212303047
 72
1
 10
312.1980315216
 20
32.4212303047
 11
312.0996615998
 21
32.3090616446
 72
1
 10
312.0996615998
 20
32.3090616446
 11
311.9874922018
 21
32.2106906796
 72
1
 10
311.9874922018
 20
32.2106906796
 11
311.8634425773
 21
32.1278079091
 72
1
 10
311.8634425773
 20
32.1278079091
 11
311.7296352496
 21
32.0618220825
 72
1
 10
311.7296352496
 20
32.0618220825
 11
311.5883596994
 21
32.0138601996
 72
1
 10
311.5883596994
 20
32.0138601996
 11
311.4420331903
 21
31.98475946
 72
1
 10
311.4420331903
 20
31.98475946
 11
303.4442621268
 21
31.9750028634
 72
1
 10
303.4442621268
 20
31.9750028634
 11
303.2953883461
 21
31.98475946
 72
1
 10
303.2953883461
 20
31.98475946
 11
303.149061837
 21
32.0138601996
 72
1
 10
303.149061837
 20
32.0138601996
 11
303.0077862867
 21
32.0618220825
 72
1
 10
303.0077862867
 20
32.0618220825
 11
302.8739789591
 21
32.1278079091
 72
1
 10
302.8739789591
 20
32.1278079091
 11
302.7499293345
 21
32.2106906796
 72
1
 10
302.7499293345
 20
32.2106906796
 11
302.6377599366
 21
32.3090616446
 72
1
 10
302.6377599366
 20
32.3090616446
 11
302.5393900147
 21
32.4212303047
 72
1
 10
302.5393900147
 20
32.4212303047
 11
302.4565027056
 21
32.5452807606
 72
1
 10
302.4565027056
 20
32.5452807606
 11
302.390516234
 21
32.679087813
 72
1
 10
302.390516234
 20
32.679087813
 11
302.3425596467
 21
32.8203652627
 72
1
 10
302.3425596467
 20
32.8203652627
 11
302.3134534944
 21
32.9666900607
 72
1
 10
302.3134534944
 20
32.9666900607
 11
302.3036957913
 21
33.1155667077
 72
1
 10
302.3036957913
 20
33.1155667077
 11
302.3134534944
 21
33.2644433548
 72
1
 10
302.3134534944
 20
33.2644433548
 11
302.3425596467
 21
33.4107681527
 72
1
 10
302.3425596467
 20
33.4107681527
 11
302.390516234
 21
33.5520456025
 72
1
 10
302.390516234
 20
33.5520456025
 11
302.4565027056
 21
33.6858526549
 72
1
 10
302.4565027056
 20
33.6858526549
 11
302.5393900147
 21
33.8099031107
 72
1
 10
302.5393900147
 20
33.8099031107
 11
302.6377599366
 21
33.9220717708
 72
1
 10
302.6377599366
 20
33.9220717708
 11
302.7499293345
 21
34.0204346859
 72
1
 10
302.7499293345
 20
34.0204346859
 11
302.8739789591
 21
34.1033255064
 72
1
 10
302.8739789591
 20
34.1033255064
 11
303.0077862867
 21
34.1693113329
 72
1
 10
303.0077862867
 20
34.1693113329
 11
303.149061837
 21
34.2172651658
 72
1
 10
303.149061837
 20
34.2172651658
 11
303.2953883461
 21
34.2463739555
 97
1
330
237
 75
0
 76
1
 98
1
 10
0.0
 20
0.0
  0
SOLID
  5
239
100
AcDbEntity
  8
0
100
AcDbTrace
 62
2
  6
CONTINUOUS
 10
311.4420331903
 20
31.98475946
 11
311.2931594095
 21
31.9750028634
 12
303.4442621268
 22
31.9750028634
 13
303.4442621268
 23
31.9750028634
  0
LWPOLYLINE
  5
23A
100
AcDbEntity
  8
0
100
AcDbPolyline
 62
2
  6
CONTINUOUS
 90
6
 70
0
 10
328.3338139487
 20
33.7788945218
 10
327.8504615515
 20
31.9750028634
 10
321.4865647769
 20
31.9750028634
 10
324.4045177413
 20
35.2226132082
 10
324.0176749741
 20
33.7788945218
 10
328.3338139487
 20
33.7788945218
  0
HATCH
  5
23B
100
AcDbEntity
  8
0
100
AcDbHatch
 62
2
  6
CONTINUOUS
 10
0.0
 20
0.0
 30
0.0
210
0.0
220
0.0
230
1.0
  2
SOLID
 70
1
 71
1
 91
1
 92
1
 93
5
 72
1
 10
328.3338139487
 20
33.7788945218
 11
327.8504615515
 21
31.9750028634
 72
1
 10
327.8504615515
 20
31.9750028634
 11
321.4865647769
 21
31.9750028634
 72
1
 10
321.4865647769
 20
31.9750028634
 11
324.4045177413
 21
35.2226132082
 72
1
 10
324.4045177413
 20
35.2226132082
 11
324.0176749741
 21
33.7788945218
 72
1
 10
324.0176749741
 20
33.7788945218
 11
328.3338139487
 21
33.7788945218
 97
1
330
23A
 75
0
 76
1
 98
1
 10
0.0
 20
0.0
  0
ENDBLK
  5
23C
100
AcDbEntity
  8
0
  6
BYBLOCK
 62
0
100
AcDbBlockEnd
  0
ENDSEC
  0
SECTION
  2
ENTITIES
  0
TEXT
  5
23D
100
AcDbEntity
  8
0
100
AcDbText
 62
2
  6
CONTINUOUS
 10
273.9447944556
 20
16.2331743479
  7
STANDARD
 40
1.5200002147
  1
SIZE
 41
0.95
 72
0
100
AcDbText
  0
TEXT
  5
23E
100
AcDbEntity
  8
0
100
AcDbText
 62
2
  6
CONTINUOUS
 10
287.5144966041
 20
16.2331819773
  7
STANDARD
 40
1.5200002147
  1
DRAWING NO
 41
0.95
 72
0
100
AcDbText
  0
TEXT
  5
23F
100
AcDbEntity
  8
0
100
AcDbText
 62
2
  6
CONTINUOUS
 10
354.2964949762
 20
16.2330905319
  7
STANDARD
 40
1.52
  1
VERSION
 41
0.95
 72
0
100
AcDbText
  0
TEXT
  5
240
100
AcDbEntity
  8
0
100
AcDbText
 62
2
  6
CONTINUOUS
 10
274.4447944556
 20
25.5657549143
  7
STANDARD
 40
1.5200002147
  1
NAME
 41
0.95
 72
0
100
AcDbText
  0
TEXT
  5
241
100
AcDbEntity
  8
0
100
AcDbText
 62
2
  6
CONTINUOUS
 10
276.2800492314
 20
10.3485471083
  7
STANDARD
 40
4.9999998868
  1
A3
 41
0.95
 72
0
100
AcDbText
  0
TEXT
  5
242
100
AcDbEntity
  8
0
100
AcDbText
 62
2
  6
CONTINUOUS
 10
297.3906714731
 20
21.1920805906
  7
TEXTSTYLE_2
 40
3.968
  1
CUSTOMER VIEW MODEL DRAWING
 41
0.8
 72
1
 11
340.2450714731
 21
21.1920805906
100
AcDbText
  0
TEXT
  5
243
100
AcDbEntity
  8
0
100
AcDbText
 62
2
  6
CONTINUOUS
 10
347.0299084682
 20
34.4224093775
  7
TEXTSTYLE_2
 40
2.5
  1
TE Connectivity Ltd.
 41
0.8
 72
0
100
AcDbText
  0
TEXT
  5
244
100
AcDbEntity
  8
0
100
AcDbText
 62
2
  6
CONTINUOUS
 10
369.5635822821
 20
16.2739597356
  7
STANDARD
 40
1.52
  1
DATE
 41
0.95
 72
0
100
AcDbText
  0
TEXT
  5
245
100
AcDbEntity
  8
0
100
AcDbText
 62
2
  6
CONTINUOUS
 10
174.6476862981
 20
23.8368677885
  7
TEXTSTYLE_2
 40
2.286
  1
THIS IS NOT A CONTROLLED DRAWING.
 41
0.8
 72
0
100
AcDbText
  0
TEXT
  5
246
100
AcDbEntity
  8
0
100
AcDbText
 62
2
  6
CONTINUOUS
 10
174.6476862981
 20
20.4078677885
  7
TEXTSTYLE_2
 40
2.286
  1
THIS IS A REPRESENTATION OF THE CUSTOMER VIEW MODEL.
 41
0.8
 72
0
100
AcDbText
  0
TEXT
  5
247
100
AcDbEntity
  8
0
100
AcDbText
 62
2
  6
CONTINUOUS
 10
174.6476862981
 20
16.9788677885
  7
TEXTSTYLE_2
 40
2.286
  1
    THIS IS NOT THE DOCUMENT OF SALE.
 41
0.8
 72
0
100
AcDbText
  0
TEXT
  5
248
100
AcDbEntity
  8
0
100
AcDbText
 62
2
  6
CONTINUOUS
 10
174.6476862981
 20
13.5498677885
  7
TEXTSTYLE_2
 40
2.286
  1
SEE THE CUSTOMER DRAWING FOR DESIGN PURPOSES.
 41
0.8
 72
0
100
AcDbText
  0
TEXT
  5
249
100
AcDbEntity
  8
0
100
AcDbText
 62
2
  6
CONTINUOUS
 10
22.7512107444
 20
282.4829655254
  7
TEXTSTYLE_2
 40
2.5
  1
c
 41
0.8
 72
0
100
AcDbText
  0
INSERT
  5
24A
100
AcDbEntity
  8
0
100
AcDbBlockReference
 62
2
  6
CONTINUOUS
  2
TE_CONNECTIVITY_BL0
 10
315.0
 20
36.0
  0
LINE
  5
24B
100
AcDbEntity
  8
0
100
AcDbLine
 62
2
  6
CONTINUOUS
 10
287.2090159416
 20
18.7593422635
 11
409.2090159416
 21
18.7593422635
  0
LINE
  5
24C
100
AcDbEntity
  8
0
100
AcDbLine
 62
2
  6
CONTINUOUS
 10
287.2090159416
 20
18.7593422635
 11
287.2090159416
 21
9.2342522635
  0
LINE
  5
24D
100
AcDbEntity
  8
0
100
AcDbLine
 62
2
  6
CONTINUOUS
 10
287.2090159416
 20
9.2342522635
 11
409.2090159416
 21
9.2342522635
  0
LINE
  5
24E
100
AcDbEntity
  8
0
100
AcDbLine
 62
2
  6
CONTINUOUS
 10
353.3340159416
 20
18.7593422635
 11
353.3340159416
 21
9.2342522635
  0
LINE
  5
24F
100
AcDbEntity
  8
0
100
AcDbLine
 62
2
  6
CONTINUOUS
 10
367.9590159416
 20
18.7593422635
 11
367.9590159416
 21
9.2342522635
  0
LINE
  5
250
100
AcDbEntity
  8
0
100
AcDbLine
 62
2
  6
CONTINUOUS
 10
409.2090159416
 20
18.7593422635
 11
409.2090159416
 21
9.2342522635
  0
TEXT
  5
251
100
AcDbEntity
  8
0
100
AcDbText
 62
2
  6
CONTINUOUS
 10
306.2795159416
 20
12.4067972635
  7
TEXTSTYLE_2
 40
3.18
  1
C-1413009-9
 41
0.8
 72
1
 11
320.2715159416
 21
12.4067972635
100
AcDbText
  0
TEXT
  5
252
100
AcDbEntity
  8
0
100
AcDbText
 62
2
  6
CONTINUOUS
 10
359.3745159416
 20
12.4067972635
  7
TEXTSTYLE_2
 40
3.18
  1
C
 41
0.8
 72
1
 11
360.6465159416
 21
12.4067972635
100
AcDbText
  0
TEXT
  5
253
100
AcDbEntity
  8
0
100
AcDbText
 62
2
  6
CONTINUOUS
 10
377.1360159416
 20
12.4067972635
  7
TEXTSTYLE_2
 40
3.18
  1
22-May-18
 41
0.8
 72
1
 11
388.5840159416
 21
12.4067972635
100
AcDbText
  0
LINE
  5
254
100
AcDbEntity
  8
0
100
AcDbLine
 62
2
  6
CONTINUOUS
 10
17.7838797455
 20
287.0843544705
 11
132.7838797455
 21
287.0843544705
  0
LINE
  5
255
100
AcDbEntity
  8
0
100
AcDbLine
 62
2
  6
CONTINUOUS
 10
17.7838797455
 20
287.0843544705
 11
17.7838797455
 21
272.0843544705
  0
LINE
  5
256
100
AcDbEntity
  8
0
100
AcDbLine
 62
2
  6
CONTINUOUS
 10
17.7838797455
 20
272.0843544705
 11
132.7838797455
 21
272.0843544705
  0
LINE
  5
257
100
AcDbEntity
  8
0
100
AcDbLine
 62
2
  6
CONTINUOUS
 10
132.7838797455
 20
287.0843544705
 11
132.7838797455
 21
272.0843544705
  0
TEXT
  5
258
100
AcDbEntity
  8
0
100
AcDbText
 62
2
  6
CONTINUOUS
 10
17.8463797455
 20
282.0843544705
  7
TEXTSTYLE_2
 40
2.5
  1
  
 41
0.8
 72
0
100
AcDbText
  0
TEXT
  5
259
100
AcDbEntity
  8
0
100
AcDbText
 62
2
  6
CONTINUOUS
 10
21.8463797455
 20
282.0843544705
  7
TEXTSTYLE_1
 40
2.5
  1
e
 41
1.0
 72
0
100
AcDbText
  0
TEXT
  5
25A
100
AcDbEntity
  8
0
100
AcDbText
 62
2
  6
CONTINUOUS
 10
26.4297130788
 20
282.0843544705
  7
TEXTSTYLE_2
 40
2.5
  1
Copyright 
 41
0.8
 72
0
100
AcDbText
  0
TEXT
  5
25B
100
AcDbEntity
  8
0
100
AcDbText
 62
2
  6
CONTINUOUS
 10
46.4297130788
 20
282.0843544705
  7
TEXTSTYLE_2
 40
2.5
  1
22-May-18
 41
0.8
 72
0
100
AcDbText
  0
TEXT
  5
25C
100
AcDbEntity
  8
0
100
AcDbText
 62
2
  6
CONTINUOUS
 10
64.4297130788
 20
282.0843544705
  7
TEXTSTYLE_2
 40
2.5
  1
 TE Connectivity Ltd.
 41
0.8
 72
0
100
AcDbText
  0
TEXT
  5
25D
100
AcDbEntity
  8
0
100
AcDbText
 62
2
  6
CONTINUOUS
 10
17.8463797455
 20
278.3343544705
  7
TEXTSTYLE_2
 40
2.5
  1
 
 41
0.8
 72
0
100
AcDbText
  0
TEXT
  5
25E
100
AcDbEntity
  8
0
100
AcDbText
 62
2
  6
CONTINUOUS
 10
17.8463797455
 20
274.5843544705
  7
TEXTSTYLE_2
 40
2.5
  1
  family of companies.  All Rights Reserved.
 41
0.8
 72
0
100
AcDbText
  0
LINE
  5
25F
100
AcDbEntity
  8
0
100
AcDbLine
 62
7
  6
CONTINUOUS
 10
0.0
 20
0.0
 11
0.0
 21
297.0
  0
LINE
  5
260
100
AcDbEntity
  8
0
100
AcDbLine
 62
7
  6
CONTINUOUS
 10
17.7838797455
 20
9.2342568143
 11
17.7838797455
 21
287.0843544705
  0
LINE
  5
261
100
AcDbEntity
  8
0
100
AcDbLine
 62
7
  6
CONTINUOUS
 10
0.0
 20
0.0
 11
420.0
 21
0.0
  0
LINE
  5
262
100
AcDbEntity
  8
0
100
AcDbLine
 62
7
  6
CONTINUOUS
 10
409.2090201263
 20
9.2342568143
 11
17.7838797455
 21
9.2342568143
  0
LINE
  5
263
100
AcDbEntity
  8
0
100
AcDbLine
 62
7
  6
CONTINUOUS
 10
30.4841666107
 20
9.234348367
 11
17.784490097
 21
9.234348367
  0
LINE
  5
264
100
AcDbEntity
  8
0
100
AcDbLine
 62
7
  6
CONTINUOUS
 10
409.2090159416
 20
18.7593422635
 11
273.4388174896
 21
18.7593422635
  0
LINE
  5
265
100
AcDbEntity
  8
DRAFT_ENTITY
100
AcDbLine
 62
7
  6
CONTINUOUS
 10
409.2091421966
 20
28.2845192655
 11
273.4386343841
 21
28.2845192655
  0
LINE
  5
266
100
AcDbEntity
  8
0
100
AcDbLine
 62
7
  6
CONTINUOUS
 10
409.2091421966
 20
44.1593056424
 11
273.4386343841
 21
44.1593056424
  0
LINE
  5
267
100
AcDbEntity
  8
0
100
AcDbLine
 62
7
  6
CONTINUOUS
 10
273.4386343841
 20
44.1593056424
 11
273.4386343841
 21
9.2342568143
  0
LINE
  5
268
100
AcDbEntity
  8
0
100
AcDbLine
 62
7
  6
CONTINUOUS
 10
287.2079097655
 20
18.7593422635
 11
287.2079097655
 21
9.2342568143
  0
LINE
  5
269
100
AcDbEntity
  8
0
100
AcDbLine
 62
7
  6
CONTINUOUS
 10
353.3344447689
 20
18.7593808926
 11
353.3344447689
 21
9.2342954434
  0
LINE
  5
26A
100
AcDbEntity
  8
0
100
AcDbLine
 62
7
  6
CONTINUOUS
 10
17.7838797455
 20
287.0843544705
 11
409.208898056
 21
287.0843544705
  0
LINE
  5
26B
100
AcDbEntity
  8
0
100
AcDbLine
 62
7
  6
CONTINUOUS
 10
0.0
 20
297.0
 11
420.0
 21
297.0
  0
LINE
  5
26C
100
AcDbEntity
  8
0
100
AcDbLine
 62
7
  6
CONTINUOUS
 10
367.9586057154
 20
9.2337890544
 11
367.9586057154
 21
18.7587829509
  0
LINE
  5
26D
100
AcDbEntity
  8
0
100
AcDbLine
 62
7
  6
CONTINUOUS
 10
409.208898056
 20
287.0843544705
 11
409.2090201263
 21
9.2342568143
  0
LINE
  5
26E
100
AcDbEntity
  8
0
100
AcDbLine
 62
7
  6
CONTINUOUS
 10
420.0
 20
0.0
 11
420.0
 21
297.0
  0
LINE
  5
26F
100
AcDbEntity
  8
0
100
AcDbLine
 62
7
  6
CONTINUOUS
 10
266.5242288457
 20
221.5442198524
 11
270.7845923364
 21
235.3307739652
  0
LINE
  5
270
100
AcDbEntity
  8
0
100
AcDbLine
 62
7
  6
CONTINUOUS
 10
267.434759785
 20
222.0011277289
 11
271.6951232757
 21
235.7876818417
  0
LINE
  5
271
100
AcDbEntity
  8
0
100
AcDbLine
 62
7
  6
CONTINUOUS
 10
269.8444968734
 20
220.9195265366
 11
268.2952737859
 21
215.906234132
  0
LINE
  5
272
100
AcDbEntity
  8
0
100
AcDbLine
 62
7
  6
CONTINUOUS
 10
274.2101136977
 20
202.9145876269
 11
274.5151553463
 21
202.2929777463
  0
LINE
  5
273
100
AcDbEntity
  8
0
100
AcDbLine
 62
7
  6
CONTINUOUS
 10
268.2952737859
 20
215.906234132
 11
268.9053570831
 21
214.6630143707
  0
LINE
  5
274
100
AcDbEntity
  8
0
100
AcDbLine
 62
7
  6
CONTINUOUS
 10
270.1255236776
 20
212.1765748482
 11
270.7356069748
 21
210.933355087
  0
LINE
  5
275
100
AcDbEntity
  8
0
100
AcDbLine
 62
7
  6
CONTINUOUS
 10
275.4362164345
 20
202.2929777463
 11
275.1311747859
 21
202.9145876269
  0
LINE
  5
276
100
AcDbEntity
  8
0
100
AcDbLine
 62
7
  6
CONTINUOUS
 10
266.5723325697
 20
221.130873896
 11
268.6202113232
 21
216.9577333648
  0
LINE
  5
277
100
AcDbEntity
  8
0
100
AcDbLine
 62
7
  6
CONTINUOUS
 10
269.7462952013
 20
214.6630143707
 11
270.4504612149
 21
213.228074081
  0
LINE
  5
278
100
AcDbEntity
  8
0
100
AcDbLine
 62
7
  6
CONTINUOUS
 10
271.576545093
 20
210.933355087
 11
273.6492988174
 21
206.7095246656
  0
LINE
  5
279
100
AcDbEntity
  8
0
100
AcDbLine
 62
7
  6
CONTINUOUS
 10
271.6866190497
 20
220.9195265366
 11
270.1373959622
 21
215.906234132
  0
LINE
  5
27A
100
AcDbEntity
  8
0
100
AcDbLine
 62
7
  6
CONTINUOUS
 10
272.5777291511
 20
210.933355087
 11
271.9676458538
 21
212.1765748482
  0
LINE
  5
27B
100
AcDbEntity
  8
0
100
AcDbLine
 62
7
  6
CONTINUOUS
 10
270.7474792594
 20
214.6630143707
 11
270.1373959622
 21
215.906234132
  0
LINE
  5
27C
100
AcDbEntity
  8
0
100
AcDbLine
 62
7
  6
CONTINUOUS
 10
272.2967023469
 20
219.6763067754
 11
270.7474792594
 21
214.6630143707
  0
LINE
  5
27D
100
AcDbEntity
  8
0
100
AcDbLine
 62
7
  6
CONTINUOUS
 10
271.6747467651
 20
217.1898672529
 11
270.1255236776
 21
212.1765748482
  0
LINE
  5
27E
100
AcDbEntity
  8
0
100
AcDbLine
 62
7
  6
CONTINUOUS
 10
276.985439522
 20
207.306270151
 11
276.6803978734
 21
207.9278800316
  0
LINE
  5
27F
100
AcDbEntity
  8
0
100
AcDbLine
 62
7
  6
CONTINUOUS
 10
274.1269522386
 20
215.9466474916
 11
273.5168689413
 21
217.1898672529
  0
LINE
  5
280
100
AcDbEntity
  8
0
100
AcDbLine
 62
7
  6
CONTINUOUS
 10
272.2967023469
 20
219.6763067754
 11
271.6866190497
 21
220.9195265366
  0
LINE
  5
281
100
AcDbEntity
  8
0
100
AcDbLine
 62
7
  6
CONTINUOUS
 10
275.7709183601
 20
224.8994374004
 11
279.1356372533
 21
235.7876818417
  0
LINE
  5
282
100
AcDbEntity
  8
0
100
AcDbLine
 62
7
  6
CONTINUOUS
 10
273.5168689413
 20
217.1898672529
 11
271.9676458538
 21
212.1765748482
  0
LINE
  5
283
100
AcDbEntity
  8
0
100
AcDbLine
 62
7
  6
CONTINUOUS
 10
274.7791180327
 20
219.7229099348
 11
274.5854651468
 21
219.0962483842
  0
LINE
  5
284
100
AcDbEntity
  8
0
100
AcDbLine
 62
7
  6
CONTINUOUS
 10
279.8874345033
 20
235.5999014459
 11
276.5807440874
 21
224.8994374004
  0
LINE
  5
285
100
AcDbEntity
  8
0
100
AcDbLine
 62
7
  6
CONTINUOUS
 10
274.1269522386
 20
215.9466474916
 11
272.5777291511
 21
210.933355087
  0
LINE
  5
286
100
AcDbEntity
  8
0
100
AcDbLine
 62
7
  6
CONTINUOUS
 10
283.1571075981
 20
234.9078027198
 11
284.1533224976
 21
235.9529217149
  0
LINE
  5
287
100
AcDbEntity
  8
0
100
AcDbLine
 62
7
  6
CONTINUOUS
 10
282.9681029185
 20
234.5693264757
 11
283.9504543496
 21
235.5999014459
  0
LINE
  5
288
100
AcDbEntity
  8
0
100
AcDbLine
 62
7
  6
CONTINUOUS
 10
295.7413164217
 20
201.9075796203
 11
297.583438598
 21
201.9075796203
  0
LINE
  5
289
100
AcDbEntity
  8
0
100
AcDbLine
 62
7
  6
CONTINUOUS
 10
310.478293832
 20
201.9075796203
 11
312.3204160083
 21
201.9075796203
  0
LINE
  5
28A
100
AcDbEntity
  8
0
100
AcDbLine
 62
7
  6
CONTINUOUS
 10
278.7893977078
 20
207.301218481
 11
279.0944393564
 21
206.6796086004
  0
LINE
  5
28B
100
AcDbEntity
  8
0
100
AcDbLine
 62
7
  6
CONTINUOUS
 10
280.9365615327
 20
206.6796086004
 11
280.6315198841
 21
207.301218481
  0
LINE
  5
28C
100
AcDbEntity
  8
0
100
AcDbLine
 62
7
  6
CONTINUOUS
 10
276.6899598146
 20
219.1324157114
 11
276.4963069287
 21
218.5057541609
  0
LINE
  5
28D
100
AcDbEntity
  8
0
100
AcDbLine
 62
7
  6
CONTINUOUS
 10
281.8812508345
 20
234.5693264757
 11
278.8930318758
 21
224.8994374004
  0
LINE
  5
28E
100
AcDbEntity
  8
0
100
AcDbLine
 62
7
  6
CONTINUOUS
 10
282.9681029185
 20
234.5693264757
 11
279.9798839598
 21
224.8994374004
  0
LINE
  5
28F
100
AcDbEntity
  8
0
100
AcDbLine
 62
7
  6
CONTINUOUS
 10
274.5151553463
 20
202.2929777463
 11
275.4362164345
 21
202.2929777463
  0
LINE
  5
290
100
AcDbEntity
  8
0
100
AcDbLine
 62
7
  6
CONTINUOUS
 10
275.1311747859
 20
202.9145876269
 11
274.2101136977
 21
202.9145876269
  0
LINE
  5
291
100
AcDbEntity
  8
0
100
AcDbLine
 62
7
  6
CONTINUOUS
 10
311.7103327111
 20
203.1507993816
 11
309.8682105348
 21
203.1507993816
  0
LINE
  5
292
100
AcDbEntity
  8
0
100
AcDbLine
 62
7
  6
CONTINUOUS
 10
296.9733553008
 20
203.1507993816
 11
295.1312331245
 21
203.1507993816
  0
LINE
  5
293
100
AcDbEntity
  8
0
100
AcDbLine
 62
7
  6
CONTINUOUS
 10
281.1302144186
 20
207.306270151
 11
280.82517277
 21
207.9278800316
  0
LINE
  5
294
100
AcDbEntity
  8
0
100
AcDbLine
 62
7
  6
CONTINUOUS
 10
283.9504543496
 20
235.5999014459
 11
280.6437639337
 21
224.8994374004
  0
LINE
  5
295
100
AcDbEntity
  8
0
100
AcDbLine
 62
7
  6
CONTINUOUS
 10
275.7593367852
 20
207.9278800316
 11
274.2101136977
 21
202.9145876269
  0
LINE
  5
296
100
AcDbEntity
  8
0
100
AcDbLine
 62
7
  6
CONTINUOUS
 10
281.153234344
 20
224.8994374004
 11
284.5179532372
 21
235.7876818417
  0
LINE
  5
297
100
AcDbEntity
  8
0
100
AcDbLine
 62
7
  6
CONTINUOUS
 10
276.6803978734
 20
207.9278800316
 11
275.1311747859
 21
202.9145876269
  0
LINE
  5
298
100
AcDbEntity
  8
0
100
AcDbLine
 62
7
  6
CONTINUOUS
 10
276.985439522
 20
207.306270151
 11
275.4362164345
 21
202.2929777463
  0
LINE
  5
299
100
AcDbEntity
  8
0
100
AcDbLine
 62
7
  6
CONTINUOUS
 10
308.6480439403
 20
205.6372389041
 11
310.4901661166
 21
205.6372389041
  0
LINE
  5
29A
100
AcDbEntity
  8
0
100
AcDbLine
 62
7
  6
CONTINUOUS
 10
276.5321028662
 20
205.8392708327
 11
295.9620328676
 21
205.8392708327
  0
LINE
  5
29B
100
AcDbEntity
  8
0
100
AcDbLine
 62
7
  6
CONTINUOUS
 10
298.7984219477
 20
205.8392708327
 11
308.5489011267
 21
205.8392708327
  0
LINE
  5
29C
100
AcDbEntity
  8
0
100
AcDbLine
 62
7
  6
CONTINUOUS
 10
310.5525986466
 20
205.8392708327
 11
310.6990102779
 21
205.8392708327
  0
LINE
  5
29D
100
AcDbEntity
  8
0
100
AcDbLine
 62
7
  6
CONTINUOUS
 10
313.535399358
 20
205.8392708327
 11
316.2609549624
 21
205.8392708327
  0
LINE
  5
29E
100
AcDbEntity
  8
0
100
AcDbLine
 62
7
  6
CONTINUOUS
 10
281.0423334321
 20
219.7229099348
 11
280.8486805462
 21
219.0962483842
  0
LINE
  5
29F
100
AcDbEntity
  8
0
100
AcDbLine
 62
7
  6
CONTINUOUS
 10
278.9830505937
 20
207.9278800316
 11
278.7893977078
 21
207.301218481
  0
LINE
  5
2A0
100
AcDbEntity
  8
0
100
AcDbLine
 62
7
  6
CONTINUOUS
 10
282.953175214
 20
219.1324157114
 11
282.7595223281
 21
218.5057541609
  0
LINE
  5
2A1
100
AcDbEntity
  8
0
100
AcDbLine
 62
7
  6
CONTINUOUS
 10
279.0944393564
 20
206.6796086004
 11
280.9365615327
 21
206.6796086004
  0
LINE
  5
2A2
100
AcDbEntity
  8
0
100
AcDbLine
 62
7
  6
CONTINUOUS
 10
289.9076965312
 20
206.6796086004
 11
291.7498187075
 21
206.6796086004
  0
LINE
  5
2A3
100
AcDbEntity
  8
0
100
AcDbLine
 62
7
  6
CONTINUOUS
 10
295.6951484478
 20
206.6939757011
 11
296.6162095359
 21
206.6939757011
  0
LINE
  5
2A4
100
AcDbEntity
  8
0
100
AcDbLine
 62
7
  6
CONTINUOUS
 10
309.8800828194
 20
206.8804586653
 11
308.0379606431
 21
206.8804586653
  0
LINE
  5
2A5
100
AcDbEntity
  8
0
100
AcDbLine
 62
7
  6
CONTINUOUS
 10
291.4447770589
 20
207.301218481
 11
289.6026548826
 21
207.301218481
  0
LINE
  5
2A6
100
AcDbEntity
  8
0
100
AcDbLine
 62
7
  6
CONTINUOUS
 10
280.6315198841
 20
207.301218481
 11
278.7893977078
 21
207.301218481
  0
LINE
  5
2A7
100
AcDbEntity
  8
0
100
AcDbLine
 62
7
  6
CONTINUOUS
 10
296.3111678873
 20
207.3155855818
 11
295.3901067992
 21
207.3155855818
  0
LINE
  5
2A8
100
AcDbEntity
  8
0
100
AcDbLine
 62
7
  6
CONTINUOUS
 10
291.6384299448
 20
207.9278800316
 11
289.7963077686
 21
207.9278800316
  0
LINE
  5
2A9
100
AcDbEntity
  8
0
100
AcDbLine
 62
7
  6
CONTINUOUS
 10
280.82517277
 20
207.9278800316
 11
278.9830505937
 21
207.9278800316
  0
LINE
  5
2AA
100
AcDbEntity
  8
0
100
AcDbLine
 62
7
  6
CONTINUOUS
 10
276.6803978734
 20
207.9278800316
 11
275.7593367852
 21
207.9278800316
  0
LINE
  5
2AB
100
AcDbEntity
  8
0
100
AcDbLine
 62
7
  6
CONTINUOUS
 10
313.2595557986
 20
208.1640917862
 11
311.4174336223
 21
208.1640917862
  0
LINE
  5
2AC
100
AcDbEntity
  8
0
100
AcDbLine
 62
7
  6
CONTINUOUS
 10
298.5225783883
 20
208.1640917862
 11
297.0705093446
 21
208.1640917862
  0
LINE
  5
2AD
100
AcDbEntity
  8
0
100
AcDbLine
 62
7
  6
CONTINUOUS
 10
283.9994802583
 20
211.1198380512
 11
284.3045219069
 21
210.4982281705
  0
LINE
  5
2AE
100
AcDbEntity
  8
0
100
AcDbLine
 62
7
  6
CONTINUOUS
 10
285.225582995
 20
210.4982281705
 11
284.9205413464
 21
211.1198380512
  0
LINE
  5
2AF
100
AcDbEntity
  8
0
100
AcDbLine
 62
7
  6
CONTINUOUS
 10
283.0322511962
 20
215.906234132
 11
283.6423344934
 21
214.6630143707
  0
LINE
  5
2B0
100
AcDbEntity
  8
0
100
AcDbLine
 62
7
  6
CONTINUOUS
 10
284.5814742837
 20
220.9195265366
 11
283.0322511962
 21
215.906234132
  0
LINE
  5
2B1
100
AcDbEntity
  8
0
100
AcDbLine
 62
7
  6
CONTINUOUS
 10
280.82517277
 20
207.9278800316
 11
280.6315198841
 21
207.301218481
  0
LINE
  5
2B2
100
AcDbEntity
  8
0
100
AcDbLine
 62
7
  6
CONTINUOUS
 10
281.1302144186
 20
207.306270151
 11
280.9365615327
 21
206.6796086004
  0
LINE
  5
2B3
100
AcDbEntity
  8
0
100
AcDbLine
 62
7
  6
CONTINUOUS
 10
284.3045219069
 20
210.4982281705
 11
285.225582995
 21
210.4982281705
  0
LINE
  5
2B4
100
AcDbEntity
  8
0
100
AcDbLine
 62
7
  6
CONTINUOUS
 10
285.4844566697
 20
214.6630143707
 11
284.8743733725
 21
215.906234132
  0
LINE
  5
2B5
100
AcDbEntity
  8
0
100
AcDbLine
 62
7
  6
CONTINUOUS
 10
289.6026548826
 20
207.301218481
 11
289.9076965312
 21
206.6796086004
  0
LINE
  5
2B6
100
AcDbEntity
  8
0
100
AcDbLine
 62
7
  6
CONTINUOUS
 10
286.42359646
 20
220.9195265366
 11
284.8743733725
 21
215.906234132
  0
LINE
  5
2B7
100
AcDbEntity
  8
0
100
AcDbLine
 62
7
  6
CONTINUOUS
 10
285.0944035371
 20
214.6630143707
 11
283.9994802583
 21
211.1198380512
  0
LINE
  5
2B8
100
AcDbEntity
  8
0
100
AcDbLine
 62
7
  6
CONTINUOUS
 10
287.0336797572
 20
219.6763067754
 11
285.4844566697
 21
214.6630143707
  0
LINE
  5
2B9
100
AcDbEntity
  8
0
100
AcDbLine
 62
7
  6
CONTINUOUS
 10
286.4697644339
 20
216.1331304558
 11
284.9205413464
 21
211.1198380512
  0
LINE
  5
2BA
100
AcDbEntity
  8
0
100
AcDbLine
 62
7
  6
CONTINUOUS
 10
270.7356069748
 20
210.933355087
 11
272.5777291511
 21
210.933355087
  0
LINE
  5
2BB
100
AcDbEntity
  8
0
100
AcDbLine
 62
7
  6
CONTINUOUS
 10
284.9205413464
 20
211.1198380512
 11
283.9994802583
 21
211.1198380512
  0
LINE
  5
2BC
100
AcDbEntity
  8
0
100
AcDbLine
 62
7
  6
CONTINUOUS
 10
311.4293059069
 20
211.89375107
 11
309.5871837306
 21
211.89375107
  0
LINE
  5
2BD
100
AcDbEntity
  8
0
100
AcDbLine
 62
7
  6
CONTINUOUS
 10
271.9676458538
 20
212.1765748482
 11
270.1255236776
 21
212.1765748482
  0
LINE
  5
2BE
100
AcDbEntity
  8
0
100
AcDbLine
 62
7
  6
CONTINUOUS
 10
297.8603909748
 20
212.3288779864
 11
296.9393298867
 21
212.3288779864
  0
LINE
  5
2BF
100
AcDbEntity
  8
0
100
AcDbLine
 62
7
  6
CONTINUOUS
 10
286.7748060825
 20
215.5115205752
 11
286.4697644339
 21
216.1331304558
  0
LINE
  5
2C0
100
AcDbEntity
  8
0
100
AcDbLine
 62
7
  6
CONTINUOUS
 10
291.7498187075
 20
206.6796086004
 11
291.4447770589
 21
207.301218481
  0
LINE
  5
2C1
100
AcDbEntity
  8
0
100
AcDbLine
 62
7
  6
CONTINUOUS
 10
291.9434715935
 20
207.306270151
 11
291.6384299448
 21
207.9278800316
  0
LINE
  5
2C2
100
AcDbEntity
  8
0
100
AcDbLine
 62
7
  6
CONTINUOUS
 10
286.7748060825
 20
215.5115205752
 11
285.225582995
 21
210.4982281705
  0
LINE
  5
2C3
100
AcDbEntity
  8
0
100
AcDbLine
 62
7
  6
CONTINUOUS
 10
268.9053570831
 20
214.6630143707
 11
270.7474792594
 21
214.6630143707
  0
LINE
  5
2C4
100
AcDbEntity
  8
0
100
AcDbLine
 62
7
  6
CONTINUOUS
 10
283.6423344934
 20
214.6630143707
 11
285.4844566697
 21
214.6630143707
  0
LINE
  5
2C5
100
AcDbEntity
  8
0
100
AcDbLine
 62
7
  6
CONTINUOUS
 10
305.4845150083
 20
214.8992261254
 11
306.4055760964
 21
214.8992261254
  0
LINE
  5
2C6
100
AcDbEntity
  8
0
100
AcDbLine
 62
7
  6
CONTINUOUS
 10
295.1312331245
 20
203.1507993816
 11
295.7413164217
 21
201.9075796203
  0
LINE
  5
2C7
100
AcDbEntity
  8
0
100
AcDbLine
 62
7
  6
CONTINUOUS
 10
287.0336797572
 20
219.6763067754
 11
286.42359646
 21
220.9195265366
  0
LINE
  5
2C8
100
AcDbEntity
  8
0
100
AcDbLine
 62
7
  6
CONTINUOUS
 10
297.583438598
 20
201.9075796203
 11
296.9733553008
 21
203.1507993816
  0
LINE
  5
2C9
100
AcDbEntity
  8
0
100
AcDbLine
 62
7
  6
CONTINUOUS
 10
291.7706643757
 20
220.5341284106
 11
291.5770114898
 21
219.9074668601
  0
LINE
  5
2CA
100
AcDbEntity
  8
0
100
AcDbLine
 62
7
  6
CONTINUOUS
 10
306.1005344478
 20
215.520836006
 11
305.1794733597
 21
215.520836006
  0
LINE
  5
2CB
100
AcDbEntity
  8
0
100
AcDbLine
 62
7
  6
CONTINUOUS
 10
284.8743733725
 20
215.906234132
 11
283.0322511962
 21
215.906234132
  0
LINE
  5
2CC
100
AcDbEntity
  8
0
100
AcDbLine
 62
7
  6
CONTINUOUS
 10
270.1373959622
 20
215.906234132
 11
268.2952737859
 21
215.906234132
  0
LINE
  5
2CD
100
AcDbEntity
  8
0
100
AcDbLine
 62
7
  6
CONTINUOUS
 10
286.4697644339
 20
216.1331304558
 11
285.9387564784
 21
216.1331304558
  0
LINE
  5
2CE
100
AcDbEntity
  8
0
100
AcDbLine
 62
7
  6
CONTINUOUS
 10
273.5168689413
 20
217.1898672529
 11
271.6747467651
 21
217.1898672529
  0
LINE
  5
2CF
100
AcDbEntity
  8
0
100
AcDbLine
 62
7
  6
CONTINUOUS
 10
295.3901067992
 20
207.3155855818
 11
295.6951484478
 21
206.6939757011
  0
LINE
  5
2D0
100
AcDbEntity
  8
0
100
AcDbLine
 62
7
  6
CONTINUOUS
 10
296.6162095359
 20
206.6939757011
 11
296.3111678873
 21
207.3155855818
  0
LINE
  5
2D1
100
AcDbEntity
  8
0
100
AcDbLine
 62
7
  6
CONTINUOUS
 10
293.612786552
 20
220.5341284106
 11
293.4191336661
 21
219.9074668601
  0
LINE
  5
2D2
100
AcDbEntity
  8
0
100
AcDbLine
 62
7
  6
CONTINUOUS
 10
289.7963077686
 20
207.9278800316
 11
289.6026548826
 21
207.301218481
  0
LINE
  5
2D3
100
AcDbEntity
  8
0
100
AcDbLine
 62
7
  6
CONTINUOUS
 10
293.9178282006
 20
219.91251853
 11
293.7241753147
 21
219.2858569794
  0
LINE
  5
2D4
100
AcDbEntity
  8
0
100
AcDbLine
 62
7
  6
CONTINUOUS
 10
291.8820531384
 20
219.2858569794
 11
293.7241753147
 21
219.2858569794
  0
LINE
  5
2D5
100
AcDbEntity
  8
0
100
AcDbLine
 62
7
  6
CONTINUOUS
 10
302.6953103132
 20
219.2858569794
 11
304.5374324895
 21
219.2858569794
  0
LINE
  5
2D6
100
AcDbEntity
  8
0
100
AcDbLine
 62
7
  6
CONTINUOUS
 10
291.5770114898
 20
219.9074668601
 11
291.8820531384
 21
219.2858569794
  0
LINE
  5
2D7
100
AcDbEntity
  8
0
100
AcDbLine
 62
7
  6
CONTINUOUS
 10
299.1326616855
 20
206.920872025
 11
298.5225783883
 21
208.1640917862
  0
LINE
  5
2D8
100
AcDbEntity
  8
0
100
AcDbLine
 62
7
  6
CONTINUOUS
 10
293.7241753147
 20
219.2858569794
 11
293.4191336661
 21
219.9074668601
  0
LINE
  5
2D9
100
AcDbEntity
  8
0
100
AcDbLine
 62
7
  6
CONTINUOUS
 10
293.9178282006
 20
219.91251853
 11
293.612786552
 21
220.5341284106
  0
LINE
  5
2DA
100
AcDbEntity
  8
0
100
AcDbLine
 62
7
  6
CONTINUOUS
 10
291.6384299448
 20
207.9278800316
 11
291.4447770589
 21
207.301218481
  0
LINE
  5
2DB
100
AcDbEntity
  8
0
100
AcDbLine
 62
7
  6
CONTINUOUS
 10
291.9434715935
 20
207.306270151
 11
291.7498187075
 21
206.6796086004
  0
LINE
  5
2DC
100
AcDbEntity
  8
0
100
AcDbLine
 62
7
  6
CONTINUOUS
 10
304.2323908409
 20
219.9074668601
 11
302.3902686646
 21
219.9074668601
  0
LINE
  5
2DD
100
AcDbEntity
  8
0
100
AcDbLine
 62
7
  6
CONTINUOUS
 10
293.4191336661
 20
219.9074668601
 11
291.5770114898
 21
219.9074668601
  0
LINE
  5
2DE
100
AcDbEntity
  8
0
100
AcDbLine
 62
7
  6
CONTINUOUS
 10
307.6497575353
 20
220.5341284106
 11
306.7286964472
 21
220.5341284106
  0
LINE
  5
2DF
100
AcDbEntity
  8
0
100
AcDbLine
 62
7
  6
CONTINUOUS
 10
304.4260437268
 20
220.5341284106
 11
302.5839215506
 21
220.5341284106
  0
LINE
  5
2E0
100
AcDbEntity
  8
0
100
AcDbLine
 62
7
  6
CONTINUOUS
 10
293.612786552
 20
220.5341284106
 11
291.7706643757
 21
220.5341284106
  0
LINE
  5
2E1
100
AcDbEntity
  8
0
100
AcDbLine
 62
7
  6
CONTINUOUS
 10
286.42359646
 20
220.9195265366
 11
284.5814742837
 21
220.9195265366
  0
LINE
  5
2E2
100
AcDbEntity
  8
0
100
AcDbLine
 62
7
  6
CONTINUOUS
 10
271.6866190497
 20
220.9195265366
 11
269.8444968734
 21
220.9195265366
  0
LINE
  5
2E3
100
AcDbEntity
  8
0
100
AcDbLine
 62
7
  6
CONTINUOUS
 10
298.1654326234
 20
211.7072681058
 11
297.8603909748
 21
212.3288779864
  0
LINE
  5
2E4
100
AcDbEntity
  8
0
100
AcDbLine
 62
7
  6
CONTINUOUS
 10
308.3298720986
 20
222.0011277289
 11
267.434759785
 21
222.0011277289
  0
LINE
  5
2E5
100
AcDbEntity
  8
0
100
AcDbLine
 62
7
  6
CONTINUOUS
 10
296.9393298867
 20
212.3288779864
 11
295.3901067992
 21
207.3155855818
  0
LINE
  5
2E6
100
AcDbEntity
  8
0
100
AcDbLine
 62
7
  6
CONTINUOUS
 10
297.8603909748
 20
212.3288779864
 11
296.3111678873
 21
207.3155855818
  0
LINE
  5
2E7
100
AcDbEntity
  8
0
100
AcDbLine
 62
7
  6
CONTINUOUS
 10
296.2261564033
 20
206.6939757011
 11
295.1312331245
 21
203.1507993816
  0
LINE
  5
2E8
100
AcDbEntity
  8
0
100
AcDbLine
 62
7
  6
CONTINUOUS
 10
298.1654326234
 20
211.7072681058
 11
296.6162095359
 21
206.6939757011
  0
LINE
  5
2E9
100
AcDbEntity
  8
0
100
AcDbLine
 62
7
  6
CONTINUOUS
 10
275.7709183601
 20
224.8994374004
 11
281.153234344
 21
224.8994374004
  0
LINE
  5
2EA
100
AcDbEntity
  8
0
100
AcDbLine
 62
7
  6
CONTINUOUS
 10
298.5225783883
 20
208.1640917862
 11
296.9733553008
 21
203.1507993816
  0
LINE
  5
2EB
100
AcDbEntity
  8
0
100
AcDbLine
 62
7
  6
CONTINUOUS
 10
302.5839215506
 20
220.5341284106
 11
302.3902686646
 21
219.9074668601
  0
LINE
  5
2EC
100
AcDbEntity
  8
0
100
AcDbLine
 62
7
  6
CONTINUOUS
 10
299.1326616855
 20
206.920872025
 11
297.583438598
 21
201.9075796203
  0
LINE
  5
2ED
100
AcDbEntity
  8
0
100
AcDbLine
 62
7
  6
CONTINUOUS
 10
279.8874345033
 20
235.5999014459
 11
281.8812508345
 21
234.5693264757
  0
LINE
  5
2EE
100
AcDbEntity
  8
0
100
AcDbLine
 62
7
  6
CONTINUOUS
 10
279.9646265132
 20
236.2053120158
 11
282.1006375168
 21
235.1012386656
  0
LINE
  5
2EF
100
AcDbEntity
  8
0
100
AcDbLine
 62
7
  6
CONTINUOUS
 10
308.0379606431
 20
206.8804586653
 11
308.6480439403
 21
205.6372389041
  0
LINE
  5
2F0
100
AcDbEntity
  8
0
100
AcDbLine
 62
7
  6
CONTINUOUS
 10
309.8682105348
 20
203.1507993816
 11
310.478293832
 21
201.9075796203
  0
LINE
  5
2F1
100
AcDbEntity
  8
0
100
AcDbLine
 62
7
  6
CONTINUOUS
 10
302.3902686646
 20
219.9074668601
 11
302.6953103132
 21
219.2858569794
  0
LINE
  5
2F2
100
AcDbEntity
  8
0
100
AcDbLine
 62
7
  6
CONTINUOUS
 10
305.1794733597
 20
215.520836006
 11
305.4845150083
 21
214.8992261254
  0
LINE
  5
2F3
100
AcDbEntity
  8
0
100
AcDbLine
 62
7
  6
CONTINUOUS
 10
312.3204160083
 20
201.9075796203
 11
311.7103327111
 21
203.1507993816
  0
LINE
  5
2F4
100
AcDbEntity
  8
0
100
AcDbLine
 62
7
  6
CONTINUOUS
 10
310.4901661166
 20
205.6372389041
 11
309.8800828194
 21
206.8804586653
  0
LINE
  5
2F5
100
AcDbEntity
  8
0
100
AcDbLine
 62
7
  6
CONTINUOUS
 10
300.7609607552
 20
208.7079828502
 11
300.5673078692
 21
208.0813212996
  0
LINE
  5
2F6
100
AcDbEntity
  8
0
100
AcDbLine
 62
7
  6
CONTINUOUS
 10
304.4260437268
 20
220.5341284106
 11
304.2323908409
 21
219.9074668601
  0
LINE
  5
2F7
100
AcDbEntity
  8
0
100
AcDbLine
 62
7
  6
CONTINUOUS
 10
304.7310853754
 20
219.91251853
 11
304.5374324895
 21
219.2858569794
  0
LWPOLYLINE
  5
2F8
100
AcDbEntity
  8
0
100
AcDbPolyline
 62
7
  6
CONTINUOUS
 90
4
 70
0
 10
279.9643244586
 20
236.2054675675
 10
279.9025857992
 20
236.2347588041
 10
279.6585194903
 20
236.3054350456
 10
279.5038011176
 20
236.317428386
  0
LINE
  5
2F9
100
AcDbEntity
  8
0
100
AcDbLine
 62
7
  6
CONTINUOUS
 10
306.4055760964
 20
214.8992261254
 11
306.1005344478
 21
215.520836006
  0
LINE
  5
2FA
100
AcDbEntity
  8
0
100
AcDbLine
 62
7
  6
CONTINUOUS
 10
304.5374324895
 20
219.2858569794
 11
304.2323908409
 21
219.9074668601
  0
LINE
  5
2FB
100
AcDbEntity
  8
0
100
AcDbLine
 62
7
  6
CONTINUOUS
 10
304.7310853754
 20
219.91251853
 11
304.4260437268
 21
220.5341284106
  0
LINE
  5
2FC
100
AcDbEntity
  8
0
100
AcDbLine
 62
7
  6
CONTINUOUS
 10
302.6718025371
 20
208.1174886268
 11
302.4781496512
 21
207.4908270762
  0
LINE
  5
2FD
100
AcDbEntity
  8
0
100
AcDbLine
 62
7
  6
CONTINUOUS
 10
306.7286964472
 20
220.5341284106
 11
305.1794733597
 21
215.520836006
  0
LINE
  5
2FE
100
AcDbEntity
  8
0
100
AcDbLine
 62
7
  6
CONTINUOUS
 10
307.6497575353
 20
220.5341284106
 11
306.1005344478
 21
215.520836006
  0
LINE
  5
2FF
100
AcDbEntity
  8
0
100
AcDbLine
 62
7
  6
CONTINUOUS
 10
308.3298720986
 20
222.0011277289
 11
312.5902355893
 21
235.7876818417
  0
LINE
  5
300
100
AcDbEntity
  8
0
100
AcDbLine
 62
7
  6
CONTINUOUS
 10
307.9547991839
 20
219.91251853
 11
306.4055760964
 21
214.8992261254
  0
LINE
  5
301
100
AcDbEntity
  8
0
100
AcDbLine
 62
7
  6
CONTINUOUS
 10
313.8696390958
 20
206.920872025
 11
313.2595557986
 21
208.1640917862
  0
LINE
  5
302
100
AcDbEntity
  8
0
100
AcDbLine
 62
7
  6
CONTINUOUS
 10
312.0393892041
 20
210.6505313087
 11
311.4293059069
 21
211.89375107
  0
LINE
  5
303
100
AcDbEntity
  8
0
100
AcDbLine
 62
7
  6
CONTINUOUS
 10
307.9547991839
 20
219.91251853
 11
307.6497575353
 21
220.5341284106
  0
LINE
  5
304
100
AcDbEntity
  8
0
100
AcDbLine
 62
7
  6
CONTINUOUS
 10
310.0464159301
 20
221.130873896
 11
314.3067794207
 21
234.9174280088
  0
LINE
  5
305
100
AcDbEntity
  8
0
100
AcDbLine
 62
7
  6
CONTINUOUS
 10
317.1233821778
 20
206.7095246656
 11
310.0464159301
 21
221.130873896
  0
LINE
  5
306
100
AcDbEntity
  8
0
100
AcDbLine
 62
7
  6
CONTINUOUS
 10
307.0241761546
 20
208.7079828502
 11
306.8305232686
 21
208.0813212996
  0
LINE
  5
307
100
AcDbEntity
  8
0
100
AcDbLine
 62
7
  6
CONTINUOUS
 10
309.5871837306
 20
211.89375107
 11
308.0379606431
 21
206.8804586653
  0
LINE
  5
308
100
AcDbEntity
  8
0
100
AcDbLine
 62
7
  6
CONTINUOUS
 10
281.8812508345
 20
234.5693264757
 11
282.9681029185
 21
234.5693264757
  0
LINE
  5
309
100
AcDbEntity
  8
0
100
AcDbLine
 62
7
  6
CONTINUOUS
 10
282.0995179075
 20
235.0990725979
 11
283.3394274136
 21
235.0990725979
  0
LINE
  5
30A
100
AcDbEntity
  8
0
100
AcDbLine
 62
7
  6
CONTINUOUS
 10
271.6951232757
 20
235.7876818417
 11
279.1356372533
 21
235.7876818417
  0
LINE
  5
30B
100
AcDbEntity
  8
0
100
AcDbLine
 62
7
  6
CONTINUOUS
 10
284.5179532372
 20
235.7876818417
 11
312.5902355893
 21
235.7876818417
  0
LINE
  5
30C
100
AcDbEntity
  8
0
100
AcDbLine
 62
7
  6
CONTINUOUS
 10
272.1221815837
 20
236.3174279639
 11
279.5038631096
 21
236.3174279639
  0
LINE
  5
30D
100
AcDbEntity
  8
0
100
AcDbLine
 62
7
  6
CONTINUOUS
 10
285.0036300188
 20
236.317427912
 11
313.0172938973
 21
236.3174279639
  0
LINE
  5
30E
100
AcDbEntity
  8
0
100
AcDbLine
 62
7
  6
CONTINUOUS
 10
311.4293059069
 20
211.89375107
 11
309.8800828194
 21
206.8804586653
  0
LINE
  5
30F
100
AcDbEntity
  8
0
100
AcDbLine
 62
7
  6
CONTINUOUS
 10
312.0393892041
 20
210.6505313087
 11
310.4901661166
 21
205.6372389041
  0
LWPOLYLINE
  5
310
100
AcDbEntity
  8
0
100
AcDbPolyline
 62
7
  6
CONTINUOUS
 90
5
 70
0
 10
285.0036240318
 20
236.3174289763
 10
284.7495950605
 20
236.2897998017
 10
284.4753235591
 20
236.1921845808
 10
284.2327409438
 20
236.0289345032
 10
284.1528856448
 20
235.9524623083
  0
LINE
  5
311
100
AcDbEntity
  8
0
100
AcDbLine
 62
7
  6
CONTINUOUS
 10
311.4174336223
 20
208.1640917862
 11
309.8682105348
 21
203.1507993816
  0
LINE
  5
312
100
AcDbEntity
  8
0
100
AcDbLine
 62
7
  6
CONTINUOUS
 10
313.2595557986
 20
208.1640917862
 11
311.7103327111
 21
203.1507993816
  0
LINE
  5
313
100
AcDbEntity
  8
0
100
AcDbLine
 62
7
  6
CONTINUOUS
 10
313.8696390958
 20
206.920872025
 11
312.3204160083
 21
201.9075796203
  0
LINE
  5
314
100
AcDbEntity
  8
0
100
AcDbLine
 62
7
  6
CONTINUOUS
 10
317.1233821778
 20
206.7095246656
 11
321.3837456684
 21
220.4960787784
  0
LINE
  5
315
100
AcDbEntity
  8
0
100
AcDbLine
 62
7
  6
CONTINUOUS
 10
317.1714859017
 20
206.2961787092
 11
321.4318493923
 21
220.082732822
  0
LINE
  5
316
100
AcDbEntity
  8
0
100
AcDbLine
 62
7
  6
CONTINUOUS
 10
314.3067794207
 20
234.9174280088
 11
321.3837456684
 21
220.4960787784
  0
LINE
  5
317
100
AcDbEntity
  8
0
100
AcDbLine
 62
7
  6
CONTINUOUS
 10
314.2741183118
 20
235.5341874963
 11
321.3510845595
 21
221.1128382659
  0
LINE
  5
318
100
AcDbEntity
  8
0
100
AcDbLine
 62
7
  6
CONTINUOUS
 10
91.9
 20
108.9125
 11
91.9
 21
85.7125
  0
LINE
  5
319
100
AcDbEntity
  8
0
100
AcDbLine
 62
7
  6
CONTINUOUS
 10
94.84
 20
87.6725
 11
94.84
 21
86.6725
  0
LINE
  5
31A
100
AcDbEntity
  8
0
100
AcDbLine
 62
7
  6
CONTINUOUS
 10
95.34
 20
108.5725
 11
95.34
 21
106.5725
  0
LINE
  5
31B
100
AcDbEntity
  8
0
100
AcDbLine
 62
7
  6
CONTINUOUS
 10
95.34
 20
102.5725
 11
95.34
 21
100.5725
  0
LINE
  5
31C
100
AcDbEntity
  8
0
100
AcDbLine
 62
7
  6
CONTINUOUS
 10
95.84
 20
86.6725
 11
95.84
 21
87.6725
  0
LINE
  5
31D
100
AcDbEntity
  8
0
100
AcDbLine
 62
7
  6
CONTINUOUS
 10
97.34
 20
100.5725
 11
97.34
 21
102.5725
  0
LINE
  5
31E
100
AcDbEntity
  8
0
100
AcDbLine
 62
7
  6
CONTINUOUS
 10
97.34
 20
106.5725
 11
97.34
 21
108.5725
  0
LINE
  5
31F
100
AcDbEntity
  8
0
100
AcDbLine
 62
7
  6
CONTINUOUS
 10
98.34
 20
87.6725
 11
98.34
 21
86.6725
  0
LINE
  5
320
100
AcDbEntity
  8
0
100
AcDbLine
 62
7
  6
CONTINUOUS
 10
100.34
 20
86.6725
 11
100.34
 21
87.6725
  0
LINE
  5
321
100
AcDbEntity
  8
0
100
AcDbLine
 62
7
  6
CONTINUOUS
 10
93.3
 20
84.3125
 11
137.7
 21
84.3125
  0
LINE
  5
322
100
AcDbEntity
  8
0
100
AcDbLine
 62
7
  6
CONTINUOUS
 10
117.68
 20
86.0525
 11
119.68
 21
86.0525
  0
LINE
  5
323
100
AcDbEntity
  8
0
100
AcDbLine
 62
7
  6
CONTINUOUS
 10
133.68
 20
86.0525
 11
135.68
 21
86.0525
  0
LINE
  5
324
100
AcDbEntity
  8
0
100
AcDbLine
 62
7
  6
CONTINUOUS
 10
94.84
 20
86.6725
 11
95.84
 21
86.6725
  0
LINE
  5
325
100
AcDbEntity
  8
0
100
AcDbLine
 62
7
  6
CONTINUOUS
 10
98.34
 20
86.6725
 11
100.34
 21
86.6725
  0
LINE
  5
326
100
AcDbEntity
  8
0
100
AcDbLine
 62
7
  6
CONTINUOUS
 10
110.08
 20
86.6725
 11
112.08
 21
86.6725
  0
LINE
  5
327
100
AcDbEntity
  8
0
100
AcDbLine
 62
7
  6
CONTINUOUS
 10
112.08
 20
87.6725
 11
110.08
 21
87.6725
  0
LINE
  5
328
100
AcDbEntity
  8
0
100
AcDbLine
 62
7
  6
CONTINUOUS
 10
100.34
 20
87.6725
 11
98.34
 21
87.6725
  0
LINE
  5
329
100
AcDbEntity
  8
0
100
AcDbLine
 62
7
  6
CONTINUOUS
 10
95.84
 20
87.6725
 11
94.84
 21
87.6725
  0
LINE
  5
32A
100
AcDbEntity
  8
0
100
AcDbLine
 62
7
  6
CONTINUOUS
 10
135.68
 20
88.0525
 11
133.68
 21
88.0525
  0
LINE
  5
32B
100
AcDbEntity
  8
0
100
AcDbLine
 62
7
  6
CONTINUOUS
 10
119.68
 20
88.0525
 11
117.68
 21
88.0525
  0
LINE
  5
32C
100
AcDbEntity
  8
0
100
AcDbLine
 62
7
  6
CONTINUOUS
 10
109.84
 20
100.8725
 11
109.84
 21
99.8725
  0
LINE
  5
32D
100
AcDbEntity
  8
0
100
AcDbLine
 62
7
  6
CONTINUOUS
 10
110.08
 20
87.6725
 11
110.08
 21
86.6725
  0
LINE
  5
32E
100
AcDbEntity
  8
0
100
AcDbLine
 62
7
  6
CONTINUOUS
 10
133.68
 20
92.0525
 11
135.68
 21
92.0525
  0
LINE
  5
32F
100
AcDbEntity
  8
0
100
AcDbLine
 62
7
  6
CONTINUOUS
 10
110.84
 20
99.8725
 11
110.84
 21
100.8725
  0
LINE
  5
330
100
AcDbEntity
  8
0
100
AcDbLine
 62
7
  6
CONTINUOUS
 10
111.34
 20
108.5725
 11
111.34
 21
106.5725
  0
LINE
  5
331
100
AcDbEntity
  8
0
100
AcDbLine
 62
7
  6
CONTINUOUS
 10
112.08
 20
86.6725
 11
112.08
 21
87.6725
  0
LINE
  5
332
100
AcDbEntity
  8
0
100
AcDbLine
 62
7
  6
CONTINUOUS
 10
120.18
 20
93.7525
 11
121.18
 21
93.7525
  0
LINE
  5
333
100
AcDbEntity
  8
0
100
AcDbLine
 62
7
  6
CONTINUOUS
 10
113.34
 20
106.5725
 11
113.34
 21
108.5725
  0
LINE
  5
334
100
AcDbEntity
  8
0
100
AcDbLine
 62
7
  6
CONTINUOUS
 10
135.68
 20
94.0525
 11
133.68
 21
94.0525
  0
LINE
  5
335
100
AcDbEntity
  8
0
100
AcDbLine
 62
7
  6
CONTINUOUS
 10
121.18
 20
94.7525
 11
120.18
 21
94.7525
  0
LINE
  5
336
100
AcDbEntity
  8
0
100
AcDbLine
 62
7
  6
CONTINUOUS
 10
117.68
 20
88.0525
 11
117.68
 21
86.0525
  0
LINE
  5
337
100
AcDbEntity
  8
0
100
AcDbLine
 62
7
  6
CONTINUOUS
 10
118.94
 20
107.9525
 11
118.94
 21
106.9525
  0
LINE
  5
338
100
AcDbEntity
  8
0
100
AcDbLine
 62
7
  6
CONTINUOUS
 10
109.84
 20
99.8725
 11
110.84
 21
99.8725
  0
LINE
  5
339
100
AcDbEntity
  8
0
100
AcDbLine
 62
7
  6
CONTINUOUS
 10
95.34
 20
100.5725
 11
97.34
 21
100.5725
  0
LINE
  5
33A
100
AcDbEntity
  8
0
100
AcDbLine
 62
7
  6
CONTINUOUS
 10
110.84
 20
100.8725
 11
109.84
 21
100.8725
  0
LINE
  5
33B
100
AcDbEntity
  8
0
100
AcDbLine
 62
7
  6
CONTINUOUS
 10
119.68
 20
86.0525
 11
119.68
 21
88.0525
  0
LINE
  5
33C
100
AcDbEntity
  8
0
100
AcDbLine
 62
7
  6
CONTINUOUS
 10
120.18
 20
94.7525
 11
120.18
 21
93.7525
  0
LINE
  5
33D
100
AcDbEntity
  8
0
100
AcDbLine
 62
7
  6
CONTINUOUS
 10
120.94
 20
106.9525
 11
120.94
 21
107.9525
  0
LINE
  5
33E
100
AcDbEntity
  8
0
100
AcDbLine
 62
7
  6
CONTINUOUS
 10
97.34
 20
102.5725
 11
95.34
 21
102.5725
  0
LINE
  5
33F
100
AcDbEntity
  8
0
100
AcDbLine
 62
7
  6
CONTINUOUS
 10
121.18
 20
93.7525
 11
121.18
 21
94.7525
  0
LINE
  5
340
100
AcDbEntity
  8
0
100
AcDbLine
 62
7
  6
CONTINUOUS
 10
95.34
 20
106.5725
 11
97.34
 21
106.5725
  0
LINE
  5
341
100
AcDbEntity
  8
0
100
AcDbLine
 62
7
  6
CONTINUOUS
 10
111.34
 20
106.5725
 11
113.34
 21
106.5725
  0
LINE
  5
342
100
AcDbEntity
  8
0
100
AcDbLine
 62
7
  6
CONTINUOUS
 10
118.94
 20
106.9525
 11
120.94
 21
106.9525
  0
LINE
  5
343
100
AcDbEntity
  8
0
100
AcDbLine
 62
7
  6
CONTINUOUS
 10
130.68
 20
106.9525
 11
132.68
 21
106.9525
  0
LINE
  5
344
100
AcDbEntity
  8
0
100
AcDbLine
 62
7
  6
CONTINUOUS
 10
135.18
 20
106.9525
 11
136.18
 21
106.9525
  0
LINE
  5
345
100
AcDbEntity
  8
0
100
AcDbLine
 62
7
  6
CONTINUOUS
 10
136.18
 20
107.9525
 11
135.18
 21
107.9525
  0
LINE
  5
346
100
AcDbEntity
  8
0
100
AcDbLine
 62
7
  6
CONTINUOUS
 10
132.68
 20
107.9525
 11
130.68
 21
107.9525
  0
LINE
  5
347
100
AcDbEntity
  8
0
100
AcDbLine
 62
7
  6
CONTINUOUS
 10
120.94
 20
107.9525
 11
118.94
 21
107.9525
  0
LINE
  5
348
100
AcDbEntity
  8
0
100
AcDbLine
 62
7
  6
CONTINUOUS
 10
113.34
 20
108.5725
 11
111.34
 21
108.5725
  0
LINE
  5
349
100
AcDbEntity
  8
0
100
AcDbLine
 62
7
  6
CONTINUOUS
 10
97.34
 20
108.5725
 11
95.34
 21
108.5725
  0
LINE
  5
34A
100
AcDbEntity
  8
0
100
AcDbLine
 62
7
  6
CONTINUOUS
 10
137.7
 20
110.3125
 11
93.3
 21
110.3125
  0
LINE
  5
34B
100
AcDbEntity
  8
0
100
AcDbLine
 62
7
  6
CONTINUOUS
 10
130.68
 20
107.9525
 11
130.68
 21
106.9525
  0
LINE
  5
34C
100
AcDbEntity
  8
0
100
AcDbLine
 62
7
  6
CONTINUOUS
 10
132.68
 20
106.9525
 11
132.68
 21
107.9525
  0
LINE
  5
34D
100
AcDbEntity
  8
0
100
AcDbLine
 62
7
  6
CONTINUOUS
 10
133.68
 20
94.0525
 11
133.68
 21
92.0525
  0
LINE
  5
34E
100
AcDbEntity
  8
0
100
AcDbLine
 62
7
  6
CONTINUOUS
 10
133.68
 20
88.0525
 11
133.68
 21
86.0525
  0
LINE
  5
34F
100
AcDbEntity
  8
0
100
AcDbLine
 62
7
  6
CONTINUOUS
 10
135.18
 20
107.9525
 11
135.18
 21
106.9525
  0
LINE
  5
350
100
AcDbEntity
  8
0
100
AcDbLine
 62
7
  6
CONTINUOUS
 10
135.68
 20
86.0525
 11
135.68
 21
88.0525
  0
LINE
  5
351
100
AcDbEntity
  8
0
100
AcDbLine
 62
7
  6
CONTINUOUS
 10
135.68
 20
92.0525
 11
135.68
 21
94.0525
  0
LINE
  5
352
100
AcDbEntity
  8
0
100
AcDbLine
 62
7
  6
CONTINUOUS
 10
136.18
 20
106.9525
 11
136.18
 21
107.9525
  0
LINE
  5
353
100
AcDbEntity
  8
0
100
AcDbLine
 62
7
  6
CONTINUOUS
 10
139.1
 20
85.7125
 11
139.1
 21
108.9125
  0
LINE
  5
354
100
AcDbEntity
  8
0
100
AcDbLine
 62
7
  6
CONTINUOUS
 10
91.9
 20
191.8125
 11
91.9
 21
209.4125
  0
LINE
  5
355
100
AcDbEntity
  8
0
100
AcDbLine
 62
7
  6
CONTINUOUS
 10
93.3
 20
191.8125
 11
93.3
 21
210.8125
  0
LINE
  5
356
100
AcDbEntity
  8
0
100
AcDbLine
 62
7
  6
CONTINUOUS
 10
94.84
 20
191.8125
 11
94.84
 21
185.4125
  0
LINE
  5
357
100
AcDbEntity
  8
0
100
AcDbLine
 62
7
  6
CONTINUOUS
 10
95.34
 20
191.8125
 11
95.34
 21
185.4125
  0
LINE
  5
358
100
AcDbEntity
  8
0
100
AcDbLine
 62
7
  6
CONTINUOUS
 10
97.34
 20
191.8125
 11
97.34
 21
185.4125
  0
LINE
  5
359
100
AcDbEntity
  8
0
100
AcDbLine
 62
7
  6
CONTINUOUS
 10
98.34
 20
191.8125
 11
98.34
 21
191.0125
  0
LINE
  5
35A
100
AcDbEntity
  8
0
100
AcDbLine
 62
7
  6
CONTINUOUS
 10
99.94
 20
191.8125
 11
99.94
 21
191.0125
  0
LINE
  5
35B
100
AcDbEntity
  8
0
100
AcDbLine
 62
7
  6
CONTINUOUS
 10
101.3781981493
 20
195.5125
 11
101.3781981493
 21
209.4125
  0
LINE
  5
35C
100
AcDbEntity
  8
0
100
AcDbLine
 62
7
  6
CONTINUOUS
 10
101.94
 20
191.8125
 11
101.94
 21
191.0125
  0
LINE
  5
35D
100
AcDbEntity
  8
0
100
AcDbLine
 62
7
  6
CONTINUOUS
 10
102.0943809056
 20
209.4125
 11
102.0943809056
 21
195.5125
  0
LINE
  5
35E
100
AcDbEntity
  8
0
100
AcDbLine
 62
7
  6
CONTINUOUS
 10
136.18
 20
185.4125
 11
133.68
 21
185.4125
  0
LINE
  5
35F
100
AcDbEntity
  8
0
100
AcDbLine
 62
7
  6
CONTINUOUS
 10
121.18
 20
185.4125
 11
120.18
 21
185.4125
  0
LINE
  5
360
100
AcDbEntity
  8
0
100
AcDbLine
 62
7
  6
CONTINUOUS
 10
119.68
 20
185.4125
 11
117.68
 21
185.4125
  0
LINE
  5
361
100
AcDbEntity
  8
0
100
AcDbLine
 62
7
  6
CONTINUOUS
 10
113.34
 20
185.4125
 11
111.34
 21
185.4125
  0
LINE
  5
362
100
AcDbEntity
  8
0
100
AcDbLine
 62
7
  6
CONTINUOUS
 10
110.84
 20
185.4125
 11
109.84
 21
185.4125
  0
LINE
  5
363
100
AcDbEntity
  8
0
100
AcDbLine
 62
7
  6
CONTINUOUS
 10
97.34
 20
185.4125
 11
94.84
 21
185.4125
  0
LINE
  5
364
100
AcDbEntity
  8
0
100
AcDbLine
 62
7
  6
CONTINUOUS
 10
103.71
 20
209.4125
 11
103.71
 21
195.5125
  0
LINE
  5
365
100
AcDbEntity
  8
0
100
AcDbLine
 62
7
  6
CONTINUOUS
 10
104.89
 20
209.4125
 11
104.89
 21
195.5125
  0
LINE
  5
366
100
AcDbEntity
  8
0
100
AcDbLine
 62
7
  6
CONTINUOUS
 10
106.5056190944
 20
209.4125
 11
106.5056190944
 21
195.5125
  0
LINE
  5
367
100
AcDbEntity
  8
0
100
AcDbLine
 62
7
  6
CONTINUOUS
 10
106.74
 20
191.8125
 11
106.74
 21
191.0125
  0
LINE
  5
368
100
AcDbEntity
  8
0
100
AcDbLine
 62
7
  6
CONTINUOUS
 10
107.2218018507
 20
195.5125
 11
107.2218018507
 21
209.4125
  0
LINE
  5
369
100
AcDbEntity
  8
0
100
AcDbLine
 62
7
  6
CONTINUOUS
 10
132.68
 20
191.0125
 11
129.08
 21
191.0125
  0
LINE
  5
36A
100
AcDbEntity
  8
0
100
AcDbLine
 62
7
  6
CONTINUOUS
 10
124.28
 20
191.0125
 11
122.28
 21
191.0125
  0
LINE
  5
36B
100
AcDbEntity
  8
0
100
AcDbLine
 62
7
  6
CONTINUOUS
 10
120.94
 20
191.0125
 11
118.94
 21
191.0125
  0
LINE
  5
36C
100
AcDbEntity
  8
0
100
AcDbLine
 62
7
  6
CONTINUOUS
 10
111.34
 20
191.0125
 11
110.84
 21
191.0125
  0
LINE
  5
36D
100
AcDbEntity
  8
0
100
AcDbLine
 62
7
  6
CONTINUOUS
 10
108.74
 20
191.0125
 11
106.74
 21
191.0125
  0
LINE
  5
36E
100
AcDbEntity
  8
0
100
AcDbLine
 62
7
  6
CONTINUOUS
 10
101.94
 20
191.0125
 11
98.34
 21
191.0125
  0
LINE
  5
36F
100
AcDbEntity
  8
0
100
AcDbLine
 62
7
  6
CONTINUOUS
 10
108.74
 20
191.8125
 11
108.74
 21
191.0125
  0
LINE
  5
370
100
AcDbEntity
  8
0
100
AcDbLine
 62
7
  6
CONTINUOUS
 10
109.84
 20
191.8125
 11
109.84
 21
185.4125
  0
LINE
  5
371
100
AcDbEntity
  8
0
100
AcDbLine
 62
7
  6
CONTINUOUS
 10
139.1
 20
191.8125
 11
91.9
 21
191.8125
  0
LINE
  5
372
100
AcDbEntity
  8
0
100
AcDbLine
 62
7
  6
CONTINUOUS
 10
110.84
 20
191.8125
 11
110.84
 21
185.4125
  0
LINE
  5
373
100
AcDbEntity
  8
0
100
AcDbLine
 62
7
  6
CONTINUOUS
 10
111.34
 20
191.8125
 11
111.34
 21
185.4125
  0
LINE
  5
374
100
AcDbEntity
  8
0
100
AcDbLine
 62
7
  6
CONTINUOUS
 10
113.34
 20
191.8125
 11
113.34
 21
185.4125
  0
LINE
  5
375
100
AcDbEntity
  8
0
100
AcDbLine
 62
7
  6
CONTINUOUS
 10
101.3781981493
 20
195.5125
 11
107.2218018507
 21
195.5125
  0
LINE
  5
376
100
AcDbEntity
  8
0
100
AcDbLine
 62
7
  6
CONTINUOUS
 10
117.68
 20
191.8125
 11
117.68
 21
185.4125
  0
LINE
  5
377
100
AcDbEntity
  8
0
100
AcDbLine
 62
7
  6
CONTINUOUS
 10
118.94
 20
191.8125
 11
118.94
 21
191.0125
  0
LINE
  5
378
100
AcDbEntity
  8
0
100
AcDbLine
 62
7
  6
CONTINUOUS
 10
119.68
 20
191.0125
 11
119.68
 21
185.4125
  0
LINE
  5
379
100
AcDbEntity
  8
0
100
AcDbLine
 62
7
  6
CONTINUOUS
 10
120.18
 20
191.0125
 11
120.18
 21
185.4125
  0
LINE
  5
37A
100
AcDbEntity
  8
0
100
AcDbLine
 62
7
  6
CONTINUOUS
 10
120.94
 20
191.8125
 11
120.94
 21
191.0125
  0
LINE
  5
37B
100
AcDbEntity
  8
0
100
AcDbLine
 62
7
  6
CONTINUOUS
 10
121.18
 20
191.8125
 11
121.18
 21
185.4125
  0
LINE
  5
37C
100
AcDbEntity
  8
0
100
AcDbLine
 62
7
  6
CONTINUOUS
 10
122.28
 20
191.8125
 11
122.28
 21
191.0125
  0
LINE
  5
37D
100
AcDbEntity
  8
0
100
AcDbLine
 62
7
  6
CONTINUOUS
 10
124.28
 20
191.8125
 11
124.28
 21
191.0125
  0
LINE
  5
37E
100
AcDbEntity
  8
0
100
AcDbLine
 62
7
  6
CONTINUOUS
 10
91.9
 20
209.4125
 11
139.1
 21
209.4125
  0
LINE
  5
37F
100
AcDbEntity
  8
0
100
AcDbLine
 62
7
  6
CONTINUOUS
 10
93.3
 20
210.8125
 11
137.7
 21
210.8125
  0
LINE
  5
380
100
AcDbEntity
  8
0
100
AcDbLine
 62
7
  6
CONTINUOUS
 10
129.08
 20
191.8125
 11
129.08
 21
191.0125
  0
LINE
  5
381
100
AcDbEntity
  8
0
100
AcDbLine
 62
7
  6
CONTINUOUS
 10
130.68
 20
191.8125
 11
130.68
 21
191.0125
  0
LINE
  5
382
100
AcDbEntity
  8
0
100
AcDbLine
 62
7
  6
CONTINUOUS
 10
132.68
 20
191.8125
 11
132.68
 21
191.0125
  0
LINE
  5
383
100
AcDbEntity
  8
0
100
AcDbLine
 62
7
  6
CONTINUOUS
 10
133.68
 20
191.8125
 11
133.68
 21
185.4125
  0
LINE
  5
384
100
AcDbEntity
  8
0
100
AcDbLine
 62
7
  6
CONTINUOUS
 10
135.18
 20
191.8125
 11
135.18
 21
185.4125
  0
LINE
  5
385
100
AcDbEntity
  8
0
100
AcDbLine
 62
7
  6
CONTINUOUS
 10
136.18
 20
191.8125
 11
136.18
 21
185.4125
  0
LINE
  5
386
100
AcDbEntity
  8
0
100
AcDbLine
 62
7
  6
CONTINUOUS
 10
137.7
 20
191.8125
 11
137.7
 21
210.8125
  0
LINE
  5
387
100
AcDbEntity
  8
0
100
AcDbLine
 62
7
  6
CONTINUOUS
 10
139.1
 20
191.8125
 11
139.1
 21
209.4125
  0
LINE
  5
388
100
AcDbEntity
  8
0
100
AcDbLine
 62
7
  6
CONTINUOUS
 10
239.3
 20
86.0525
 11
239.3
 21
88.0525
  0
LINE
  5
389
100
AcDbEntity
  8
0
100
AcDbLine
 62
7
  6
CONTINUOUS
 10
239.3
 20
92.0525
 11
239.3
 21
94.7525
  0
LINE
  5
38A
100
AcDbEntity
  8
0
100
AcDbLine
 62
7
  6
CONTINUOUS
 10
239.3
 20
99.8725
 11
239.3
 21
102.5725
  0
LINE
  5
38B
100
AcDbEntity
  8
0
100
AcDbLine
 62
7
  6
CONTINUOUS
 10
239.3
 20
106.5725
 11
239.3
 21
108.5725
  0
LINE
  5
38C
100
AcDbEntity
  8
0
100
AcDbLine
 62
7
  6
CONTINUOUS
 10
245.7
 20
84.3125
 11
263.3
 21
84.3125
  0
LINE
  5
38D
100
AcDbEntity
  8
0
100
AcDbLine
 62
7
  6
CONTINUOUS
 10
245.7
 20
85.7125
 11
264.7
 21
85.7125
  0
LINE
  5
38E
100
AcDbEntity
  8
0
100
AcDbLine
 62
7
  6
CONTINUOUS
 10
245.7
 20
86.0525
 11
239.3
 21
86.0525
  0
LINE
  5
38F
100
AcDbEntity
  8
0
100
AcDbLine
 62
7
  6
CONTINUOUS
 10
245.7
 20
88.0525
 11
239.3
 21
88.0525
  0
LINE
  5
390
100
AcDbEntity
  8
0
100
AcDbLine
 62
7
  6
CONTINUOUS
 10
245.7
 20
89.4525
 11
244.9
 21
89.4525
  0
LINE
  5
391
100
AcDbEntity
  8
0
100
AcDbLine
 62
7
  6
CONTINUOUS
 10
244.9
 20
88.0525
 11
244.9
 21
89.4525
  0
LINE
  5
392
100
AcDbEntity
  8
0
100
AcDbLine
 62
7
  6
CONTINUOUS
 10
244.9
 20
105.1725
 11
244.9
 21
106.5725
  0
LINE
  5
393
100
AcDbEntity
  8
0
100
AcDbLine
 62
7
  6
CONTINUOUS
 10
245.7
 20
84.3125
 11
245.7
 21
110.3125
  0
LINE
  5
394
100
AcDbEntity
  8
0
100
AcDbLine
 62
7
  6
CONTINUOUS
 10
245.7
 20
92.0525
 11
239.3
 21
92.0525
  0
LINE
  5
395
100
AcDbEntity
  8
0
100
AcDbLine
 62
7
  6
CONTINUOUS
 10
245.7
 20
94.0525
 11
239.3
 21
94.0525
  0
LINE
  5
396
100
AcDbEntity
  8
0
100
AcDbLine
 62
7
  6
CONTINUOUS
 10
245.7
 20
94.7525
 11
239.3
 21
94.7525
  0
LINE
  5
397
100
AcDbEntity
  8
0
100
AcDbLine
 62
7
  6
CONTINUOUS
 10
245.7
 20
99.8725
 11
239.3
 21
99.8725
  0
LINE
  5
398
100
AcDbEntity
  8
0
100
AcDbLine
 62
7
  6
CONTINUOUS
 10
245.7
 20
100.8725
 11
239.3
 21
100.8725
  0
LINE
  5
399
100
AcDbEntity
  8
0
100
AcDbLine
 62
7
  6
CONTINUOUS
 10
245.7
 20
102.5725
 11
239.3
 21
102.5725
  0
LINE
  5
39A
100
AcDbEntity
  8
0
100
AcDbLine
 62
7
  6
CONTINUOUS
 10
245.7
 20
105.1725
 11
244.9
 21
105.1725
  0
LINE
  5
39B
100
AcDbEntity
  8
0
100
AcDbLine
 62
7
  6
CONTINUOUS
 10
245.7
 20
106.5725
 11
239.3
 21
106.5725
  0
LINE
  5
39C
100
AcDbEntity
  8
0
100
AcDbLine
 62
7
  6
CONTINUOUS
 10
245.7
 20
106.9525
 11
239.3
 21
106.9525
  0
LINE
  5
39D
100
AcDbEntity
  8
0
100
AcDbLine
 62
7
  6
CONTINUOUS
 10
245.7
 20
107.9525
 11
239.3
 21
107.9525
  0
LINE
  5
39E
100
AcDbEntity
  8
0
100
AcDbLine
 62
7
  6
CONTINUOUS
 10
263.3
 20
110.3125
 11
263.3
 21
84.3125
  0
LINE
  5
39F
100
AcDbEntity
  8
0
100
AcDbLine
 62
7
  6
CONTINUOUS
 10
245.7
 20
108.5725
 11
239.3
 21
108.5725
  0
LINE
  5
3A0
100
AcDbEntity
  8
0
100
AcDbLine
 62
7
  6
CONTINUOUS
 10
245.7
 20
108.9125
 11
264.7
 21
108.9125
  0
LINE
  5
3A1
100
AcDbEntity
  8
0
100
AcDbLine
 62
7
  6
CONTINUOUS
 10
264.7
 20
108.9125
 11
264.7
 21
85.7125
  0
LINE
  5
3A2
100
AcDbEntity
  8
0
100
AcDbLine
 62
7
  6
CONTINUOUS
 10
245.7
 20
110.3125
 11
263.3
 21
110.3125
  0
ARC
  5
3A3
100
AcDbEntity
  8
0
100
AcDbCircle
 62
7
  6
CONTINUOUS
 10
272.1222610601
 20
234.9173337999
 40
1.4001032143
100
AcDbArc
 50
90.0032523968
 51
162.8238595357
  0
ARC
  5
3A4
100
AcDbEntity
  8
0
100
AcDbCircle
 62
7
  6
CONTINUOUS
 10
320.094275146
 20
220.4960740261
 40
1.3999842197
100
AcDbArc
 50
342.8276481356
 51
26.1428580716
  0
ARC
  5
3A5
100
AcDbEntity
  8
0
100
AcDbCircle
 62
7
  6
CONTINUOUS
 10
313.0173062341
 20
234.9174617493
 40
1.399961187
100
AcDbArc
 50
26.1047907822
 51
90.0064511589
  0
ARC
  5
3A6
100
AcDbEntity
  8
0
100
AcDbCircle
 62
7
  6
CONTINUOUS
 10
93.3
 20
85.7125
 40
1.4
100
AcDbArc
 50
180.0
 51
270.0
  0
ARC
  5
3A7
100
AcDbEntity
  8
0
100
AcDbCircle
 62
7
  6
CONTINUOUS
 10
93.3
 20
108.9125
 40
1.4
100
AcDbArc
 50
90.0
 51
180.0
  0
ARC
  5
3A8
100
AcDbEntity
  8
0
100
AcDbCircle
 62
7
  6
CONTINUOUS
 10
137.7
 20
108.9125
 40
1.4
100
AcDbArc
 50
0.0
 51
90.0
  0
ARC
  5
3A9
100
AcDbEntity
  8
0
100
AcDbCircle
 62
7
  6
CONTINUOUS
 10
137.7
 20
85.7125
 40
1.4
100
AcDbArc
 50
270.0
 51
360.0
  0
CIRCLE
  5
3AA
100
AcDbEntity
  8
0
100
AcDbCircle
 62
7
  6
CONTINUOUS
 10
123.28
 20
88.4525
 40
1.0
  0
CIRCLE
  5
3AB
100
AcDbEntity
  8
0
100
AcDbCircle
 62
7
  6
CONTINUOUS
 10
130.08
 20
88.4525
 40
1.0
  0
CIRCLE
  5
3AC
100
AcDbEntity
  8
0
100
AcDbCircle
 62
7
  6
CONTINUOUS
 10
107.74
 20
106.1725
 40
1.0
  0
CIRCLE
  5
3AD
100
AcDbEntity
  8
0
100
AcDbCircle
 62
7
  6
CONTINUOUS
 10
100.94
 20
106.1725
 40
1.0
  0
ARC
  5
3AE
100
AcDbEntity
  8
0
100
AcDbCircle
 62
7
  6
CONTINUOUS
 10
93.3
 20
209.4125
 40
1.4
100
AcDbArc
 50
90.0
 51
180.0
  0
ARC
  5
3AF
100
AcDbEntity
  8
0
100
AcDbCircle
 62
7
  6
CONTINUOUS
 10
137.7
 20
209.4125
 40
1.4
100
AcDbArc
 50
0.0
 51
90.0
  0
ARC
  5
3B0
100
AcDbEntity
  8
0
100
AcDbCircle
 62
7
  6
CONTINUOUS
 10
263.3
 20
85.7125
 40
1.4
100
AcDbArc
 50
270.0
 51
360.0
  0
ARC
  5
3B1
100
AcDbEntity
  8
0
100
AcDbCircle
 62
7
  6
CONTINUOUS
 10
263.3
 20
108.9125
 40
1.4
100
AcDbArc
 50
0.0
 51
90.0
  0
SPLINE
  5
3B2
100
AcDbEntity
  8
0
100
AcDbSpline
 62
7
  6
CONTINUOUS
 70
0
 71
3
 72
13
 73
9
 74
0
 42
0.0000001
 43
0.0000001
 44
0.0000000001
 40
0.0
 40
0.0
 40
0.0
 40
0.0
 40
0.1001048526
 40
0.2104375701
 40
0.3301525236
 40
0.4578218833
 40
0.7277384723
 40
1.0
 40
1.0
 40
1.0
 40
1.0
 10
273.6492988174
 20
206.7095246656
 30
0.0
 10
273.6752002059
 20
206.6567431549
 30
0.0
 10
273.7417505676
 20
206.55156837
 30
0.0
 10
273.8716552493
 20
206.4067089125
 30
0.0
 10
274.0328222723
 20
206.2709673905
 30
0.0
 10
274.2876161035
 20
206.1043831004
 30
0.0
 10
274.6500597834
 20
205.9442288856
 30
0.0
 10
274.9628731079
 20
205.8729410428
 30
0.0
 10
275.1216661474
 20
205.8541025239
 30
0.0
  0
SPLINE
  5
3B3
100
AcDbEntity
  8
0
100
AcDbSpline
 62
7
  6
CONTINUOUS
 70
0
 71
3
 72
13
 73
9
 74
0
 42
0.0000001
 43
0.0000001
 44
0.0000000001
 40
0.0
 40
0.0
 40
0.0
 40
0.0
 40
0.3031361083
 40
0.5686728032
 40
0.6870773144
 40
0.7969262256
 40
0.9002449422
 40
1.0
 40
1.0
 40
1.0
 40
1.0
 10
316.2609549624
 20
205.8392708327
 30
0.0
 10
316.3705355911
 20
205.8392708327
 30
0.0
 10
316.5767169274
 20
205.856594543
 30
0.0
 10
316.8167134317
 20
205.9319812714
 30
0.0
 10
316.9706817835
 20
206.0238110325
 30
0.0
 10
317.0617050993
 20
206.1029495758
 30
0.0
 10
317.1305315728
 20
206.1937948161
 30
0.0
 10
317.1607731941
 20
206.2615550169
 30
0.0
 10
317.1714332931
 20
206.2960037867
 30
0.0
  0
SPLINE
  5
3B4
100
AcDbEntity
  8
0
100
AcDbSpline
 62
7
  6
CONTINUOUS
 70
0
 71
3
 72
10
 73
6
 74
0
 42
0.0000001
 43
0.0000001
 44
0.0000000001
 40
0.0
 40
0.0
 40
0.0
 40
0.0
 40
0.2341349697
 40
0.4756190721
 40
1.0
 40
1.0
 40
1.0
 40
1.0
 10
300.5673422165
 20
208.0814259014
 30
0.0
 10
300.5603377789
 20
208.0587859904
 30
0.0
 10
300.5511103418
 20
208.0110711801
 30
0.0
 10
300.5533790064
 20
207.9092978885
 30
0.0
 10
300.5782850781
 20
207.8337229319
 30
0.0
 10
300.6016676721
 20
207.7860741879
 30
0.0
  0
SPLINE
  5
3B5
100
AcDbEntity
  8
0
100
AcDbSpline
 62
7
  6
CONTINUOUS
 70
0
 71
3
 72
10
 73
6
 74
0
 42
0.0000001
 43
0.0000001
 44
0.0000000001
 40
0.0
 40
0.0
 40
0.0
 40
0.0
 40
0.2341349697
 40
0.4756190721
 40
1.0
 40
1.0
 40
1.0
 40
1.0
 10
306.8305576159
 20
208.0814259014
 30
0.0
 10
306.8235531783
 20
208.0587859904
 30
0.0
 10
306.8143257412
 20
208.0110711801
 30
0.0
 10
306.8165944058
 20
207.9092978885
 30
0.0
 10
306.8415004775
 20
207.8337229319
 30
0.0
 10
306.8648830714
 20
207.7860741879
 30
0.0
  0
SPLINE
  5
3B6
100
AcDbEntity
  8
0
100
AcDbSpline
 62
7
  6
CONTINUOUS
 70
0
 71
3
 72
10
 73
6
 74
0
 42
0.0000001
 43
0.0000001
 44
0.0000000001
 40
0.0
 40
0.0
 40
0.0
 40
0.0
 40
0.2341349697
 40
0.4756190721
 40
1.0
 40
1.0
 40
1.0
 40
1.0
 10
280.8487148935
 20
219.0963529861
 30
0.0
 10
280.8417104558
 20
219.0737130751
 30
0.0
 10
280.8324830187
 20
219.0259982648
 30
0.0
 10
280.8347516833
 20
218.9242249731
 30
0.0
 10
280.859657755
 20
218.8486500166
 30
0.0
 10
280.883040349
 20
218.8010012726
 30
0.0
  0
SPLINE
  5
3B7
100
AcDbEntity
  8
0
100
AcDbSpline
 62
7
  6
CONTINUOUS
 70
0
 71
3
 72
10
 73
6
 74
0
 42
0.0000001
 43
0.0000001
 44
0.0000000001
 40
0.0
 40
0.0
 40
0.0
 40
0.0
 40
0.2341349697
 40
0.4756190721
 40
1.0
 40
1.0
 40
1.0
 40
1.0
 10
274.5854994941
 20
219.0963529861
 30
0.0
 10
274.5784950564
 20
219.0737130751
 30
0.0
 10
274.5692676193
 20
219.0259982648
 30
0.0
 10
274.5715362839
 20
218.9242249731
 30
0.0
 10
274.5964423557
 20
218.8486500166
 30
0.0
 10
274.6198249496
 20
218.8010012726
 30
0.0
  0
SPLINE
  5
3B8
100
AcDbEntity
  8
0
100
AcDbSpline
 62
7
  6
CONTINUOUS
 70
0
 71
3
 72
10
 73
6
 74
0
 42
0.0000001
 43
0.0000001
 44
0.0000000001
 40
0.0
 40
0.0
 40
0.0
 40
0.0
 40
0.234094669
 40
0.4754054713
 40
1.0
 40
1.0
 40
1.0
 40
1.0
 10
266.5242814544
 20
221.5443947749
 30
0.0
 10
266.5144742481
 20
221.5127021804
 30
0.0
 10
266.5015938086
 20
221.4459235991
 30
0.0
 10
266.5046195922
 20
221.303426681
 30
0.0
 10
266.5395807701
 20
221.1976150846
 30
0.0
 10
266.5723325697
 20
221.130873896
 30
0.0
  0
SPLINE
  5
3B9
100
AcDbEntity
  8
0
100
AcDbSpline
 62
7
  6
CONTINUOUS
 70
0
 71
3
 72
17
 73
13
 74
0
 42
0.0000001
 43
0.0000001
 44
0.0000000001
 40
0.0
 40
0.0
 40
0.0
 40
0.0
 40
0.1137609669
 40
0.2471330433
 40
0.3933379661
 40
0.5422763469
 40
0.6832459193
 40
0.8074185346
 40
0.8619002292
 40
0.9113732452
 40
0.9568327823
 40
1.0
 40
1.0
 40
1.0
 40
1.0
 10
274.6198249496
 20
218.8010012726
 30
0.0
 10
274.6566774426
 20
218.7259037445
 30
0.0
 10
274.7711575592
 20
218.5797648477
 30
0.0
 10
275.004292346
 20
218.4051800493
 30
0.0
 10
275.291315883
 20
218.2703033265
 30
0.0
 10
275.6035249027
 20
218.1891984914
 30
0.0
 10
275.9092577335
 20
218.1697205762
 30
0.0
 10
276.1444570431
 20
218.2085241095
 30
0.0
 10
276.2990757876
 20
218.2757405752
 30
0.0
 10
276.3900193636
 20
218.338927685
 30
0.0
 10
276.4582207073
 20
218.4156150039
 30
0.0
 10
276.4868907236
 20
218.4753252938
 30
0.0
 10
276.4962725814
 20
218.505649559
 30
0.0
  0
SPLINE
  5
3BA
100
AcDbEntity
  8
0
100
AcDbSpline
 62
7
  6
CONTINUOUS
 70
0
 71
3
 72
17
 73
13
 74
0
 42
0.0000001
 43
0.0000001
 44
0.0000000001
 40
0.0
 40
0.0
 40
0.0
 40
0.0
 40
0.1137609669
 40
0.2471330433
 40
0.3933379661
 40
0.5422763469
 40
0.6832459193
 40
0.8074185346
 40
0.8619002292
 40
0.9113732452
 40
0.9568327823
 40
1.0
 40
1.0
 40
1.0
 40
1.0
 10
280.883040349
 20
218.8010012726
 30
0.0
 10
280.919892842
 20
218.7259037445
 30
0.0
 10
281.0343729585
 20
218.5797648477
 30
0.0
 10
281.2675077454
 20
218.4051800493
 30
0.0
 10
281.5545312823
 20
218.2703033265
 30
0.0
 10
281.866740302
 20
218.1891984914
 30
0.0
 10
282.1724731329
 20
218.1697205762
 30
0.0
 10
282.4076724425
 20
218.2085241095
 30
0.0
 10
282.562291187
 20
218.2757405752
 30
0.0
 10
282.653234763
 20
218.338927685
 30
0.0
 10
282.7214361067
 20
218.4156150039
 30
0.0
 10
282.750106123
 20
218.4753252938
 30
0.0
 10
282.7594879808
 20
218.505649559
 30
0.0
  0
SPLINE
  5
3BB
100
AcDbEntity
  8
0
100
AcDbSpline
 62
7
  6
CONTINUOUS
 70
0
 71
3
 72
13
 73
9
 74
0
 42
0.0000001
 43
0.0000001
 44
0.0000000001
 40
0.0
 40
0.0
 40
0.0
 40
0.0
 40
0.1004325444
 40
0.212680295
 40
0.335277256
 40
0.465937671
 40
0.7377945577
 40
1.0
 40
1.0
 40
1.0
 40
1.0
 10
306.8648830714
 20
207.7860741879
 30
0.0
 10
306.8865682066
 20
207.7418845031
 30
0.0
 10
306.9444395627
 20
207.6540385637
 30
0.0
 10
307.0592407412
 20
207.5355121578
 30
0.0
 10
307.202640749
 20
207.4270833295
 30
0.0
 10
307.4271493706
 20
207.3000290916
 30
0.0
 10
307.7373202263
 20
207.191425725
 30
0.0
 10
308.0004669275
 20
207.1613331754
 30
0.0
 10
308.1289258964
 20
207.1650027117
 30
0.0
  0
SPLINE
  5
3BC
100
AcDbEntity
  8
0
100
AcDbSpline
 62
7
  6
CONTINUOUS
 70
0
 71
3
 72
17
 73
13
 74
0
 42
0.0000001
 43
0.0000001
 44
0.0000000001
 40
0.0
 40
0.0
 40
0.0
 40
0.0
 40
0.1137609669
 40
0.2471330433
 40
0.3933379661
 40
0.5422763469
 40
0.6832459193
 40
0.8074185346
 40
0.8619002292
 40
0.9113732452
 40
0.9568327823
 40
1.0
 40
1.0
 40
1.0
 40
1.0
 10
300.6016676721
 20
207.7860741879
 30
0.0
 10
300.638520165
 20
207.7109766598
 30
0.0
 10
300.7530002816
 20
207.564837763
 30
0.0
 10
300.9861350685
 20
207.3902529646
 30
0.0
 10
301.2731586054
 20
207.2553762419
 30
0.0
 10
301.5853676251
 20
207.1742714068
 30
0.0
 10
301.891100456
 20
207.1547934916
 30
0.0
 10
302.1262997655
 20
207.1935970248
 30
0.0
 10
302.2809185101
 20
207.2608134905
 30
0.0
 10
302.3718620861
 20
207.3240006004
 30
0.0
 10
302.4400634298
 20
207.4006879193
 30
0.0
 10
302.4687334461
 20
207.4603982091
 30
0.0
 10
302.4781153039
 20
207.4907224743
 30
0.0
  0
SPLINE
  5
3BD
100
AcDbEntity
  8
0
100
AcDbSpline
 62
7
  6
CONTINUOUS
 70
0
 71
3
 72
13
 73
9
 74
0
 42
0.0000001
 43
0.0000001
 44
0.0000000001
 40
0.0
 40
0.0
 40
0.0
 40
0.0
 40
0.100320941
 40
0.2120872944
 40
0.3340752769
 40
0.4641426088
 40
0.7356660725
 40
1.0
 40
1.0
 40
1.0
 40
1.0
 10
310.0464159301
 20
221.130873896
 30
0.0
 10
310.0168685447
 20
221.1910851713
 30
0.0
 10
309.9386226712
 20
221.310823539
 30
0.0
 10
309.783667264
 20
221.472929975
 30
0.0
 10
309.5903792313
 20
221.621957551
 30
0.0
 10
309.2870861961
 20
221.7983055984
 30
0.0
 10
308.8654712402
 20
221.9526467025
 30
0.0
 10
308.5065948848
 20
222.0011277289
 30
0.0
 10
308.3298720986
 20
222.0011277289
 30
0.0
  0
SPLINE
  5
3BE
100
AcDbEntity
  8
0
100
AcDbSpline
 62
7
  6
CONTINUOUS
 70
0
 71
3
 72
9
 73
5
 74
0
 42
0.0000001
 43
0.0000001
 44
0.0000000001
 40
0.0
 40
0.0
 40
0.0
 40
0.0
 40
0.4935750075
 40
1.0
 40
1.0
 40
1.0
 40
1.0
 10
279.1356372525
 20
235.7876818389
 30
0.0
 10
279.263989696
 20
235.787681833
 30
0.0
 10
279.524456412
 20
235.7519874861
 30
0.0
 10
279.7704445524
 20
235.6603718549
 30
0.0
 10
279.887434501
 20
235.5999014384
 30
0.0
  0
SPLINE
  5
3BF
100
AcDbEntity
  8
0
100
AcDbSpline
 62
7
  6
CONTINUOUS
 70
0
 71
3
 72
10
 73
6
 74
0
 42
0.0000001
 43
0.0000001
 44
0.0000000001
 40
0.0
 40
0.0
 40
0.0
 40
0.0
 40
0.4451970611
 40
0.7101079062
 40
1.0
 40
1.0
 40
1.0
 40
1.0
 10
283.9504543487
 20
235.5999014431
 30
0.0
 10
284.0129440987
 20
235.6654588048
 30
0.0
 10
284.1472799778
 20
235.7364818214
 30
0.0
 10
284.3456835458
 20
235.7802826448
 30
0.0
 10
284.4589788441
 20
235.7876818324
 30
0.0
 10
284.5179532349
 20
235.7876818342
 30
0.0
  0
SPLINE
  5
3C0
100
AcDbEntity
  8
0
100
AcDbSpline
 62
7
  6
CONTINUOUS
 70
0
 71
3
 72
14
 73
10
 74
0
 42
0.0000001
 43
0.0000001
 44
0.0000000001
 40
0.0
 40
0.0
 40
0.0
 40
0.0
 40
0.4104191637
 40
0.5788772464
 40
0.7198543952
 40
0.832178555
 40
0.9154497337
 40
0.9702594651
 40
1.0
 40
1.0
 40
1.0
 40
1.0
 10
281.8812508345
 20
234.5693264757
 30
0.0
 10
281.9046717323
 20
234.645116599
 30
0.0
 10
281.9390024228
 20
234.7516556752
 30
0.0
 10
281.9860911775
 20
234.8825587573
 30
0.0
 10
282.0160032655
 20
234.9584845948
 30
0.0
 10
282.0421283904
 20
235.0178768864
 30
0.0
 10
282.0650485202
 20
235.0611210062
 30
0.0
 10
282.0825294265
 20
235.0873464206
 30
0.0
 10
282.0966741903
 20
235.0990166557
 30
0.0
 10
282.1024223541
 20
235.0990554341
 30
0.0
  0
SPLINE
  5
3C1
100
AcDbEntity
  8
0
100
AcDbSpline
 62
7
  6
CONTINUOUS
 70
0
 71
3
 72
9
 73
5
 74
0
 42
0.0000001
 43
0.0000001
 44
0.0000000001
 40
0.0
 40
0.0
 40
0.0
 40
0.0
 40
0.5227253607
 40
1.0
 40
1.0
 40
1.0
 40
1.0
 10
282.9681029185
 20
234.5693264757
 30
0.0
 10
282.9882821795
 20
234.6346266488
 30
0.0
 10
283.0385106198
 20
234.7564576082
 30
0.0
 10
283.1155185679
 20
234.8640838275
 30
0.0
 10
283.1585365938
 20
234.9092916093
 30
0.0
  0
SPLINE
  5
3C2
100
AcDbEntity
  8
0
100
AcDbSpline
 62
7
  6
CONTINUOUS
 70
0
 71
3
 72
13
 73
9
 74
0
 42
0.0000001
 43
0.0000001
 44
0.0000000001
 40
0.0
 40
0.0
 40
0.0
 40
0.0
 40
0.2643339275
 40
0.5358573912
 40
0.6659247231
 40
0.7879127056
 40
0.899679059
 40
1.0
 40
1.0
 40
1.0
 40
1.0
 10
312.5902355893
 20
235.7876818417
 30
0.0
 10
312.7669583755
 20
235.7876818417
 30
0.0
 10
313.1258347309
 20
235.7392008153
 30
0.0
 10
313.5474496868
 20
235.5848597112
 30
0.0
 10
313.8507427219
 20
235.4085116638
 30
0.0
 10
314.0440307547
 20
235.2594840878
 30
0.0
 10
314.1989861618
 20
235.0973776518
 30
0.0
 10
314.2772320354
 20
234.9776392841
 30
0.0
 10
314.3067794207
 20
234.9174280088
 30
0.0
  0
SPLINE
  5
3C3
100
AcDbEntity
  8
0
100
AcDbSpline
 62
7
  6
CONTINUOUS
 70
0
 71
3
 72
10
 73
6
 74
0
 42
0.0000001
 43
0.0000001
 44
0.0000000001
 40
0.0
 40
0.0
 40
0.0
 40
0.0
 40
0.2341349697
 40
0.4756190721
 40
1.0
 40
1.0
 40
1.0
 40
1.0
 10
276.4962725814
 20
218.505649559
 30
0.0
 10
276.5032770191
 20
218.52828947
 30
0.0
 10
276.5125044561
 20
218.5760042803
 30
0.0
 10
276.5102357915
 20
218.677777572
 30
0.0
 10
276.4853297198
 20
218.7533525285
 30
0.0
 10
276.4619471259
 20
218.8010012726
 30
0.0
  0
SPLINE
  5
3C4
100
AcDbEntity
  8
0
100
AcDbSpline
 62
7
  6
CONTINUOUS
 70
0
 71
3
 72
10
 73
6
 74
0
 42
0.0000001
 43
0.0000001
 44
0.0000000001
 40
0.0
 40
0.0
 40
0.0
 40
0.0
 40
0.5161425412
 40
0.7604759914
 40
1.0
 40
1.0
 40
1.0
 40
1.0
 10
314.3067794207
 20
234.9174280088
 30
0.0
 10
314.3387722489
 20
235.0209569351
 30
0.0
 10
314.3627719796
 20
235.1833340445
 30
0.0
 10
314.3317791024
 20
235.3920719269
 30
0.0
 10
314.2965673127
 20
235.488301275
 30
0.0
 10
314.2744544749
 20
235.5334642651
 30
0.0
  0
SPLINE
  5
3C5
100
AcDbEntity
  8
0
100
AcDbSpline
 62
7
  6
CONTINUOUS
 70
0
 71
3
 72
13
 73
9
 74
0
 42
0.0000001
 43
0.0000001
 44
0.0000000001
 40
0.0
 40
0.0
 40
0.0
 40
0.0
 40
0.3142903616
 40
0.5799653211
 40
0.695847699
 40
0.8024405234
 40
0.9025796
 40
1.0
 40
1.0
 40
1.0
 40
1.0
 10
284.5179532372
 20
235.7876818417
 30
0.0
 10
284.541614761
 20
235.8643162422
 30
0.0
 10
284.5956100338
 20
236.0029138546
 30
0.0
 10
284.6939931516
 20
236.1534012972
 30
0.0
 10
284.7851068136
 20
236.2391854499
 30
0.0
 10
284.8548170295
 20
236.284023697
 30
0.0
 10
284.9281560419
 20
236.3113234255
 30
0.0
 10
284.9787715653
 20
236.3174167974
 30
0.0
 10
285.0036323837
 20
236.3174276496
 30
0.0
  0
SPLINE
  5
3C6
100
AcDbEntity
  8
0
100
AcDbSpline
 62
7
  6
CONTINUOUS
 70
0
 71
3
 72
16
 73
12
 74
0
 42
0.0000001
 43
0.0000001
 44
0.0000000001
 40
0.0
 40
0.0
 40
0.0
 40
0.0
 40
0.205997579
 40
0.3920946966
 40
0.555498899
 40
0.6944155967
 40
0.8075813989
 40
0.8945645956
 40
0.9285624494
 40
0.9567972144
 40
1.0
 40
1.0
 40
1.0
 40
1.0
 10
279.8874345033
 20
235.5999014459
 30
0.0
 10
279.900121845
 20
235.6410219206
 30
0.0
 10
279.9233154023
 20
235.7195909826
 30
0.0
 10
279.9527578397
 20
235.8318633411
 30
0.0
 10
279.9747454936
 20
235.9315264565
 30
0.0
 10
279.9891138662
 20
236.0171899192
 30
0.0
 10
279.9956644259
 20
236.0877750616
 30
0.0
 10
279.9949492863
 20
236.1368923485
 30
0.0
 10
279.9892437391
 20
236.1676947891
 30
0.0
 10
279.9822000903
 20
236.1884560319
 30
0.0
 10
279.9723337488
 20
236.2013282499
 30
0.0
 10
279.9643131704
 20
236.2054663021
 30
0.0
  0
SPLINE
  5
3C7
100
AcDbEntity
  8
0
100
AcDbSpline
 62
7
  6
CONTINUOUS
 70
0
 71
3
 72
13
 73
9
 74
0
 42
0.0000001
 43
0.0000001
 44
0.0000000001
 40
0.0
 40
0.0
 40
0.0
 40
0.0
 40
0.3318199567
 40
0.6056182876
 40
0.7205807807
 40
0.8224423375
 40
0.9140898524
 40
1.0
 40
1.0
 40
1.0
 40
1.0
 10
271.6951232757
 20
235.7876818417
 30
0.0
 10
271.7186303819
 20
235.863750936
 30
0.0
 10
271.7696962147
 20
236.0002580231
 30
0.0
 10
271.8577935766
 20
236.1509506015
 30
0.0
 10
271.9377224196
 20
236.2380197452
 30
0.0
 10
271.9970534586
 20
236.2830982551
 30
0.0
 10
272.0587412737
 20
236.3110336464
 30
0.0
 10
272.1015679068
 20
236.3174109792
 30
0.0
 10
272.1221815831
 20
236.3174069926
 30
0.0
  0
SPLINE
  5
3C8
100
AcDbEntity
  8
0
100
AcDbSpline
 62
7
  6
CONTINUOUS
 70
0
 71
3
 72
10
 73
6
 74
0
 42
0.0000001
 43
0.0000001
 44
0.0000000001
 40
0.0
 40
0.0
 40
0.0
 40
0.0
 40
0.2341055228
 40
0.4754839675
 40
1.0
 40
1.0
 40
1.0
 40
1.0
 10
276.6898998255
 20
219.1322209026
 30
0.0
 10
276.6969103297
 20
219.1548637287
 30
0.0
 10
276.7061359488
 20
219.2025785748
 30
0.0
 10
276.7039491174
 20
219.304386536
 30
0.0
 10
276.6789960912
 20
219.3799865986
 30
0.0
 10
276.6556000118
 20
219.4276628231
 30
0.0
  0
SPLINE
  5
3C9
100
AcDbEntity
  8
0
100
AcDbSpline
 62
7
  6
CONTINUOUS
 70
0
 71
3
 72
10
 73
6
 74
0
 42
0.0000001
 43
0.0000001
 44
0.0000000001
 40
0.0
 40
0.0
 40
0.0
 40
0.0
 40
0.5245930952
 40
0.7659076295
 40
1.0
 40
1.0
 40
1.0
 40
1.0
 10
321.3837456684
 20
220.4960787784
 30
0.0
 10
321.4164834713
 20
220.4293661119
 30
0.0
 10
321.4514351356
 20
220.3236041118
 30
0.0
 10
321.4544927197
 20
220.1811694094
 30
0.0
 10
321.441641055
 20
220.1144151373
 30
0.0
 10
321.4318507456
 20
220.0827324038
 30
0.0
  0
SPLINE
  5
3CA
100
AcDbEntity
  8
0
100
AcDbSpline
 62
7
  6
CONTINUOUS
 70
0
 71
3
 72
17
 73
13
 74
0
 42
0.0000001
 43
0.0000001
 44
0.0000000001
 40
0.0
 40
0.0
 40
0.0
 40
0.0
 40
0.1137615958
 40
0.2471234486
 40
0.3933230498
 40
0.5422576713
 40
0.6832290668
 40
0.8074084553
 40
0.8618862636
 40
0.9113679704
 40
0.9568275154
 40
1.0
 40
1.0
 40
1.0
 40
1.0
 10
276.6556000118
 20
219.4276628231
 30
0.0
 10
276.6187488186
 20
219.5027577025
 30
0.0
 10
276.5042809345
 20
219.6488878747
 30
0.0
 10
276.2711604043
 20
219.823453566
 30
0.0
 10
275.9841697774
 20
219.95833128
 30
0.0
 10
275.6719803241
 20
220.0394508783
 30
0.0
 10
275.3662672645
 20
220.0589405263
 30
0.0
 10
275.1310479009
 20
220.020204189
 30
0.0
 10
274.9764563338
 20
219.9529448477
 30
0.0
 10
274.8854480942
 20
219.8898435955
 30
0.0
 10
274.8172888033
 20
219.813111381
 30
0.0
 10
274.7885669539
 20
219.7534295178
 30
0.0
 10
274.7791780218
 20
219.7231047437
 30
0.0
  0
SPLINE
  5
3CB
100
AcDbEntity
  8
0
100
AcDbSpline
 62
7
  6
CONTINUOUS
 70
0
 71
3
 72
13
 73
9
 74
0
 42
0.0000001
 43
0.0000001
 44
0.0000000001
 40
0.0
 40
0.0
 40
0.0
 40
0.0
 40
0.3031361083
 40
0.5686728032
 40
0.6870773144
 40
0.7969262256
 40
0.9002449422
 40
1.0
 40
1.0
 40
1.0
 40
1.0
 10
267.434759785
 20
222.0011277289
 30
0.0
 10
267.3251791563
 20
222.0011277289
 30
0.0
 10
267.11899782
 20
221.9838040186
 30
0.0
 10
266.8790013157
 20
221.9084172902
 30
0.0
 10
266.7250329639
 20
221.8165875291
 30
0.0
 10
266.6340096482
 20
221.7374489858
 30
0.0
 10
266.5651831746
 20
221.6466037455
 30
0.0
 10
266.5349415533
 20
221.5788435447
 30
0.0
 10
266.5242814544
 20
221.5443947749
 30
0.0
  0
SPLINE
  5
3CC
100
AcDbEntity
  8
0
100
AcDbSpline
 62
7
  6
CONTINUOUS
 70
0
 71
3
 72
17
 73
13
 74
0
 42
0.0000001
 43
0.0000001
 44
0.0000000001
 40
0.0
 40
0.0
 40
0.0
 40
0.0
 40
0.1137615958
 40
0.2471234486
 40
0.3933230498
 40
0.5422576713
 40
0.6832290668
 40
0.8074084553
 40
0.8618862636
 40
0.9113679704
 40
0.9568275154
 40
1.0
 40
1.0
 40
1.0
 40
1.0
 10
282.9188154112
 20
219.4276628231
 30
0.0
 10
282.881964218
 20
219.5027577025
 30
0.0
 10
282.7674963339
 20
219.6488878747
 30
0.0
 10
282.5343758037
 20
219.823453566
 30
0.0
 10
282.2473851768
 20
219.95833128
 30
0.0
 10
281.9351957235
 20
220.0394508783
 30
0.0
 10
281.6294826639
 20
220.0589405263
 30
0.0
 10
281.3942633002
 20
220.020204189
 30
0.0
 10
281.2396717332
 20
219.9529448477
 30
0.0
 10
281.1486634935
 20
219.8898435955
 30
0.0
 10
281.0805042027
 20
219.813111381
 30
0.0
 10
281.0517823533
 20
219.7534295178
 30
0.0
 10
281.0423934212
 20
219.7231047437
 30
0.0
  0
SPLINE
  5
3CD
100
AcDbEntity
  8
0
100
AcDbSpline
 62
7
  6
CONTINUOUS
 70
0
 71
3
 72
13
 73
9
 74
0
 42
0.0000001
 43
0.0000001
 44
0.0000000001
 40
0.0
 40
0.0
 40
0.0
 40
0.0
 40
0.0997576929
 40
0.2030758399
 40
0.3129222975
 40
0.4313260981
 40
0.6968644737
 40
1.0
 40
1.0
 40
1.0
 40
1.0
 10
270.7845986132
 20
235.3307991737
 30
0.0
 10
270.795248651
 20
235.365257457
 30
0.0
 10
270.825473699
 20
235.4330380079
 30
0.0
 10
270.8942875778
 20
235.5239136342
 30
0.0
 10
270.9853078246
 20
235.6030807837
 30
0.0
 10
271.1392877799
 20
235.6949412934
 30
0.0
 10
271.3793155213
 20
235.7703540107
 30
0.0
 10
271.5855271667
 20
235.7876818417
 30
0.0
 10
271.6951232757
 20
235.7876818417
 30
0.0
  0
SPLINE
  5
3CE
100
AcDbEntity
  8
0
100
AcDbSpline
 62
7
  6
CONTINUOUS
 70
0
 71
3
 72
16
 73
12
 74
0
 42
0.0000001
 43
0.0000001
 44
0.0000000001
 40
0.0
 40
0.0
 40
0.0
 40
0.0
 40
0.1401270162
 40
0.2871690115
 40
0.4344399127
 40
0.5752327091
 40
0.7037911338
 40
0.8164656032
 40
0.9132379416
 40
0.957354065
 40
1.0
 40
1.0
 40
1.0
 40
1.0
 10
308.6124096419
 20
208.7325876746
 30
0.0
 10
308.5453437326
 20
208.7811893587
 30
0.0
 10
308.3983915387
 20
208.868024964
 30
0.0
 10
308.1589739549
 20
208.9632778412
 30
0.0
 10
307.9076610902
 20
209.0223381502
 30
0.0
 10
307.6610607102
 20
209.0413185396
 30
0.0
 10
307.4349333396
 20
209.0187556803
 30
0.0
 10
307.2432877083
 20
208.9558499727
 30
0.0
 10
307.1180886592
 20
208.8671556355
 30
0.0
 10
307.052690395
 20
208.7796275451
 30
0.0
 10
307.0316913153
 20
208.7322566911
 30
0.0
 10
307.0242361437
 20
208.708177659
 30
0.0
  0
SPLINE
  5
3CF
100
AcDbEntity
  8
0
100
AcDbSpline
 62
7
  6
CONTINUOUS
 70
0
 71
3
 72
17
 73
13
 74
0
 42
0.0000001
 43
0.0000001
 44
0.0000000001
 40
0.0
 40
0.0
 40
0.0
 40
0.0
 40
0.1137615958
 40
0.2471234486
 40
0.3933230498
 40
0.5422576713
 40
0.6832290668
 40
0.8074084553
 40
0.8618862636
 40
0.9113679704
 40
0.9568275154
 40
1.0
 40
1.0
 40
1.0
 40
1.0
 10
302.6374427343
 20
208.4127357385
 30
0.0
 10
302.6005915411
 20
208.4878306179
 30
0.0
 10
302.486123657
 20
208.63396079
 30
0.0
 10
302.2530031268
 20
208.8085264813
 30
0.0
 10
301.9660124999
 20
208.9434041953
 30
0.0
 10
301.6538230466
 20
209.0245237937
 30
0.0
 10
301.348109987
 20
209.0440134416
 30
0.0
 10
301.1128906233
 20
209.0052771043
 30
0.0
 10
300.9582990563
 20
208.938017763
 30
0.0
 10
300.8672908166
 20
208.8749165109
 30
0.0
 10
300.7991315258
 20
208.7981842963
 30
0.0
 10
300.7704096764
 20
208.7385024332
 30
0.0
 10
300.7610207443
 20
208.708177659
 30
0.0
  0
SPLINE
  5
3D0
100
AcDbEntity
  8
0
100
AcDbSpline
 62
7
  6
CONTINUOUS
 70
0
 71
3
 72
14
 73
10
 74
0
 42
0.0000001
 43
0.0000001
 44
0.0000000001
 40
0.0
 40
0.0
 40
0.0
 40
0.0
 40
0.0722456137
 40
0.1541059227
 40
0.250824878
 40
0.3649667304
 40
0.4974694919
 40
0.6482148105
 40
1.0
 40
1.0
 40
1.0
 40
1.0
 10
279.5038082751
 20
236.3174276674
 30
0.0
 10
279.4875298629
 20
236.3174198217
 30
0.0
 10
279.4526367767
 20
236.3104484377
 30
0.0
 10
279.4030013058
 20
236.2820847891
 30
0.0
 10
279.3543111536
 20
236.2370062563
 30
0.0
 10
279.306561903
 20
236.1758352485
 30
0.0
 10
279.2601084351
 20
236.0991016587
 30
0.0
 10
279.197297383
 20
235.9703907389
 30
0.0
 10
279.159044932
 20
235.8634111305
 30
0.0
 10
279.1356372533
 20
235.7876818417
 30
0.0
  0
SPLINE
  5
3D1
100
AcDbEntity
  8
0
100
AcDbSpline
 62
7
  6
CONTINUOUS
 70
0
 71
3
 72
9
 73
5
 74
0
 42
0.0000001
 43
0.0000001
 44
0.0000000001
 40
0.0
 40
0.0
 40
0.0
 40
0.0
 40
0.4904492848
 40
1.0
 40
1.0
 40
1.0
 40
1.0
 10
284.1528679131
 20
235.9524446233
 30
0.0
 10
284.1067782485
 20
235.9039483287
 30
0.0
 10
284.0249027412
 20
235.7929633959
 30
0.0
 10
283.9709851697
 20
235.6663099252
 30
0.0
 10
283.9504543496
 20
235.5999014459
 30
0.0
  0
SPLINE
  5
3D2
100
AcDbEntity
  8
0
100
AcDbSpline
 62
7
  6
CONTINUOUS
 70
0
 71
3
 72
13
 73
9
 74
0
 42
0.0000001
 43
0.0000001
 44
0.0000000001
 40
0.0
 40
0.0
 40
0.0
 40
0.0
 40
0.0859098563
 40
0.1775654996
 40
0.2794390926
 40
0.3944129262
 40
0.6682106016
 40
1.0
 40
1.0
 40
1.0
 40
1.0
 10
313.01714861
 20
236.3174065269
 30
0.0
 10
312.9965391217
 20
236.3173962746
 30
0.0
 10
312.953723914
 20
236.3109927731
 30
0.0
 10
312.8920580628
 20
236.2830320162
 30
0.0
 10
312.8327485738
 20
236.2379382146
 30
0.0
 10
312.7528510057
 20
236.1508659196
 30
0.0
 10
312.6647851845
 20
236.0002028613
 30
0.0
 10
312.6137358373
 20
235.8637287429
 30
0.0
 10
312.5902355893
 20
235.7876818417
 30
0.0
  0
SPLINE
  5
3D3
100
AcDbEntity
  8
0
100
AcDbSpline
 62
7
  6
CONTINUOUS
 70
0
 71
3
 72
10
 73
6
 74
0
 42
0.0000001
 43
0.0000001
 44
0.0000000001
 40
0.0
 40
0.0
 40
0.0
 40
0.0
 40
0.2341349697
 40
0.4756190721
 40
1.0
 40
1.0
 40
1.0
 40
1.0
 10
302.4781153039
 20
207.4907224743
 30
0.0
 10
302.4851197415
 20
207.5133623853
 30
0.0
 10
302.4943471786
 20
207.5610771957
 30
0.0
 10
302.492078514
 20
207.6628504873
 30
0.0
 10
302.4671724423
 20
207.7384254439
 30
0.0
 10
302.4437898483
 20
207.7860741879
 30
0.0
  0
SPLINE
  5
3D4
100
AcDbEntity
  8
0
100
AcDbSpline
 62
7
  6
CONTINUOUS
 70
0
 71
3
 72
10
 73
6
 74
0
 42
0.0000001
 43
0.0000001
 44
0.0000000001
 40
0.0
 40
0.0
 40
0.0
 40
0.0
 40
0.2341055228
 40
0.4754839675
 40
1.0
 40
1.0
 40
1.0
 40
1.0
 10
302.671742548
 20
208.1172938179
 30
0.0
 10
302.6787530522
 20
208.139936644
 30
0.0
 10
302.6879786713
 20
208.1876514901
 30
0.0
 10
302.6857918398
 20
208.2894594513
 30
0.0
 10
302.6608388137
 20
208.365059514
 30
0.0
 10
302.6374427343
 20
208.4127357385
 30
0.0
  0
SPLINE
  5
3D5
100
AcDbEntity
  8
0
100
AcDbSpline
 62
7
  6
CONTINUOUS
 70
0
 71
3
 72
10
 73
6
 74
0
 42
0.0000001
 43
0.0000001
 44
0.0000000001
 40
0.0
 40
0.0
 40
0.0
 40
0.0
 40
0.2341349697
 40
0.4756190721
 40
1.0
 40
1.0
 40
1.0
 40
1.0
 10
282.7594879808
 20
218.505649559
 30
0.0
 10
282.7664924184
 20
218.52828947
 30
0.0
 10
282.7757198555
 20
218.5760042803
 30
0.0
 10
282.7734511909
 20
218.677777572
 30
0.0
 10
282.7485451192
 20
218.7533525285
 30
0.0
 10
282.7251625253
 20
218.8010012726
 30
0.0
  0
SPLINE
  5
3D6
100
AcDbEntity
  8
0
100
AcDbSpline
 62
7
  6
CONTINUOUS
 70
0
 71
3
 72
10
 73
6
 74
0
 42
0.0000001
 43
0.0000001
 44
0.0000000001
 40
0.0
 40
0.0
 40
0.0
 40
0.0
 40
0.2341055228
 40
0.4754839675
 40
1.0
 40
1.0
 40
1.0
 40
1.0
 10
282.9531152249
 20
219.1322209026
 30
0.0
 10
282.9601257291
 20
219.1548637287
 30
0.0
 10
282.9693513482
 20
219.2025785748
 30
0.0
 10
282.9671645168
 20
219.304386536
 30
0.0
 10
282.9422114906
 20
219.3799865986
 30
0.0
 10
282.9188154112
 20
219.4276628231
 30
0.0
  0
SPLINE
  5
3D7
100
AcDbEntity
  8
0
100
AcDbSpline
 62
7
  6
CONTINUOUS
 70
0
 71
3
 72
10
 73
6
 74
0
 42
0.0000001
 43
0.0000001
 44
0.0000000001
 40
0.0
 40
0.0
 40
0.0
 40
0.0
 40
0.2395294837
 40
0.483856484
 40
1.0
 40
1.0
 40
1.0
 40
1.0
 10
321.3510725046
 20
221.1128252568
 30
0.0
 10
321.3732622671
 20
221.0676291724
 30
0.0
 10
321.4086105295
 20
220.9713119579
 30
0.0
 10
321.4397775685
 20
220.7623314298
 30
0.0
 10
321.4157782753
 20
220.5997364286
 30
0.0
 10
321.3837456684
 20
220.4960787784
 30
0.0
  0
SPLINE
  5
3D8
100
AcDbEntity
  8
0
100
AcDbSpline
 62
7
  6
CONTINUOUS
 70
0
 71
3
 72
17
 73
13
 74
0
 42
0.0000001
 43
0.0000001
 44
0.0000000001
 40
0.0
 40
0.0
 40
0.0
 40
0.0
 40
0.1137609669
 40
0.2471330433
 40
0.3933379661
 40
0.5422763469
 40
0.6832459193
 40
0.8074185346
 40
0.8619002292
 40
0.9113732452
 40
0.9568327823
 40
1.0
 40
1.0
 40
1.0
 40
1.0
 10
276.4619471259
 20
218.8010012726
 30
0.0
 10
276.4250946329
 20
218.8760988006
 30
0.0
 10
276.3106145163
 20
219.0222376974
 30
0.0
 10
276.0774797295
 20
219.1968224958
 30
0.0
 10
275.7904561925
 20
219.3316992186
 30
0.0
 10
275.4782471728
 20
219.4128040537
 30
0.0
 10
275.172514342
 20
219.4322819689
 30
0.0
 10
274.9373150324
 20
219.3934784356
 30
0.0
 10
274.7826962879
 20
219.3262619699
 30
0.0
 10
274.6917527119
 20
219.2630748601
 30
0.0
 10
274.6235513682
 20
219.1863875412
 30
0.0
 10
274.5948813519
 20
219.1266772513
 30
0.0
 10
274.5854994941
 20
219.0963529861
 30
0.0
  0
SPLINE
  5
3D9
100
AcDbEntity
  8
0
100
AcDbSpline
 62
7
  6
CONTINUOUS
 70
0
 71
3
 72
10
 73
6
 74
0
 42
0.0000001
 43
0.0000001
 44
0.0000000001
 40
0.0
 40
0.0
 40
0.0
 40
0.0
 40
0.234094669
 40
0.4754054713
 40
1.0
 40
1.0
 40
1.0
 40
1.0
 10
317.1714332931
 20
206.2960037867
 30
0.0
 10
317.1812404994
 20
206.3276963812
 30
0.0
 10
317.1941209388
 20
206.3944749625
 30
0.0
 10
317.1910951552
 20
206.5369718806
 30
0.0
 10
317.1561339773
 20
206.642783477
 30
0.0
 10
317.1233821778
 20
206.7095246656
 30
0.0
  0
SPLINE
  5
3DA
100
AcDbEntity
  8
0
100
AcDbSpline
 62
7
  6
CONTINUOUS
 70
0
 71
3
 72
17
 73
13
 74
0
 42
0.0000001
 43
0.0000001
 44
0.0000000001
 40
0.0
 40
0.0
 40
0.0
 40
0.0
 40
0.1137609669
 40
0.2471330433
 40
0.3933379661
 40
0.5422763469
 40
0.6832459193
 40
0.8074185346
 40
0.8619002292
 40
0.9113732452
 40
0.9568327823
 40
1.0
 40
1.0
 40
1.0
 40
1.0
 10
282.7251625253
 20
218.8010012726
 30
0.0
 10
282.6883100323
 20
218.8760988006
 30
0.0
 10
282.5738299157
 20
219.0222376974
 30
0.0
 10
282.3406951289
 20
219.1968224958
 30
0.0
 10
282.0536715919
 20
219.3316992186
 30
0.0
 10
281.7414625722
 20
219.4128040537
 30
0.0
 10
281.4357297413
 20
219.4322819689
 30
0.0
 10
281.2005304318
 20
219.3934784356
 30
0.0
 10
281.0459116872
 20
219.3262619699
 30
0.0
 10
280.9549681112
 20
219.2630748601
 30
0.0
 10
280.8867667676
 20
219.1863875412
 30
0.0
 10
280.8580967513
 20
219.1266772513
 30
0.0
 10
280.8487148935
 20
219.0963529861
 30
0.0
  0
SPLINE
  5
3DB
100
AcDbEntity
  8
0
100
AcDbSpline
 62
7
  6
CONTINUOUS
 70
0
 71
3
 72
16
 73
12
 74
0
 42
0.0000001
 43
0.0000001
 44
0.0000000001
 40
0.0
 40
0.0
 40
0.0
 40
0.0
 40
0.1399648713
 40
0.2869497827
 40
0.4342362114
 40
0.5750943345
 40
0.7037295898
 40
0.8164586147
 40
0.913249371
 40
0.9573623176
 40
1.0
 40
1.0
 40
1.0
 40
1.0
 10
308.4215144002
 20
208.103920496
 30
0.0
 10
308.3545237678
 20
208.1527395048
 30
0.0
 10
308.2075628059
 20
208.2399774554
 30
0.0
 10
307.9679581272
 20
208.3358071439
 30
0.0
 10
307.7162196605
 20
208.3953517645
 30
0.0
 10
307.4690634501
 20
208.4147059051
 30
0.0
 10
307.242350675
 20
208.3923503083
 30
0.0
 10
307.0501603999
 20
208.3295022464
 30
0.0
 10
306.9246462812
 20
208.2406679238
 30
0.0
 10
306.8590259596
 20
208.1530254014
 30
0.0
 10
306.838020983
 20
208.105549175
 30
0.0
 10
306.8305576159
 20
208.0814259014
 30
0.0
  0
SPLINE
  5
3DC
100
AcDbEntity
  8
0
100
AcDbSpline
 62
7
  6
CONTINUOUS
 70
0
 71
3
 72
17
 73
13
 74
0
 42
0.0000001
 43
0.0000001
 44
0.0000000001
 40
0.0
 40
0.0
 40
0.0
 40
0.0
 40
0.1137609669
 40
0.2471330433
 40
0.3933379661
 40
0.5422763469
 40
0.6832459193
 40
0.8074185346
 40
0.8619002292
 40
0.9113732452
 40
0.9568327823
 40
1.0
 40
1.0
 40
1.0
 40
1.0
 10
302.4437898483
 20
207.7860741879
 30
0.0
 10
302.4069373554
 20
207.8611717159
 30
0.0
 10
302.2924572388
 20
208.0073106128
 30
0.0
 10
302.059322452
 20
208.1818954111
 30
0.0
 10
301.772298915
 20
208.3167721339
 30
0.0
 10
301.4600898953
 20
208.397876969
 30
0.0
 10
301.1543570644
 20
208.4173548842
 30
0.0
 10
300.9191577549
 20
208.378551351
 30
0.0
 10
300.7645390103
 20
208.3113348853
 30
0.0
 10
300.6735954343
 20
208.2481477754
 30
0.0
 10
300.6053940906
 20
208.1714604565
 30
0.0
 10
300.5767240743
 20
208.1117501667
 30
0.0
 10
300.5673422165
 20
208.0814259014
 30
0.0
  0
SPLINE
  5
3DD
100
AcDbEntity
  8
0
100
AcDbSpline
 62
7
  6
CONTINUOUS
 70
0
 71
3
 72
17
 73
13
 74
0
 42
0.0000001
 43
0.0000001
 44
0.0000000001
 40
0.0
 40
0.0
 40
0.0
 40
0.0
 40
0.0296371732
 40
0.0553757098
 40
0.089383315
 40
0.1316111306
 40
0.1818266802
 40
0.2396611347
 40
0.3046627164
 40
0.4537768023
 40
0.6237284003
 40
1.0
 40
1.0
 40
1.0
 40
1.0
 10
101.2094774091
 20
210.8125
 30
0.0
 10
101.2235916745
 20
210.8124380903
 30
0.0
 10
101.2438118477
 20
210.7868524585
 30
0.0
 10
101.2600504356
 20
210.7496601626
 30
0.0
 10
101.2757052505
 20
210.7028700219
 30
0.0
 10
101.2901807145
 20
210.6446434168
 30
0.0
 10
101.3041304905
 20
210.5743376627
 30
0.0
 10
101.3171765925
 20
210.4929777713
 30
0.0
 10
101.3341423116
 20
210.3645560816
 30
0.0
 10
101.3516769087
 20
210.1824404801
 30
0.0
 10
101.3724882501
 20
209.8519125817
 30
0.0
 10
101.3781992755
 20
209.5916955086
 30
0.0
 10
101.3781981493
 20
209.4125
 30
0.0
  0
SPLINE
  5
3DE
100
AcDbEntity
  8
0
100
AcDbSpline
 62
7
  6
CONTINUOUS
 70
0
 71
3
 72
17
 73
13
 74
0
 42
0.0000001
 43
0.0000001
 44
0.0000000001
 40
0.0
 40
0.0
 40
0.0
 40
0.0
 40
0.1749578708
 40
0.3428839365
 40
0.497528258
 40
0.568526654
 40
0.6347551324
 40
0.7520521366
 40
0.8494533408
 40
0.9297911698
 40
0.9656317151
 40
1.0
 40
1.0
 40
1.0
 40
1.0
 10
103.71
 20
209.4125
 30
0.0
 10
103.71
 20
209.5073820794
 30
0.0
 10
103.7020680364
 20
209.6934418008
 30
0.0
 10
103.6670069682
 20
209.9613097558
 30
0.0
 10
103.6190438711
 20
210.1697352262
 30
0.0
 10
103.5702387792
 20
210.3204154986
 30
0.0
 10
103.5194177369
 20
210.4488106888
 30
0.0
 10
103.4488702524
 20
210.5846450448
 30
0.0
 10
103.3494126629
 20
210.7114296362
 30
0.0
 10
103.2540279415
 20
210.7813479834
 30
0.0
 10
103.176313338
 20
210.8081138999
 30
0.0
 10
103.1381158065
 20
210.8125
 30
0.0
 10
103.1194774091
 20
210.8125
 30
0.0
  0
SPLINE
  5
3DF
100
AcDbEntity
  8
0
100
AcDbSpline
 62
7
  6
CONTINUOUS
 70
0
 71
3
 72
17
 73
13
 74
0
 42
0.0000001
 43
0.0000001
 44
0.0000000001
 40
0.0
 40
0.0
 40
0.0
 40
0.0
 40
0.1749578708
 40
0.3428839365
 40
0.497528258
 40
0.568526654
 40
0.6347551324
 40
0.7520521366
 40
0.8494533408
 40
0.9297911698
 40
0.9656317151
 40
1.0
 40
1.0
 40
1.0
 40
1.0
 10
104.89
 20
209.4125
 30
0.0
 10
104.89
 20
209.5073820794
 30
0.0
 10
104.8979319636
 20
209.6934418008
 30
0.0
 10
104.9329930318
 20
209.9613097558
 30
0.0
 10
104.9809561289
 20
210.1697352262
 30
0.0
 10
105.0297612208
 20
210.3204154986
 30
0.0
 10
105.0805822631
 20
210.4488106888
 30
0.0
 10
105.1511297476
 20
210.5846450448
 30
0.0
 10
105.2505873371
 20
210.7114296362
 30
0.0
 10
105.3459720585
 20
210.7813479834
 30
0.0
 10
105.423686662
 20
210.8081138999
 30
0.0
 10
105.4618841935
 20
210.8125
 30
0.0
 10
105.4805225909
 20
210.8125
 30
0.0
  0
SPLINE
  5
3E0
100
AcDbEntity
  8
0
100
AcDbSpline
 62
7
  6
CONTINUOUS
 70
0
 71
3
 72
14
 73
10
 74
0
 42
0.0000001
 43
0.0000001
 44
0.0000000001
 40
0.0
 40
0.0
 40
0.0
 40
0.0
 40
0.2987176424
 40
0.4398132276
 40
0.5716045626
 40
0.6926192085
 40
0.8027976307
 40
0.9040246121
 40
1.0
 40
1.0
 40
1.0
 40
1.0
 10
102.0943809056
 20
209.4125
 30
0.0
 10
102.0943170759
 20
209.5930643487
 30
0.0
 10
102.0622977264
 20
209.8609039916
 30
0.0
 10
101.9523501903
 20
210.1893887537
 30
0.0
 10
101.8432959751
 20
210.4022746354
 30
0.0
 10
101.7097894347
 20
210.5780486896
 30
0.0
 10
101.5562189353
 20
210.7104303263
 30
0.0
 10
101.3873941553
 20
210.793346277
 30
0.0
 10
101.2674911497
 20
210.8124491888
 30
0.0
 10
101.2094774091
 20
210.8125
 30
0.0
  0
SPLINE
  5
3E1
100
AcDbEntity
  8
0
100
AcDbSpline
 62
7
  6
CONTINUOUS
 70
0
 71
3
 72
14
 73
10
 74
0
 42
0.0000001
 43
0.0000001
 44
0.0000000001
 40
0.0
 40
0.0
 40
0.0
 40
0.0
 40
0.0959753558
 40
0.1972027076
 40
0.3073795367
 40
0.4283938807
 40
0.5601871492
 40
0.7012832214
 40
1.0
 40
1.0
 40
1.0
 40
1.0
 10
107.3905225909
 20
210.8125
 30
0.0
 10
107.3325088259
 20
210.8124491887
 30
0.0
 10
107.2126056625
 20
210.7933460076
 30
0.0
 10
107.0437807859
 20
210.7104314592
 30
0.0
 10
106.8902123549
 20
210.5780480463
 30
0.0
 10
106.7567080878
 20
210.4022731273
 30
0.0
 10
106.6476427293
 20
210.1893904006
 30
0.0
 10
106.5377043353
 20
209.860904503
 30
0.0
 10
106.5056333938
 20
209.5930639735
 30
0.0
 10
106.5056190944
 20
209.4125
 30
0.0
  0
SPLINE
  5
3E2
100
AcDbEntity
  8
0
100
AcDbSpline
 62
7
  6
CONTINUOUS
 70
0
 71
3
 72
17
 73
13
 74
0
 42
0.0000001
 43
0.0000001
 44
0.0000000001
 40
0.0
 40
0.0
 40
0.0
 40
0.0
 40
0.3762715127
 40
0.546223026
 40
0.6953374402
 40
0.7603390909
 40
0.8181734202
 40
0.8683886895
 40
0.910616321
 40
0.9446240098
 40
0.9703627497
 40
1.0
 40
1.0
 40
1.0
 40
1.0
 10
107.2218018507
 20
209.4125
 30
0.0
 10
107.2217441472
 20
209.59169552
 30
0.0
 10
107.2275099816
 20
209.8519129014
 30
0.0
 10
107.2483130443
 20
210.1824409425
 30
0.0
 10
107.2658612253
 20
210.3645556027
 30
0.0
 10
107.2828287777
 20
210.4929771496
 30
0.0
 10
107.2958729341
 20
210.5743371916
 30
0.0
 10
107.309819238
 20
210.6446433663
 30
0.0
 10
107.3242931069
 20
210.7028702499
 30
0.0
 10
107.3399485189
 20
210.749660325
 30
0.0
 10
107.3561881653
 20
210.7868522955
 30
0.0
 10
107.3764082839
 20
210.8124380902
 30
0.0
 10
107.3905225909
 20
210.8125
 30
0.0
  0
ENDSEC
  0
SECTION
  2
OBJECTS
  0
DICTIONARY
  5
3E3
100
AcDbDictionary
  3
ACAD_GROUP
350
3E4
  3
ACAD_MLINESTYLE
350
3E5
  0
DICTIONARY
  5
3E4
102
{ACAD_REACTORS
330
3E3
102
}
100
AcDbDictionary
  0
DICTIONARY
  5
3E5
102
{ACAD_REACTORS
330
3E3
102
}
100
AcDbDictionary
  3
STANDARD
350
3E6
  0
MLINESTYLE
  5
3E6
102
{ACAD_REACTORS
330
3E5
102
}
100
AcDbMlineStyle
  2
STANDARD
 70
0
  3

 62
256
 51
90.0
 52
90.0
 71
2
 49
0.5
 62
256
  6
BYLAYER
 49
-0.5
 62
256
  6
BYLAYER
  0
ENDSEC
  0
EOF
