G04 #@! TF.GenerationSoftware,KiCad,Pcbnew,(5.1.9)-1*
G04 #@! TF.CreationDate,2023-04-15T15:35:37-07:00*
G04 #@! TF.ProjectId,RELAYC,52454c41-5943-42e6-9b69-6361645f7063,rev?*
G04 #@! TF.SameCoordinates,Original*
G04 #@! TF.FileFunction,Legend,Top*
G04 #@! TF.FilePolarity,Positive*
%FSLAX46Y46*%
G04 Gerber Fmt 4.6, Leading zero omitted, Abs format (unit mm)*
G04 Created by KiCad (PCBNEW (5.1.9)-1) date 2023-04-15 15:35:37*
%MOMM*%
%LPD*%
G01*
G04 APERTURE LIST*
%ADD10C,0.150000*%
%ADD11C,0.203200*%
%ADD12C,0.177800*%
%ADD13C,0.120000*%
%ADD14C,0.015000*%
G04 APERTURE END LIST*
D10*
X90948095Y-121483428D02*
X91710000Y-121483428D01*
X91329047Y-121864380D02*
X91329047Y-121102476D01*
X92710000Y-121864380D02*
X92138571Y-121864380D01*
X92424285Y-121864380D02*
X92424285Y-120864380D01*
X92329047Y-121007238D01*
X92233809Y-121102476D01*
X92138571Y-121150095D01*
X93090952Y-120959619D02*
X93138571Y-120912000D01*
X93233809Y-120864380D01*
X93471904Y-120864380D01*
X93567142Y-120912000D01*
X93614761Y-120959619D01*
X93662380Y-121054857D01*
X93662380Y-121150095D01*
X93614761Y-121292952D01*
X93043333Y-121864380D01*
X93662380Y-121864380D01*
X93948095Y-120864380D02*
X94281428Y-121864380D01*
X94614761Y-120864380D01*
X110419142Y-121229428D02*
X111181047Y-121229428D01*
X110800095Y-121610380D02*
X110800095Y-120848476D01*
X112181047Y-121610380D02*
X111609619Y-121610380D01*
X111895333Y-121610380D02*
X111895333Y-120610380D01*
X111800095Y-120753238D01*
X111704857Y-120848476D01*
X111609619Y-120896095D01*
X112562000Y-120705619D02*
X112609619Y-120658000D01*
X112704857Y-120610380D01*
X112942952Y-120610380D01*
X113038190Y-120658000D01*
X113085809Y-120705619D01*
X113133428Y-120800857D01*
X113133428Y-120896095D01*
X113085809Y-121038952D01*
X112514380Y-121610380D01*
X113133428Y-121610380D01*
X113419142Y-120610380D02*
X113752476Y-121610380D01*
X114085809Y-120610380D01*
X115323904Y-121610380D02*
X115228666Y-121562761D01*
X115181047Y-121515142D01*
X115133428Y-121419904D01*
X115133428Y-121134190D01*
X115181047Y-121038952D01*
X115228666Y-120991333D01*
X115323904Y-120943714D01*
X115466761Y-120943714D01*
X115562000Y-120991333D01*
X115609619Y-121038952D01*
X115657238Y-121134190D01*
X115657238Y-121419904D01*
X115609619Y-121515142D01*
X115562000Y-121562761D01*
X115466761Y-121610380D01*
X115323904Y-121610380D01*
X115942952Y-120943714D02*
X116323904Y-120943714D01*
X116085809Y-121610380D02*
X116085809Y-120753238D01*
X116133428Y-120658000D01*
X116228666Y-120610380D01*
X116323904Y-120610380D01*
X117371523Y-120705619D02*
X117419142Y-120658000D01*
X117514380Y-120610380D01*
X117752476Y-120610380D01*
X117847714Y-120658000D01*
X117895333Y-120705619D01*
X117942952Y-120800857D01*
X117942952Y-120896095D01*
X117895333Y-121038952D01*
X117323904Y-121610380D01*
X117942952Y-121610380D01*
X118800095Y-120943714D02*
X118800095Y-121610380D01*
X118562000Y-120562761D02*
X118323904Y-121277047D01*
X118942952Y-121277047D01*
X119181047Y-120610380D02*
X119514380Y-121610380D01*
X119847714Y-120610380D01*
X105664047Y-65476428D02*
X106425952Y-65476428D01*
X106045000Y-65857380D02*
X106045000Y-65095476D01*
D11*
X86239047Y-114455423D02*
X86541428Y-115725423D01*
X86783333Y-114818280D01*
X87025238Y-115725423D01*
X87327619Y-114455423D01*
X87811428Y-115725423D02*
X87811428Y-114455423D01*
X88416190Y-115725423D02*
X88416190Y-114455423D01*
X89141904Y-115725423D01*
X89141904Y-114455423D01*
X89746666Y-115725423D02*
X89746666Y-114455423D01*
X90049047Y-114455423D01*
X90230476Y-114515900D01*
X90351428Y-114636852D01*
X90411904Y-114757804D01*
X90472380Y-114999709D01*
X90472380Y-115181138D01*
X90411904Y-115423042D01*
X90351428Y-115543995D01*
X90230476Y-115664947D01*
X90049047Y-115725423D01*
X89746666Y-115725423D01*
X91621428Y-115725423D02*
X91016666Y-115725423D01*
X91016666Y-114455423D01*
X91984285Y-115362566D02*
X92589047Y-115362566D01*
X91863333Y-115725423D02*
X92286666Y-114455423D01*
X92710000Y-115725423D01*
X93072857Y-115664947D02*
X93254285Y-115725423D01*
X93556666Y-115725423D01*
X93677619Y-115664947D01*
X93738095Y-115604471D01*
X93798571Y-115483519D01*
X93798571Y-115362566D01*
X93738095Y-115241614D01*
X93677619Y-115181138D01*
X93556666Y-115120661D01*
X93314761Y-115060185D01*
X93193809Y-114999709D01*
X93133333Y-114939233D01*
X93072857Y-114818280D01*
X93072857Y-114697328D01*
X93133333Y-114576376D01*
X93193809Y-114515900D01*
X93314761Y-114455423D01*
X93617142Y-114455423D01*
X93798571Y-114515900D01*
X94282380Y-115664947D02*
X94463809Y-115725423D01*
X94766190Y-115725423D01*
X94887142Y-115664947D01*
X94947619Y-115604471D01*
X95008095Y-115483519D01*
X95008095Y-115362566D01*
X94947619Y-115241614D01*
X94887142Y-115181138D01*
X94766190Y-115120661D01*
X94524285Y-115060185D01*
X94403333Y-114999709D01*
X94342857Y-114939233D01*
X94282380Y-114818280D01*
X94282380Y-114697328D01*
X94342857Y-114576376D01*
X94403333Y-114515900D01*
X94524285Y-114455423D01*
X94826666Y-114455423D01*
X95008095Y-114515900D01*
X97245714Y-115725423D02*
X96822380Y-115120661D01*
X96520000Y-115725423D02*
X96520000Y-114455423D01*
X97003809Y-114455423D01*
X97124761Y-114515900D01*
X97185238Y-114576376D01*
X97245714Y-114697328D01*
X97245714Y-114878757D01*
X97185238Y-114999709D01*
X97124761Y-115060185D01*
X97003809Y-115120661D01*
X96520000Y-115120661D01*
X97790000Y-115060185D02*
X98213333Y-115060185D01*
X98394761Y-115725423D02*
X97790000Y-115725423D01*
X97790000Y-114455423D01*
X98394761Y-114455423D01*
X99543809Y-115725423D02*
X98939047Y-115725423D01*
X98939047Y-114455423D01*
X99906666Y-115362566D02*
X100511428Y-115362566D01*
X99785714Y-115725423D02*
X100209047Y-114455423D01*
X100632380Y-115725423D01*
X101297619Y-115120661D02*
X101297619Y-115725423D01*
X100874285Y-114455423D02*
X101297619Y-115120661D01*
X101720952Y-114455423D01*
X103111904Y-115725423D02*
X103111904Y-114455423D01*
X103595714Y-114455423D01*
X103716666Y-114515900D01*
X103777142Y-114576376D01*
X103837619Y-114697328D01*
X103837619Y-114878757D01*
X103777142Y-114999709D01*
X103716666Y-115060185D01*
X103595714Y-115120661D01*
X103111904Y-115120661D01*
X105107619Y-115604471D02*
X105047142Y-115664947D01*
X104865714Y-115725423D01*
X104744761Y-115725423D01*
X104563333Y-115664947D01*
X104442380Y-115543995D01*
X104381904Y-115423042D01*
X104321428Y-115181138D01*
X104321428Y-114999709D01*
X104381904Y-114757804D01*
X104442380Y-114636852D01*
X104563333Y-114515900D01*
X104744761Y-114455423D01*
X104865714Y-114455423D01*
X105047142Y-114515900D01*
X105107619Y-114576376D01*
X106075238Y-115060185D02*
X106256666Y-115120661D01*
X106317142Y-115181138D01*
X106377619Y-115302090D01*
X106377619Y-115483519D01*
X106317142Y-115604471D01*
X106256666Y-115664947D01*
X106135714Y-115725423D01*
X105651904Y-115725423D01*
X105651904Y-114455423D01*
X106075238Y-114455423D01*
X106196190Y-114515900D01*
X106256666Y-114576376D01*
X106317142Y-114697328D01*
X106317142Y-114818280D01*
X106256666Y-114939233D01*
X106196190Y-114999709D01*
X106075238Y-115060185D01*
X105651904Y-115060185D01*
X108615238Y-115725423D02*
X108191904Y-115120661D01*
X107889523Y-115725423D02*
X107889523Y-114455423D01*
X108373333Y-114455423D01*
X108494285Y-114515900D01*
X108554761Y-114576376D01*
X108615238Y-114697328D01*
X108615238Y-114878757D01*
X108554761Y-114999709D01*
X108494285Y-115060185D01*
X108373333Y-115120661D01*
X107889523Y-115120661D01*
X109159523Y-115060185D02*
X109582857Y-115060185D01*
X109764285Y-115725423D02*
X109159523Y-115725423D01*
X109159523Y-114455423D01*
X109764285Y-114455423D01*
X110127142Y-114455423D02*
X110550476Y-115725423D01*
X110973809Y-114455423D01*
X113090476Y-115604471D02*
X113030000Y-115664947D01*
X112848571Y-115725423D01*
X112727619Y-115725423D01*
X112546190Y-115664947D01*
X112425238Y-115543995D01*
X112364761Y-115423042D01*
X112304285Y-115181138D01*
X112304285Y-114999709D01*
X112364761Y-114757804D01*
X112425238Y-114636852D01*
X112546190Y-114515900D01*
X112727619Y-114455423D01*
X112848571Y-114455423D01*
X113030000Y-114515900D01*
X113090476Y-114576376D01*
X86208809Y-117833623D02*
X86208809Y-116563623D01*
X86632142Y-117470766D01*
X87055476Y-116563623D01*
X87055476Y-117833623D01*
X88204523Y-117833623D02*
X88204523Y-117168385D01*
X88144047Y-117047433D01*
X88023095Y-116986957D01*
X87781190Y-116986957D01*
X87660238Y-117047433D01*
X88204523Y-117773147D02*
X88083571Y-117833623D01*
X87781190Y-117833623D01*
X87660238Y-117773147D01*
X87599761Y-117652195D01*
X87599761Y-117531242D01*
X87660238Y-117410290D01*
X87781190Y-117349814D01*
X88083571Y-117349814D01*
X88204523Y-117289338D01*
X89353571Y-117833623D02*
X89353571Y-116563623D01*
X89353571Y-117773147D02*
X89232619Y-117833623D01*
X88990714Y-117833623D01*
X88869761Y-117773147D01*
X88809285Y-117712671D01*
X88748809Y-117591719D01*
X88748809Y-117228861D01*
X88809285Y-117107909D01*
X88869761Y-117047433D01*
X88990714Y-116986957D01*
X89232619Y-116986957D01*
X89353571Y-117047433D01*
X90442142Y-117773147D02*
X90321190Y-117833623D01*
X90079285Y-117833623D01*
X89958333Y-117773147D01*
X89897857Y-117652195D01*
X89897857Y-117168385D01*
X89958333Y-117047433D01*
X90079285Y-116986957D01*
X90321190Y-116986957D01*
X90442142Y-117047433D01*
X90502619Y-117168385D01*
X90502619Y-117289338D01*
X89897857Y-117410290D01*
X92014523Y-117833623D02*
X92014523Y-116986957D01*
X92014523Y-116563623D02*
X91954047Y-116624100D01*
X92014523Y-116684576D01*
X92075000Y-116624100D01*
X92014523Y-116563623D01*
X92014523Y-116684576D01*
X92619285Y-116986957D02*
X92619285Y-117833623D01*
X92619285Y-117107909D02*
X92679761Y-117047433D01*
X92800714Y-116986957D01*
X92982142Y-116986957D01*
X93103095Y-117047433D01*
X93163571Y-117168385D01*
X93163571Y-117833623D01*
X95461666Y-117712671D02*
X95401190Y-117773147D01*
X95219761Y-117833623D01*
X95098809Y-117833623D01*
X94917380Y-117773147D01*
X94796428Y-117652195D01*
X94735952Y-117531242D01*
X94675476Y-117289338D01*
X94675476Y-117107909D01*
X94735952Y-116866004D01*
X94796428Y-116745052D01*
X94917380Y-116624100D01*
X95098809Y-116563623D01*
X95219761Y-116563623D01*
X95401190Y-116624100D01*
X95461666Y-116684576D01*
X96550238Y-117833623D02*
X96550238Y-117168385D01*
X96489761Y-117047433D01*
X96368809Y-116986957D01*
X96126904Y-116986957D01*
X96005952Y-117047433D01*
X96550238Y-117773147D02*
X96429285Y-117833623D01*
X96126904Y-117833623D01*
X96005952Y-117773147D01*
X95945476Y-117652195D01*
X95945476Y-117531242D01*
X96005952Y-117410290D01*
X96126904Y-117349814D01*
X96429285Y-117349814D01*
X96550238Y-117289338D01*
X97155000Y-116986957D02*
X97155000Y-117833623D01*
X97155000Y-117107909D02*
X97215476Y-117047433D01*
X97336428Y-116986957D01*
X97517857Y-116986957D01*
X97638809Y-117047433D01*
X97699285Y-117168385D01*
X97699285Y-117833623D01*
X98848333Y-117833623D02*
X98848333Y-117168385D01*
X98787857Y-117047433D01*
X98666904Y-116986957D01*
X98425000Y-116986957D01*
X98304047Y-117047433D01*
X98848333Y-117773147D02*
X98727380Y-117833623D01*
X98425000Y-117833623D01*
X98304047Y-117773147D01*
X98243571Y-117652195D01*
X98243571Y-117531242D01*
X98304047Y-117410290D01*
X98425000Y-117349814D01*
X98727380Y-117349814D01*
X98848333Y-117289338D01*
X99997380Y-117833623D02*
X99997380Y-116563623D01*
X99997380Y-117773147D02*
X99876428Y-117833623D01*
X99634523Y-117833623D01*
X99513571Y-117773147D01*
X99453095Y-117712671D01*
X99392619Y-117591719D01*
X99392619Y-117228861D01*
X99453095Y-117107909D01*
X99513571Y-117047433D01*
X99634523Y-116986957D01*
X99876428Y-116986957D01*
X99997380Y-117047433D01*
X101146428Y-117833623D02*
X101146428Y-117168385D01*
X101085952Y-117047433D01*
X100965000Y-116986957D01*
X100723095Y-116986957D01*
X100602142Y-117047433D01*
X101146428Y-117773147D02*
X101025476Y-117833623D01*
X100723095Y-117833623D01*
X100602142Y-117773147D01*
X100541666Y-117652195D01*
X100541666Y-117531242D01*
X100602142Y-117410290D01*
X100723095Y-117349814D01*
X101025476Y-117349814D01*
X101146428Y-117289338D01*
X103625952Y-117470766D02*
X104230714Y-117470766D01*
X103505000Y-117833623D02*
X103928333Y-116563623D01*
X104351666Y-117833623D01*
X104775000Y-116986957D02*
X104775000Y-118256957D01*
X104775000Y-117047433D02*
X104895952Y-116986957D01*
X105137857Y-116986957D01*
X105258809Y-117047433D01*
X105319285Y-117107909D01*
X105379761Y-117228861D01*
X105379761Y-117591719D01*
X105319285Y-117712671D01*
X105258809Y-117773147D01*
X105137857Y-117833623D01*
X104895952Y-117833623D01*
X104775000Y-117773147D01*
X105924047Y-117833623D02*
X105924047Y-116986957D01*
X105924047Y-117228861D02*
X105984523Y-117107909D01*
X106045000Y-117047433D01*
X106165952Y-116986957D01*
X106286904Y-116986957D01*
X106710238Y-117833623D02*
X106710238Y-116986957D01*
X106710238Y-116563623D02*
X106649761Y-116624100D01*
X106710238Y-116684576D01*
X106770714Y-116624100D01*
X106710238Y-116563623D01*
X106710238Y-116684576D01*
X107496428Y-117833623D02*
X107375476Y-117773147D01*
X107315000Y-117652195D01*
X107315000Y-116563623D01*
X108887380Y-116684576D02*
X108947857Y-116624100D01*
X109068809Y-116563623D01*
X109371190Y-116563623D01*
X109492142Y-116624100D01*
X109552619Y-116684576D01*
X109613095Y-116805528D01*
X109613095Y-116926480D01*
X109552619Y-117107909D01*
X108826904Y-117833623D01*
X109613095Y-117833623D01*
X110399285Y-116563623D02*
X110520238Y-116563623D01*
X110641190Y-116624100D01*
X110701666Y-116684576D01*
X110762142Y-116805528D01*
X110822619Y-117047433D01*
X110822619Y-117349814D01*
X110762142Y-117591719D01*
X110701666Y-117712671D01*
X110641190Y-117773147D01*
X110520238Y-117833623D01*
X110399285Y-117833623D01*
X110278333Y-117773147D01*
X110217857Y-117712671D01*
X110157380Y-117591719D01*
X110096904Y-117349814D01*
X110096904Y-117047433D01*
X110157380Y-116805528D01*
X110217857Y-116684576D01*
X110278333Y-116624100D01*
X110399285Y-116563623D01*
X111306428Y-116684576D02*
X111366904Y-116624100D01*
X111487857Y-116563623D01*
X111790238Y-116563623D01*
X111911190Y-116624100D01*
X111971666Y-116684576D01*
X112032142Y-116805528D01*
X112032142Y-116926480D01*
X111971666Y-117107909D01*
X111245952Y-117833623D01*
X112032142Y-117833623D01*
X112455476Y-116563623D02*
X113241666Y-116563623D01*
X112818333Y-117047433D01*
X112999761Y-117047433D01*
X113120714Y-117107909D01*
X113181190Y-117168385D01*
X113241666Y-117289338D01*
X113241666Y-117591719D01*
X113181190Y-117712671D01*
X113120714Y-117773147D01*
X112999761Y-117833623D01*
X112636904Y-117833623D01*
X112515952Y-117773147D01*
X112455476Y-117712671D01*
D12*
X73484619Y-106734428D02*
X72468619Y-106734428D01*
X73194333Y-106395761D01*
X72468619Y-106057095D01*
X73484619Y-106057095D01*
X72468619Y-105379761D02*
X72468619Y-105186238D01*
X72517000Y-105089476D01*
X72613761Y-104992714D01*
X72807285Y-104944333D01*
X73145952Y-104944333D01*
X73339476Y-104992714D01*
X73436238Y-105089476D01*
X73484619Y-105186238D01*
X73484619Y-105379761D01*
X73436238Y-105476523D01*
X73339476Y-105573285D01*
X73145952Y-105621666D01*
X72807285Y-105621666D01*
X72613761Y-105573285D01*
X72517000Y-105476523D01*
X72468619Y-105379761D01*
X72468619Y-104508904D02*
X73291095Y-104508904D01*
X73387857Y-104460523D01*
X73436238Y-104412142D01*
X73484619Y-104315380D01*
X73484619Y-104121857D01*
X73436238Y-104025095D01*
X73387857Y-103976714D01*
X73291095Y-103928333D01*
X72468619Y-103928333D01*
X73484619Y-103444523D02*
X72468619Y-103444523D01*
X73484619Y-102863952D01*
X72468619Y-102863952D01*
X72468619Y-102525285D02*
X72468619Y-101944714D01*
X73484619Y-102235000D02*
X72468619Y-102235000D01*
X73436238Y-100880333D02*
X73484619Y-100735190D01*
X73484619Y-100493285D01*
X73436238Y-100396523D01*
X73387857Y-100348142D01*
X73291095Y-100299761D01*
X73194333Y-100299761D01*
X73097571Y-100348142D01*
X73049190Y-100396523D01*
X73000809Y-100493285D01*
X72952428Y-100686809D01*
X72904047Y-100783571D01*
X72855666Y-100831952D01*
X72758904Y-100880333D01*
X72662142Y-100880333D01*
X72565380Y-100831952D01*
X72517000Y-100783571D01*
X72468619Y-100686809D01*
X72468619Y-100444904D01*
X72517000Y-100299761D01*
X73484619Y-99864333D02*
X72468619Y-99864333D01*
X72468619Y-99477285D01*
X72517000Y-99380523D01*
X72565380Y-99332142D01*
X72662142Y-99283761D01*
X72807285Y-99283761D01*
X72904047Y-99332142D01*
X72952428Y-99380523D01*
X73000809Y-99477285D01*
X73000809Y-99864333D01*
X73194333Y-98896714D02*
X73194333Y-98412904D01*
X73484619Y-98993476D02*
X72468619Y-98654809D01*
X73484619Y-98316142D01*
X73484619Y-97977476D02*
X72468619Y-97977476D01*
X72468619Y-97735571D01*
X72517000Y-97590428D01*
X72613761Y-97493666D01*
X72710523Y-97445285D01*
X72904047Y-97396904D01*
X73049190Y-97396904D01*
X73242714Y-97445285D01*
X73339476Y-97493666D01*
X73436238Y-97590428D01*
X73484619Y-97735571D01*
X73484619Y-97977476D01*
X72952428Y-96961476D02*
X72952428Y-96622809D01*
X73484619Y-96477666D02*
X73484619Y-96961476D01*
X72468619Y-96961476D01*
X72468619Y-96477666D01*
X73387857Y-94687571D02*
X73436238Y-94735952D01*
X73484619Y-94881095D01*
X73484619Y-94977857D01*
X73436238Y-95123000D01*
X73339476Y-95219761D01*
X73242714Y-95268142D01*
X73049190Y-95316523D01*
X72904047Y-95316523D01*
X72710523Y-95268142D01*
X72613761Y-95219761D01*
X72517000Y-95123000D01*
X72468619Y-94977857D01*
X72468619Y-94881095D01*
X72517000Y-94735952D01*
X72565380Y-94687571D01*
X72468619Y-94058619D02*
X72468619Y-93865095D01*
X72517000Y-93768333D01*
X72613761Y-93671571D01*
X72807285Y-93623190D01*
X73145952Y-93623190D01*
X73339476Y-93671571D01*
X73436238Y-93768333D01*
X73484619Y-93865095D01*
X73484619Y-94058619D01*
X73436238Y-94155380D01*
X73339476Y-94252142D01*
X73145952Y-94300523D01*
X72807285Y-94300523D01*
X72613761Y-94252142D01*
X72517000Y-94155380D01*
X72468619Y-94058619D01*
X73484619Y-93187761D02*
X72468619Y-93187761D01*
X73484619Y-92607190D01*
X72468619Y-92607190D01*
X73484619Y-92123380D02*
X72468619Y-92123380D01*
X73484619Y-91542809D01*
X72468619Y-91542809D01*
X72468619Y-90091380D02*
X72468619Y-89897857D01*
X72517000Y-89801095D01*
X72613761Y-89704333D01*
X72807285Y-89655952D01*
X73145952Y-89655952D01*
X73339476Y-89704333D01*
X73436238Y-89801095D01*
X73484619Y-89897857D01*
X73484619Y-90091380D01*
X73436238Y-90188142D01*
X73339476Y-90284904D01*
X73145952Y-90333285D01*
X72807285Y-90333285D01*
X72613761Y-90284904D01*
X72517000Y-90188142D01*
X72468619Y-90091380D01*
X73484619Y-89220523D02*
X72468619Y-89220523D01*
X73484619Y-88639952D01*
X72468619Y-88639952D01*
X72952428Y-87043380D02*
X73000809Y-86898238D01*
X73049190Y-86849857D01*
X73145952Y-86801476D01*
X73291095Y-86801476D01*
X73387857Y-86849857D01*
X73436238Y-86898238D01*
X73484619Y-86995000D01*
X73484619Y-87382047D01*
X72468619Y-87382047D01*
X72468619Y-87043380D01*
X72517000Y-86946619D01*
X72565380Y-86898238D01*
X72662142Y-86849857D01*
X72758904Y-86849857D01*
X72855666Y-86898238D01*
X72904047Y-86946619D01*
X72952428Y-87043380D01*
X72952428Y-87382047D01*
X73194333Y-86414428D02*
X73194333Y-85930619D01*
X73484619Y-86511190D02*
X72468619Y-86172523D01*
X73484619Y-85833857D01*
X73387857Y-84914619D02*
X73436238Y-84963000D01*
X73484619Y-85108142D01*
X73484619Y-85204904D01*
X73436238Y-85350047D01*
X73339476Y-85446809D01*
X73242714Y-85495190D01*
X73049190Y-85543571D01*
X72904047Y-85543571D01*
X72710523Y-85495190D01*
X72613761Y-85446809D01*
X72517000Y-85350047D01*
X72468619Y-85204904D01*
X72468619Y-85108142D01*
X72517000Y-84963000D01*
X72565380Y-84914619D01*
X73484619Y-84479190D02*
X72468619Y-84479190D01*
X73484619Y-83898619D02*
X72904047Y-84334047D01*
X72468619Y-83898619D02*
X73049190Y-84479190D01*
X72468619Y-82495571D02*
X72468619Y-82302047D01*
X72517000Y-82205285D01*
X72613761Y-82108523D01*
X72807285Y-82060142D01*
X73145952Y-82060142D01*
X73339476Y-82108523D01*
X73436238Y-82205285D01*
X73484619Y-82302047D01*
X73484619Y-82495571D01*
X73436238Y-82592333D01*
X73339476Y-82689095D01*
X73145952Y-82737476D01*
X72807285Y-82737476D01*
X72613761Y-82689095D01*
X72517000Y-82592333D01*
X72468619Y-82495571D01*
X72952428Y-81286047D02*
X72952428Y-81624714D01*
X73484619Y-81624714D02*
X72468619Y-81624714D01*
X72468619Y-81140904D01*
X73484619Y-79979761D02*
X72468619Y-79979761D01*
X72468619Y-79592714D01*
X72517000Y-79495952D01*
X72565380Y-79447571D01*
X72662142Y-79399190D01*
X72807285Y-79399190D01*
X72904047Y-79447571D01*
X72952428Y-79495952D01*
X73000809Y-79592714D01*
X73000809Y-79979761D01*
X73387857Y-78383190D02*
X73436238Y-78431571D01*
X73484619Y-78576714D01*
X73484619Y-78673476D01*
X73436238Y-78818619D01*
X73339476Y-78915380D01*
X73242714Y-78963761D01*
X73049190Y-79012142D01*
X72904047Y-79012142D01*
X72710523Y-78963761D01*
X72613761Y-78915380D01*
X72517000Y-78818619D01*
X72468619Y-78673476D01*
X72468619Y-78576714D01*
X72517000Y-78431571D01*
X72565380Y-78383190D01*
X72952428Y-77609095D02*
X73000809Y-77463952D01*
X73049190Y-77415571D01*
X73145952Y-77367190D01*
X73291095Y-77367190D01*
X73387857Y-77415571D01*
X73436238Y-77463952D01*
X73484619Y-77560714D01*
X73484619Y-77947761D01*
X72468619Y-77947761D01*
X72468619Y-77609095D01*
X72517000Y-77512333D01*
X72565380Y-77463952D01*
X72662142Y-77415571D01*
X72758904Y-77415571D01*
X72855666Y-77463952D01*
X72904047Y-77512333D01*
X72952428Y-77609095D01*
X72952428Y-77947761D01*
D13*
X85120000Y-80495000D02*
X85120000Y-83335000D01*
X85360000Y-80495000D02*
X85360000Y-83335000D01*
X85240000Y-80495000D02*
X85240000Y-83335000D01*
X91470000Y-81915000D02*
X88080000Y-81915000D01*
X81250000Y-81915000D02*
X84640000Y-81915000D01*
X88080000Y-80495000D02*
X84640000Y-80495000D01*
X88080000Y-83335000D02*
X88080000Y-80495000D01*
X84640000Y-83335000D02*
X88080000Y-83335000D01*
X84640000Y-80495000D02*
X84640000Y-83335000D01*
X89805000Y-74830000D02*
X89805000Y-77570000D01*
X81565000Y-74830000D02*
X81565000Y-77570000D01*
X81565000Y-77570000D02*
X89805000Y-77570000D01*
X81565000Y-74830000D02*
X89805000Y-74830000D01*
X83280000Y-73125000D02*
X83280000Y-70385000D01*
X83280000Y-70385000D02*
X76740000Y-70385000D01*
X76740000Y-70385000D02*
X76740000Y-73125000D01*
X76740000Y-73125000D02*
X83280000Y-73125000D01*
X84050000Y-71755000D02*
X83280000Y-71755000D01*
X75970000Y-71755000D02*
X76740000Y-71755000D01*
X99600000Y-119915000D02*
X99600000Y-122655000D01*
X99600000Y-122655000D02*
X106140000Y-122655000D01*
X106140000Y-122655000D02*
X106140000Y-119915000D01*
X106140000Y-119915000D02*
X99600000Y-119915000D01*
X98830000Y-121285000D02*
X99600000Y-121285000D01*
X106910000Y-121285000D02*
X106140000Y-121285000D01*
X125545000Y-82700000D02*
X125545000Y-79860000D01*
X125545000Y-79860000D02*
X122105000Y-79860000D01*
X122105000Y-79860000D02*
X122105000Y-82700000D01*
X122105000Y-82700000D02*
X125545000Y-82700000D01*
X128935000Y-81280000D02*
X125545000Y-81280000D01*
X118715000Y-81280000D02*
X122105000Y-81280000D01*
X124945000Y-82700000D02*
X124945000Y-79860000D01*
X124825000Y-82700000D02*
X124825000Y-79860000D01*
X125065000Y-82700000D02*
X125065000Y-79860000D01*
X104735000Y-65405000D02*
G75*
G03*
X104735000Y-65405000I-2500000J0D01*
G01*
X104795000Y-66950000D02*
X104795000Y-63860000D01*
X99245000Y-65404538D02*
G75*
G03*
X104795000Y-66949830I2990000J-462D01*
G01*
X99245000Y-65405462D02*
G75*
G02*
X104795000Y-63860170I2990000J462D01*
G01*
X126715000Y-75030000D02*
X118475000Y-75030000D01*
X126715000Y-72290000D02*
X118475000Y-72290000D01*
X126715000Y-75030000D02*
X126715000Y-72290000D01*
X118475000Y-75030000D02*
X118475000Y-72290000D01*
X108994999Y-111720000D02*
X112354999Y-111720000D01*
X108994999Y-111360000D02*
X108994999Y-111720000D01*
X105635000Y-111360000D02*
X108994999Y-111360000D01*
X105635000Y-111720000D02*
X105635000Y-111360000D01*
X102275000Y-111720000D02*
X105635000Y-111720000D01*
X102275001Y-91480000D02*
X102275000Y-111720000D01*
X112355000Y-91480000D02*
X102275001Y-91480000D01*
X112354999Y-111720000D02*
X112355000Y-91480000D01*
X102194999Y-111720000D02*
X102195000Y-91480000D01*
X102195000Y-91480000D02*
X92115001Y-91480000D01*
X92115001Y-91480000D02*
X92115000Y-111720000D01*
X92115000Y-111720000D02*
X95475000Y-111720000D01*
X95475000Y-111720000D02*
X95475000Y-111360000D01*
X95475000Y-111360000D02*
X98834999Y-111360000D01*
X98834999Y-111360000D02*
X98834999Y-111720000D01*
X98834999Y-111720000D02*
X102194999Y-111720000D01*
D10*
X126666666Y-61682380D02*
X126666666Y-62396666D01*
X126619047Y-62539523D01*
X126523809Y-62634761D01*
X126380952Y-62682380D01*
X126285714Y-62682380D01*
X127047619Y-61682380D02*
X127714285Y-61682380D01*
X127285714Y-62682380D01*
X115236666Y-61682380D02*
X115236666Y-62396666D01*
X115189047Y-62539523D01*
X115093809Y-62634761D01*
X114950952Y-62682380D01*
X114855714Y-62682380D01*
X115855714Y-62110952D02*
X115760476Y-62063333D01*
X115712857Y-62015714D01*
X115665238Y-61920476D01*
X115665238Y-61872857D01*
X115712857Y-61777619D01*
X115760476Y-61730000D01*
X115855714Y-61682380D01*
X116046190Y-61682380D01*
X116141428Y-61730000D01*
X116189047Y-61777619D01*
X116236666Y-61872857D01*
X116236666Y-61920476D01*
X116189047Y-62015714D01*
X116141428Y-62063333D01*
X116046190Y-62110952D01*
X115855714Y-62110952D01*
X115760476Y-62158571D01*
X115712857Y-62206190D01*
X115665238Y-62301428D01*
X115665238Y-62491904D01*
X115712857Y-62587142D01*
X115760476Y-62634761D01*
X115855714Y-62682380D01*
X116046190Y-62682380D01*
X116141428Y-62634761D01*
X116189047Y-62587142D01*
X116236666Y-62491904D01*
X116236666Y-62301428D01*
X116189047Y-62206190D01*
X116141428Y-62158571D01*
X116046190Y-62110952D01*
X89995476Y-61682380D02*
X89995476Y-62396666D01*
X89947857Y-62539523D01*
X89852619Y-62634761D01*
X89709761Y-62682380D01*
X89614523Y-62682380D01*
X90995476Y-62682380D02*
X90424047Y-62682380D01*
X90709761Y-62682380D02*
X90709761Y-61682380D01*
X90614523Y-61825238D01*
X90519285Y-61920476D01*
X90424047Y-61968095D01*
X91614523Y-61682380D02*
X91709761Y-61682380D01*
X91805000Y-61730000D01*
X91852619Y-61777619D01*
X91900238Y-61872857D01*
X91947857Y-62063333D01*
X91947857Y-62301428D01*
X91900238Y-62491904D01*
X91852619Y-62587142D01*
X91805000Y-62634761D01*
X91709761Y-62682380D01*
X91614523Y-62682380D01*
X91519285Y-62634761D01*
X91471666Y-62587142D01*
X91424047Y-62491904D01*
X91376428Y-62301428D01*
X91376428Y-62063333D01*
X91424047Y-61872857D01*
X91471666Y-61777619D01*
X91519285Y-61730000D01*
X91614523Y-61682380D01*
X79041666Y-61682380D02*
X79041666Y-62396666D01*
X78994047Y-62539523D01*
X78898809Y-62634761D01*
X78755952Y-62682380D01*
X78660714Y-62682380D01*
X79565476Y-62682380D02*
X79755952Y-62682380D01*
X79851190Y-62634761D01*
X79898809Y-62587142D01*
X79994047Y-62444285D01*
X80041666Y-62253809D01*
X80041666Y-61872857D01*
X79994047Y-61777619D01*
X79946428Y-61730000D01*
X79851190Y-61682380D01*
X79660714Y-61682380D01*
X79565476Y-61730000D01*
X79517857Y-61777619D01*
X79470238Y-61872857D01*
X79470238Y-62110952D01*
X79517857Y-62206190D01*
X79565476Y-62253809D01*
X79660714Y-62301428D01*
X79851190Y-62301428D01*
X79946428Y-62253809D01*
X79994047Y-62206190D01*
X80041666Y-62110952D01*
X65476428Y-121776904D02*
X65476428Y-121015000D01*
X65857380Y-121395952D02*
X65095476Y-121395952D01*
X65857380Y-120015000D02*
X65857380Y-120586428D01*
X65857380Y-120300714D02*
X64857380Y-120300714D01*
X65000238Y-120395952D01*
X65095476Y-120491190D01*
X65143095Y-120586428D01*
X64952619Y-119634047D02*
X64905000Y-119586428D01*
X64857380Y-119491190D01*
X64857380Y-119253095D01*
X64905000Y-119157857D01*
X64952619Y-119110238D01*
X65047857Y-119062619D01*
X65143095Y-119062619D01*
X65285952Y-119110238D01*
X65857380Y-119681666D01*
X65857380Y-119062619D01*
X64857380Y-118776904D02*
X65857380Y-118443571D01*
X64857380Y-118110238D01*
X64905000Y-111251904D02*
X64857380Y-111347142D01*
X64857380Y-111490000D01*
X64905000Y-111632857D01*
X65000238Y-111728095D01*
X65095476Y-111775714D01*
X65285952Y-111823333D01*
X65428809Y-111823333D01*
X65619285Y-111775714D01*
X65714523Y-111728095D01*
X65809761Y-111632857D01*
X65857380Y-111490000D01*
X65857380Y-111394761D01*
X65809761Y-111251904D01*
X65762142Y-111204285D01*
X65428809Y-111204285D01*
X65428809Y-111394761D01*
X65857380Y-110775714D02*
X64857380Y-110775714D01*
X65857380Y-110204285D01*
X64857380Y-110204285D01*
X65857380Y-109728095D02*
X64857380Y-109728095D01*
X64857380Y-109490000D01*
X64905000Y-109347142D01*
X65000238Y-109251904D01*
X65095476Y-109204285D01*
X65285952Y-109156666D01*
X65428809Y-109156666D01*
X65619285Y-109204285D01*
X65714523Y-109251904D01*
X65809761Y-109347142D01*
X65857380Y-109490000D01*
X65857380Y-109728095D01*
X64905000Y-99821904D02*
X64857380Y-99917142D01*
X64857380Y-100060000D01*
X64905000Y-100202857D01*
X65000238Y-100298095D01*
X65095476Y-100345714D01*
X65285952Y-100393333D01*
X65428809Y-100393333D01*
X65619285Y-100345714D01*
X65714523Y-100298095D01*
X65809761Y-100202857D01*
X65857380Y-100060000D01*
X65857380Y-99964761D01*
X65809761Y-99821904D01*
X65762142Y-99774285D01*
X65428809Y-99774285D01*
X65428809Y-99964761D01*
X65857380Y-98774285D02*
X65381190Y-99107619D01*
X65857380Y-99345714D02*
X64857380Y-99345714D01*
X64857380Y-98964761D01*
X64905000Y-98869523D01*
X64952619Y-98821904D01*
X65047857Y-98774285D01*
X65190714Y-98774285D01*
X65285952Y-98821904D01*
X65333571Y-98869523D01*
X65381190Y-98964761D01*
X65381190Y-99345714D01*
X65857380Y-98345714D02*
X64857380Y-98345714D01*
X65857380Y-97774285D01*
X64857380Y-97774285D01*
X64857380Y-89598333D02*
X65857380Y-89360238D01*
X65143095Y-89169761D01*
X65857380Y-88979285D01*
X64857380Y-88741190D01*
X65857380Y-88360238D02*
X64857380Y-88360238D01*
X65333571Y-88360238D02*
X65333571Y-87788809D01*
X65857380Y-87788809D02*
X64857380Y-87788809D01*
X64857380Y-87455476D02*
X64857380Y-86884047D01*
X65857380Y-87169761D02*
X64857380Y-87169761D01*
X65381190Y-78327142D02*
X65857380Y-78327142D01*
X64857380Y-78660476D02*
X65381190Y-78327142D01*
X64857380Y-77993809D01*
X65333571Y-77660476D02*
X65333571Y-77327142D01*
X65857380Y-77184285D02*
X65857380Y-77660476D01*
X64857380Y-77660476D01*
X64857380Y-77184285D01*
X65857380Y-76279523D02*
X65857380Y-76755714D01*
X64857380Y-76755714D01*
X64857380Y-67770238D02*
X64857380Y-67579761D01*
X64905000Y-67484523D01*
X65000238Y-67389285D01*
X65190714Y-67341666D01*
X65524047Y-67341666D01*
X65714523Y-67389285D01*
X65809761Y-67484523D01*
X65857380Y-67579761D01*
X65857380Y-67770238D01*
X65809761Y-67865476D01*
X65714523Y-67960714D01*
X65524047Y-68008333D01*
X65190714Y-68008333D01*
X65000238Y-67960714D01*
X64905000Y-67865476D01*
X64857380Y-67770238D01*
X65857380Y-66341666D02*
X65381190Y-66675000D01*
X65857380Y-66913095D02*
X64857380Y-66913095D01*
X64857380Y-66532142D01*
X64905000Y-66436904D01*
X64952619Y-66389285D01*
X65047857Y-66341666D01*
X65190714Y-66341666D01*
X65285952Y-66389285D01*
X65333571Y-66436904D01*
X65381190Y-66532142D01*
X65381190Y-66913095D01*
X64905000Y-65389285D02*
X64857380Y-65484523D01*
X64857380Y-65627380D01*
X64905000Y-65770238D01*
X65000238Y-65865476D01*
X65095476Y-65913095D01*
X65285952Y-65960714D01*
X65428809Y-65960714D01*
X65619285Y-65913095D01*
X65714523Y-65865476D01*
X65809761Y-65770238D01*
X65857380Y-65627380D01*
X65857380Y-65532142D01*
X65809761Y-65389285D01*
X65762142Y-65341666D01*
X65428809Y-65341666D01*
X65428809Y-65532142D01*
D14*
X90004854Y-91505596D02*
X89004547Y-91505596D01*
X90004854Y-90933992D02*
X89433250Y-91362695D01*
X89004547Y-90933992D02*
X89576151Y-91505596D01*
X89099815Y-90552923D02*
X89052181Y-90505289D01*
X89004547Y-90410022D01*
X89004547Y-90171854D01*
X89052181Y-90076586D01*
X89099815Y-90028953D01*
X89195082Y-89981319D01*
X89290349Y-89981319D01*
X89433250Y-90028953D01*
X90004854Y-90600557D01*
X90004854Y-89981319D01*
D10*
X85621904Y-79947380D02*
X85621904Y-78947380D01*
X85860000Y-78947380D01*
X86002857Y-78995000D01*
X86098095Y-79090238D01*
X86145714Y-79185476D01*
X86193333Y-79375952D01*
X86193333Y-79518809D01*
X86145714Y-79709285D01*
X86098095Y-79804523D01*
X86002857Y-79899761D01*
X85860000Y-79947380D01*
X85621904Y-79947380D01*
X86526666Y-78947380D02*
X87145714Y-78947380D01*
X86812380Y-79328333D01*
X86955238Y-79328333D01*
X87050476Y-79375952D01*
X87098095Y-79423571D01*
X87145714Y-79518809D01*
X87145714Y-79756904D01*
X87098095Y-79852142D01*
X87050476Y-79899761D01*
X86955238Y-79947380D01*
X86669523Y-79947380D01*
X86574285Y-79899761D01*
X86526666Y-79852142D01*
X79748095Y-80367380D02*
X79748095Y-79367380D01*
X80319523Y-80367380D02*
X79890952Y-79795952D01*
X80319523Y-79367380D02*
X79748095Y-79938809D01*
X85518333Y-74057142D02*
X85470714Y-74104761D01*
X85327857Y-74152380D01*
X85232619Y-74152380D01*
X85089761Y-74104761D01*
X84994523Y-74009523D01*
X84946904Y-73914285D01*
X84899285Y-73723809D01*
X84899285Y-73580952D01*
X84946904Y-73390476D01*
X84994523Y-73295238D01*
X85089761Y-73200000D01*
X85232619Y-73152380D01*
X85327857Y-73152380D01*
X85470714Y-73200000D01*
X85518333Y-73247619D01*
X85899285Y-73247619D02*
X85946904Y-73200000D01*
X86042142Y-73152380D01*
X86280238Y-73152380D01*
X86375476Y-73200000D01*
X86423095Y-73247619D01*
X86470714Y-73342857D01*
X86470714Y-73438095D01*
X86423095Y-73580952D01*
X85851666Y-74152380D01*
X86470714Y-74152380D01*
D14*
X116640184Y-109361046D02*
X115639877Y-109361046D01*
X116640184Y-108789442D02*
X116068580Y-109218145D01*
X115639877Y-108789442D02*
X116211481Y-109361046D01*
X116640184Y-107836769D02*
X116640184Y-108408373D01*
X116640184Y-108122571D02*
X115639877Y-108122571D01*
X115782778Y-108217838D01*
X115878046Y-108313106D01*
X115925679Y-108408373D01*
D10*
X79843333Y-74577380D02*
X79510000Y-74101190D01*
X79271904Y-74577380D02*
X79271904Y-73577380D01*
X79652857Y-73577380D01*
X79748095Y-73625000D01*
X79795714Y-73672619D01*
X79843333Y-73767857D01*
X79843333Y-73910714D01*
X79795714Y-74005952D01*
X79748095Y-74053571D01*
X79652857Y-74101190D01*
X79271904Y-74101190D01*
X80795714Y-74577380D02*
X80224285Y-74577380D01*
X80510000Y-74577380D02*
X80510000Y-73577380D01*
X80414761Y-73720238D01*
X80319523Y-73815476D01*
X80224285Y-73863095D01*
X78748095Y-71540714D02*
X78748095Y-72207380D01*
X78510000Y-71159761D02*
X78271904Y-71874047D01*
X78890952Y-71874047D01*
X79176666Y-71207380D02*
X79843333Y-71207380D01*
X79414761Y-72207380D01*
X80414761Y-71207380D02*
X80510000Y-71207380D01*
X80605238Y-71255000D01*
X80652857Y-71302619D01*
X80700476Y-71397857D01*
X80748095Y-71588333D01*
X80748095Y-71826428D01*
X80700476Y-72016904D01*
X80652857Y-72112142D01*
X80605238Y-72159761D01*
X80510000Y-72207380D01*
X80414761Y-72207380D01*
X80319523Y-72159761D01*
X80271904Y-72112142D01*
X80224285Y-72016904D01*
X80176666Y-71826428D01*
X80176666Y-71588333D01*
X80224285Y-71397857D01*
X80271904Y-71302619D01*
X80319523Y-71255000D01*
X80414761Y-71207380D01*
X81748095Y-72207380D02*
X81414761Y-71731190D01*
X81176666Y-72207380D02*
X81176666Y-71207380D01*
X81557619Y-71207380D01*
X81652857Y-71255000D01*
X81700476Y-71302619D01*
X81748095Y-71397857D01*
X81748095Y-71540714D01*
X81700476Y-71635952D01*
X81652857Y-71683571D01*
X81557619Y-71731190D01*
X81176666Y-71731190D01*
X102536666Y-124388571D02*
X102203333Y-124388571D01*
X102203333Y-124912380D02*
X102203333Y-123912380D01*
X102679523Y-123912380D01*
X103584285Y-124912380D02*
X103012857Y-124912380D01*
X103298571Y-124912380D02*
X103298571Y-123912380D01*
X103203333Y-124055238D01*
X103108095Y-124150476D01*
X103012857Y-124198095D01*
X99941428Y-121737380D02*
X99941428Y-120737380D01*
X100322380Y-120737380D01*
X100417619Y-120785000D01*
X100465238Y-120832619D01*
X100512857Y-120927857D01*
X100512857Y-121070714D01*
X100465238Y-121165952D01*
X100417619Y-121213571D01*
X100322380Y-121261190D01*
X99941428Y-121261190D01*
X101084285Y-121737380D02*
X100989047Y-121689761D01*
X100941428Y-121642142D01*
X100893809Y-121546904D01*
X100893809Y-121261190D01*
X100941428Y-121165952D01*
X100989047Y-121118333D01*
X101084285Y-121070714D01*
X101227142Y-121070714D01*
X101322380Y-121118333D01*
X101370000Y-121165952D01*
X101417619Y-121261190D01*
X101417619Y-121546904D01*
X101370000Y-121642142D01*
X101322380Y-121689761D01*
X101227142Y-121737380D01*
X101084285Y-121737380D01*
X101989047Y-121737380D02*
X101893809Y-121689761D01*
X101846190Y-121594523D01*
X101846190Y-120737380D01*
X102274761Y-121070714D02*
X102512857Y-121737380D01*
X102750952Y-121070714D02*
X102512857Y-121737380D01*
X102417619Y-121975476D01*
X102370000Y-122023095D01*
X102274761Y-122070714D01*
X102989047Y-121070714D02*
X103370000Y-121070714D01*
X103131904Y-121737380D02*
X103131904Y-120880238D01*
X103179523Y-120785000D01*
X103274761Y-120737380D01*
X103370000Y-120737380D01*
X104131904Y-121070714D02*
X104131904Y-121737380D01*
X103703333Y-121070714D02*
X103703333Y-121594523D01*
X103750952Y-121689761D01*
X103846190Y-121737380D01*
X103989047Y-121737380D01*
X104084285Y-121689761D01*
X104131904Y-121642142D01*
X104560476Y-121689761D02*
X104655714Y-121737380D01*
X104846190Y-121737380D01*
X104941428Y-121689761D01*
X104989047Y-121594523D01*
X104989047Y-121546904D01*
X104941428Y-121451666D01*
X104846190Y-121404047D01*
X104703333Y-121404047D01*
X104608095Y-121356428D01*
X104560476Y-121261190D01*
X104560476Y-121213571D01*
X104608095Y-121118333D01*
X104703333Y-121070714D01*
X104846190Y-121070714D01*
X104941428Y-121118333D01*
X105798571Y-121689761D02*
X105703333Y-121737380D01*
X105512857Y-121737380D01*
X105417619Y-121689761D01*
X105370000Y-121594523D01*
X105370000Y-121213571D01*
X105417619Y-121118333D01*
X105512857Y-121070714D01*
X105703333Y-121070714D01*
X105798571Y-121118333D01*
X105846190Y-121213571D01*
X105846190Y-121308809D01*
X105370000Y-121404047D01*
X123086904Y-84152380D02*
X123086904Y-83152380D01*
X123325000Y-83152380D01*
X123467857Y-83200000D01*
X123563095Y-83295238D01*
X123610714Y-83390476D01*
X123658333Y-83580952D01*
X123658333Y-83723809D01*
X123610714Y-83914285D01*
X123563095Y-84009523D01*
X123467857Y-84104761D01*
X123325000Y-84152380D01*
X123086904Y-84152380D01*
X124039285Y-83247619D02*
X124086904Y-83200000D01*
X124182142Y-83152380D01*
X124420238Y-83152380D01*
X124515476Y-83200000D01*
X124563095Y-83247619D01*
X124610714Y-83342857D01*
X124610714Y-83438095D01*
X124563095Y-83580952D01*
X123991666Y-84152380D01*
X124610714Y-84152380D01*
X121229761Y-81684761D02*
X121372619Y-81732380D01*
X121610714Y-81732380D01*
X121705952Y-81684761D01*
X121753571Y-81637142D01*
X121801190Y-81541904D01*
X121801190Y-81446666D01*
X121753571Y-81351428D01*
X121705952Y-81303809D01*
X121610714Y-81256190D01*
X121420238Y-81208571D01*
X121325000Y-81160952D01*
X121277380Y-81113333D01*
X121229761Y-81018095D01*
X121229761Y-80922857D01*
X121277380Y-80827619D01*
X121325000Y-80780000D01*
X121420238Y-80732380D01*
X121658333Y-80732380D01*
X121801190Y-80780000D01*
X122182142Y-81446666D02*
X122658333Y-81446666D01*
X122086904Y-81732380D02*
X122420238Y-80732380D01*
X122753571Y-81732380D01*
X123610714Y-81732380D02*
X123039285Y-81732380D01*
X123325000Y-81732380D02*
X123325000Y-80732380D01*
X123229761Y-80875238D01*
X123134523Y-80970476D01*
X123039285Y-81018095D01*
X124515476Y-80732380D02*
X124039285Y-80732380D01*
X123991666Y-81208571D01*
X124039285Y-81160952D01*
X124134523Y-81113333D01*
X124372619Y-81113333D01*
X124467857Y-81160952D01*
X124515476Y-81208571D01*
X124563095Y-81303809D01*
X124563095Y-81541904D01*
X124515476Y-81637142D01*
X124467857Y-81684761D01*
X124372619Y-81732380D01*
X124134523Y-81732380D01*
X124039285Y-81684761D01*
X123991666Y-81637142D01*
X125563095Y-81637142D02*
X125515476Y-81684761D01*
X125372619Y-81732380D01*
X125277380Y-81732380D01*
X125134523Y-81684761D01*
X125039285Y-81589523D01*
X124991666Y-81494285D01*
X124944047Y-81303809D01*
X124944047Y-81160952D01*
X124991666Y-80970476D01*
X125039285Y-80875238D01*
X125134523Y-80780000D01*
X125277380Y-80732380D01*
X125372619Y-80732380D01*
X125515476Y-80780000D01*
X125563095Y-80827619D01*
X125944047Y-81446666D02*
X126420238Y-81446666D01*
X125848809Y-81732380D02*
X126182142Y-80732380D01*
X126515476Y-81732380D01*
X129913095Y-83732380D02*
X129913095Y-82732380D01*
X130484523Y-83732380D02*
X130055952Y-83160952D01*
X130484523Y-82732380D02*
X129913095Y-83303809D01*
X101496904Y-70937380D02*
X101496904Y-69937380D01*
X101735000Y-69937380D01*
X101877857Y-69985000D01*
X101973095Y-70080238D01*
X102020714Y-70175476D01*
X102068333Y-70365952D01*
X102068333Y-70508809D01*
X102020714Y-70699285D01*
X101973095Y-70794523D01*
X101877857Y-70889761D01*
X101735000Y-70937380D01*
X101496904Y-70937380D01*
X103020714Y-70937380D02*
X102449285Y-70937380D01*
X102735000Y-70937380D02*
X102735000Y-69937380D01*
X102639761Y-70080238D01*
X102544523Y-70175476D01*
X102449285Y-70223095D01*
X122428333Y-76517142D02*
X122380714Y-76564761D01*
X122237857Y-76612380D01*
X122142619Y-76612380D01*
X121999761Y-76564761D01*
X121904523Y-76469523D01*
X121856904Y-76374285D01*
X121809285Y-76183809D01*
X121809285Y-76040952D01*
X121856904Y-75850476D01*
X121904523Y-75755238D01*
X121999761Y-75660000D01*
X122142619Y-75612380D01*
X122237857Y-75612380D01*
X122380714Y-75660000D01*
X122428333Y-75707619D01*
X123380714Y-76612380D02*
X122809285Y-76612380D01*
X123095000Y-76612380D02*
X123095000Y-75612380D01*
X122999761Y-75755238D01*
X122904523Y-75850476D01*
X122809285Y-75898095D01*
X118999761Y-71517142D02*
X119047380Y-71564761D01*
X118999761Y-71612380D01*
X118952142Y-71564761D01*
X118999761Y-71517142D01*
X118999761Y-71612380D01*
X119999761Y-71612380D02*
X119428333Y-71612380D01*
X119714047Y-71612380D02*
X119714047Y-70612380D01*
X119618809Y-70755238D01*
X119523571Y-70850476D01*
X119428333Y-70898095D01*
X120856904Y-70945714D02*
X120856904Y-71612380D01*
X120428333Y-70945714D02*
X120428333Y-71469523D01*
X120475952Y-71564761D01*
X120571190Y-71612380D01*
X120714047Y-71612380D01*
X120809285Y-71564761D01*
X120856904Y-71517142D01*
X121666428Y-71088571D02*
X121333095Y-71088571D01*
X121333095Y-71612380D02*
X121333095Y-70612380D01*
X121809285Y-70612380D01*
X122952142Y-71612380D02*
X122952142Y-70612380D01*
X123333095Y-70612380D01*
X123428333Y-70660000D01*
X123475952Y-70707619D01*
X123523571Y-70802857D01*
X123523571Y-70945714D01*
X123475952Y-71040952D01*
X123428333Y-71088571D01*
X123333095Y-71136190D01*
X122952142Y-71136190D01*
X124142619Y-70612380D02*
X124333095Y-70612380D01*
X124428333Y-70660000D01*
X124523571Y-70755238D01*
X124571190Y-70945714D01*
X124571190Y-71279047D01*
X124523571Y-71469523D01*
X124428333Y-71564761D01*
X124333095Y-71612380D01*
X124142619Y-71612380D01*
X124047380Y-71564761D01*
X123952142Y-71469523D01*
X123904523Y-71279047D01*
X123904523Y-70945714D01*
X123952142Y-70755238D01*
X124047380Y-70660000D01*
X124142619Y-70612380D01*
X125475952Y-71612380D02*
X124999761Y-71612380D01*
X124999761Y-70612380D01*
X125999761Y-71136190D02*
X125999761Y-71612380D01*
X125666428Y-70612380D02*
X125999761Y-71136190D01*
X126333095Y-70612380D01*
M02*
