G04 #@! TF.GenerationSoftware,KiCad,Pcbnew,(5.1.9)-1*
G04 #@! TF.CreationDate,2023-04-15T15:35:37-07:00*
G04 #@! TF.ProjectId,RELAYC,52454c41-5943-42e6-9b69-6361645f7063,rev?*
G04 #@! TF.SameCoordinates,Original*
G04 #@! TF.FileFunction,Copper,L1,Top*
G04 #@! TF.FilePolarity,Positive*
%FSLAX46Y46*%
G04 Gerber Fmt 4.6, Leading zero omitted, Abs format (unit mm)*
G04 Created by KiCad (PCBNEW (5.1.9)-1) date 2023-04-15 15:35:37*
%MOMM*%
%LPD*%
G01*
G04 APERTURE LIST*
G04 #@! TA.AperFunction,ComponentPad*
%ADD10C,3.500120*%
G04 #@! TD*
G04 #@! TA.AperFunction,ComponentPad*
%ADD11R,3.500120X3.500120*%
G04 #@! TD*
G04 #@! TA.AperFunction,ComponentPad*
%ADD12C,1.438000*%
G04 #@! TD*
G04 #@! TA.AperFunction,ComponentPad*
%ADD13C,2.175000*%
G04 #@! TD*
G04 #@! TA.AperFunction,ComponentPad*
%ADD14O,2.000000X2.000000*%
G04 #@! TD*
G04 #@! TA.AperFunction,ComponentPad*
%ADD15R,2.000000X2.000000*%
G04 #@! TD*
G04 #@! TA.AperFunction,ComponentPad*
%ADD16C,1.600000*%
G04 #@! TD*
G04 #@! TA.AperFunction,ComponentPad*
%ADD17O,1.600000X1.600000*%
G04 #@! TD*
G04 #@! TA.AperFunction,ComponentPad*
%ADD18R,1.800000X1.800000*%
G04 #@! TD*
G04 #@! TA.AperFunction,ComponentPad*
%ADD19C,1.800000*%
G04 #@! TD*
G04 #@! TA.AperFunction,ComponentPad*
%ADD20C,4.000000*%
G04 #@! TD*
G04 #@! TA.AperFunction,Conductor*
%ADD21C,2.540000*%
G04 #@! TD*
G04 #@! TA.AperFunction,Conductor*
%ADD22C,1.270000*%
G04 #@! TD*
G04 #@! TA.AperFunction,Conductor*
%ADD23C,0.508000*%
G04 #@! TD*
G04 APERTURE END LIST*
D10*
X129540000Y-65405000D03*
D11*
X124460000Y-65405000D03*
D10*
X118110000Y-65405000D03*
D11*
X113030000Y-65405000D03*
D10*
X93345000Y-65405000D03*
D11*
X88265000Y-65405000D03*
D10*
X81915000Y-65405000D03*
D11*
X76835000Y-65405000D03*
D10*
X69215000Y-118110000D03*
D11*
X69215000Y-123190000D03*
D10*
X69215000Y-107315000D03*
D11*
X69215000Y-112395000D03*
D10*
X69215000Y-96520000D03*
D11*
X69215000Y-101600000D03*
D10*
X69215000Y-85725000D03*
D11*
X69215000Y-90805000D03*
D10*
X69215000Y-74930000D03*
D11*
X69215000Y-80010000D03*
D10*
X69215000Y-64135000D03*
D11*
X69215000Y-69215000D03*
D12*
X86935000Y-89605000D03*
X80335000Y-97105000D03*
X83395000Y-102275000D03*
X76795000Y-109775000D03*
D13*
X86995000Y-109275000D03*
X86995000Y-101275000D03*
X83995000Y-109275000D03*
X76735000Y-90105000D03*
X76735000Y-98105000D03*
X79735000Y-90105000D03*
D14*
X92710000Y-81915000D03*
D15*
X80010000Y-81915000D03*
D16*
X88185000Y-76200000D03*
X83185000Y-76200000D03*
D12*
X118805000Y-109785000D03*
X125405000Y-102285000D03*
X122345000Y-97115000D03*
X128945000Y-89615000D03*
D13*
X118745000Y-90115000D03*
X118745000Y-98115000D03*
X121745000Y-90115000D03*
X129005000Y-109285000D03*
X129005000Y-101285000D03*
X126005000Y-109285000D03*
D16*
X85090000Y-71755000D03*
D17*
X74930000Y-71755000D03*
D16*
X97790000Y-121285000D03*
D17*
X107950000Y-121285000D03*
D15*
X130175000Y-81280000D03*
D14*
X117475000Y-81280000D03*
D18*
X103505000Y-65405000D03*
D19*
X100965000Y-65405000D03*
D16*
X125095000Y-73660000D03*
X120095000Y-73660000D03*
D20*
X109855000Y-93980000D03*
X104775000Y-93980000D03*
X109855000Y-101600000D03*
X104775000Y-101600000D03*
X109855000Y-109220000D03*
X104775000Y-109220000D03*
X94615000Y-109220000D03*
X99695000Y-109220000D03*
X94615000Y-101600000D03*
X99695000Y-101600000D03*
X94615000Y-93980000D03*
X99695000Y-93980000D03*
D21*
X124460000Y-73025000D02*
X125095000Y-73660000D01*
X124460000Y-65405000D02*
X124460000Y-73025000D01*
X125095000Y-76200000D02*
X130175000Y-81280000D01*
X125095000Y-73660000D02*
X125095000Y-76200000D01*
X131134001Y-99155999D02*
X129005000Y-101285000D01*
X131134001Y-85779001D02*
X131134001Y-99155999D01*
X130175000Y-84820000D02*
X131134001Y-85779001D01*
X130175000Y-81280000D02*
X130175000Y-84820000D01*
X118110000Y-71675000D02*
X120095000Y-73660000D01*
X118110000Y-65405000D02*
X118110000Y-71675000D01*
X120095000Y-78660000D02*
X117475000Y-81280000D01*
X120095000Y-73660000D02*
X120095000Y-78660000D01*
X123395721Y-99304001D02*
X119934001Y-99304001D01*
X124534001Y-98165721D02*
X123395721Y-99304001D01*
X119934001Y-99304001D02*
X118745000Y-98115000D01*
X124534001Y-88339001D02*
X124534001Y-98165721D01*
X117475000Y-81280000D02*
X124534001Y-88339001D01*
D22*
X128530000Y-108810000D02*
X129005000Y-109285000D01*
X118745000Y-89599959D02*
X118745000Y-90115000D01*
D21*
X94615000Y-118110000D02*
X97790000Y-121285000D01*
X69215000Y-118110000D02*
X94615000Y-118110000D01*
X97790000Y-121285000D02*
X107950000Y-121285000D01*
X129005000Y-110822957D02*
X129005000Y-109285000D01*
X118542957Y-121285000D02*
X129005000Y-110822957D01*
X107950000Y-121285000D02*
X118542957Y-121285000D01*
X69215000Y-118110000D02*
X69215000Y-123190000D01*
D23*
X107229001Y-120564001D02*
X107950000Y-121285000D01*
X97069001Y-120564001D02*
X97790000Y-121285000D01*
X97069001Y-92922999D02*
X97069001Y-120564001D01*
X103505000Y-86487000D02*
X97069001Y-92922999D01*
X103505000Y-65405000D02*
X103505000Y-86487000D01*
X77545939Y-94315939D02*
X80335000Y-97105000D01*
X66302929Y-96170060D02*
X68157050Y-94315939D01*
X66302929Y-115197929D02*
X66302929Y-96170060D01*
X68157050Y-94315939D02*
X77545939Y-94315939D01*
X69215000Y-118110000D02*
X66302929Y-115197929D01*
X80335000Y-97105000D02*
X79610991Y-96380991D01*
D21*
X120319999Y-103599999D02*
X126005000Y-109285000D01*
X111854999Y-103599999D02*
X120319999Y-103599999D01*
X109855000Y-101600000D02*
X111854999Y-103599999D01*
X121745000Y-91652957D02*
X121745000Y-90115000D01*
X118657965Y-94739992D02*
X121745000Y-91652957D01*
X116715008Y-94739992D02*
X118657965Y-94739992D01*
X109855000Y-101600000D02*
X116715008Y-94739992D01*
X80875000Y-112395000D02*
X69215000Y-112395000D01*
X83995000Y-109275000D02*
X80875000Y-112395000D01*
X90795042Y-101600000D02*
X94615000Y-101600000D01*
X83995000Y-108400042D02*
X90795042Y-101600000D01*
X83995000Y-109275000D02*
X83995000Y-108400042D01*
X69215000Y-107315000D02*
X69215000Y-112395000D01*
X69215000Y-96520000D02*
X69215000Y-101600000D01*
D23*
X69215000Y-101600000D02*
X68580000Y-101600000D01*
X89235939Y-114599061D02*
X94615000Y-109220000D01*
X67101739Y-114599061D02*
X89235939Y-114599061D01*
X67010939Y-114508261D02*
X67101739Y-114599061D01*
X67010939Y-103169061D02*
X67010939Y-114508261D01*
X68580000Y-101600000D02*
X67010939Y-103169061D01*
D21*
X69215000Y-85725000D02*
X69215000Y-90805000D01*
X69215000Y-74930000D02*
X69215000Y-80010000D01*
X89124001Y-85500999D02*
X92710000Y-81915000D01*
X89124001Y-99145999D02*
X89124001Y-85500999D01*
X86995000Y-101275000D02*
X89124001Y-99145999D01*
X88185000Y-77390000D02*
X92710000Y-81915000D01*
X88185000Y-76200000D02*
X88185000Y-77390000D01*
X88265000Y-76120000D02*
X88185000Y-76200000D01*
X88265000Y-65405000D02*
X88265000Y-76120000D01*
X82524001Y-84429001D02*
X80010000Y-81915000D01*
X82524001Y-98155721D02*
X82524001Y-84429001D01*
X81385721Y-99294001D02*
X82524001Y-98155721D01*
X77924001Y-99294001D02*
X81385721Y-99294001D01*
X76735000Y-98105000D02*
X77924001Y-99294001D01*
X81915000Y-74930000D02*
X83185000Y-76200000D01*
X83185000Y-78740000D02*
X80010000Y-81915000D01*
X83185000Y-76200000D02*
X83185000Y-78740000D01*
X81915000Y-65405000D02*
X81915000Y-74930000D01*
X69215000Y-64135000D02*
X69215000Y-69215000D01*
M02*
