%TF.GenerationSoftware,KiCad,Pcbnew,(5.1.9)-1*%
%TF.CreationDate,2021-03-25T16:00:54-07:00*%
%TF.ProjectId,SP_CARRIER_A,53505f43-4152-4524-9945-525f412e6b69,rev?*%
%TF.SameCoordinates,Original*%
%TF.FileFunction,Legend,Top*%
%TF.FilePolarity,Positive*%
%FSLAX46Y46*%
G04 Gerber Fmt 4.6, Leading zero omitted, Abs format (unit mm)*
G04 Created by KiCad (PCBNEW (5.1.9)-1) date 2021-03-25 16:00:54*
%MOMM*%
%LPD*%
G01*
G04 APERTURE LIST*
%ADD10C,0.120000*%
%ADD11C,0.150000*%
G04 APERTURE END LIST*
D10*
%TO.C,U5*%
X116340000Y-67935000D02*
X116340000Y-58595000D01*
X136640000Y-67935000D02*
X116340000Y-67935000D01*
X136640000Y-57795000D02*
X136640000Y-67935000D01*
X117140000Y-57795000D02*
X136640000Y-57795000D01*
X116340000Y-58595000D02*
X117140000Y-57795000D01*
%TO.C,U1*%
X92720000Y-67935000D02*
X92720000Y-58595000D01*
X113020000Y-67935000D02*
X92720000Y-67935000D01*
X113020000Y-57795000D02*
X113020000Y-67935000D01*
X93520000Y-57795000D02*
X113020000Y-57795000D01*
X92720000Y-58595000D02*
X93520000Y-57795000D01*
%TO.C,U5*%
D11*
X130048095Y-62317380D02*
X130048095Y-63126904D01*
X130095714Y-63222142D01*
X130143333Y-63269761D01*
X130238571Y-63317380D01*
X130429047Y-63317380D01*
X130524285Y-63269761D01*
X130571904Y-63222142D01*
X130619523Y-63126904D01*
X130619523Y-62317380D01*
X131571904Y-62317380D02*
X131095714Y-62317380D01*
X131048095Y-62793571D01*
X131095714Y-62745952D01*
X131190952Y-62698333D01*
X131429047Y-62698333D01*
X131524285Y-62745952D01*
X131571904Y-62793571D01*
X131619523Y-62888809D01*
X131619523Y-63126904D01*
X131571904Y-63222142D01*
X131524285Y-63269761D01*
X131429047Y-63317380D01*
X131190952Y-63317380D01*
X131095714Y-63269761D01*
X131048095Y-63222142D01*
%TO.C,U1*%
X97028095Y-62317380D02*
X97028095Y-63126904D01*
X97075714Y-63222142D01*
X97123333Y-63269761D01*
X97218571Y-63317380D01*
X97409047Y-63317380D01*
X97504285Y-63269761D01*
X97551904Y-63222142D01*
X97599523Y-63126904D01*
X97599523Y-62317380D01*
X98599523Y-63317380D02*
X98028095Y-63317380D01*
X98313809Y-63317380D02*
X98313809Y-62317380D01*
X98218571Y-62460238D01*
X98123333Y-62555476D01*
X98028095Y-62603095D01*
%TD*%
M02*
