0
SECTION
2
HEADER
9
$INSUNITS
70
1
9
$ACADVER
1
AC1014
9
$HANDSEED
5
FFFF
0
ENDSEC
0
SECTION
2
TABLES
0
TABLE
2
VPORT
5
8
100
AcDbSymbolTable
0
ENDTAB
0
TABLE
2
LTYPE
5
5
100
AcDbSymbolTable
0
LTYPE
5
14
100
AcDbSymbolTableRecord
100
AcDbLinetypeTableRecord
2
BYBLOCK
70
0
0
LTYPE
5
15
100
AcDbSymbolTableRecord
100
AcDbLinetypeTableRecord
2
BYLAYER
70
0
0
ENDTAB
0
TABLE
2
LAYER
5
2
100
AcDbSymbolTable
70
2
0
LAYER
5
50
100
AcDbSymbolTableRecord
100
AcDbLayerTableRecord
2
0
70
0
6
CONTINUOUS
0
ENDTAB
0
TABLE
2
STYLE
5
3
100
AcDbSymbolTable
70
1
0
STYLE
5
11
100
AcDbSymbolTableRecord
100
AcDbTextStyleTableRecord
2
STANDARD
70
0
0
ENDTAB
0
TABLE
2
VIEW
5
6
100
AcDbSymbolTable
70
0
0
ENDTAB
0
TABLE
2
UCS
5
7
100
AcDbSymbolTable
70
0
0
ENDTAB
0
TABLE
2
APPID
5
9
100
AcDbSymbolTable
70
2
0
APPID
5
12
100
AcDbSymbolTableRecord
100
AcDbRegAppTableRecord
2
ACAD
70
0
0
ENDTAB
0
TABLE
2
DIMSTYLE
5
A
100
AcDbSymbolTable
70
1
0
ENDTAB
0
TABLE
2
BLOCK_RECORD
5
1
100
AcDbSymbolTable
70
1
0
BLOCK_RECORD
5
1F
100
AcDbSymbolTableRecord
100
AcDbBlockTableRecord
2
*MODEL_SPACE
0
BLOCK_RECORD
5
1B
100
AcDbSymbolTableRecord
100
AcDbBlockTableRecord
2
*PAPER_SPACE
0
ENDTAB
0
ENDSEC
0
SECTION
2
BLOCKS
0
BLOCK
5
20
100
AcDbEntity
100
AcDbBlockBegin
2
*MODEL_SPACE
0
ENDBLK
5
21
100
AcDbEntity
100
AcDbBlockEnd
0
BLOCK
5
1C
100
AcDbEntity
100
AcDbBlockBegin
2
*PAPER_SPACE
0
ENDBLK
5
1D
100
AcDbEntity
100
AcDbBlockEnd
0
ENDSEC
0
SECTION
2
ENTITIES
0
LWPOLYLINE
5
100
100
AcDbEntity
8
OUTER_PROFILES
100
AcDbPolyline
90
20
70
1
43
0.0
10
6.4958667374415588
20
3.2500000000000009
10
3.1917720790820609e-17
20
3.2499999999999996
42
0.41421356237309465
10
-0.24999999999999964
20
2.9999999999999991
10
-0.24999999999999997
20
0.24999999999999956
42
0.41421356237309515
10
1.0927391974657054e-16
20
-4.3709567898628207e-16
10
6.4958667374415597
20
6.9935308637805131e-16
10
6.4958667374415597
20
0.10500000000001335
10
6.7722561157317109
20
0.10500000000001335
10
6.7722561157317092
20
-0.52750440461136472
10
8.4538834963912688
20
-0.52750440461136405
42
0.41421356237309498
10
8.7038834963912688
20
-0.27750440461136355
10
8.703883496391267
20
1.2500000000000009
10
7.0193915185820348
20
1.2500000000000002
42
-0.99999999999999989
10
7.0193915185820348
20
2
10
8.703883496391267
20
2.0000000000000009
10
8.7038834963912652
20
3.5275044046113622
42
0.41421356237309587
10
8.4538834963912652
20
3.7775044046113626
10
6.7722561157317083
20
3.7775044046113622
10
6.7722561157317092
20
3.1449999999999858
10
6.4958667374415597
20
3.1449999999999858
0
CIRCLE
5
101
100
AcDbEntity
8
INTERIOR_PROFILES
100
AcDbCircle
10
-7.0193915185820339
20
2.6250000000000004
30
0
40
0.2499999999999992
210
0
220
0
230
-1
0
CIRCLE
5
102
100
AcDbEntity
8
INTERIOR_PROFILES
100
AcDbCircle
10
-0.73868748787808924
20
2.6249999999999978
30
0
40
0.24999999999999989
210
0
220
0
230
-1
0
CIRCLE
5
103
100
AcDbEntity
8
INTERIOR_PROFILES
100
AcDbCircle
10
-0.73868748787808924
20
1.6249999999999982
30
0
40
0.53149999999999964
210
0
220
0
230
-1
0
CIRCLE
5
104
100
AcDbEntity
8
INTERIOR_PROFILES
100
AcDbCircle
10
-5.6930451730960332
20
0.75885826771653619
30
0
40
0.13750000000000001
210
0
220
0
230
-1
0
CIRCLE
5
105
100
AcDbEntity
8
INTERIOR_PROFILES
100
AcDbCircle
10
-3.5670609211275308
20
0.75885826771653475
30
0
40
0.13750000000000001
210
0
220
0
230
-1
0
CIRCLE
5
106
100
AcDbEntity
8
INTERIOR_PROFILES
100
AcDbCircle
10
-3.5670609211275304
20
2.4911417322834644
30
0
40
0.13750000000000018
210
0
220
0
230
-1
0
CIRCLE
5
107
100
AcDbEntity
8
INTERIOR_PROFILES
100
AcDbCircle
10
-0.73868748787808969
20
0.62499999999999867
30
0
40
0.24999999999999989
210
0
220
0
230
-1
0
CIRCLE
5
108
100
AcDbEntity
8
INTERIOR_PROFILES
100
AcDbCircle
10
-7.0193915185820348
20
0.62500000000000011
30
0
40
0.25000000000000061
210
0
220
0
230
-1
0
CIRCLE
5
109
100
AcDbEntity
8
INTERIOR_PROFILES
100
AcDbCircle
10
-5.6930451730960332
20
2.4911417322834644
30
0
40
0.13749999999999984
210
0
220
0
230
-1
0
LINE
5
110
100
AcDbEntity
8
BEND
100
AcDbLine
10
2.1353465906133891
20
0
30
-1.004857062966012e-16
11
2.1353465906133886
21
3.2499999999999987
31
5.2622370832271568e-16
0
LINE
5
111
100
AcDbEntity
8
BEND
100
AcDbLine
10
8.703883496391267
20
-0.013752202305684573
30
3.5347789150332007e-14
11
6.7722561157317109
21
-0.013752202305685272
31
-1.4714222215449249e-14
0
LINE
5
112
100
AcDbEntity
8
BEND
100
AcDbLine
10
2.7413008448060867
20
3.2499999999999978
30
-4.7256071017380539e-16
11
2.7413008448060876
21
0
31
-5.0768792448481619e-16
0
LINE
5
113
100
AcDbEntity
8
BEND
100
AcDbLine
10
6.5090614265866353
20
3.1449999999999858
30
-1.4318987064020624e-14
11
6.5090614265866371
21
0.10500000000001335
31
-1.4314452782129111e-14
0
LINE
5
114
100
AcDbEntity
8
BEND
100
AcDbLine
10
6.7722561157317109
20
3.2637522023056844
30
-1.5766107294032055e-14
11
8.703883496391267
21
3.2637522023056853
31
1.6287562097514397e-14
0
LINE
5
115
100
AcDbEntity
8
BEND_EXTENT
100
AcDbLine
10
2.0297890774527731
20
0
30
-4.9684038644724867e-17
11
2.0297890774527723
21
3.2499999999999987
31
4.748307761388161e-16
0
LINE
5
116
100
AcDbEntity
8
BEND_EXTENT
100
AcDbLine
10
6.7722561157317109
20
3.3825044046113826
30
-2.1344775958149483e-14
11
8.703883496391267
21
3.3825044046113826
31
1.0359216890207939e-14
0
LINE
5
117
100
AcDbEntity
8
BEND_EXTENT
100
AcDbLine
10
8.703883496391267
20
-0.13250440461138457
30
2.9416588494009833e-14
11
6.7722561157317109
21
-0.13250440461138457
31
-2.0995099414960461e-14
0
LINE
5
118
100
AcDbEntity
8
BEND_EXTENT
100
AcDbLine
10
8.7038834963912652
20
3.1449999999999867
30
2.583240392632233e-14
11
6.7722561157317092
21
3.1449999999999858
31
-9.8054500329116351e-15
0
LINE
5
119
100
AcDbEntity
8
BEND_EXTENT
100
AcDbLine
10
6.7722561157317109
20
0.10500000000001335
30
-7.8822290453719941e-15
11
8.703883496391267
21
0.10500000000001369
31
2.6007242197916841e-14
0
LINE
5
120
100
AcDbEntity
8
BEND_EXTENT
100
AcDbLine
10
6.4958667374415597
20
0.10500000000001335
30
-1.4238553773562664e-14
11
6.4958667374415597
21
3.1449999999999858
31
-1.4202408177128583e-14
0
LINE
5
121
100
AcDbEntity
8
BEND_EXTENT
100
AcDbLine
10
6.5222561157317092
20
3.1449999999999858
30
-1.3146137400457195e-14
11
6.5222561157317092
21
0.10500000000001335
31
-1.707999851133374e-14
0
LINE
5
122
100
AcDbEntity
8
BEND_EXTENT
100
AcDbLine
10
2.2409041037740063
20
3.2499999999999996
30
2.9056527449700219e-16
11
2.2409041037740072
21
-6.9935308637805131e-16
31
7.2017435003858692e-17
0
LINE
5
123
100
AcDbEntity
8
BEND_EXTENT
100
AcDbLine
10
2.6225486425003943
20
6.9935308637805131e-16
30
-4.49416289872815e-16
11
2.622548642500393
21
3.2499999999999987
31
-3.1828758617692632e-16
0
LINE
5
124
100
AcDbEntity
8
BEND_EXTENT
100
AcDbLine
10
2.8600530471117813
20
3.2499999999999996
30
-6.0668801283587465e-16
11
2.8600530471117822
21
-6.9935308637805131e-16
31
-5.9376687814321071e-16
0
ENDSEC
0
SECTION
2
OBJECTS
0
DICTIONARY
5
C
100
AcDbDictionary
3
ACAD_GROUP
350
D
3
ACAD_MLINESTYLE
350
17
0
DICTIONARY
5
D
100
AcDbDictionary
0
DICTIONARY
5
1A
330
C
100
AcDbDictionary
0
DICTIONARY
5
17
100
AcDbDictionary
0
ENDSEC
0
EOF
