0
SECTION
2
HEADER
9
$INSUNITS
70
1
9
$ACADVER
1
AC1014
9
$HANDSEED
5
FFFF
0
ENDSEC
0
SECTION
2
TABLES
0
TABLE
2
VPORT
5
8
100
AcDbSymbolTable
0
ENDTAB
0
TABLE
2
LTYPE
5
5
100
AcDbSymbolTable
0
LTYPE
5
14
100
AcDbSymbolTableRecord
100
AcDbLinetypeTableRecord
2
BYBLOCK
70
0
0
LTYPE
5
15
100
AcDbSymbolTableRecord
100
AcDbLinetypeTableRecord
2
BYLAYER
70
0
0
ENDTAB
0
TABLE
2
LAYER
5
2
100
AcDbSymbolTable
70
2
0
LAYER
5
50
100
AcDbSymbolTableRecord
100
AcDbLayerTableRecord
2
0
70
0
6
CONTINUOUS
0
ENDTAB
0
TABLE
2
STYLE
5
3
100
AcDbSymbolTable
70
1
0
STYLE
5
11
100
AcDbSymbolTableRecord
100
AcDbTextStyleTableRecord
2
STANDARD
70
0
0
ENDTAB
0
TABLE
2
VIEW
5
6
100
AcDbSymbolTable
70
0
0
ENDTAB
0
TABLE
2
UCS
5
7
100
AcDbSymbolTable
70
0
0
ENDTAB
0
TABLE
2
APPID
5
9
100
AcDbSymbolTable
70
2
0
APPID
5
12
100
AcDbSymbolTableRecord
100
AcDbRegAppTableRecord
2
ACAD
70
0
0
ENDTAB
0
TABLE
2
DIMSTYLE
5
A
100
AcDbSymbolTable
70
1
0
ENDTAB
0
TABLE
2
BLOCK_RECORD
5
1
100
AcDbSymbolTable
70
1
0
BLOCK_RECORD
5
1F
100
AcDbSymbolTableRecord
100
AcDbBlockTableRecord
2
*MODEL_SPACE
0
BLOCK_RECORD
5
1B
100
AcDbSymbolTableRecord
100
AcDbBlockTableRecord
2
*PAPER_SPACE
0
ENDTAB
0
ENDSEC
0
SECTION
2
BLOCKS
0
BLOCK
5
20
100
AcDbEntity
100
AcDbBlockBegin
2
*MODEL_SPACE
0
ENDBLK
5
21
100
AcDbEntity
100
AcDbBlockEnd
0
BLOCK
5
1C
100
AcDbEntity
100
AcDbBlockBegin
2
*PAPER_SPACE
0
ENDBLK
5
1D
100
AcDbEntity
100
AcDbBlockEnd
0
ENDSEC
0
SECTION
2
ENTITIES
0
LWPOLYLINE
5
100
100
AcDbEntity
8
OUTER_PROFILES
100
AcDbPolyline
90
18
70
1
43
0.0
10
6.242744580536983
20
-7.041611388469004e-14
10
0
20
0
10
-7.0481678236537987e-16
20
0.12699999999999975
42
0.41421356237309515
10
-0.030500000000000707
20
0.15749999999999975
10
-3.5570313603732799
20
0.15750000000000147
42
-0.71081883628825526
10
-3.5570313603732711
20
3.5574999999999988
10
-0.030500000000001366
20
3.5574999999999988
42
0.4142135623730947
10
-1.4041698687434311e-15
20
3.5879999999999987
10
-7.5847560238970754e-16
20
3.7149999999999994
10
6.2427445805369839
20
3.7149999999999994
10
6.242744580536983
20
3.5775000000000032
10
6.9927445805369812
20
3.5775000000000032
10
6.992744580536983
20
3.7149999999999994
10
11.758499999999998
20
3.7149999999999994
10
11.758500000000002
20
0
10
6.992744580536983
20
-7.0263130397044839e-14
10
6.9927445805369839
20
0.13749999999992607
10
6.2427445805369839
20
0.13749999999992593
0
CIRCLE
5
101
100
AcDbEntity
8
INTERIOR_PROFILES
100
AcDbCircle
10
-7.4327445805369843
20
3.5150000000000001
30
0
40
0.064999999999999572
210
0
220
0
230
-1
0
CIRCLE
5
102
100
AcDbEntity
8
INTERIOR_PROFILES
100
AcDbCircle
10
-2.4327445805369834
20
0.19999999999992912
30
0
40
0.064999999999999919
210
0
220
0
230
-1
0
LWPOLYLINE
5
103
100
AcDbEntity
8
INTERIOR_PROFILES
100
AcDbPolyline
90
4
70
1
43
0.0
10
-2.7279233820633091
20
1.4449999999999983
10
-1.2029233820633081
20
1.4449999999999985
10
-1.2029233820633081
20
2.2699999999999982
10
-2.7279233820633086
20
2.2699999999999982
0
CIRCLE
5
104
100
AcDbEntity
8
INTERIOR_PROFILES
100
AcDbCircle
10
-9.2080078740157489
20
0.99135826771650082
30
0
40
0.13750000000000001
210
0
220
0
230
-1
0
CIRCLE
5
105
100
AcDbEntity
8
INTERIOR_PROFILES
100
AcDbCircle
10
-9.2080078740157507
20
2.7236417322834305
30
0
40
0.13749999999999984
210
0
220
0
230
-1
0
CIRCLE
5
106
100
AcDbEntity
8
INTERIOR_PROFILES
100
AcDbCircle
10
3.5195375876633102
20
1.8574999999999988
30
0
40
0.16249999999999998
210
0
220
0
230
-1
0
CIRCLE
5
107
100
AcDbEntity
8
INTERIOR_PROFILES
100
AcDbCircle
10
-3.096000000000001
20
3.1775000000000024
30
0
40
0.29999999999999982
210
0
220
0
230
-1
0
CIRCLE
5
108
100
AcDbEntity
8
INTERIOR_PROFILES
100
AcDbCircle
10
-2.4327445805369825
20
3.5150000000000001
30
0
40
0.064999999999999572
210
0
220
0
230
-1
0
CIRCLE
5
109
100
AcDbEntity
8
INTERIOR_PROFILES
100
AcDbCircle
10
-11.333992125984251
20
0.99135826771650115
30
0
40
0.13750000000000001
210
0
220
0
230
-1
0
LWPOLYLINE
5
110
100
AcDbEntity
8
INTERIOR_PROFILES
100
AcDbPolyline
90
2
70
1
43
0.0
10
7.4926924745783872
20
0.06249999999992685
10
7.3727966864955814
20
0.062499999999926892
42
0.20851441405705004
0
CIRCLE
5
111
100
AcDbEntity
8
INTERIOR_PROFILES
100
AcDbCircle
10
-11.333992125984253
20
2.7236417322834305
30
0
40
0.13749999999999984
210
0
220
0
230
-1
0
CIRCLE
5
112
100
AcDbEntity
8
INTERIOR_PROFILES
100
AcDbCircle
10
-7.4327445805369843
20
0.19999999999993018
30
0
40
0.064999999999999919
210
0
220
0
230
-1
0
LINE
5
113
100
AcDbEntity
8
BEND
100
AcDbLine
10
-0.099489374672826356
20
0.15750000000000108
30
3.160476402685606e-16
11
-0.099489374672826064
21
3.5574999999999997
31
3.2636511735641247e-15
0
LINE
5
114
100
AcDbEntity
8
BEND_EXTENT
100
AcDbLine
10
-0.16847874934565588
20
0.15750000000000072
30
-1.0443534048999871e-15
11
-0.16847874934565452
21
3.5574999999999997
31
1.7530589406122181e-15
0
LINE
5
115
100
AcDbEntity
8
BEND_EXTENT
100
AcDbLine
10
-0.030500000000001394
20
3.5574999999999997
30
8.4654505627673924e-19
11
-0.0305000000000007
21
0.15750000000000008
31
8.4654505627670043e-19
0
ENDSEC
0
SECTION
2
OBJECTS
0
DICTIONARY
5
C
100
AcDbDictionary
3
ACAD_GROUP
350
D
3
ACAD_MLINESTYLE
350
17
0
DICTIONARY
5
D
100
AcDbDictionary
0
DICTIONARY
5
1A
330
C
100
AcDbDictionary
0
DICTIONARY
5
17
100
AcDbDictionary
0
ENDSEC
0
EOF
