0
SECTION
2
HEADER
9
$INSUNITS
70
1
9
$ACADVER
1
AC1014
9
$HANDSEED
5
FFFF
0
ENDSEC
0
SECTION
2
TABLES
0
TABLE
2
VPORT
5
8
100
AcDbSymbolTable
0
ENDTAB
0
TABLE
2
LTYPE
5
5
100
AcDbSymbolTable
0
LTYPE
5
14
100
AcDbSymbolTableRecord
100
AcDbLinetypeTableRecord
2
BYBLOCK
70
0
0
LTYPE
5
15
100
AcDbSymbolTableRecord
100
AcDbLinetypeTableRecord
2
BYLAYER
70
0
0
ENDTAB
0
TABLE
2
LAYER
5
2
100
AcDbSymbolTable
70
2
0
LAYER
5
50
100
AcDbSymbolTableRecord
100
AcDbLayerTableRecord
2
0
70
0
6
CONTINUOUS
0
ENDTAB
0
TABLE
2
STYLE
5
3
100
AcDbSymbolTable
70
1
0
STYLE
5
11
100
AcDbSymbolTableRecord
100
AcDbTextStyleTableRecord
2
STANDARD
70
0
0
ENDTAB
0
TABLE
2
VIEW
5
6
100
AcDbSymbolTable
70
0
0
ENDTAB
0
TABLE
2
UCS
5
7
100
AcDbSymbolTable
70
0
0
ENDTAB
0
TABLE
2
APPID
5
9
100
AcDbSymbolTable
70
2
0
APPID
5
12
100
AcDbSymbolTableRecord
100
AcDbRegAppTableRecord
2
ACAD
70
0
0
ENDTAB
0
TABLE
2
DIMSTYLE
5
A
100
AcDbSymbolTable
70
1
0
ENDTAB
0
TABLE
2
BLOCK_RECORD
5
1
100
AcDbSymbolTable
70
1
0
BLOCK_RECORD
5
1F
100
AcDbSymbolTableRecord
100
AcDbBlockTableRecord
2
*MODEL_SPACE
0
BLOCK_RECORD
5
1B
100
AcDbSymbolTableRecord
100
AcDbBlockTableRecord
2
*PAPER_SPACE
0
ENDTAB
0
ENDSEC
0
SECTION
2
BLOCKS
0
BLOCK
5
20
100
AcDbEntity
100
AcDbBlockBegin
2
*MODEL_SPACE
0
ENDBLK
5
21
100
AcDbEntity
100
AcDbBlockEnd
0
BLOCK
5
1C
100
AcDbEntity
100
AcDbBlockBegin
2
*PAPER_SPACE
0
ENDBLK
5
1D
100
AcDbEntity
100
AcDbBlockEnd
0
ENDSEC
0
SECTION
2
ENTITIES
0
LWPOLYLINE
5
100
100
AcDbEntity
8
OUTER_PROFILES
100
AcDbPolyline
90
18
70
1
43
0.0
10
1.2588355554804924e-14
20
0.51597874934566546
10
0
20
0
10
11.722500000000004
20
2.6225740739176924e-16
10
11.722500000000004
20
0.51597874934566956
42
-0.41421356237309503
10
11.753000000000004
20
0.54647874934566953
10
11.847500000000004
20
0.54647874934566965
10
11.847500000000002
20
4.44147874934567
10
11.753000000000002
20
4.44147874934567
42
-0.41421356237309503
10
11.7225
20
4.47197874934567
10
11.722500000000004
20
4.987957498691336
10
1.3987061727561026e-15
20
4.9879574986913298
10
9.7909432092927175e-15
20
4.4719787493456646
10
-0.16847874934565207
20
4.4719787493456655
10
-0.16847874934565349
20
4.4939787493456667
10
-1.8464787493456545
20
4.4939787493456649
42
0.99999999999999989
10
-1.8464787493456549
20
0.49397874934566804
10
-0.16847874934565207
20
0.49397874934566532
10
-0.16847874934565069
20
0.51597874934566501
0
CIRCLE
5
101
100
AcDbEntity
8
INTERIOR_PROFILES
100
AcDbCircle
10
-1.4999999999999616
20
4.7879574986913536
30
0
40
0.070866141732283297
210
0
220
0
230
-1
0
LWPOLYLINE
5
102
100
AcDbEntity
8
INTERIOR_PROFILES
100
AcDbPolyline
90
4
70
1
43
0.0
10
-2.2184787493456537
20
2.0814787493457012
10
-2.2184787493456537
20
2.9064787493457014
10
-0.71847874934565426
20
2.9064787493457014
10
-0.71847874934565426
20
2.0814787493457017
0
CIRCLE
5
103
100
AcDbEntity
8
INTERIOR_PROFILES
100
AcDbCircle
10
2.978478749345653
20
2.4939787493456662
30
0
40
0.16399999999999984
210
0
220
0
230
-1
0
CIRCLE
5
104
100
AcDbEntity
8
INTERIOR_PROFILES
100
AcDbCircle
10
-7.9999999999999627
20
4.7879574986913545
30
0
40
0.070866141732283117
210
0
220
0
230
-1
0
CIRCLE
5
105
100
AcDbEntity
8
INTERIOR_PROFILES
100
AcDbCircle
10
-11.297500000000001
20
3.360120481629135
30
0
40
0.13749999999999984
210
0
220
0
230
-1
0
CIRCLE
5
106
100
AcDbEntity
8
INTERIOR_PROFILES
100
AcDbCircle
10
-8.0000000000000036
20
0.20000000000000492
30
0
40
0.070866141732283131
210
0
220
0
230
-1
0
CIRCLE
5
107
100
AcDbEntity
8
INTERIOR_PROFILES
100
AcDbCircle
10
-1.5000000000000049
20
0.20000000000000087
30
0
40
0.070866141732283422
210
0
220
0
230
-1
0
CIRCLE
5
108
100
AcDbEntity
8
INTERIOR_PROFILES
100
AcDbCircle
10
-11.297500000000001
20
1.6278370170622061
30
0
40
0.13750000000000001
210
0
220
0
230
-1
0
CIRCLE
5
109
100
AcDbEntity
8
INTERIOR_PROFILES
100
AcDbCircle
10
-9.1715157480314993
20
3.3601204816291341
30
0
40
0.13749999999999984
210
0
220
0
230
-1
0
CIRCLE
5
110
100
AcDbEntity
8
INTERIOR_PROFILES
100
AcDbCircle
10
-9.1715157480314993
20
1.6278370170622047
30
0
40
0.13750000000000001
210
0
220
0
230
-1
0
CIRCLE
5
111
100
AcDbEntity
8
INTERIOR_PROFILES
100
AcDbCircle
10
-2.847500000000001
20
3.793978749345666
30
0
40
0.30000000000000016
210
0
220
0
230
-1
0
LINE
5
112
100
AcDbEntity
8
BEND
100
AcDbLine
10
-0.099489374672818681
20
0.51597874934566501
30
7.4187112121357993e-16
11
-0.099489374672820083
21
4.4719787493456655
31
7.8558068911221191e-16
0
LINE
5
113
100
AcDbEntity
8
BEND
100
AcDbLine
10
9.7909432092927175e-15
20
4.540968124018498
30
1.9284827645352501e-15
11
11.722499999999984
21
4.5409681240185016
31
-3.6157580311447111e-15
0
LINE
5
114
100
AcDbEntity
8
BEND
100
AcDbLine
10
11.722500000000002
20
0.446989374672836
30
-6.0399199589777638e-16
11
9.7909432092927175e-15
21
0.44698937467283234
31
-5.9083471958804719e-16
0
LINE
5
115
100
AcDbEntity
8
BEND_EXTENT
100
AcDbLine
10
11.722500000000002
20
0.378000000000003
30
-6.3563855645242356e-16
11
9.7909432092927175e-15
21
0.37799999999999923
31
-3.4967654318902378e-16
0
LINE
5
116
100
AcDbEntity
8
BEND_EXTENT
100
AcDbLine
10
1.2588355554804924e-14
20
0.51597874934566546
30
-1.0490296295670744e-15
11
11.722500000000004
21
0.51597874934566956
31
7.6306761630367935e-16
0
LINE
5
117
100
AcDbEntity
8
BEND_EXTENT
100
AcDbLine
10
6.9935308637805131e-15
20
4.6099574986913314
30
5.2451481478354006e-16
11
11.722499999999986
21
4.609957498691335
31
-5.1814336179097604e-15
0
LINE
5
118
100
AcDbEntity
8
BEND_EXTENT
100
AcDbLine
10
11.722500000000002
20
4.47197874934567
30
8.9419631999956365e-16
11
9.7909432092927175e-15
21
4.4719787493456646
31
1.2675774690602202e-15
0
LINE
5
119
100
AcDbEntity
8
BEND_EXTENT
100
AcDbLine
10
-0.030499999999995073
20
4.4719787493456655
30
-1.0109446383855577e-15
11
-0.030499999999992276
21
0.51597874934566534
31
-7.0497766309515995e-16
0
LINE
5
120
100
AcDbEntity
8
BEND_EXTENT
100
AcDbLine
10
-0.16847874934565069
20
0.51597874934566501
30
-2.4788053646476839e-15
11
-0.16847874934565207
21
4.4719787493456655
31
-2.4788053646476839e-15
0
ENDSEC
0
SECTION
2
OBJECTS
0
DICTIONARY
5
C
100
AcDbDictionary
3
ACAD_GROUP
350
D
3
ACAD_MLINESTYLE
350
17
0
DICTIONARY
5
D
100
AcDbDictionary
0
DICTIONARY
5
1A
330
C
100
AcDbDictionary
0
DICTIONARY
5
17
100
AcDbDictionary
0
ENDSEC
0
EOF
